<svg width="260mm" height="66.907mm" version="1.1" viewBox="0 0 260 66.907" xmlns="http://www.w3.org/2000/svg" xmlns:cc="http://creativecommons.org/ns#" xmlns:dc="http://purl.org/dc/elements/1.1/" xmlns:rdf="http://www.w3.org/1999/02/22-rdf-syntax-ns#">
<title>ROOT module coordinate in Antora resource ID to page URL</title>
<metadata>
<rdf:RDF>
<cc:Work rdf:about="">
<dc:format>image/svg+xml</dc:format>
<dc:type rdf:resource="http://purl.org/dc/dcmitype/StillImage"/>
<dc:title>ROOT module coordinate in Antora resource ID to page URL</dc:title>
<dc:creator>
<cc:Agent>
<dc:title>Sarah White</dc:title>
</cc:Agent>
</dc:creator>
<dc:publisher>
<cc:Agent>
<dc:title>OpenDevise Inc.</dc:title>
</cc:Agent>
</dc:publisher>
<dc:subject>
<rdf:Bag>
<rdf:li>Antora</rdf:li>
<rdf:li>documentation component</rdf:li>
<rdf:li>resource ID</rdf:li>
<rdf:li>URL</rdf:li>
</rdf:Bag>
</dc:subject>
<cc:license rdf:resource="http://creativecommons.org/licenses/by-sa/4.0/"/>
</cc:Work>
<cc:License rdf:about="http://creativecommons.org/licenses/by-sa/4.0/">
<cc:permits rdf:resource="http://creativecommons.org/ns#Reproduction"/>
<cc:permits rdf:resource="http://creativecommons.org/ns#Distribution"/>
<cc:requires rdf:resource="http://creativecommons.org/ns#Notice"/>
<cc:requires rdf:resource="http://creativecommons.org/ns#Attribution"/>
<cc:permits rdf:resource="http://creativecommons.org/ns#DerivativeWorks"/>
<cc:requires rdf:resource="http://creativecommons.org/ns#ShareAlike"/>
</cc:License>
</rdf:RDF>
</metadata>
<g transform="translate(-.13229 -229.96)">
<rect x=".13229" y="229.96" width="260" height="66.907" fill="#fff"/>
<g fill="#242424" stroke-width=".0727px" style="font-feature-settings:normal;font-variant-caps:normal;font-variant-ligatures:normal;font-variant-numeric:normal" aria-label="base URL of site">
<path d="m66.236 239.72q0.44388 0 0.79553 0.196t0.54765 0.54764q0.20176 0.35165 0.20176 0.81283 0 0.46117-0.20176 0.81858-0.196 0.35165-0.54765 0.54765t-0.79553 0.196q-0.34012 0-0.62259-0.13259t-0.46694-0.38624v0.48424h-0.53035v-4.2774h0.55341v1.6833q0.18447-0.24212 0.46118-0.36318 0.2767-0.12682 0.60529-0.12682zm-0.04612 2.6345q0.294 0 0.52459-0.13259 0.23635-0.13835 0.36894-0.38046 0.13835-0.24789 0.13835-0.56494 0-0.31706-0.13835-0.55918-0.13259-0.24788-0.36894-0.38047-0.23059-0.13259-0.52459-0.13259-0.28823 0-0.52459 0.13259-0.23635 0.13259-0.36894 0.38047-0.13259 0.24212-0.13259 0.55918 0 0.31705 0.13259 0.56494 0.13259 0.24211 0.36894 0.38046 0.23635 0.13259 0.52459 0.13259z" style="font-feature-settings:normal;font-variant-caps:normal;font-variant-ligatures:normal;font-variant-numeric:normal"/>
<path d="m69.624 239.72q0.63412 0 0.96847 0.31129 0.34012 0.3113 0.34012 0.92812v1.8447h-0.52459v-0.40353q-0.13835 0.21329-0.39776 0.32859-0.25365 0.10953-0.60529 0.10953-0.51306 0-0.82435-0.24789-0.30553-0.24788-0.30553-0.65141 0-0.40352 0.294-0.64564 0.294-0.24788 0.93388-0.24788h0.87623v-0.10953q0-0.35741-0.20753-0.54765-0.20753-0.19023-0.61106-0.19023-0.27094 0-0.53035 0.0922-0.25941 0.0865-0.43812 0.23636l-0.23059-0.41506q0.23635-0.19024 0.56494-0.28824 0.32859-0.10376 0.69753-0.10376zm-0.12682 2.6921q0.31706 0 0.54764-0.13835 0.23059-0.14412 0.33435-0.40353v-0.42659h-0.85317q-0.70329 0-0.70329 0.47271 0 0.23058 0.1787 0.36317 0.17871 0.13259 0.49576 0.13259z" style="font-feature-settings:normal;font-variant-caps:normal;font-variant-ligatures:normal;font-variant-numeric:normal"/>
<path d="m72.833 242.84q-0.3747 0-0.72059-0.098-0.34588-0.10377-0.54188-0.25941l0.23059-0.43812q0.20176 0.14412 0.49 0.23059 0.28823 0.0865 0.58223 0.0865 0.72635 0 0.72635-0.41506 0-0.13835-0.098-0.21906-0.098-0.0807-0.24788-0.11529-0.14412-0.0404-0.41506-0.0865-0.36894-0.0576-0.60529-0.13259-0.23059-0.0749-0.39776-0.25365-0.16718-0.1787-0.16718-0.50153 0-0.41505 0.34588-0.66293 0.34588-0.25365 0.92812-0.25365 0.30553 0 0.61106 0.0749t0.50153 0.20176l-0.23635 0.43812q-0.3747-0.24212-0.882-0.24212-0.35165 0-0.53612 0.1153-0.18447 0.11529-0.18447 0.30553 0 0.14988 0.10376 0.23635 0.10376 0.0865 0.25365 0.12682 0.15565 0.0403 0.43235 0.0922 0.36894 0.0634 0.59376 0.13835 0.23059 0.0692 0.392 0.24212 0.16141 0.17294 0.16141 0.48423 0 0.41506-0.35741 0.66294-0.35165 0.24212-0.9627 0.24212z" style="font-feature-settings:normal;font-variant-caps:normal;font-variant-ligatures:normal;font-variant-numeric:normal"/>
<path d="m77.612 241.29q0 0.0634-0.01153 0.16718h-2.4788q0.05188 0.40352 0.35165 0.65141 0.30553 0.24211 0.75517 0.24211 0.54765 0 0.882-0.36894l0.30553 0.35741q-0.20753 0.24212-0.51882 0.36894-0.30553 0.12683-0.686 0.12683-0.48423 0-0.85894-0.196-0.3747-0.20177-0.58223-0.55918-0.20176-0.35741-0.20176-0.80705 0-0.44389 0.196-0.8013 0.20176-0.35741 0.54764-0.55341 0.35165-0.20176 0.78976-0.20176 0.43812 0 0.77823 0.20176 0.34588 0.196 0.53612 0.55341 0.196 0.35741 0.196 0.81859zm-1.5103-1.1068q-0.39776 0-0.6687 0.24212-0.26518 0.24211-0.31129 0.63411h1.96q-0.04612-0.38623-0.31706-0.62835-0.26518-0.24788-0.66294-0.24788z" style="font-feature-settings:normal;font-variant-caps:normal;font-variant-ligatures:normal;font-variant-numeric:normal"/>
<path d="m81.681 242.85q-0.80706 0-1.2567-0.46118-0.44965-0.46117-0.44965-1.3259v-2.2943h0.57647v2.2713q0 1.2971 1.1356 1.2971 0.55341 0 0.84741-0.31706 0.294-0.32282 0.294-0.98v-2.2713h0.55918v2.2943q0 0.87047-0.44965 1.3316-0.44965 0.45541-1.2567 0.45541z" style="font-feature-settings:normal;font-variant-caps:normal;font-variant-ligatures:normal;font-variant-numeric:normal"/>
<path d="m87.267 242.8-0.87047-1.2394q-0.16141 0.0115-0.25365 0.0115h-0.99729v1.2279h-0.57647v-4.0353h1.5738q0.784 0 1.2336 0.3747 0.44965 0.37471 0.44965 1.0319 0 0.46694-0.23059 0.79553-0.23059 0.32858-0.65717 0.47847l0.95694 1.3547zm-1.1414-1.7179q0.54765 0 0.83588-0.23635 0.28824-0.23635 0.28824-0.67447t-0.28824-0.6687q-0.28823-0.23636-0.83588-0.23636h-0.98v1.8159z" style="font-feature-settings:normal;font-variant-caps:normal;font-variant-ligatures:normal;font-variant-numeric:normal"/>
<path d="m88.758 238.77h0.57647v3.5338h2.1848v0.50153h-2.7613z" style="font-feature-settings:normal;font-variant-caps:normal;font-variant-ligatures:normal;font-variant-numeric:normal"/>
<path d="m94.962 242.84q-0.45541 0-0.81859-0.20177-0.36318-0.20176-0.5707-0.55341-0.20176-0.35741-0.20176-0.80705 0-0.44965 0.20176-0.8013 0.20753-0.35741 0.5707-0.55341 0.36318-0.20176 0.81859-0.20176t0.81282 0.20176q0.36318 0.196 0.56494 0.55341 0.20753 0.35165 0.20753 0.8013 0 0.44964-0.20753 0.80705-0.20176 0.35165-0.56494 0.55341-0.35741 0.20177-0.81282 0.20177zm0-0.48424q0.294 0 0.52459-0.13259 0.23635-0.13835 0.36894-0.38046 0.13259-0.24789 0.13259-0.56494 0-0.31706-0.13259-0.55918-0.13259-0.24788-0.36894-0.38047-0.23059-0.13259-0.52459-0.13259t-0.53035 0.13259q-0.23059 0.13259-0.36894 0.38047-0.13259 0.24212-0.13259 0.55918 0 0.31705 0.13259 0.56494 0.13835 0.24211 0.36894 0.38046 0.23635 0.13259 0.53035 0.13259z" style="font-feature-settings:normal;font-variant-caps:normal;font-variant-ligatures:normal;font-variant-numeric:normal"/>
<path d="m98.431 238.95q-0.49576 0-0.49576 0.53612v0.26517h0.88776v0.45541h-0.87623v2.5999h-0.55341v-2.5999h-0.51882v-0.45541h0.51882v-0.27094q0-0.45541 0.26518-0.72058 0.26518-0.26518 0.74364-0.26518 0.18447 0 0.34588 0.0461 0.16141 0.0461 0.2767 0.13259l-0.16718 0.42082q-0.19024-0.14412-0.42659-0.14412z" style="font-feature-settings:normal;font-variant-caps:normal;font-variant-ligatures:normal;font-variant-numeric:normal"/>
<path d="m101.78 242.84q-0.3747 0-0.72058-0.098-0.34588-0.10377-0.54188-0.25941l0.23058-0.43812q0.20177 0.14412 0.49 0.23059 0.28824 0.0865 0.58224 0.0865 0.72635 0 0.72635-0.41506 0-0.13835-0.098-0.21906-0.098-0.0807-0.24788-0.11529-0.14412-0.0404-0.41506-0.0865-0.36894-0.0576-0.60529-0.13259-0.23059-0.0749-0.39777-0.25365-0.16717-0.1787-0.16717-0.50153 0-0.41505 0.34588-0.66293 0.34588-0.25365 0.92811-0.25365 0.30553 0 0.61106 0.0749t0.50153 0.20176l-0.23635 0.43812q-0.37471-0.24212-0.882-0.24212-0.35165 0-0.53612 0.1153-0.18447 0.11529-0.18447 0.30553 0 0.14988 0.10377 0.23635 0.10376 0.0865 0.25364 0.12682 0.15565 0.0403 0.43235 0.0922 0.36894 0.0634 0.59377 0.13835 0.23058 0.0692 0.392 0.24212 0.16141 0.17294 0.16141 0.48423 0 0.41506-0.35741 0.66294-0.35165 0.24212-0.96271 0.24212z" style="font-feature-settings:normal;font-variant-caps:normal;font-variant-ligatures:normal;font-variant-numeric:normal"/>
<path d="m103.8 239.75h0.55342v3.0553h-0.55342zm0.27671-0.588q-0.16141 0-0.27094-0.10376-0.10376-0.10376-0.10376-0.25365 0-0.14988 0.10376-0.25364 0.10953-0.10953 0.27094-0.10953t0.26518 0.10376q0.10952 0.098 0.10952 0.24788 0 0.15565-0.10952 0.26518-0.10377 0.10376-0.26518 0.10376z" style="font-feature-settings:normal;font-variant-caps:normal;font-variant-ligatures:normal;font-variant-numeric:normal"/>
<path d="m107.13 242.63q-0.12106 0.10377-0.29976 0.16141-0.17871 0.0519-0.36894 0.0519-0.46118 0-0.71483-0.24789-0.25364-0.24788-0.25364-0.70905v-1.6775h-0.51882v-0.45541h0.51882v-0.6687h0.55341v0.6687h0.87623v0.45541h-0.87623v1.6545q0 0.24788 0.12106 0.38047 0.12682 0.13259 0.35741 0.13259 0.25364 0 0.43235-0.14412z" style="font-feature-settings:normal;font-variant-caps:normal;font-variant-ligatures:normal;font-variant-numeric:normal"/>
<path d="m110.45 241.29q0 0.0634-0.0115 0.16718h-2.4788q0.0519 0.40352 0.35165 0.65141 0.30553 0.24211 0.75517 0.24211 0.54765 0 0.882-0.36894l0.30553 0.35741q-0.20753 0.24212-0.51882 0.36894-0.30553 0.12683-0.686 0.12683-0.48423 0-0.85894-0.196-0.3747-0.20177-0.58223-0.55918-0.20177-0.35741-0.20177-0.80705 0-0.44389 0.196-0.8013 0.20177-0.35741 0.54765-0.55341 0.35164-0.20176 0.78976-0.20176t0.77823 0.20176q0.34589 0.196 0.53612 0.55341 0.196 0.35741 0.196 0.81859zm-1.5104-1.1068q-0.39776 0-0.6687 0.24212-0.26518 0.24211-0.3113 0.63411h1.96q-0.0461-0.38623-0.31706-0.62835-0.26518-0.24788-0.66294-0.24788z" style="font-feature-settings:normal;font-variant-caps:normal;font-variant-ligatures:normal;font-variant-numeric:normal"/>
</g>
<g fill="none" stroke="#242424" stroke-linecap="round" stroke-linejoin="round">
<path d="m42.392 257.62v-5.7034h90.287v5.7034" stroke-width=".529"/>
<g transform="translate(-12.784 .85043)">
<path transform="translate(39.061)" d="m61.259 250.83v-3.2096" stroke-width=".529"/>
<circle transform="scale(1,-1)" cx="100.32" cy="-246.85" r=".75117" stroke-dashoffset="72" stroke-width=".529"/>
</g>
</g>
<g>
<g transform="scale(1 .99998)" stroke-width=".0727px" style="font-feature-settings:normal;font-variant-caps:normal;font-variant-ligatures:normal;font-variant-numeric:normal" aria-label="https://my-company.com/hyperlemur/1.0/deploy">
<g fill="#242424" stroke-width=".0727px">
<path d="m44.172 261.77q0.73021 0 1.1568 0.42656 0.43379 0.41933 0.43379 1.2363v2.2051h-0.69406v-2.1256q0-0.55669-0.2675-0.83866-0.2675-0.28196-0.76636-0.28196-0.56393 0-0.88927 0.33257-0.32534 0.32534-0.32534 0.93988v1.9738h-0.69406v-5.3645h0.69406v2.075q0.2169-0.27473 0.56393-0.42656 0.35426-0.15183 0.78805-0.15183z" style="font-feature-settings:normal;font-variant-caps:normal;font-variant-ligatures:normal;font-variant-numeric:normal"/>
<path d="m49.209 265.41q-0.15183 0.13014-0.37595 0.20244-0.22412 0.0651-0.46271 0.0651-0.57839 0-0.8965-0.31088t-0.31811-0.88927v-2.1039h-0.65068v-0.57116h0.65068v-0.83866h0.69406v0.83866h1.0989v0.57116h-1.0989v2.075q0 0.31089 0.15183 0.47717 0.15906 0.16629 0.44825 0.16629 0.31811 0 0.54224-0.18075z" style="font-feature-settings:normal;font-variant-caps:normal;font-variant-ligatures:normal;font-variant-numeric:normal"/>
<path d="m52.104 265.41q-0.15183 0.13014-0.37595 0.20244-0.22412 0.0651-0.46271 0.0651-0.57839 0-0.8965-0.31088t-0.31811-0.88927v-2.1039h-0.65068v-0.57116h0.65068v-0.83866h0.69406v0.83866h1.0989v0.57116h-1.0989v2.075q0 0.31089 0.15183 0.47717 0.15906 0.16629 0.44825 0.16629 0.31811 0 0.54224-0.18075z" style="font-feature-settings:normal;font-variant-caps:normal;font-variant-ligatures:normal;font-variant-numeric:normal"/>
<path d="m54.974 261.77q0.5567 0 0.99772 0.24582 0.44102 0.24581 0.68683 0.68683 0.25304 0.44102 0.25304 1.0194t-0.25304 1.0266q-0.24581 0.44102-0.68683 0.68683t-0.99772 0.24581q-0.4121 0-0.75913-0.15905-0.3398-0.15906-0.57839-0.46271v1.981h-0.69406v-5.2344h0.66514v0.60731q0.23136-0.31811 0.58562-0.47717 0.35426-0.16629 0.78082-0.16629zm-0.05784 3.304q0.36872 0 0.65792-0.16629 0.29642-0.17351 0.46271-0.47717 0.17352-0.31088 0.17352-0.70852t-0.17352-0.7013q-0.16629-0.31088-0.46271-0.47716-0.28919-0.16629-0.65792-0.16629-0.36149 0-0.65792 0.17352-0.28919 0.16628-0.46271 0.46993-0.16629 0.30366-0.16629 0.7013t0.16629 0.70852q0.16629 0.30366 0.46271 0.47717 0.29642 0.16629 0.65792 0.16629z" style="font-feature-settings:normal;font-variant-caps:normal;font-variant-ligatures:normal;font-variant-numeric:normal"/>
<path d="m58.97 265.68q-0.46994 0-0.90373-0.1229-0.43379-0.13014-0.6796-0.32535l0.28919-0.54946q0.25304 0.18074 0.61454 0.28919t0.73021 0.10845q0.91096 0 0.91096-0.52055 0-0.17352-0.12291-0.27473-0.12291-0.10122-0.31088-0.1446-0.18075-0.0506-0.52055-0.10845-0.46271-0.0723-0.75913-0.16628-0.28919-0.094-0.49886-0.31812t-0.20966-0.62899q0-0.52055 0.43379-0.83143 0.43379-0.31812 1.164-0.31812 0.38318 0 0.76636 0.094 0.38318 0.094 0.629 0.25305l-0.29642 0.54946q-0.46994-0.30365-1.1062-0.30365-0.44102 0-0.67238 0.1446-0.23136 0.14459-0.23136 0.38318 0 0.18797 0.13014 0.29642t0.31811 0.15906q0.19521 0.0506 0.54224 0.11567 0.46271 0.0795 0.74467 0.17352 0.28919 0.0868 0.49163 0.30365 0.20244 0.2169 0.20244 0.60731 0 0.52055-0.44825 0.83143-0.44102 0.30365-1.2074 0.30365z" style="font-feature-settings:normal;font-variant-caps:normal;font-variant-ligatures:normal;font-variant-numeric:normal"/>
<path d="m61.666 262.76q-0.20244 0-0.34703-0.13737-0.1446-0.14459-0.1446-0.36149 0-0.20966 0.1446-0.34703 0.1446-0.1446 0.34703-0.1446 0.20244 0 0.3398 0.13737t0.13737 0.35426q0 0.2169-0.1446 0.36149-0.13737 0.13737-0.33257 0.13737zm0 2.9208q-0.20244 0-0.34703-0.13736-0.1446-0.1446-0.1446-0.36149 0-0.20967 0.1446-0.34704 0.1446-0.14459 0.34703-0.14459 0.20244 0 0.3398 0.13736 0.13737 0.13737 0.13737 0.35427 0 0.21689-0.1446 0.36149-0.13737 0.13736-0.33257 0.13736z" style="font-feature-settings:normal;font-variant-caps:normal;font-variant-ligatures:normal;font-variant-numeric:normal"/>
<path d="m65.016 259.55h0.629l-2.3858 6.8105h-0.629z" style="font-feature-settings:normal;font-variant-caps:normal;font-variant-ligatures:normal;font-variant-numeric:normal"/>
<path d="m67.064 259.55h0.629l-2.3858 6.8105h-0.629z" style="font-feature-settings:normal;font-variant-caps:normal;font-variant-ligatures:normal;font-variant-numeric:normal"/>
<path d="m72.393 261.77q0.72298 0 1.1423 0.41933 0.42656 0.41933 0.42656 1.2435v2.2051h-0.69406v-2.1256q0-0.55669-0.26027-0.83866-0.25304-0.28196-0.73021-0.28196-0.52778 0-0.83866 0.33257-0.31088 0.32534-0.31088 0.93988v1.9738h-0.69406v-2.1256q0-0.55669-0.26027-0.83866-0.25304-0.28196-0.73021-0.28196-0.52778 0-0.83866 0.33257-0.31088 0.32534-0.31088 0.93988v1.9738h-0.69406v-3.8318h0.66514v0.57116q0.20967-0.29642 0.54947-0.44825 0.3398-0.15906 0.77359-0.15906 0.44825 0 0.79528 0.18075 0.34703 0.18074 0.53501 0.52778 0.2169-0.33258 0.60008-0.52055 0.39041-0.18798 0.87481-0.18798z" style="font-feature-settings:normal;font-variant-caps:normal;font-variant-ligatures:normal;font-variant-numeric:normal"/>
<path d="m78.56 261.8-1.8581 4.215q-0.24582 0.58561-0.57839 0.8242-0.32534 0.23858-0.78805 0.23858-0.28196 0-0.54947-0.094-0.26027-0.0868-0.43379-0.26028l0.29642-0.52055q0.29642 0.28197 0.68684 0.28197 0.25304 0 0.41933-0.13737 0.17352-0.13014 0.31088-0.45548l0.12291-0.2675-1.6918-3.8246h0.72298l1.3375 3.0654 1.3231-3.0654z" style="font-feature-settings:normal;font-variant-caps:normal;font-variant-ligatures:normal;font-variant-numeric:normal"/>
<path d="m78.863 263.35h1.9448v0.60007h-1.9448z" style="font-feature-settings:normal;font-variant-caps:normal;font-variant-ligatures:normal;font-variant-numeric:normal"/>
<path d="m83.617 265.68q-0.58562 0-1.0483-0.25304-0.45548-0.25304-0.71575-0.69406-0.26027-0.44825-0.26027-1.0122t0.26027-1.005q0.26027-0.44825 0.71575-0.69406 0.46271-0.25305 1.0483-0.25305 0.52055 0 0.92542 0.20967 0.4121 0.20966 0.63623 0.6073l-0.52778 0.33981q-0.18075-0.27474-0.44825-0.4121-0.2675-0.13737-0.59285-0.13737-0.37595 0-0.6796 0.16629-0.29642 0.16628-0.46994 0.47716-0.16629 0.30366-0.16629 0.7013 0 0.40487 0.16629 0.71575 0.17352 0.30366 0.46994 0.46994 0.30365 0.16629 0.6796 0.16629 0.32534 0 0.59285-0.13737t0.44825-0.4121l0.52778 0.33257q-0.22412 0.39764-0.63623 0.61454-0.40487 0.20966-0.92542 0.20966z" style="font-feature-settings:normal;font-variant-caps:normal;font-variant-ligatures:normal;font-variant-numeric:normal"/>
<path d="m87.655 265.68q-0.57116 0-1.0266-0.25304-0.45548-0.25304-0.71575-0.69406-0.25304-0.44825-0.25304-1.0122t0.25304-1.005q0.26027-0.44825 0.71575-0.69406 0.45548-0.25305 1.0266-0.25305 0.57116 0 1.0194 0.25305 0.45548 0.24581 0.70852 0.69406 0.26028 0.44102 0.26028 1.005t-0.26028 1.0122q-0.25304 0.44102-0.70852 0.69406-0.44825 0.25304-1.0194 0.25304zm0-0.6073q0.36872 0 0.65792-0.16629 0.29642-0.17351 0.46271-0.47717 0.16629-0.31088 0.16629-0.70852t-0.16629-0.7013q-0.16629-0.31088-0.46271-0.47716-0.28919-0.16629-0.65792-0.16629-0.36872 0-0.66514 0.16629-0.28919 0.16628-0.46271 0.47716-0.16629 0.30366-0.16629 0.7013t0.16629 0.70852q0.17352 0.30366 0.46271 0.47717 0.29642 0.16629 0.66514 0.16629z" style="font-feature-settings:normal;font-variant-caps:normal;font-variant-ligatures:normal;font-variant-numeric:normal"/>
<path d="m95.396 261.77q0.72298 0 1.1423 0.41933 0.42656 0.41933 0.42656 1.2435v2.2051h-0.69406v-2.1256q0-0.55669-0.26027-0.83866-0.25304-0.28196-0.73021-0.28196-0.52778 0-0.83866 0.33257-0.31088 0.32534-0.31088 0.93988v1.9738h-0.69406v-2.1256q0-0.55669-0.26027-0.83866-0.25304-0.28196-0.73021-0.28196-0.52778 0-0.83866 0.33257-0.31088 0.32534-0.31088 0.93988v1.9738h-0.69406v-3.8318h0.66514v0.57116q0.20966-0.29642 0.54947-0.44825 0.3398-0.15906 0.77359-0.15906 0.44825 0 0.79528 0.18075 0.34703 0.18074 0.53501 0.52778 0.2169-0.33258 0.60008-0.52055 0.39041-0.18798 0.87481-0.18798z" style="font-feature-settings:normal;font-variant-caps:normal;font-variant-ligatures:normal;font-variant-numeric:normal"/>
<path d="m100.27 261.77q0.55669 0 0.99771 0.24582 0.44102 0.24581 0.68684 0.68683 0.25304 0.44102 0.25304 1.0194t-0.25304 1.0266q-0.24582 0.44102-0.68684 0.68683t-0.99771 0.24581q-0.4121 0-0.75914-0.15905-0.3398-0.15906-0.57839-0.46271v1.981h-0.69406v-5.2344h0.66514v0.60731q0.23135-0.31811 0.58562-0.47717 0.35426-0.16629 0.78083-0.16629zm-0.0578 3.304q0.36872 0 0.65791-0.16629 0.29643-0.17351 0.46271-0.47717 0.17352-0.31088 0.17352-0.70852t-0.17352-0.7013q-0.16628-0.31088-0.46271-0.47716-0.28919-0.16629-0.65791-0.16629-0.36149 0-0.65792 0.17352-0.28919 0.16628-0.46271 0.46993-0.16629 0.30366-0.16629 0.7013t0.16629 0.70852q0.16629 0.30366 0.46271 0.47717 0.29642 0.16629 0.65792 0.16629z" style="font-feature-settings:normal;font-variant-caps:normal;font-variant-ligatures:normal;font-variant-numeric:normal"/>
<path d="m104.52 261.77q0.79528 0 1.2146 0.39041 0.42656 0.39042 0.42656 1.164v2.3136h-0.65791v-0.50609q-0.17352 0.2675-0.49886 0.4121-0.31811 0.13736-0.75913 0.13736-0.64346 0-1.0339-0.31088-0.38318-0.31088-0.38318-0.81697t0.36872-0.80974q0.36872-0.31088 1.1712-0.31088h1.0989v-0.13737q0-0.44825-0.26028-0.68684-0.26027-0.23858-0.76636-0.23858-0.3398 0-0.66514 0.11568-0.32535 0.10844-0.54947 0.29642l-0.2892-0.52055q0.29643-0.23858 0.70853-0.36149 0.4121-0.13014 0.87481-0.13014zm-0.15906 3.3763q0.39764 0 0.68684-0.17352 0.28919-0.18075 0.41933-0.50609v-0.53501h-1.07q-0.88204 0-0.88204 0.59285 0 0.28919 0.22413 0.45548 0.22412 0.16629 0.62176 0.16629z" style="font-feature-settings:normal;font-variant-caps:normal;font-variant-ligatures:normal;font-variant-numeric:normal"/>
<path d="m109.49 261.77q0.73022 0 1.1568 0.42656 0.43379 0.41933 0.43379 1.2363v2.2051h-0.69407v-2.1256q0-0.55669-0.2675-0.83866-0.26751-0.28196-0.76637-0.28196-0.56392 0-0.88927 0.33257-0.32534 0.32534-0.32534 0.93988v1.9738h-0.69406v-3.8318h0.66514v0.57839q0.20967-0.29642 0.56393-0.45548 0.36149-0.15906 0.81697-0.15906z" style="font-feature-settings:normal;font-variant-caps:normal;font-variant-ligatures:normal;font-variant-numeric:normal"/>
<path d="m115.7 261.8-1.8581 4.215q-0.24581 0.58561-0.57838 0.8242-0.32534 0.23858-0.78805 0.23858-0.28197 0-0.54947-0.094-0.26028-0.0868-0.43379-0.26028l0.29642-0.52055q0.29642 0.28197 0.68684 0.28197 0.25304 0 0.41933-0.13737 0.17351-0.13014 0.31088-0.45548l0.12291-0.2675-1.6918-3.8246h0.72299l1.3375 3.0654 1.3231-3.0654z" style="font-feature-settings:normal;font-variant-caps:normal;font-variant-ligatures:normal;font-variant-numeric:normal"/>
<path d="m116.27 265.68q-0.20243 0-0.34703-0.13736-0.1446-0.1446-0.1446-0.36149 0-0.20967 0.1446-0.34704 0.1446-0.14459 0.34703-0.14459 0.20244 0 0.3398 0.13736 0.13737 0.13737 0.13737 0.35427 0 0.21689-0.1446 0.36149-0.13736 0.13736-0.33257 0.13736z" style="font-feature-settings:normal;font-variant-caps:normal;font-variant-ligatures:normal;font-variant-numeric:normal"/>
<path d="m119.33 265.68q-0.58562 0-1.0483-0.25304-0.45548-0.25304-0.71575-0.69406-0.26027-0.44825-0.26027-1.0122t0.26027-1.005q0.26027-0.44825 0.71575-0.69406 0.46271-0.25305 1.0483-0.25305 0.52055 0 0.92542 0.20967 0.4121 0.20966 0.63622 0.6073l-0.52777 0.33981q-0.18075-0.27474-0.44825-0.4121-0.26751-0.13737-0.59285-0.13737-0.37595 0-0.6796 0.16629-0.29643 0.16628-0.46994 0.47716-0.16629 0.30366-0.16629 0.7013 0 0.40487 0.16629 0.71575 0.17351 0.30366 0.46994 0.46994 0.30365 0.16629 0.6796 0.16629 0.32534 0 0.59285-0.13737 0.2675-0.13737 0.44825-0.4121l0.52777 0.33257q-0.22412 0.39764-0.63622 0.61454-0.40487 0.20966-0.92542 0.20966z" style="font-feature-settings:normal;font-variant-caps:normal;font-variant-ligatures:normal;font-variant-numeric:normal"/>
<path d="m123.37 265.68q-0.57116 0-1.0266-0.25304t-0.71575-0.69406q-0.25305-0.44825-0.25305-1.0122t0.25305-1.005q0.26027-0.44825 0.71575-0.69406 0.45548-0.25305 1.0266-0.25305t1.0194 0.25305q0.45548 0.24581 0.70852 0.69406 0.26027 0.44102 0.26027 1.005t-0.26027 1.0122q-0.25304 0.44102-0.70852 0.69406-0.44825 0.25304-1.0194 0.25304zm0-0.6073q0.36872 0 0.65791-0.16629 0.29643-0.17351 0.46271-0.47717 0.16629-0.31088 0.16629-0.70852t-0.16629-0.7013q-0.16628-0.31088-0.46271-0.47716-0.28919-0.16629-0.65791-0.16629t-0.66515 0.16629q-0.28919 0.16628-0.46271 0.47716-0.16628 0.30366-0.16628 0.7013t0.16628 0.70852q0.17352 0.30366 0.46271 0.47717 0.29643 0.16629 0.66515 0.16629z" style="font-feature-settings:normal;font-variant-caps:normal;font-variant-ligatures:normal;font-variant-numeric:normal"/>
<path d="m131.11 261.77q0.72298 0 1.1423 0.41933 0.42656 0.41933 0.42656 1.2435v2.2051h-0.69406v-2.1256q0-0.55669-0.26028-0.83866-0.25304-0.28196-0.73021-0.28196-0.52778 0-0.83866 0.33257-0.31089 0.32534-0.31089 0.93988v1.9738h-0.69406v-2.1256q0-0.55669-0.26027-0.83866-0.25305-0.28196-0.73022-0.28196-0.52778 0-0.83866 0.33257-0.31088 0.32534-0.31088 0.93988v1.9738h-0.69407v-3.8318h0.66515v0.57116q0.20966-0.29642 0.54947-0.44825 0.3398-0.15906 0.77359-0.15906 0.44825 0 0.79528 0.18075 0.34703 0.18074 0.53501 0.52778 0.21689-0.33258 0.60008-0.52055 0.39041-0.18798 0.87481-0.18798z" style="font-feature-settings:normal;font-variant-caps:normal;font-variant-ligatures:normal;font-variant-numeric:normal"/>
<path d="m135.48 259.55h0.62899l-2.3858 6.8105h-0.629z" style="font-feature-settings:normal;font-variant-caps:normal;font-variant-ligatures:normal;font-variant-numeric:normal"/>
</g>
<g fill="#9340a4" stroke-width=".0727px">
<path d="m138.54 261.77q0.73022 0 1.1568 0.42656 0.43379 0.41933 0.43379 1.2363v2.2051h-0.69407v-2.1256q0-0.55669-0.2675-0.83866-0.2675-0.28196-0.76636-0.28196-0.56393 0-0.88927 0.33257-0.32535 0.32534-0.32535 0.93988v1.9738h-0.69406v-5.3645h0.69406v2.075q0.2169-0.27473 0.56393-0.42656 0.35426-0.15183 0.78805-0.15183z"/>
<path d="m144.74 261.8-1.8581 4.215q-0.24582 0.58561-0.57839 0.8242-0.32534 0.23858-0.78805 0.23858-0.28197 0-0.54947-0.094-0.26027-0.0868-0.43379-0.26028l0.29642-0.52055q0.29643 0.28197 0.68684 0.28197 0.25304 0 0.41933-0.13737 0.17351-0.13014 0.31088-0.45548l0.12291-0.2675-1.6918-3.8246h0.72298l1.3375 3.0654 1.3231-3.0654z"/>
<path d="m147.42 261.77q0.5567 0 0.99772 0.24582 0.44102 0.24581 0.68683 0.68683 0.25305 0.44102 0.25305 1.0194t-0.25305 1.0266q-0.24581 0.44102-0.68683 0.68683t-0.99772 0.24581q-0.4121 0-0.75913-0.15905-0.3398-0.15906-0.57839-0.46271v1.981h-0.69406v-5.2344h0.66514v0.60731q0.23136-0.31811 0.58562-0.47717 0.35426-0.16629 0.78082-0.16629zm-0.0578 3.304q0.36873 0 0.65792-0.16629 0.29642-0.17351 0.46271-0.47717 0.17351-0.31088 0.17351-0.70852t-0.17351-0.7013q-0.16629-0.31088-0.46271-0.47716-0.28919-0.16629-0.65792-0.16629-0.36149 0-0.65791 0.17352-0.2892 0.16628-0.46271 0.46993-0.16629 0.30366-0.16629 0.7013t0.16629 0.70852q0.16628 0.30366 0.46271 0.47717 0.29642 0.16629 0.65791 0.16629z"/>
<path d="m153.78 263.74q0 0.0795-0.0145 0.20966h-3.1088q0.0651 0.50609 0.44102 0.81698 0.38319 0.30365 0.94711 0.30365 0.68684 0 1.1062-0.46271l0.38318 0.44825q-0.26027 0.30365-0.65069 0.46271-0.38318 0.15905-0.86035 0.15905-0.6073 0-1.0772-0.24581-0.46994-0.25304-0.73022-0.70129-0.25304-0.44825-0.25304-1.0122 0-0.5567 0.24581-1.005 0.25305-0.44825 0.68684-0.69406 0.44102-0.25305 0.99049-0.25305 0.54946 0 0.97602 0.25305 0.43379 0.24581 0.67238 0.69406 0.24581 0.44825 0.24581 1.0266zm-1.8942-1.3881q-0.49886 0-0.83866 0.30365-0.33258 0.30366-0.39042 0.79528h2.4582q-0.0578-0.48439-0.39764-0.78805-0.33257-0.31088-0.83143-0.31088z"/>
<path d="m155.4 262.44q0.18074-0.33257 0.535-0.50609 0.35427-0.17352 0.86036-0.17352v0.67238q-0.0578-7e-3 -0.15906-7e-3 -0.56393 0-0.88927 0.3398-0.31811 0.33257-0.31811 0.95434v1.9087h-0.69407v-3.8318h0.66515z"/>
<path d="m157.65 260.27h0.69407v5.3645h-0.69407z"/>
<path d="m163.13 263.74q0 0.0795-0.0145 0.20966h-3.1088q0.0651 0.50609 0.44102 0.81698 0.38318 0.30365 0.94711 0.30365 0.68683 0 1.1062-0.46271l0.38318 0.44825q-0.26027 0.30365-0.65068 0.46271-0.38318 0.15905-0.86035 0.15905-0.60731 0-1.0772-0.24581-0.46994-0.25304-0.73021-0.70129-0.25305-0.44825-0.25305-1.0122 0-0.5567 0.24582-1.005 0.25304-0.44825 0.68683-0.69406 0.44102-0.25305 0.99049-0.25305t0.97603 0.25305q0.43379 0.24581 0.67237 0.69406 0.24582 0.44825 0.24582 1.0266zm-1.8942-1.3881q-0.49886 0-0.83866 0.30365-0.33257 0.30366-0.39041 0.79528h2.4581q-0.0578-0.48439-0.39764-0.78805-0.33257-0.31088-0.83143-0.31088z"/>
<path d="m168.88 261.77q0.72298 0 1.1423 0.41933 0.42656 0.41933 0.42656 1.2435v2.2051h-0.69406v-2.1256q0-0.55669-0.26028-0.83866-0.25304-0.28196-0.73021-0.28196-0.52778 0-0.83866 0.33257-0.31088 0.32534-0.31088 0.93988v1.9738h-0.69407v-2.1256q0-0.55669-0.26027-0.83866-0.25305-0.28196-0.73022-0.28196-0.52777 0-0.83866 0.33257-0.31088 0.32534-0.31088 0.93988v1.9738h-0.69406v-3.8318h0.66514v0.57116q0.20967-0.29642 0.54947-0.44825 0.3398-0.15906 0.77359-0.15906 0.44825 0 0.79528 0.18075 0.34703 0.18074 0.53501 0.52778 0.2169-0.33258 0.60008-0.52055 0.39041-0.18798 0.87481-0.18798z"/>
<path d="m175.3 261.8v3.8318h-0.65791v-0.57839q-0.20967 0.29642-0.5567 0.46271-0.3398 0.15905-0.74468 0.15905-0.76636 0-1.2074-0.41933-0.44102-0.42656-0.44102-1.2508v-2.2051h0.69407v2.1256q0 0.5567 0.2675 0.8459 0.2675 0.28196 0.76636 0.28196 0.54947 0 0.86758-0.33257 0.31812-0.33258 0.31812-0.93988v-1.981z"/>
<path d="m177.29 262.44q0.18075-0.33257 0.53501-0.50609t0.86035-0.17352v0.67238q-0.0578-7e-3 -0.15905-7e-3 -0.56393 0-0.88927 0.3398-0.31812 0.33257-0.31812 0.95434v1.9087h-0.69406v-3.8318h0.66514z"/>
</g>
<path d="m181.12 259.55h0.62899l-2.3858 6.8105h-0.629z" fill="#242424" stroke-width=".0727px" style="font-feature-settings:normal;font-variant-caps:normal;font-variant-ligatures:normal;font-variant-numeric:normal"/>
<g fill="#de4c36">
<path d="m183.39 260.57v5.0609h-0.71576v-4.4319h-1.1423v-0.629z"/>
<path d="m184.97 265.68q-0.20243 0-0.34703-0.13736-0.1446-0.1446-0.1446-0.36149 0-0.20967 0.1446-0.34704 0.1446-0.14459 0.34703-0.14459 0.20244 0 0.33981 0.13736 0.13736 0.13737 0.13736 0.35427 0 0.21689-0.14459 0.36149-0.13737 0.13736-0.33258 0.13736z"/>
<path d="m188.11 265.69q-0.60008 0-1.07-0.30365-0.46271-0.31088-0.73022-0.8965-0.2675-0.58562-0.2675-1.3881t0.2675-1.3881q0.26751-0.58561 0.73022-0.88927 0.46993-0.31088 1.07-0.31088 0.59285 0 1.0556 0.31088 0.46994 0.30366 0.73744 0.88927 0.2675 0.58562 0.2675 1.3881t-0.2675 1.3881-0.73744 0.8965q-0.46271 0.30365-1.0556 0.30365zm0-0.64345q0.60731 0 0.9688-0.49886 0.36872-0.49886 0.36872-1.446t-0.36872-1.446q-0.36149-0.49886-0.9688-0.49886-0.61453 0-0.98326 0.49886-0.36149 0.49885-0.36149 1.446t0.36149 1.446q0.36873 0.49886 0.98326 0.49886z"/>
</g>
<path d="m192.71 259.55h0.629l-2.3858 6.8105h-0.62899z" fill="#242424" stroke-width=".0727px" style="font-feature-settings:normal;font-variant-caps:normal;font-variant-ligatures:normal;font-variant-numeric:normal"/>
<g fill="#199d4a" stroke-width=".0727px">
<path d="m197.34 260.27v5.3645h-0.66515v-0.60731q-0.23135 0.31811-0.58561 0.4844-0.35427 0.16628-0.78083 0.16628-0.55669 0-0.99771-0.24581t-0.69407-0.68683q-0.24581-0.44825-0.24581-1.0266t0.24581-1.0194q0.25305-0.44102 0.69407-0.68683 0.44102-0.24582 0.99771-0.24582 0.4121 0 0.75914 0.15906 0.34703 0.15183 0.57838 0.45548v-2.1111zm-1.9738 4.8006q0.36149 0 0.65792-0.16629 0.29642-0.17351 0.46271-0.47717 0.16628-0.31088 0.16628-0.70852t-0.16628-0.7013q-0.16629-0.31088-0.46271-0.47716-0.29643-0.16629-0.65792-0.16629-0.36872 0-0.66514 0.16629-0.2892 0.16628-0.46271 0.47716-0.16629 0.30366-0.16629 0.7013t0.16629 0.70852q0.17351 0.30366 0.46271 0.47717 0.29642 0.16629 0.66514 0.16629z"/>
<path d="m202.12 263.74q0 0.0795-0.0145 0.20966h-3.1088q0.0651 0.50609 0.44102 0.81698 0.38318 0.30365 0.94711 0.30365 0.68683 0 1.1062-0.46271l0.38318 0.44825q-0.26027 0.30365-0.65068 0.46271-0.38318 0.15905-0.86035 0.15905-0.60731 0-1.0772-0.24581-0.46994-0.25304-0.73021-0.70129-0.25305-0.44825-0.25305-1.0122 0-0.5567 0.24582-1.005 0.25304-0.44825 0.68683-0.69406 0.44102-0.25305 0.99049-0.25305t0.97603 0.25305q0.43379 0.24581 0.67237 0.69406 0.24582 0.44825 0.24582 1.0266zm-1.8942-1.3881q-0.49886 0-0.83866 0.30365-0.33257 0.30366-0.39041 0.79528h2.4581q-0.0578-0.48439-0.39764-0.78805-0.33257-0.31088-0.83143-0.31088z"/>
<path d="m205.11 261.77q0.5567 0 0.99772 0.24582 0.44102 0.24581 0.68683 0.68683 0.25305 0.44102 0.25305 1.0194t-0.25305 1.0266q-0.24581 0.44102-0.68683 0.68683t-0.99772 0.24581q-0.4121 0-0.75913-0.15905-0.33981-0.15906-0.57839-0.46271v1.981h-0.69406v-5.2344h0.66514v0.60731q0.23135-0.31811 0.58562-0.47717 0.35426-0.16629 0.78082-0.16629zm-0.0578 3.304q0.36872 0 0.65792-0.16629 0.29642-0.17351 0.46271-0.47717 0.17351-0.31088 0.17351-0.70852t-0.17351-0.7013q-0.16629-0.31088-0.46271-0.47716-0.2892-0.16629-0.65792-0.16629-0.36149 0-0.65791 0.17352-0.2892 0.16628-0.46271 0.46993-0.16629 0.30366-0.16629 0.7013t0.16629 0.70852q0.16628 0.30366 0.46271 0.47717 0.29642 0.16629 0.65791 0.16629z"/>
<path d="m208 260.27h0.69406v5.3645h-0.69406z"/>
<path d="m211.66 265.68q-0.57116 0-1.0266-0.25304-0.45547-0.25304-0.71575-0.69406-0.25304-0.44825-0.25304-1.0122t0.25304-1.005q0.26028-0.44825 0.71575-0.69406 0.45548-0.25305 1.0266-0.25305t1.0194 0.25305q0.45548 0.24581 0.70852 0.69406 0.26028 0.44102 0.26028 1.005t-0.26028 1.0122q-0.25304 0.44102-0.70852 0.69406-0.44825 0.25304-1.0194 0.25304zm0-0.6073q0.36872 0 0.65792-0.16629 0.29642-0.17351 0.46271-0.47717 0.16628-0.31088 0.16628-0.70852t-0.16628-0.7013q-0.16629-0.31088-0.46271-0.47716-0.2892-0.16629-0.65792-0.16629t-0.66514 0.16629q-0.2892 0.16628-0.46271 0.47716-0.16629 0.30366-0.16629 0.7013t0.16629 0.70852q0.17351 0.30366 0.46271 0.47717 0.29642 0.16629 0.66514 0.16629z"/>
<path d="m217.89 261.8-1.8581 4.215q-0.24582 0.58561-0.57839 0.8242-0.32534 0.23858-0.78805 0.23858-0.28197 0-0.54947-0.094-0.26027-0.0868-0.43379-0.26028l0.29642-0.52055q0.29643 0.28197 0.68684 0.28197 0.25304 0 0.41933-0.13737 0.17351-0.13014 0.31088-0.45548l0.12291-0.2675-1.6918-3.8246h0.72298l1.3375 3.0654 1.3231-3.0654z"/>
</g>
</g>
<g fill="#9340a4" stroke-width=".0727px" style="font-feature-settings:normal;font-variant-caps:normal;font-variant-ligatures:normal;font-variant-numeric:normal" aria-label="name of  component">
<path d="m147.07 283.44q0.58223 0 0.92235 0.34011 0.34588 0.33435 0.34588 0.98576v1.7582h-0.55341v-1.6948q0-0.44389-0.21329-0.66871-0.2133-0.22482-0.61106-0.22482-0.44965 0-0.70906 0.26517-0.25941 0.25942-0.25941 0.74941v1.5738h-0.55341v-3.0553h0.53035v0.46117q0.16718-0.23635 0.44965-0.36317 0.28823-0.12682 0.65141-0.12682z" style="font-feature-settings:normal;font-variant-caps:normal;font-variant-ligatures:normal;font-variant-numeric:normal"/>
<path d="m150.48 283.44q0.63412 0 0.96847 0.31129 0.34012 0.31129 0.34012 0.92811v1.8447h-0.52459v-0.40352q-0.13835 0.21329-0.39776 0.32858-0.25365 0.10953-0.6053 0.10953-0.51305 0-0.82435-0.24788-0.30552-0.24788-0.30552-0.65141t0.29399-0.64564q0.294-0.24789 0.93388-0.24789h0.87624v-0.10952q0-0.35742-0.20753-0.54765-0.20753-0.19024-0.61106-0.19024-0.27094 0-0.53035 0.0922-0.25941 0.0865-0.43812 0.23635l-0.23058-0.41506q0.23635-0.19023 0.56494-0.28823 0.32858-0.10376 0.69752-0.10376zm-0.12682 2.6921q0.31706 0 0.54764-0.13836 0.23059-0.14411 0.33436-0.40353v-0.42658h-0.85318q-0.70329 0-0.70329 0.4727 0 0.23059 0.17871 0.36318 0.1787 0.13259 0.49576 0.13259z" style="font-feature-settings:normal;font-variant-caps:normal;font-variant-ligatures:normal;font-variant-numeric:normal"/>
<path d="m156.63 283.44q0.57647 0 0.91082 0.33435 0.34012 0.33435 0.34012 0.99152v1.7582h-0.55341v-1.6948q0-0.44389-0.20753-0.66871-0.20177-0.22482-0.58224-0.22482-0.42082 0-0.6687 0.26517-0.24788 0.25942-0.24788 0.74941v1.5738h-0.55341v-1.6948q0-0.44389-0.20753-0.66871-0.20176-0.22482-0.58223-0.22482-0.42083 0-0.66871 0.26517-0.24788 0.25942-0.24788 0.74941v1.5738h-0.55341v-3.0553h0.53035v0.45541q0.16718-0.23635 0.43812-0.35741 0.27094-0.12682 0.61682-0.12682 0.35741 0 0.63412 0.14411 0.2767 0.14412 0.42658 0.42083 0.17294-0.26518 0.47847-0.41506 0.3113-0.14988 0.69753-0.14988z" style="font-feature-settings:normal;font-variant-caps:normal;font-variant-ligatures:normal;font-variant-numeric:normal"/>
<path d="m161.69 285.02q0 0.0634-0.0115 0.16717h-2.4788q0.0519 0.40353 0.35165 0.65141 0.30553 0.24212 0.75518 0.24212 0.54764 0 0.88199-0.36894l0.30553 0.35741q-0.20753 0.24212-0.51882 0.36894-0.30553 0.12682-0.686 0.12682-0.48423 0-0.85894-0.196-0.3747-0.20176-0.58223-0.55917-0.20177-0.35741-0.20177-0.80706 0-0.44388 0.196-0.80129 0.20177-0.35741 0.54765-0.55341 0.35165-0.20176 0.78976-0.20176 0.43812 0 0.77824 0.20176 0.34588 0.196 0.53611 0.55341 0.196 0.35741 0.196 0.81859zm-1.5104-1.1068q-0.39776 0-0.6687 0.24211-0.26518 0.24212-0.3113 0.63412h1.96q-0.0461-0.38624-0.31706-0.62835-0.26517-0.24788-0.66294-0.24788z" style="font-feature-settings:normal;font-variant-caps:normal;font-variant-ligatures:normal;font-variant-numeric:normal"/>
<path d="m165.31 286.56q-0.45541 0-0.81859-0.20176-0.36317-0.20177-0.5707-0.55341-0.20176-0.35741-0.20176-0.80706 0-0.44964 0.20176-0.80129 0.20753-0.35741 0.5707-0.55341 0.36318-0.20176 0.81859-0.20176t0.81282 0.20176q0.36318 0.196 0.56494 0.55341 0.20753 0.35165 0.20753 0.80129 0 0.44965-0.20753 0.80706-0.20176 0.35164-0.56494 0.55341-0.35741 0.20176-0.81282 0.20176zm0-0.48423q0.294 0 0.52459-0.13259 0.23635-0.13835 0.36894-0.38047 0.13258-0.24788 0.13258-0.56494t-0.13258-0.55917q-0.13259-0.24788-0.36894-0.38047-0.23059-0.13259-0.52459-0.13259t-0.53035 0.13259q-0.23059 0.13259-0.36894 0.38047-0.13259 0.24211-0.13259 0.55917t0.13259 0.56494q0.13835 0.24212 0.36894 0.38047 0.23635 0.13259 0.53035 0.13259z" style="font-feature-settings:normal;font-variant-caps:normal;font-variant-ligatures:normal;font-variant-numeric:normal"/>
<path d="m168.78 282.67q-0.49576 0-0.49576 0.53611v0.26518h0.88776v0.45541h-0.87623v2.5999h-0.55341v-2.5999h-0.51882v-0.45541h0.51882v-0.27094q0-0.45541 0.26517-0.72059 0.26518-0.26517 0.74365-0.26517 0.18447 0 0.34588 0.0461t0.27671 0.13259l-0.16718 0.42082q-0.19024-0.14411-0.42659-0.14411z" style="font-feature-settings:normal;font-variant-caps:normal;font-variant-ligatures:normal;font-variant-numeric:normal"/>
<path d="m141.71 293.77q-0.46694 0-0.83588-0.20177-0.36317-0.20176-0.5707-0.55341-0.20753-0.35741-0.20753-0.80706 0-0.44964 0.20753-0.80129 0.20753-0.35741 0.5707-0.55341 0.36894-0.20176 0.83588-0.20176 0.41506 0 0.73788 0.16717 0.32859 0.16718 0.50729 0.48424l-0.42082 0.27094q-0.14412-0.21906-0.35741-0.32859t-0.4727-0.10953q-0.29977 0-0.54188 0.13259-0.23636 0.13259-0.37471 0.38047-0.13259 0.24212-0.13259 0.55917 0 0.32283 0.13259 0.57071 0.13835 0.24212 0.37471 0.3747 0.24211 0.13259 0.54188 0.13259 0.25941 0 0.4727-0.10953t0.35741-0.32859l0.42082 0.26518q-0.1787 0.31706-0.50729 0.49-0.32282 0.16718-0.73788 0.16718z" style="font-feature-settings:normal;font-variant-caps:normal;font-variant-ligatures:normal;font-variant-numeric:normal"/>
<path d="m144.93 293.77q-0.45541 0-0.81859-0.20177-0.36317-0.20176-0.5707-0.55341-0.20176-0.35741-0.20176-0.80706 0-0.44964 0.20176-0.80129 0.20753-0.35741 0.5707-0.55341 0.36318-0.20176 0.81859-0.20176t0.81282 0.20176q0.36318 0.196 0.56494 0.55341 0.20753 0.35165 0.20753 0.80129 0 0.44965-0.20753 0.80706-0.20176 0.35165-0.56494 0.55341-0.35741 0.20177-0.81282 0.20177zm0-0.48424q0.294 0 0.52459-0.13259 0.23635-0.13835 0.36894-0.38047 0.13259-0.24788 0.13259-0.56494 0-0.31705-0.13259-0.55917-0.13259-0.24788-0.36894-0.38047-0.23059-0.13259-0.52459-0.13259t-0.53035 0.13259q-0.23059 0.13259-0.36894 0.38047-0.13259 0.24212-0.13259 0.55917 0 0.31706 0.13259 0.56494 0.13835 0.24212 0.36894 0.38047 0.23635 0.13259 0.53035 0.13259z" style="font-feature-settings:normal;font-variant-caps:normal;font-variant-ligatures:normal;font-variant-numeric:normal"/>
<path d="m151.1 290.65q0.57647 0 0.91082 0.33435 0.34012 0.33435 0.34012 0.99153v1.7582h-0.55341v-1.6948q0-0.44388-0.20753-0.66871-0.20176-0.22482-0.58223-0.22482-0.42083 0-0.66871 0.26518-0.24788 0.25941-0.24788 0.74941v1.5738h-0.55341v-1.6948q0-0.44388-0.20753-0.66871-0.20176-0.22482-0.58223-0.22482-0.42082 0-0.66871 0.26518-0.24788 0.25941-0.24788 0.74941v1.5738h-0.55341v-3.0553h0.53035v0.45541q0.16718-0.23635 0.43812-0.35741 0.27094-0.12682 0.61682-0.12682 0.35741 0 0.63412 0.14412 0.2767 0.14411 0.42659 0.42082 0.17294-0.26518 0.47846-0.41506 0.3113-0.14988 0.69753-0.14988z" style="font-feature-settings:normal;font-variant-caps:normal;font-variant-ligatures:normal;font-variant-numeric:normal"/>
<path d="m154.99 290.65q0.44388 0 0.79552 0.196 0.35165 0.196 0.54765 0.54764 0.20176 0.35165 0.20176 0.81282 0 0.46118-0.20176 0.81859-0.196 0.35165-0.54765 0.54765-0.35164 0.196-0.79552 0.196-0.32859 0-0.6053-0.12683-0.27094-0.12682-0.46117-0.36894v1.5795h-0.55341v-4.1736h0.53035v0.48424q0.18447-0.25365 0.46694-0.38047 0.28247-0.13259 0.62259-0.13259zm-0.0461 2.6345q0.294 0 0.52459-0.13259 0.23635-0.13835 0.36894-0.38047 0.13835-0.24788 0.13835-0.56494 0-0.31705-0.13835-0.55917-0.13259-0.24788-0.36894-0.38047-0.23059-0.13259-0.52459-0.13259-0.28824 0-0.52459 0.13835-0.23059 0.13259-0.36894 0.37471-0.13259 0.24212-0.13259 0.55917 0 0.31706 0.13259 0.56494 0.13259 0.24212 0.36894 0.38047 0.23635 0.13259 0.52459 0.13259z" style="font-feature-settings:normal;font-variant-caps:normal;font-variant-ligatures:normal;font-variant-numeric:normal"/>
<path d="m158.61 293.77q-0.45541 0-0.81859-0.20177-0.36317-0.20176-0.5707-0.55341-0.20176-0.35741-0.20176-0.80706 0-0.44964 0.20176-0.80129 0.20753-0.35741 0.5707-0.55341 0.36318-0.20176 0.81859-0.20176t0.81282 0.20176q0.36318 0.196 0.56494 0.55341 0.20753 0.35165 0.20753 0.80129 0 0.44965-0.20753 0.80706-0.20176 0.35165-0.56494 0.55341-0.35741 0.20177-0.81282 0.20177zm0-0.48424q0.294 0 0.52459-0.13259 0.23635-0.13835 0.36894-0.38047 0.13258-0.24788 0.13258-0.56494 0-0.31705-0.13258-0.55917-0.13259-0.24788-0.36894-0.38047-0.23059-0.13259-0.52459-0.13259t-0.53035 0.13259q-0.23059 0.13259-0.36894 0.38047-0.13259 0.24212-0.13259 0.55917 0 0.31706 0.13259 0.56494 0.13835 0.24212 0.36894 0.38047 0.23635 0.13259 0.53035 0.13259z" style="font-feature-settings:normal;font-variant-caps:normal;font-variant-ligatures:normal;font-variant-numeric:normal"/>
<path d="m162.59 290.65q0.58223 0 0.92235 0.34011 0.34588 0.33436 0.34588 0.98577v1.7582h-0.55341v-1.6948q0-0.44388-0.21329-0.66871-0.2133-0.22482-0.61106-0.22482-0.44964 0-0.70906 0.26518-0.25941 0.25941-0.25941 0.74941v1.5738h-0.55341v-3.0553h0.53035v0.46118q0.16718-0.23636 0.44965-0.36318 0.28823-0.12682 0.65141-0.12682z" style="font-feature-settings:normal;font-variant-caps:normal;font-variant-ligatures:normal;font-variant-numeric:normal"/>
<path d="m167.68 292.22q0 0.0634-0.0115 0.16717h-2.4788q0.0519 0.40353 0.35164 0.65141 0.30553 0.24212 0.75518 0.24212 0.54764 0 0.882-0.36894l0.30553 0.35741q-0.20753 0.24212-0.51883 0.36894-0.30553 0.12683-0.686 0.12683-0.48423 0-0.85893-0.196-0.37471-0.20177-0.58224-0.55918-0.20176-0.35741-0.20176-0.80706 0-0.44388 0.196-0.80129 0.20176-0.35741 0.54764-0.55341 0.35165-0.20176 0.78977-0.20176 0.43811 0 0.77823 0.20176 0.34588 0.196 0.53612 0.55341 0.19599 0.35741 0.19599 0.81859zm-1.5103-1.1068q-0.39777 0-0.66871 0.24211-0.26517 0.24212-0.31129 0.63412h1.96q-0.0461-0.38623-0.31705-0.62835-0.26518-0.24788-0.66294-0.24788z" style="font-feature-settings:normal;font-variant-caps:normal;font-variant-ligatures:normal;font-variant-numeric:normal"/>
<path d="m170.07 290.65q0.58224 0 0.92235 0.34011 0.34588 0.33436 0.34588 0.98577v1.7582h-0.55341v-1.6948q0-0.44388-0.21329-0.66871-0.21329-0.22482-0.61106-0.22482-0.44964 0-0.70905 0.26518-0.25942 0.25941-0.25942 0.74941v1.5738h-0.55341v-3.0553h0.53036v0.46118q0.16717-0.23636 0.44964-0.36318 0.28824-0.12682 0.65141-0.12682z" style="font-feature-settings:normal;font-variant-caps:normal;font-variant-ligatures:normal;font-variant-numeric:normal"/>
<path d="m174.09 293.55q-0.12106 0.10377-0.29976 0.16141-0.17871 0.0519-0.36894 0.0519-0.46118 0-0.71483-0.24789-0.25364-0.24788-0.25364-0.70905v-1.6775h-0.51882v-0.45541h0.51882v-0.6687h0.55341v0.6687h0.87623v0.45541h-0.87623v1.6545q0 0.24788 0.12106 0.38047 0.12682 0.13259 0.35741 0.13259 0.25364 0 0.43235-0.14412z" style="font-feature-settings:normal;font-variant-caps:normal;font-variant-ligatures:normal;font-variant-numeric:normal"/>
</g>
<path d="m136.53 268.99v5.7034h41.127v-5.7034" fill="none" stroke="#9340a4" stroke-linecap="round" stroke-linejoin="round" stroke-width=".529"/>
</g>
<g transform="translate(.066145 .85043)" fill="none" stroke="#9340a4" stroke-linecap="round" stroke-linejoin="round">
<path transform="translate(13.131)" d="m143.89 274.08v3.2096" stroke-width=".529"/>
<circle cx="157.03" cy="278.06" r=".75117" stroke-dashoffset="72" stroke-width=".529"/>
</g>
<g fill="#de4c36" stroke-width=".0727px" style="font-feature-settings:normal;font-variant-caps:normal;font-variant-ligatures:normal;font-variant-numeric:normal" aria-label="name of version">
<path d="m175.73 233.17q0.58223 0 0.92235 0.34011 0.34588 0.33436 0.34588 0.98577v1.7582h-0.55341v-1.6948q0-0.44388-0.21329-0.66871-0.21329-0.22482-0.61106-0.22482-0.44964 0-0.70906 0.26518-0.25941 0.25941-0.25941 0.74941v1.5738h-0.55341v-3.0553h0.53035v0.46118q0.16718-0.23636 0.44965-0.36318 0.28824-0.12682 0.65141-0.12682z" style="font-feature-settings:normal;font-variant-caps:normal;font-variant-ligatures:normal;font-variant-numeric:normal"/>
<path d="m179.14 233.17q0.63411 0 0.96846 0.31129 0.34012 0.31129 0.34012 0.92812v1.8447h-0.52459v-0.40353q-0.13835 0.21329-0.39776 0.32859-0.25365 0.10952-0.60529 0.10952-0.51306 0-0.82435-0.24788-0.30553-0.24788-0.30553-0.65141t0.294-0.64564q0.294-0.24788 0.93388-0.24788h0.87623v-0.10953q0-0.35741-0.20753-0.54765-0.20753-0.19023-0.61106-0.19023-0.27094 0-0.53035 0.0922-0.25941 0.0865-0.43811 0.23635l-0.23059-0.41505q0.23635-0.19024 0.56494-0.28824 0.32858-0.10376 0.69753-0.10376zm-0.12683 2.6921q0.31706 0 0.54765-0.13836 0.23058-0.14411 0.33435-0.40352v-0.42659h-0.85317q-0.7033 0-0.7033 0.4727 0 0.23059 0.17871 0.36318 0.1787 0.13259 0.49576 0.13259z" style="font-feature-settings:normal;font-variant-caps:normal;font-variant-ligatures:normal;font-variant-numeric:normal"/>
<path d="m185.3 233.17q0.57647 0 0.91082 0.33435 0.34012 0.33435 0.34012 0.99153v1.7582h-0.55341v-1.6948q0-0.44388-0.20753-0.66871-0.20176-0.22482-0.58223-0.22482-0.42083 0-0.66871 0.26518-0.24788 0.25941-0.24788 0.74941v1.5738h-0.55341v-1.6948q0-0.44388-0.20753-0.66871-0.20176-0.22482-0.58223-0.22482-0.42082 0-0.66871 0.26518-0.24788 0.25941-0.24788 0.74941v1.5738h-0.55341v-3.0553h0.53035v0.45541q0.16718-0.23635 0.43812-0.35741 0.27094-0.12682 0.61682-0.12682 0.35741 0 0.63412 0.14411 0.2767 0.14412 0.42659 0.42083 0.17294-0.26518 0.47846-0.41506 0.3113-0.14988 0.69753-0.14988z" style="font-feature-settings:normal;font-variant-caps:normal;font-variant-ligatures:normal;font-variant-numeric:normal"/>
<path d="m190.35 234.75q0 0.0634-0.0115 0.16717h-2.4788q0.0519 0.40353 0.35164 0.65141 0.30553 0.24212 0.75518 0.24212 0.54764 0 0.88199-0.36894l0.30553 0.35741q-0.20753 0.24212-0.51882 0.36894-0.30553 0.12682-0.686 0.12682-0.48423 0-0.85894-0.19599-0.3747-0.20177-0.58223-0.55918-0.20176-0.35741-0.20176-0.80706 0-0.44388 0.196-0.80129 0.20176-0.35741 0.54764-0.55341 0.35165-0.20176 0.78976-0.20176 0.43812 0 0.77824 0.20176 0.34588 0.196 0.53611 0.55341 0.196 0.35741 0.196 0.81859zm-1.5104-1.1068q-0.39776 0-0.6687 0.24211-0.26518 0.24212-0.31129 0.63412h1.96q-0.0461-0.38623-0.31706-0.62835-0.26517-0.24788-0.66294-0.24788z" style="font-feature-settings:normal;font-variant-caps:normal;font-variant-ligatures:normal;font-variant-numeric:normal"/>
<path d="m193.97 236.29q-0.45541 0-0.81858-0.20176-0.36318-0.20176-0.57071-0.55341-0.20176-0.35741-0.20176-0.80706 0-0.44964 0.20176-0.80129 0.20753-0.35741 0.57071-0.55341 0.36317-0.20176 0.81858-0.20176t0.81282 0.20176q0.36318 0.196 0.56494 0.55341 0.20753 0.35165 0.20753 0.80129 0 0.44965-0.20753 0.80706-0.20176 0.35165-0.56494 0.55341-0.35741 0.20176-0.81282 0.20176zm0-0.48423q0.294 0 0.52459-0.13259 0.23635-0.13835 0.36894-0.38047 0.13259-0.24788 0.13259-0.56494 0-0.31705-0.13259-0.55917-0.13259-0.24788-0.36894-0.38047-0.23059-0.13259-0.52459-0.13259t-0.53035 0.13259q-0.23059 0.13259-0.36894 0.38047-0.13259 0.24212-0.13259 0.55917 0 0.31706 0.13259 0.56494 0.13835 0.24212 0.36894 0.38047 0.23635 0.13259 0.53035 0.13259z" style="font-feature-settings:normal;font-variant-caps:normal;font-variant-ligatures:normal;font-variant-numeric:normal"/>
<path d="m197.44 232.4q-0.49576 0-0.49576 0.53612v0.26517h0.88776v0.45541h-0.87623v2.5999h-0.55341v-2.5999h-0.51882v-0.45541h0.51882v-0.27094q0-0.45541 0.26518-0.72059 0.26517-0.26517 0.74364-0.26517 0.18447 0 0.34588 0.0461t0.27671 0.13258l-0.16718 0.42083q-0.19023-0.14412-0.42659-0.14412z" style="font-feature-settings:normal;font-variant-caps:normal;font-variant-ligatures:normal;font-variant-numeric:normal"/>
<path d="m178.39 240.41-1.3374 3.0553h-0.56494l-1.3374-3.0553h0.57647l1.0492 2.45 1.0722-2.45z" style="font-feature-settings:normal;font-variant-caps:normal;font-variant-ligatures:normal;font-variant-numeric:normal"/>
<path d="m181.58 241.95q0 0.0634-0.0115 0.16718h-2.4788q0.0519 0.40352 0.35165 0.65141 0.30553 0.24211 0.75517 0.24211 0.54765 0 0.882-0.36894l0.30553 0.35741q-0.20753 0.24212-0.51882 0.36894-0.30553 0.12683-0.686 0.12683-0.48424 0-0.85894-0.196-0.37471-0.20177-0.58223-0.55918-0.20177-0.35741-0.20177-0.80705 0-0.44389 0.196-0.8013 0.20176-0.35741 0.54765-0.55341 0.35164-0.20176 0.78976-0.20176t0.77823 0.20176q0.34588 0.196 0.53612 0.55341 0.196 0.35741 0.196 0.81859zm-1.5104-1.1068q-0.39776 0-0.66871 0.24212-0.26517 0.24211-0.31129 0.63411h1.96q-0.0461-0.38623-0.31706-0.62835-0.26518-0.24788-0.66294-0.24788z" style="font-feature-settings:normal;font-variant-caps:normal;font-variant-ligatures:normal;font-variant-numeric:normal"/>
<path d="m182.87 240.92q0.14412-0.26518 0.42659-0.40353t0.68599-0.13835v0.53612q-0.0461-6e-3 -0.12682-6e-3 -0.44964 0-0.70906 0.27094-0.25364 0.26518-0.25364 0.76094v1.5219h-0.55341v-3.0553h0.53035z" style="font-feature-settings:normal;font-variant-caps:normal;font-variant-ligatures:normal;font-variant-numeric:normal"/>
<path d="m185.56 243.5q-0.37471 0-0.72059-0.098-0.34588-0.10377-0.54188-0.25941l0.23059-0.43812q0.20176 0.14412 0.48999 0.23059 0.28824 0.0865 0.58224 0.0865 0.72635 0 0.72635-0.41506 0-0.13835-0.098-0.21906-0.098-0.0807-0.24788-0.11529-0.14412-0.0404-0.41506-0.0865-0.36894-0.0576-0.60529-0.13259-0.23059-0.0749-0.39777-0.25365-0.16717-0.1787-0.16717-0.50153 0-0.41505 0.34588-0.66293 0.34588-0.25365 0.92811-0.25365 0.30553 0 0.61106 0.0749t0.50153 0.20176l-0.23635 0.43812q-0.37471-0.24212-0.882-0.24212-0.35165 0-0.53612 0.1153-0.18447 0.11529-0.18447 0.30553 0 0.14988 0.10377 0.23635 0.10376 0.0865 0.25364 0.12682 0.15565 0.0404 0.43236 0.0922 0.36894 0.0634 0.59376 0.13835 0.23059 0.0692 0.392 0.24212 0.16141 0.17294 0.16141 0.48423 0 0.41506-0.35741 0.66294-0.35165 0.24212-0.9627 0.24212z" style="font-feature-settings:normal;font-variant-caps:normal;font-variant-ligatures:normal;font-variant-numeric:normal"/>
<path d="m187.58 240.41h0.55341v3.0553h-0.55341zm0.2767-0.588q-0.16141 0-0.27094-0.10376-0.10376-0.10376-0.10376-0.25365 0-0.14988 0.10376-0.25364 0.10953-0.10953 0.27094-0.10953t0.26518 0.10376q0.10953 0.098 0.10953 0.24788 0 0.15565-0.10953 0.26518-0.10377 0.10376-0.26518 0.10376z" style="font-feature-settings:normal;font-variant-caps:normal;font-variant-ligatures:normal;font-variant-numeric:normal"/>
<path d="m190.5 243.5q-0.45541 0-0.81859-0.20177-0.36317-0.20176-0.5707-0.55341-0.20176-0.35741-0.20176-0.80705 0-0.44965 0.20176-0.8013 0.20753-0.35741 0.5707-0.55341 0.36318-0.20176 0.81859-0.20176t0.81282 0.20176q0.36318 0.196 0.56494 0.55341 0.20753 0.35165 0.20753 0.8013 0 0.44964-0.20753 0.80705-0.20176 0.35165-0.56494 0.55341-0.35741 0.20177-0.81282 0.20177zm0-0.48424q0.294 0 0.52459-0.13259 0.23635-0.13835 0.36894-0.38046 0.13259-0.24789 0.13259-0.56494 0-0.31706-0.13259-0.55918-0.13259-0.24788-0.36894-0.38047-0.23059-0.13259-0.52459-0.13259t-0.53035 0.13259q-0.23059 0.13259-0.36894 0.38047-0.13259 0.24212-0.13259 0.55918 0 0.31705 0.13259 0.56494 0.13835 0.24211 0.36894 0.38046 0.23635 0.13259 0.53035 0.13259z" style="font-feature-settings:normal;font-variant-caps:normal;font-variant-ligatures:normal;font-variant-numeric:normal"/>
<path d="m194.48 240.38q0.58223 0 0.92235 0.34012 0.34588 0.33435 0.34588 0.98576v1.7582h-0.55341v-1.6948q0-0.44388-0.21329-0.6687-0.21329-0.22483-0.61106-0.22483-0.44964 0-0.70906 0.26518-0.25941 0.25941-0.25941 0.74941v1.5738h-0.55341v-3.0553h0.53035v0.46118q0.16718-0.23635 0.44965-0.36318 0.28824-0.12682 0.65141-0.12682z" style="font-feature-settings:normal;font-variant-caps:normal;font-variant-ligatures:normal;font-variant-numeric:normal"/>
</g>
<g fill="none" stroke="#de4c36" stroke-linecap="round" stroke-linejoin="round">
<path d="m181.94 257.62v-5.7034h8.2664v5.7034" stroke-width=".529"/>
<g transform="translate(-7.8714 .85043)">
<path transform="translate(13.131)" d="m180.81 250.83v-3.2096" stroke-width=".529"/>
<circle transform="scale(1,-1)" cx="193.94" cy="-246.85" r=".75117" stroke-dashoffset="72" stroke-width=".529"/>
</g>
</g>
<g fill="#199d4a" stroke-width=".0727px" style="font-feature-settings:normal;font-variant-caps:normal;font-variant-ligatures:normal;font-variant-numeric:normal" aria-label="name of  page">
<path d="m195.17 283.44q0.58224 0 0.92235 0.34011 0.34589 0.33435 0.34589 0.98576v1.7582h-0.55341v-1.6948q0-0.44389-0.2133-0.66871-0.21329-0.22482-0.61105-0.22482-0.44965 0-0.70906 0.26517-0.25941 0.25942-0.25941 0.74941v1.5738h-0.55341v-3.0553h0.53035v0.46117q0.16717-0.23635 0.44964-0.36317 0.28824-0.12682 0.65141-0.12682z" style="font-feature-settings:normal;font-variant-caps:normal;font-variant-ligatures:normal;font-variant-numeric:normal"/>
<path d="m198.58 283.44q0.63411 0 0.96847 0.31129 0.34011 0.31129 0.34011 0.92811v1.8447h-0.52458v-0.40352q-0.13836 0.21329-0.39777 0.32858-0.25364 0.10953-0.60529 0.10953-0.51306 0-0.82435-0.24788-0.30553-0.24788-0.30553-0.65141t0.294-0.64564q0.294-0.24789 0.93388-0.24789h0.87623v-0.10952q0-0.35742-0.20753-0.54765-0.20752-0.19024-0.61105-0.19024-0.27094 0-0.53035 0.0922-0.25942 0.0865-0.43812 0.23635l-0.23059-0.41506q0.23635-0.19023 0.56494-0.28823 0.32859-0.10376 0.69753-0.10376zm-0.12682 2.6921q0.31705 0 0.54764-0.13836 0.23059-0.14411 0.33435-0.40353v-0.42658h-0.85317q-0.70329 0-0.70329 0.4727 0 0.23059 0.1787 0.36318 0.17871 0.13259 0.49577 0.13259z" style="font-feature-settings:normal;font-variant-caps:normal;font-variant-ligatures:normal;font-variant-numeric:normal"/>
<path d="m204.74 283.44q0.57647 0 0.91082 0.33435 0.34011 0.33435 0.34011 0.99152v1.7582h-0.55341v-1.6948q0-0.44389-0.20752-0.66871-0.20177-0.22482-0.58224-0.22482-0.42082 0-0.6687 0.26517-0.24788 0.25942-0.24788 0.74941v1.5738h-0.55341v-1.6948q0-0.44389-0.20753-0.66871-0.20177-0.22482-0.58224-0.22482-0.42082 0-0.6687 0.26517-0.24788 0.25942-0.24788 0.74941v1.5738h-0.55341v-3.0553h0.53035v0.45541q0.16717-0.23635 0.43811-0.35741 0.27095-0.12682 0.61683-0.12682 0.35741 0 0.63411 0.14411 0.27671 0.14412 0.42659 0.42083 0.17294-0.26518 0.47847-0.41506 0.31129-0.14988 0.69753-0.14988z" style="font-feature-settings:normal;font-variant-caps:normal;font-variant-ligatures:normal;font-variant-numeric:normal"/>
<path d="m209.79 285.02q0 0.0634-0.0115 0.16717h-2.4788q0.0519 0.40353 0.35165 0.65141 0.30553 0.24212 0.75517 0.24212 0.54765 0 0.882-0.36894l0.30553 0.35741q-0.20753 0.24212-0.51882 0.36894-0.30553 0.12682-0.686 0.12682-0.48424 0-0.85894-0.196-0.37471-0.20176-0.58223-0.55917-0.20177-0.35741-0.20177-0.80706 0-0.44388 0.196-0.80129 0.20176-0.35741 0.54765-0.55341 0.35164-0.20176 0.78976-0.20176 0.43811 0 0.77823 0.20176 0.34588 0.196 0.53612 0.55341 0.196 0.35741 0.196 0.81859zm-1.5104-1.1068q-0.39777 0-0.66871 0.24211-0.26517 0.24212-0.31129 0.63412h1.96q-0.0461-0.38624-0.31706-0.62835-0.26518-0.24788-0.66294-0.24788z" style="font-feature-settings:normal;font-variant-caps:normal;font-variant-ligatures:normal;font-variant-numeric:normal"/>
<path d="m213.42 286.56q-0.45541 0-0.81859-0.20176-0.36318-0.20177-0.5707-0.55341-0.20177-0.35741-0.20177-0.80706 0-0.44964 0.20177-0.80129 0.20752-0.35741 0.5707-0.55341 0.36318-0.20176 0.81859-0.20176t0.81282 0.20176q0.36317 0.196 0.56494 0.55341 0.20753 0.35165 0.20753 0.80129 0 0.44965-0.20753 0.80706-0.20177 0.35164-0.56494 0.55341-0.35741 0.20176-0.81282 0.20176zm0-0.48423q0.294 0 0.52458-0.13259 0.23636-0.13835 0.36894-0.38047 0.13259-0.24788 0.13259-0.56494t-0.13259-0.55917q-0.13258-0.24788-0.36894-0.38047-0.23058-0.13259-0.52458-0.13259t-0.53036 0.13259q-0.23058 0.13259-0.36894 0.38047-0.13258 0.24211-0.13258 0.55917t0.13258 0.56494q0.13836 0.24212 0.36894 0.38047 0.23636 0.13259 0.53036 0.13259z" style="font-feature-settings:normal;font-variant-caps:normal;font-variant-ligatures:normal;font-variant-numeric:normal"/>
<path d="m216.89 282.67q-0.49576 0-0.49576 0.53611v0.26518h0.88776v0.45541h-0.87624v2.5999h-0.55341v-2.5999h-0.51882v-0.45541h0.51882v-0.27094q0-0.45541 0.26518-0.72059 0.26518-0.26517 0.74365-0.26517 0.18447 0 0.34588 0.0461t0.2767 0.13259l-0.16717 0.42082q-0.19024-0.14411-0.42659-0.14411z" style="font-feature-settings:normal;font-variant-caps:normal;font-variant-ligatures:normal;font-variant-numeric:normal"/>
<path d="m199.86 290.65q0.44389 0 0.79553 0.196 0.35165 0.196 0.54765 0.54764 0.20176 0.35165 0.20176 0.81282 0 0.46118-0.20176 0.81859-0.196 0.35165-0.54765 0.54765-0.35164 0.196-0.79553 0.196-0.32858 0-0.60529-0.12683-0.27094-0.12682-0.46117-0.36894v1.5795h-0.55341v-4.1736h0.53035v0.48424q0.18447-0.25365 0.46694-0.38047 0.28247-0.13259 0.62258-0.13259zm-0.0461 2.6345q0.294 0 0.52458-0.13259 0.23636-0.13835 0.36894-0.38047 0.13836-0.24788 0.13836-0.56494 0-0.31705-0.13836-0.55917-0.13258-0.24788-0.36894-0.38047-0.23058-0.13259-0.52458-0.13259-0.28824 0-0.52459 0.13835-0.23059 0.13259-0.36894 0.37471-0.13259 0.24212-0.13259 0.55917 0 0.31706 0.13259 0.56494 0.13259 0.24212 0.36894 0.38047 0.23635 0.13259 0.52459 0.13259z" style="font-feature-settings:normal;font-variant-caps:normal;font-variant-ligatures:normal;font-variant-numeric:normal"/>
<path d="m203.25 290.65q0.63412 0 0.96847 0.31129 0.34012 0.31129 0.34012 0.92812v1.8447h-0.52459v-0.40353q-0.13835 0.21329-0.39776 0.32859-0.25365 0.10953-0.6053 0.10953-0.51305 0-0.82435-0.24789-0.30553-0.24788-0.30553-0.65141 0-0.40352 0.294-0.64564 0.294-0.24788 0.93388-0.24788h0.87624v-0.10953q0-0.35741-0.20753-0.54765-0.20753-0.19023-0.61106-0.19023-0.27094 0-0.53035 0.0922-0.25941 0.0865-0.43812 0.23635l-0.23059-0.41505q0.23636-0.19024 0.56494-0.28824 0.32859-0.10376 0.69753-0.10376zm-0.12682 2.6921q0.31706 0 0.54764-0.13835 0.23059-0.14412 0.33436-0.40353v-0.42659h-0.85318q-0.70329 0-0.70329 0.4727 0 0.23059 0.1787 0.36318 0.17871 0.13259 0.49577 0.13259z" style="font-feature-settings:normal;font-variant-caps:normal;font-variant-ligatures:normal;font-variant-numeric:normal"/>
<path d="m208.53 290.68v2.6402q0 0.80129-0.39777 1.1818-0.39776 0.38623-1.1875 0.38623-0.43236 0-0.82436-0.12105-0.39199-0.1153-0.63411-0.33436l0.26517-0.42658q0.2133 0.18447 0.52459 0.28823 0.31706 0.10953 0.65141 0.10953 0.53612 0 0.78976-0.25365 0.25941-0.25364 0.25941-0.77246v-0.24212q-0.19599 0.23635-0.48423 0.35741-0.28247 0.11529-0.61682 0.11529-0.43812 0-0.79553-0.18447-0.35164-0.19023-0.55341-0.52458-0.20176-0.34012-0.20176-0.77247t0.20176-0.76671q0.20177-0.34011 0.55341-0.52458 0.35741-0.18447 0.79553-0.18447 0.34588 0 0.63988 0.12682 0.29976 0.12682 0.49 0.37471v-0.47271zm-1.5911 2.4442q0.29976 0 0.53612-0.12682 0.24211-0.12683 0.3747-0.35165 0.13835-0.23059 0.13835-0.51882 0-0.44388-0.29399-0.71482-0.294-0.27671-0.75518-0.27671-0.46694 0-0.76094 0.27671-0.294 0.27094-0.294 0.71482 0 0.28823 0.13259 0.51882 0.13835 0.22482 0.37471 0.35165 0.24211 0.12682 0.54764 0.12682z" style="font-feature-settings:normal;font-variant-caps:normal;font-variant-ligatures:normal;font-variant-numeric:normal"/>
<path d="m212.34 292.22q0 0.0634-0.0115 0.16717h-2.4788q0.0519 0.40353 0.35165 0.65141 0.30553 0.24212 0.75517 0.24212 0.54765 0 0.882-0.36894l0.30553 0.35741q-0.20753 0.24212-0.51882 0.36894-0.30553 0.12683-0.686 0.12683-0.48424 0-0.85894-0.196-0.37471-0.20177-0.58223-0.55918-0.20177-0.35741-0.20177-0.80706 0-0.44388 0.196-0.80129 0.20176-0.35741 0.54765-0.55341 0.35164-0.20176 0.78976-0.20176 0.43811 0 0.77823 0.20176 0.34588 0.196 0.53612 0.55341 0.196 0.35741 0.196 0.81859zm-1.5104-1.1068q-0.39777 0-0.66871 0.24211-0.26517 0.24212-0.31129 0.63412h1.96q-0.0461-0.38623-0.31706-0.62835-0.26518-0.24788-0.66294-0.24788z" style="font-feature-settings:normal;font-variant-caps:normal;font-variant-ligatures:normal;font-variant-numeric:normal"/>
</g>
<path d="m193.15 268.99v5.7034h24.723v-5.7034" fill="none" stroke="#199d4a" stroke-linecap="round" stroke-linejoin="round" stroke-width=".529"/>
<g transform="translate(-8.1348 .85043)" fill="none" stroke="#199d4a" stroke-linecap="round" stroke-linejoin="round">
<path transform="translate(69.752)" d="m143.89 274.08v3.2096" stroke-width=".529"/>
<circle cx="213.65" cy="278.06" r=".75117" stroke-dashoffset="72" stroke-width=".529"/>
</g>
</g>
</svg>
