<svg width="260mm" height="68.907mm" version="1.1" viewBox="0 0 260 68.907" xmlns="http://www.w3.org/2000/svg" xmlns:cc="http://creativecommons.org/ns#" xmlns:dc="http://purl.org/dc/elements/1.1/" xmlns:rdf="http://www.w3.org/1999/02/22-rdf-syntax-ns#">
<title>Named module coordinate in Antora resource ID to page URL</title>
<metadata>
<rdf:RDF>
<cc:Work rdf:about="">
<dc:format>image/svg+xml</dc:format>
<dc:type rdf:resource="http://purl.org/dc/dcmitype/StillImage"/>
<dc:title>Named module coordinate in Antora resource ID to page URL</dc:title>
<dc:creator>
<cc:Agent>
<dc:title>Sarah White</dc:title>
</cc:Agent>
</dc:creator>
<dc:publisher>
<cc:Agent>
<dc:title>OpenDevise Inc.</dc:title>
</cc:Agent>
</dc:publisher>
<dc:subject>
<rdf:Bag>
<rdf:li>Antora</rdf:li>
<rdf:li>documentation component</rdf:li>
<rdf:li>resource ID</rdf:li>
<rdf:li>URL</rdf:li>
<rdf:li>module</rdf:li>
</rdf:Bag>
</dc:subject>
<cc:license rdf:resource="http://creativecommons.org/licenses/by-sa/4.0/"/>
</cc:Work>
<cc:License rdf:about="http://creativecommons.org/licenses/by-sa/4.0/">
<cc:permits rdf:resource="http://creativecommons.org/ns#Reproduction"/>
<cc:permits rdf:resource="http://creativecommons.org/ns#Distribution"/>
<cc:requires rdf:resource="http://creativecommons.org/ns#Notice"/>
<cc:requires rdf:resource="http://creativecommons.org/ns#Attribution"/>
<cc:permits rdf:resource="http://creativecommons.org/ns#DerivativeWorks"/>
<cc:requires rdf:resource="http://creativecommons.org/ns#ShareAlike"/>
</cc:License>
</rdf:RDF>
</metadata>
<g transform="translate(0 -228.09)">
<g>
<rect y="228.09" width="260" height="68.907" fill="#fff"/>
<g transform="scale(1 .99998)" stroke-width=".0727px" style="font-feature-settings:normal;font-variant-caps:normal;font-variant-ligatures:normal;font-variant-numeric:normal" aria-label="https://my-company.com/hyperlemur/1.0/admin/user-management">
<g fill="#242424" stroke-width=".0727px">
<path d="m8.5444 260.91q0.73021 0 1.1568 0.42656 0.43379 0.41933 0.43379 1.2363v2.2051h-0.69406v-2.1256q0-0.5567-0.2675-0.83866-0.2675-0.28196-0.76636-0.28196-0.56393 0-0.88927 0.33257-0.32534 0.32534-0.32534 0.93988v1.9737h-0.69406v-5.3645h0.69406v2.075q0.2169-0.27474 0.56393-0.42656 0.35426-0.15183 0.78805-0.15183z" style="font-feature-settings:normal;font-variant-caps:normal;font-variant-ligatures:normal;font-variant-numeric:normal"/>
<path d="m13.581 264.56q-0.15183 0.13013-0.37595 0.20243-0.22412 0.0651-0.46271 0.0651-0.57839 0-0.8965-0.31088-0.31811-0.31089-0.31811-0.88927v-2.1039h-0.65068v-0.57116h0.65068v-0.83866h0.69406v0.83866h1.0989v0.57116h-1.0989v2.075q0 0.31088 0.15183 0.47717 0.15906 0.16628 0.44825 0.16628 0.31811 0 0.54224-0.18074z" style="font-feature-settings:normal;font-variant-caps:normal;font-variant-ligatures:normal;font-variant-numeric:normal"/>
<path d="m16.476 264.56q-0.15183 0.13013-0.37595 0.20243-0.22412 0.0651-0.46271 0.0651-0.57839 0-0.8965-0.31088-0.31811-0.31089-0.31811-0.88927v-2.1039h-0.65068v-0.57116h0.65068v-0.83866h0.69406v0.83866h1.0989v0.57116h-1.0989v2.075q0 0.31088 0.15183 0.47717 0.15906 0.16628 0.44825 0.16628 0.31811 0 0.54224-0.18074z" style="font-feature-settings:normal;font-variant-caps:normal;font-variant-ligatures:normal;font-variant-numeric:normal"/>
<path d="m19.346 260.91q0.5567 0 0.99772 0.24581 0.44102 0.24582 0.68683 0.68684 0.25304 0.44102 0.25304 1.0194 0 0.57838-0.25304 1.0266-0.24581 0.44102-0.68683 0.68684-0.44102 0.24581-0.99772 0.24581-0.4121 0-0.75913-0.15906-0.3398-0.15905-0.57839-0.46271v1.981h-0.69406v-5.2344h0.66514v0.6073q0.23136-0.31811 0.58562-0.47716 0.35426-0.16629 0.78082-0.16629zm-0.05784 3.304q0.36872 0 0.65792-0.16628 0.29642-0.17352 0.46271-0.47717 0.17352-0.31088 0.17352-0.70852 0-0.39765-0.17352-0.7013-0.16629-0.31088-0.46271-0.47717-0.28919-0.16628-0.65792-0.16628-0.36149 0-0.65792 0.17351-0.28919 0.16629-0.46271 0.46994-0.16629 0.30365-0.16629 0.7013 0 0.39764 0.16629 0.70852 0.16629 0.30365 0.46271 0.47717 0.29642 0.16628 0.65792 0.16628z" style="font-feature-settings:normal;font-variant-caps:normal;font-variant-ligatures:normal;font-variant-numeric:normal"/>
<path d="m23.342 264.83q-0.46994 0-0.90373-0.12291-0.43379-0.13013-0.6796-0.32534l0.28919-0.54947q0.25304 0.18075 0.61454 0.2892 0.36149 0.10844 0.73021 0.10844 0.91096 0 0.91096-0.52054 0-0.17352-0.12291-0.27474t-0.31088-0.14459q-0.18075-0.0506-0.52055-0.10845-0.46271-0.0723-0.75913-0.16629-0.28919-0.094-0.49886-0.31811-0.20966-0.22413-0.20966-0.629 0-0.52054 0.43379-0.83143 0.43379-0.31811 1.164-0.31811 0.38318 0 0.76636 0.094 0.38318 0.094 0.629 0.25304l-0.29642 0.54947q-0.46994-0.30365-1.1062-0.30365-0.44102 0-0.67238 0.14459-0.23136 0.1446-0.23136 0.38318 0 0.18798 0.13014 0.29643 0.13014 0.10844 0.31811 0.15905 0.19521 0.0506 0.54224 0.11568 0.46271 0.0795 0.74467 0.17352 0.28919 0.0868 0.49163 0.30365 0.20244 0.2169 0.20244 0.60731 0 0.52054-0.44825 0.83143-0.44102 0.30365-1.2074 0.30365z" style="font-feature-settings:normal;font-variant-caps:normal;font-variant-ligatures:normal;font-variant-numeric:normal"/>
<path d="m26.038 261.91q-0.20244 0-0.34703-0.13737-0.1446-0.1446-0.1446-0.36149 0-0.20967 0.1446-0.34703 0.1446-0.1446 0.34703-0.1446 0.20244 0 0.3398 0.13737 0.13737 0.13736 0.13737 0.35426 0 0.21689-0.1446 0.36149-0.13737 0.13737-0.33257 0.13737zm0 2.9208q-0.20244 0-0.34703-0.13737-0.1446-0.14459-0.1446-0.36149 0-0.20966 0.1446-0.34703 0.1446-0.1446 0.34703-0.1446 0.20244 0 0.3398 0.13737t0.13737 0.35426q0 0.2169-0.1446 0.36149-0.13737 0.13737-0.33257 0.13737z" style="font-feature-settings:normal;font-variant-caps:normal;font-variant-ligatures:normal;font-variant-numeric:normal"/>
<path d="m29.389 258.7h0.629l-2.3858 6.8105h-0.629z" style="font-feature-settings:normal;font-variant-caps:normal;font-variant-ligatures:normal;font-variant-numeric:normal"/>
<path d="m31.436 258.7h0.629l-2.3858 6.8105h-0.629z" style="font-feature-settings:normal;font-variant-caps:normal;font-variant-ligatures:normal;font-variant-numeric:normal"/>
<path d="m36.766 260.91q0.72298 0 1.1423 0.41933 0.42656 0.41933 0.42656 1.2435v2.2051h-0.69406v-2.1256q0-0.5567-0.26027-0.83866-0.25304-0.28196-0.73021-0.28196-0.52778 0-0.83866 0.33257-0.31088 0.32534-0.31088 0.93988v1.9737h-0.69406v-2.1256q0-0.5567-0.26027-0.83866-0.25304-0.28196-0.73021-0.28196-0.52778 0-0.83866 0.33257-0.31088 0.32534-0.31088 0.93988v1.9737h-0.69406v-3.8318h0.66514v0.57116q0.20967-0.29643 0.54947-0.44825 0.3398-0.15906 0.77359-0.15906 0.44825 0 0.79528 0.18075 0.34703 0.18074 0.53501 0.52777 0.2169-0.33257 0.60008-0.52055 0.39041-0.18797 0.87481-0.18797z" style="font-feature-settings:normal;font-variant-caps:normal;font-variant-ligatures:normal;font-variant-numeric:normal"/>
<path d="m42.932 260.95-1.8581 4.215q-0.24582 0.58562-0.57839 0.8242-0.32534 0.23859-0.78805 0.23859-0.28196 0-0.54947-0.094-0.26027-0.0868-0.43379-0.26027l0.29642-0.52055q0.29642 0.28196 0.68684 0.28196 0.25304 0 0.41933-0.13736 0.17352-0.13014 0.31088-0.45548l0.12291-0.26751-1.6918-3.8246h0.72298l1.3375 3.0654 1.3231-3.0654z" style="font-feature-settings:normal;font-variant-caps:normal;font-variant-ligatures:normal;font-variant-numeric:normal"/>
<path d="m43.235 262.5h1.9448v0.60008h-1.9448z" style="font-feature-settings:normal;font-variant-caps:normal;font-variant-ligatures:normal;font-variant-numeric:normal"/>
<path d="m47.989 264.83q-0.58562 0-1.0483-0.25304-0.45548-0.25305-0.71575-0.69407-0.26027-0.44825-0.26027-1.0122 0-0.56393 0.26027-1.005 0.26027-0.44825 0.71575-0.69407 0.46271-0.25304 1.0483-0.25304 0.52055 0 0.92542 0.20966 0.4121 0.20967 0.63623 0.60731l-0.52778 0.3398q-0.18075-0.27473-0.44825-0.4121-0.2675-0.13736-0.59285-0.13736-0.37595 0-0.6796 0.16628-0.29642 0.16629-0.46994 0.47717-0.16629 0.30365-0.16629 0.7013 0 0.40487 0.16629 0.71575 0.17352 0.30365 0.46994 0.46994 0.30365 0.16628 0.6796 0.16628 0.32534 0 0.59285-0.13736 0.2675-0.13737 0.44825-0.4121l0.52778 0.33257q-0.22412 0.39764-0.63623 0.61454-0.40487 0.20966-0.92542 0.20966z" style="font-feature-settings:normal;font-variant-caps:normal;font-variant-ligatures:normal;font-variant-numeric:normal"/>
<path d="m52.027 264.83q-0.57116 0-1.0266-0.25304-0.45548-0.25305-0.71575-0.69407-0.25304-0.44825-0.25304-1.0122 0-0.56393 0.25304-1.005 0.26027-0.44825 0.71575-0.69407 0.45548-0.25304 1.0266-0.25304 0.57116 0 1.0194 0.25304 0.45548 0.24582 0.70852 0.69407 0.26027 0.44102 0.26027 1.005 0 0.56392-0.26027 1.0122-0.25304 0.44102-0.70852 0.69407-0.44825 0.25304-1.0194 0.25304zm0-0.60731q0.36872 0 0.65792-0.16628 0.29642-0.17352 0.46271-0.47717 0.16629-0.31088 0.16629-0.70852 0-0.39765-0.16629-0.7013-0.16629-0.31088-0.46271-0.47717-0.28919-0.16628-0.65792-0.16628-0.36872 0-0.66514 0.16628-0.28919 0.16629-0.46271 0.47717-0.16629 0.30365-0.16629 0.7013 0 0.39764 0.16629 0.70852 0.17352 0.30365 0.46271 0.47717 0.29642 0.16628 0.66514 0.16628z" style="font-feature-settings:normal;font-variant-caps:normal;font-variant-ligatures:normal;font-variant-numeric:normal"/>
<path d="m59.768 260.91q0.72298 0 1.1423 0.41933 0.42656 0.41933 0.42656 1.2435v2.2051h-0.69406v-2.1256q0-0.5567-0.26027-0.83866-0.25304-0.28196-0.73021-0.28196-0.52778 0-0.83866 0.33257-0.31088 0.32534-0.31088 0.93988v1.9737h-0.69406v-2.1256q0-0.5567-0.26027-0.83866-0.25304-0.28196-0.73021-0.28196-0.52778 0-0.83866 0.33257-0.31088 0.32534-0.31088 0.93988v1.9737h-0.69406v-3.8318h0.66514v0.57116q0.20966-0.29643 0.54947-0.44825 0.3398-0.15906 0.77359-0.15906 0.44825 0 0.79528 0.18075 0.34703 0.18074 0.53501 0.52777 0.2169-0.33257 0.60008-0.52055 0.39041-0.18797 0.87481-0.18797z" style="font-feature-settings:normal;font-variant-caps:normal;font-variant-ligatures:normal;font-variant-numeric:normal"/>
<path d="m64.646 260.91q0.5567 0 0.99772 0.24581 0.44102 0.24582 0.68684 0.68684 0.25304 0.44102 0.25304 1.0194 0 0.57838-0.25304 1.0266-0.24582 0.44102-0.68684 0.68684-0.44102 0.24581-0.99772 0.24581-0.4121 0-0.75913-0.15906-0.3398-0.15905-0.57839-0.46271v1.981h-0.69406v-5.2344h0.66514v0.6073q0.23135-0.31811 0.58562-0.47716 0.35426-0.16629 0.78082-0.16629zm-0.05784 3.304q0.36872 0 0.65792-0.16628 0.29642-0.17352 0.46271-0.47717 0.17352-0.31088 0.17352-0.70852 0-0.39765-0.17352-0.7013-0.16629-0.31088-0.46271-0.47717-0.28919-0.16628-0.65792-0.16628-0.36149 0-0.65792 0.17351-0.28919 0.16629-0.46271 0.46994-0.16629 0.30365-0.16629 0.7013 0 0.39764 0.16629 0.70852 0.16629 0.30365 0.46271 0.47717 0.29642 0.16628 0.65792 0.16628z" style="font-feature-settings:normal;font-variant-caps:normal;font-variant-ligatures:normal;font-variant-numeric:normal"/>
<path d="m68.895 260.91q0.79528 0 1.2146 0.39041 0.42656 0.39041 0.42656 1.164v2.3136h-0.65792v-0.50609q-0.17352 0.26751-0.49886 0.4121-0.31811 0.13737-0.75913 0.13737-0.64346 0-1.0339-0.31088-0.38318-0.31089-0.38318-0.81697 0-0.50609 0.36872-0.80975 0.36872-0.31088 1.1712-0.31088h1.0989v-0.13737q0-0.44825-0.26027-0.68683-0.26028-0.23858-0.76636-0.23858-0.3398 0-0.66514 0.11567-0.32534 0.10845-0.54947 0.29643l-0.28919-0.52055q0.29642-0.23859 0.70852-0.36149 0.4121-0.13014 0.87481-0.13014zm-0.15906 3.3763q0.39764 0 0.68683-0.17351 0.28919-0.18075 0.41933-0.50609v-0.53501h-1.07q-0.88204 0-0.88204 0.59285 0 0.28919 0.22412 0.45548 0.22412 0.16628 0.62177 0.16628z" style="font-feature-settings:normal;font-variant-caps:normal;font-variant-ligatures:normal;font-variant-numeric:normal"/>
<path d="m73.867 260.91q0.73021 0 1.1568 0.42656 0.43379 0.41933 0.43379 1.2363v2.2051h-0.69406v-2.1256q0-0.5567-0.2675-0.83866t-0.76636-0.28196q-0.56393 0-0.88927 0.33257-0.32534 0.32534-0.32534 0.93988v1.9737h-0.69406v-3.8318h0.66514v0.57839q0.20966-0.29643 0.56393-0.45548 0.36149-0.15906 0.81697-0.15906z" style="font-feature-settings:normal;font-variant-caps:normal;font-variant-ligatures:normal;font-variant-numeric:normal"/>
<path d="m80.069 260.95-1.8581 4.215q-0.24582 0.58562-0.57839 0.8242-0.32534 0.23859-0.78805 0.23859-0.28196 0-0.54947-0.094-0.26027-0.0868-0.43379-0.26027l0.29642-0.52055q0.29642 0.28196 0.68684 0.28196 0.25304 0 0.41933-0.13736 0.17352-0.13014 0.31088-0.45548l0.12291-0.26751-1.6918-3.8246h0.72298l1.3375 3.0654 1.3231-3.0654z" style="font-feature-settings:normal;font-variant-caps:normal;font-variant-ligatures:normal;font-variant-numeric:normal"/>
<path d="m80.643 264.83q-0.20244 0-0.34703-0.13737-0.1446-0.14459-0.1446-0.36149 0-0.20966 0.1446-0.34703 0.1446-0.1446 0.34703-0.1446 0.20244 0 0.3398 0.13737t0.13737 0.35426q0 0.2169-0.1446 0.36149-0.13737 0.13737-0.33257 0.13737z" style="font-feature-settings:normal;font-variant-caps:normal;font-variant-ligatures:normal;font-variant-numeric:normal"/>
<path d="m83.7 264.83q-0.58562 0-1.0483-0.25304-0.45548-0.25305-0.71575-0.69407-0.26027-0.44825-0.26027-1.0122 0-0.56393 0.26027-1.005 0.26027-0.44825 0.71575-0.69407 0.46271-0.25304 1.0483-0.25304 0.52055 0 0.92542 0.20966 0.4121 0.20967 0.63623 0.60731l-0.52778 0.3398q-0.18075-0.27473-0.44825-0.4121-0.2675-0.13736-0.59285-0.13736-0.37595 0-0.6796 0.16628-0.29642 0.16629-0.46994 0.47717-0.16629 0.30365-0.16629 0.7013 0 0.40487 0.16629 0.71575 0.17352 0.30365 0.46994 0.46994 0.30365 0.16628 0.6796 0.16628 0.32534 0 0.59285-0.13736 0.2675-0.13737 0.44825-0.4121l0.52778 0.33257q-0.22412 0.39764-0.63623 0.61454-0.40487 0.20966-0.92542 0.20966z" style="font-feature-settings:normal;font-variant-caps:normal;font-variant-ligatures:normal;font-variant-numeric:normal"/>
<path d="m87.738 264.83q-0.57116 0-1.0266-0.25304-0.45548-0.25305-0.71575-0.69407-0.25304-0.44825-0.25304-1.0122 0-0.56393 0.25304-1.005 0.26027-0.44825 0.71575-0.69407 0.45548-0.25304 1.0266-0.25304 0.57116 0 1.0194 0.25304 0.45548 0.24582 0.70852 0.69407 0.26028 0.44102 0.26028 1.005 0 0.56392-0.26028 1.0122-0.25304 0.44102-0.70852 0.69407-0.44825 0.25304-1.0194 0.25304zm0-0.60731q0.36872 0 0.65792-0.16628 0.29642-0.17352 0.46271-0.47717 0.16629-0.31088 0.16629-0.70852 0-0.39765-0.16629-0.7013-0.16629-0.31088-0.46271-0.47717-0.28919-0.16628-0.65792-0.16628-0.36872 0-0.66514 0.16628-0.28919 0.16629-0.46271 0.47717-0.16629 0.30365-0.16629 0.7013 0 0.39764 0.16629 0.70852 0.17352 0.30365 0.46271 0.47717 0.29642 0.16628 0.66514 0.16628z" style="font-feature-settings:normal;font-variant-caps:normal;font-variant-ligatures:normal;font-variant-numeric:normal"/>
<path d="m95.48 260.91q0.72298 0 1.1423 0.41933 0.42656 0.41933 0.42656 1.2435v2.2051h-0.69406v-2.1256q0-0.5567-0.26027-0.83866-0.25304-0.28196-0.73021-0.28196-0.52778 0-0.83866 0.33257-0.31088 0.32534-0.31088 0.93988v1.9737h-0.69406v-2.1256q0-0.5567-0.26027-0.83866-0.25304-0.28196-0.73021-0.28196-0.52778 0-0.83866 0.33257-0.31088 0.32534-0.31088 0.93988v1.9737h-0.69406v-3.8318h0.66514v0.57116q0.20966-0.29643 0.54947-0.44825 0.3398-0.15906 0.77359-0.15906 0.44825 0 0.79528 0.18075 0.34703 0.18074 0.53501 0.52777 0.2169-0.33257 0.60008-0.52055 0.39041-0.18797 0.87481-0.18797z" style="font-feature-settings:normal;font-variant-caps:normal;font-variant-ligatures:normal;font-variant-numeric:normal"/>
<path d="m99.851 258.7h0.629l-2.3858 6.8105h-0.629z" style="font-feature-settings:normal;font-variant-caps:normal;font-variant-ligatures:normal;font-variant-numeric:normal"/>
</g>
<g fill="#9340a4" stroke-width=".0727px">
<path d="m102.91 260.91q0.73022 0 1.1568 0.42656 0.43379 0.41933 0.43379 1.2363v2.2051h-0.69407v-2.1256q0-0.5567-0.2675-0.83866-0.26751-0.28196-0.76636-0.28196-0.56393 0-0.88927 0.33257-0.32535 0.32534-0.32535 0.93988v1.9737h-0.69406v-5.3645h0.69406v2.075q0.2169-0.27474 0.56393-0.42656 0.35426-0.15183 0.78805-0.15183z"/>
<path d="m109.12 260.95-1.8581 4.215q-0.24582 0.58562-0.57839 0.8242-0.32534 0.23859-0.78805 0.23859-0.28197 0-0.54947-0.094-0.26028-0.0868-0.43379-0.26027l0.29642-0.52055q0.29642 0.28196 0.68684 0.28196 0.25304 0 0.41933-0.13736 0.17351-0.13014 0.31088-0.45548l0.12291-0.26751-1.6918-3.8246h0.72298l1.3375 3.0654 1.3231-3.0654z"/>
<path d="m111.8 260.91q0.5567 0 0.99772 0.24581 0.44102 0.24582 0.68683 0.68684 0.25305 0.44102 0.25305 1.0194 0 0.57838-0.25305 1.0266-0.24581 0.44102-0.68683 0.68684-0.44102 0.24581-0.99772 0.24581-0.4121 0-0.75913-0.15906-0.33981-0.15905-0.57839-0.46271v1.981h-0.69406v-5.2344h0.66514v0.6073q0.23136-0.31811 0.58562-0.47716 0.35426-0.16629 0.78082-0.16629zm-0.0578 3.304q0.36872 0 0.65792-0.16628 0.29642-0.17352 0.46271-0.47717 0.17351-0.31088 0.17351-0.70852 0-0.39765-0.17351-0.7013-0.16629-0.31088-0.46271-0.47717-0.2892-0.16628-0.65792-0.16628-0.36149 0-0.65791 0.17351-0.2892 0.16629-0.46271 0.46994-0.16629 0.30365-0.16629 0.7013 0 0.39764 0.16629 0.70852 0.16628 0.30365 0.46271 0.47717 0.29642 0.16628 0.65791 0.16628z"/>
<path d="m118.15 262.89q0 0.0795-0.0145 0.20967h-3.1088q0.0651 0.50609 0.44102 0.81697 0.38318 0.30365 0.94711 0.30365 0.68684 0 1.1062-0.46271l0.38318 0.44825q-0.26028 0.30366-0.65069 0.46271-0.38318 0.15906-0.86035 0.15906-0.6073 0-1.0772-0.24581-0.46994-0.25305-0.73022-0.7013-0.25304-0.44825-0.25304-1.0122 0-0.5567 0.24581-1.005 0.25305-0.44825 0.68684-0.69407 0.44102-0.25304 0.99048-0.25304 0.54947 0 0.97603 0.25304 0.43379 0.24582 0.67238 0.69407 0.24581 0.44825 0.24581 1.0266zm-1.8942-1.3881q-0.49885 0-0.83866 0.30365-0.33257 0.30365-0.39041 0.79528h2.4582q-0.0578-0.4844-0.39764-0.78805-0.33258-0.31088-0.83144-0.31088z"/>
<path d="m119.78 261.59q0.18075-0.33257 0.53501-0.50608 0.35426-0.17352 0.86035-0.17352v0.67237q-0.0578-7e-3 -0.15905-7e-3 -0.56393 0-0.88927 0.33981-0.31812 0.33257-0.31812 0.95433v1.9087h-0.69406v-3.8318h0.66514z"/>
<path d="m122.02 259.42h0.69407v5.3645h-0.69407z"/>
<path d="m127.5 262.89q0 0.0795-0.0145 0.20967h-3.1088q0.0651 0.50609 0.44102 0.81697 0.38318 0.30365 0.9471 0.30365 0.68684 0 1.1062-0.46271l0.38318 0.44825q-0.26027 0.30366-0.65068 0.46271-0.38319 0.15906-0.86035 0.15906-0.60731 0-1.0772-0.24581-0.46994-0.25305-0.73021-0.7013-0.25305-0.44825-0.25305-1.0122 0-0.5567 0.24582-1.005 0.25304-0.44825 0.68683-0.69407 0.44102-0.25304 0.99049-0.25304t0.97603 0.25304q0.43379 0.24582 0.67237 0.69407 0.24582 0.44825 0.24582 1.0266zm-1.8942-1.3881q-0.49886 0-0.83866 0.30365-0.33258 0.30365-0.39041 0.79528h2.4581q-0.0578-0.4844-0.39764-0.78805-0.33257-0.31088-0.83143-0.31088z"/>
<path d="m133.25 260.91q0.72298 0 1.1423 0.41933 0.42656 0.41933 0.42656 1.2435v2.2051h-0.69406v-2.1256q0-0.5567-0.26028-0.83866-0.25304-0.28196-0.73021-0.28196-0.52778 0-0.83866 0.33257-0.31089 0.32534-0.31089 0.93988v1.9737h-0.69406v-2.1256q0-0.5567-0.26027-0.83866-0.25305-0.28196-0.73022-0.28196-0.52778 0-0.83866 0.33257-0.31088 0.32534-0.31088 0.93988v1.9737h-0.69407v-3.8318h0.66515v0.57116q0.20966-0.29643 0.54947-0.44825 0.3398-0.15906 0.77359-0.15906 0.44825 0 0.79528 0.18075 0.34703 0.18074 0.53501 0.52777 0.21689-0.33257 0.60007-0.52055 0.39042-0.18797 0.87482-0.18797z"/>
<path d="m139.67 260.95v3.8318h-0.65792v-0.57839q-0.20966 0.29643-0.55669 0.46271-0.33981 0.15906-0.74468 0.15906-0.76636 0-1.2074-0.41933-0.44102-0.42656-0.44102-1.2508v-2.2051h0.69406v2.1256q0 0.5567 0.26751 0.84589 0.2675 0.28196 0.76636 0.28196 0.54947 0 0.86758-0.33257t0.31811-0.93988v-1.981z"/>
<path d="m141.66 261.59q0.18075-0.33257 0.53501-0.50608 0.35426-0.17352 0.86035-0.17352v0.67237q-0.0578-7e-3 -0.15906-7e-3 -0.56392 0-0.88927 0.33981-0.31811 0.33257-0.31811 0.95433v1.9087h-0.69406v-3.8318h0.66514z"/>
</g>
<path d="m145.49 258.7h0.629l-2.3858 6.8105h-0.62899z" fill="#242424" stroke-width=".0727px" style="font-feature-settings:normal;font-variant-caps:normal;font-variant-ligatures:normal;font-variant-numeric:normal"/>
<g fill="#de4c36">
<path d="m147.76 259.72v5.0609h-0.71575v-4.4319h-1.1423v-0.62899z"/>
<path d="m149.34 264.83q-0.20243 0-0.34703-0.13737-0.1446-0.14459-0.1446-0.36149 0-0.20966 0.1446-0.34703 0.1446-0.1446 0.34703-0.1446 0.20244 0 0.3398 0.13737 0.13737 0.13737 0.13737 0.35426 0 0.2169-0.1446 0.36149-0.13736 0.13737-0.33257 0.13737z"/>
<path d="m152.48 264.84q-0.60008 0-1.07-0.30365-0.46271-0.31089-0.73021-0.8965-0.2675-0.58562-0.2675-1.3881t0.2675-1.3881 0.73021-0.88927q0.46994-0.31088 1.07-0.31088 0.59285 0 1.0556 0.31088 0.46993 0.30365 0.73744 0.88927 0.2675 0.58562 0.2675 1.3881t-0.2675 1.3881q-0.26751 0.58561-0.73744 0.8965-0.46271 0.30365-1.0556 0.30365zm0-0.64346q0.60731 0 0.9688-0.49885 0.36872-0.49886 0.36872-1.446t-0.36872-1.446q-0.36149-0.49886-0.9688-0.49886-0.61454 0-0.98326 0.49886-0.36149 0.49886-0.36149 1.446t0.36149 1.446q0.36872 0.49885 0.98326 0.49885z"/>
</g>
<path d="m157.08 258.7h0.629l-2.3858 6.8105h-0.629z" fill="#242424" stroke-width=".0727px" style="font-feature-settings:normal;font-variant-caps:normal;font-variant-ligatures:normal;font-variant-numeric:normal"/>
<g fill="#b91d5e" stroke-width=".0727px">
<path d="m159.49 260.91q0.79528 0 1.2146 0.39041 0.42656 0.39041 0.42656 1.164v2.3136h-0.65792v-0.50609q-0.17351 0.26751-0.49886 0.4121-0.31811 0.13737-0.75913 0.13737-0.64345 0-1.0339-0.31088-0.38319-0.31089-0.38319-0.81697 0-0.50609 0.36873-0.80975 0.36872-0.31088 1.1712-0.31088h1.0989v-0.13737q0-0.44825-0.26027-0.68683t-0.76636-0.23858q-0.33981 0-0.66515 0.11567-0.32534 0.10845-0.54947 0.29643l-0.28919-0.52055q0.29642-0.23859 0.70853-0.36149 0.4121-0.13014 0.87481-0.13014zm-0.15906 3.3763q0.39764 0 0.68683-0.17351 0.2892-0.18075 0.41933-0.50609v-0.53501h-1.07q-0.88204 0-0.88204 0.59285 0 0.28919 0.22412 0.45548 0.22413 0.16628 0.62177 0.16628z"/>
<path d="m166.06 259.42v5.3645h-0.66514v-0.6073q-0.23136 0.31811-0.58562 0.48439-0.35426 0.16629-0.78082 0.16629-0.5567 0-0.99772-0.24581-0.44102-0.24582-0.69406-0.68684-0.24582-0.44825-0.24582-1.0266 0-0.57839 0.24582-1.0194 0.25304-0.44102 0.69406-0.68684 0.44102-0.24581 0.99772-0.24581 0.4121 0 0.75913 0.15906 0.34703 0.15182 0.57839 0.45548v-2.1111zm-1.9737 4.8006q0.36149 0 0.65791-0.16628 0.29643-0.17352 0.46271-0.47717 0.16629-0.31088 0.16629-0.70852 0-0.39765-0.16629-0.7013-0.16628-0.31088-0.46271-0.47717-0.29642-0.16628-0.65791-0.16628-0.36872 0-0.66515 0.16628-0.28919 0.16629-0.46271 0.47717-0.16628 0.30365-0.16628 0.7013 0 0.39764 0.16628 0.70852 0.17352 0.30365 0.46271 0.47717 0.29643 0.16628 0.66515 0.16628z"/>
<path d="m172.17 260.91q0.72299 0 1.1423 0.41933 0.42656 0.41933 0.42656 1.2435v2.2051h-0.69407v-2.1256q0-0.5567-0.26027-0.83866-0.25305-0.28196-0.73022-0.28196-0.52777 0-0.83866 0.33257-0.31088 0.32534-0.31088 0.93988v1.9737h-0.69406v-2.1256q0-0.5567-0.26028-0.83866-0.25304-0.28196-0.73021-0.28196-0.52778 0-0.83866 0.33257-0.31088 0.32534-0.31088 0.93988v1.9737h-0.69407v-3.8318h0.66515v0.57116q0.20966-0.29643 0.54946-0.44825 0.33981-0.15906 0.7736-0.15906 0.44825 0 0.79528 0.18075 0.34703 0.18074 0.53501 0.52777 0.21689-0.33257 0.60007-0.52055 0.39041-0.18797 0.87481-0.18797z"/>
<path d="m175.02 260.95h0.69407v3.8318h-0.69407zm0.34704-0.73744q-0.20244 0-0.33981-0.13014-0.13013-0.13014-0.13013-0.31811 0-0.18798 0.13013-0.31812 0.13737-0.13736 0.33981-0.13736 0.20243 0 0.33257 0.13013 0.13737 0.12291 0.13737 0.31089 0 0.1952-0.13737 0.33257-0.13014 0.13014-0.33257 0.13014z"/>
<path d="m179.08 260.91q0.73021 0 1.1568 0.42656 0.43379 0.41933 0.43379 1.2363v2.2051h-0.69406v-2.1256q0-0.5567-0.2675-0.83866-0.26751-0.28196-0.76637-0.28196-0.56392 0-0.88927 0.33257-0.32534 0.32534-0.32534 0.93988v1.9737h-0.69406v-3.8318h0.66514v0.57839q0.20967-0.29643 0.56393-0.45548 0.36149-0.15906 0.81697-0.15906z"/>
</g>
<path d="m183.49 258.7h0.62899l-2.3858 6.8105h-0.629z" fill="#242424" stroke-width=".0727px" style="font-feature-settings:normal;font-variant-caps:normal;font-variant-ligatures:normal;font-variant-numeric:normal"/>
<g fill="#199d4a" stroke-width=".0727px">
<path d="m188.08 260.95v3.8318h-0.65792v-0.57839q-0.20966 0.29643-0.55669 0.46271-0.33981 0.15906-0.74468 0.15906-0.76636 0-1.2074-0.41933-0.44102-0.42656-0.44102-1.2508v-2.2051h0.69407v2.1256q0 0.5567 0.2675 0.84589 0.2675 0.28196 0.76636 0.28196 0.54947 0 0.86758-0.33257 0.31812-0.33257 0.31812-0.93988v-1.981z"/>
<path d="m190.5 264.83q-0.46994 0-0.90373-0.12291-0.43379-0.13013-0.67961-0.32534l0.2892-0.54947q0.25304 0.18075 0.61453 0.2892 0.3615 0.10844 0.73022 0.10844 0.91096 0 0.91096-0.52054 0-0.17352-0.12291-0.27474t-0.31088-0.14459q-0.18075-0.0506-0.52055-0.10845-0.46271-0.0723-0.75914-0.16629-0.28919-0.094-0.49885-0.31811-0.20967-0.22413-0.20967-0.629 0-0.52054 0.43379-0.83143 0.43379-0.31811 1.164-0.31811 0.38319 0 0.76637 0.094t0.62899 0.25304l-0.29642 0.54947q-0.46994-0.30365-1.1062-0.30365-0.44102 0-0.67237 0.14459-0.23135 0.1446-0.23135 0.38318 0 0.18798 0.13013 0.29643 0.13014 0.10844 0.31812 0.15905 0.1952 0.0506 0.54223 0.11568 0.46271 0.0795 0.74468 0.17352 0.28919 0.0868 0.49162 0.30365 0.20244 0.2169 0.20244 0.60731 0 0.52054-0.44825 0.83143-0.44102 0.30365-1.2074 0.30365z"/>
<path d="m196.5 262.89q0 0.0795-0.0145 0.20967h-3.1088q0.0651 0.50609 0.44102 0.81697 0.38318 0.30365 0.94711 0.30365 0.68683 0 1.1062-0.46271l0.38318 0.44825q-0.26027 0.30366-0.65068 0.46271-0.38318 0.15906-0.86035 0.15906-0.60731 0-1.0772-0.24581-0.46994-0.25305-0.73021-0.7013-0.25305-0.44825-0.25305-1.0122 0-0.5567 0.24582-1.005 0.25304-0.44825 0.68683-0.69407 0.44102-0.25304 0.99049-0.25304t0.97603 0.25304q0.43379 0.24582 0.67237 0.69407 0.24582 0.44825 0.24582 1.0266zm-1.8942-1.3881q-0.49886 0-0.83866 0.30365-0.33257 0.30365-0.39041 0.79528h2.4581q-0.0578-0.4844-0.39764-0.78805-0.33257-0.31088-0.83143-0.31088z"/>
<path d="m198.12 261.59q0.18075-0.33257 0.53501-0.50608 0.35426-0.17352 0.86035-0.17352v0.67237q-0.0578-7e-3 -0.15906-7e-3 -0.56392 0-0.88927 0.33981-0.31811 0.33257-0.31811 0.95433v1.9087h-0.69406v-3.8318h0.66514z"/>
<path d="m200.1 262.5h1.9448v0.60008h-1.9448z"/>
<path d="m207.91 260.91q0.72298 0 1.1423 0.41933 0.42656 0.41933 0.42656 1.2435v2.2051h-0.69406v-2.1256q0-0.5567-0.26028-0.83866-0.25304-0.28196-0.73021-0.28196-0.52778 0-0.83866 0.33257-0.31088 0.32534-0.31088 0.93988v1.9737h-0.69407v-2.1256q0-0.5567-0.26027-0.83866-0.25305-0.28196-0.73022-0.28196-0.52777 0-0.83866 0.33257-0.31088 0.32534-0.31088 0.93988v1.9737h-0.69406v-3.8318h0.66514v0.57116q0.20967-0.29643 0.54947-0.44825 0.3398-0.15906 0.77359-0.15906 0.44825 0 0.79528 0.18075 0.34704 0.18074 0.53501 0.52777 0.2169-0.33257 0.60008-0.52055 0.39041-0.18797 0.87481-0.18797z"/>
<path d="m212.15 260.91q0.79528 0 1.2146 0.39041 0.42656 0.39041 0.42656 1.164v2.3136h-0.65791v-0.50609q-0.17352 0.26751-0.49886 0.4121-0.31812 0.13737-0.75914 0.13737-0.64345 0-1.0339-0.31088-0.38318-0.31089-0.38318-0.81697 0-0.50609 0.36872-0.80975 0.36872-0.31088 1.1712-0.31088h1.0989v-0.13737q0-0.44825-0.26028-0.68683-0.26027-0.23858-0.76636-0.23858-0.3398 0-0.66515 0.11567-0.32534 0.10845-0.54946 0.29643l-0.2892-0.52055q0.29643-0.23859 0.70853-0.36149 0.4121-0.13014 0.87481-0.13014zm-0.15906 3.3763q0.39764 0 0.68684-0.17351 0.28919-0.18075 0.41933-0.50609v-0.53501h-1.07q-0.88204 0-0.88204 0.59285 0 0.28919 0.22413 0.45548 0.22412 0.16628 0.62176 0.16628z"/>
<path d="m217.12 260.91q0.73021 0 1.1568 0.42656 0.43379 0.41933 0.43379 1.2363v2.2051h-0.69406v-2.1256q0-0.5567-0.26751-0.83866-0.2675-0.28196-0.76636-0.28196-0.56393 0-0.88927 0.33257-0.32534 0.32534-0.32534 0.93988v1.9737h-0.69407v-3.8318h0.66515v0.57839q0.20966-0.29643 0.56392-0.45548 0.3615-0.15906 0.81698-0.15906z"/>
<path d="m221.4 260.91q0.79528 0 1.2146 0.39041 0.42656 0.39041 0.42656 1.164v2.3136h-0.65791v-0.50609q-0.17352 0.26751-0.49886 0.4121-0.31812 0.13737-0.75914 0.13737-0.64345 0-1.0339-0.31088-0.38318-0.31089-0.38318-0.81697 0-0.50609 0.36872-0.80975 0.36872-0.31088 1.1712-0.31088h1.0989v-0.13737q0-0.44825-0.26028-0.68683-0.26027-0.23858-0.76636-0.23858-0.3398 0-0.66515 0.11567-0.32534 0.10845-0.54946 0.29643l-0.2892-0.52055q0.29643-0.23859 0.70853-0.36149 0.4121-0.13014 0.87481-0.13014zm-0.15906 3.3763q0.39764 0 0.68684-0.17351 0.28919-0.18075 0.41933-0.50609v-0.53501h-1.07q-0.88204 0-0.88204 0.59285 0 0.28919 0.22412 0.45548 0.22413 0.16628 0.62177 0.16628z"/>
<path d="m228.02 260.95v3.3113q0 1.005-0.49886 1.4821-0.49885 0.4844-1.4893 0.4844-0.54224 0-1.0339-0.15183-0.49163-0.14459-0.79528-0.41933l0.33257-0.53501q0.26751 0.23136 0.65792 0.3615 0.39764 0.13736 0.81697 0.13736 0.67237 0 0.99049-0.31811 0.32534-0.31811 0.32534-0.9688v-0.30365q-0.24582 0.29642-0.60731 0.44825-0.35426 0.1446-0.77359 0.1446-0.54947 0-0.99772-0.23136-0.44102-0.23858-0.69406-0.65791-0.25305-0.42656-0.25305-0.9688t0.25305-0.96157q0.25304-0.42656 0.69406-0.65792 0.44825-0.23135 0.99772-0.23135 0.43379 0 0.80251 0.15906 0.37595 0.15905 0.61454 0.46994v-0.59285zm-1.9954 3.0654q0.37595 0 0.67237-0.15906 0.30366-0.15905 0.46994-0.44102 0.17352-0.28919 0.17352-0.65068 0-0.5567-0.36872-0.8965-0.36872-0.34703-0.94711-0.34703-0.58562 0-0.95434 0.34703-0.36872 0.3398-0.36872 0.8965 0 0.36149 0.16628 0.65068 0.17352 0.28197 0.46994 0.44102 0.30366 0.15906 0.68684 0.15906z"/>
<path d="m232.8 262.89q0 0.0795-0.0145 0.20967h-3.1088q0.0651 0.50609 0.44102 0.81697 0.38318 0.30365 0.94711 0.30365 0.68684 0 1.1062-0.46271l0.38318 0.44825q-0.26028 0.30366-0.65069 0.46271-0.38318 0.15906-0.86035 0.15906-0.6073 0-1.0772-0.24581-0.46994-0.25305-0.73022-0.7013-0.25304-0.44825-0.25304-1.0122 0-0.5567 0.24581-1.005 0.25305-0.44825 0.68684-0.69407 0.44102-0.25304 0.99049-0.25304 0.54946 0 0.97602 0.25304 0.43379 0.24582 0.67238 0.69407 0.24581 0.44825 0.24581 1.0266zm-1.8942-1.3881q-0.49886 0-0.83867 0.30365-0.33257 0.30365-0.39041 0.79528h2.4582q-0.0578-0.4844-0.39764-0.78805-0.33258-0.31088-0.83143-0.31088z"/>
<path d="m238.55 260.91q0.72299 0 1.1423 0.41933 0.42656 0.41933 0.42656 1.2435v2.2051h-0.69407v-2.1256q0-0.5567-0.26027-0.83866-0.25305-0.28196-0.73022-0.28196-0.52777 0-0.83866 0.33257-0.31088 0.32534-0.31088 0.93988v1.9737h-0.69406v-2.1256q0-0.5567-0.26028-0.83866-0.25304-0.28196-0.73021-0.28196-0.52778 0-0.83866 0.33257-0.31089 0.32534-0.31089 0.93988v1.9737h-0.69406v-3.8318h0.66515v0.57116q0.20966-0.29643 0.54946-0.44825 0.33981-0.15906 0.7736-0.15906 0.44825 0 0.79528 0.18075 0.34703 0.18074 0.53501 0.52777 0.21689-0.33257 0.60007-0.52055 0.39041-0.18797 0.87481-0.18797z"/>
<path d="m244.89 262.89q0 0.0795-0.0145 0.20967h-3.1088q0.0651 0.50609 0.44102 0.81697 0.38318 0.30365 0.94711 0.30365 0.68683 0 1.1062-0.46271l0.38318 0.44825q-0.26027 0.30366-0.65068 0.46271-0.38318 0.15906-0.86035 0.15906-0.60731 0-1.0772-0.24581-0.46994-0.25305-0.73021-0.7013-0.25304-0.44825-0.25304-1.0122 0-0.5567 0.24581-1.005 0.25304-0.44825 0.68683-0.69407 0.44102-0.25304 0.99049-0.25304t0.97603 0.25304q0.43379 0.24582 0.67237 0.69407 0.24582 0.44825 0.24582 1.0266zm-1.8942-1.3881q-0.49886 0-0.83866 0.30365-0.33257 0.30365-0.39041 0.79528h2.4581q-0.0578-0.4844-0.39764-0.78805-0.33257-0.31088-0.83143-0.31088z"/>
<path d="m247.89 260.91q0.73021 0 1.1568 0.42656 0.43379 0.41933 0.43379 1.2363v2.2051h-0.69407v-2.1256q0-0.5567-0.2675-0.83866-0.26751-0.28196-0.76637-0.28196-0.56392 0-0.88927 0.33257-0.32534 0.32534-0.32534 0.93988v1.9737h-0.69406v-3.8318h0.66514v0.57839q0.20967-0.29643 0.56393-0.45548 0.36149-0.15906 0.81697-0.15906z"/>
<path d="m252.93 264.56q-0.15183 0.13013-0.37596 0.20243-0.22412 0.0651-0.46271 0.0651-0.57838 0-0.8965-0.31088-0.31811-0.31089-0.31811-0.88927v-2.1039h-0.65068v-0.57116h0.65068v-0.83866h0.69407v0.83866h1.0989v0.57116h-1.0989v2.075q0 0.31088 0.15182 0.47717 0.15906 0.16628 0.44825 0.16628 0.31812 0 0.54224-0.18074z"/>
</g>
</g>
<g fill="#9340a4" stroke-width=".0727px" style="font-feature-settings:normal;font-variant-caps:normal;font-variant-ligatures:normal;font-variant-numeric:normal" aria-label="name of  component">
<path d="m111.64 282.59q0.58224 0 0.92235 0.34012 0.34588 0.33435 0.34588 0.98576v1.7582h-0.55341v-1.6948q0-0.44388-0.21329-0.6687t-0.61106-0.22482q-0.44964 0-0.70905 0.26517-0.25941 0.25941-0.25941 0.74941v1.5738h-0.55341v-3.0553h0.53035v0.46117q0.16717-0.23635 0.44964-0.36317 0.28824-0.12683 0.65141-0.12683z" style="font-feature-settings:normal;font-variant-caps:normal;font-variant-ligatures:normal;font-variant-numeric:normal"/>
<path d="m115.05 282.59q0.63411 0 0.96846 0.3113 0.34012 0.31129 0.34012 0.92811v1.8447h-0.52459v-0.40353q-0.13835 0.2133-0.39776 0.32859-0.25365 0.10953-0.60529 0.10953-0.51306 0-0.82435-0.24788-0.30553-0.24788-0.30553-0.65141t0.294-0.64565q0.294-0.24788 0.93388-0.24788h0.87623v-0.10953q0-0.35741-0.20753-0.54764-0.20753-0.19024-0.61105-0.19024-0.27094 0-0.53036 0.0922-0.25941 0.0865-0.43811 0.23635l-0.23059-0.41506q0.23635-0.19023 0.56494-0.28823 0.32859-0.10377 0.69753-0.10377zm-0.12683 2.6921q0.31706 0 0.54765-0.13835 0.23059-0.14412 0.33435-0.40353v-0.42659h-0.85317q-0.70329 0-0.70329 0.47271 0 0.23059 0.1787 0.36317 0.17871 0.13259 0.49576 0.13259z" style="font-feature-settings:normal;font-variant-caps:normal;font-variant-ligatures:normal;font-variant-numeric:normal"/>
<path d="m121.2 282.59q0.57647 0 0.91083 0.33435 0.34011 0.33436 0.34011 0.99153v1.7582h-0.55341v-1.6948q0-0.44388-0.20753-0.6687-0.20176-0.22482-0.58223-0.22482-0.42082 0-0.6687 0.26517-0.24789 0.25941-0.24789 0.74941v1.5738h-0.55341v-1.6948q0-0.44388-0.20753-0.6687-0.20176-0.22482-0.58223-0.22482-0.42082 0-0.6687 0.26517-0.24788 0.25941-0.24788 0.74941v1.5738h-0.55341v-3.0553h0.53035v0.45541q0.16717-0.23636 0.43811-0.35741 0.27094-0.12683 0.61682-0.12683 0.35742 0 0.63412 0.14412 0.27671 0.14412 0.42659 0.42082 0.17294-0.26517 0.47847-0.41506 0.31129-0.14988 0.69752-0.14988z" style="font-feature-settings:normal;font-variant-caps:normal;font-variant-ligatures:normal;font-variant-numeric:normal"/>
<path d="m126.26 284.17q0 0.0634-0.0115 0.16718h-2.4788q0.0519 0.40353 0.35165 0.65141 0.30552 0.24212 0.75517 0.24212 0.54765 0 0.882-0.36894l0.30553 0.35741q-0.20753 0.24211-0.51883 0.36894-0.30552 0.12682-0.68599 0.12682-0.48424 0-0.85894-0.196-0.37471-0.20176-0.58224-0.55917-0.20176-0.35742-0.20176-0.80706 0-0.44388 0.196-0.80129 0.20176-0.35741 0.54764-0.55341 0.35165-0.20177 0.78977-0.20177 0.43811 0 0.77823 0.20177 0.34588 0.196 0.53612 0.55341 0.196 0.35741 0.196 0.81858zm-1.5104-1.1068q-0.39777 0-0.66871 0.24212-0.26517 0.24212-0.31129 0.63412h1.96q-0.0461-0.38624-0.31705-0.62836-0.26518-0.24788-0.66294-0.24788z" style="font-feature-settings:normal;font-variant-caps:normal;font-variant-ligatures:normal;font-variant-numeric:normal"/>
<path d="m129.88 285.71q-0.45541 0-0.81858-0.20176-0.36318-0.20177-0.57071-0.55341-0.20176-0.35742-0.20176-0.80706 0-0.44965 0.20176-0.80129 0.20753-0.35741 0.57071-0.55341 0.36317-0.20177 0.81858-0.20177t0.81283 0.20177q0.36317 0.196 0.56494 0.55341 0.20752 0.35164 0.20752 0.80129 0 0.44964-0.20752 0.80706-0.20177 0.35164-0.56494 0.55341-0.35742 0.20176-0.81283 0.20176zm0-0.48423q0.294 0 0.52459-0.13259 0.23635-0.13835 0.36894-0.38047 0.13259-0.24788 0.13259-0.56494t-0.13259-0.55918q-0.13259-0.24788-0.36894-0.38047-0.23059-0.13258-0.52459-0.13258-0.29399 0-0.53035 0.13258-0.23058 0.13259-0.36894 0.38047-0.13259 0.24212-0.13259 0.55918t0.13259 0.56494q0.13836 0.24212 0.36894 0.38047 0.23636 0.13259 0.53035 0.13259z" style="font-feature-settings:normal;font-variant-caps:normal;font-variant-ligatures:normal;font-variant-numeric:normal"/>
<path d="m133.35 281.82q-0.49577 0-0.49577 0.53612v0.26518h0.88777v0.45541h-0.87624v2.5999h-0.55341v-2.5999h-0.51882v-0.45541h0.51882v-0.27094q0-0.45541 0.26518-0.72059 0.26517-0.26518 0.74364-0.26518 0.18447 0 0.34588 0.0461 0.16142 0.0461 0.27671 0.13259l-0.16718 0.42082q-0.19023-0.14412-0.42658-0.14412z" style="font-feature-settings:normal;font-variant-caps:normal;font-variant-ligatures:normal;font-variant-numeric:normal"/>
<path d="m106.28 292.92q-0.46694 0-0.83588-0.20176-0.36318-0.20177-0.57071-0.55341-0.20753-0.35741-0.20753-0.80706 0-0.44964 0.20753-0.80129 0.20753-0.35741 0.57071-0.55341 0.36894-0.20176 0.83588-0.20176 0.41505 0 0.73788 0.16717 0.32858 0.16718 0.50729 0.48424l-0.42082 0.27094q-0.14412-0.21906-0.35741-0.32859-0.2133-0.10953-0.47271-0.10953-0.29976 0-0.54188 0.13259-0.23635 0.13258-0.3747 0.38047-0.13259 0.24211-0.13259 0.55917 0 0.32282 0.13259 0.57071 0.13835 0.24211 0.3747 0.3747 0.24212 0.13259 0.54188 0.13259 0.25941 0 0.47271-0.10953 0.21329-0.10953 0.35741-0.32859l0.42082 0.26518q-0.17871 0.31706-0.50729 0.49-0.32283 0.16717-0.73788 0.16717z" style="font-feature-settings:normal;font-variant-caps:normal;font-variant-ligatures:normal;font-variant-numeric:normal"/>
<path d="m109.5 292.92q-0.45541 0-0.81858-0.20176-0.36318-0.20177-0.57071-0.55341-0.20176-0.35741-0.20176-0.80706 0-0.44964 0.20176-0.80129 0.20753-0.35741 0.57071-0.55341 0.36317-0.20176 0.81858-0.20176 0.45542 0 0.81283 0.20176 0.36317 0.196 0.56494 0.55341 0.20752 0.35165 0.20752 0.80129 0 0.44965-0.20752 0.80706-0.20177 0.35164-0.56494 0.55341-0.35741 0.20176-0.81283 0.20176zm0-0.48423q0.294 0 0.52459-0.13259 0.23635-0.13835 0.36894-0.38047 0.13259-0.24788 0.13259-0.56494t-0.13259-0.55917q-0.13259-0.24789-0.36894-0.38047-0.23059-0.13259-0.52459-0.13259-0.29399 0-0.53035 0.13259-0.23058 0.13258-0.36894 0.38047-0.13258 0.24211-0.13258 0.55917t0.13258 0.56494q0.13836 0.24212 0.36894 0.38047 0.23636 0.13259 0.53035 0.13259z" style="font-feature-settings:normal;font-variant-caps:normal;font-variant-ligatures:normal;font-variant-numeric:normal"/>
<path d="m115.68 289.8q0.57647 0 0.91082 0.33435 0.34011 0.33435 0.34011 0.99152v1.7582h-0.55341v-1.6948q0-0.44389-0.20752-0.66871-0.20177-0.22482-0.58224-0.22482-0.42082 0-0.6687 0.26517-0.24788 0.25942-0.24788 0.74941v1.5738h-0.55341v-1.6948q0-0.44389-0.20753-0.66871-0.20177-0.22482-0.58224-0.22482-0.42082 0-0.6687 0.26517-0.24788 0.25942-0.24788 0.74941v1.5738h-0.55341v-3.0553h0.53035v0.45541q0.16717-0.23635 0.43812-0.35741 0.27094-0.12682 0.61682-0.12682 0.35741 0 0.63411 0.14411 0.27671 0.14412 0.42659 0.42082 0.17294-0.26517 0.47847-0.41505 0.31129-0.14988 0.69753-0.14988z" style="font-feature-settings:normal;font-variant-caps:normal;font-variant-ligatures:normal;font-variant-numeric:normal"/>
<path d="m119.57 289.8q0.44388 0 0.79553 0.19599 0.35164 0.196 0.54764 0.54765 0.20177 0.35165 0.20177 0.81282 0 0.46118-0.20177 0.81859-0.196 0.35164-0.54764 0.54764-0.35165 0.196-0.79553 0.196-0.32859 0-0.60529-0.12682-0.27094-0.12682-0.46118-0.36894v1.5795h-0.55341v-4.1736h0.53035v0.48423q0.18447-0.25364 0.46694-0.38047 0.28247-0.13258 0.62259-0.13258zm-0.0461 2.6345q0.294 0 0.52459-0.13259 0.23635-0.13835 0.36894-0.38047 0.13835-0.24788 0.13835-0.56494t-0.13835-0.55917q-0.13259-0.24789-0.36894-0.38047-0.23059-0.13259-0.52459-0.13259-0.28823 0-0.52458 0.13835-0.23059 0.13259-0.36894 0.37471-0.13259 0.24211-0.13259 0.55917t0.13259 0.56494q0.13258 0.24212 0.36894 0.38047 0.23635 0.13259 0.52458 0.13259z" style="font-feature-settings:normal;font-variant-caps:normal;font-variant-ligatures:normal;font-variant-numeric:normal"/>
<path d="m123.18 292.92q-0.45541 0-0.81858-0.20176-0.36318-0.20177-0.57071-0.55341-0.20176-0.35741-0.20176-0.80706 0-0.44964 0.20176-0.80129 0.20753-0.35741 0.57071-0.55341 0.36317-0.20176 0.81858-0.20176 0.45542 0 0.81283 0.20176 0.36317 0.196 0.56494 0.55341 0.20752 0.35165 0.20752 0.80129 0 0.44965-0.20752 0.80706-0.20177 0.35164-0.56494 0.55341-0.35741 0.20176-0.81283 0.20176zm0-0.48423q0.294 0 0.52459-0.13259 0.23635-0.13835 0.36894-0.38047 0.13259-0.24788 0.13259-0.56494t-0.13259-0.55917q-0.13259-0.24789-0.36894-0.38047-0.23059-0.13259-0.52459-0.13259-0.29399 0-0.53035 0.13259-0.23058 0.13258-0.36894 0.38047-0.13258 0.24211-0.13258 0.55917t0.13258 0.56494q0.13836 0.24212 0.36894 0.38047 0.23636 0.13259 0.53035 0.13259z" style="font-feature-settings:normal;font-variant-caps:normal;font-variant-ligatures:normal;font-variant-numeric:normal"/>
<path d="m127.17 289.8q0.58224 0 0.92235 0.34011 0.34589 0.33435 0.34589 0.98576v1.7582h-0.55341v-1.6948q0-0.44389-0.2133-0.66871-0.21329-0.22482-0.61105-0.22482-0.44965 0-0.70906 0.26517-0.25941 0.25942-0.25941 0.74941v1.5738h-0.55341v-3.0553h0.53035v0.46117q0.16717-0.23635 0.44964-0.36317 0.28824-0.12682 0.65141-0.12682z" style="font-feature-settings:normal;font-variant-caps:normal;font-variant-ligatures:normal;font-variant-numeric:normal"/>
<path d="m132.25 291.37q0 0.0634-0.0115 0.16717h-2.4788q0.0519 0.40353 0.35165 0.65141 0.30553 0.24212 0.75517 0.24212 0.54765 0 0.882-0.36894l0.30553 0.35741q-0.20753 0.24212-0.51882 0.36894-0.30553 0.12682-0.686 0.12682-0.48423 0-0.85894-0.196-0.3747-0.20176-0.58223-0.55917-0.20177-0.35741-0.20177-0.80706 0-0.44388 0.196-0.80129 0.20177-0.35741 0.54765-0.55341 0.35164-0.20176 0.78976-0.20176t0.77823 0.20176q0.34588 0.196 0.53612 0.55341 0.196 0.35741 0.196 0.81859zm-1.5104-1.1068q-0.39776 0-0.6687 0.24212-0.26518 0.24212-0.3113 0.63412h1.96q-0.0461-0.38624-0.31706-0.62835-0.26518-0.24789-0.66294-0.24789z" style="font-feature-settings:normal;font-variant-caps:normal;font-variant-ligatures:normal;font-variant-numeric:normal"/>
<path d="m134.64 289.8q0.58223 0 0.92235 0.34011 0.34588 0.33435 0.34588 0.98576v1.7582h-0.55341v-1.6948q0-0.44389-0.2133-0.66871-0.21329-0.22482-0.61105-0.22482-0.44965 0-0.70906 0.26517-0.25941 0.25942-0.25941 0.74941v1.5738h-0.55341v-3.0553h0.53035v0.46117q0.16718-0.23635 0.44965-0.36317 0.28823-0.12682 0.65141-0.12682z" style="font-feature-settings:normal;font-variant-caps:normal;font-variant-ligatures:normal;font-variant-numeric:normal"/>
<path d="m138.66 292.7q-0.12105 0.10376-0.29976 0.16141-0.17871 0.0519-0.36894 0.0519-0.46118 0-0.71482-0.24788-0.25365-0.24788-0.25365-0.70906v-1.6775h-0.51882v-0.45541h0.51882v-0.66871h0.55341v0.66871h0.87624v0.45541h-0.87624v1.6545q0 0.24788 0.12106 0.38046 0.12682 0.13259 0.35741 0.13259 0.25365 0 0.43235-0.14411z" style="font-feature-settings:normal;font-variant-caps:normal;font-variant-ligatures:normal;font-variant-numeric:normal"/>
</g>
</g>
<g fill="none" stroke="#9340a4" stroke-linecap="round" stroke-linejoin="round">
<path d="m101 268.14v5.7034h41.327v-5.7034" stroke-width=".529"/>
<path transform="translate(-19.231 2.957e-5)" d="m140.89 274.08v3.2096" stroke-width=".529"/>
<circle cx="121.66" cy="278.06" r=".75117" stroke-dashoffset="72" stroke-width=".529"/>
</g>
<g fill="#199d4a" stroke-width=".0727px" style="font-feature-settings:normal;font-variant-caps:normal;font-variant-ligatures:normal;font-variant-numeric:normal" aria-label="name of page">
<path d="m208.71 232.32q0.58223 0 0.92235 0.34012 0.34588 0.33435 0.34588 0.98576v1.7582h-0.55341v-1.6948q0-0.44388-0.21329-0.6687-0.2133-0.22483-0.61106-0.22483-0.44965 0-0.70906 0.26518-0.25941 0.25941-0.25941 0.74941v1.5738h-0.55341v-3.0553h0.53035v0.46118q0.16718-0.23635 0.44965-0.36318 0.28823-0.12682 0.65141-0.12682z" style="font-feature-settings:normal;font-variant-caps:normal;font-variant-ligatures:normal;font-variant-numeric:normal"/>
<path d="m212.12 232.32q0.63412 0 0.96847 0.31129 0.34012 0.3113 0.34012 0.92812v1.8447h-0.52459v-0.40353q-0.13835 0.21329-0.39776 0.32859-0.25365 0.10953-0.60529 0.10953-0.51306 0-0.82435-0.24789-0.30553-0.24788-0.30553-0.65141 0-0.40352 0.294-0.64564 0.294-0.24788 0.93388-0.24788h0.87623v-0.10953q0-0.35741-0.20753-0.54765-0.20753-0.19023-0.61106-0.19023-0.27094 0-0.53035 0.0922-0.25941 0.0865-0.43812 0.23636l-0.23058-0.41506q0.23635-0.19024 0.56494-0.28824 0.32858-0.10376 0.69752-0.10376zm-0.12682 2.6921q0.31706 0 0.54765-0.13835 0.23058-0.14412 0.33435-0.40353v-0.42659h-0.85318q-0.70329 0-0.70329 0.47271 0 0.23058 0.17871 0.36317 0.1787 0.13259 0.49576 0.13259z" style="font-feature-settings:normal;font-variant-caps:normal;font-variant-ligatures:normal;font-variant-numeric:normal"/>
<path d="m218.27 232.32q0.57647 0 0.91082 0.33435 0.34012 0.33435 0.34012 0.99153v1.7582h-0.55341v-1.6948q0-0.44388-0.20753-0.6687-0.20176-0.22483-0.58223-0.22483-0.42083 0-0.66871 0.26518-0.24788 0.25941-0.24788 0.74941v1.5738h-0.55341v-1.6948q0-0.44388-0.20753-0.6687-0.20176-0.22483-0.58223-0.22483-0.42082 0-0.66871 0.26518-0.24788 0.25941-0.24788 0.74941v1.5738h-0.55341v-3.0553h0.53035v0.45541q0.16718-0.23635 0.43812-0.35741 0.27094-0.12682 0.61682-0.12682 0.35741 0 0.63412 0.14412 0.2767 0.14411 0.42658 0.42082 0.17295-0.26518 0.47847-0.41506 0.3113-0.14988 0.69753-0.14988z" style="font-feature-settings:normal;font-variant-caps:normal;font-variant-ligatures:normal;font-variant-numeric:normal"/>
<path d="m223.32 233.89q0 0.0634-0.0115 0.16718h-2.4788q0.0519 0.40352 0.35164 0.65141 0.30553 0.24211 0.75518 0.24211 0.54764 0 0.88199-0.36894l0.30553 0.35741q-0.20753 0.24212-0.51882 0.36894-0.30553 0.12683-0.686 0.12683-0.48423 0-0.85894-0.196-0.3747-0.20177-0.58223-0.55918-0.20176-0.35741-0.20176-0.80705 0-0.44389 0.196-0.8013 0.20176-0.35741 0.54764-0.55341 0.35165-0.20176 0.78976-0.20176 0.43812 0 0.77824 0.20176 0.34588 0.196 0.53611 0.55341 0.196 0.35741 0.196 0.81859zm-1.5104-1.1068q-0.39776 0-0.6687 0.24212-0.26518 0.24211-0.31129 0.63411h1.96q-0.0461-0.38623-0.31706-0.62835-0.26517-0.24788-0.66294-0.24788z" style="font-feature-settings:normal;font-variant-caps:normal;font-variant-ligatures:normal;font-variant-numeric:normal"/>
<path d="m226.95 235.44q-0.45541 0-0.81858-0.20177-0.36318-0.20176-0.57071-0.55341-0.20176-0.35741-0.20176-0.80705 0-0.44965 0.20176-0.8013 0.20753-0.35741 0.57071-0.55341 0.36317-0.20176 0.81858-0.20176t0.81282 0.20176q0.36318 0.196 0.56494 0.55341 0.20753 0.35165 0.20753 0.8013 0 0.44964-0.20753 0.80705-0.20176 0.35165-0.56494 0.55341-0.35741 0.20177-0.81282 0.20177zm0-0.48424q0.294 0 0.52459-0.13259 0.23635-0.13835 0.36894-0.38046 0.13259-0.24789 0.13259-0.56494 0-0.31706-0.13259-0.55918-0.13259-0.24788-0.36894-0.38047-0.23059-0.13259-0.52459-0.13259t-0.53035 0.13259q-0.23059 0.13259-0.36894 0.38047-0.13259 0.24212-0.13259 0.55918 0 0.31705 0.13259 0.56494 0.13835 0.24211 0.36894 0.38046 0.23635 0.13259 0.53035 0.13259z" style="font-feature-settings:normal;font-variant-caps:normal;font-variant-ligatures:normal;font-variant-numeric:normal"/>
<path d="m230.42 231.55q-0.49576 0-0.49576 0.53612v0.26517h0.88776v0.45541h-0.87623v2.5999h-0.55341v-2.5999h-0.51882v-0.45541h0.51882v-0.27094q0-0.45541 0.26518-0.72058 0.26517-0.26518 0.74364-0.26518 0.18447 0 0.34588 0.0461t0.27671 0.13259l-0.16718 0.42082q-0.19023-0.14412-0.42659-0.14412z" style="font-feature-settings:normal;font-variant-caps:normal;font-variant-ligatures:normal;font-variant-numeric:normal"/>
<path d="m213.39 239.53q0.44388 0 0.79553 0.196 0.35164 0.196 0.54764 0.54765 0.20177 0.35164 0.20177 0.81282 0 0.46117-0.20177 0.81858-0.196 0.35165-0.54764 0.54765-0.35165 0.196-0.79553 0.196-0.32859 0-0.60529-0.12682-0.27094-0.12683-0.46118-0.36894v1.5795h-0.55341v-4.1736h0.53035v0.48423q0.18447-0.25365 0.46694-0.38047 0.28247-0.13259 0.62259-0.13259zm-0.0461 2.6345q0.294 0 0.52459-0.13258 0.23635-0.13836 0.36894-0.38047 0.13835-0.24788 0.13835-0.56494t-0.13835-0.55918q-0.13259-0.24788-0.36894-0.38047-0.23059-0.13258-0.52459-0.13258-0.28823 0-0.52459 0.13835-0.23058 0.13259-0.36894 0.3747-0.13258 0.24212-0.13258 0.55918t0.13258 0.56494q0.13259 0.24211 0.36894 0.38047 0.23636 0.13258 0.52459 0.13258z" style="font-feature-settings:normal;font-variant-caps:normal;font-variant-ligatures:normal;font-variant-numeric:normal"/>
<path d="m216.78 239.53q0.63411 0 0.96846 0.31129 0.34012 0.3113 0.34012 0.92812v1.8447h-0.52459v-0.40353q-0.13835 0.2133-0.39776 0.32859-0.25365 0.10953-0.60529 0.10953-0.51306 0-0.82435-0.24788-0.30553-0.24788-0.30553-0.65141t0.294-0.64565q0.294-0.24788 0.93388-0.24788h0.87623v-0.10953q0-0.35741-0.20753-0.54764-0.20753-0.19024-0.61106-0.19024-0.27094 0-0.53035 0.0922-0.25941 0.0865-0.43811 0.23635l-0.23059-0.41506q0.23635-0.19023 0.56494-0.28823 0.32859-0.10377 0.69753-0.10377zm-0.12683 2.6921q0.31706 0 0.54765-0.13835 0.23059-0.14412 0.33435-0.40353v-0.42659h-0.85317q-0.7033 0-0.7033 0.47271 0 0.23059 0.17871 0.36317 0.1787 0.13259 0.49576 0.13259z" style="font-feature-settings:normal;font-variant-caps:normal;font-variant-ligatures:normal;font-variant-numeric:normal"/>
<path d="m222.06 239.56v2.6402q0 0.80129-0.39776 1.1818-0.39777 0.38624-1.1875 0.38624-0.43235 0-0.82435-0.12106-0.392-0.11529-0.63412-0.33435l0.26518-0.42659q0.21329 0.18447 0.52459 0.28824 0.31705 0.10952 0.65141 0.10952 0.53611 0 0.78976-0.25364 0.25941-0.25365 0.25941-0.77247v-0.24212q-0.196 0.23636-0.48423 0.35741-0.28247 0.1153-0.61683 0.1153-0.43811 0-0.79552-0.18447-0.35165-0.19024-0.55341-0.52459-0.20177-0.34012-0.20177-0.77247t0.20177-0.7667q0.20176-0.34012 0.55341-0.52459 0.35741-0.18447 0.79552-0.18447 0.34589 0 0.63988 0.12682 0.29977 0.12683 0.49 0.37471v-0.4727zm-1.591 2.4442q0.29976 0 0.53611-0.12682 0.24212-0.12682 0.37471-0.35165 0.13835-0.23058 0.13835-0.51882 0-0.44388-0.294-0.71482-0.294-0.2767-0.75517-0.2767-0.46694 0-0.76094 0.2767-0.294 0.27094-0.294 0.71482 0 0.28824 0.13259 0.51882 0.13835 0.22483 0.3747 0.35165 0.24212 0.12682 0.54765 0.12682z" style="font-feature-settings:normal;font-variant-caps:normal;font-variant-ligatures:normal;font-variant-numeric:normal"/>
<path d="m225.87 241.1q0 0.0634-0.0115 0.16718h-2.4788q0.0519 0.40353 0.35164 0.65141 0.30553 0.24211 0.75518 0.24211 0.54764 0 0.88199-0.36894l0.30553 0.35742q-0.20753 0.24211-0.51882 0.36894-0.30553 0.12682-0.686 0.12682-0.48423 0-0.85894-0.196-0.3747-0.20176-0.58223-0.55918-0.20176-0.35741-0.20176-0.80705 0-0.44388 0.196-0.80129 0.20176-0.35741 0.54764-0.55341 0.35165-0.20177 0.78976-0.20177 0.43812 0 0.77824 0.20177 0.34588 0.196 0.53611 0.55341 0.196 0.35741 0.196 0.81858zm-1.5104-1.1068q-0.39776 0-0.6687 0.24212-0.26518 0.24212-0.31129 0.63411h1.96q-0.0461-0.38623-0.31706-0.62835-0.26517-0.24788-0.66294-0.24788z" style="font-feature-settings:normal;font-variant-caps:normal;font-variant-ligatures:normal;font-variant-numeric:normal"/>
</g>
<g fill="none" stroke="#199d4a" stroke-linecap="round" stroke-linejoin="round">
<path d="m184.85 256.77v-5.7034h68.389v5.7034" stroke-width=".529"/>
<path transform="translate(-19.131 2.957e-5)" d="m238.17 250.83v-3.2096" stroke-width=".529"/>
<circle transform="scale(1,-1)" cx="219.04" cy="-246.85" r=".75117" stroke-dashoffset="72" stroke-width=".529"/>
</g>
<g fill="#b91d5e" stroke-width=".0727px" style="font-feature-settings:normal;font-variant-caps:normal;font-variant-ligatures:normal;font-variant-numeric:normal" aria-label="name of  module">
<path d="m158.7 282.59q0.58223 0 0.92235 0.34012 0.34588 0.33435 0.34588 0.98576v1.7582h-0.55341v-1.6948q0-0.44388-0.2133-0.6687-0.21329-0.22482-0.61105-0.22482-0.44965 0-0.70906 0.26517-0.25941 0.25941-0.25941 0.74941v1.5738h-0.55341v-3.0553h0.53035v0.46117q0.16718-0.23635 0.44965-0.36317 0.28823-0.12683 0.65141-0.12683z" style="font-feature-settings:normal;font-variant-caps:normal;font-variant-ligatures:normal;font-variant-numeric:normal"/>
<path d="m162.11 282.59q0.63412 0 0.96847 0.3113 0.34012 0.31129 0.34012 0.92811v1.8447h-0.52459v-0.40353q-0.13835 0.2133-0.39776 0.32859-0.25365 0.10953-0.6053 0.10953-0.51305 0-0.82435-0.24788-0.30553-0.24788-0.30553-0.65141t0.294-0.64565q0.294-0.24788 0.93388-0.24788h0.87624v-0.10953q0-0.35741-0.20753-0.54764-0.20753-0.19024-0.61106-0.19024-0.27094 0-0.53035 0.0922-0.25941 0.0865-0.43812 0.23635l-0.23059-0.41506q0.23636-0.19023 0.56494-0.28823 0.32859-0.10377 0.69753-0.10377zm-0.12682 2.6921q0.31706 0 0.54764-0.13835 0.23059-0.14412 0.33436-0.40353v-0.42659h-0.85318q-0.70329 0-0.70329 0.47271 0 0.23059 0.1787 0.36317 0.17871 0.13259 0.49577 0.13259z" style="font-feature-settings:normal;font-variant-caps:normal;font-variant-ligatures:normal;font-variant-numeric:normal"/>
<path d="m168.26 282.59q0.57647 0 0.91082 0.33435 0.34012 0.33436 0.34012 0.99153v1.7582h-0.55341v-1.6948q0-0.44388-0.20753-0.6687-0.20177-0.22482-0.58224-0.22482-0.42082 0-0.6687 0.26517-0.24788 0.25941-0.24788 0.74941v1.5738h-0.55341v-1.6948q0-0.44388-0.20753-0.6687-0.20177-0.22482-0.58224-0.22482-0.42082 0-0.6687 0.26517-0.24788 0.25941-0.24788 0.74941v1.5738h-0.55341v-3.0553h0.53035v0.45541q0.16718-0.23636 0.43812-0.35741 0.27094-0.12683 0.61682-0.12683 0.35741 0 0.63411 0.14412 0.27671 0.14412 0.42659 0.42082 0.17294-0.26517 0.47847-0.41506 0.31129-0.14988 0.69753-0.14988z" style="font-feature-settings:normal;font-variant-caps:normal;font-variant-ligatures:normal;font-variant-numeric:normal"/>
<path d="m173.32 284.17q0 0.0634-0.0115 0.16718h-2.4788q0.0519 0.40353 0.35165 0.65141 0.30553 0.24212 0.75517 0.24212 0.54765 0 0.882-0.36894l0.30553 0.35741q-0.20753 0.24211-0.51882 0.36894-0.30553 0.12682-0.686 0.12682-0.48423 0-0.85894-0.196-0.3747-0.20176-0.58223-0.55917-0.20177-0.35742-0.20177-0.80706 0-0.44388 0.196-0.80129 0.20177-0.35741 0.54765-0.55341 0.35164-0.20177 0.78976-0.20177t0.77823 0.20177q0.34588 0.196 0.53612 0.55341 0.196 0.35741 0.196 0.81858zm-1.5104-1.1068q-0.39776 0-0.6687 0.24212-0.26518 0.24212-0.3113 0.63412h1.96q-0.0461-0.38624-0.31706-0.62836-0.26518-0.24788-0.66294-0.24788z" style="font-feature-settings:normal;font-variant-caps:normal;font-variant-ligatures:normal;font-variant-numeric:normal"/>
<path d="m176.94 285.71q-0.45541 0-0.81859-0.20176-0.36317-0.20177-0.5707-0.55341-0.20177-0.35742-0.20177-0.80706 0-0.44965 0.20177-0.80129 0.20753-0.35741 0.5707-0.55341 0.36318-0.20177 0.81859-0.20177t0.81282 0.20177q0.36317 0.196 0.56494 0.55341 0.20753 0.35164 0.20753 0.80129 0 0.44964-0.20753 0.80706-0.20177 0.35164-0.56494 0.55341-0.35741 0.20176-0.81282 0.20176zm0-0.48423q0.294 0 0.52458-0.13259 0.23636-0.13835 0.36895-0.38047 0.13258-0.24788 0.13258-0.56494t-0.13258-0.55918q-0.13259-0.24788-0.36895-0.38047-0.23058-0.13258-0.52458-0.13258t-0.53035 0.13258q-0.23059 0.13259-0.36894 0.38047-0.13259 0.24212-0.13259 0.55918t0.13259 0.56494q0.13835 0.24212 0.36894 0.38047 0.23635 0.13259 0.53035 0.13259z" style="font-feature-settings:normal;font-variant-caps:normal;font-variant-ligatures:normal;font-variant-numeric:normal"/>
<path d="m180.41 281.82q-0.49576 0-0.49576 0.53612v0.26518h0.88776v0.45541h-0.87623v2.5999h-0.55341v-2.5999h-0.51883v-0.45541h0.51883v-0.27094q0-0.45541 0.26517-0.72059 0.26518-0.26518 0.74365-0.26518 0.18447 0 0.34588 0.0461t0.2767 0.13259l-0.16717 0.42082q-0.19024-0.14412-0.42659-0.14412z" style="font-feature-settings:normal;font-variant-caps:normal;font-variant-ligatures:normal;font-variant-numeric:normal"/>
<path d="m161.65 289.8q0.57647 0 0.91082 0.33435 0.34012 0.33435 0.34012 0.99152v1.7582h-0.55341v-1.6948q0-0.44389-0.20753-0.66871-0.20176-0.22482-0.58223-0.22482-0.42083 0-0.66871 0.26517-0.24788 0.25942-0.24788 0.74941v1.5738h-0.55341v-1.6948q0-0.44389-0.20753-0.66871-0.20176-0.22482-0.58223-0.22482-0.42082 0-0.66871 0.26517-0.24788 0.25942-0.24788 0.74941v1.5738h-0.55341v-3.0553h0.53035v0.45541q0.16718-0.23635 0.43812-0.35741 0.27094-0.12682 0.61682-0.12682 0.35741 0 0.63412 0.14411 0.2767 0.14412 0.42658 0.42082 0.17295-0.26517 0.47847-0.41505 0.3113-0.14988 0.69753-0.14988z" style="font-feature-settings:normal;font-variant-caps:normal;font-variant-ligatures:normal;font-variant-numeric:normal"/>
<path d="m165.25 292.92q-0.45541 0-0.81859-0.20176-0.36317-0.20177-0.5707-0.55341-0.20176-0.35741-0.20176-0.80706 0-0.44964 0.20176-0.80129 0.20753-0.35741 0.5707-0.55341 0.36318-0.20176 0.81859-0.20176t0.81282 0.20176q0.36318 0.196 0.56494 0.55341 0.20753 0.35165 0.20753 0.80129 0 0.44965-0.20753 0.80706-0.20176 0.35164-0.56494 0.55341-0.35741 0.20176-0.81282 0.20176zm0-0.48423q0.294 0 0.52459-0.13259 0.23635-0.13835 0.36894-0.38047 0.13259-0.24788 0.13259-0.56494t-0.13259-0.55917q-0.13259-0.24789-0.36894-0.38047-0.23059-0.13259-0.52459-0.13259t-0.53035 0.13259q-0.23059 0.13258-0.36894 0.38047-0.13259 0.24211-0.13259 0.55917t0.13259 0.56494q0.13835 0.24212 0.36894 0.38047 0.23635 0.13259 0.53035 0.13259z" style="font-feature-settings:normal;font-variant-caps:normal;font-variant-ligatures:normal;font-variant-numeric:normal"/>
<path d="m170.48 288.6v4.2774h-0.53035v-0.48423q-0.18447 0.25365-0.46694 0.38623-0.28247 0.13259-0.62259 0.13259-0.44388 0-0.79553-0.196-0.35164-0.196-0.55341-0.54764-0.196-0.35741-0.196-0.81859 0-0.46117 0.196-0.81282 0.20177-0.35165 0.55341-0.54765 0.35165-0.19599 0.79553-0.19599 0.32859 0 0.60529 0.12682 0.27671 0.12106 0.46118 0.36317v-1.6833zm-1.5738 3.8278q0.28823 0 0.52458-0.13259 0.23636-0.13835 0.36894-0.38047 0.13259-0.24788 0.13259-0.56494t-0.13259-0.55917q-0.13258-0.24789-0.36894-0.38047-0.23635-0.13259-0.52458-0.13259-0.294 0-0.53035 0.13259-0.23059 0.13258-0.36894 0.38047-0.13259 0.24211-0.13259 0.55917t0.13259 0.56494q0.13835 0.24212 0.36894 0.38047 0.23635 0.13259 0.53035 0.13259z" style="font-feature-settings:normal;font-variant-caps:normal;font-variant-ligatures:normal;font-variant-numeric:normal"/>
<path d="m174.38 289.83v3.0553h-0.52459v-0.46117q-0.16718 0.23635-0.44388 0.36894-0.27094 0.12682-0.59376 0.12682-0.61106 0-0.96271-0.33435-0.35164-0.34012-0.35164-0.99729v-1.7582h0.55341v1.6948q0 0.44388 0.21329 0.67447 0.21329 0.22482 0.61106 0.22482 0.43811 0 0.69176-0.26518 0.25365-0.26517 0.25365-0.74941v-1.5795z" style="font-feature-settings:normal;font-variant-caps:normal;font-variant-ligatures:normal;font-variant-numeric:normal"/>
<path d="m175.44 288.6h0.55341v4.2774h-0.55341z" style="font-feature-settings:normal;font-variant-caps:normal;font-variant-ligatures:normal;font-variant-numeric:normal"/>
<path d="m179.81 291.37q0 0.0634-0.0115 0.16717h-2.4788q0.0519 0.40353 0.35164 0.65141 0.30553 0.24212 0.75518 0.24212 0.54764 0 0.882-0.36894l0.30552 0.35741q-0.20752 0.24212-0.51882 0.36894-0.30553 0.12682-0.686 0.12682-0.48423 0-0.85893-0.196-0.37471-0.20176-0.58224-0.55917-0.20176-0.35741-0.20176-0.80706 0-0.44388 0.196-0.80129 0.20176-0.35741 0.54764-0.55341 0.35165-0.20176 0.78976-0.20176 0.43812 0 0.77824 0.20176 0.34588 0.196 0.53611 0.55341 0.196 0.35741 0.196 0.81859zm-1.5104-1.1068q-0.39776 0-0.6687 0.24212-0.26517 0.24212-0.31129 0.63412h1.96q-0.0461-0.38624-0.31706-0.62835-0.26517-0.24789-0.66294-0.24789z" style="font-feature-settings:normal;font-variant-caps:normal;font-variant-ligatures:normal;font-variant-numeric:normal"/>
</g>
<path d="m157.62 268.14v5.7034h22.819v-5.7034" fill="none" stroke="#b91d5e" stroke-linecap="round" stroke-linejoin="round" stroke-width=".529"/>
<g transform="translate(.67735 2.957e-5)" fill="none" stroke="#b91d5e" stroke-linecap="round" stroke-linejoin="round">
<path transform="translate(-14.288)" d="m182.64 274.08v3.2096" stroke-width=".529"/>
<circle cx="168.36" cy="278.06" r=".75117" stroke-dashoffset="72" stroke-width=".529"/>
</g>
<g fill="#242424" stroke-width=".0727px" style="font-feature-settings:normal;font-variant-caps:normal;font-variant-ligatures:normal;font-variant-numeric:normal" aria-label="base URL of site">
<path d="m30.607 238.87q0.44388 0 0.79553 0.196t0.54764 0.54765q0.20176 0.35164 0.20176 0.81282 0 0.46117-0.20176 0.81858-0.196 0.35165-0.54764 0.54765t-0.79553 0.196q-0.34012 0-0.62259-0.13259t-0.46694-0.38623v0.48423h-0.53035v-4.2774h0.55341v1.6833q0.18447-0.24212 0.46118-0.36318 0.2767-0.12682 0.60529-0.12682zm-0.04612 2.6345q0.294 0 0.52459-0.13258 0.23635-0.13836 0.36894-0.38047 0.13835-0.24788 0.13835-0.56494t-0.13835-0.55918q-0.13259-0.24788-0.36894-0.38047-0.23059-0.13258-0.52459-0.13258-0.28824 0-0.52459 0.13258-0.23635 0.13259-0.36894 0.38047-0.13259 0.24212-0.13259 0.55918t0.13259 0.56494q0.13259 0.24211 0.36894 0.38047 0.23635 0.13258 0.52459 0.13258z" style="font-feature-settings:normal;font-variant-caps:normal;font-variant-ligatures:normal;font-variant-numeric:normal"/>
<path d="m33.996 238.87q0.63412 0 0.96847 0.31129 0.34012 0.3113 0.34012 0.92812v1.8447h-0.52459v-0.40353q-0.13835 0.2133-0.39776 0.32859-0.25365 0.10953-0.60529 0.10953-0.51306 0-0.82435-0.24788-0.30553-0.24788-0.30553-0.65141t0.294-0.64565q0.294-0.24788 0.93388-0.24788h0.87623v-0.10953q0-0.35741-0.20753-0.54764-0.20753-0.19024-0.61106-0.19024-0.27094 0-0.53035 0.0922-0.25941 0.0865-0.43812 0.23635l-0.23059-0.41506q0.23635-0.19023 0.56494-0.28823 0.32859-0.10377 0.69753-0.10377zm-0.12682 2.6921q0.31706 0 0.54765-0.13835 0.23059-0.14412 0.33435-0.40353v-0.42659h-0.85317q-0.70329 0-0.70329 0.47271 0 0.23059 0.17871 0.36317 0.1787 0.13259 0.49576 0.13259z" style="font-feature-settings:normal;font-variant-caps:normal;font-variant-ligatures:normal;font-variant-numeric:normal"/>
<path d="m37.205 241.99q-0.3747 0-0.72059-0.098-0.34588-0.10377-0.54188-0.25941l0.23059-0.43812q0.20176 0.14412 0.49 0.23059 0.28824 0.0865 0.58223 0.0865 0.72635 0 0.72635-0.41506 0-0.13835-0.098-0.21906-0.098-0.0807-0.24788-0.11529-0.14412-0.0404-0.41506-0.0865-0.36894-0.0576-0.60529-0.13259-0.23059-0.0749-0.39776-0.25365-0.16718-0.1787-0.16718-0.50152 0-0.41506 0.34588-0.66294 0.34588-0.25365 0.92812-0.25365 0.30553 0 0.61106 0.0749 0.30553 0.0749 0.50153 0.20177l-0.23635 0.43811q-0.3747-0.24211-0.882-0.24211-0.35165 0-0.53612 0.11529-0.18447 0.11529-0.18447 0.30553 0 0.14988 0.10376 0.23635 0.10376 0.0865 0.25365 0.12682 0.15565 0.0404 0.43235 0.0922 0.36894 0.0634 0.59376 0.13835 0.23059 0.0692 0.392 0.24212 0.16141 0.17294 0.16141 0.48423 0 0.41506-0.35741 0.66294-0.35165 0.24212-0.9627 0.24212z" style="font-feature-settings:normal;font-variant-caps:normal;font-variant-ligatures:normal;font-variant-numeric:normal"/>
<path d="m41.983 240.44q0 0.0634-0.01153 0.16718h-2.4788q0.05188 0.40353 0.35165 0.65141 0.30553 0.24211 0.75518 0.24211 0.54764 0 0.882-0.36894l0.30553 0.35742q-0.20753 0.24211-0.51882 0.36894-0.30553 0.12682-0.686 0.12682-0.48423 0-0.85894-0.196-0.3747-0.20177-0.58223-0.55918-0.20176-0.35741-0.20176-0.80705 0-0.44388 0.196-0.80129 0.20176-0.35742 0.54765-0.55341 0.35165-0.20177 0.78976-0.20177 0.43812 0 0.77823 0.20177 0.34588 0.19599 0.53612 0.55341 0.196 0.35741 0.196 0.81858zm-1.5103-1.1068q-0.39776 0-0.6687 0.24212-0.26518 0.24211-0.31129 0.63411h1.96q-0.04612-0.38623-0.31706-0.62835-0.26518-0.24788-0.66294-0.24788z" style="font-feature-settings:normal;font-variant-caps:normal;font-variant-ligatures:normal;font-variant-numeric:normal"/>
<path d="m46.052 242q-0.80706 0-1.2567-0.46118-0.44965-0.46117-0.44965-1.3259v-2.2943h0.57647v2.2713q0 1.297 1.1356 1.297 0.55341 0 0.84741-0.31706 0.294-0.32282 0.294-0.97999v-2.2713h0.55918v2.2943q0 0.87047-0.44965 1.3316-0.44965 0.45541-1.2567 0.45541z" style="font-feature-settings:normal;font-variant-caps:normal;font-variant-ligatures:normal;font-variant-numeric:normal"/>
<path d="m51.638 241.95-0.87047-1.2394q-0.16141 0.0115-0.25365 0.0115h-0.99729v1.2279h-0.57647v-4.0353h1.5738q0.784 0 1.2336 0.3747 0.44965 0.37471 0.44965 1.0319 0 0.46694-0.23059 0.79553t-0.65718 0.47847l0.95694 1.3547zm-1.1414-1.7179q0.54765 0 0.83588-0.23635 0.28824-0.23635 0.28824-0.67447 0-0.43811-0.28824-0.6687-0.28823-0.23635-0.83588-0.23635h-0.98v1.8159z" style="font-feature-settings:normal;font-variant-caps:normal;font-variant-ligatures:normal;font-variant-numeric:normal"/>
<path d="m53.129 237.92h0.57647v3.5338h2.1848v0.50153h-2.7613z" style="font-feature-settings:normal;font-variant-caps:normal;font-variant-ligatures:normal;font-variant-numeric:normal"/>
<path d="m59.333 241.99q-0.45541 0-0.81859-0.20177-0.36318-0.20176-0.5707-0.55341-0.20176-0.35741-0.20176-0.80705 0-0.44965 0.20176-0.80129 0.20753-0.35742 0.5707-0.55341 0.36318-0.20177 0.81859-0.20177 0.45541 0 0.81282 0.20177 0.36318 0.19599 0.56494 0.55341 0.20753 0.35164 0.20753 0.80129 0 0.44964-0.20753 0.80705-0.20176 0.35165-0.56494 0.55341-0.35741 0.20177-0.81282 0.20177zm0-0.48424q0.294 0 0.52459-0.13258 0.23635-0.13836 0.36894-0.38047 0.13259-0.24788 0.13259-0.56494t-0.13259-0.55918q-0.13259-0.24788-0.36894-0.38047-0.23059-0.13258-0.52459-0.13258-0.294 0-0.53035 0.13258-0.23059 0.13259-0.36894 0.38047-0.13259 0.24212-0.13259 0.55918t0.13259 0.56494q0.13835 0.24211 0.36894 0.38047 0.23635 0.13258 0.53035 0.13258z" style="font-feature-settings:normal;font-variant-caps:normal;font-variant-ligatures:normal;font-variant-numeric:normal"/>
<path d="m62.802 238.1q-0.49576 0-0.49576 0.53612v0.26517h0.88776v0.45542h-0.87623v2.5999h-0.55341v-2.5999h-0.51882v-0.45542h0.51882v-0.27094q0-0.45541 0.26518-0.72058 0.26518-0.26518 0.74364-0.26518 0.18447 0 0.34588 0.0461 0.16141 0.0461 0.2767 0.13259l-0.16718 0.42082q-0.19023-0.14412-0.42659-0.14412z" style="font-feature-settings:normal;font-variant-caps:normal;font-variant-ligatures:normal;font-variant-numeric:normal"/>
<path d="m66.152 241.99q-0.3747 0-0.72059-0.098-0.34588-0.10377-0.54188-0.25941l0.23059-0.43812q0.20176 0.14412 0.49 0.23059 0.28824 0.0865 0.58223 0.0865 0.72635 0 0.72635-0.41506 0-0.13835-0.098-0.21906-0.098-0.0807-0.24788-0.11529-0.14412-0.0404-0.41506-0.0865-0.36894-0.0576-0.60529-0.13259-0.23059-0.0749-0.39776-0.25365-0.16718-0.1787-0.16718-0.50152 0-0.41506 0.34588-0.66294 0.34588-0.25365 0.92812-0.25365 0.30553 0 0.61106 0.0749 0.30553 0.0749 0.50153 0.20177l-0.23635 0.43811q-0.3747-0.24211-0.882-0.24211-0.35165 0-0.53612 0.11529t-0.18447 0.30553q0 0.14988 0.10376 0.23635 0.10376 0.0865 0.25365 0.12682 0.15565 0.0404 0.43235 0.0922 0.36894 0.0634 0.59376 0.13835 0.23059 0.0692 0.392 0.24212 0.16141 0.17294 0.16141 0.48423 0 0.41506-0.35741 0.66294-0.35165 0.24212-0.9627 0.24212z" style="font-feature-settings:normal;font-variant-caps:normal;font-variant-ligatures:normal;font-variant-numeric:normal"/>
<path d="m68.169 238.9h0.55341v3.0553h-0.55341zm0.27671-0.58799q-0.16141 0-0.27094-0.10377-0.10376-0.10376-0.10376-0.25364 0-0.14989 0.10376-0.25365 0.10953-0.10953 0.27094-0.10953 0.16141 0 0.26518 0.10376 0.10953 0.098 0.10953 0.24789 0 0.15564-0.10953 0.26517-0.10376 0.10377-0.26518 0.10377z" style="font-feature-settings:normal;font-variant-caps:normal;font-variant-ligatures:normal;font-variant-numeric:normal"/>
<path d="m71.497 241.78q-0.12106 0.10376-0.29976 0.16141-0.1787 0.0519-0.36894 0.0519-0.46118 0-0.71482-0.24788-0.25365-0.24788-0.25365-0.70906v-1.6775h-0.51882v-0.45542h0.51882v-0.6687h0.55341v0.6687h0.87623v0.45542h-0.87623v1.6545q0 0.24788 0.12106 0.38047 0.12682 0.13259 0.35741 0.13259 0.25365 0 0.43235-0.14412z" style="font-feature-settings:normal;font-variant-caps:normal;font-variant-ligatures:normal;font-variant-numeric:normal"/>
<path d="m74.826 240.44q0 0.0634-0.01153 0.16718h-2.4788q0.05188 0.40353 0.35165 0.65141 0.30553 0.24211 0.75518 0.24211 0.54764 0 0.882-0.36894l0.30553 0.35742q-0.20753 0.24211-0.51882 0.36894-0.30553 0.12682-0.686 0.12682-0.48423 0-0.85894-0.196-0.3747-0.20177-0.58223-0.55918-0.20176-0.35741-0.20176-0.80705 0-0.44388 0.196-0.80129 0.20176-0.35742 0.54765-0.55341 0.35165-0.20177 0.78976-0.20177 0.43812 0 0.77823 0.20177 0.34588 0.19599 0.53612 0.55341 0.196 0.35741 0.196 0.81858zm-1.5103-1.1068q-0.39776 0-0.6687 0.24212-0.26518 0.24211-0.31129 0.63411h1.96q-0.04612-0.38623-0.31706-0.62835-0.26518-0.24788-0.66294-0.24788z" style="font-feature-settings:normal;font-variant-caps:normal;font-variant-ligatures:normal;font-variant-numeric:normal"/>
</g>
<g fill="none" stroke="#242424" stroke-linecap="round" stroke-linejoin="round">
<path d="m6.763 256.77v-5.7034h90.287v5.7034" stroke-width=".529"/>
<g transform="translate(-48.412 1.8e-5)">
<path transform="translate(39.061)" d="m61.259 250.83v-3.2096" stroke-width=".529"/>
<circle transform="scale(1,-1)" cx="100.32" cy="-246.85" r=".75117" stroke-dashoffset="72" stroke-width=".529"/>
</g>
</g>
<g fill="#de4c36" stroke-width=".0727px" style="font-feature-settings:normal;font-variant-caps:normal;font-variant-ligatures:normal;font-variant-numeric:normal" aria-label="name of version">
<path d="m139.92 232.32q0.58224 0 0.92235 0.34012 0.34588 0.33435 0.34588 0.98576v1.7582h-0.55341v-1.6948q0-0.44388-0.21329-0.6687-0.21329-0.22483-0.61106-0.22483-0.44964 0-0.70905 0.26518-0.25941 0.25941-0.25941 0.74941v1.5738h-0.55341v-3.0553h0.53035v0.46118q0.16717-0.23635 0.44964-0.36318 0.28824-0.12682 0.65141-0.12682z" style="font-feature-settings:normal;font-variant-caps:normal;font-variant-ligatures:normal;font-variant-numeric:normal"/>
<path d="m143.33 232.32q0.63411 0 0.96846 0.31129 0.34012 0.3113 0.34012 0.92812v1.8447h-0.52459v-0.40353q-0.13835 0.21329-0.39776 0.32859-0.25364 0.10953-0.60529 0.10953-0.51306 0-0.82435-0.24789-0.30553-0.24788-0.30553-0.65141 0-0.40352 0.294-0.64564 0.294-0.24788 0.93388-0.24788h0.87623v-0.10953q0-0.35741-0.20753-0.54765-0.20753-0.19023-0.61105-0.19023-0.27094 0-0.53036 0.0922-0.25941 0.0865-0.43811 0.23636l-0.23059-0.41506q0.23635-0.19024 0.56494-0.28824 0.32859-0.10376 0.69753-0.10376zm-0.12683 2.6921q0.31706 0 0.54765-0.13835 0.23059-0.14412 0.33435-0.40353v-0.42659h-0.85317q-0.70329 0-0.70329 0.47271 0 0.23058 0.1787 0.36317 0.17871 0.13259 0.49576 0.13259z" style="font-feature-settings:normal;font-variant-caps:normal;font-variant-ligatures:normal;font-variant-numeric:normal"/>
<path d="m149.48 232.32q0.57647 0 0.91082 0.33435 0.34012 0.33435 0.34012 0.99153v1.7582h-0.55341v-1.6948q0-0.44388-0.20753-0.6687-0.20176-0.22483-0.58223-0.22483-0.42082 0-0.66871 0.26518-0.24788 0.25941-0.24788 0.74941v1.5738h-0.55341v-1.6948q0-0.44388-0.20753-0.6687-0.20176-0.22483-0.58223-0.22483-0.42082 0-0.6687 0.26518-0.24788 0.25941-0.24788 0.74941v1.5738h-0.55342v-3.0553h0.53036v0.45541q0.16717-0.23635 0.43811-0.35741 0.27094-0.12682 0.61682-0.12682 0.35742 0 0.63412 0.14412 0.27671 0.14411 0.42659 0.42082 0.17294-0.26518 0.47847-0.41506 0.31129-0.14988 0.69752-0.14988z" style="font-feature-settings:normal;font-variant-caps:normal;font-variant-ligatures:normal;font-variant-numeric:normal"/>
<path d="m154.54 233.89q0 0.0634-0.0115 0.16718h-2.4788q0.0519 0.40352 0.35164 0.65141 0.30553 0.24211 0.75518 0.24211 0.54764 0 0.882-0.36894l0.30552 0.35741q-0.20752 0.24212-0.51882 0.36894-0.30553 0.12683-0.686 0.12683-0.48423 0-0.85893-0.196-0.37471-0.20177-0.58224-0.55918-0.20176-0.35741-0.20176-0.80705 0-0.44389 0.196-0.8013 0.20176-0.35741 0.54764-0.55341 0.35165-0.20176 0.78977-0.20176 0.43811 0 0.77823 0.20176 0.34588 0.196 0.53611 0.55341 0.196 0.35741 0.196 0.81859zm-1.5103-1.1068q-0.39777 0-0.66871 0.24212-0.26517 0.24211-0.31129 0.63411h1.96q-0.0461-0.38623-0.31706-0.62835-0.26517-0.24788-0.66293-0.24788z" style="font-feature-settings:normal;font-variant-caps:normal;font-variant-ligatures:normal;font-variant-numeric:normal"/>
<path d="m158.16 235.44q-0.45541 0-0.81858-0.20177-0.36318-0.20176-0.57071-0.55341-0.20176-0.35741-0.20176-0.80705 0-0.44965 0.20176-0.8013 0.20753-0.35741 0.57071-0.55341 0.36317-0.20176 0.81858-0.20176t0.81282 0.20176q0.36318 0.196 0.56494 0.55341 0.20753 0.35165 0.20753 0.8013 0 0.44964-0.20753 0.80705-0.20176 0.35165-0.56494 0.55341-0.35741 0.20177-0.81282 0.20177zm0-0.48424q0.294 0 0.52459-0.13259 0.23635-0.13835 0.36894-0.38046 0.13259-0.24789 0.13259-0.56494 0-0.31706-0.13259-0.55918-0.13259-0.24788-0.36894-0.38047-0.23059-0.13259-0.52459-0.13259t-0.53035 0.13259q-0.23059 0.13259-0.36894 0.38047-0.13259 0.24212-0.13259 0.55918 0 0.31705 0.13259 0.56494 0.13835 0.24211 0.36894 0.38046 0.23635 0.13259 0.53035 0.13259z" style="font-feature-settings:normal;font-variant-caps:normal;font-variant-ligatures:normal;font-variant-numeric:normal"/>
<path d="m161.63 231.55q-0.49577 0-0.49577 0.53612v0.26517h0.88776v0.45541h-0.87623v2.5999h-0.55341v-2.5999h-0.51882v-0.45541h0.51882v-0.27094q0-0.45541 0.26518-0.72058 0.26517-0.26518 0.74364-0.26518 0.18447 0 0.34588 0.0461t0.27671 0.13259l-0.16718 0.42082q-0.19023-0.14412-0.42658-0.14412z" style="font-feature-settings:normal;font-variant-caps:normal;font-variant-ligatures:normal;font-variant-numeric:normal"/>
<path d="m142.58 239.56-1.3374 3.0553h-0.56494l-1.3374-3.0553h0.57647l1.0492 2.45 1.0722-2.45z" style="font-feature-settings:normal;font-variant-caps:normal;font-variant-ligatures:normal;font-variant-numeric:normal"/>
<path d="m145.77 241.1q0 0.0634-0.0115 0.16718h-2.4788q0.0519 0.40353 0.35165 0.65141 0.30553 0.24211 0.75517 0.24211 0.54765 0 0.882-0.36894l0.30553 0.35741q-0.20753 0.24212-0.51882 0.36895-0.30553 0.12682-0.686 0.12682-0.48423 0-0.85894-0.196-0.3747-0.20177-0.58223-0.55918-0.20177-0.35741-0.20177-0.80705 0-0.44388 0.196-0.80129 0.20177-0.35742 0.54765-0.55341 0.35164-0.20177 0.78976-0.20177t0.77823 0.20177q0.34589 0.19599 0.53612 0.55341 0.196 0.35741 0.196 0.81858zm-1.5104-1.1068q-0.39776 0-0.6687 0.24212-0.26518 0.24211-0.3113 0.63411h1.96q-0.0461-0.38623-0.31706-0.62835-0.26518-0.24788-0.66294-0.24788z" style="font-feature-settings:normal;font-variant-caps:normal;font-variant-ligatures:normal;font-variant-numeric:normal"/>
<path d="m147.06 240.07q0.14412-0.26517 0.42659-0.40353 0.28247-0.13835 0.686-0.13835v0.53612q-0.0461-6e-3 -0.12683-6e-3 -0.44964 0-0.70905 0.27094-0.25365 0.26518-0.25365 0.76094v1.5219h-0.55341v-3.0553h0.53035z" style="font-feature-settings:normal;font-variant-caps:normal;font-variant-ligatures:normal;font-variant-numeric:normal"/>
<path d="m149.75 242.65q-0.37471 0-0.72059-0.098-0.34588-0.10377-0.54188-0.25941l0.23059-0.43812q0.20176 0.14412 0.49 0.23059 0.28823 0.0865 0.58223 0.0865 0.72635 0 0.72635-0.41506 0-0.13835-0.098-0.21906-0.098-0.0807-0.24788-0.11529-0.14412-0.0403-0.41506-0.0865-0.36894-0.0577-0.60529-0.13259-0.23059-0.0749-0.39776-0.25365-0.16718-0.1787-0.16718-0.50152 0-0.41506 0.34588-0.66294 0.34588-0.25365 0.92812-0.25365 0.30553 0 0.61105 0.0749 0.30553 0.0749 0.50153 0.20177l-0.23635 0.43811q-0.37471-0.24211-0.882-0.24211-0.35164 0-0.53611 0.11529t-0.18447 0.30553q0 0.14988 0.10376 0.23635 0.10376 0.0865 0.25365 0.12682 0.15564 0.0404 0.43235 0.0922 0.36894 0.0634 0.59376 0.13835 0.23059 0.0692 0.392 0.24212 0.16141 0.17294 0.16141 0.48423 0 0.41506-0.35741 0.66294-0.35165 0.24212-0.9627 0.24212z" style="font-feature-settings:normal;font-variant-caps:normal;font-variant-ligatures:normal;font-variant-numeric:normal"/>
<path d="m151.76 239.56h0.55341v3.0553h-0.55341zm0.2767-0.58799q-0.16141 0-0.27094-0.10377-0.10376-0.10376-0.10376-0.25364 0-0.14989 0.10376-0.25365 0.10953-0.10953 0.27094-0.10953t0.26518 0.10376q0.10953 0.098 0.10953 0.24789 0 0.15564-0.10953 0.26517-0.10377 0.10377-0.26518 0.10377z" style="font-feature-settings:normal;font-variant-caps:normal;font-variant-ligatures:normal;font-variant-numeric:normal"/>
<path d="m154.68 242.65q-0.45541 0-0.81858-0.20177-0.36318-0.20176-0.57071-0.55341-0.20176-0.35741-0.20176-0.80705 0-0.44965 0.20176-0.80129 0.20753-0.35742 0.57071-0.55341 0.36317-0.20177 0.81858-0.20177t0.81282 0.20177q0.36318 0.19599 0.56494 0.55341 0.20753 0.35164 0.20753 0.80129 0 0.44964-0.20753 0.80705-0.20176 0.35165-0.56494 0.55341-0.35741 0.20177-0.81282 0.20177zm0-0.48424q0.294 0 0.52459-0.13258 0.23635-0.13836 0.36894-0.38047 0.13259-0.24788 0.13259-0.56494t-0.13259-0.55918q-0.13259-0.24788-0.36894-0.38047-0.23059-0.13258-0.52459-0.13258t-0.53035 0.13258q-0.23059 0.13259-0.36894 0.38047-0.13259 0.24212-0.13259 0.55918t0.13259 0.56494q0.13835 0.24211 0.36894 0.38047 0.23635 0.13258 0.53035 0.13258z" style="font-feature-settings:normal;font-variant-caps:normal;font-variant-ligatures:normal;font-variant-numeric:normal"/>
<path d="m158.67 239.53q0.58224 0 0.92235 0.34012 0.34588 0.33435 0.34588 0.98576v1.7582h-0.55341v-1.6948q0-0.44388-0.21329-0.6687-0.21329-0.22483-0.61106-0.22483-0.44964 0-0.70905 0.26518-0.25941 0.25941-0.25941 0.74941v1.5738h-0.55341v-3.0553h0.53035v0.46118q0.16717-0.23635 0.44964-0.36318 0.28824-0.12682 0.65141-0.12682z" style="font-feature-settings:normal;font-variant-caps:normal;font-variant-ligatures:normal;font-variant-numeric:normal"/>
</g>
<g fill="none" stroke="#de4c36" stroke-linecap="round" stroke-linejoin="round">
<path d="m146.12 256.77v-5.7034h8.2664v5.7034" stroke-width=".529"/>
<g transform="translate(-43.684 1.957e-5)">
<path transform="translate(13.131)" d="m180.81 250.83v-3.2096" stroke-width=".529"/>
<circle transform="scale(1,-1)" cx="193.94" cy="-246.85" r=".75117" stroke-dashoffset="72" stroke-width=".529"/>
</g>
</g>
</g>
</svg>
