<svg width="71.904mm" height="77.553mm" version="1.1" viewBox="0 0 71.903997 77.552812" xmlns="http://www.w3.org/2000/svg" xmlns:cc="http://creativecommons.org/ns#" xmlns:dc="http://purl.org/dc/elements/1.1/" xmlns:rdf="http://www.w3.org/1999/02/22-rdf-syntax-ns#">
<title>start_path Key Repository</title>
<metadata>
<rdf:RDF>
<cc:Work rdf:about="">
<dc:format>image/svg+xml</dc:format>
<dc:type rdf:resource="http://purl.org/dc/dcmitype/StillImage"/>
<dc:title>start_path Key Repository</dc:title>
<dc:creator>
<cc:Agent>
<dc:title>Sarah White</dc:title>
</cc:Agent>
</dc:creator>
<dc:publisher>
<cc:Agent>
<dc:title>OpenDevise Inc.</dc:title>
</cc:Agent>
</dc:publisher>
<dc:subject>
<rdf:Bag>
<rdf:li>Antora</rdf:li>
<rdf:li>documentation component</rdf:li>
<rdf:li>playbook</rdf:li>
</rdf:Bag>
</dc:subject>
<cc:license rdf:resource="http://creativecommons.org/licenses/by-sa/4.0/"/>
</cc:Work>
<cc:License rdf:about="http://creativecommons.org/licenses/by-sa/4.0/">
<cc:permits rdf:resource="http://creativecommons.org/ns#Reproduction"/>
<cc:permits rdf:resource="http://creativecommons.org/ns#Distribution"/>
<cc:requires rdf:resource="http://creativecommons.org/ns#Notice"/>
<cc:requires rdf:resource="http://creativecommons.org/ns#Attribution"/>
<cc:permits rdf:resource="http://creativecommons.org/ns#DerivativeWorks"/>
<cc:requires rdf:resource="http://creativecommons.org/ns#ShareAlike"/>
</cc:License>
</rdf:RDF>
</metadata>
<g transform="translate(0 -219.45)">
<rect y="219.45" width="71.904" height="77.553" fill="#fff"/>
<g transform="translate(16.933 155.27)">
<text transform="scale(1 .99998)" x="13.606983" y="122.03771" fill="#242424" font-family="'Montserrat Medium'" font-size="7.2298px" font-weight="500" letter-spacing="0px" stroke-width=".0727px" word-spacing="0px" style="font-feature-settings:normal;font-variant-caps:normal;font-variant-ligatures:normal;font-variant-numeric:normal;line-height:0%" xml:space="preserve"><tspan x="13.606983" y="122.03771" fill="#242424" font-family="'Montserrat Medium'" font-size="7.2298px" font-weight="500" stroke-width=".0727px" style="font-feature-settings:normal;font-variant-caps:normal;font-variant-ligatures:normal;font-variant-numeric:normal;line-height:125%">modules</tspan></text>
<g transform="matrix(.24549 0 0 .24258 -21.298 72.164)" fill="#fff" stroke="#242424" stroke-dashoffset="72" stroke-linecap="round" stroke-linejoin="round">
<path d="m102.18 181.99c-1.171 0-2.1138 0.94403-2.1138 2.1167v20.818c0 1.2782 1.2074 2.3074 2.7073 2.3074h23.69c1.4999 0 2.7073-1.0291 2.7073-2.3074v-17.452c0-1.2782-1.2074-2.3074-2.7073-2.3074h-12.971c-1.5535 0-2.7055-3.175-4.2599-3.175z" stroke-width="2.1684"/>
<rect transform="matrix(1 0 -.13175 .99128 0 0)" x="127.4" y="189.8" width="29.104" height="19.262" rx="2.6456" ry="2.1565" stroke-width="2.178"/>
</g>
</g>
<g transform="translate(16.933 159.56)">
<g transform="translate(0 110.07)">
<g transform="matrix(.38145 0 0 .38593 -47.747 -110.24)" stroke="#000" stroke-linecap="round">
<path transform="matrix(.26458 0 0 .26458 0 164.71)" d="m519.22 370.01c-2.9716 0-5.3652 3.3346-5.3652 7.4766v59.973c0 4.1419 2.3936 7.4766 5.3652 7.4766h48.273c2.9716 0 5.3652-3.3346 5.3652-7.4766v-55.395c-8.5708 1.6339-12.805-3.3329-11.484-12.055z" fill="#fff" stroke-dashoffset="72" stroke-linejoin="round" stroke-width="5.2126"/>
<path d="m148.58 262.64 2.9268 3.0836" fill="none" stroke-width="1.3102"/>
</g>
<g transform="matrix(.21802 0 0 .21994 1.16 -56.949)" fill="none" stroke="#000" stroke-linecap="round" stroke-linejoin="round" stroke-width="1.2083">
<path d="m19.537 235.88v-1.0609l1.85-0.52255 0.58697-1.4026-1.016-1.6433 1.5765-1.5899 1.6717 1.0028 1.363-0.57574 0.53378-1.8833 2.1654 6e-5 0.56046 1.8832 1.3247 0.57574 1.7099-1.0028 1.5231 1.5899-0.94927 1.6433 0.57559 1.4026 1.8701 0.52261v2.1248l-1.8834 0.54769-0.57563 1.3494 0.93607 1.7238-1.4698 1.5039-1.6717-0.9525-1.4297 0.58208-0.57381 1.8521h-2.0587l-0.62719-1.8521-1.3234-0.58208-1.656 0.9525-1.5116-1.5039 0.8959-1.7238-0.50709-1.3494-1.8898-0.54769z"/>
<circle cx="27.21" cy="235.88" r="3.217" stroke-dashoffset="72"/>
</g>
<text transform="scale(1 .99998)" x="13.606983" y="-1.6426225" fill="#242424" font-family="'Montserrat Medium'" font-size="7.2298px" font-weight="500" letter-spacing="0px" stroke-width=".0727px" word-spacing="0px" style="font-feature-settings:normal;font-variant-caps:normal;font-variant-ligatures:normal;font-variant-numeric:normal;line-height:0%" xml:space="preserve"><tspan x="13.606983" y="-1.6426225" fill="#242424" font-family="'Montserrat Medium'" font-size="7.2298px" font-weight="500" stroke-width=".0727px" style="font-feature-settings:normal;font-variant-caps:normal;font-variant-ligatures:normal;font-variant-numeric:normal;line-height:125%">antora.yml</tspan></text>
</g>
</g>
<text transform="scale(1 .99998)" x="10.864843" y="293.96347" fill="#242424" font-family="'Montserrat Medium'" font-size="7.2298px" font-weight="500" letter-spacing="0px" stroke-width=".0727px" word-spacing="0px" style="font-feature-settings:normal;font-variant-caps:normal;font-variant-ligatures:normal;font-variant-numeric:normal;line-height:0%" xml:space="preserve"><tspan x="10.864843" y="293.96347" fill="#242424" font-family="'Montserrat Medium'" font-size="7.2298px" font-weight="500" stroke-width=".0727px" style="font-feature-settings:normal;font-variant-caps:normal;font-variant-ligatures:normal;font-variant-numeric:normal;line-height:125%">. . .</tspan></text>
<g transform="translate(4.5e-6 116.1)">
<text transform="scale(1 .99998)" x="13.606983" y="122.03771" fill="#242424" font-family="'Montserrat Medium'" font-size="7.2298px" font-weight="500" letter-spacing="0px" stroke-width=".0727px" word-spacing="0px" style="font-feature-settings:normal;font-variant-caps:normal;font-variant-ligatures:normal;font-variant-numeric:normal;line-height:0%" xml:space="preserve"><tspan x="13.606983" y="122.03771" fill="#242424" font-family="'Montserrat Medium'" font-size="7.2298px" font-weight="500" stroke-width=".0727px" style="font-feature-settings:normal;font-variant-caps:normal;font-variant-ligatures:normal;font-variant-numeric:normal;line-height:125%">packages</tspan></text>
<g transform="matrix(.24549 0 0 .24258 -21.298 72.164)" fill="#fff" stroke="#242424" stroke-dashoffset="72" stroke-linecap="round" stroke-linejoin="round">
<path d="m102.18 181.99c-1.171 0-2.1138 0.94403-2.1138 2.1167v20.818c0 1.2782 1.2074 2.3074 2.7073 2.3074h23.69c1.4999 0 2.7073-1.0291 2.7073-2.3074v-17.452c0-1.2782-1.2074-2.3074-2.7073-2.3074h-12.971c-1.5535 0-2.7055-3.175-4.2599-3.175z" stroke-width="2.1684"/>
<rect transform="matrix(1 0 -.13175 .99128 0 0)" x="127.4" y="189.8" width="29.104" height="19.262" rx="2.6456" ry="2.1565" stroke-width="2.178"/>
</g>
</g>
<g>
<g transform="translate(.89294 11.684)" stroke="#000" stroke-linecap="round">
<path d="m3.7633 210.14c-0.29991 0-0.54149 0.3405-0.54149 0.76345v6.1239c0 0.42294 0.24158 0.76345 0.54149 0.76345h4.872c0.29991 0 0.54149-0.34051 0.54149-0.76345v-5.6564c-0.86502 0.16683-1.2923-0.34033-1.1591-1.2309z" fill="#fff" stroke-dashoffset="72" stroke-linejoin="round" stroke-width=".52917"/>
<g fill="none">
<path d="m8.0356 210.15 1.1164 1.1901" stroke-width=".50271"/>
<g stroke-width=".26458px">
<path d="m4.1499 212.22h3.0741"/>
<path d="m4.6623 213.19h1.5371"/>
<path d="m4.6623 214.17h1.5371"/>
<path d="m4.6623 215.14h1.5371"/>
<path d="m4.6623 216.12h1.5371"/>
</g>
</g>
</g>
<text transform="scale(1 .99998)" x="13.606988" y="229.07867" fill="#242424" font-family="'Montserrat Medium'" font-size="7.2298px" font-weight="500" letter-spacing="0px" stroke-width=".0727px" word-spacing="0px" style="font-feature-settings:normal;font-variant-caps:normal;font-variant-ligatures:normal;font-variant-numeric:normal;line-height:0%" xml:space="preserve"><tspan x="13.606988" y="229.07867" fill="#242424" font-family="'Montserrat Medium'" font-size="7.2298px" font-weight="500" stroke-width=".0727px" style="font-feature-settings:normal;font-variant-caps:normal;font-variant-ligatures:normal;font-variant-numeric:normal;line-height:125%">README.adoc</tspan></text>
</g>
<g transform="translate(4.5e-6 116)">
<text transform="scale(1 .99998)" x="21.804468" y="132.22839" fill="#242424" font-family="'Montserrat Medium'" font-size="7.2298px" font-weight="500" letter-spacing="0px" stroke-width=".0727px" word-spacing="0px" style="font-feature-settings:normal;font-variant-caps:normal;font-variant-ligatures:normal;font-variant-numeric:normal;line-height:0%" xml:space="preserve"><tspan x="21.804468" y="132.22839" fill="#242424" font-family="'Montserrat Medium'" font-size="7.2298px" font-weight="500" stroke-width=".0727px" style="font-feature-settings:normal;font-variant-caps:normal;font-variant-ligatures:normal;font-variant-numeric:normal;line-height:125%">cli</tspan></text>
<g transform="matrix(.24549 0 0 .24258 -13.1 82.354)" fill="#fff" stroke="#242424" stroke-dashoffset="72" stroke-linecap="round" stroke-linejoin="round">
<path d="m102.18 181.99c-1.171 0-2.1138 0.94403-2.1138 2.1167v20.818c0 1.2782 1.2074 2.3074 2.7073 2.3074h23.69c1.4999 0 2.7073-1.0291 2.7073-2.3074v-17.452c0-1.2782-1.2074-2.3074-2.7073-2.3074h-12.971c-1.5535 0-2.7055-3.175-4.2599-3.175z" stroke-width="2.1684"/>
<rect transform="matrix(1 0 -.13175 .99128 0 0)" x="127.4" y="189.8" width="29.104" height="19.262" rx="2.6456" ry="2.1565" stroke-width="2.178"/>
</g>
</g>
<g transform="translate(4.5e-6 125.69)">
<text transform="scale(1 .99998)" x="21.804468" y="132.22839" fill="#242424" font-family="'Montserrat Medium'" font-size="7.2298px" font-weight="500" letter-spacing="0px" stroke-width=".0727px" word-spacing="0px" style="font-feature-settings:normal;font-variant-caps:normal;font-variant-ligatures:normal;font-variant-numeric:normal;line-height:0%" xml:space="preserve"><tspan x="21.804468" y="132.22839" fill="#242424" font-family="'Montserrat Medium'" font-size="7.2298px" font-weight="500" stroke-width=".0727px" style="font-feature-settings:normal;font-variant-caps:normal;font-variant-ligatures:normal;font-variant-numeric:normal;line-height:125%">docs</tspan></text>
<g transform="matrix(.24549 0 0 .24258 -13.1 82.354)" fill="#fff" stroke="#242424" stroke-dashoffset="72" stroke-linecap="round" stroke-linejoin="round">
<path d="m102.18 181.99c-1.171 0-2.1138 0.94403-2.1138 2.1167v20.818c0 1.2782 1.2074 2.3074 2.7073 2.3074h23.69c1.4999 0 2.7073-1.0291 2.7073-2.3074v-17.452c0-1.2782-1.2074-2.3074-2.7073-2.3074h-12.971c-1.5535 0-2.7055-3.175-4.2599-3.175z" stroke-width="2.1684"/>
<rect transform="matrix(1 0 -.13175 .99128 0 0)" x="127.4" y="189.8" width="29.104" height="19.262" rx="2.6456" ry="2.1565" stroke-width="2.178"/>
</g>
</g>
<g transform="translate(3 -.87485)">
<text transform="scale(1 .99998)" x="18.804543" y="287.88177" fill="#242424" font-family="'Montserrat Medium'" font-size="7.2298px" font-weight="500" letter-spacing="0px" stroke-width=".0727px" word-spacing="0px" style="font-feature-settings:normal;font-variant-caps:normal;font-variant-ligatures:normal;font-variant-numeric:normal;line-height:0%" xml:space="preserve"><tspan x="18.804543" y="287.88177" fill="#242424" font-family="'Montserrat Medium'" font-size="7.2298px" font-weight="500" stroke-width=".0727px" style="font-feature-settings:normal;font-variant-caps:normal;font-variant-ligatures:normal;font-variant-numeric:normal;line-height:125%">tests</tspan></text>
<g transform="matrix(.24549 0 0 .24258 -16.1 238)" fill="#fff" stroke="#242424" stroke-dashoffset="72" stroke-linecap="round" stroke-linejoin="round">
<path d="m102.18 181.99c-1.171 0-2.1138 0.94403-2.1138 2.1167v20.818c0 1.2782 1.2074 2.3074 2.7073 2.3074h23.69c1.4999 0 2.7073-1.0291 2.7073-2.3074v-17.452c0-1.2782-1.2074-2.3074-2.7073-2.3074h-12.971c-1.5535 0-2.7055-3.175-4.2599-3.175z" stroke-width="2.1684"/>
<rect transform="matrix(1 0 -.13175 .99128 0 0)" x="127.4" y="189.8" width="29.104" height="19.262" rx="2.6456" ry="2.1565" stroke-width="2.178"/>
</g>
</g>
</g>
</svg>
