<svg version="1.1" viewBox="0 0 115.105 82.417" xmlns="http://www.w3.org/2000/svg" xmlns:cc="http://creativecommons.org/ns#" xmlns:dc="http://purl.org/dc/elements/1.1/" xmlns:rdf="http://www.w3.org/1999/02/22-rdf-syntax-ns#">
<title>Documentation Component Module Assets</title>
<metadata>
<rdf:RDF>
<cc:Work rdf:about="">
<dc:format>image/svg+xml</dc:format>
<dc:type rdf:resource="http://purl.org/dc/dcmitype/StillImage"/>
<dc:title>Documentation Component Module Assets</dc:title>
<dc:creator>
<cc:Agent>
<dc:title>Sarah White</dc:title>
</cc:Agent>
</dc:creator>
<dc:publisher>
<cc:Agent>
<dc:title>OpenDevise Inc.</dc:title>
</cc:Agent>
</dc:publisher>
<dc:subject>
<rdf:Bag>
<rdf:li>Antora</rdf:li>
<rdf:li>documentation component</rdf:li>
<rdf:li>modules</rdf:li>
<rdf:li>assets</rdf:li>
<rdf:li>multimedia</rdf:li>
</rdf:Bag>
</dc:subject>
<cc:license rdf:resource="http://creativecommons.org/licenses/by-sa/4.0/"/>
</cc:Work>
<cc:License rdf:about="http://creativecommons.org/licenses/by-sa/4.0/">
<cc:permits rdf:resource="http://creativecommons.org/ns#Reproduction"/>
<cc:permits rdf:resource="http://creativecommons.org/ns#Distribution"/>
<cc:requires rdf:resource="http://creativecommons.org/ns#Notice"/>
<cc:requires rdf:resource="http://creativecommons.org/ns#Attribution"/>
<cc:permits rdf:resource="http://creativecommons.org/ns#DerivativeWorks"/>
<cc:requires rdf:resource="http://creativecommons.org/ns#ShareAlike"/>
</cc:License>
</rdf:RDF>
</metadata>
<g transform="translate(0 -214.58)">
<g>
<rect y="214.58" width="115.1" height="82.417" fill="#fff"/>
<g transform="scale(1 .99998)" fill="#242424" stroke-width=".0727px" style="font-feature-settings:normal;font-variant-caps:normal;font-variant-ligatures:normal;font-variant-numeric:normal" aria-label=". . .">
<path d="m3.4916 294.01q-0.20244 0-0.34703-0.13737-0.1446-0.14459-0.1446-0.36149 0-0.20966 0.1446-0.34703 0.1446-0.1446 0.34703-0.1446t0.3398 0.13737 0.13737 0.35426q0 0.2169-0.1446 0.36149-0.13737 0.13737-0.33257 0.13737z" style="font-feature-settings:normal;font-variant-caps:normal;font-variant-ligatures:normal;font-variant-numeric:normal"/>
<path d="m7.0782 294.01q-0.20244 0-0.34703-0.13737-0.1446-0.14459-0.1446-0.36149 0-0.20966 0.1446-0.34703 0.1446-0.1446 0.34703-0.1446 0.20244 0 0.3398 0.13737 0.13737 0.13737 0.13737 0.35426 0 0.2169-0.1446 0.36149-0.13737 0.13737-0.33257 0.13737z" style="font-feature-settings:normal;font-variant-caps:normal;font-variant-ligatures:normal;font-variant-numeric:normal"/>
<path d="m10.665 294.01q-0.20244 0-0.34703-0.13737-0.1446-0.14459-0.1446-0.36149 0-0.20966 0.1446-0.34703 0.1446-0.1446 0.34703-0.1446 0.20244 0 0.3398 0.13737t0.13737 0.35426q0 0.2169-0.1446 0.36149-0.13737 0.13737-0.33257 0.13737z" style="font-feature-settings:normal;font-variant-caps:normal;font-variant-ligatures:normal;font-variant-numeric:normal"/>
</g>
<g transform="scale(1 .99998)" fill="#242424" stroke-width=".0727px" style="font-feature-settings:normal;font-variant-caps:normal;font-variant-ligatures:normal;font-variant-numeric:normal" aria-label="images">
<path d="m30.666 262.81h0.69406v3.8318h-0.69406zm0.34703-0.73745q-0.20244 0-0.3398-0.13014-0.13014-0.13013-0.13014-0.31811 0-0.18797 0.13014-0.31811 0.13737-0.13737 0.3398-0.13737 0.20244 0 0.33257 0.13014 0.13737 0.12291 0.13737 0.31088 0 0.19521-0.13737 0.33257-0.13014 0.13014-0.33257 0.13014z" style="font-feature-settings:normal;font-variant-caps:normal;font-variant-ligatures:normal;font-variant-numeric:normal"/>
<path d="m37.479 262.78q0.72298 0 1.1423 0.41933 0.42656 0.41933 0.42656 1.2435v2.2051h-0.69406v-2.1256q0-0.5567-0.26027-0.83866-0.25304-0.28197-0.73021-0.28197-0.52778 0-0.83866 0.33257-0.31088 0.32535-0.31088 0.93988v1.9738h-0.69406v-2.1256q0-0.5567-0.26027-0.83866-0.25304-0.28197-0.73021-0.28197-0.52778 0-0.83866 0.33257-0.31088 0.32535-0.31088 0.93988v1.9738h-0.69406v-3.8318h0.66514v0.57115q0.20966-0.29642 0.54947-0.44825 0.3398-0.15905 0.77359-0.15905 0.44825 0 0.79528 0.18074 0.34703 0.18075 0.53501 0.52778 0.2169-0.33257 0.60008-0.52055 0.39041-0.18797 0.87481-0.18797z" style="font-feature-settings:normal;font-variant-caps:normal;font-variant-ligatures:normal;font-variant-numeric:normal"/>
<path d="m41.72 262.78q0.79528 0 1.2146 0.39041 0.42656 0.39041 0.42656 1.164v2.3136h-0.65792v-0.50609q-0.17352 0.2675-0.49886 0.4121-0.31811 0.13737-0.75913 0.13737-0.64346 0-1.0339-0.31089-0.38318-0.31088-0.38318-0.81697t0.36872-0.80974q0.36872-0.31088 1.1712-0.31088h1.0989v-0.13737q0-0.44825-0.26027-0.68683-0.26027-0.23859-0.76636-0.23859-0.3398 0-0.66514 0.11568-0.32534 0.10845-0.54947 0.29642l-0.28919-0.52055q0.29642-0.23858 0.70852-0.36149 0.4121-0.13013 0.87481-0.13013zm-0.15906 3.3763q0.39764 0 0.68683-0.17352 0.28919-0.18074 0.41933-0.50609v-0.535h-1.07q-0.88204 0-0.88204 0.59284 0 0.2892 0.22412 0.45548 0.22412 0.16629 0.62177 0.16629z" style="font-feature-settings:normal;font-variant-caps:normal;font-variant-ligatures:normal;font-variant-numeric:normal"/>
<path d="m48.34 262.81v3.3113q0 1.005-0.49886 1.4821-0.49886 0.4844-1.4893 0.4844-0.54224 0-1.0339-0.15183-0.49163-0.1446-0.79528-0.41933l0.33257-0.53501q0.2675 0.23136 0.65792 0.36149 0.39764 0.13737 0.81697 0.13737 0.67238 0 0.99049-0.31811 0.32534-0.31812 0.32534-0.9688v-0.30365q-0.24581 0.29642-0.60731 0.44825-0.35426 0.14459-0.77359 0.14459-0.54947 0-0.99772-0.23135-0.44102-0.23859-0.69406-0.65792-0.25304-0.42656-0.25304-0.9688 0-0.54223 0.25304-0.96156 0.25304-0.42656 0.69406-0.65792 0.44825-0.23135 0.99772-0.23135 0.43379 0 0.80251 0.15905 0.37595 0.15906 0.61454 0.46994v-0.59284zm-1.9954 3.0654q0.37595 0 0.67238-0.15906 0.30365-0.15906 0.46994-0.44102 0.17352-0.28919 0.17352-0.65069 0-0.55669-0.36872-0.8965-0.36872-0.34703-0.94711-0.34703-0.58562 0-0.95434 0.34703-0.36872 0.33981-0.36872 0.8965 0 0.3615 0.16629 0.65069 0.17352 0.28196 0.46994 0.44102 0.30365 0.15906 0.68683 0.15906z" style="font-feature-settings:normal;font-variant-caps:normal;font-variant-ligatures:normal;font-variant-numeric:normal"/>
<path d="m53.122 264.75q0 0.0795-0.01446 0.20967h-3.1088q0.06507 0.50609 0.44102 0.81697 0.38318 0.30365 0.94711 0.30365 0.68683 0 1.1062-0.46271l0.38318 0.44825q-0.26027 0.30365-0.65068 0.46271-0.38318 0.15906-0.86035 0.15906-0.60731 0-1.0772-0.24582-0.46994-0.25304-0.73021-0.70129-0.25304-0.44825-0.25304-1.0122 0-0.5567 0.24581-1.005 0.25304-0.44825 0.68684-0.69406 0.44102-0.25304 0.99049-0.25304 0.54947 0 0.97603 0.25304 0.43379 0.24581 0.67238 0.69406 0.24581 0.44825 0.24581 1.0266zm-1.8942-1.3881q-0.49886 0-0.83866 0.30366-0.33257 0.30365-0.39041 0.79528h2.4581q-0.05784-0.4844-0.39764-0.78805-0.33257-0.31089-0.83143-0.31089z" style="font-feature-settings:normal;font-variant-caps:normal;font-variant-ligatures:normal;font-variant-numeric:normal"/>
<path d="m55.178 266.69q-0.46994 0-0.90373-0.12291-0.43379-0.13014-0.6796-0.32534l0.28919-0.54947q0.25304 0.18075 0.61454 0.28919 0.36149 0.10845 0.73021 0.10845 0.91096 0 0.91096-0.52055 0-0.17351-0.12291-0.27473-0.12291-0.10122-0.31088-0.1446-0.18075-0.0506-0.52055-0.10845-0.46271-0.0723-0.75913-0.16628-0.28919-0.094-0.49886-0.31811-0.20966-0.22413-0.20966-0.629 0-0.52055 0.43379-0.83143 0.43379-0.31811 1.164-0.31811 0.38318 0 0.76636 0.094t0.629 0.25305l-0.29642 0.54947q-0.46994-0.30366-1.1062-0.30366-0.44102 0-0.67238 0.1446t-0.23136 0.38318q0 0.18798 0.13014 0.29642 0.13014 0.10845 0.31811 0.15906 0.19521 0.0506 0.54224 0.11568 0.46271 0.0795 0.74467 0.17351 0.28919 0.0868 0.49163 0.30366 0.20244 0.21689 0.20244 0.6073 0 0.52055-0.44825 0.83143-0.44102 0.30366-1.2074 0.30366z" style="font-feature-settings:normal;font-variant-caps:normal;font-variant-ligatures:normal;font-variant-numeric:normal"/>
</g>
</g>
<g fill="#fff" stroke-dashoffset="72" stroke-linecap="round" stroke-linejoin="round">
<path d="m20.187 260.92c-0.28748 0-0.51891 0.22901-0.51891 0.51347v5.0501c0 0.31007 0.2964 0.55972 0.6646 0.55972h5.8155c0.3682 0 0.6646-0.24965 0.6646-0.55972v-4.2336c0-0.31008-0.2964-0.55973-0.6646-0.55973h-3.1842c-0.38136 0-0.66416-0.77021-1.0457-0.77021z" stroke="#242424" stroke-width=".52917"/>
<rect transform="matrix(1 0 -.1333 .99108 0 0)" x="55.533" y="264.77" width="7.1447" height="4.6737" rx=".64947" ry=".52324" stroke="#242424" stroke-width=".53154"/>
<path d="m29.256 271.89c-0.29991 0-0.54149 0.3405-0.54149 0.76345v6.1239c0 0.42294 0.24158 0.76345 0.54149 0.76345h4.872c0.29991 0 0.54149-0.34051 0.54149-0.76345v-5.6564c-0.86502 0.16683-1.2923-0.34033-1.1591-1.2309z" stroke="#000" stroke-width=".52917"/>
</g>
<path d="m33.528 271.9 1.1164 1.1901" fill="none" stroke="#000" stroke-linecap="round" stroke-width=".50271"/>
<g>
<g transform="scale(1 .99998)" fill="#242424" stroke-width=".0727px" style="font-feature-settings:normal;font-variant-caps:normal;font-variant-ligatures:normal;font-variant-numeric:normal" aria-label="web-dashboard.png">
<path d="m44.662 275.31-1.4315 3.8318h-0.66514l-1.1062-2.9064-1.1206 2.9064h-0.66514l-1.4243-3.8318h0.65792l1.1134 3.051 1.1568-3.051h0.58562l1.1351 3.0654 1.1423-3.0654z" style="font-feature-settings:normal;font-variant-caps:normal;font-variant-ligatures:normal;font-variant-numeric:normal"/>
<path d="m48.709 277.25q0 0.0795-0.01446 0.20967h-3.1088q0.06507 0.50609 0.44102 0.81697 0.38318 0.30365 0.94711 0.30365 0.68683 0 1.1062-0.46271l0.38318 0.44825q-0.26027 0.30366-0.65068 0.46271-0.38318 0.15906-0.86035 0.15906-0.60731 0-1.0772-0.24581-0.46994-0.25305-0.73021-0.7013-0.25304-0.44825-0.25304-1.0122 0-0.55669 0.24581-1.0049 0.25304-0.44825 0.68684-0.69407 0.44102-0.25304 0.99049-0.25304 0.54947 0 0.97603 0.25304 0.43379 0.24582 0.67238 0.69407 0.24581 0.44825 0.24581 1.0266zm-1.8942-1.3881q-0.49886 0-0.83866 0.30365-0.33257 0.30365-0.39041 0.79528h2.4581q-0.05784-0.4844-0.39764-0.78805-0.33257-0.31088-0.83143-0.31088z" style="font-feature-settings:normal;font-variant-caps:normal;font-variant-ligatures:normal;font-variant-numeric:normal"/>
<path d="m51.698 275.28q0.5567 0 0.99772 0.24581 0.44102 0.24582 0.68684 0.68684 0.25304 0.44102 0.25304 1.0194 0 0.57839-0.25304 1.0266-0.24582 0.44102-0.68684 0.68684-0.44102 0.24581-0.99772 0.24581-0.42656 0-0.78082-0.16629-0.35426-0.16628-0.58562-0.4844v0.60731h-0.66514v-5.3645h0.69406v2.1111q0.23136-0.30365 0.57839-0.45547 0.34703-0.15906 0.75913-0.15906zm-0.05784 3.304q0.36872 0 0.65792-0.16628 0.29642-0.17352 0.46271-0.47717 0.17352-0.31088 0.17352-0.70853 0-0.39764-0.17352-0.70129-0.16629-0.31088-0.46271-0.47717-0.28919-0.16629-0.65792-0.16629-0.36149 0-0.65792 0.16629t-0.46271 0.47717q-0.16629 0.30365-0.16629 0.70129 0 0.39765 0.16629 0.70853 0.16629 0.30365 0.46271 0.47717 0.29642 0.16628 0.65792 0.16628z" style="font-feature-settings:normal;font-variant-caps:normal;font-variant-ligatures:normal;font-variant-numeric:normal"/>
<path d="m54.419 276.86h1.9448v0.60008h-1.9448z" style="font-feature-settings:normal;font-variant-caps:normal;font-variant-ligatures:normal;font-variant-numeric:normal"/>
<path d="m61.118 273.78v5.3645h-0.66514v-0.60731q-0.23136 0.31812-0.58562 0.4844-0.35426 0.16629-0.78082 0.16629-0.5567 0-0.99772-0.24581-0.44102-0.24582-0.69406-0.68684-0.24581-0.44825-0.24581-1.0266 0-0.57838 0.24581-1.0194 0.25304-0.44102 0.69406-0.68684 0.44102-0.24581 0.99772-0.24581 0.4121 0 0.75913 0.15906 0.34703 0.15182 0.57839 0.45547v-2.1111zm-1.9737 4.8006q0.36149 0 0.65792-0.16628 0.29642-0.17352 0.46271-0.47717 0.16629-0.31088 0.16629-0.70853 0-0.39764-0.16629-0.70129-0.16629-0.31088-0.46271-0.47717-0.29642-0.16629-0.65792-0.16629-0.36872 0-0.66514 0.16629-0.28919 0.16629-0.46271 0.47717-0.16629 0.30365-0.16629 0.70129 0 0.39765 0.16629 0.70853 0.17352 0.30365 0.46271 0.47717 0.29642 0.16628 0.66514 0.16628z" style="font-feature-settings:normal;font-variant-caps:normal;font-variant-ligatures:normal;font-variant-numeric:normal"/>
<path d="m63.827 275.28q0.79528 0 1.2146 0.39041 0.42656 0.39041 0.42656 1.164v2.3136h-0.65792v-0.50609q-0.17352 0.26751-0.49886 0.4121-0.31811 0.13737-0.75913 0.13737-0.64346 0-1.0339-0.31088-0.38318-0.31089-0.38318-0.81697 0-0.50609 0.36872-0.80975 0.36872-0.31088 1.1712-0.31088h1.0989v-0.13737q0-0.44825-0.26028-0.68683-0.26027-0.23858-0.76636-0.23858-0.3398 0-0.66514 0.11567-0.32534 0.10845-0.54947 0.29643l-0.28919-0.52055q0.29642-0.23859 0.70852-0.36149 0.4121-0.13014 0.87481-0.13014zm-0.15906 3.3763q0.39764 0 0.68683-0.17351 0.28919-0.18075 0.41933-0.50609v-0.53501h-1.07q-0.88204 0-0.88204 0.59285 0 0.28919 0.22412 0.45548 0.22412 0.16628 0.62177 0.16628z" style="font-feature-settings:normal;font-variant-caps:normal;font-variant-ligatures:normal;font-variant-numeric:normal"/>
<path d="m67.851 279.19q-0.46994 0-0.90373-0.12291-0.43379-0.13013-0.6796-0.32534l0.28919-0.54947q0.25304 0.18075 0.61454 0.2892 0.36149 0.10844 0.73021 0.10844 0.91096 0 0.91096-0.52054 0-0.17352-0.12291-0.27474t-0.31088-0.1446q-0.18075-0.0506-0.52055-0.10844-0.46271-0.0723-0.75913-0.16629-0.28919-0.094-0.49886-0.31811-0.20966-0.22413-0.20966-0.629 0-0.52055 0.43379-0.83143 0.43379-0.31811 1.164-0.31811 0.38318 0 0.76636 0.094 0.38318 0.094 0.629 0.25304l-0.29642 0.54947q-0.46994-0.30365-1.1062-0.30365-0.44102 0-0.67238 0.14459-0.23135 0.1446-0.23135 0.38318 0 0.18798 0.13014 0.29643 0.13014 0.10844 0.31811 0.15905 0.19521 0.0506 0.54224 0.11568 0.46271 0.0795 0.74467 0.17352 0.28919 0.0867 0.49163 0.30365 0.20244 0.21689 0.20244 0.60731 0 0.52054-0.44825 0.83143-0.44102 0.30365-1.2074 0.30365z" style="font-feature-settings:normal;font-variant-caps:normal;font-variant-ligatures:normal;font-variant-numeric:normal"/>
<path d="m72.427 275.28q0.73021 0 1.1568 0.42656 0.43379 0.41933 0.43379 1.2363v2.2051h-0.69406v-2.1256q0-0.5567-0.2675-0.83866-0.2675-0.28197-0.76636-0.28197-0.56393 0-0.88927 0.33258-0.32534 0.32534-0.32534 0.93988v1.9737h-0.69406v-5.3645h0.69406v2.075q0.2169-0.27474 0.56393-0.42656 0.35426-0.15183 0.78805-0.15183z" style="font-feature-settings:normal;font-variant-caps:normal;font-variant-ligatures:normal;font-variant-numeric:normal"/>
<path d="m77.341 275.28q0.5567 0 0.99772 0.24581 0.44102 0.24582 0.68684 0.68684 0.25304 0.44102 0.25304 1.0194 0 0.57839-0.25304 1.0266-0.24582 0.44102-0.68684 0.68684-0.44102 0.24581-0.99772 0.24581-0.42656 0-0.78082-0.16629-0.35426-0.16628-0.58562-0.4844v0.60731h-0.66514v-5.3645h0.69406v2.1111q0.23136-0.30365 0.57839-0.45547 0.34703-0.15906 0.75913-0.15906zm-0.05784 3.304q0.36872 0 0.65792-0.16628 0.29642-0.17352 0.46271-0.47717 0.17352-0.31088 0.17352-0.70853 0-0.39764-0.17352-0.70129-0.16629-0.31088-0.46271-0.47717-0.28919-0.16629-0.65792-0.16629-0.36149 0-0.65792 0.16629t-0.46271 0.47717q-0.16629 0.30365-0.16629 0.70129 0 0.39765 0.16629 0.70853 0.16629 0.30365 0.46271 0.47717 0.29642 0.16628 0.65792 0.16628z" style="font-feature-settings:normal;font-variant-caps:normal;font-variant-ligatures:normal;font-variant-numeric:normal"/>
<path d="m81.879 279.19q-0.57116 0-1.0266-0.25304-0.45548-0.25305-0.71575-0.69407-0.25304-0.44825-0.25304-1.0122 0-0.56392 0.25304-1.0049 0.26027-0.44825 0.71575-0.69407 0.45548-0.25304 1.0266-0.25304t1.0194 0.25304q0.45548 0.24582 0.70852 0.69407 0.26027 0.44102 0.26027 1.0049 0 0.56393-0.26027 1.0122-0.25304 0.44102-0.70852 0.69407-0.44825 0.25304-1.0194 0.25304zm0-0.60731q0.36872 0 0.65792-0.16628 0.29642-0.17352 0.46271-0.47717 0.16629-0.31088 0.16629-0.70853 0-0.39764-0.16629-0.70129-0.16629-0.31088-0.46271-0.47717-0.28919-0.16629-0.65792-0.16629-0.36872 0-0.66514 0.16629-0.28919 0.16629-0.46271 0.47717-0.16629 0.30365-0.16629 0.70129 0 0.39765 0.16629 0.70853 0.17352 0.30365 0.46271 0.47717 0.29642 0.16628 0.66514 0.16628z" style="font-feature-settings:normal;font-variant-caps:normal;font-variant-ligatures:normal;font-variant-numeric:normal"/>
<path d="m86.18 275.28q0.79528 0 1.2146 0.39041 0.42656 0.39041 0.42656 1.164v2.3136h-0.65792v-0.50609q-0.17352 0.26751-0.49886 0.4121-0.31811 0.13737-0.75913 0.13737-0.64346 0-1.0339-0.31088-0.38318-0.31089-0.38318-0.81697 0-0.50609 0.36872-0.80975 0.36872-0.31088 1.1712-0.31088h1.0989v-0.13737q0-0.44825-0.26027-0.68683t-0.76636-0.23858q-0.3398 0-0.66514 0.11567-0.32534 0.10845-0.54947 0.29643l-0.28919-0.52055q0.29642-0.23859 0.70852-0.36149 0.4121-0.13014 0.87481-0.13014zm-0.15906 3.3763q0.39764 0 0.68684-0.17351 0.28919-0.18075 0.41933-0.50609v-0.53501h-1.07q-0.88204 0-0.88204 0.59285 0 0.28919 0.22412 0.45548 0.22412 0.16628 0.62176 0.16628z" style="font-feature-settings:normal;font-variant-caps:normal;font-variant-ligatures:normal;font-variant-numeric:normal"/>
<path d="m89.771 275.96q0.18075-0.33257 0.53501-0.50609 0.35426-0.17351 0.86035-0.17351v0.67237q-0.05784-7e-3 -0.15906-7e-3 -0.56393 0-0.88927 0.33981-0.31811 0.33257-0.31811 0.95433v1.9087h-0.69406v-3.8318h0.66514z" style="font-feature-settings:normal;font-variant-caps:normal;font-variant-ligatures:normal;font-variant-numeric:normal"/>
<path d="m95.601 273.78v5.3645h-0.66514v-0.60731q-0.23136 0.31812-0.58562 0.4844-0.35426 0.16629-0.78082 0.16629-0.5567 0-0.99772-0.24581-0.44102-0.24582-0.69406-0.68684-0.24581-0.44825-0.24581-1.0266 0-0.57838 0.24581-1.0194 0.25304-0.44102 0.69406-0.68684 0.44102-0.24581 0.99772-0.24581 0.4121 0 0.75913 0.15906 0.34703 0.15182 0.57839 0.45547v-2.1111zm-1.9737 4.8006q0.36149 0 0.65792-0.16628 0.29642-0.17352 0.46271-0.47717 0.16629-0.31088 0.16629-0.70853 0-0.39764-0.16629-0.70129-0.16629-0.31088-0.46271-0.47717-0.29642-0.16629-0.65792-0.16629-0.36872 0-0.66514 0.16629-0.28919 0.16629-0.46271 0.47717-0.16629 0.30365-0.16629 0.70129 0 0.39765 0.16629 0.70853 0.17352 0.30365 0.46271 0.47717 0.29642 0.16628 0.66514 0.16628z" style="font-feature-settings:normal;font-variant-caps:normal;font-variant-ligatures:normal;font-variant-numeric:normal"/>
<path d="m97.08 279.19q-0.20244 0-0.34703-0.13737-0.1446-0.14459-0.1446-0.36149 0-0.20966 0.1446-0.34703 0.1446-0.1446 0.34703-0.1446 0.20244 0 0.3398 0.13737 0.13737 0.13737 0.13737 0.35426 0 0.2169-0.1446 0.36149-0.13737 0.13737-0.33257 0.13737z" style="font-feature-settings:normal;font-variant-caps:normal;font-variant-ligatures:normal;font-variant-numeric:normal"/>
<path d="m100.58 275.28q0.55669 0 0.99771 0.24581 0.44102 0.24582 0.68684 0.68684 0.25304 0.44102 0.25304 1.0194 0 0.57839-0.25304 1.0266-0.24582 0.44102-0.68684 0.68684-0.44102 0.24581-0.99771 0.24581-0.4121 0-0.75914-0.15906-0.3398-0.15905-0.57839-0.46271v1.981h-0.69406v-5.2344h0.66514v0.6073q0.23136-0.31811 0.58562-0.47717 0.35426-0.16628 0.78082-0.16628zm-0.0578 3.304q0.36872 0 0.65791-0.16628 0.29643-0.17352 0.46271-0.47717 0.17352-0.31088 0.17352-0.70853 0-0.39764-0.17352-0.70129-0.16628-0.31088-0.46271-0.47717-0.28919-0.16629-0.65791-0.16629-0.36149 0-0.65792 0.17352-0.28919 0.16629-0.46271 0.46994-0.16629 0.30365-0.16629 0.70129 0 0.39765 0.16629 0.70853 0.16629 0.30365 0.46271 0.47717 0.29643 0.16628 0.65792 0.16628z" style="font-feature-settings:normal;font-variant-caps:normal;font-variant-ligatures:normal;font-variant-numeric:normal"/>
<path d="m105.53 275.28q0.73021 0 1.1568 0.42656 0.43379 0.41933 0.43379 1.2363v2.2051h-0.69406v-2.1256q0-0.5567-0.2675-0.83866-0.26751-0.28197-0.76637-0.28197-0.56392 0-0.88927 0.33258-0.32534 0.32534-0.32534 0.93988v1.9737h-0.69406v-3.8318h0.66514v0.57838q0.20967-0.29642 0.56393-0.45547 0.36149-0.15906 0.81697-0.15906z" style="font-feature-settings:normal;font-variant-caps:normal;font-variant-ligatures:normal;font-variant-numeric:normal"/>
<path d="m112.1 275.31v3.3113q0 1.005-0.49885 1.4821-0.49886 0.4844-1.4894 0.4844-0.54224 0-1.0339-0.15183-0.49163-0.1446-0.79528-0.41933l0.33257-0.53501q0.26751 0.23136 0.65792 0.3615 0.39764 0.13736 0.81697 0.13736 0.67237 0 0.99049-0.31811 0.32534-0.31811 0.32534-0.9688v-0.30365q-0.24581 0.29642-0.60731 0.44825-0.35426 0.14459-0.77359 0.14459-0.54947 0-0.99772-0.23135-0.44102-0.23858-0.69406-0.65792-0.25304-0.42656-0.25304-0.96879 0-0.54224 0.25304-0.96157 0.25304-0.42656 0.69406-0.65792 0.44825-0.23135 0.99772-0.23135 0.43379 0 0.80251 0.15906 0.37595 0.15905 0.61454 0.46993v-0.59284zm-1.9954 3.0654q0.37595 0 0.67237-0.15906 0.30366-0.15905 0.46994-0.44102 0.17352-0.28919 0.17352-0.65068 0-0.5567-0.36872-0.8965-0.36872-0.34704-0.94711-0.34704-0.58562 0-0.95434 0.34704-0.36872 0.3398-0.36872 0.8965 0 0.36149 0.16629 0.65068 0.17351 0.28197 0.46994 0.44102 0.30365 0.15906 0.68683 0.15906z" style="font-feature-settings:normal;font-variant-caps:normal;font-variant-ligatures:normal;font-variant-numeric:normal"/>
</g>
<g transform="scale(1 .99998)" fill="#242424" stroke-width=".0727px" style="font-feature-settings:normal;font-variant-caps:normal;font-variant-ligatures:normal;font-variant-numeric:normal" aria-label="a-module">
<path d="m15.667 219.71q0.79528 0 1.2146 0.39041 0.42656 0.39041 0.42656 1.164v2.3135h-0.65792v-0.50608q-0.17352 0.2675-0.49886 0.4121-0.31811 0.13736-0.75913 0.13736-0.64346 0-1.0339-0.31088-0.38318-0.31088-0.38318-0.81697t0.36872-0.80974q0.36872-0.31089 1.1712-0.31089h1.0989v-0.13736q0-0.44825-0.26027-0.68684-0.26028-0.23858-0.76636-0.23858-0.3398 0-0.66514 0.11568-0.32534 0.10844-0.54947 0.29642l-0.28919-0.52055q0.29642-0.23858 0.70852-0.36149 0.4121-0.13014 0.87481-0.13014zm-0.15906 3.3763q0.39764 0 0.68683-0.17352 0.28919-0.18075 0.41933-0.50609v-0.53501h-1.07q-0.88204 0-0.88204 0.59285 0 0.28919 0.22412 0.45548t0.62177 0.16629z" style="font-feature-settings:normal;font-variant-caps:normal;font-variant-ligatures:normal;font-variant-numeric:normal"/>
<path d="m18.347 221.29h1.9448v0.60007h-1.9448z" style="font-feature-settings:normal;font-variant-caps:normal;font-variant-ligatures:normal;font-variant-numeric:normal"/>
<path d="m26.153 219.71q0.72298 0 1.1423 0.41933 0.42656 0.41933 0.42656 1.2435v2.2051h-0.69406v-2.1256q0-0.55669-0.26028-0.83866-0.25304-0.28196-0.73021-0.28196-0.52778 0-0.83866 0.33257-0.31088 0.32534-0.31088 0.93988v1.9737h-0.69406v-2.1256q0-0.55669-0.26027-0.83866-0.25304-0.28196-0.73021-0.28196-0.52778 0-0.83866 0.33257-0.31088 0.32534-0.31088 0.93988v1.9737h-0.69406v-3.8318h0.66514v0.57116q0.20966-0.29643 0.54947-0.44825 0.3398-0.15906 0.77359-0.15906 0.44825 0 0.79528 0.18075 0.34703 0.18074 0.53501 0.52778 0.2169-0.33258 0.60008-0.52055 0.39041-0.18798 0.87481-0.18798z" style="font-feature-settings:normal;font-variant-caps:normal;font-variant-ligatures:normal;font-variant-numeric:normal"/>
<path d="m30.669 223.62q-0.57116 0-1.0266-0.25304-0.45548-0.25305-0.71575-0.69407-0.25304-0.44825-0.25304-1.0122 0-0.56393 0.25304-1.005 0.26027-0.44825 0.71575-0.69406 0.45548-0.25305 1.0266-0.25305t1.0194 0.25305q0.45548 0.24581 0.70852 0.69406 0.26027 0.44102 0.26027 1.005 0 0.56392-0.26027 1.0122-0.25304 0.44102-0.70852 0.69407-0.44825 0.25304-1.0194 0.25304zm0-0.6073q0.36872 0 0.65792-0.16629 0.29642-0.17352 0.46271-0.47717 0.16629-0.31088 0.16629-0.70852t-0.16629-0.7013q-0.16629-0.31088-0.46271-0.47717-0.28919-0.16628-0.65792-0.16628t-0.66514 0.16628q-0.28919 0.16629-0.46271 0.47717-0.16629 0.30366-0.16629 0.7013t0.16629 0.70852q0.17352 0.30365 0.46271 0.47717 0.29642 0.16629 0.66514 0.16629z" style="font-feature-settings:normal;font-variant-caps:normal;font-variant-ligatures:normal;font-variant-numeric:normal"/>
<path d="m37.232 218.21v5.3645h-0.66514v-0.6073q-0.23136 0.31811-0.58562 0.4844-0.35426 0.16628-0.78082 0.16628-0.5567 0-0.99772-0.24581-0.44102-0.24582-0.69406-0.68684-0.24581-0.44825-0.24581-1.0266 0-0.57839 0.24581-1.0194 0.25304-0.44102 0.69406-0.68683 0.44102-0.24582 0.99772-0.24582 0.4121 0 0.75913 0.15906 0.34703 0.15182 0.57839 0.45548v-2.1111zm-1.9737 4.8006q0.36149 0 0.65792-0.16629 0.29642-0.17352 0.46271-0.47717 0.16629-0.31088 0.16629-0.70852t-0.16629-0.7013q-0.16629-0.31088-0.46271-0.47717-0.29642-0.16628-0.65792-0.16628-0.36872 0-0.66514 0.16628-0.28919 0.16629-0.46271 0.47717-0.16629 0.30366-0.16629 0.7013t0.16629 0.70852q0.17352 0.30365 0.46271 0.47717 0.29642 0.16629 0.66514 0.16629z" style="font-feature-settings:normal;font-variant-caps:normal;font-variant-ligatures:normal;font-variant-numeric:normal"/>
<path d="m42.117 219.74v3.8318h-0.65792v-0.57838q-0.20966 0.29642-0.5567 0.46271-0.3398 0.15905-0.74467 0.15905-0.76636 0-1.2074-0.41933-0.44102-0.42656-0.44102-1.2508v-2.2051h0.69406v2.1256q0 0.5567 0.2675 0.84589 0.2675 0.28197 0.76636 0.28197 0.54947 0 0.86758-0.33258 0.31811-0.33257 0.31811-0.93987v-1.981z" style="font-feature-settings:normal;font-variant-caps:normal;font-variant-ligatures:normal;font-variant-numeric:normal"/>
<path d="m43.445 218.21h0.69406v5.3645h-0.69406z" style="font-feature-settings:normal;font-variant-caps:normal;font-variant-ligatures:normal;font-variant-numeric:normal"/>
<path d="m48.927 221.68q0 0.0795-0.01446 0.20966h-3.1088q0.06507 0.50609 0.44102 0.81697 0.38318 0.30366 0.94711 0.30366 0.68683 0 1.1062-0.46271l0.38318 0.44825q-0.26027 0.30365-0.65068 0.46271-0.38318 0.15905-0.86035 0.15905-0.60731 0-1.0772-0.24581-0.46994-0.25305-0.73021-0.7013-0.25304-0.44825-0.25304-1.0122 0-0.5567 0.24581-1.005 0.25304-0.44825 0.68684-0.69406 0.44102-0.25305 0.99049-0.25305 0.54947 0 0.97603 0.25305 0.43379 0.24581 0.67238 0.69406 0.24581 0.44825 0.24581 1.0266zm-1.8942-1.3881q-0.49886 0-0.83866 0.30365-0.33257 0.30365-0.39041 0.79528h2.4581q-0.05784-0.4844-0.39764-0.78805-0.33257-0.31088-0.83143-0.31088z" style="font-feature-settings:normal;font-variant-caps:normal;font-variant-ligatures:normal;font-variant-numeric:normal"/>
</g>
<path d="m3.7916 217.85c-0.28748 0-0.51891 0.22901-0.51891 0.51347v5.0501c0 0.31007 0.2964 0.55972 0.6646 0.55972h5.8155c0.3682 0 0.6646-0.24965 0.6646-0.55972v-4.2336c0-0.31008-0.2964-0.55973-0.6646-0.55973h-3.1842c-0.38136 0-0.66416-0.77021-1.0457-0.77021z" fill="#fff" stroke="#242424" stroke-dashoffset="72" stroke-linecap="round" stroke-linejoin="round" stroke-width=".52917"/>
<rect transform="matrix(1 0 -.1333 .99108 0 0)" x="33.345" y="221.31" width="7.1447" height="4.6737" rx=".64947" ry=".52324" fill="#fff" stroke="#242424" stroke-dashoffset="72" stroke-linecap="round" stroke-linejoin="round" stroke-width=".53154"/>
<g transform="scale(1 .99998)" fill="#242424" stroke-width=".0727px" style="font-feature-settings:normal;font-variant-caps:normal;font-variant-ligatures:normal;font-variant-numeric:normal" aria-label="assets">
<path d="m23.864 229.9q0.79528 0 1.2146 0.39041 0.42656 0.39041 0.42656 1.164v2.3135h-0.65792v-0.50609q-0.17352 0.26751-0.49886 0.4121-0.31811 0.13737-0.75913 0.13737-0.64346 0-1.0339-0.31088-0.38318-0.31088-0.38318-0.81697t0.36872-0.80974q0.36872-0.31089 1.1712-0.31089h1.0989v-0.13736q0-0.44825-0.26027-0.68684-0.26028-0.23858-0.76636-0.23858-0.3398 0-0.66514 0.11567-0.32534 0.10845-0.54947 0.29643l-0.28919-0.52055q0.29642-0.23859 0.70852-0.36149 0.4121-0.13014 0.87481-0.13014zm-0.15906 3.3763q0.39764 0 0.68683-0.17351 0.28919-0.18075 0.41933-0.50609v-0.53501h-1.07q-0.88204 0-0.88204 0.59285 0 0.28919 0.22412 0.45548 0.22412 0.16628 0.62177 0.16628z" style="font-feature-settings:normal;font-variant-caps:normal;font-variant-ligatures:normal;font-variant-numeric:normal"/>
<path d="m27.889 233.81q-0.46994 0-0.90373-0.12291-0.43379-0.13013-0.6796-0.32534l0.28919-0.54947q0.25304 0.18075 0.61454 0.2892t0.73021 0.10845q0.91096 0 0.91096-0.52055 0-0.17352-0.12291-0.27474-0.12291-0.10121-0.31088-0.14459-0.18075-0.0506-0.52055-0.10845-0.46271-0.0723-0.75913-0.16629-0.28919-0.094-0.49886-0.31811-0.20966-0.22412-0.20966-0.629 0-0.52054 0.43379-0.83143 0.43379-0.31811 1.164-0.31811 0.38318 0 0.76636 0.094t0.629 0.25304l-0.29642 0.54947q-0.46994-0.30365-1.1062-0.30365-0.44102 0-0.67238 0.14459-0.23136 0.1446-0.23136 0.38319 0 0.18797 0.13014 0.29642t0.31811 0.15905q0.1952 0.0506 0.54224 0.11568 0.46271 0.0795 0.74467 0.17352 0.28919 0.0868 0.49163 0.30365 0.20244 0.2169 0.20244 0.60731 0 0.52055-0.44825 0.83143-0.44102 0.30365-1.2074 0.30365z" style="font-feature-settings:normal;font-variant-caps:normal;font-variant-ligatures:normal;font-variant-numeric:normal"/>
<path d="m31.518 233.81q-0.46994 0-0.90373-0.12291-0.43379-0.13013-0.6796-0.32534l0.28919-0.54947q0.25304 0.18075 0.61454 0.2892t0.73021 0.10845q0.91096 0 0.91096-0.52055 0-0.17352-0.12291-0.27474-0.12291-0.10121-0.31088-0.14459-0.18075-0.0506-0.52055-0.10845-0.46271-0.0723-0.75913-0.16629-0.28919-0.094-0.49886-0.31811-0.20967-0.22412-0.20967-0.629 0-0.52054 0.43379-0.83143 0.43379-0.31811 1.164-0.31811 0.38318 0 0.76636 0.094t0.629 0.25304l-0.29642 0.54947q-0.46994-0.30365-1.1062-0.30365-0.44102 0-0.67237 0.14459-0.23136 0.1446-0.23136 0.38319 0 0.18797 0.13014 0.29642t0.31811 0.15905q0.1952 0.0506 0.54224 0.11568 0.46271 0.0795 0.74467 0.17352 0.28919 0.0868 0.49163 0.30365 0.20244 0.2169 0.20244 0.60731 0 0.52055-0.44825 0.83143-0.44102 0.30365-1.2074 0.30365z" style="font-feature-settings:normal;font-variant-caps:normal;font-variant-ligatures:normal;font-variant-numeric:normal"/>
<path d="m37.511 231.87q0 0.0795-0.01446 0.20966h-3.1088q0.06507 0.50609 0.44102 0.81697 0.38318 0.30366 0.94711 0.30366 0.68684 0 1.1062-0.46271l0.38318 0.44825q-0.26028 0.30365-0.65069 0.46271-0.38318 0.15905-0.86035 0.15905-0.60731 0-1.0772-0.24581-0.46994-0.25305-0.73021-0.7013-0.25304-0.44825-0.25304-1.0122 0-0.5567 0.24581-1.005 0.25304-0.44825 0.68683-0.69407 0.44102-0.25304 0.99049-0.25304t0.97603 0.25304q0.43379 0.24582 0.67238 0.69407 0.24581 0.44825 0.24581 1.0266zm-1.8942-1.3881q-0.49886 0-0.83866 0.30365-0.33257 0.30365-0.39041 0.79528h2.4581q-0.05784-0.4844-0.39764-0.78805-0.33257-0.31088-0.83143-0.31088z" style="font-feature-settings:normal;font-variant-caps:normal;font-variant-ligatures:normal;font-variant-numeric:normal"/>
<path d="m40.622 233.54q-0.15183 0.13013-0.37595 0.20243-0.22412 0.0651-0.46271 0.0651-0.57839 0-0.8965-0.31088t-0.31811-0.88927v-2.1039h-0.65068v-0.57116h0.65068v-0.83866h0.69406v0.83866h1.0989v0.57116h-1.0989v2.075q0 0.31088 0.15183 0.47717 0.15906 0.16629 0.44825 0.16629 0.31811 0 0.54224-0.18075z" style="font-feature-settings:normal;font-variant-caps:normal;font-variant-ligatures:normal;font-variant-numeric:normal"/>
<path d="m42.56 233.81q-0.46994 0-0.90373-0.12291-0.43379-0.13013-0.6796-0.32534l0.28919-0.54947q0.25304 0.18075 0.61454 0.2892 0.36149 0.10845 0.73021 0.10845 0.91096 0 0.91096-0.52055 0-0.17352-0.12291-0.27474-0.12291-0.10121-0.31088-0.14459-0.18075-0.0506-0.52055-0.10845-0.46271-0.0723-0.75913-0.16629-0.28919-0.094-0.49886-0.31811-0.20966-0.22412-0.20966-0.629 0-0.52054 0.43379-0.83143 0.43379-0.31811 1.164-0.31811 0.38318 0 0.76636 0.094 0.38318 0.094 0.629 0.25304l-0.29642 0.54947q-0.46994-0.30365-1.1062-0.30365-0.44102 0-0.67238 0.14459-0.23135 0.1446-0.23135 0.38319 0 0.18797 0.13014 0.29642t0.31811 0.15905q0.19521 0.0506 0.54224 0.11568 0.46271 0.0795 0.74467 0.17352 0.28919 0.0868 0.49163 0.30365 0.20244 0.2169 0.20244 0.60731 0 0.52055-0.44825 0.83143-0.44102 0.30365-1.2074 0.30365z" style="font-feature-settings:normal;font-variant-caps:normal;font-variant-ligatures:normal;font-variant-numeric:normal"/>
</g>
<path d="m11.989 228.04c-0.28748 0-0.51891 0.22901-0.51891 0.51347v5.0501c0 0.31007 0.2964 0.55972 0.6646 0.55972h5.8155c0.3682 0 0.6646-0.24965 0.6646-0.55972v-4.2336c0-0.31008-0.2964-0.55973-0.6646-0.55973h-3.1842c-0.38136 0-0.66416-0.77021-1.0457-0.77021z" fill="#fff" stroke="#242424" stroke-dashoffset="72" stroke-linecap="round" stroke-linejoin="round" stroke-width=".52917"/>
<rect transform="matrix(1 0 -.1333 .99108 0 0)" x="42.913" y="231.6" width="7.1447" height="4.6737" rx=".64947" ry=".52324" fill="#fff" stroke="#242424" stroke-dashoffset="72" stroke-linecap="round" stroke-linejoin="round" stroke-width=".53154"/>
<g transform="scale(1 .99998)" fill="#242424" stroke-width=".0727px" style="font-feature-settings:normal;font-variant-caps:normal;font-variant-ligatures:normal;font-variant-numeric:normal" aria-label="attachments">
<path d="m32.062 240.09q0.79528 0 1.2146 0.39041 0.42656 0.39042 0.42656 1.164v2.3136h-0.65792v-0.50609q-0.17352 0.2675-0.49886 0.4121-0.31811 0.13736-0.75913 0.13736-0.64346 0-1.0339-0.31088-0.38318-0.31088-0.38318-0.81697t0.36872-0.80974q0.36872-0.31088 1.1712-0.31088h1.0989v-0.13737q0-0.44825-0.26028-0.68684-0.26027-0.23858-0.76636-0.23858-0.3398 0-0.66514 0.11568-0.32534 0.10844-0.54947 0.29642l-0.28919-0.52055q0.29642-0.23858 0.70852-0.36149 0.4121-0.13014 0.87481-0.13014zm-0.15906 3.3763q0.39764 0 0.68683-0.17352 0.28919-0.18075 0.41933-0.50609v-0.53501h-1.07q-0.88204 0-0.88204 0.59285 0 0.28919 0.22412 0.45548t0.62177 0.16629z" style="font-feature-settings:normal;font-variant-caps:normal;font-variant-ligatures:normal;font-variant-numeric:normal"/>
<path d="m37.142 243.73q-0.15183 0.13014-0.37595 0.20244-0.22412 0.0651-0.46271 0.0651-0.57839 0-0.8965-0.31088t-0.31811-0.88927v-2.1039h-0.65068v-0.57116h0.65068v-0.83866h0.69406v0.83866h1.0989v0.57116h-1.0989v2.075q0 0.31089 0.15183 0.47717 0.15906 0.16629 0.44825 0.16629 0.31811 0 0.54224-0.18075z" style="font-feature-settings:normal;font-variant-caps:normal;font-variant-ligatures:normal;font-variant-numeric:normal"/>
<path d="m40.037 243.73q-0.15183 0.13014-0.37595 0.20244-0.22412 0.0651-0.46271 0.0651-0.57839 0-0.8965-0.31088-0.31811-0.31088-0.31811-0.88927v-2.1039h-0.65068v-0.57116h0.65068v-0.83866h0.69406v0.83866h1.0989v0.57116h-1.0989v2.075q0 0.31089 0.15183 0.47717 0.15906 0.16629 0.44825 0.16629 0.31811 0 0.54224-0.18075z" style="font-feature-settings:normal;font-variant-caps:normal;font-variant-ligatures:normal;font-variant-numeric:normal"/>
<path d="m42.271 240.09q0.79528 0 1.2146 0.39041 0.42656 0.39042 0.42656 1.164v2.3136h-0.65792v-0.50609q-0.17352 0.2675-0.49886 0.4121-0.31811 0.13736-0.75913 0.13736-0.64346 0-1.0339-0.31088-0.38318-0.31088-0.38318-0.81697t0.36872-0.80974q0.36872-0.31088 1.1712-0.31088h1.0989v-0.13737q0-0.44825-0.26027-0.68684-0.26028-0.23858-0.76636-0.23858-0.3398 0-0.66514 0.11568-0.32534 0.10844-0.54947 0.29642l-0.28919-0.52055q0.29642-0.23858 0.70852-0.36149 0.4121-0.13014 0.87481-0.13014zm-0.15906 3.3763q0.39764 0 0.68683-0.17352 0.28919-0.18075 0.41933-0.50609v-0.53501h-1.07q-0.88204 0-0.88204 0.59285 0 0.28919 0.22412 0.45548t0.62177 0.16629z" style="font-feature-settings:normal;font-variant-caps:normal;font-variant-ligatures:normal;font-variant-numeric:normal"/>
<path d="m46.895 244q-0.58562 0-1.0483-0.25304-0.45548-0.25304-0.71575-0.69406-0.26027-0.44825-0.26027-1.0122t0.26027-1.005q0.26027-0.44825 0.71575-0.69406 0.46271-0.25305 1.0483-0.25305 0.52055 0 0.92542 0.20967 0.4121 0.20966 0.63623 0.6073l-0.52778 0.33981q-0.18075-0.27474-0.44825-0.4121-0.2675-0.13737-0.59285-0.13737-0.37595 0-0.6796 0.16629-0.29642 0.16628-0.46994 0.47716-0.16629 0.30366-0.16629 0.7013 0 0.40487 0.16629 0.71575 0.17352 0.30366 0.46994 0.46994 0.30365 0.16629 0.6796 0.16629 0.32534 0 0.59285-0.13737t0.44825-0.4121l0.52778 0.33257q-0.22412 0.39764-0.63623 0.61454-0.40487 0.20966-0.92542 0.20966z" style="font-feature-settings:normal;font-variant-caps:normal;font-variant-ligatures:normal;font-variant-numeric:normal"/>
<path d="m51.338 240.09q0.73021 0 1.1568 0.42656 0.43379 0.41933 0.43379 1.2363v2.2051h-0.69406v-2.1256q0-0.55669-0.2675-0.83866-0.2675-0.28196-0.76636-0.28196-0.56393 0-0.88927 0.33257-0.32534 0.32534-0.32534 0.93988v1.9738h-0.69406v-5.3645h0.69406v2.075q0.2169-0.27473 0.56393-0.42656 0.35426-0.15183 0.78805-0.15183z" style="font-feature-settings:normal;font-variant-caps:normal;font-variant-ligatures:normal;font-variant-numeric:normal"/>
<path d="m59.013 240.09q0.72298 0 1.1423 0.41933 0.42656 0.41933 0.42656 1.2435v2.2051h-0.69406v-2.1256q0-0.55669-0.26027-0.83866-0.25304-0.28196-0.73021-0.28196-0.52778 0-0.83866 0.33257-0.31088 0.32534-0.31088 0.93988v1.9738h-0.69406v-2.1256q0-0.55669-0.26027-0.83866-0.25304-0.28196-0.73021-0.28196-0.52778 0-0.83866 0.33257-0.31088 0.32534-0.31088 0.93988v1.9738h-0.69406v-3.8318h0.66514v0.57116q0.20966-0.29642 0.54947-0.44825 0.3398-0.15906 0.77359-0.15906 0.44825 0 0.79528 0.18075t0.53501 0.52778q0.2169-0.33258 0.60008-0.52055 0.39041-0.18798 0.87481-0.18798z" style="font-feature-settings:normal;font-variant-caps:normal;font-variant-ligatures:normal;font-variant-numeric:normal"/>
<path d="m65.351 242.06q0 0.0795-0.01446 0.20966h-3.1088q0.06507 0.50609 0.44102 0.81698 0.38318 0.30365 0.94711 0.30365 0.68683 0 1.1062-0.46271l0.38318 0.44825q-0.26027 0.30365-0.65068 0.46271-0.38318 0.15905-0.86035 0.15905-0.60731 0-1.0772-0.24581-0.46994-0.25304-0.73021-0.70129-0.25304-0.44825-0.25304-1.0122 0-0.5567 0.24581-1.005 0.25304-0.44825 0.68684-0.69406 0.44102-0.25305 0.99049-0.25305 0.54947 0 0.97603 0.25305 0.43379 0.24581 0.67238 0.69406 0.24581 0.44825 0.24581 1.0266zm-1.8942-1.3881q-0.49886 0-0.83866 0.30365-0.33257 0.30366-0.39041 0.79529h2.4581q-0.05784-0.4844-0.39764-0.78806-0.33257-0.31088-0.83143-0.31088z" style="font-feature-settings:normal;font-variant-caps:normal;font-variant-ligatures:normal;font-variant-numeric:normal"/>
<path d="m68.353 240.09q0.73021 0 1.1568 0.42656 0.43379 0.41933 0.43379 1.2363v2.2051h-0.69406v-2.1256q0-0.55669-0.2675-0.83866-0.2675-0.28196-0.76636-0.28196-0.56393 0-0.88927 0.33257-0.32534 0.32534-0.32534 0.93988v1.9738h-0.69406v-3.8318h0.66514v0.57839q0.20966-0.29642 0.56393-0.45548 0.36149-0.15906 0.81697-0.15906z" style="font-feature-settings:normal;font-variant-caps:normal;font-variant-ligatures:normal;font-variant-numeric:normal"/>
<path d="m73.39 243.73q-0.15183 0.13014-0.37595 0.20244-0.22412 0.0651-0.46271 0.0651-0.57839 0-0.8965-0.31088-0.31811-0.31088-0.31811-0.88927v-2.1039h-0.65069v-0.57116h0.65069v-0.83866h0.69406v0.83866h1.0989v0.57116h-1.0989v2.075q0 0.31089 0.15183 0.47717 0.15906 0.16629 0.44825 0.16629 0.31811 0 0.54224-0.18075z" style="font-feature-settings:normal;font-variant-caps:normal;font-variant-ligatures:normal;font-variant-numeric:normal"/>
<path d="m75.328 244q-0.46994 0-0.90373-0.1229-0.43379-0.13014-0.6796-0.32535l0.28919-0.54946q0.25304 0.18074 0.61454 0.28919t0.73021 0.10845q0.91096 0 0.91096-0.52055 0-0.17352-0.12291-0.27473-0.12291-0.10122-0.31088-0.1446-0.18074-0.0506-0.52055-0.10845-0.46271-0.0723-0.75913-0.16628-0.28919-0.094-0.49886-0.31812t-0.20966-0.62899q0-0.52055 0.43379-0.83143 0.43379-0.31812 1.164-0.31812 0.38318 0 0.76636 0.094t0.629 0.25305l-0.29642 0.54946q-0.46994-0.30365-1.1062-0.30365-0.44102 0-0.67238 0.1446-0.23136 0.14459-0.23136 0.38318 0 0.18797 0.13014 0.29642t0.31811 0.15906q0.1952 0.0506 0.54224 0.11567 0.46271 0.0795 0.74467 0.17352 0.28919 0.0868 0.49163 0.30365 0.20244 0.2169 0.20244 0.60731 0 0.52055-0.44825 0.83143-0.44102 0.30365-1.2074 0.30365z" style="font-feature-settings:normal;font-variant-caps:normal;font-variant-ligatures:normal;font-variant-numeric:normal"/>
</g>
<path d="m20.187 238.23c-0.28748 0-0.51891 0.22901-0.51891 0.51347v5.0501c0 0.31007 0.2964 0.55972 0.6646 0.55972h5.8155c0.3682 0 0.6646-0.24965 0.6646-0.55972v-4.2336c0-0.31008-0.2964-0.55973-0.6646-0.55973h-3.1842c-0.38136 0-0.66416-0.77021-1.0457-0.77021z" fill="#fff" stroke="#242424" stroke-dashoffset="72" stroke-linecap="round" stroke-linejoin="round" stroke-width=".52917"/>
<rect transform="matrix(1 0 -.1333 .99108 0 0)" x="52.481" y="241.88" width="7.1447" height="4.6737" rx=".64947" ry=".52324" fill="#fff" stroke="#242424" stroke-dashoffset="72" stroke-linecap="round" stroke-linejoin="round" stroke-width=".53154"/>
<g transform="scale(1 .99998)" fill="#242424" stroke-width=".0727px" style="font-feature-settings:normal;font-variant-caps:normal;font-variant-ligatures:normal;font-variant-numeric:normal" aria-label="signing-key.gpg">
<path d="m39.963 255.72q-0.46994 0-0.90373-0.12291-0.43379-0.13014-0.6796-0.32534l0.28919-0.54947q0.25304 0.18075 0.61454 0.2892 0.36149 0.10844 0.73021 0.10844 0.91096 0 0.91096-0.52055 0-0.17351-0.12291-0.27473t-0.31088-0.1446q-0.18075-0.0506-0.52055-0.10844-0.46271-0.0723-0.75913-0.16629-0.28919-0.094-0.49886-0.31811-0.20966-0.22413-0.20966-0.629 0-0.52055 0.43379-0.83143 0.43379-0.31811 1.164-0.31811 0.38318 0 0.76636 0.094 0.38318 0.094 0.629 0.25304l-0.29642 0.54947q-0.46994-0.30366-1.1062-0.30366-0.44102 0-0.67238 0.1446-0.23135 0.1446-0.23135 0.38318 0 0.18798 0.13014 0.29643 0.13014 0.10844 0.31811 0.15905 0.19521 0.0506 0.54224 0.11568 0.46271 0.0795 0.74467 0.17352 0.28919 0.0867 0.49163 0.30365 0.20244 0.21689 0.20244 0.6073 0 0.52055-0.44825 0.83144-0.44102 0.30365-1.2074 0.30365z" style="font-feature-settings:normal;font-variant-caps:normal;font-variant-ligatures:normal;font-variant-numeric:normal"/>
<path d="m42.493 251.85h0.69406v3.8318h-0.69406zm0.34703-0.73745q-0.20244 0-0.3398-0.13013-0.13014-0.13014-0.13014-0.31812 0-0.18797 0.13014-0.31811 0.13737-0.13737 0.3398-0.13737t0.33257 0.13014q0.13737 0.12291 0.13737 0.31088 0 0.19521-0.13737 0.33258-0.13014 0.13013-0.33257 0.13013z" style="font-feature-settings:normal;font-variant-caps:normal;font-variant-ligatures:normal;font-variant-numeric:normal"/>
<path d="m48.178 251.85v3.3113q0 1.005-0.49886 1.4821-0.49886 0.4844-1.4893 0.4844-0.54224 0-1.0339-0.15183-0.49163-0.1446-0.79528-0.41933l0.33257-0.53501q0.2675 0.23136 0.65792 0.36149 0.39764 0.13737 0.81697 0.13737 0.67238 0 0.99049-0.31811 0.32534-0.31811 0.32534-0.9688v-0.30365q-0.24581 0.29642-0.60731 0.44825-0.35426 0.14459-0.77359 0.14459-0.54947 0-0.99772-0.23135-0.44102-0.23859-0.69406-0.65792-0.25304-0.42656-0.25304-0.96879 0-0.54224 0.25304-0.96157 0.25304-0.42656 0.69406-0.65792 0.44825-0.23135 0.99772-0.23135 0.43379 0 0.80251 0.15905 0.37595 0.15906 0.61454 0.46994v-0.59284zm-1.9954 3.0654q0.37595 0 0.67238-0.15906 0.30365-0.15906 0.46994-0.44102 0.17352-0.28919 0.17352-0.65068 0-0.5567-0.36872-0.8965-0.36872-0.34704-0.94711-0.34704-0.58562 0-0.95434 0.34704-0.36872 0.3398-0.36872 0.8965 0 0.36149 0.16629 0.65068 0.17352 0.28196 0.46994 0.44102 0.30365 0.15906 0.68684 0.15906z" style="font-feature-settings:normal;font-variant-caps:normal;font-variant-ligatures:normal;font-variant-numeric:normal"/>
<path d="m51.543 251.81q0.73021 0 1.1568 0.42656 0.43379 0.41933 0.43379 1.2363v2.2051h-0.69406v-2.1256q0-0.5567-0.2675-0.83866-0.2675-0.28197-0.76636-0.28197-0.56393 0-0.88927 0.33258-0.32534 0.32534-0.32534 0.93987v1.9738h-0.69406v-3.8318h0.66514v0.57838q0.20966-0.29642 0.56393-0.45548 0.36149-0.15905 0.81697-0.15905z" style="font-feature-settings:normal;font-variant-caps:normal;font-variant-ligatures:normal;font-variant-numeric:normal"/>
<path d="m54.425 251.85h0.69406v3.8318h-0.69406zm0.34703-0.73745q-0.20244 0-0.3398-0.13013-0.13014-0.13014-0.13014-0.31812 0-0.18797 0.13014-0.31811 0.13737-0.13737 0.3398-0.13737 0.20244 0 0.33257 0.13014 0.13737 0.12291 0.13737 0.31088 0 0.19521-0.13737 0.33258-0.13014 0.13013-0.33257 0.13013z" style="font-feature-settings:normal;font-variant-caps:normal;font-variant-ligatures:normal;font-variant-numeric:normal"/>
<path d="m58.49 251.81q0.73021 0 1.1568 0.42656 0.43379 0.41933 0.43379 1.2363v2.2051h-0.69406v-2.1256q0-0.5567-0.2675-0.83866-0.2675-0.28197-0.76636-0.28197-0.56393 0-0.88927 0.33258-0.32534 0.32534-0.32534 0.93987v1.9738h-0.69406v-3.8318h0.66514v0.57838q0.20967-0.29642 0.56393-0.45548 0.36149-0.15905 0.81697-0.15905z" style="font-feature-settings:normal;font-variant-caps:normal;font-variant-ligatures:normal;font-variant-numeric:normal"/>
<path d="m65.066 251.85v3.3113q0 1.005-0.49886 1.4821-0.49886 0.4844-1.4893 0.4844-0.54224 0-1.0339-0.15183-0.49163-0.1446-0.79528-0.41933l0.33257-0.53501q0.2675 0.23136 0.65792 0.36149 0.39764 0.13737 0.81697 0.13737 0.67238 0 0.99049-0.31811 0.32534-0.31811 0.32534-0.9688v-0.30365q-0.24581 0.29642-0.60731 0.44825-0.35426 0.14459-0.77359 0.14459-0.54947 0-0.99772-0.23135-0.44102-0.23859-0.69406-0.65792-0.25304-0.42656-0.25304-0.96879 0-0.54224 0.25304-0.96157 0.25304-0.42656 0.69406-0.65792 0.44825-0.23135 0.99772-0.23135 0.43379 0 0.80251 0.15905 0.37595 0.15906 0.61454 0.46994v-0.59284zm-1.9954 3.0654q0.37595 0 0.67237-0.15906 0.30365-0.15906 0.46994-0.44102 0.17352-0.28919 0.17352-0.65068 0-0.5567-0.36872-0.8965-0.36872-0.34704-0.94711-0.34704-0.58562 0-0.95434 0.34704-0.36872 0.3398-0.36872 0.8965 0 0.36149 0.16629 0.65068 0.17352 0.28196 0.46994 0.44102 0.30365 0.15906 0.68684 0.15906z" style="font-feature-settings:normal;font-variant-caps:normal;font-variant-ligatures:normal;font-variant-numeric:normal"/>
<path d="m66.139 253.4h1.9448v0.60008h-1.9448z" style="font-feature-settings:normal;font-variant-caps:normal;font-variant-ligatures:normal;font-variant-numeric:normal"/>
<path d="m70.642 253.89-0.79528 0.73744v1.0483h-0.69406v-5.3645h0.69406v3.4414l2.0894-1.9087h0.83866l-1.6123 1.5833 1.7713 2.2485h-0.85312z" style="font-feature-settings:normal;font-variant-caps:normal;font-variant-ligatures:normal;font-variant-numeric:normal"/>
<path d="m76.909 253.79q0 0.0795-0.01446 0.20967h-3.1088q0.06507 0.50609 0.44102 0.81697 0.38318 0.30365 0.94711 0.30365 0.68683 0 1.1062-0.46271l0.38318 0.44825q-0.26027 0.30366-0.65068 0.46271-0.38318 0.15906-0.86035 0.15906-0.60731 0-1.0772-0.24582-0.46994-0.25304-0.73021-0.70129-0.25304-0.44825-0.25304-1.0122 0-0.55669 0.24581-1.0049 0.25304-0.44825 0.68684-0.69407 0.44102-0.25304 0.99049-0.25304 0.54947 0 0.97603 0.25304 0.43379 0.24582 0.67238 0.69407 0.24581 0.44825 0.24581 1.0266zm-1.8942-1.3881q-0.49886 0-0.83866 0.30366-0.33257 0.30365-0.39041 0.79528h2.4581q-0.05784-0.4844-0.39764-0.78805-0.33257-0.31089-0.83143-0.31089z" style="font-feature-settings:normal;font-variant-caps:normal;font-variant-ligatures:normal;font-variant-numeric:normal"/>
<path d="m81.185 251.85-1.8581 4.215q-0.24581 0.58562-0.57839 0.8242-0.32534 0.23859-0.78805 0.23859-0.28196 0-0.54947-0.094-0.26027-0.0868-0.43379-0.26027l0.29642-0.52055q0.29642 0.28196 0.68683 0.28196 0.25304 0 0.41933-0.13737 0.17352-0.13013 0.31088-0.45548l0.12291-0.2675-1.6918-3.8246h0.72298l1.3375 3.0654 1.3231-3.0654z" style="font-feature-settings:normal;font-variant-caps:normal;font-variant-ligatures:normal;font-variant-numeric:normal"/>
<path d="m81.759 255.72q-0.20244 0-0.34703-0.13737-0.1446-0.14459-0.1446-0.36149 0-0.20966 0.1446-0.34703 0.1446-0.1446 0.34703-0.1446t0.3398 0.13737 0.13737 0.35426q0 0.2169-0.1446 0.36149-0.13737 0.13737-0.33257 0.13737z" style="font-feature-settings:normal;font-variant-caps:normal;font-variant-ligatures:normal;font-variant-numeric:normal"/>
<path d="m86.812 251.85v3.3113q0 1.005-0.49886 1.4821-0.49886 0.4844-1.4893 0.4844-0.54224 0-1.0339-0.15183-0.49163-0.1446-0.79528-0.41933l0.33257-0.53501q0.2675 0.23136 0.65792 0.36149 0.39764 0.13737 0.81697 0.13737 0.67238 0 0.99049-0.31811 0.32534-0.31811 0.32534-0.9688v-0.30365q-0.24581 0.29642-0.60731 0.44825-0.35426 0.14459-0.77359 0.14459-0.54947 0-0.99772-0.23135-0.44102-0.23859-0.69406-0.65792-0.25304-0.42656-0.25304-0.96879 0-0.54224 0.25304-0.96157 0.25304-0.42656 0.69406-0.65792 0.44825-0.23135 0.99772-0.23135 0.43379 0 0.80251 0.15905 0.37595 0.15906 0.61454 0.46994v-0.59284zm-1.9954 3.0654q0.37595 0 0.67237-0.15906 0.30365-0.15906 0.46994-0.44102 0.17352-0.28919 0.17352-0.65068 0-0.5567-0.36872-0.8965-0.36872-0.34704-0.94711-0.34704-0.58562 0-0.95434 0.34704-0.36872 0.3398-0.36872 0.8965 0 0.36149 0.16629 0.65068 0.17352 0.28196 0.46994 0.44102 0.30365 0.15906 0.68684 0.15906z" style="font-feature-settings:normal;font-variant-caps:normal;font-variant-ligatures:normal;font-variant-numeric:normal"/>
<path d="m90.163 251.81q0.5567 0 0.99772 0.24581 0.44102 0.24582 0.68683 0.68684 0.25304 0.44102 0.25304 1.0194 0 0.57839-0.25304 1.0266-0.24581 0.44102-0.68683 0.68683-0.44102 0.24582-0.99772 0.24582-0.4121 0-0.75913-0.15906-0.3398-0.15905-0.57839-0.46271v1.981h-0.69406v-5.2344h0.66514v0.6073q0.23135-0.31811 0.58562-0.47717 0.35426-0.16628 0.78082-0.16628zm-0.05784 3.304q0.36872 0 0.65792-0.16628 0.29642-0.17352 0.46271-0.47717 0.17352-0.31089 0.17352-0.70853t-0.17352-0.70129q-0.16629-0.31088-0.46271-0.47717-0.28919-0.16629-0.65792-0.16629-0.36149 0-0.65792 0.17352-0.28919 0.16629-0.46271 0.46994-0.16629 0.30365-0.16629 0.70129t0.16629 0.70853q0.16629 0.30365 0.46271 0.47717 0.29642 0.16628 0.65792 0.16628z" style="font-feature-settings:normal;font-variant-caps:normal;font-variant-ligatures:normal;font-variant-numeric:normal"/>
<path d="m96.725 251.85v3.3113q0 1.005-0.49886 1.4821-0.49886 0.4844-1.4893 0.4844-0.54224 0-1.0339-0.15183-0.49163-0.1446-0.79528-0.41933l0.33257-0.53501q0.2675 0.23136 0.65792 0.36149 0.39764 0.13737 0.81697 0.13737 0.67237 0 0.99049-0.31811 0.32534-0.31811 0.32534-0.9688v-0.30365q-0.24582 0.29642-0.60731 0.44825-0.35426 0.14459-0.77359 0.14459-0.54947 0-0.99772-0.23135-0.44102-0.23859-0.69406-0.65792-0.25304-0.42656-0.25304-0.96879 0-0.54224 0.25304-0.96157 0.25304-0.42656 0.69406-0.65792 0.44825-0.23135 0.99772-0.23135 0.43379 0 0.80251 0.15905 0.37595 0.15906 0.61454 0.46994v-0.59284zm-1.9954 3.0654q0.37595 0 0.67238-0.15906 0.30365-0.15906 0.46994-0.44102 0.17352-0.28919 0.17352-0.65068 0-0.5567-0.36872-0.8965-0.36872-0.34704-0.94711-0.34704-0.58562 0-0.95434 0.34704-0.36872 0.3398-0.36872 0.8965 0 0.36149 0.16629 0.65068 0.17352 0.28196 0.46994 0.44102 0.30365 0.15906 0.68683 0.15906z" style="font-feature-settings:normal;font-variant-caps:normal;font-variant-ligatures:normal;font-variant-numeric:normal"/>
</g>
<path d="m29.256 248.42c-0.29991 0-0.54149 0.3405-0.54149 0.76345v6.1239c0 0.42294 0.24158 0.76345 0.54149 0.76345h4.872c0.29991 0 0.54149-0.34051 0.54149-0.76345v-5.6564c-0.86502 0.16683-1.2923-0.34033-1.1591-1.2309z" fill="#fff" stroke="#000" stroke-dashoffset="72" stroke-linecap="round" stroke-linejoin="round" stroke-width=".52917"/>
</g>
<path d="m33.528 248.43 1.1164 1.1901" fill="none" stroke="#000" stroke-linecap="round" stroke-width=".50271"/>
<path d="m29.639 250.5h4.1056" fill="none" stroke="#000" stroke-linecap="round" stroke-width=".26458px"/>
<path d="m29.727 274.36a0.093165 0.093162 0 0 0 -0.08443 0.0931v2.5151a0.093165 0.093162 0 0 0 0.09316 0.0931h3.9125a0.093165 0.093162 0 0 0 0.09316 -0.0931v-2.5151a0.093165 0.093162 0 0 0 -0.09316 -0.0931h-3.9125a0.093165 0.093162 0 0 0 -0.0087 0zm0.10189 0.18631h3.7262v1.5792l-0.68848-0.53563c-0.01953-0.0153-0.04531-0.0222-0.06987-0.019-0.01004 1e-3 -0.01997 4e-3 -0.02911 9e-3l-0.87188 0.43664-0.69721-0.69718a0.093165 0.093162 0 0 0 -0.07569 -0.0277 0.093165 0.093162 0 0 0 -0.0393 0.0146l-1.2547 0.79325zm2.1892 0.23288c-0.23042 0-0.4192 0.18877-0.4192 0.41918s0.18878 0.41919 0.4192 0.41919c0.23041 0 0.4192-0.18878 0.4192-0.41919s-0.18878-0.41918-0.4192-0.41918zm0 0.1863c0.12972 0 0.23289 0.10316 0.23289 0.23288 0 0.12973-0.10316 0.23288-0.23289 0.23288-0.12973 0-0.23289-0.10315-0.23289-0.23288 0-0.12972 0.10316-0.23288 0.23289-0.23288zm-0.89808 0.53708 1.3726 1.3725h-2.6637v-0.55454zm1.6797 0.27073 0.75543 0.58802v0.51379h-0.80056l-0.71904-0.71901z" color="#000000" fill="#242325" style="text-decoration-line:none;text-indent:0;text-transform:none"/>
<path d="m29.639 251.48h4.1056" fill="none" stroke="#000" stroke-linecap="round" stroke-width=".26458px"/>
<g transform="scale(1 .99998)" fill="#242424" stroke-width=".0727px" style="font-feature-settings:normal;font-variant-caps:normal;font-variant-ligatures:normal;font-variant-numeric:normal" aria-label=". . .">
<path d="m11.695 285.44q-0.20244 0-0.34703-0.13737-0.1446-0.14459-0.1446-0.36149 0-0.20966 0.1446-0.34703 0.1446-0.1446 0.34703-0.1446 0.20244 0 0.3398 0.13737t0.13737 0.35426q0 0.2169-0.1446 0.36149-0.13737 0.13737-0.33257 0.13737z" style="font-feature-settings:normal;font-variant-caps:normal;font-variant-ligatures:normal;font-variant-numeric:normal"/>
<path d="m15.282 285.44q-0.20244 0-0.34703-0.13737-0.1446-0.14459-0.1446-0.36149 0-0.20966 0.1446-0.34703 0.1446-0.1446 0.34703-0.1446 0.20244 0 0.3398 0.13737t0.13737 0.35426q0 0.2169-0.1446 0.36149-0.13737 0.13737-0.33257 0.13737z" style="font-feature-settings:normal;font-variant-caps:normal;font-variant-ligatures:normal;font-variant-numeric:normal"/>
<path d="m18.869 285.44q-0.20244 0-0.34703-0.13737-0.1446-0.14459-0.1446-0.36149 0-0.20966 0.1446-0.34703 0.1446-0.1446 0.34703-0.1446t0.3398 0.13737 0.13737 0.35426q0 0.2169-0.1446 0.36149-0.13737 0.13737-0.33257 0.13737z" style="font-feature-settings:normal;font-variant-caps:normal;font-variant-ligatures:normal;font-variant-numeric:normal"/>
</g>
</g>
</svg>
