<?xml version="1.0" encoding="utf-8"?>
<!-- Generator: Adobe Illustrator 23.0.3, SVG Export Plug-In . SVG Version: 6.00 Build 0)  -->
<svg version="1.1"
	 id="Layer_1" xmlns:cc="http://creativecommons.org/ns#" xmlns:dc="http://purl.org/dc/elements/1.1/" xmlns:rdf="http://www.w3.org/1999/02/22-rdf-syntax-ns#"
	 xmlns="http://www.w3.org/2000/svg" xmlns:xlink="http://www.w3.org/1999/xlink" x="0px" y="0px" viewBox="0 0 100.7 162.2"
	 style="enable-background:new 0 0 100.7 162.2;" xml:space="preserve">
<style type="text/css">
	.st0{fill:#FFFFFF;}
	.st1{fill:#242424;}
	.st2{fill:#FFFFFF;stroke:#242424;stroke-width:0.5292;stroke-linecap:round;stroke-linejoin:round;}
	.st3{fill:#FFFFFF;stroke:#242424;stroke-width:0.5315;stroke-linecap:round;stroke-linejoin:round;}
	.st4{fill:#FFFFFF;stroke:#000000;stroke-width:0.5292;stroke-linecap:round;stroke-linejoin:round;}
	.st5{fill:none;stroke:#000000;stroke-width:0.5027;stroke-linecap:round;}
	.st6{fill:none;stroke:#000000;stroke-width:0.2646;stroke-linecap:round;stroke-linejoin:round;}
	.st7{fill:none;stroke:#000000;stroke-width:0.2646;stroke-linecap:round;}
</style>
<g transform="translate(0 -95.787)">
	<g>
		<polyline class="st0" points="100.7,257 0,257 0,95.8 100.7,95.8 		"/>
		<g>
			<g transform="scale(1 .99998)">
				<path class="st1" d="M32.7,231.7c0.4,0,0.7,0.1,1,0.2c0.3,0.2,0.5,0.4,0.7,0.7c0.2,0.3,0.3,0.6,0.3,1s-0.1,0.7-0.3,1
					c-0.2,0.3-0.4,0.5-0.7,0.7s-0.6,0.2-1,0.2c-0.3,0-0.5-0.1-0.8-0.2c-0.2-0.1-0.4-0.3-0.6-0.5v2h-0.7v-5.2h0.7v0.6
					c0.2-0.2,0.3-0.4,0.6-0.5C32.1,231.8,32.4,231.7,32.7,231.7L32.7,231.7z M32.6,235c0.2,0,0.5-0.1,0.7-0.2
					c0.2-0.1,0.4-0.3,0.5-0.5c0.1-0.2,0.2-0.4,0.2-0.7s-0.1-0.5-0.2-0.7c-0.1-0.2-0.3-0.4-0.5-0.5c-0.2-0.1-0.4-0.2-0.7-0.2
					c-0.2,0-0.5,0.1-0.7,0.2c-0.2,0.1-0.3,0.3-0.5,0.5c-0.1,0.2-0.2,0.4-0.2,0.7s0.1,0.5,0.2,0.7c0.1,0.2,0.3,0.4,0.5,0.5
					C32.2,235,32.4,235,32.6,235z"/>
				<path class="st1" d="M36.9,231.7c0.5,0,0.9,0.1,1.2,0.4c0.3,0.3,0.4,0.6,0.4,1.2v2.3h-0.7v-0.5c-0.1,0.2-0.3,0.3-0.5,0.4
					c-0.2,0.1-0.5,0.1-0.8,0.1c-0.4,0-0.8-0.1-1-0.3c-0.3-0.2-0.4-0.5-0.4-0.8c0-0.3,0.1-0.6,0.4-0.8c0.2-0.2,0.6-0.3,1.2-0.3h1.1
					v-0.1c0-0.3-0.1-0.5-0.3-0.7c-0.2-0.2-0.4-0.2-0.8-0.2c-0.2,0-0.4,0-0.7,0.1c-0.2,0.1-0.4,0.2-0.5,0.3l-0.3-0.5
					c0.2-0.2,0.4-0.3,0.7-0.4C36.3,231.8,36.6,231.7,36.9,231.7L36.9,231.7z M36.8,235.1c0.3,0,0.5-0.1,0.7-0.2
					c0.2-0.1,0.3-0.3,0.4-0.5v-0.5h-1.1c-0.6,0-0.9,0.2-0.9,0.6c0,0.2,0.1,0.3,0.2,0.5C36.3,235,36.5,235.1,36.8,235.1z"/>
				<path class="st1" d="M43.6,231.7v3.3c0,0.7-0.2,1.2-0.5,1.5c-0.3,0.3-0.8,0.5-1.5,0.5c-0.4,0-0.7-0.1-1-0.2
					c-0.3-0.1-0.6-0.2-0.8-0.4l0.3-0.5c0.2,0.2,0.4,0.3,0.7,0.4c0.3,0.1,0.5,0.1,0.8,0.1c0.4,0,0.8-0.1,1-0.3c0.2-0.2,0.3-0.5,0.3-1
					v-0.3c-0.2,0.2-0.4,0.3-0.6,0.4c-0.2,0.1-0.5,0.1-0.8,0.1c-0.4,0-0.7-0.1-1-0.2c-0.3-0.2-0.5-0.4-0.7-0.7
					c-0.2-0.3-0.3-0.6-0.3-1c0-0.4,0.1-0.7,0.3-1c0.2-0.3,0.4-0.5,0.7-0.7c0.3-0.2,0.6-0.2,1-0.2c0.3,0,0.6,0.1,0.8,0.2
					c0.3,0.1,0.5,0.3,0.6,0.5v-0.6L43.6,231.7z M41.6,234.8c0.3,0,0.5-0.1,0.7-0.2c0.2-0.1,0.4-0.3,0.5-0.4c0.1-0.2,0.2-0.4,0.2-0.7
					c0-0.4-0.1-0.7-0.4-0.9c-0.2-0.2-0.6-0.3-0.9-0.3c-0.4,0-0.7,0.1-1,0.3c-0.2,0.2-0.4,0.5-0.4,0.9c0,0.2,0.1,0.5,0.2,0.7
					c0.1,0.2,0.3,0.3,0.5,0.4C41.1,234.8,41.3,234.8,41.6,234.8z"/>
				<path class="st1" d="M48.3,233.7c0,0.1,0,0.1,0,0.2h-3.1c0,0.3,0.2,0.6,0.4,0.8c0.3,0.2,0.6,0.3,0.9,0.3c0.5,0,0.8-0.2,1.1-0.5
					l0.4,0.4c-0.2,0.2-0.4,0.4-0.7,0.5c-0.3,0.1-0.5,0.2-0.9,0.2c-0.4,0-0.8-0.1-1.1-0.2c-0.3-0.2-0.6-0.4-0.7-0.7
					c-0.2-0.3-0.3-0.6-0.3-1c0-0.4,0.1-0.7,0.2-1c0.2-0.3,0.4-0.5,0.7-0.7c0.3-0.2,0.6-0.3,1-0.3c0.4,0,0.7,0.1,1,0.3
					c0.3,0.2,0.5,0.4,0.7,0.7C48.3,233,48.3,233.3,48.3,233.7L48.3,233.7z M46.4,232.3c-0.3,0-0.6,0.1-0.8,0.3
					c-0.2,0.2-0.4,0.5-0.4,0.8h2.5c0-0.3-0.2-0.6-0.4-0.8C47.1,232.4,46.8,232.3,46.4,232.3L46.4,232.3z"/>
				<path class="st1" d="M50.4,235.6c-0.3,0-0.6,0-0.9-0.1c-0.3-0.1-0.5-0.2-0.7-0.3l0.3-0.5c0.2,0.1,0.4,0.2,0.6,0.3
					c0.2,0.1,0.5,0.1,0.7,0.1c0.6,0,0.9-0.2,0.9-0.5c0-0.1,0-0.2-0.1-0.3c-0.1-0.1-0.2-0.1-0.3-0.1c-0.1,0-0.3-0.1-0.5-0.1
					c-0.3,0-0.6-0.1-0.8-0.2c-0.2-0.1-0.4-0.2-0.5-0.3c-0.1-0.1-0.2-0.4-0.2-0.6c0-0.3,0.1-0.6,0.4-0.8c0.3-0.2,0.7-0.3,1.2-0.3
					c0.3,0,0.5,0,0.8,0.1c0.3,0.1,0.5,0.1,0.6,0.3l-0.3,0.5c-0.3-0.2-0.7-0.3-1.1-0.3c-0.3,0-0.5,0-0.7,0.1s-0.2,0.2-0.2,0.4
					c0,0.1,0,0.2,0.1,0.3c0.1,0.1,0.2,0.1,0.3,0.2c0.1,0,0.3,0.1,0.5,0.1c0.3,0.1,0.6,0.1,0.7,0.2c0.2,0.1,0.4,0.2,0.5,0.3
					c0.1,0.1,0.2,0.3,0.2,0.6c0,0.3-0.1,0.6-0.4,0.8C51.3,235.5,50.9,235.6,50.4,235.6L50.4,235.6z"/>
			</g>
			<path class="st2" d="M20.2,229.8c-0.3,0-0.5,0.2-0.5,0.5v5.1c0,0.3,0.3,0.6,0.7,0.6h5.8c0.4,0,0.7-0.2,0.7-0.6v-4.2
				c0-0.3-0.3-0.6-0.7-0.6H23c-0.4,0-0.7-0.8-1-0.8L20.2,229.8z"/>
			<path class="st3" d="M20.9,231.3h5.8c0.4,0,0.6,0.2,0.6,0.5l-0.5,3.6c0,0.3-0.4,0.5-0.7,0.5h-5.8c-0.4,0-0.6-0.2-0.6-0.5l0.5-3.6
				C20.2,231.6,20.5,231.3,20.9,231.3z"/>
			<g transform="scale(1 .99998)">
				<path class="st1" d="M19.1,113.7c0.5,0,0.9,0.1,1.1,0.4c0.3,0.3,0.4,0.7,0.4,1.2v2.2h-0.7v-2.1c0-0.4-0.1-0.7-0.3-0.8
					c-0.2-0.2-0.4-0.3-0.7-0.3c-0.4,0-0.6,0.1-0.8,0.3c-0.2,0.2-0.3,0.5-0.3,0.9v2h-0.7v-2.1c0-0.4-0.1-0.7-0.3-0.8
					c-0.2-0.2-0.4-0.3-0.7-0.3c-0.4,0-0.6,0.1-0.8,0.3c-0.2,0.2-0.3,0.5-0.3,0.9v2h-0.7v-3.8h0.7v0.6c0.1-0.2,0.3-0.3,0.5-0.4
					c0.2-0.1,0.5-0.2,0.8-0.2c0.3,0,0.6,0.1,0.8,0.2s0.4,0.3,0.5,0.5c0.1-0.2,0.3-0.4,0.6-0.5C18.4,113.8,18.7,113.7,19.1,113.7
					L19.1,113.7z"/>
				<path class="st1" d="M23.6,117.6c-0.4,0-0.7-0.1-1-0.3c-0.3-0.2-0.5-0.4-0.7-0.7c-0.2-0.3-0.3-0.6-0.3-1c0-0.4,0.1-0.7,0.3-1
					c0.2-0.3,0.4-0.5,0.7-0.7c0.3-0.2,0.6-0.3,1-0.3c0.4,0,0.7,0.1,1,0.3c0.3,0.2,0.5,0.4,0.7,0.7c0.2,0.3,0.3,0.6,0.3,1
					c0,0.4-0.1,0.7-0.3,1c-0.2,0.3-0.4,0.5-0.7,0.7C24.3,117.5,24,117.6,23.6,117.6z M23.6,117c0.2,0,0.5-0.1,0.7-0.2
					c0.2-0.1,0.4-0.3,0.5-0.5c0.1-0.2,0.2-0.4,0.2-0.7c0-0.3-0.1-0.5-0.2-0.7c-0.1-0.2-0.3-0.4-0.5-0.5c-0.2-0.1-0.4-0.2-0.7-0.2
					c-0.2,0-0.5,0.1-0.7,0.2c-0.2,0.1-0.3,0.3-0.5,0.5c-0.1,0.2-0.2,0.4-0.2,0.7s0.1,0.5,0.2,0.7c0.1,0.2,0.3,0.4,0.5,0.5
					C23.1,117,23.3,117,23.6,117z"/>
				<path class="st1" d="M30.1,112.2v5.4h-0.7V117c-0.2,0.2-0.3,0.4-0.6,0.5c-0.2,0.1-0.5,0.2-0.8,0.2c-0.4,0-0.7-0.1-1-0.2
					s-0.5-0.4-0.7-0.7c-0.2-0.3-0.2-0.6-0.2-1c0-0.4,0.1-0.7,0.2-1c0.2-0.3,0.4-0.5,0.7-0.7c0.3-0.2,0.6-0.2,1-0.2
					c0.3,0,0.5,0.1,0.8,0.2c0.2,0.1,0.4,0.3,0.6,0.5v-2.1L30.1,112.2z M28.2,117c0.2,0,0.5-0.1,0.7-0.2c0.2-0.1,0.4-0.3,0.5-0.5
					c0.1-0.2,0.2-0.4,0.2-0.7s-0.1-0.5-0.2-0.7c-0.1-0.2-0.3-0.4-0.5-0.5c-0.2-0.1-0.4-0.2-0.7-0.2c-0.2,0-0.5,0.1-0.7,0.2
					c-0.2,0.1-0.3,0.3-0.5,0.5c-0.1,0.2-0.2,0.4-0.2,0.7c0,0.3,0.1,0.5,0.2,0.7c0.1,0.2,0.3,0.4,0.5,0.5C27.7,117,27.9,117,28.2,117
					z"/>
				<path class="st1" d="M35,113.8v3.8h-0.7V117c-0.1,0.2-0.3,0.4-0.6,0.5c-0.2,0.1-0.5,0.2-0.7,0.2c-0.5,0-0.9-0.1-1.2-0.4
					c-0.3-0.3-0.4-0.7-0.4-1.3v-2.2h0.7v2.1c0,0.4,0.1,0.7,0.3,0.8c0.2,0.2,0.4,0.3,0.8,0.3c0.4,0,0.7-0.1,0.9-0.3s0.3-0.5,0.3-0.9
					v-2L35,113.8z"/>
				<path class="st1" d="M36.3,112.2H37v5.4h-0.7V112.2z"/>
				<path class="st1" d="M41.8,115.7c0,0.1,0,0.1,0,0.2h-3.1c0,0.3,0.2,0.6,0.4,0.8c0.3,0.2,0.6,0.3,0.9,0.3c0.5,0,0.8-0.2,1.1-0.5
					l0.4,0.4c-0.2,0.2-0.4,0.4-0.7,0.5c-0.3,0.1-0.5,0.2-0.9,0.2c-0.4,0-0.8-0.1-1.1-0.2c-0.3-0.2-0.6-0.4-0.7-0.7
					c-0.2-0.3-0.3-0.6-0.3-1c0-0.4,0.1-0.7,0.2-1c0.2-0.3,0.4-0.5,0.7-0.7c0.3-0.2,0.6-0.3,1-0.3c0.4,0,0.7,0.1,1,0.3
					c0.3,0.2,0.5,0.4,0.7,0.7C41.8,115,41.8,115.3,41.8,115.7L41.8,115.7z M39.9,114.3c-0.3,0-0.6,0.1-0.8,0.3
					c-0.2,0.2-0.4,0.5-0.4,0.8h2.5c0-0.3-0.2-0.6-0.4-0.8C40.5,114.4,40.3,114.3,39.9,114.3L39.9,114.3z"/>
				<path class="st1" d="M43.9,117.6c-0.3,0-0.6,0-0.9-0.1c-0.3-0.1-0.5-0.2-0.7-0.3l0.3-0.5c0.2,0.1,0.4,0.2,0.6,0.3
					c0.2,0.1,0.5,0.1,0.7,0.1c0.6,0,0.9-0.2,0.9-0.5c0-0.1,0-0.2-0.1-0.3c-0.1-0.1-0.2-0.1-0.3-0.1c-0.1,0-0.3-0.1-0.5-0.1
					c-0.3,0-0.6-0.1-0.8-0.2c-0.2-0.1-0.4-0.2-0.5-0.3c-0.1-0.1-0.2-0.4-0.2-0.6c0-0.3,0.1-0.6,0.4-0.8c0.3-0.2,0.7-0.3,1.2-0.3
					c0.3,0,0.5,0,0.8,0.1s0.5,0.1,0.6,0.3l-0.3,0.5c-0.3-0.2-0.7-0.3-1.1-0.3c-0.3,0-0.5,0-0.7,0.1c-0.2,0.1-0.2,0.2-0.2,0.4
					c0,0.1,0,0.2,0.1,0.3c0.1,0.1,0.2,0.1,0.3,0.2c0.1,0,0.3,0.1,0.5,0.1c0.3,0.1,0.6,0.1,0.7,0.2c0.2,0.1,0.4,0.2,0.5,0.3
					c0.1,0.1,0.2,0.3,0.2,0.6c0,0.3-0.1,0.6-0.4,0.8C44.8,117.5,44.4,117.6,43.9,117.6L43.9,117.6z"/>
			</g>
		</g>
	</g>
	<g>
		<path class="st2" d="M3.8,111.9c-0.3,0-0.5,0.2-0.5,0.5v5.1c0,0.3,0.3,0.6,0.7,0.6h5.8c0.4,0,0.7-0.2,0.7-0.6v-4.2
			c0-0.3-0.3-0.6-0.7-0.6H6.6c-0.4,0-0.7-0.8-1-0.8L3.8,111.9z"/>
		<path class="st3" d="M4.5,113.3h5.8c0.4,0,0.6,0.2,0.6,0.5l-0.5,3.6c0,0.3-0.4,0.5-0.7,0.5H3.9c-0.4,0-0.6-0.2-0.6-0.5l0.5-3.6
			C3.8,113.6,4.1,113.3,4.5,113.3z"/>
		<path class="st4" d="M4.7,99.1c-0.3,0-0.5,0.3-0.5,0.8v6.1c0,0.4,0.2,0.8,0.5,0.8h4.9c0.3,0,0.5-0.3,0.5-0.8v-5.7
			c-0.9,0.2-1.3-0.3-1.2-1.2L4.7,99.1z"/>
	</g>
	<g>
		<path class="st5" d="M8.9,99.1l1.1,1.2"/>
		<path class="st6" d="M5.4,102.9v-0.2l0.4-0.1l0.1-0.3l-0.2-0.4l0.3-0.3l0.4,0.2l0.3-0.1l0.1-0.4l0.5,0l0.1,0.4l0.3,0.1l0.4-0.2
			l0.3,0.3l-0.2,0.4l0.1,0.3l0.4,0.1v0.5l-0.4,0.1l-0.1,0.3l0.2,0.4l-0.3,0.3L7.7,104l-0.3,0.1l-0.1,0.4H6.9l-0.1-0.4L6.4,104
			l-0.4,0.2l-0.3-0.3l0.2-0.4l-0.1-0.3l-0.4-0.1L5.4,102.9z"/>
		<ellipse class="st6" cx="7.1" cy="102.9" rx="0.7" ry="0.7"/>
	</g>
	<g>
		<g transform="scale(1 .99998)">
			<path class="st1" d="M15.7,102.4c0.5,0,0.9,0.1,1.2,0.4c0.3,0.3,0.4,0.6,0.4,1.2v2.3h-0.7v-0.5c-0.1,0.2-0.3,0.3-0.5,0.4
				c-0.2,0.1-0.5,0.1-0.8,0.1c-0.4,0-0.8-0.1-1-0.3c-0.3-0.2-0.4-0.5-0.4-0.8c0-0.3,0.1-0.6,0.4-0.8c0.2-0.2,0.6-0.3,1.2-0.3h1.1
				V104c0-0.3-0.1-0.5-0.3-0.7c-0.2-0.2-0.4-0.2-0.8-0.2c-0.2,0-0.4,0-0.7,0.1c-0.2,0.1-0.4,0.2-0.5,0.3l-0.3-0.5
				c0.2-0.2,0.4-0.3,0.7-0.4C15.1,102.5,15.4,102.4,15.7,102.4L15.7,102.4z M15.5,105.8c0.3,0,0.5-0.1,0.7-0.2
				c0.2-0.1,0.3-0.3,0.4-0.5v-0.5h-1.1c-0.6,0-0.9,0.2-0.9,0.6c0,0.2,0.1,0.3,0.2,0.5C15,105.8,15.2,105.8,15.5,105.8L15.5,105.8z"
				/>
			<path class="st1" d="M20.6,102.4c0.5,0,0.9,0.1,1.2,0.4c0.3,0.3,0.4,0.7,0.4,1.2v2.2h-0.7v-2.1c0-0.4-0.1-0.7-0.3-0.8
				s-0.4-0.3-0.8-0.3c-0.4,0-0.7,0.1-0.9,0.3c-0.2,0.2-0.3,0.5-0.3,0.9v2h-0.7v-3.8h0.7v0.6c0.1-0.2,0.3-0.3,0.6-0.5
				C20.1,102.5,20.3,102.4,20.6,102.4L20.6,102.4z"/>
			<path class="st1" d="M25.7,106.1c-0.1,0.1-0.2,0.2-0.4,0.2c-0.1,0-0.3,0.1-0.5,0.1c-0.4,0-0.7-0.1-0.9-0.3
				c-0.2-0.2-0.3-0.5-0.3-0.9V103H23v-0.6h0.7v-0.8h0.7v0.8h1.1v0.6h-1.1v2.1c0,0.2,0.1,0.4,0.2,0.5c0.1,0.1,0.3,0.2,0.4,0.2
				c0.2,0,0.4-0.1,0.5-0.2L25.7,106.1z"/>
			<path class="st1" d="M28,106.3c-0.4,0-0.7-0.1-1-0.3c-0.3-0.2-0.5-0.4-0.7-0.7c-0.2-0.3-0.3-0.6-0.3-1s0.1-0.7,0.3-1
				c0.2-0.3,0.4-0.5,0.7-0.7c0.3-0.2,0.6-0.3,1-0.3c0.4,0,0.7,0.1,1,0.3c0.3,0.2,0.5,0.4,0.7,0.7c0.2,0.3,0.3,0.6,0.3,1
				c0,0.4-0.1,0.7-0.3,1c-0.2,0.3-0.4,0.5-0.7,0.7C28.7,106.3,28.4,106.3,28,106.3z M28,105.7c0.2,0,0.5-0.1,0.7-0.2
				c0.2-0.1,0.4-0.3,0.5-0.5c0.1-0.2,0.2-0.4,0.2-0.7s-0.1-0.5-0.2-0.7c-0.1-0.2-0.3-0.4-0.5-0.5c-0.2-0.1-0.4-0.2-0.7-0.2
				c-0.2,0-0.5,0.1-0.7,0.2c-0.2,0.1-0.3,0.3-0.5,0.5c-0.1,0.2-0.2,0.4-0.2,0.7s0.1,0.5,0.2,0.7c0.1,0.2,0.3,0.4,0.5,0.5
				C27.6,105.7,27.8,105.7,28,105.7z"/>
			<path class="st1" d="M31.6,103.1c0.1-0.2,0.3-0.4,0.5-0.5c0.2-0.1,0.5-0.2,0.9-0.2v0.7c0,0-0.1,0-0.2,0c-0.4,0-0.7,0.1-0.9,0.3
				c-0.2,0.2-0.3,0.5-0.3,1v1.9H31v-3.8h0.7V103.1z"/>
			<path class="st1" d="M35.3,102.4c0.5,0,0.9,0.1,1.2,0.4c0.3,0.3,0.4,0.6,0.4,1.2v2.3h-0.7v-0.5c-0.1,0.2-0.3,0.3-0.5,0.4
				c-0.2,0.1-0.5,0.1-0.8,0.1c-0.4,0-0.8-0.1-1-0.3c-0.3-0.2-0.4-0.5-0.4-0.8c0-0.3,0.1-0.6,0.4-0.8c0.2-0.2,0.6-0.3,1.2-0.3h1.1
				V104c0-0.3-0.1-0.5-0.3-0.7c-0.2-0.2-0.4-0.2-0.8-0.2c-0.2,0-0.4,0-0.7,0.1c-0.2,0.1-0.4,0.2-0.5,0.3l-0.3-0.5
				c0.2-0.2,0.4-0.3,0.7-0.4C34.7,102.5,35,102.4,35.3,102.4L35.3,102.4z M35.1,105.8c0.3,0,0.5-0.1,0.7-0.2
				c0.2-0.1,0.3-0.3,0.4-0.5v-0.5h-1.1c-0.6,0-0.9,0.2-0.9,0.6c0,0.2,0.1,0.3,0.2,0.5S34.8,105.8,35.1,105.8L35.1,105.8z"/>
			<path class="st1" d="M38.4,106.3c-0.1,0-0.3,0-0.3-0.1c-0.1-0.1-0.1-0.2-0.1-0.4c0-0.1,0-0.3,0.1-0.3c0.1-0.1,0.2-0.1,0.3-0.1
				c0.1,0,0.2,0,0.3,0.1c0.1,0.1,0.1,0.2,0.1,0.4c0,0.1,0,0.3-0.1,0.4C38.6,106.3,38.5,106.3,38.4,106.3z"/>
			<path class="st1" d="M43,102.5l-1.9,4.2c-0.2,0.4-0.4,0.7-0.6,0.8c-0.2,0.2-0.5,0.2-0.8,0.2c-0.2,0-0.4,0-0.5-0.1
				c-0.2-0.1-0.3-0.1-0.4-0.3l0.3-0.5c0.2,0.2,0.4,0.3,0.7,0.3c0.2,0,0.3,0,0.4-0.1c0.1-0.1,0.2-0.2,0.3-0.5l0.1-0.3l-1.7-3.8h0.7
				l1.3,3.1l1.3-3.1L43,102.5z"/>
			<path class="st1" d="M48.4,102.4c0.5,0,0.9,0.1,1.1,0.4c0.3,0.3,0.4,0.7,0.4,1.2v2.2h-0.7v-2.1c0-0.4-0.1-0.7-0.3-0.8
				c-0.2-0.2-0.4-0.3-0.7-0.3c-0.4,0-0.6,0.1-0.8,0.3c-0.2,0.2-0.3,0.5-0.3,0.9v2h-0.7v-2.1c0-0.4-0.1-0.7-0.3-0.8
				c-0.2-0.2-0.4-0.3-0.7-0.3c-0.4,0-0.6,0.1-0.8,0.3c-0.2,0.2-0.3,0.5-0.3,0.9v2h-0.7v-3.8h0.7v0.6c0.1-0.2,0.3-0.3,0.5-0.4
				c0.2-0.1,0.5-0.2,0.8-0.2c0.3,0,0.6,0.1,0.8,0.2c0.2,0.1,0.4,0.3,0.5,0.5c0.1-0.2,0.3-0.4,0.6-0.5
				C47.8,102.5,48.1,102.4,48.4,102.4L48.4,102.4z"/>
			<path class="st1" d="M51.3,100.9H52v5.4h-0.7V100.9z"/>
		</g>
		<g transform="scale(1 .99998)">
			<path class="st1" d="M25.9,128.1l-1.1-1.6c-0.1,0-0.2,0-0.3,0h-1.3v1.5h-0.7V123h2c0.7,0,1.2,0.2,1.5,0.5
				c0.4,0.3,0.6,0.7,0.6,1.3c0,0.4-0.1,0.7-0.3,1s-0.5,0.5-0.8,0.6l1.2,1.7L25.9,128.1z M24.5,125.9c0.5,0,0.8-0.1,1-0.3
				c0.2-0.2,0.4-0.5,0.4-0.8c0-0.4-0.1-0.6-0.4-0.8c-0.2-0.2-0.6-0.3-1-0.3h-1.2v2.3H24.5z"/>
			<path class="st1" d="M30.1,128.1c-0.5,0-1-0.1-1.4-0.3c-0.4-0.2-0.7-0.5-1-0.9c-0.2-0.4-0.3-0.8-0.3-1.3c0-0.5,0.1-0.9,0.3-1.3
				c0.2-0.4,0.6-0.7,1-0.9c0.4-0.2,0.9-0.3,1.4-0.3c0.5,0,1,0.1,1.4,0.3c0.4,0.2,0.7,0.5,1,0.9c0.2,0.4,0.3,0.8,0.3,1.3
				s-0.1,0.9-0.3,1.3c-0.2,0.4-0.6,0.7-1,0.9C31.1,128,30.6,128.1,30.1,128.1L30.1,128.1z M30.1,127.5c0.4,0,0.7-0.1,1-0.3
				c0.3-0.2,0.5-0.4,0.7-0.7c0.2-0.3,0.3-0.6,0.3-1c0-0.4-0.1-0.7-0.3-1c-0.2-0.3-0.4-0.5-0.7-0.7c-0.3-0.2-0.6-0.3-1-0.3
				c-0.4,0-0.7,0.1-1,0.3c-0.3,0.2-0.5,0.4-0.7,0.7c-0.2,0.3-0.3,0.6-0.3,1c0,0.4,0.1,0.7,0.3,1c0.2,0.3,0.4,0.5,0.7,0.7
				C29.4,127.4,29.7,127.5,30.1,127.5z"/>
			<path class="st1" d="M36.2,128.1c-0.5,0-1-0.1-1.4-0.3c-0.4-0.2-0.7-0.5-1-0.9c-0.2-0.4-0.3-0.8-0.3-1.3s0.1-0.9,0.3-1.3
				c0.2-0.4,0.6-0.7,1-0.9c0.4-0.2,0.9-0.3,1.4-0.3c0.5,0,1,0.1,1.4,0.3c0.4,0.2,0.7,0.5,1,0.9c0.2,0.4,0.3,0.8,0.3,1.3
				s-0.1,0.9-0.3,1.3c-0.2,0.4-0.6,0.7-1,0.9C37.1,128,36.7,128.1,36.2,128.1L36.2,128.1z M36.2,127.5c0.4,0,0.7-0.1,1-0.3
				c0.3-0.2,0.5-0.4,0.7-0.7c0.2-0.3,0.3-0.6,0.3-1c0-0.4-0.1-0.7-0.3-1c-0.2-0.3-0.4-0.5-0.7-0.7c-0.3-0.2-0.6-0.3-1-0.3
				c-0.4,0-0.7,0.1-1,0.3c-0.3,0.2-0.5,0.4-0.7,0.7c-0.2,0.3-0.3,0.6-0.3,1s0.1,0.7,0.3,1c0.2,0.3,0.4,0.5,0.7,0.7
				C35.5,127.4,35.8,127.5,36.2,127.5z"/>
			<path class="st1" d="M40.9,123.6h-1.7V123h4.2v0.6h-1.7v4.4h-0.7L40.9,123.6z"/>
		</g>
		<path class="st2" d="M12,122.3c-0.3,0-0.5,0.2-0.5,0.5v5.1c0,0.3,0.3,0.6,0.7,0.6h5.8c0.4,0,0.7-0.2,0.7-0.6v-4.2
			c0-0.3-0.3-0.6-0.7-0.6h-3.2c-0.4,0-0.7-0.8-1-0.8L12,122.3z"/>
		<path class="st3" d="M12.7,123.8h5.8c0.4,0,0.6,0.2,0.6,0.5l-0.5,3.6c0,0.3-0.4,0.5-0.7,0.5h-5.8c-0.4,0-0.6-0.2-0.6-0.5l0.5-3.6
			C12,124.1,12.3,123.8,12.7,123.8z"/>
		<g transform="scale(1 .99998)">
			<path class="st1" d="M32.7,178.2c0.4,0,0.7,0.1,1,0.2c0.3,0.2,0.5,0.4,0.7,0.7c0.2,0.3,0.3,0.6,0.3,1s-0.1,0.7-0.3,1
				c-0.2,0.3-0.4,0.5-0.7,0.7c-0.3,0.2-0.6,0.2-1,0.2c-0.3,0-0.5-0.1-0.8-0.2c-0.2-0.1-0.4-0.3-0.6-0.5v2h-0.7v-5.2h0.7v0.6
				c0.2-0.2,0.3-0.4,0.6-0.5C32.1,178.2,32.4,178.2,32.7,178.2L32.7,178.2z M32.6,181.5c0.2,0,0.5-0.1,0.7-0.2
				c0.2-0.1,0.4-0.3,0.5-0.5c0.1-0.2,0.2-0.4,0.2-0.7s-0.1-0.5-0.2-0.7c-0.1-0.2-0.3-0.4-0.5-0.5c-0.2-0.1-0.4-0.2-0.7-0.2
				c-0.2,0-0.5,0.1-0.7,0.2c-0.2,0.1-0.3,0.3-0.5,0.5c-0.1,0.2-0.2,0.4-0.2,0.7s0.1,0.5,0.2,0.7c0.1,0.2,0.3,0.4,0.5,0.5
				C32.2,181.4,32.4,181.5,32.6,181.5z"/>
			<path class="st1" d="M36.9,178.2c0.5,0,0.9,0.1,1.2,0.4c0.3,0.3,0.4,0.6,0.4,1.2v2.3h-0.7v-0.5c-0.1,0.2-0.3,0.3-0.5,0.4
				c-0.2,0.1-0.5,0.1-0.8,0.1c-0.4,0-0.8-0.1-1-0.3c-0.3-0.2-0.4-0.5-0.4-0.8c0-0.3,0.1-0.6,0.4-0.8c0.2-0.2,0.6-0.3,1.2-0.3h1.1
				v-0.1c0-0.3-0.1-0.5-0.3-0.7c-0.2-0.2-0.4-0.2-0.8-0.2c-0.2,0-0.4,0-0.7,0.1c-0.2,0.1-0.4,0.2-0.5,0.3l-0.3-0.5
				c0.2-0.2,0.4-0.3,0.7-0.4C36.3,178.2,36.6,178.2,36.9,178.2L36.9,178.2z M36.8,181.5c0.3,0,0.5-0.1,0.7-0.2
				c0.2-0.1,0.3-0.3,0.4-0.5v-0.5h-1.1c-0.6,0-0.9,0.2-0.9,0.6c0,0.2,0.1,0.3,0.2,0.5C36.3,181.5,36.5,181.5,36.8,181.5z"/>
			<path class="st1" d="M43.6,178.2v3.3c0,0.7-0.2,1.2-0.5,1.5c-0.3,0.3-0.8,0.5-1.5,0.5c-0.4,0-0.7-0.1-1-0.2
				c-0.3-0.1-0.6-0.2-0.8-0.4l0.3-0.5c0.2,0.2,0.4,0.3,0.7,0.4c0.3,0.1,0.5,0.1,0.8,0.1c0.4,0,0.8-0.1,1-0.3c0.2-0.2,0.3-0.5,0.3-1
				v-0.3c-0.2,0.2-0.4,0.3-0.6,0.4c-0.2,0.1-0.5,0.1-0.8,0.1c-0.4,0-0.7-0.1-1-0.2c-0.3-0.2-0.5-0.4-0.7-0.7c-0.2-0.3-0.3-0.6-0.3-1
				c0-0.4,0.1-0.7,0.3-1c0.2-0.3,0.4-0.5,0.7-0.7c0.3-0.2,0.6-0.2,1-0.2c0.3,0,0.6,0.1,0.8,0.2c0.3,0.1,0.5,0.3,0.6,0.5v-0.6
				L43.6,178.2z M41.6,181.3c0.3,0,0.5-0.1,0.7-0.2c0.2-0.1,0.4-0.3,0.5-0.4c0.1-0.2,0.2-0.4,0.2-0.7c0-0.4-0.1-0.7-0.4-0.9
				c-0.2-0.2-0.6-0.3-0.9-0.3c-0.4,0-0.7,0.1-1,0.3c-0.2,0.2-0.4,0.5-0.4,0.9c0,0.2,0.1,0.5,0.2,0.7c0.1,0.2,0.3,0.3,0.5,0.4
				C41.1,181.2,41.3,181.3,41.6,181.3z"/>
			<path class="st1" d="M48.3,180.1c0,0.1,0,0.1,0,0.2h-3.1c0,0.3,0.2,0.6,0.4,0.8c0.3,0.2,0.6,0.3,0.9,0.3c0.5,0,0.8-0.2,1.1-0.5
				l0.4,0.4c-0.2,0.2-0.4,0.4-0.7,0.5c-0.3,0.1-0.5,0.2-0.9,0.2c-0.4,0-0.8-0.1-1.1-0.2c-0.3-0.2-0.6-0.4-0.7-0.7
				c-0.2-0.3-0.3-0.6-0.3-1c0-0.4,0.1-0.7,0.2-1c0.2-0.3,0.4-0.5,0.7-0.7c0.3-0.2,0.6-0.3,1-0.3c0.4,0,0.7,0.1,1,0.3
				c0.3,0.2,0.5,0.4,0.7,0.7C48.3,179.4,48.3,179.8,48.3,180.1L48.3,180.1z M46.4,178.8c-0.3,0-0.6,0.1-0.8,0.3
				c-0.2,0.2-0.4,0.5-0.4,0.8h2.5c0-0.3-0.2-0.6-0.4-0.8C47.1,178.9,46.8,178.8,46.4,178.8L46.4,178.8z"/>
			<path class="st1" d="M50.4,182.1c-0.3,0-0.6,0-0.9-0.1c-0.3-0.1-0.5-0.2-0.7-0.3l0.3-0.5c0.2,0.1,0.4,0.2,0.6,0.3
				s0.5,0.1,0.7,0.1c0.6,0,0.9-0.2,0.9-0.5c0-0.1,0-0.2-0.1-0.3s-0.2-0.1-0.3-0.1c-0.1,0-0.3-0.1-0.5-0.1c-0.3,0-0.6-0.1-0.8-0.2
				c-0.2-0.1-0.4-0.2-0.5-0.3c-0.1-0.1-0.2-0.4-0.2-0.6c0-0.3,0.1-0.6,0.4-0.8c0.3-0.2,0.7-0.3,1.2-0.3c0.3,0,0.5,0,0.8,0.1
				c0.3,0.1,0.5,0.1,0.6,0.3l-0.3,0.5c-0.3-0.2-0.7-0.3-1.1-0.3c-0.3,0-0.5,0-0.7,0.1s-0.2,0.2-0.2,0.4c0,0.1,0,0.2,0.1,0.3
				c0.1,0.1,0.2,0.1,0.3,0.2c0.1,0,0.3,0.1,0.5,0.1c0.3,0.1,0.6,0.1,0.7,0.2c0.2,0.1,0.4,0.2,0.5,0.3c0.1,0.1,0.2,0.3,0.2,0.6
				c0,0.3-0.1,0.6-0.4,0.8C51.3,182,50.9,182.1,50.4,182.1L50.4,182.1z"/>
		</g>
		<path class="st2" d="M20.2,176.3c-0.3,0-0.5,0.2-0.5,0.5v5.1c0,0.3,0.3,0.6,0.7,0.6h5.8c0.4,0,0.7-0.2,0.7-0.6v-4.2
			c0-0.3-0.3-0.6-0.7-0.6H23c-0.4,0-0.7-0.8-1-0.8L20.2,176.3z"/>
		<path class="st3" d="M20.9,177.8h5.8c0.4,0,0.6,0.2,0.6,0.5l-0.5,3.6c0,0.3-0.4,0.5-0.7,0.5h-5.8c-0.4,0-0.6-0.2-0.6-0.5l0.5-3.6
			C20.2,178,20.5,177.8,20.9,177.8z"/>
		<g transform="scale(1 .99998)">
			<path class="st1" d="M32.7,200.2c0.5,0,0.9,0.1,1.2,0.4c0.3,0.3,0.4,0.7,0.4,1.2v2.2h-0.7V202c0-0.4-0.1-0.7-0.3-0.8
				c-0.2-0.2-0.4-0.3-0.8-0.3c-0.4,0-0.7,0.1-0.9,0.3c-0.2,0.2-0.3,0.5-0.3,0.9v2h-0.7v-3.8h0.7v0.6c0.1-0.2,0.3-0.3,0.6-0.5
				C32.1,200.3,32.4,200.2,32.7,200.2L32.7,200.2z"/>
			<path class="st1" d="M37,200.2c0.5,0,0.9,0.1,1.2,0.4c0.3,0.3,0.4,0.6,0.4,1.2v2.3H38v-0.5c-0.1,0.2-0.3,0.3-0.5,0.4
				c-0.2,0.1-0.5,0.1-0.8,0.1c-0.4,0-0.8-0.1-1-0.3c-0.3-0.2-0.4-0.5-0.4-0.8c0-0.3,0.1-0.6,0.4-0.8c0.2-0.2,0.6-0.3,1.2-0.3h1.1
				v-0.1c0-0.3-0.1-0.5-0.3-0.7s-0.4-0.2-0.8-0.2c-0.2,0-0.4,0-0.7,0.1c-0.2,0.1-0.4,0.2-0.5,0.3l-0.3-0.5c0.2-0.2,0.4-0.3,0.7-0.4
				C36.4,200.3,36.7,200.2,37,200.2L37,200.2z M36.8,203.6c0.3,0,0.5-0.1,0.7-0.2c0.2-0.1,0.3-0.3,0.4-0.5v-0.5h-1.1
				c-0.6,0-0.9,0.2-0.9,0.6c0,0.2,0.1,0.3,0.2,0.5S36.6,203.6,36.8,203.6z"/>
			<path class="st1" d="M43.2,200.3l-1.7,3.8h-0.7l-1.7-3.8h0.7l1.3,3.1l1.3-3.1H43.2z"/>
			<path class="st1" d="M43.8,204.1c-0.1,0-0.3,0-0.3-0.1c-0.1-0.1-0.1-0.2-0.1-0.4c0-0.1,0-0.3,0.1-0.3c0.1-0.1,0.2-0.1,0.3-0.1
				c0.1,0,0.2,0,0.3,0.1c0.1,0.1,0.1,0.2,0.1,0.4c0,0.1,0,0.3-0.1,0.4C44,204.1,43.9,204.1,43.8,204.1z"/>
			<path class="st1" d="M46.7,200.2c0.5,0,0.9,0.1,1.2,0.4c0.3,0.3,0.4,0.6,0.4,1.2v2.3h-0.7v-0.5c-0.1,0.2-0.3,0.3-0.5,0.4
				c-0.2,0.1-0.5,0.1-0.8,0.1c-0.4,0-0.8-0.1-1-0.3c-0.3-0.2-0.4-0.5-0.4-0.8c0-0.3,0.1-0.6,0.4-0.8c0.2-0.2,0.6-0.3,1.2-0.3h1.1
				v-0.1c0-0.3-0.1-0.5-0.3-0.7c-0.2-0.2-0.4-0.2-0.8-0.2c-0.2,0-0.4,0-0.7,0.1c-0.2,0.1-0.4,0.2-0.5,0.3l-0.3-0.5
				c0.2-0.2,0.4-0.3,0.7-0.4C46.1,200.3,46.4,200.2,46.7,200.2L46.7,200.2z M46.6,203.6c0.3,0,0.5-0.1,0.7-0.2
				c0.2-0.1,0.3-0.3,0.4-0.5v-0.5h-1.1c-0.6,0-0.9,0.2-0.9,0.6c0,0.2,0.1,0.3,0.2,0.5S46.3,203.6,46.6,203.6L46.6,203.6z"/>
			<path class="st1" d="M53.3,198.7v5.4h-0.7v-0.6c-0.2,0.2-0.3,0.4-0.6,0.5c-0.2,0.1-0.5,0.2-0.8,0.2c-0.4,0-0.7-0.1-1-0.2
				s-0.5-0.4-0.7-0.7c-0.2-0.3-0.2-0.6-0.2-1c0-0.4,0.1-0.7,0.2-1c0.2-0.3,0.4-0.5,0.7-0.7c0.3-0.2,0.6-0.2,1-0.2
				c0.3,0,0.5,0.1,0.8,0.2c0.2,0.1,0.4,0.3,0.6,0.5v-2.1L53.3,198.7z M51.3,203.5c0.2,0,0.5-0.1,0.7-0.2c0.2-0.1,0.4-0.3,0.5-0.5
				c0.1-0.2,0.2-0.4,0.2-0.7c0-0.3-0.1-0.5-0.2-0.7c-0.1-0.2-0.3-0.4-0.5-0.5c-0.2-0.1-0.4-0.2-0.7-0.2c-0.2,0-0.5,0.1-0.7,0.2
				c-0.2,0.1-0.3,0.3-0.5,0.5c-0.1,0.2-0.2,0.4-0.2,0.7c0,0.3,0.1,0.5,0.2,0.7c0.1,0.2,0.3,0.4,0.5,0.5
				C50.9,203.5,51.1,203.5,51.3,203.5z"/>
			<path class="st1" d="M56.3,204.1c-0.4,0-0.7-0.1-1-0.3c-0.3-0.2-0.5-0.4-0.7-0.7c-0.2-0.3-0.3-0.6-0.3-1c0-0.4,0.1-0.7,0.3-1
				c0.2-0.3,0.4-0.5,0.7-0.7c0.3-0.2,0.6-0.3,1-0.3c0.4,0,0.7,0.1,1,0.3c0.3,0.2,0.5,0.4,0.7,0.7c0.2,0.3,0.3,0.6,0.3,1
				c0,0.4-0.1,0.7-0.3,1c-0.2,0.3-0.4,0.5-0.7,0.7C57,204.1,56.6,204.1,56.3,204.1z M56.3,203.5c0.2,0,0.5-0.1,0.7-0.2
				c0.2-0.1,0.4-0.3,0.5-0.5c0.1-0.2,0.2-0.4,0.2-0.7c0-0.3-0.1-0.5-0.2-0.7c-0.1-0.2-0.3-0.4-0.5-0.5c-0.2-0.1-0.4-0.2-0.7-0.2
				c-0.2,0-0.5,0.1-0.7,0.2c-0.2,0.1-0.3,0.3-0.5,0.5c-0.1,0.2-0.2,0.4-0.2,0.7s0.1,0.5,0.2,0.7c0.1,0.2,0.3,0.4,0.5,0.5
				C55.8,203.5,56,203.5,56.3,203.5z"/>
			<path class="st1" d="M60.9,204.1c-0.4,0-0.7-0.1-1-0.3c-0.3-0.2-0.5-0.4-0.7-0.7c-0.2-0.3-0.3-0.6-0.3-1c0-0.4,0.1-0.7,0.3-1
				c0.2-0.3,0.4-0.5,0.7-0.7c0.3-0.2,0.7-0.3,1-0.3c0.3,0,0.7,0.1,0.9,0.2c0.3,0.1,0.5,0.3,0.6,0.6l-0.5,0.3
				c-0.1-0.2-0.3-0.3-0.4-0.4c-0.2-0.1-0.4-0.1-0.6-0.1c-0.3,0-0.5,0.1-0.7,0.2c-0.2,0.1-0.4,0.3-0.5,0.5c-0.1,0.2-0.2,0.4-0.2,0.7
				c0,0.3,0.1,0.5,0.2,0.7c0.1,0.2,0.3,0.4,0.5,0.5c0.2,0.1,0.4,0.2,0.7,0.2c0.2,0,0.4,0,0.6-0.1s0.3-0.2,0.4-0.4l0.5,0.3
				c-0.1,0.3-0.4,0.5-0.6,0.6C61.5,204.1,61.2,204.1,60.9,204.1L60.9,204.1z"/>
		</g>
		<path class="st4" d="M21.1,196.9c-0.3,0-0.5,0.3-0.5,0.8v6.1c0,0.4,0.2,0.8,0.5,0.8h4.9c0.3,0,0.5-0.3,0.5-0.8v-5.7
			c-0.9,0.2-1.3-0.3-1.2-1.2L21.1,196.9z"/>
	</g>
	<g>
		<path class="st5" d="M25.3,196.9l1.1,1.2"/>
		<g>
			<path class="st7" d="M21.4,198.9h3.1"/>
			<path class="st7" d="M22,199.9h1.5"/>
			<path class="st7" d="M22,200.9h1.5"/>
			<path class="st7" d="M22,201.9h1.5"/>
			<path class="st7" d="M22,202.8h1.5"/>
		</g>
	</g>
	<g transform="scale(1 .99998)">
		<path class="st1" d="M38.2,193.3h3.6v0.4h-3.6V193.3z"/>
		<path class="st1" d="M44.5,189.4c0.4,0,0.7,0.1,1,0.2c0.3,0.2,0.5,0.4,0.7,0.7c0.2,0.3,0.3,0.6,0.3,1s-0.1,0.7-0.3,1
			c-0.2,0.3-0.4,0.5-0.7,0.7c-0.3,0.2-0.6,0.2-1,0.2c-0.3,0-0.5-0.1-0.8-0.2c-0.2-0.1-0.4-0.3-0.6-0.5v2h-0.7v-5.2h0.7v0.6
			c0.2-0.2,0.3-0.4,0.6-0.5C44,189.5,44.2,189.4,44.5,189.4L44.5,189.4z M44.4,192.7c0.2,0,0.5-0.1,0.7-0.2c0.2-0.1,0.4-0.3,0.5-0.5
			c0.1-0.2,0.2-0.4,0.2-0.7s-0.1-0.5-0.2-0.7c-0.1-0.2-0.3-0.4-0.5-0.5c-0.2-0.1-0.4-0.2-0.7-0.2c-0.2,0-0.5,0.1-0.7,0.2
			c-0.2,0.1-0.3,0.3-0.5,0.5c-0.1,0.2-0.2,0.4-0.2,0.7s0.1,0.5,0.2,0.7c0.1,0.2,0.3,0.4,0.5,0.5C44,192.7,44.2,192.7,44.4,192.7z"/>
		<path class="st1" d="M48.8,189.4c0.5,0,0.9,0.1,1.2,0.4c0.3,0.3,0.4,0.6,0.4,1.2v2.3h-0.7v-0.5c-0.1,0.2-0.3,0.3-0.5,0.4
			c-0.2,0.1-0.5,0.1-0.8,0.1c-0.4,0-0.8-0.1-1-0.3c-0.3-0.2-0.4-0.5-0.4-0.8s0.1-0.6,0.4-0.8c0.2-0.2,0.6-0.3,1.2-0.3h1.1V191
			c0-0.3-0.1-0.5-0.3-0.7c-0.2-0.2-0.4-0.2-0.8-0.2c-0.2,0-0.4,0-0.7,0.1c-0.2,0.1-0.4,0.2-0.5,0.3l-0.3-0.5
			c0.2-0.2,0.4-0.3,0.7-0.4C48.2,189.5,48.4,189.4,48.8,189.4L48.8,189.4z M48.6,192.8c0.3,0,0.5-0.1,0.7-0.2
			c0.2-0.1,0.3-0.3,0.4-0.5v-0.5h-1.1c-0.6,0-0.9,0.2-0.9,0.6c0,0.2,0.1,0.3,0.2,0.5C48.1,192.8,48.3,192.8,48.6,192.8L48.6,192.8z"
			/>
		<path class="st1" d="M52.3,190.1c0.1-0.2,0.3-0.4,0.5-0.5c0.2-0.1,0.5-0.2,0.9-0.2v0.7c0,0-0.1,0-0.2,0c-0.4,0-0.7,0.1-0.9,0.3
			c-0.2,0.2-0.3,0.5-0.3,1v1.9h-0.7v-3.8h0.7L52.3,190.1z"/>
		<path class="st1" d="M56.9,193.1c-0.1,0.1-0.2,0.2-0.4,0.2c-0.1,0-0.3,0.1-0.5,0.1c-0.4,0-0.7-0.1-0.9-0.3
			c-0.2-0.2-0.3-0.5-0.3-0.9V190h-0.7v-0.6h0.7v-0.8h0.7v0.8h1.1v0.6h-1.1v2.1c0,0.2,0.1,0.4,0.2,0.5c0.1,0.1,0.3,0.2,0.4,0.2
			c0.2,0,0.4-0.1,0.5-0.2L56.9,193.1z"/>
		<path class="st1" d="M57.8,189.5h0.7v3.8h-0.7V189.5z M58.1,188.7c-0.1,0-0.2,0-0.3-0.1c-0.1-0.1-0.1-0.2-0.1-0.3
			c0-0.1,0-0.2,0.1-0.3c0.1-0.1,0.2-0.1,0.3-0.1c0.1,0,0.2,0,0.3,0.1c0.1,0.1,0.1,0.2,0.1,0.3c0,0.1,0,0.2-0.1,0.3
			C58.3,188.7,58.2,188.7,58.1,188.7L58.1,188.7z"/>
		<path class="st1" d="M61.2,189.4c0.5,0,0.9,0.1,1.2,0.4c0.3,0.3,0.4,0.6,0.4,1.2v2.3h-0.7v-0.5c-0.1,0.2-0.3,0.3-0.5,0.4
			c-0.2,0.1-0.5,0.1-0.8,0.1c-0.4,0-0.8-0.1-1-0.3c-0.3-0.2-0.4-0.5-0.4-0.8s0.1-0.6,0.4-0.8c0.2-0.2,0.6-0.3,1.2-0.3h1.1V191
			c0-0.3-0.1-0.5-0.3-0.7s-0.4-0.2-0.8-0.2c-0.2,0-0.4,0-0.7,0.1c-0.2,0.1-0.4,0.2-0.5,0.3l-0.3-0.5c0.2-0.2,0.4-0.3,0.7-0.4
			C60.6,189.5,60.9,189.4,61.2,189.4L61.2,189.4z M61,192.8c0.3,0,0.5-0.1,0.7-0.2c0.2-0.1,0.3-0.3,0.4-0.5v-0.5H61
			c-0.6,0-0.9,0.2-0.9,0.6c0,0.2,0.1,0.3,0.2,0.5C60.5,192.8,60.7,192.8,61,192.8L61,192.8z"/>
		<path class="st1" d="M64.1,187.9h0.7v5.4h-0.7V187.9z"/>
		<path class="st1" d="M67.2,193.4c-0.3,0-0.6,0-0.9-0.1c-0.3-0.1-0.5-0.2-0.7-0.3l0.3-0.5c0.2,0.1,0.4,0.2,0.6,0.3
			c0.2,0.1,0.5,0.1,0.7,0.1c0.6,0,0.9-0.2,0.9-0.5c0-0.1,0-0.2-0.1-0.3c-0.1-0.1-0.2-0.1-0.3-0.1c-0.1,0-0.3-0.1-0.5-0.1
			c-0.3,0-0.6-0.1-0.8-0.2c-0.2-0.1-0.4-0.2-0.5-0.3s-0.2-0.4-0.2-0.6c0-0.3,0.1-0.6,0.4-0.8c0.3-0.2,0.7-0.3,1.2-0.3
			c0.3,0,0.5,0,0.8,0.1c0.3,0.1,0.5,0.1,0.6,0.3l-0.3,0.5c-0.3-0.2-0.7-0.3-1.1-0.3c-0.3,0-0.5,0-0.7,0.1c-0.2,0.1-0.2,0.2-0.2,0.4
			c0,0.1,0,0.2,0.1,0.3s0.2,0.1,0.3,0.2c0.1,0,0.3,0.1,0.5,0.1c0.3,0.1,0.6,0.1,0.7,0.2c0.2,0.1,0.4,0.2,0.5,0.3
			c0.1,0.1,0.2,0.3,0.2,0.6c0,0.3-0.1,0.6-0.4,0.8C68.1,193.2,67.7,193.4,67.2,193.4L67.2,193.4z"/>
	</g>
	<g>
		<path class="st2" d="M28.4,187.6c-0.3,0-0.5,0.2-0.5,0.5v5.1c0,0.3,0.3,0.6,0.7,0.6h5.8c0.4,0,0.7-0.2,0.7-0.6v-4.2
			c0-0.3-0.3-0.6-0.7-0.6h-3.2c-0.4,0-0.7-0.8-1-0.8L28.4,187.6z"/>
		<path class="st3" d="M29.1,189.1h5.8c0.4,0,0.6,0.2,0.6,0.5l-0.5,3.6c0,0.3-0.4,0.5-0.7,0.5h-5.8c-0.4,0-0.6-0.2-0.6-0.5l0.5-3.6
			C28.4,189.3,28.7,189.1,29.1,189.1z"/>
	</g>
	<g>
		<g transform="scale(1 .99998)">
			<path class="st1" d="M26,210.8v3.8h-0.7V214c-0.1,0.2-0.3,0.4-0.6,0.5c-0.2,0.1-0.5,0.2-0.7,0.2c-0.5,0-0.9-0.1-1.2-0.4
				c-0.3-0.3-0.4-0.7-0.4-1.3v-2.2h0.7v2.1c0,0.4,0.1,0.7,0.3,0.8c0.2,0.2,0.4,0.3,0.8,0.3c0.4,0,0.7-0.1,0.9-0.3
				c0.2-0.2,0.3-0.5,0.3-0.9v-2L26,210.8z"/>
			<path class="st1" d="M28.5,214.6c-0.3,0-0.6,0-0.9-0.1c-0.3-0.1-0.5-0.2-0.7-0.3l0.3-0.5c0.2,0.1,0.4,0.2,0.6,0.3
				c0.2,0.1,0.5,0.1,0.7,0.1c0.6,0,0.9-0.2,0.9-0.5c0-0.1,0-0.2-0.1-0.3s-0.2-0.1-0.3-0.1c-0.1,0-0.3-0.1-0.5-0.1
				c-0.3,0-0.6-0.1-0.8-0.2c-0.2-0.1-0.4-0.2-0.5-0.3c-0.1-0.1-0.2-0.4-0.2-0.6c0-0.3,0.1-0.6,0.4-0.8c0.3-0.2,0.7-0.3,1.2-0.3
				c0.3,0,0.5,0,0.8,0.1c0.3,0.1,0.5,0.1,0.6,0.3l-0.3,0.5c-0.3-0.2-0.7-0.3-1.1-0.3c-0.3,0-0.5,0-0.7,0.1s-0.2,0.2-0.2,0.4
				c0,0.1,0,0.2,0.1,0.3c0.1,0.1,0.2,0.1,0.3,0.2c0.1,0,0.3,0.1,0.5,0.1c0.3,0.1,0.6,0.1,0.7,0.2c0.2,0.1,0.4,0.2,0.5,0.3
				c0.1,0.1,0.2,0.3,0.2,0.6c0,0.3-0.1,0.6-0.4,0.8C29.4,214.5,29,214.6,28.5,214.6L28.5,214.6z"/>
			<path class="st1" d="M34.5,212.7c0,0.1,0,0.1,0,0.2h-3.1c0,0.3,0.2,0.6,0.4,0.8c0.3,0.2,0.6,0.3,0.9,0.3c0.5,0,0.8-0.2,1.1-0.5
				l0.4,0.4c-0.2,0.2-0.4,0.4-0.7,0.5c-0.3,0.1-0.5,0.2-0.9,0.2c-0.4,0-0.8-0.1-1.1-0.2c-0.3-0.2-0.6-0.4-0.7-0.7
				c-0.2-0.3-0.3-0.6-0.3-1c0-0.4,0.1-0.7,0.2-1c0.2-0.3,0.4-0.5,0.7-0.7c0.3-0.2,0.6-0.3,1-0.3s0.7,0.1,1,0.3
				c0.3,0.2,0.5,0.4,0.7,0.7C34.4,212,34.5,212.3,34.5,212.7L34.5,212.7z M32.6,211.3c-0.3,0-0.6,0.1-0.8,0.3
				c-0.2,0.2-0.4,0.5-0.4,0.8h2.5c0-0.3-0.2-0.6-0.4-0.8C33.2,211.4,32.9,211.3,32.6,211.3L32.6,211.3z"/>
			<path class="st1" d="M36.1,211.4c0.1-0.2,0.3-0.4,0.5-0.5c0.2-0.1,0.5-0.2,0.9-0.2v0.7c0,0-0.1,0-0.2,0c-0.4,0-0.7,0.1-0.9,0.3
				c-0.2,0.2-0.3,0.5-0.3,1v1.9h-0.7v-3.8h0.7L36.1,211.4z"/>
			<path class="st1" d="M38.1,212.3H40v0.6h-1.9V212.3z"/>
			<path class="st1" d="M43.1,210.7c0.5,0,0.9,0.1,1.2,0.4c0.3,0.3,0.4,0.7,0.4,1.2v2.2H44v-2.1c0-0.4-0.1-0.7-0.3-0.8
				c-0.2-0.2-0.4-0.3-0.8-0.3c-0.4,0-0.7,0.1-0.9,0.3c-0.2,0.2-0.3,0.5-0.3,0.9v2h-0.7v-3.8h0.7v0.6c0.1-0.2,0.3-0.3,0.6-0.5
				C42.5,210.8,42.8,210.7,43.1,210.7L43.1,210.7z"/>
			<path class="st1" d="M47.4,210.7c0.5,0,0.9,0.1,1.2,0.4c0.3,0.3,0.4,0.6,0.4,1.2v2.3h-0.7v-0.5c-0.1,0.2-0.3,0.3-0.5,0.4
				c-0.2,0.1-0.5,0.1-0.8,0.1c-0.4,0-0.8-0.1-1-0.3c-0.3-0.2-0.4-0.5-0.4-0.8c0-0.3,0.1-0.6,0.4-0.8c0.2-0.2,0.6-0.3,1.2-0.3h1.1
				v-0.1c0-0.3-0.1-0.5-0.3-0.7c-0.2-0.2-0.4-0.2-0.8-0.2c-0.2,0-0.4,0-0.7,0.1c-0.2,0.1-0.4,0.2-0.5,0.3l-0.3-0.5
				c0.2-0.2,0.4-0.3,0.7-0.4C46.8,210.8,47.1,210.7,47.4,210.7L47.4,210.7z M47.2,214.1c0.3,0,0.5-0.1,0.7-0.2
				c0.2-0.1,0.3-0.3,0.4-0.5v-0.5h-1.1c-0.6,0-0.9,0.2-0.9,0.6c0,0.2,0.1,0.3,0.2,0.5C46.8,214.1,47,214.1,47.2,214.1L47.2,214.1z"
				/>
			<path class="st1" d="M55.1,210.7c0.5,0,0.9,0.1,1.1,0.4c0.3,0.3,0.4,0.7,0.4,1.2v2.2H56v-2.1c0-0.4-0.1-0.7-0.3-0.8
				c-0.2-0.2-0.4-0.3-0.7-0.3c-0.4,0-0.6,0.1-0.8,0.3c-0.2,0.2-0.3,0.5-0.3,0.9v2h-0.7v-2.1c0-0.4-0.1-0.7-0.3-0.8
				c-0.2-0.2-0.4-0.3-0.7-0.3c-0.4,0-0.6,0.1-0.8,0.3c-0.2,0.2-0.3,0.5-0.3,0.9v2h-0.7v-3.8H51v0.6c0.1-0.2,0.3-0.3,0.5-0.4
				c0.2-0.1,0.5-0.2,0.8-0.2c0.3,0,0.6,0.1,0.8,0.2c0.2,0.1,0.4,0.3,0.5,0.5c0.1-0.2,0.3-0.4,0.6-0.5
				C54.5,210.8,54.8,210.7,55.1,210.7L55.1,210.7z"/>
			<path class="st1" d="M61.5,212.7c0,0.1,0,0.1,0,0.2h-3.1c0,0.3,0.2,0.6,0.4,0.8c0.3,0.2,0.6,0.3,0.9,0.3c0.5,0,0.8-0.2,1.1-0.5
				l0.4,0.4c-0.2,0.2-0.4,0.4-0.7,0.5c-0.3,0.1-0.5,0.2-0.9,0.2c-0.4,0-0.8-0.1-1.1-0.2c-0.3-0.2-0.6-0.4-0.7-0.7
				c-0.2-0.3-0.3-0.6-0.3-1c0-0.4,0.1-0.7,0.2-1c0.2-0.3,0.4-0.5,0.7-0.7c0.3-0.2,0.6-0.3,1-0.3c0.4,0,0.7,0.1,1,0.3
				c0.3,0.2,0.5,0.4,0.7,0.7C61.4,212,61.5,212.3,61.5,212.7L61.5,212.7z M59.6,211.3c-0.3,0-0.6,0.1-0.8,0.3
				c-0.2,0.2-0.4,0.5-0.4,0.8h2.5c0-0.3-0.2-0.6-0.4-0.8C60.2,211.4,59.9,211.3,59.6,211.3L59.6,211.3z"/>
			<path class="st1" d="M66,209.2v5.4h-0.7V214c-0.2,0.2-0.3,0.4-0.6,0.5c-0.2,0.1-0.5,0.2-0.8,0.2c-0.4,0-0.7-0.1-1-0.2
				c-0.3-0.2-0.5-0.4-0.7-0.7c-0.2-0.3-0.2-0.6-0.2-1s0.1-0.7,0.2-1c0.2-0.3,0.4-0.5,0.7-0.7s0.6-0.2,1-0.2c0.3,0,0.5,0.1,0.8,0.2
				c0.2,0.1,0.4,0.3,0.6,0.5v-2.1L66,209.2z M64.1,214c0.2,0,0.5-0.1,0.7-0.2c0.2-0.1,0.4-0.3,0.5-0.5c0.1-0.2,0.2-0.4,0.2-0.7
				c0-0.3-0.1-0.5-0.2-0.7c-0.1-0.2-0.3-0.4-0.5-0.5c-0.2-0.1-0.4-0.2-0.7-0.2c-0.2,0-0.5,0.1-0.7,0.2c-0.2,0.1-0.3,0.3-0.5,0.5
				c-0.1,0.2-0.2,0.4-0.2,0.7c0,0.3,0.1,0.5,0.2,0.7c0.1,0.2,0.3,0.4,0.5,0.5C63.6,214,63.8,214,64.1,214z"/>
			<path class="st1" d="M67.1,212.3H69v0.6h-1.9V212.3z"/>
			<path class="st1" d="M74.9,210.7c0.5,0,0.9,0.1,1.1,0.4c0.3,0.3,0.4,0.7,0.4,1.2v2.2h-0.7v-2.1c0-0.4-0.1-0.7-0.3-0.8
				c-0.2-0.2-0.4-0.3-0.7-0.3c-0.4,0-0.6,0.1-0.8,0.3c-0.2,0.2-0.3,0.5-0.3,0.9v2h-0.7v-2.1c0-0.4-0.1-0.7-0.3-0.8
				c-0.2-0.2-0.4-0.3-0.7-0.3c-0.4,0-0.6,0.1-0.8,0.3c-0.2,0.2-0.3,0.5-0.3,0.9v2h-0.7v-3.8h0.7v0.6c0.1-0.2,0.3-0.3,0.5-0.4
				c0.2-0.1,0.5-0.2,0.8-0.2c0.3,0,0.6,0.1,0.8,0.2c0.2,0.1,0.4,0.3,0.5,0.5c0.1-0.2,0.3-0.4,0.6-0.5
				C74.3,210.8,74.6,210.7,74.9,210.7L74.9,210.7z"/>
			<path class="st1" d="M79.4,214.6c-0.4,0-0.7-0.1-1-0.3c-0.3-0.2-0.5-0.4-0.7-0.7c-0.2-0.3-0.3-0.6-0.3-1c0-0.4,0.1-0.7,0.3-1
				c0.2-0.3,0.4-0.5,0.7-0.7c0.3-0.2,0.6-0.3,1-0.3c0.4,0,0.7,0.1,1,0.3c0.3,0.2,0.5,0.4,0.7,0.7c0.2,0.3,0.3,0.6,0.3,1
				c0,0.4-0.1,0.7-0.3,1c-0.2,0.3-0.4,0.5-0.7,0.7C80.1,214.6,79.8,214.6,79.4,214.6z M79.4,214c0.2,0,0.5-0.1,0.7-0.2
				c0.2-0.1,0.4-0.3,0.5-0.5c0.1-0.2,0.2-0.4,0.2-0.7c0-0.3-0.1-0.5-0.2-0.7c-0.1-0.2-0.3-0.4-0.5-0.5c-0.2-0.1-0.4-0.2-0.7-0.2
				c-0.2,0-0.5,0.1-0.7,0.2c-0.2,0.1-0.3,0.3-0.5,0.5c-0.1,0.2-0.2,0.4-0.2,0.7c0,0.3,0.1,0.5,0.2,0.7c0.1,0.2,0.3,0.4,0.5,0.5
				C78.9,214,79.2,214,79.4,214z"/>
			<path class="st1" d="M86,209.2v5.4h-0.7V214c-0.2,0.2-0.3,0.4-0.6,0.5c-0.2,0.1-0.5,0.2-0.8,0.2c-0.4,0-0.7-0.1-1-0.2
				c-0.3-0.2-0.5-0.4-0.7-0.7c-0.2-0.3-0.2-0.6-0.2-1s0.1-0.7,0.2-1c0.2-0.3,0.4-0.5,0.7-0.7s0.6-0.2,1-0.2c0.3,0,0.5,0.1,0.8,0.2
				c0.2,0.1,0.4,0.3,0.6,0.5v-2.1L86,209.2z M84,214c0.2,0,0.5-0.1,0.7-0.2c0.2-0.1,0.4-0.3,0.5-0.5c0.1-0.2,0.2-0.4,0.2-0.7
				c0-0.3-0.1-0.5-0.2-0.7c-0.1-0.2-0.3-0.4-0.5-0.5c-0.2-0.1-0.4-0.2-0.7-0.2c-0.2,0-0.5,0.1-0.7,0.2c-0.2,0.1-0.3,0.3-0.5,0.5
				c-0.1,0.2-0.2,0.4-0.2,0.7c0,0.3,0.1,0.5,0.2,0.7c0.1,0.2,0.3,0.4,0.5,0.5C83.5,214,83.8,214,84,214z"/>
			<path class="st1" d="M90.9,210.8v3.8h-0.7V214c-0.1,0.2-0.3,0.4-0.6,0.5c-0.2,0.1-0.5,0.2-0.7,0.2c-0.5,0-0.9-0.1-1.2-0.4
				c-0.3-0.3-0.4-0.7-0.4-1.3v-2.2h0.7v2.1c0,0.4,0.1,0.7,0.3,0.8c0.2,0.2,0.4,0.3,0.8,0.3c0.4,0,0.7-0.1,0.9-0.3s0.3-0.5,0.3-0.9
				v-2L90.9,210.8z"/>
			<path class="st1" d="M92.2,209.2h0.7v5.4h-0.7V209.2z"/>
			<path class="st1" d="M97.7,212.7c0,0.1,0,0.1,0,0.2h-3.1c0,0.3,0.2,0.6,0.4,0.8c0.3,0.2,0.6,0.3,0.9,0.3c0.5,0,0.8-0.2,1.1-0.5
				l0.4,0.4c-0.2,0.2-0.4,0.4-0.7,0.5c-0.3,0.1-0.5,0.2-0.9,0.2c-0.4,0-0.8-0.1-1.1-0.2c-0.3-0.2-0.6-0.4-0.7-0.7
				c-0.2-0.3-0.3-0.6-0.3-1c0-0.4,0.1-0.7,0.2-1c0.2-0.3,0.4-0.5,0.7-0.7c0.3-0.2,0.6-0.3,1-0.3s0.7,0.1,1,0.3
				c0.3,0.2,0.5,0.4,0.7,0.7C97.6,212,97.7,212.3,97.7,212.7L97.7,212.7z M95.8,211.3c-0.3,0-0.6,0.1-0.8,0.3
				c-0.2,0.2-0.4,0.5-0.4,0.8H97c0-0.3-0.2-0.6-0.4-0.8C96.4,211.4,96.1,211.3,95.8,211.3L95.8,211.3z"/>
		</g>
		<path class="st2" d="M12,208.9c-0.3,0-0.5,0.2-0.5,0.5v5.1c0,0.3,0.3,0.6,0.7,0.6h5.8c0.4,0,0.7-0.2,0.7-0.6v-4.2
			c0-0.3-0.3-0.6-0.7-0.6h-3.2c-0.4,0-0.7-0.8-1-0.8L12,208.9z"/>
		<path class="st3" d="M12.7,210.4h5.8c0.4,0,0.6,0.2,0.6,0.5l-0.5,3.6c0,0.3-0.4,0.5-0.7,0.5h-5.8c-0.4,0-0.6-0.2-0.6-0.5l0.5-3.6
			C12,210.6,12.3,210.4,12.7,210.4z"/>
		<g transform="scale(1 .99998)">
			<path class="st1" d="M32.1,221.2c0.5,0,0.9,0.1,1.2,0.4c0.3,0.3,0.4,0.6,0.4,1.2v2.3H33v-0.5c-0.1,0.2-0.3,0.3-0.5,0.4
				c-0.2,0.1-0.5,0.1-0.8,0.1c-0.4,0-0.8-0.1-1-0.3c-0.3-0.2-0.4-0.5-0.4-0.8s0.1-0.6,0.4-0.8c0.2-0.2,0.6-0.3,1.2-0.3H33v-0.1
				c0-0.3-0.1-0.5-0.3-0.7c-0.2-0.2-0.4-0.2-0.8-0.2c-0.2,0-0.4,0-0.7,0.1c-0.2,0.1-0.4,0.2-0.5,0.3l-0.3-0.5
				c0.2-0.2,0.4-0.3,0.7-0.4C31.5,221.3,31.7,221.2,32.1,221.2L32.1,221.2z M31.9,224.6c0.3,0,0.5-0.1,0.7-0.2
				c0.2-0.1,0.3-0.3,0.4-0.5v-0.5h-1.1c-0.6,0-0.9,0.2-0.9,0.6c0,0.2,0.1,0.3,0.2,0.5S31.6,224.6,31.9,224.6L31.9,224.6z"/>
			<path class="st1" d="M36.1,225.1c-0.3,0-0.6,0-0.9-0.1c-0.3-0.1-0.5-0.2-0.7-0.3l0.3-0.5c0.2,0.1,0.4,0.2,0.6,0.3
				c0.2,0.1,0.5,0.1,0.7,0.1c0.6,0,0.9-0.2,0.9-0.5c0-0.1,0-0.2-0.1-0.3s-0.2-0.1-0.3-0.1c-0.1,0-0.3-0.1-0.5-0.1
				c-0.3,0-0.6-0.1-0.8-0.2c-0.2-0.1-0.4-0.2-0.5-0.3c-0.1-0.1-0.2-0.4-0.2-0.6c0-0.3,0.1-0.6,0.4-0.8c0.3-0.2,0.7-0.3,1.2-0.3
				c0.3,0,0.5,0,0.8,0.1c0.3,0.1,0.5,0.1,0.6,0.3l-0.3,0.5c-0.3-0.2-0.7-0.3-1.1-0.3c-0.3,0-0.5,0-0.7,0.1c-0.2,0.1-0.2,0.2-0.2,0.4
				c0,0.1,0,0.2,0.1,0.3c0.1,0.1,0.2,0.1,0.3,0.2c0.1,0,0.3,0.1,0.5,0.1c0.3,0.1,0.6,0.1,0.7,0.2c0.2,0.1,0.4,0.2,0.5,0.3
				c0.1,0.1,0.2,0.3,0.2,0.6c0,0.3-0.1,0.6-0.4,0.8C37,225,36.6,225.1,36.1,225.1L36.1,225.1z"/>
			<path class="st1" d="M39.7,225.1c-0.3,0-0.6,0-0.9-0.1c-0.3-0.1-0.5-0.2-0.7-0.3l0.3-0.5c0.2,0.1,0.4,0.2,0.6,0.3
				c0.2,0.1,0.5,0.1,0.7,0.1c0.6,0,0.9-0.2,0.9-0.5c0-0.1,0-0.2-0.1-0.3s-0.2-0.1-0.3-0.1c-0.1,0-0.3-0.1-0.5-0.1
				c-0.3,0-0.6-0.1-0.8-0.2c-0.2-0.1-0.4-0.2-0.5-0.3c-0.1-0.1-0.2-0.4-0.2-0.6c0-0.3,0.1-0.6,0.4-0.8c0.3-0.2,0.7-0.3,1.2-0.3
				c0.3,0,0.5,0,0.8,0.1c0.3,0.1,0.5,0.1,0.6,0.3l-0.3,0.5c-0.3-0.2-0.7-0.3-1.1-0.3c-0.3,0-0.5,0-0.7,0.1c-0.2,0.1-0.2,0.2-0.2,0.4
				c0,0.1,0,0.2,0.1,0.3c0.1,0.1,0.2,0.1,0.3,0.2c0.1,0,0.3,0.1,0.5,0.1c0.3,0.1,0.6,0.1,0.7,0.2c0.2,0.1,0.4,0.2,0.5,0.3
				c0.1,0.1,0.2,0.3,0.2,0.6c0,0.3-0.1,0.6-0.4,0.8C40.6,225,40.2,225.1,39.7,225.1L39.7,225.1z"/>
			<path class="st1" d="M45.7,223.2c0,0.1,0,0.1,0,0.2h-3.1c0,0.3,0.2,0.6,0.4,0.8c0.3,0.2,0.6,0.3,0.9,0.3c0.5,0,0.8-0.2,1.1-0.5
				l0.4,0.4c-0.2,0.2-0.4,0.4-0.7,0.5c-0.3,0.1-0.5,0.2-0.9,0.2c-0.4,0-0.8-0.1-1.1-0.2c-0.3-0.2-0.6-0.4-0.7-0.7
				c-0.2-0.3-0.3-0.6-0.3-1c0-0.4,0.1-0.7,0.2-1c0.2-0.3,0.4-0.5,0.7-0.7c0.3-0.2,0.6-0.3,1-0.3s0.7,0.1,1,0.3
				c0.3,0.2,0.5,0.4,0.7,0.7C45.6,222.5,45.7,222.8,45.7,223.2L45.7,223.2z M43.8,221.8c-0.3,0-0.6,0.1-0.8,0.3
				c-0.2,0.2-0.4,0.5-0.4,0.8H45c0-0.3-0.2-0.6-0.4-0.8C44.4,221.9,44.1,221.8,43.8,221.8L43.8,221.8z"/>
			<path class="st1" d="M48.8,224.9c-0.1,0.1-0.2,0.2-0.4,0.2c-0.1,0-0.3,0.1-0.5,0.1c-0.4,0-0.7-0.1-0.9-0.3
				c-0.2-0.2-0.3-0.5-0.3-0.9v-2.1h-0.7v-0.6h0.7v-0.8h0.7v0.8h1.1v0.6h-1.1v2.1c0,0.2,0.1,0.4,0.2,0.5c0.1,0.1,0.3,0.2,0.4,0.2
				c0.2,0,0.4-0.1,0.5-0.2L48.8,224.9z"/>
			<path class="st1" d="M50.8,225.1c-0.3,0-0.6,0-0.9-0.1c-0.3-0.1-0.5-0.2-0.7-0.3l0.3-0.5c0.2,0.1,0.4,0.2,0.6,0.3
				c0.2,0.1,0.5,0.1,0.7,0.1c0.6,0,0.9-0.2,0.9-0.5c0-0.1,0-0.2-0.1-0.3c-0.1-0.1-0.2-0.1-0.3-0.1c-0.1,0-0.3-0.1-0.5-0.1
				c-0.3,0-0.6-0.1-0.8-0.2c-0.2-0.1-0.4-0.2-0.5-0.3c-0.1-0.1-0.2-0.4-0.2-0.6c0-0.3,0.1-0.6,0.4-0.8c0.3-0.2,0.7-0.3,1.2-0.3
				c0.3,0,0.5,0,0.8,0.1c0.3,0.1,0.5,0.1,0.6,0.3l-0.3,0.5c-0.3-0.2-0.7-0.3-1.1-0.3c-0.3,0-0.5,0-0.7,0.1c-0.2,0.1-0.2,0.2-0.2,0.4
				c0,0.1,0,0.2,0.1,0.3c0.1,0.1,0.2,0.1,0.3,0.2c0.1,0,0.3,0.1,0.5,0.1c0.3,0.1,0.6,0.1,0.7,0.2c0.2,0.1,0.4,0.2,0.5,0.3
				c0.1,0.1,0.2,0.3,0.2,0.6c0,0.3-0.1,0.6-0.4,0.8C51.7,225,51.3,225.1,50.8,225.1L50.8,225.1z"/>
		</g>
		<path class="st2" d="M20.2,219.4c-0.3,0-0.5,0.2-0.5,0.5v5.1c0,0.3,0.3,0.6,0.7,0.6h5.8c0.4,0,0.7-0.2,0.7-0.6v-4.2
			c0-0.3-0.3-0.6-0.7-0.6H23c-0.4,0-0.7-0.8-1-0.8L20.2,219.4z"/>
		<path class="st3" d="M20.9,220.8h5.8c0.4,0,0.6,0.2,0.6,0.5l-0.5,3.6c0,0.3-0.4,0.5-0.7,0.5h-5.8c-0.4,0-0.6-0.2-0.6-0.5l0.5-3.6
			C20.2,221.1,20.5,220.8,20.9,220.8z"/>
		<g transform="scale(1 .99998)">
			<path class="st1" d="M32.7,242.5c0.5,0,0.9,0.1,1.2,0.4c0.3,0.3,0.4,0.7,0.4,1.2v2.2h-0.7v-2.1c0-0.4-0.1-0.7-0.3-0.8
				c-0.2-0.2-0.4-0.3-0.8-0.3c-0.4,0-0.7,0.1-0.9,0.3c-0.2,0.2-0.3,0.5-0.3,0.9v2h-0.7v-3.8h0.7v0.6c0.1-0.2,0.3-0.3,0.6-0.5
				C32.1,242.6,32.4,242.5,32.7,242.5L32.7,242.5z"/>
			<path class="st1" d="M37,242.5c0.5,0,0.9,0.1,1.2,0.4c0.3,0.3,0.4,0.6,0.4,1.2v2.3H38v-0.5c-0.1,0.2-0.3,0.3-0.5,0.4
				c-0.2,0.1-0.5,0.1-0.8,0.1c-0.4,0-0.8-0.1-1-0.3c-0.3-0.2-0.4-0.5-0.4-0.8c0-0.3,0.1-0.6,0.4-0.8c0.2-0.2,0.6-0.3,1.2-0.3h1.1
				v-0.1c0-0.3-0.1-0.5-0.3-0.7s-0.4-0.2-0.8-0.2c-0.2,0-0.4,0-0.7,0.1c-0.2,0.1-0.4,0.2-0.5,0.3l-0.3-0.5c0.2-0.2,0.4-0.3,0.7-0.4
				C36.4,242.6,36.7,242.5,37,242.5L37,242.5z M36.8,245.9c0.3,0,0.5-0.1,0.7-0.2c0.2-0.1,0.3-0.3,0.4-0.5v-0.5h-1.1
				c-0.6,0-0.9,0.2-0.9,0.6c0,0.2,0.1,0.3,0.2,0.5C36.4,245.9,36.6,245.9,36.8,245.9z"/>
			<path class="st1" d="M43.2,242.6l-1.7,3.8h-0.7l-1.7-3.8h0.7l1.3,3.1l1.3-3.1H43.2z"/>
			<path class="st1" d="M43.8,246.4c-0.1,0-0.3,0-0.3-0.1c-0.1-0.1-0.1-0.2-0.1-0.4c0-0.1,0-0.3,0.1-0.3c0.1-0.1,0.2-0.1,0.3-0.1
				c0.1,0,0.2,0,0.3,0.1c0.1,0.1,0.1,0.2,0.1,0.4c0,0.1,0,0.3-0.1,0.4C44,246.4,43.9,246.4,43.8,246.4z"/>
			<path class="st1" d="M46.7,242.5c0.5,0,0.9,0.1,1.2,0.4c0.3,0.3,0.4,0.6,0.4,1.2v2.3h-0.7v-0.5c-0.1,0.2-0.3,0.3-0.5,0.4
				c-0.2,0.1-0.5,0.1-0.8,0.1c-0.4,0-0.8-0.1-1-0.3c-0.3-0.2-0.4-0.5-0.4-0.8c0-0.3,0.1-0.6,0.4-0.8c0.2-0.2,0.6-0.3,1.2-0.3h1.1
				v-0.1c0-0.3-0.1-0.5-0.3-0.7c-0.2-0.2-0.4-0.2-0.8-0.2c-0.2,0-0.4,0-0.7,0.1c-0.2,0.1-0.4,0.2-0.5,0.3l-0.3-0.5
				c0.2-0.2,0.4-0.3,0.7-0.4C46.1,242.6,46.4,242.5,46.7,242.5L46.7,242.5z M46.6,245.9c0.3,0,0.5-0.1,0.7-0.2
				c0.2-0.1,0.3-0.3,0.4-0.5v-0.5h-1.1c-0.6,0-0.9,0.2-0.9,0.6c0,0.2,0.1,0.3,0.2,0.5C46.1,245.9,46.3,245.9,46.6,245.9L46.6,245.9z
				"/>
			<path class="st1" d="M53.3,241v5.4h-0.7v-0.6c-0.2,0.2-0.3,0.4-0.6,0.5s-0.5,0.2-0.8,0.2c-0.4,0-0.7-0.1-1-0.2s-0.5-0.4-0.7-0.7
				c-0.2-0.3-0.2-0.6-0.2-1s0.1-0.7,0.2-1c0.2-0.3,0.4-0.5,0.7-0.7s0.6-0.2,1-0.2c0.3,0,0.5,0.1,0.8,0.2c0.2,0.1,0.4,0.3,0.6,0.5
				V241H53.3z M51.3,245.8c0.2,0,0.5-0.1,0.7-0.2c0.2-0.1,0.4-0.3,0.5-0.5c0.1-0.2,0.2-0.4,0.2-0.7c0-0.3-0.1-0.5-0.2-0.7
				c-0.1-0.2-0.3-0.4-0.5-0.5c-0.2-0.1-0.4-0.2-0.7-0.2c-0.2,0-0.5,0.1-0.7,0.2c-0.2,0.1-0.3,0.3-0.5,0.5c-0.1,0.2-0.2,0.4-0.2,0.7
				c0,0.3,0.1,0.5,0.2,0.7c0.1,0.2,0.3,0.4,0.5,0.5C50.9,245.8,51.1,245.8,51.3,245.8z"/>
			<path class="st1" d="M56.3,246.4c-0.4,0-0.7-0.1-1-0.3c-0.3-0.2-0.5-0.4-0.7-0.7c-0.2-0.3-0.3-0.6-0.3-1c0-0.4,0.1-0.7,0.3-1
				c0.2-0.3,0.4-0.5,0.7-0.7c0.3-0.2,0.6-0.3,1-0.3c0.4,0,0.7,0.1,1,0.3c0.3,0.2,0.5,0.4,0.7,0.7c0.2,0.3,0.3,0.6,0.3,1
				c0,0.4-0.1,0.7-0.3,1c-0.2,0.3-0.4,0.5-0.7,0.7C57,246.4,56.6,246.4,56.3,246.4z M56.3,245.8c0.2,0,0.5-0.1,0.7-0.2
				c0.2-0.1,0.4-0.3,0.5-0.5c0.1-0.2,0.2-0.4,0.2-0.7s-0.1-0.5-0.2-0.7c-0.1-0.2-0.3-0.4-0.5-0.5c-0.2-0.1-0.4-0.2-0.7-0.2
				c-0.2,0-0.5,0.1-0.7,0.2c-0.2,0.1-0.3,0.3-0.5,0.5c-0.1,0.2-0.2,0.4-0.2,0.7s0.1,0.5,0.2,0.7c0.1,0.2,0.3,0.4,0.5,0.5
				C55.8,245.8,56,245.8,56.3,245.8z"/>
			<path class="st1" d="M60.9,246.4c-0.4,0-0.7-0.1-1-0.3c-0.3-0.2-0.5-0.4-0.7-0.7c-0.2-0.3-0.3-0.6-0.3-1c0-0.4,0.1-0.7,0.3-1
				c0.2-0.3,0.4-0.5,0.7-0.7c0.3-0.2,0.7-0.3,1-0.3c0.3,0,0.7,0.1,0.9,0.2c0.3,0.1,0.5,0.3,0.6,0.6l-0.5,0.3
				c-0.1-0.2-0.3-0.3-0.4-0.4s-0.4-0.1-0.6-0.1c-0.3,0-0.5,0.1-0.7,0.2c-0.2,0.1-0.4,0.3-0.5,0.5c-0.1,0.2-0.2,0.4-0.2,0.7
				c0,0.3,0.1,0.5,0.2,0.7c0.1,0.2,0.3,0.4,0.5,0.5c0.2,0.1,0.4,0.2,0.7,0.2c0.2,0,0.4,0,0.6-0.1c0.2-0.1,0.3-0.2,0.4-0.4l0.5,0.3
				c-0.1,0.3-0.4,0.5-0.6,0.6C61.5,246.4,61.2,246.4,60.9,246.4z"/>
		</g>
		<path class="st4" d="M21.1,239.1c-0.3,0-0.5,0.3-0.5,0.8v6.1c0,0.4,0.2,0.8,0.5,0.8h4.9c0.3,0,0.5-0.3,0.5-0.8v-5.7
			c-0.9,0.2-1.3-0.3-1.2-1.2L21.1,239.1z"/>
	</g>
	<g>
		<path class="st5" d="M25.3,239.1l1.1,1.2"/>
		<g>
			<path class="st7" d="M21.4,241.2h3.1"/>
			<path class="st7" d="M22,242.2h1.5"/>
			<path class="st7" d="M22,243.2h1.5"/>
			<path class="st7" d="M22,244.1h1.5"/>
			<path class="st7" d="M22,245.1h1.5"/>
		</g>
	</g>
	<g>
		<g transform="scale(1 .99998)">
			<path class="st1" d="M11.7,254c-0.1,0-0.3,0-0.3-0.1c-0.1-0.1-0.1-0.2-0.1-0.4c0-0.1,0-0.3,0.1-0.3c0.1-0.1,0.2-0.1,0.3-0.1
				c0.1,0,0.2,0,0.3,0.1c0.1,0.1,0.1,0.2,0.1,0.4c0,0.1,0,0.3-0.1,0.4C11.9,254,11.8,254,11.7,254z"/>
			<path class="st1" d="M15.3,254c-0.1,0-0.3,0-0.3-0.1c-0.1-0.1-0.1-0.2-0.1-0.4c0-0.1,0-0.3,0.1-0.3c0.1-0.1,0.2-0.1,0.3-0.1
				c0.1,0,0.2,0,0.3,0.1c0.1,0.1,0.1,0.2,0.1,0.4c0,0.1,0,0.3-0.1,0.4C15.5,254,15.4,254,15.3,254z"/>
			<path class="st1" d="M18.9,254c-0.1,0-0.3,0-0.3-0.1c-0.1-0.1-0.1-0.2-0.1-0.4c0-0.1,0-0.3,0.1-0.3c0.1-0.1,0.2-0.1,0.3-0.1
				c0.1,0,0.2,0,0.3,0.1s0.1,0.2,0.1,0.4c0,0.1,0,0.3-0.1,0.4C19.1,254,19,254,18.9,254z"/>
		</g>
		<g transform="scale(1 .99998)">
			<path class="st1" d="M38.9,155.7h0.7v3.8h-0.7V155.7z M39.2,155c-0.1,0-0.2,0-0.3-0.1c-0.1-0.1-0.1-0.2-0.1-0.3
				c0-0.1,0-0.2,0.1-0.3c0.1-0.1,0.2-0.1,0.3-0.1c0.1,0,0.2,0,0.3,0.1c0.1,0.1,0.1,0.2,0.1,0.3c0,0.1,0,0.2-0.1,0.3
				C39.4,154.9,39.3,155,39.2,155L39.2,155z"/>
			<path class="st1" d="M45.7,155.7c0.5,0,0.9,0.1,1.1,0.4c0.3,0.3,0.4,0.7,0.4,1.2v2.2h-0.7v-2.1c0-0.4-0.1-0.7-0.3-0.8
				c-0.2-0.2-0.4-0.3-0.7-0.3c-0.4,0-0.6,0.1-0.8,0.3c-0.2,0.2-0.3,0.5-0.3,0.9v2h-0.7v-2.1c0-0.4-0.1-0.7-0.3-0.8
				c-0.2-0.2-0.4-0.3-0.7-0.3c-0.4,0-0.6,0.1-0.8,0.3c-0.2,0.2-0.3,0.5-0.3,0.9v2h-0.7v-3.8h0.7v0.6c0.1-0.2,0.3-0.3,0.5-0.4
				c0.2-0.1,0.5-0.2,0.8-0.2c0.3,0,0.6,0.1,0.8,0.2s0.4,0.3,0.5,0.5c0.1-0.2,0.3-0.4,0.6-0.5C45.1,155.7,45.3,155.7,45.7,155.7
				L45.7,155.7z"/>
			<path class="st1" d="M49.9,155.7c0.5,0,0.9,0.1,1.2,0.4c0.3,0.3,0.4,0.6,0.4,1.2v2.3h-0.7V159c-0.1,0.2-0.3,0.3-0.5,0.4
				c-0.2,0.1-0.5,0.1-0.8,0.1c-0.4,0-0.8-0.1-1-0.3c-0.3-0.2-0.4-0.5-0.4-0.8c0-0.3,0.1-0.6,0.4-0.8c0.2-0.2,0.6-0.3,1.2-0.3h1.1
				v-0.1c0-0.3-0.1-0.5-0.3-0.7c-0.2-0.2-0.4-0.2-0.8-0.2c-0.2,0-0.4,0-0.7,0.1c-0.2,0.1-0.4,0.2-0.5,0.3l-0.3-0.5
				c0.2-0.2,0.4-0.3,0.7-0.4C49.3,155.7,49.6,155.7,49.9,155.7L49.9,155.7z M49.8,159c0.3,0,0.5-0.1,0.7-0.2
				c0.2-0.1,0.3-0.3,0.4-0.5v-0.5h-1.1c-0.6,0-0.9,0.2-0.9,0.6c0,0.2,0.1,0.3,0.2,0.5C49.3,159,49.5,159,49.8,159L49.8,159z"/>
			<path class="st1" d="M56.5,155.7v3.3c0,0.7-0.2,1.2-0.5,1.5c-0.3,0.3-0.8,0.5-1.5,0.5c-0.4,0-0.7-0.1-1-0.2
				c-0.3-0.1-0.6-0.2-0.8-0.4l0.3-0.5c0.2,0.2,0.4,0.3,0.7,0.4c0.3,0.1,0.5,0.1,0.8,0.1c0.4,0,0.8-0.1,1-0.3c0.2-0.2,0.3-0.5,0.3-1
				v-0.3c-0.2,0.2-0.4,0.3-0.6,0.4c-0.2,0.1-0.5,0.1-0.8,0.1c-0.4,0-0.7-0.1-1-0.2c-0.3-0.2-0.5-0.4-0.7-0.7c-0.2-0.3-0.3-0.6-0.3-1
				c0-0.4,0.1-0.7,0.3-1c0.2-0.3,0.4-0.5,0.7-0.7c0.3-0.2,0.6-0.2,1-0.2c0.3,0,0.6,0.1,0.8,0.2c0.3,0.1,0.5,0.3,0.6,0.5v-0.6
				L56.5,155.7z M54.5,158.8c0.3,0,0.5-0.1,0.7-0.2c0.2-0.1,0.4-0.3,0.5-0.4c0.1-0.2,0.2-0.4,0.2-0.7c0-0.4-0.1-0.7-0.4-0.9
				c-0.2-0.2-0.6-0.3-0.9-0.3c-0.4,0-0.7,0.1-1,0.3c-0.2,0.2-0.4,0.5-0.4,0.9c0,0.2,0.1,0.5,0.2,0.7c0.1,0.2,0.3,0.3,0.5,0.4
				C54.1,158.7,54.3,158.8,54.5,158.8z"/>
			<path class="st1" d="M61.3,157.6c0,0.1,0,0.1,0,0.2h-3.1c0,0.3,0.2,0.6,0.4,0.8c0.3,0.2,0.6,0.3,0.9,0.3c0.5,0,0.8-0.2,1.1-0.5
				l0.4,0.4c-0.2,0.2-0.4,0.4-0.7,0.5c-0.3,0.1-0.5,0.2-0.9,0.2c-0.4,0-0.8-0.1-1.1-0.2c-0.3-0.2-0.6-0.4-0.7-0.7
				c-0.2-0.3-0.3-0.6-0.3-1c0-0.4,0.1-0.7,0.2-1c0.2-0.3,0.4-0.5,0.7-0.7c0.3-0.2,0.6-0.3,1-0.3c0.4,0,0.7,0.1,1,0.3
				c0.3,0.2,0.5,0.4,0.7,0.7C61.2,156.9,61.3,157.3,61.3,157.6L61.3,157.6z M59.4,156.3c-0.3,0-0.6,0.1-0.8,0.3
				c-0.2,0.2-0.4,0.5-0.4,0.8h2.5c0-0.3-0.2-0.6-0.4-0.8C60,156.4,59.8,156.3,59.4,156.3L59.4,156.3z"/>
			<path class="st1" d="M63.4,159.6c-0.3,0-0.6,0-0.9-0.1c-0.3-0.1-0.5-0.2-0.7-0.3l0.3-0.5c0.2,0.1,0.4,0.2,0.6,0.3
				c0.2,0.1,0.5,0.1,0.7,0.1c0.6,0,0.9-0.2,0.9-0.5c0-0.1,0-0.2-0.1-0.3s-0.2-0.1-0.3-0.1c-0.1,0-0.3-0.1-0.5-0.1
				c-0.3,0-0.6-0.1-0.8-0.2c-0.2-0.1-0.4-0.2-0.5-0.3c-0.1-0.1-0.2-0.4-0.2-0.6c0-0.3,0.1-0.6,0.4-0.8c0.3-0.2,0.7-0.3,1.2-0.3
				c0.3,0,0.5,0,0.8,0.1c0.3,0.1,0.5,0.1,0.6,0.3l-0.3,0.5c-0.3-0.2-0.7-0.3-1.1-0.3c-0.3,0-0.5,0-0.7,0.1c-0.2,0.1-0.2,0.2-0.2,0.4
				c0,0.1,0,0.2,0.1,0.3s0.2,0.1,0.3,0.2c0.1,0,0.3,0.1,0.5,0.1c0.3,0.1,0.6,0.1,0.7,0.2c0.2,0.1,0.4,0.2,0.5,0.3
				c0.1,0.1,0.2,0.3,0.2,0.6c0,0.3-0.1,0.6-0.4,0.8C64.3,159.5,63.9,159.6,63.4,159.6L63.4,159.6z"/>
		</g>
		<path class="st2" d="M28.4,153.8c-0.3,0-0.5,0.2-0.5,0.5v5.1c0,0.3,0.3,0.6,0.7,0.6h5.8c0.4,0,0.7-0.2,0.7-0.6v-4.2
			c0-0.3-0.3-0.6-0.7-0.6h-3.2c-0.4,0-0.7-0.8-1-0.8L28.4,153.8z"/>
		<path class="st3" d="M29.1,155.3h5.8c0.4,0,0.6,0.2,0.6,0.5l-0.5,3.6c0,0.3-0.4,0.5-0.7,0.5h-5.8c-0.4,0-0.6-0.2-0.6-0.5l0.5-3.6
			C28.4,155.5,28.7,155.3,29.1,155.3z"/>
		<g transform="scale(1 .99998)">
			<path class="st1" d="M32.1,134.7c0.5,0,0.9,0.1,1.2,0.4c0.3,0.3,0.4,0.6,0.4,1.2v2.3H33v-0.5c-0.1,0.2-0.3,0.3-0.5,0.4
				c-0.2,0.1-0.5,0.1-0.8,0.1c-0.4,0-0.8-0.1-1-0.3c-0.3-0.2-0.4-0.5-0.4-0.8c0-0.3,0.1-0.6,0.4-0.8c0.2-0.2,0.6-0.3,1.2-0.3H33
				v-0.1c0-0.3-0.1-0.5-0.3-0.7c-0.2-0.2-0.4-0.2-0.8-0.2c-0.2,0-0.4,0-0.7,0.1c-0.2,0.1-0.4,0.2-0.5,0.3l-0.3-0.5
				c0.2-0.2,0.4-0.3,0.7-0.4C31.5,134.7,31.7,134.7,32.1,134.7L32.1,134.7z M31.9,138.1c0.3,0,0.5-0.1,0.7-0.2
				c0.2-0.1,0.3-0.3,0.4-0.5v-0.5h-1.1c-0.6,0-0.9,0.2-0.9,0.6c0,0.2,0.1,0.3,0.2,0.5S31.6,138.1,31.9,138.1L31.9,138.1z"/>
			<path class="st1" d="M36.1,138.6c-0.3,0-0.6,0-0.9-0.1c-0.3-0.1-0.5-0.2-0.7-0.3l0.3-0.5c0.2,0.1,0.4,0.2,0.6,0.3
				c0.2,0.1,0.5,0.1,0.7,0.1c0.6,0,0.9-0.2,0.9-0.5c0-0.1,0-0.2-0.1-0.3s-0.2-0.1-0.3-0.1c-0.1,0-0.3-0.1-0.5-0.1
				c-0.3,0-0.6-0.1-0.8-0.2c-0.2-0.1-0.4-0.2-0.5-0.3c-0.1-0.1-0.2-0.4-0.2-0.6c0-0.3,0.1-0.6,0.4-0.8c0.3-0.2,0.7-0.3,1.2-0.3
				c0.3,0,0.5,0,0.8,0.1c0.3,0.1,0.5,0.1,0.6,0.3l-0.3,0.5c-0.3-0.2-0.7-0.3-1.1-0.3c-0.3,0-0.5,0-0.7,0.1s-0.2,0.2-0.2,0.4
				c0,0.1,0,0.2,0.1,0.3c0.1,0.1,0.2,0.1,0.3,0.2c0.1,0,0.3,0.1,0.5,0.1c0.3,0.1,0.6,0.1,0.7,0.2c0.2,0.1,0.4,0.2,0.5,0.3
				c0.1,0.1,0.2,0.3,0.2,0.6c0,0.3-0.1,0.6-0.4,0.8C37,138.5,36.6,138.6,36.1,138.6L36.1,138.6z"/>
			<path class="st1" d="M39.7,138.6c-0.3,0-0.6,0-0.9-0.1c-0.3-0.1-0.5-0.2-0.7-0.3l0.3-0.5c0.2,0.1,0.4,0.2,0.6,0.3
				c0.2,0.1,0.5,0.1,0.7,0.1c0.6,0,0.9-0.2,0.9-0.5c0-0.1,0-0.2-0.1-0.3s-0.2-0.1-0.3-0.1c-0.1,0-0.3-0.1-0.5-0.1
				c-0.3,0-0.6-0.1-0.8-0.2c-0.2-0.1-0.4-0.2-0.5-0.3c-0.1-0.1-0.2-0.4-0.2-0.6c0-0.3,0.1-0.6,0.4-0.8c0.3-0.2,0.7-0.3,1.2-0.3
				c0.3,0,0.5,0,0.8,0.1c0.3,0.1,0.5,0.1,0.6,0.3l-0.3,0.5c-0.3-0.2-0.7-0.3-1.1-0.3c-0.3,0-0.5,0-0.7,0.1c-0.2,0.1-0.2,0.2-0.2,0.4
				c0,0.1,0,0.2,0.1,0.3c0.1,0.1,0.2,0.1,0.3,0.2c0.1,0,0.3,0.1,0.5,0.1c0.3,0.1,0.6,0.1,0.7,0.2c0.2,0.1,0.4,0.2,0.5,0.3
				c0.1,0.1,0.2,0.3,0.2,0.6c0,0.3-0.1,0.6-0.4,0.8C40.6,138.5,40.2,138.6,39.7,138.6L39.7,138.6z"/>
			<path class="st1" d="M45.7,136.7c0,0.1,0,0.1,0,0.2h-3.1c0,0.3,0.2,0.6,0.4,0.8c0.3,0.2,0.6,0.3,0.9,0.3c0.5,0,0.8-0.2,1.1-0.5
				l0.4,0.4c-0.2,0.2-0.4,0.4-0.7,0.5c-0.3,0.1-0.5,0.2-0.9,0.2c-0.4,0-0.8-0.1-1.1-0.2c-0.3-0.2-0.6-0.4-0.7-0.7
				c-0.2-0.3-0.3-0.6-0.3-1c0-0.4,0.1-0.7,0.2-1c0.2-0.3,0.4-0.5,0.7-0.7c0.3-0.2,0.6-0.3,1-0.3s0.7,0.1,1,0.3
				c0.3,0.2,0.5,0.4,0.7,0.7C45.6,135.9,45.7,136.3,45.7,136.7L45.7,136.7z M43.8,135.3c-0.3,0-0.6,0.1-0.8,0.3
				c-0.2,0.2-0.4,0.5-0.4,0.8H45c0-0.3-0.2-0.6-0.4-0.8C44.4,135.4,44.1,135.3,43.8,135.3L43.8,135.3z"/>
			<path class="st1" d="M48.8,138.3c-0.1,0.1-0.2,0.2-0.4,0.2c-0.1,0-0.3,0.1-0.5,0.1c-0.4,0-0.7-0.1-0.9-0.3
				c-0.2-0.2-0.3-0.5-0.3-0.9v-2.1h-0.7v-0.6h0.7v-0.8h0.7v0.8h1.1v0.6h-1.1v2.1c0,0.2,0.1,0.4,0.2,0.5c0.1,0.1,0.3,0.2,0.4,0.2
				c0.2,0,0.4-0.1,0.5-0.2L48.8,138.3z"/>
			<path class="st1" d="M50.8,138.6c-0.3,0-0.6,0-0.9-0.1c-0.3-0.1-0.5-0.2-0.7-0.3l0.3-0.5c0.2,0.1,0.4,0.2,0.6,0.3
				c0.2,0.1,0.5,0.1,0.7,0.1c0.6,0,0.9-0.2,0.9-0.5c0-0.1,0-0.2-0.1-0.3s-0.2-0.1-0.3-0.1c-0.1,0-0.3-0.1-0.5-0.1
				c-0.3,0-0.6-0.1-0.8-0.2c-0.2-0.1-0.4-0.2-0.5-0.3c-0.1-0.1-0.2-0.4-0.2-0.6c0-0.3,0.1-0.6,0.4-0.8c0.3-0.2,0.7-0.3,1.2-0.3
				c0.3,0,0.5,0,0.8,0.1c0.3,0.1,0.5,0.1,0.6,0.3l-0.3,0.5c-0.3-0.2-0.7-0.3-1.1-0.3c-0.3,0-0.5,0-0.7,0.1c-0.2,0.1-0.2,0.2-0.2,0.4
				c0,0.1,0,0.2,0.1,0.3c0.1,0.1,0.2,0.1,0.3,0.2c0.1,0,0.3,0.1,0.5,0.1c0.3,0.1,0.6,0.1,0.7,0.2c0.2,0.1,0.4,0.2,0.5,0.3
				c0.1,0.1,0.2,0.3,0.2,0.6c0,0.3-0.1,0.6-0.4,0.8C51.7,138.5,51.3,138.6,50.8,138.6L50.8,138.6z"/>
		</g>
		<path class="st2" d="M20.2,132.8c-0.3,0-0.5,0.2-0.5,0.5v5.1c0,0.3,0.3,0.6,0.7,0.6h5.8c0.4,0,0.7-0.2,0.7-0.6v-4.2
			c0-0.3-0.3-0.6-0.7-0.6H23c-0.4,0-0.7-0.8-1-0.8L20.2,132.8z"/>
		<path class="st3" d="M20.9,134.3h5.8c0.4,0,0.6,0.2,0.6,0.5l-0.5,3.6c0,0.3-0.4,0.5-0.7,0.5h-5.8c-0.4,0-0.6-0.2-0.6-0.5l0.5-3.6
			C20.2,134.6,20.5,134.3,20.9,134.3z"/>
		<g transform="scale(1 .99998)">
			<path class="st1" d="M40.3,145.2c0.5,0,0.9,0.1,1.2,0.4c0.3,0.3,0.4,0.6,0.4,1.2v2.3h-0.7v-0.5c-0.1,0.2-0.3,0.3-0.5,0.4
				c-0.2,0.1-0.5,0.1-0.8,0.1c-0.4,0-0.8-0.1-1-0.3c-0.3-0.2-0.4-0.5-0.4-0.8c0-0.3,0.1-0.6,0.4-0.8c0.2-0.2,0.6-0.3,1.2-0.3h1.1
				v-0.1c0-0.3-0.1-0.5-0.3-0.7s-0.4-0.2-0.8-0.2c-0.2,0-0.4,0-0.7,0.1c-0.2,0.1-0.4,0.2-0.5,0.3l-0.3-0.5c0.2-0.2,0.4-0.3,0.7-0.4
				C39.7,145.2,39.9,145.2,40.3,145.2L40.3,145.2z M40.1,148.6c0.3,0,0.5-0.1,0.7-0.2c0.2-0.1,0.3-0.3,0.4-0.5v-0.5h-1.1
				c-0.6,0-0.9,0.2-0.9,0.6c0,0.2,0.1,0.3,0.2,0.5S39.8,148.6,40.1,148.6L40.1,148.6z"/>
			<path class="st1" d="M45.3,148.8c-0.1,0.1-0.2,0.2-0.4,0.2c-0.1,0-0.3,0.1-0.5,0.1c-0.4,0-0.7-0.1-0.9-0.3
				c-0.2-0.2-0.3-0.5-0.3-0.9v-2.1h-0.7v-0.6h0.7v-0.8H44v0.8h1.1v0.6H44v2.1c0,0.2,0.1,0.4,0.2,0.5c0.1,0.1,0.3,0.2,0.4,0.2
				c0.2,0,0.4-0.1,0.5-0.2L45.3,148.8z"/>
			<path class="st1" d="M48.2,148.8c-0.1,0.1-0.2,0.2-0.4,0.2c-0.1,0-0.3,0.1-0.5,0.1c-0.4,0-0.7-0.1-0.9-0.3
				c-0.2-0.2-0.3-0.5-0.3-0.9v-2.1h-0.7v-0.6h0.7v-0.8h0.7v0.8H48v0.6h-1.1v2.1c0,0.2,0.1,0.4,0.2,0.5c0.1,0.1,0.3,0.2,0.4,0.2
				c0.2,0,0.4-0.1,0.5-0.2L48.2,148.8z"/>
			<path class="st1" d="M50.5,145.2c0.5,0,0.9,0.1,1.2,0.4c0.3,0.3,0.4,0.6,0.4,1.2v2.3h-0.7v-0.5c-0.1,0.2-0.3,0.3-0.5,0.4
				c-0.2,0.1-0.5,0.1-0.8,0.1c-0.4,0-0.8-0.1-1-0.3c-0.3-0.2-0.4-0.5-0.4-0.8c0-0.3,0.1-0.6,0.4-0.8c0.2-0.2,0.6-0.3,1.2-0.3h1.1
				v-0.1c0-0.3-0.1-0.5-0.3-0.7c-0.2-0.2-0.4-0.2-0.8-0.2c-0.2,0-0.4,0-0.7,0.1c-0.2,0.1-0.4,0.2-0.5,0.3l-0.3-0.5
				c0.2-0.2,0.4-0.3,0.7-0.4C49.9,145.2,50.2,145.2,50.5,145.2L50.5,145.2z M50.3,148.6c0.3,0,0.5-0.1,0.7-0.2
				c0.2-0.1,0.3-0.3,0.4-0.5v-0.5h-1.1c-0.6,0-0.9,0.2-0.9,0.6c0,0.2,0.1,0.3,0.2,0.5C49.8,148.5,50,148.6,50.3,148.6L50.3,148.6z"
				/>
			<path class="st1" d="M55.1,149.1c-0.4,0-0.7-0.1-1-0.3c-0.3-0.2-0.5-0.4-0.7-0.7c-0.2-0.3-0.3-0.6-0.3-1s0.1-0.7,0.3-1
				c0.2-0.3,0.4-0.5,0.7-0.7c0.3-0.2,0.7-0.3,1-0.3c0.3,0,0.7,0.1,0.9,0.2c0.3,0.1,0.5,0.3,0.6,0.6l-0.5,0.3
				c-0.1-0.2-0.3-0.3-0.4-0.4c-0.2-0.1-0.4-0.1-0.6-0.1c-0.3,0-0.5,0.1-0.7,0.2c-0.2,0.1-0.4,0.3-0.5,0.5c-0.1,0.2-0.2,0.4-0.2,0.7
				c0,0.3,0.1,0.5,0.2,0.7c0.1,0.2,0.3,0.4,0.5,0.5c0.2,0.1,0.4,0.2,0.7,0.2c0.2,0,0.4,0,0.6-0.1c0.2-0.1,0.3-0.2,0.4-0.4l0.5,0.3
				c-0.1,0.3-0.4,0.5-0.6,0.6C55.7,149,55.4,149.1,55.1,149.1L55.1,149.1z"/>
			<path class="st1" d="M59.5,145.2c0.5,0,0.9,0.1,1.2,0.4c0.3,0.3,0.4,0.7,0.4,1.2v2.2h-0.7v-2.1c0-0.4-0.1-0.7-0.3-0.8
				c-0.2-0.2-0.4-0.3-0.8-0.3c-0.4,0-0.7,0.1-0.9,0.3c-0.2,0.2-0.3,0.5-0.3,0.9v2h-0.7v-5.4h0.7v2.1c0.1-0.2,0.3-0.3,0.6-0.4
				C59,145.2,59.2,145.2,59.5,145.2L59.5,145.2z"/>
			<path class="st1" d="M67.2,145.2c0.5,0,0.9,0.1,1.1,0.4c0.3,0.3,0.4,0.7,0.4,1.2v2.2h-0.7v-2.1c0-0.4-0.1-0.7-0.3-0.8
				c-0.2-0.2-0.4-0.3-0.7-0.3c-0.4,0-0.6,0.1-0.8,0.3c-0.2,0.2-0.3,0.5-0.3,0.9v2h-0.7v-2.1c0-0.4-0.1-0.7-0.3-0.8
				c-0.2-0.2-0.4-0.3-0.7-0.3c-0.4,0-0.6,0.1-0.8,0.3c-0.2,0.2-0.3,0.5-0.3,0.9v2h-0.7v-3.8h0.7v0.6c0.1-0.2,0.3-0.3,0.5-0.4
				c0.2-0.1,0.5-0.2,0.8-0.2c0.3,0,0.6,0.1,0.8,0.2c0.2,0.1,0.4,0.3,0.5,0.5c0.1-0.2,0.3-0.4,0.6-0.5
				C66.6,145.2,66.9,145.2,67.2,145.2L67.2,145.2z"/>
			<path class="st1" d="M73.5,147.1c0,0.1,0,0.1,0,0.2h-3.1c0,0.3,0.2,0.6,0.4,0.8c0.3,0.2,0.6,0.3,0.9,0.3c0.5,0,0.8-0.2,1.1-0.5
				l0.4,0.4c-0.2,0.2-0.4,0.4-0.7,0.5c-0.3,0.1-0.5,0.2-0.9,0.2c-0.4,0-0.8-0.1-1.1-0.2c-0.3-0.2-0.6-0.4-0.7-0.7
				c-0.2-0.3-0.3-0.6-0.3-1c0-0.4,0.1-0.7,0.2-1c0.2-0.3,0.4-0.5,0.7-0.7c0.3-0.2,0.6-0.3,1-0.3c0.4,0,0.7,0.1,1,0.3
				c0.3,0.2,0.5,0.4,0.7,0.7C73.5,146.4,73.5,146.8,73.5,147.1L73.5,147.1z M71.6,145.8c-0.3,0-0.6,0.1-0.8,0.3
				c-0.2,0.2-0.4,0.5-0.4,0.8h2.5c0-0.3-0.2-0.6-0.4-0.8C72.3,145.9,72,145.8,71.6,145.8L71.6,145.8z"/>
			<path class="st1" d="M76.5,145.2c0.5,0,0.9,0.1,1.2,0.4c0.3,0.3,0.4,0.7,0.4,1.2v2.2h-0.7v-2.1c0-0.4-0.1-0.7-0.3-0.8
				c-0.2-0.2-0.4-0.3-0.8-0.3c-0.4,0-0.7,0.1-0.9,0.3c-0.2,0.2-0.3,0.5-0.3,0.9v2h-0.7v-3.8h0.7v0.6c0.1-0.2,0.3-0.3,0.6-0.5
				C76,145.2,76.2,145.2,76.5,145.2L76.5,145.2z"/>
			<path class="st1" d="M81.6,148.8c-0.1,0.1-0.2,0.2-0.4,0.2c-0.1,0-0.3,0.1-0.5,0.1c-0.4,0-0.7-0.1-0.9-0.3
				c-0.2-0.2-0.3-0.5-0.3-0.9v-2.1h-0.7v-0.6h0.7v-0.8h0.7v0.8h1.1v0.6h-1.1v2.1c0,0.2,0.1,0.4,0.2,0.5c0.1,0.1,0.3,0.2,0.4,0.2
				c0.2,0,0.4-0.1,0.5-0.2L81.6,148.8z"/>
			<path class="st1" d="M83.5,149.1c-0.3,0-0.6,0-0.9-0.1c-0.3-0.1-0.5-0.2-0.7-0.3l0.3-0.5c0.2,0.1,0.4,0.2,0.6,0.3
				c0.2,0.1,0.5,0.1,0.7,0.1c0.6,0,0.9-0.2,0.9-0.5c0-0.1,0-0.2-0.1-0.3c-0.1-0.1-0.2-0.1-0.3-0.1c-0.1,0-0.3-0.1-0.5-0.1
				c-0.3,0-0.6-0.1-0.8-0.2c-0.2-0.1-0.4-0.2-0.5-0.3s-0.2-0.4-0.2-0.6c0-0.3,0.1-0.6,0.4-0.8c0.3-0.2,0.7-0.3,1.2-0.3
				c0.3,0,0.5,0,0.8,0.1c0.3,0.1,0.5,0.1,0.6,0.3l-0.3,0.5c-0.3-0.2-0.7-0.3-1.1-0.3c-0.3,0-0.5,0-0.7,0.1c-0.2,0.1-0.2,0.2-0.2,0.4
				c0,0.1,0,0.2,0.1,0.3s0.2,0.1,0.3,0.2c0.1,0,0.3,0.1,0.5,0.1c0.3,0.1,0.6,0.1,0.7,0.2c0.2,0.1,0.4,0.2,0.5,0.3
				c0.1,0.1,0.2,0.3,0.2,0.6c0,0.3-0.1,0.6-0.4,0.8C84.4,149,84,149.1,83.5,149.1L83.5,149.1z"/>
		</g>
		<path class="st2" d="M28.4,143.3c-0.3,0-0.5,0.2-0.5,0.5v5.1c0,0.3,0.3,0.6,0.7,0.6h5.8c0.4,0,0.7-0.2,0.7-0.6v-4.2
			c0-0.3-0.3-0.6-0.7-0.6h-3.2c-0.4,0-0.7-0.8-1-0.8L28.4,143.3z"/>
		<path class="st3" d="M29.1,144.8h5.8c0.4,0,0.6,0.2,0.6,0.5l-0.5,3.6c0,0.3-0.4,0.5-0.7,0.5h-5.8c-0.4,0-0.6-0.2-0.6-0.5l0.5-3.6
			C28.4,145,28.7,144.8,29.1,144.8z"/>
		<g transform="scale(1 .99998)">
			<path class="st1" d="M34.1,168.9c0,0.1,0,0.1,0,0.2H31c0,0.3,0.2,0.6,0.4,0.8c0.3,0.2,0.6,0.3,0.9,0.3c0.5,0,0.8-0.2,1.1-0.5
				l0.4,0.4c-0.2,0.2-0.4,0.4-0.7,0.5c-0.3,0.1-0.5,0.2-0.9,0.2c-0.4,0-0.8-0.1-1.1-0.2c-0.3-0.2-0.6-0.4-0.7-0.7
				c-0.2-0.3-0.3-0.6-0.3-1c0-0.4,0.1-0.7,0.2-1c0.2-0.3,0.4-0.5,0.7-0.7c0.3-0.2,0.6-0.3,1-0.3c0.4,0,0.7,0.1,1,0.3
				c0.3,0.2,0.5,0.4,0.7,0.7C34,168.2,34.1,168.5,34.1,168.9L34.1,168.9z M32.2,167.5c-0.3,0-0.6,0.1-0.8,0.3
				c-0.2,0.2-0.4,0.5-0.4,0.8h2.5c0-0.3-0.2-0.6-0.4-0.8C32.8,167.6,32.6,167.5,32.2,167.5L32.2,167.5z"/>
			<path class="st1" d="M37.4,170.8l-1.1-1.5l-1.1,1.5h-0.8l1.5-2l-1.4-1.9h0.8l1.1,1.4l1-1.4h0.8l-1.4,1.9l1.5,2H37.4z"/>
			<path class="st1" d="M40.3,166.9c0.5,0,0.9,0.1,1.2,0.4c0.3,0.3,0.4,0.6,0.4,1.2v2.3h-0.7v-0.5c-0.1,0.2-0.3,0.3-0.5,0.4
				c-0.2,0.1-0.5,0.1-0.8,0.1c-0.4,0-0.8-0.1-1-0.3c-0.3-0.2-0.4-0.5-0.4-0.8s0.1-0.6,0.4-0.8c0.2-0.2,0.6-0.3,1.2-0.3h1.1v-0.1
				c0-0.3-0.1-0.5-0.3-0.7c-0.2-0.2-0.4-0.2-0.8-0.2c-0.2,0-0.4,0-0.7,0.1c-0.2,0.1-0.4,0.2-0.5,0.3l-0.3-0.5
				c0.2-0.2,0.4-0.3,0.7-0.4C39.7,167,40,166.9,40.3,166.9L40.3,166.9z M40.1,170.3c0.3,0,0.5-0.1,0.7-0.2c0.2-0.1,0.3-0.3,0.4-0.5
				v-0.5h-1.1c-0.6,0-0.9,0.2-0.9,0.6c0,0.2,0.1,0.3,0.2,0.5C39.7,170.3,39.9,170.3,40.1,170.3L40.1,170.3z"/>
			<path class="st1" d="M48,166.9c0.5,0,0.9,0.1,1.1,0.4c0.3,0.3,0.4,0.7,0.4,1.2v2.2h-0.7v-2.1c0-0.4-0.1-0.7-0.3-0.8
				c-0.2-0.2-0.4-0.3-0.7-0.3c-0.4,0-0.6,0.1-0.8,0.3c-0.2,0.2-0.3,0.5-0.3,0.9v2H46v-2.1c0-0.4-0.1-0.7-0.3-0.8
				c-0.2-0.2-0.4-0.3-0.7-0.3c-0.4,0-0.6,0.1-0.8,0.3c-0.2,0.2-0.3,0.5-0.3,0.9v2h-0.7V167h0.7v0.6c0.1-0.2,0.3-0.3,0.5-0.4
				c0.2-0.1,0.5-0.2,0.8-0.2c0.3,0,0.6,0.1,0.8,0.2s0.4,0.3,0.5,0.5c0.1-0.2,0.3-0.4,0.6-0.5C47.4,167,47.7,166.9,48,166.9L48,166.9
				z"/>
			<path class="st1" d="M52.9,166.9c0.4,0,0.7,0.1,1,0.2c0.3,0.2,0.5,0.4,0.7,0.7c0.2,0.3,0.3,0.6,0.3,1c0,0.4-0.1,0.7-0.3,1
				c-0.2,0.3-0.4,0.5-0.7,0.7c-0.3,0.2-0.6,0.2-1,0.2c-0.3,0-0.5-0.1-0.8-0.2c-0.2-0.1-0.4-0.3-0.6-0.5v2h-0.7V167h0.7v0.6
				c0.2-0.2,0.3-0.4,0.6-0.5C52.3,167,52.6,166.9,52.9,166.9L52.9,166.9z M52.8,170.2c0.2,0,0.5-0.1,0.7-0.2
				c0.2-0.1,0.4-0.3,0.5-0.5c0.1-0.2,0.2-0.4,0.2-0.7s-0.1-0.5-0.2-0.7c-0.1-0.2-0.3-0.4-0.5-0.5c-0.2-0.1-0.4-0.2-0.7-0.2
				c-0.2,0-0.5,0.1-0.7,0.2c-0.2,0.1-0.3,0.3-0.5,0.5c-0.1,0.2-0.2,0.4-0.2,0.7c0,0.3,0.1,0.5,0.2,0.7c0.1,0.2,0.3,0.4,0.5,0.5
				C52.4,170.2,52.6,170.2,52.8,170.2z"/>
			<path class="st1" d="M55.8,165.4h0.7v5.4h-0.7V165.4z"/>
			<path class="st1" d="M61.3,168.9c0,0.1,0,0.1,0,0.2h-3.1c0,0.3,0.2,0.6,0.4,0.8c0.3,0.2,0.6,0.3,0.9,0.3c0.5,0,0.8-0.2,1.1-0.5
				l0.4,0.4c-0.2,0.2-0.4,0.4-0.7,0.5c-0.3,0.1-0.5,0.2-0.9,0.2c-0.4,0-0.8-0.1-1.1-0.2c-0.3-0.2-0.6-0.4-0.7-0.7
				c-0.2-0.3-0.3-0.6-0.3-1c0-0.4,0.1-0.7,0.2-1c0.2-0.3,0.4-0.5,0.7-0.7c0.3-0.2,0.6-0.3,1-0.3c0.4,0,0.7,0.1,1,0.3
				c0.3,0.2,0.5,0.4,0.7,0.7C61.2,168.2,61.3,168.5,61.3,168.9L61.3,168.9z M59.4,167.5c-0.3,0-0.6,0.1-0.8,0.3
				c-0.2,0.2-0.4,0.5-0.4,0.8h2.5c0-0.3-0.2-0.6-0.4-0.8C60,167.6,59.7,167.5,59.4,167.5L59.4,167.5z"/>
			<path class="st1" d="M63.3,170.9c-0.3,0-0.6,0-0.9-0.1c-0.3-0.1-0.5-0.2-0.7-0.3l0.3-0.5c0.2,0.1,0.4,0.2,0.6,0.3
				c0.2,0.1,0.5,0.1,0.7,0.1c0.6,0,0.9-0.2,0.9-0.5c0-0.1,0-0.2-0.1-0.3c-0.1-0.1-0.2-0.1-0.3-0.1c-0.1,0-0.3-0.1-0.5-0.1
				c-0.3,0-0.6-0.1-0.8-0.2c-0.2-0.1-0.4-0.2-0.5-0.3c-0.1-0.1-0.2-0.4-0.2-0.6c0-0.3,0.1-0.6,0.4-0.8c0.3-0.2,0.7-0.3,1.2-0.3
				c0.3,0,0.5,0,0.8,0.1s0.5,0.1,0.6,0.3l-0.3,0.5c-0.3-0.2-0.7-0.3-1.1-0.3c-0.3,0-0.5,0-0.7,0.1c-0.2,0.1-0.2,0.2-0.2,0.4
				c0,0.1,0,0.2,0.1,0.3s0.2,0.1,0.3,0.2c0.1,0,0.3,0.1,0.5,0.1c0.3,0.1,0.6,0.1,0.7,0.2c0.2,0.1,0.4,0.2,0.5,0.3
				c0.1,0.1,0.2,0.3,0.2,0.6c0,0.3-0.1,0.6-0.4,0.8C64.2,170.7,63.8,170.8,63.3,170.9L63.3,170.9z"/>
		</g>
		<path class="st2" d="M20.2,165.1c-0.3,0-0.5,0.2-0.5,0.5v5.1c0,0.3,0.3,0.6,0.7,0.6h5.8c0.4,0,0.7-0.2,0.7-0.6v-4.2
			c0-0.3-0.3-0.6-0.7-0.6H23c-0.4,0-0.7-0.8-1-0.8L20.2,165.1z"/>
		<path class="st3" d="M20.9,166.6h5.8c0.4,0,0.6,0.2,0.6,0.5l-0.5,3.6c0,0.3-0.4,0.5-0.7,0.5h-5.8c-0.4,0-0.6-0.2-0.6-0.5l0.5-3.6
			C20.2,166.8,20.5,166.6,20.9,166.6z"/>
	</g>
</g>
</svg>
