<svg version="1.1" viewBox="0 0 278.633 68.906998" xmlns="http://www.w3.org/2000/svg" xmlns:cc="http://creativecommons.org/ns#" xmlns:dc="http://purl.org/dc/elements/1.1/" xmlns:rdf="http://www.w3.org/1999/02/22-rdf-syntax-ns#">
<title>Module Page ID to Page URL</title>
<metadata>
<rdf:RDF>
<cc:Work rdf:about="">
<dc:format>image/svg+xml</dc:format>
<dc:type rdf:resource="http://purl.org/dc/dcmitype/StillImage"/>
<dc:title>Module Page ID to Page URL</dc:title>
<dc:creator>
<cc:Agent>
<dc:title>Sarah White</dc:title>
</cc:Agent>
</dc:creator>
<dc:publisher>
<cc:Agent>
<dc:title>OpenDevise Inc.</dc:title>
</cc:Agent>
</dc:publisher>
<dc:subject>
<rdf:Bag>
<rdf:li>Antora</rdf:li>
<rdf:li>documentation component</rdf:li>
<rdf:li>page ID</rdf:li>
<rdf:li>URL</rdf:li>
<rdf:li>module</rdf:li>
</rdf:Bag>
</dc:subject>
<cc:license rdf:resource="http://creativecommons.org/licenses/by-sa/4.0/"/>
</cc:Work>
<cc:License rdf:about="http://creativecommons.org/licenses/by-sa/4.0/">
<cc:permits rdf:resource="http://creativecommons.org/ns#Reproduction"/>
<cc:permits rdf:resource="http://creativecommons.org/ns#Distribution"/>
<cc:requires rdf:resource="http://creativecommons.org/ns#Notice"/>
<cc:requires rdf:resource="http://creativecommons.org/ns#Attribution"/>
<cc:permits rdf:resource="http://creativecommons.org/ns#DerivativeWorks"/>
<cc:requires rdf:resource="http://creativecommons.org/ns#ShareAlike"/>
</cc:License>
</rdf:RDF>
</metadata>
<g transform="translate(0 -228.09)">
<g>
<rect y="228.09" width="278.63" height="68.907" fill="#fff"/>
<g transform="scale(1 .99998)" stroke-width=".0727px" style="font-feature-settings:normal;font-variant-caps:normal;font-variant-ligatures:normal;font-variant-numeric:normal" aria-label="https://www.your-company.com/hyperlemur/a-module/user-management">
<g fill="#242424">
<path d="m5.046 260.91q0.73021 0 1.1568 0.42656 0.43379 0.41933 0.43379 1.2363v2.2051h-0.69406v-2.1256q0-0.5567-0.2675-0.83866-0.2675-0.28197-0.76636-0.28197-0.56393 0-0.88927 0.33258-0.32534 0.32534-0.32534 0.93988v1.9737h-0.69406v-5.3645h0.69406v2.075q0.2169-0.27474 0.56393-0.42656 0.35426-0.15183 0.78805-0.15183z" style="font-feature-settings:normal;font-variant-caps:normal;font-variant-ligatures:normal;font-variant-numeric:normal"/>
<path d="m10.083 264.56q-0.15183 0.13013-0.37595 0.20243-0.22412 0.0651-0.46271 0.0651-0.57839 0-0.8965-0.31088-0.31811-0.31089-0.31811-0.88927v-2.1039h-0.65069v-0.57115h0.65069v-0.83866h0.69406v0.83866h1.0989v0.57115h-1.0989v2.075q0 0.31088 0.15183 0.47717 0.15906 0.16628 0.44825 0.16628 0.31811 0 0.54224-0.18074z" style="font-feature-settings:normal;font-variant-caps:normal;font-variant-ligatures:normal;font-variant-numeric:normal"/>
<path d="m12.977 264.56q-0.15183 0.13013-0.37595 0.20243-0.22412 0.0651-0.46271 0.0651-0.57839 0-0.8965-0.31088-0.31811-0.31089-0.31811-0.88927v-2.1039h-0.65069v-0.57115h0.65069v-0.83866h0.69406v0.83866h1.0989v0.57115h-1.0989v2.075q0 0.31088 0.15183 0.47717 0.15906 0.16628 0.44825 0.16628 0.31811 0 0.54224-0.18074z" style="font-feature-settings:normal;font-variant-caps:normal;font-variant-ligatures:normal;font-variant-numeric:normal"/>
<path d="m15.848 260.91q0.5567 0 0.99772 0.24581 0.44102 0.24582 0.68683 0.68684 0.25304 0.44102 0.25304 1.0194 0 0.57839-0.25304 1.0266-0.24581 0.44102-0.68683 0.68684-0.44102 0.24581-0.99772 0.24581-0.4121 0-0.75913-0.15906-0.3398-0.15905-0.57839-0.46271v1.981h-0.69406v-5.2344h0.66514v0.6073q0.23136-0.31811 0.58562-0.47717 0.35426-0.16628 0.78082-0.16628zm-0.05784 3.304q0.36872 0 0.65792-0.16628 0.29642-0.17352 0.46271-0.47717 0.17352-0.31088 0.17352-0.70853 0-0.39764-0.17352-0.70129-0.16629-0.31088-0.46271-0.47717-0.28919-0.16629-0.65792-0.16629-0.36149 0-0.65792 0.17352-0.28919 0.16629-0.46271 0.46994-0.16629 0.30365-0.16629 0.70129 0 0.39765 0.16629 0.70853 0.16629 0.30365 0.46271 0.47717 0.29642 0.16628 0.65792 0.16628z" style="font-feature-settings:normal;font-variant-caps:normal;font-variant-ligatures:normal;font-variant-numeric:normal"/>
<path d="m19.844 264.83q-0.46994 0-0.90373-0.12291-0.43379-0.13013-0.6796-0.32534l0.28919-0.54947q0.25304 0.18075 0.61454 0.2892 0.36149 0.10844 0.73021 0.10844 0.91096 0 0.91096-0.52054 0-0.17352-0.12291-0.27474-0.12291-0.10122-0.31088-0.14459-0.18075-0.0506-0.52055-0.10845-0.46271-0.0723-0.75913-0.16629-0.28919-0.094-0.49886-0.31811-0.20966-0.22413-0.20966-0.629 0-0.52055 0.43379-0.83143 0.43379-0.31811 1.164-0.31811 0.38318 0 0.76636 0.094t0.629 0.25304l-0.29642 0.54947q-0.46994-0.30365-1.1062-0.30365-0.44102 0-0.67238 0.14459-0.23136 0.1446-0.23136 0.38318 0 0.18798 0.13014 0.29643 0.13014 0.10844 0.31811 0.15905 0.1952 0.0506 0.54224 0.11568 0.46271 0.0795 0.74467 0.17352 0.28919 0.0867 0.49163 0.30365 0.20244 0.21689 0.20244 0.60731 0 0.52054-0.44825 0.83143-0.44102 0.30365-1.2074 0.30365z" style="font-feature-settings:normal;font-variant-caps:normal;font-variant-ligatures:normal;font-variant-numeric:normal"/>
<path d="m22.54 261.91q-0.20244 0-0.34703-0.13737-0.1446-0.1446-0.1446-0.36149 0-0.20967 0.1446-0.34703 0.1446-0.1446 0.34703-0.1446 0.20244 0 0.3398 0.13737 0.13737 0.13736 0.13737 0.35426 0 0.21689-0.1446 0.36149-0.13737 0.13737-0.33257 0.13737zm0 2.9208q-0.20244 0-0.34703-0.13737-0.1446-0.14459-0.1446-0.36149 0-0.20966 0.1446-0.34703 0.1446-0.1446 0.34703-0.1446 0.20244 0 0.3398 0.13737t0.13737 0.35426q0 0.2169-0.1446 0.36149-0.13737 0.13737-0.33257 0.13737z" style="font-feature-settings:normal;font-variant-caps:normal;font-variant-ligatures:normal;font-variant-numeric:normal"/>
<path d="m25.89 258.69h0.629l-2.3858 6.8105h-0.629z" style="font-feature-settings:normal;font-variant-caps:normal;font-variant-ligatures:normal;font-variant-numeric:normal"/>
<path d="m27.938 258.69h0.629l-2.3858 6.8105h-0.629z" style="font-feature-settings:normal;font-variant-caps:normal;font-variant-ligatures:normal;font-variant-numeric:normal"/>
<path d="m34.54 260.95-1.4315 3.8318h-0.66514l-1.1062-2.9064-1.1206 2.9064h-0.66514l-1.4243-3.8318h0.65792l1.1134 3.051 1.1568-3.051h0.58562l1.1351 3.0654 1.1423-3.0654z" style="font-feature-settings:normal;font-variant-caps:normal;font-variant-ligatures:normal;font-variant-numeric:normal"/>
<path d="m40.98 260.95-1.4315 3.8318h-0.66514l-1.1062-2.9064-1.1206 2.9064h-0.66514l-1.4243-3.8318h0.65792l1.1134 3.051 1.1568-3.051h0.58562l1.1351 3.0654 1.1423-3.0654z" style="font-feature-settings:normal;font-variant-caps:normal;font-variant-ligatures:normal;font-variant-numeric:normal"/>
<path d="m47.419 260.95-1.4315 3.8318h-0.66514l-1.1062-2.9064-1.1206 2.9064h-0.66514l-1.4243-3.8318h0.65792l1.1134 3.051 1.1568-3.051h0.58562l1.1351 3.0654 1.1423-3.0654z" style="font-feature-settings:normal;font-variant-caps:normal;font-variant-ligatures:normal;font-variant-numeric:normal"/>
<path d="m48.042 264.83q-0.20244 0-0.34703-0.13737-0.1446-0.14459-0.1446-0.36149 0-0.20966 0.1446-0.34703 0.1446-0.1446 0.34703-0.1446 0.20244 0 0.3398 0.13737t0.13737 0.35426q0 0.2169-0.1446 0.36149-0.13737 0.13737-0.33257 0.13737z" style="font-feature-settings:normal;font-variant-caps:normal;font-variant-ligatures:normal;font-variant-numeric:normal"/>
<path d="m52.664 260.95-1.8581 4.215q-0.24581 0.58562-0.57839 0.8242-0.32534 0.23859-0.78805 0.23859-0.28196 0-0.54947-0.094-0.26027-0.0868-0.43379-0.26027l0.29642-0.52055q0.29642 0.28196 0.68683 0.28196 0.25304 0 0.41933-0.13736 0.17352-0.13014 0.31088-0.45548l0.12291-0.26751-1.6918-3.8246h0.72298l1.3375 3.0654 1.3231-3.0654z" style="font-feature-settings:normal;font-variant-caps:normal;font-variant-ligatures:normal;font-variant-numeric:normal"/>
<path d="m54.84 264.83q-0.57116 0-1.0266-0.25304-0.45548-0.25305-0.71575-0.69407-0.25304-0.44825-0.25304-1.0122 0-0.56392 0.25304-1.0049 0.26027-0.44825 0.71575-0.69407 0.45548-0.25304 1.0266-0.25304t1.0194 0.25304q0.45548 0.24582 0.70852 0.69407 0.26027 0.44102 0.26027 1.0049 0 0.56393-0.26027 1.0122-0.25304 0.44102-0.70852 0.69407-0.44825 0.25304-1.0194 0.25304zm0-0.60731q0.36872 0 0.65792-0.16628 0.29642-0.17352 0.46271-0.47717 0.16629-0.31088 0.16629-0.70853 0-0.39764-0.16629-0.70129-0.16629-0.31088-0.46271-0.47717-0.28919-0.16629-0.65792-0.16629-0.36872 0-0.66514 0.16629-0.28919 0.16629-0.46271 0.47717-0.16629 0.30365-0.16629 0.70129 0 0.39765 0.16629 0.70853 0.17352 0.30365 0.46271 0.47717 0.29642 0.16628 0.66514 0.16628z" style="font-feature-settings:normal;font-variant-caps:normal;font-variant-ligatures:normal;font-variant-numeric:normal"/>
<path d="m61.36 260.95v3.8318h-0.65792v-0.57839q-0.20966 0.29643-0.5567 0.46271-0.3398 0.15906-0.74467 0.15906-0.76636 0-1.2074-0.41933-0.44102-0.42656-0.44102-1.2508v-2.2051h0.69406v2.1256q0 0.5567 0.2675 0.84589 0.2675 0.28196 0.76636 0.28196 0.54947 0 0.86758-0.33257t0.31811-0.93988v-1.981z" style="font-feature-settings:normal;font-variant-caps:normal;font-variant-ligatures:normal;font-variant-numeric:normal"/>
<path d="m63.354 261.59q0.18075-0.33257 0.53501-0.50609 0.35426-0.17351 0.86035-0.17351v0.67237q-0.05784-7e-3 -0.15906-7e-3 -0.56393 0-0.88927 0.33981-0.31811 0.33257-0.31811 0.95433v1.9087h-0.69406v-3.8318h0.66514z" style="font-feature-settings:normal;font-variant-caps:normal;font-variant-ligatures:normal;font-variant-numeric:normal"/>
<path d="m65.337 262.5h1.9448v0.60008h-1.9448z" style="font-feature-settings:normal;font-variant-caps:normal;font-variant-ligatures:normal;font-variant-numeric:normal"/>
<path d="m70.092 264.83q-0.58562 0-1.0483-0.25304-0.45548-0.25305-0.71575-0.69407-0.26027-0.44825-0.26027-1.0122 0-0.56392 0.26027-1.0049 0.26027-0.44825 0.71575-0.69407 0.46271-0.25304 1.0483-0.25304 0.52055 0 0.92542 0.20966 0.4121 0.20967 0.63623 0.60731l-0.52778 0.3398q-0.18075-0.27473-0.44825-0.4121t-0.59285-0.13737q-0.37595 0-0.6796 0.16629-0.29642 0.16629-0.46994 0.47717-0.16629 0.30365-0.16629 0.70129 0 0.40488 0.16629 0.71576 0.17352 0.30365 0.46994 0.46994 0.30365 0.16628 0.6796 0.16628 0.32534 0 0.59285-0.13736 0.2675-0.13737 0.44825-0.4121l0.52778 0.33257q-0.22412 0.39764-0.63623 0.61453-0.40487 0.20967-0.92542 0.20967z" style="font-feature-settings:normal;font-variant-caps:normal;font-variant-ligatures:normal;font-variant-numeric:normal"/>
<path d="m74.129 264.83q-0.57116 0-1.0266-0.25304-0.45548-0.25305-0.71575-0.69407-0.25304-0.44825-0.25304-1.0122 0-0.56392 0.25304-1.0049 0.26028-0.44825 0.71575-0.69407 0.45548-0.25304 1.0266-0.25304t1.0194 0.25304q0.45548 0.24582 0.70852 0.69407 0.26027 0.44102 0.26027 1.0049 0 0.56393-0.26027 1.0122-0.25304 0.44102-0.70852 0.69407-0.44825 0.25304-1.0194 0.25304zm0-0.60731q0.36872 0 0.65792-0.16628 0.29642-0.17352 0.46271-0.47717 0.16629-0.31088 0.16629-0.70853 0-0.39764-0.16629-0.70129-0.16629-0.31088-0.46271-0.47717-0.28919-0.16629-0.65792-0.16629t-0.66514 0.16629q-0.28919 0.16629-0.46271 0.47717-0.16629 0.30365-0.16629 0.70129 0 0.39765 0.16629 0.70853 0.17352 0.30365 0.46271 0.47717 0.29642 0.16628 0.66514 0.16628z" style="font-feature-settings:normal;font-variant-caps:normal;font-variant-ligatures:normal;font-variant-numeric:normal"/>
<path d="m81.871 260.91q0.72298 0 1.1423 0.41933 0.42656 0.41933 0.42656 1.2435v2.2051h-0.69406v-2.1256q0-0.5567-0.26027-0.83866-0.25304-0.28197-0.73021-0.28197-0.52778 0-0.83866 0.33258-0.31088 0.32534-0.31088 0.93988v1.9737h-0.69406v-2.1256q0-0.5567-0.26027-0.83866-0.25304-0.28197-0.73021-0.28197-0.52778 0-0.83866 0.33258-0.31088 0.32534-0.31088 0.93988v1.9737h-0.69406v-3.8318h0.66514v0.57115q0.20967-0.29642 0.54947-0.44824 0.3398-0.15906 0.77359-0.15906 0.44825 0 0.79528 0.18074 0.34703 0.18075 0.53501 0.52778 0.2169-0.33257 0.60008-0.52055 0.39041-0.18797 0.87481-0.18797z" style="font-feature-settings:normal;font-variant-caps:normal;font-variant-ligatures:normal;font-variant-numeric:normal"/>
<path d="m86.748 260.91q0.5567 0 0.99772 0.24581 0.44102 0.24582 0.68683 0.68684 0.25304 0.44102 0.25304 1.0194 0 0.57839-0.25304 1.0266-0.24581 0.44102-0.68683 0.68684-0.44102 0.24581-0.99772 0.24581-0.4121 0-0.75913-0.15906-0.3398-0.15905-0.57839-0.46271v1.981h-0.69406v-5.2344h0.66514v0.6073q0.23136-0.31811 0.58562-0.47717 0.35426-0.16628 0.78082-0.16628zm-0.05784 3.304q0.36872 0 0.65792-0.16628 0.29642-0.17352 0.46271-0.47717 0.17352-0.31088 0.17352-0.70853 0-0.39764-0.17352-0.70129-0.16629-0.31088-0.46271-0.47717-0.28919-0.16629-0.65792-0.16629-0.36149 0-0.65792 0.17352-0.28919 0.16629-0.46271 0.46994-0.16629 0.30365-0.16629 0.70129 0 0.39765 0.16629 0.70853 0.16629 0.30365 0.46271 0.47717 0.29642 0.16628 0.65792 0.16628z" style="font-feature-settings:normal;font-variant-caps:normal;font-variant-ligatures:normal;font-variant-numeric:normal"/>
<path d="m90.998 260.91q0.79528 0 1.2146 0.39041 0.42656 0.39041 0.42656 1.164v2.3136h-0.65792v-0.50609q-0.17352 0.26751-0.49886 0.4121-0.31811 0.13737-0.75913 0.13737-0.64346 0-1.0339-0.31088-0.38318-0.31089-0.38318-0.81697 0-0.50609 0.36872-0.80975 0.36872-0.31088 1.1712-0.31088h1.0989v-0.13737q0-0.44825-0.26027-0.68683t-0.76636-0.23858q-0.3398 0-0.66514 0.11567-0.32534 0.10845-0.54947 0.29643l-0.28919-0.52055q0.29642-0.23859 0.70852-0.36149 0.4121-0.13014 0.87481-0.13014zm-0.15906 3.3763q0.39764 0 0.68684-0.17351 0.28919-0.18075 0.41933-0.50609v-0.53501h-1.07q-0.88204 0-0.88204 0.59285 0 0.28919 0.22412 0.45548 0.22412 0.16628 0.62177 0.16628z" style="font-feature-settings:normal;font-variant-caps:normal;font-variant-ligatures:normal;font-variant-numeric:normal"/>
<path d="m95.97 260.91q0.73021 0 1.1568 0.42656 0.43379 0.41933 0.43379 1.2363v2.2051h-0.69406v-2.1256q0-0.5567-0.2675-0.83866-0.2675-0.28197-0.76636-0.28197-0.56393 0-0.88927 0.33258-0.32534 0.32534-0.32534 0.93988v1.9737h-0.69406v-3.8318h0.66514v0.57838q0.20966-0.29642 0.56393-0.45547 0.36149-0.15906 0.81697-0.15906z" style="font-feature-settings:normal;font-variant-caps:normal;font-variant-ligatures:normal;font-variant-numeric:normal"/>
<path d="m102.17 260.95-1.8581 4.215q-0.24582 0.58562-0.57839 0.8242-0.32534 0.23859-0.78805 0.23859-0.28196 0-0.54947-0.094-0.26027-0.0868-0.43379-0.26027l0.29642-0.52055q0.29642 0.28196 0.68683 0.28196 0.25304 0 0.41933-0.13736 0.17352-0.13014 0.31088-0.45548l0.12291-0.26751-1.6918-3.8246h0.72298l1.3375 3.0654 1.3231-3.0654z" style="font-feature-settings:normal;font-variant-caps:normal;font-variant-ligatures:normal;font-variant-numeric:normal"/>
<path d="m102.75 264.83q-0.20243 0-0.34703-0.13737-0.1446-0.14459-0.1446-0.36149 0-0.20966 0.1446-0.34703 0.1446-0.1446 0.34703-0.1446 0.20244 0 0.33981 0.13737 0.13736 0.13737 0.13736 0.35426 0 0.2169-0.14459 0.36149-0.13737 0.13737-0.33258 0.13737z" style="font-feature-settings:normal;font-variant-caps:normal;font-variant-ligatures:normal;font-variant-numeric:normal"/>
<path d="m105.8 264.83q-0.58562 0-1.0483-0.25304-0.45548-0.25305-0.71575-0.69407-0.26027-0.44825-0.26027-1.0122 0-0.56392 0.26027-1.0049 0.26027-0.44825 0.71575-0.69407 0.46271-0.25304 1.0483-0.25304 0.52055 0 0.92542 0.20966 0.4121 0.20967 0.63623 0.60731l-0.52778 0.3398q-0.18075-0.27473-0.44825-0.4121-0.26751-0.13737-0.59285-0.13737-0.37595 0-0.6796 0.16629-0.29643 0.16629-0.46994 0.47717-0.16629 0.30365-0.16629 0.70129 0 0.40488 0.16629 0.71576 0.17351 0.30365 0.46994 0.46994 0.30365 0.16628 0.6796 0.16628 0.32534 0 0.59285-0.13736 0.2675-0.13737 0.44825-0.4121l0.52778 0.33257q-0.22413 0.39764-0.63623 0.61453-0.40487 0.20967-0.92542 0.20967z" style="font-feature-settings:normal;font-variant-caps:normal;font-variant-ligatures:normal;font-variant-numeric:normal"/>
<path d="m109.84 264.83q-0.57116 0-1.0266-0.25304-0.45548-0.25305-0.71575-0.69407-0.25304-0.44825-0.25304-1.0122 0-0.56392 0.25304-1.0049 0.26027-0.44825 0.71575-0.69407 0.45548-0.25304 1.0266-0.25304t1.0194 0.25304q0.45548 0.24582 0.70852 0.69407 0.26028 0.44102 0.26028 1.0049 0 0.56393-0.26028 1.0122-0.25304 0.44102-0.70852 0.69407-0.44825 0.25304-1.0194 0.25304zm0-0.60731q0.36872 0 0.65792-0.16628 0.29642-0.17352 0.46271-0.47717 0.16628-0.31088 0.16628-0.70853 0-0.39764-0.16628-0.70129-0.16629-0.31088-0.46271-0.47717-0.2892-0.16629-0.65792-0.16629t-0.66514 0.16629q-0.2892 0.16629-0.46271 0.47717-0.16629 0.30365-0.16629 0.70129 0 0.39765 0.16629 0.70853 0.17351 0.30365 0.46271 0.47717 0.29642 0.16628 0.66514 0.16628z" style="font-feature-settings:normal;font-variant-caps:normal;font-variant-ligatures:normal;font-variant-numeric:normal"/>
<path d="m117.58 260.91q0.72298 0 1.1423 0.41933 0.42656 0.41933 0.42656 1.2435v2.2051h-0.69406v-2.1256q0-0.5567-0.26028-0.83866-0.25304-0.28197-0.73021-0.28197-0.52778 0-0.83866 0.33258-0.31088 0.32534-0.31088 0.93988v1.9737h-0.69407v-2.1256q0-0.5567-0.26027-0.83866-0.25305-0.28197-0.73021-0.28197-0.52778 0-0.83867 0.33258-0.31088 0.32534-0.31088 0.93988v1.9737h-0.69406v-3.8318h0.66514v0.57115q0.20967-0.29642 0.54947-0.44824 0.3398-0.15906 0.77359-0.15906 0.44825 0 0.79528 0.18074 0.34704 0.18075 0.53501 0.52778 0.2169-0.33257 0.60008-0.52055 0.39041-0.18797 0.87481-0.18797z" style="font-feature-settings:normal;font-variant-caps:normal;font-variant-ligatures:normal;font-variant-numeric:normal"/>
<path d="m121.95 258.69h0.62899l-2.3858 6.8105h-0.629z" style="font-feature-settings:normal;font-variant-caps:normal;font-variant-ligatures:normal;font-variant-numeric:normal"/>
</g>
<g fill="#9340a4">
<path d="m125.02 260.91q0.73022 0 1.1568 0.42656 0.43379 0.41933 0.43379 1.2363v2.2051h-0.69407v-2.1256q0-0.5567-0.2675-0.83866-0.2675-0.28197-0.76636-0.28197-0.56393 0-0.88927 0.33258-0.32535 0.32534-0.32535 0.93988v1.9737h-0.69406v-5.3645h0.69406v2.075q0.2169-0.27474 0.56393-0.42656 0.35426-0.15183 0.78805-0.15183z"/>
<path d="m131.22 260.95-1.8581 4.215q-0.24581 0.58562-0.57839 0.8242-0.32534 0.23859-0.78805 0.23859-0.28196 0-0.54947-0.094-0.26027-0.0868-0.43379-0.26027l0.29643-0.52055q0.29642 0.28196 0.68683 0.28196 0.25305 0 0.41933-0.13736 0.17352-0.13014 0.31088-0.45548l0.12291-0.26751-1.6918-3.8246h0.72298l1.3375 3.0654 1.3231-3.0654z"/>
<path d="m133.9 260.91q0.5567 0 0.99772 0.24581 0.44102 0.24582 0.68684 0.68684 0.25304 0.44102 0.25304 1.0194 0 0.57839-0.25304 1.0266-0.24582 0.44102-0.68684 0.68684-0.44102 0.24581-0.99772 0.24581-0.4121 0-0.75913-0.15906-0.3398-0.15905-0.57839-0.46271v1.981h-0.69406v-5.2344h0.66515v0.6073q0.23135-0.31811 0.58561-0.47717 0.35426-0.16628 0.78082-0.16628zm-0.0578 3.304q0.36872 0 0.65791-0.16628 0.29642-0.17352 0.46271-0.47717 0.17352-0.31088 0.17352-0.70853 0-0.39764-0.17352-0.70129-0.16629-0.31088-0.46271-0.47717-0.28919-0.16629-0.65791-0.16629-0.3615 0-0.65792 0.17352-0.28919 0.16629-0.46271 0.46994-0.16628 0.30365-0.16628 0.70129 0 0.39765 0.16628 0.70853 0.16629 0.30365 0.46271 0.47717 0.29642 0.16628 0.65792 0.16628z"/>
<path d="m140.26 262.89q0 0.0795-0.0145 0.20967h-3.1088q0.0651 0.50609 0.44102 0.81697 0.38319 0.30365 0.94711 0.30365 0.68684 0 1.1062-0.46271l0.38318 0.44825q-0.26027 0.30366-0.65069 0.46271-0.38318 0.15906-0.86035 0.15906-0.6073 0-1.0772-0.24581-0.46994-0.25305-0.73022-0.7013-0.25304-0.44825-0.25304-1.0122 0-0.55669 0.24581-1.0049 0.25305-0.44825 0.68684-0.69407 0.44102-0.25304 0.99049-0.25304 0.54946 0 0.97602 0.25304 0.43379 0.24582 0.67238 0.69407 0.24581 0.44825 0.24581 1.0266zm-1.8942-1.3881q-0.49886 0-0.83866 0.30365-0.33258 0.30365-0.39042 0.79528h2.4582q-0.0578-0.4844-0.39764-0.78805-0.33257-0.31088-0.83143-0.31088z"/>
<path d="m141.88 261.59q0.18074-0.33257 0.535-0.50609 0.35427-0.17351 0.86036-0.17351v0.67237q-0.0578-7e-3 -0.15906-7e-3 -0.56393 0-0.88927 0.33981-0.31811 0.33257-0.31811 0.95433v1.9087h-0.69407v-3.8318h0.66515z"/>
<path d="m144.12 259.42h0.69406v5.3645h-0.69406z"/>
<path d="m149.61 262.89q0 0.0795-0.0145 0.20967h-3.1088q0.0651 0.50609 0.44102 0.81697 0.38318 0.30365 0.94711 0.30365 0.68683 0 1.1062-0.46271l0.38319 0.44825q-0.26028 0.30366-0.65069 0.46271-0.38318 0.15906-0.86035 0.15906-0.60731 0-1.0772-0.24581-0.46994-0.25305-0.73021-0.7013-0.25304-0.44825-0.25304-1.0122 0-0.55669 0.24581-1.0049 0.25305-0.44825 0.68684-0.69407 0.44102-0.25304 0.99048-0.25304 0.54947 0 0.97603 0.25304 0.43379 0.24582 0.67238 0.69407 0.24581 0.44825 0.24581 1.0266zm-1.8942-1.3881q-0.49886 0-0.83866 0.30365-0.33257 0.30365-0.39041 0.79528h2.4582q-0.0578-0.4844-0.39765-0.78805-0.33257-0.31088-0.83143-0.31088z"/>
<path d="m155.36 260.91q0.72298 0 1.1423 0.41933 0.42656 0.41933 0.42656 1.2435v2.2051h-0.69406v-2.1256q0-0.5567-0.26027-0.83866-0.25305-0.28197-0.73022-0.28197-0.52778 0-0.83866 0.33258-0.31088 0.32534-0.31088 0.93988v1.9737h-0.69407v-2.1256q0-0.5567-0.26027-0.83866-0.25304-0.28197-0.73021-0.28197-0.52778 0-0.83866 0.33258-0.31089 0.32534-0.31089 0.93988v1.9737h-0.69406v-3.8318h0.66514v0.57115q0.20967-0.29642 0.54947-0.44824 0.3398-0.15906 0.77359-0.15906 0.44825 0 0.79529 0.18074 0.34703 0.18075 0.535 0.52778 0.2169-0.33257 0.60008-0.52055 0.39041-0.18797 0.87481-0.18797z"/>
<path d="m161.77 260.95v3.8318h-0.65791v-0.57839q-0.20967 0.29643-0.5567 0.46271-0.3398 0.15906-0.74468 0.15906-0.76636 0-1.2074-0.41933-0.44102-0.42656-0.44102-1.2508v-2.2051h0.69407v2.1256q0 0.5567 0.2675 0.84589 0.2675 0.28196 0.76636 0.28196 0.54947 0 0.86758-0.33257 0.31812-0.33257 0.31812-0.93988v-1.981z"/>
<path d="m163.77 261.59q0.18074-0.33257 0.53501-0.50609 0.35426-0.17351 0.86035-0.17351v0.67237q-0.0578-7e-3 -0.15906-7e-3 -0.56393 0-0.88927 0.33981-0.31811 0.33257-0.31811 0.95433v1.9087h-0.69407v-3.8318h0.66515z"/>
</g>
<path d="m167.59 258.69h0.629l-2.3858 6.8105h-0.62899z" fill="#242424" style="font-feature-settings:normal;font-variant-caps:normal;font-variant-ligatures:normal;font-variant-numeric:normal"/>
<g fill="#b91d5e">
<path d="m170 260.91q0.79528 0 1.2146 0.39041 0.42656 0.39041 0.42656 1.164v2.3136h-0.65792v-0.50609q-0.17352 0.26751-0.49886 0.4121-0.31811 0.13737-0.75913 0.13737-0.64346 0-1.0339-0.31088-0.38318-0.31089-0.38318-0.81697 0-0.50609 0.36872-0.80975 0.36872-0.31088 1.1712-0.31088h1.0989v-0.13737q0-0.44825-0.26027-0.68683-0.26028-0.23858-0.76637-0.23858-0.3398 0-0.66514 0.11567-0.32534 0.10845-0.54947 0.29643l-0.28919-0.52055q0.29642-0.23859 0.70852-0.36149 0.4121-0.13014 0.87481-0.13014zm-0.15905 3.3763q0.39764 0 0.68683-0.17351 0.28919-0.18075 0.41933-0.50609v-0.53501h-1.07q-0.88204 0-0.88204 0.59285 0 0.28919 0.22412 0.45548 0.22413 0.16628 0.62177 0.16628z"/>
<path d="m172.68 262.5h1.9448v0.60008h-1.9448z"/>
<path d="m180.49 260.91q0.72298 0 1.1423 0.41933 0.42656 0.41933 0.42656 1.2435v2.2051h-0.69406v-2.1256q0-0.5567-0.26027-0.83866-0.25305-0.28197-0.73022-0.28197-0.52778 0-0.83866 0.33258-0.31088 0.32534-0.31088 0.93988v1.9737h-0.69407v-2.1256q0-0.5567-0.26027-0.83866-0.25305-0.28197-0.73021-0.28197-0.52778 0-0.83867 0.33258-0.31088 0.32534-0.31088 0.93988v1.9737h-0.69406v-3.8318h0.66514v0.57115q0.20967-0.29642 0.54947-0.44824 0.3398-0.15906 0.77359-0.15906 0.44825 0 0.79528 0.18074 0.34704 0.18075 0.53501 0.52778 0.2169-0.33257 0.60008-0.52055 0.39041-0.18797 0.87481-0.18797z"/>
<path d="m185.01 264.83q-0.57116 0-1.0266-0.25304-0.45548-0.25305-0.71575-0.69407-0.25305-0.44825-0.25305-1.0122 0-0.56392 0.25305-1.0049 0.26027-0.44825 0.71575-0.69407 0.45548-0.25304 1.0266-0.25304 0.57115 0 1.0194 0.25304 0.45548 0.24582 0.70853 0.69407 0.26027 0.44102 0.26027 1.0049 0 0.56393-0.26027 1.0122-0.25305 0.44102-0.70853 0.69407-0.44825 0.25304-1.0194 0.25304zm0-0.60731q0.36872 0 0.65791-0.16628 0.29643-0.17352 0.46271-0.47717 0.16629-0.31088 0.16629-0.70853 0-0.39764-0.16629-0.70129-0.16628-0.31088-0.46271-0.47717-0.28919-0.16629-0.65791-0.16629t-0.66515 0.16629q-0.28919 0.16629-0.46271 0.47717-0.16628 0.30365-0.16628 0.70129 0 0.39765 0.16628 0.70853 0.17352 0.30365 0.46271 0.47717 0.29643 0.16628 0.66515 0.16628z"/>
<path d="m191.57 259.42v5.3645h-0.66514v-0.60731q-0.23136 0.31812-0.58562 0.4844-0.35426 0.16629-0.78082 0.16629-0.5567 0-0.99772-0.24581-0.44102-0.24582-0.69406-0.68684-0.24582-0.44825-0.24582-1.0266 0-0.57838 0.24582-1.0194 0.25304-0.44102 0.69406-0.68684 0.44102-0.24581 0.99772-0.24581 0.4121 0 0.75913 0.15906 0.34703 0.15182 0.57839 0.45547v-2.1111zm-1.9737 4.8006q0.36149 0 0.65791-0.16628 0.29642-0.17352 0.46271-0.47717 0.16629-0.31088 0.16629-0.70853 0-0.39764-0.16629-0.70129-0.16629-0.31088-0.46271-0.47717t-0.65791-0.16629q-0.36873 0-0.66515 0.16629-0.28919 0.16629-0.46271 0.47717-0.16628 0.30365-0.16628 0.70129 0 0.39765 0.16628 0.70853 0.17352 0.30365 0.46271 0.47717 0.29642 0.16628 0.66515 0.16628z"/>
<path d="m196.45 260.95v3.8318h-0.65792v-0.57839q-0.20966 0.29643-0.55669 0.46271-0.33981 0.15906-0.74468 0.15906-0.76636 0-1.2074-0.41933-0.44102-0.42656-0.44102-1.2508v-2.2051h0.69406v2.1256q0 0.5567 0.26751 0.84589 0.2675 0.28196 0.76636 0.28196 0.54947 0 0.86758-0.33257t0.31811-0.93988v-1.981z"/>
<path d="m197.78 259.42h0.69406v5.3645h-0.69406z"/>
<path d="m203.26 262.89q0 0.0795-0.0145 0.20967h-3.1088q0.0651 0.50609 0.44102 0.81697 0.38318 0.30365 0.9471 0.30365 0.68684 0 1.1062-0.46271l0.38318 0.44825q-0.26027 0.30366-0.65068 0.46271-0.38319 0.15906-0.86035 0.15906-0.60731 0-1.0772-0.24581-0.46994-0.25305-0.73021-0.7013-0.25305-0.44825-0.25305-1.0122 0-0.55669 0.24582-1.0049 0.25304-0.44825 0.68683-0.69407 0.44102-0.25304 0.99049-0.25304t0.97603 0.25304q0.43379 0.24582 0.67237 0.69407 0.24582 0.44825 0.24582 1.0266zm-1.8942-1.3881q-0.49886 0-0.83866 0.30365-0.33258 0.30365-0.39041 0.79528h2.4581q-0.0578-0.4844-0.39764-0.78805-0.33257-0.31088-0.83143-0.31088z"/>
</g>
<path d="m205.75 258.69h0.629l-2.3858 6.8105h-0.62899z" fill="#242424" style="font-feature-settings:normal;font-variant-caps:normal;font-variant-ligatures:normal;font-variant-numeric:normal"/>
<g fill="#199d4a">
<path d="m210.33 260.95v3.8318h-0.65791v-0.57839q-0.20967 0.29643-0.5567 0.46271-0.3398 0.15906-0.74467 0.15906-0.76637 0-1.2074-0.41933-0.44102-0.42656-0.44102-1.2508v-2.2051h0.69407v2.1256q0 0.5567 0.2675 0.84589 0.2675 0.28196 0.76636 0.28196 0.54947 0 0.86758-0.33257 0.31812-0.33257 0.31812-0.93988v-1.981z"/>
<path d="m212.76 264.83q-0.46994 0-0.90373-0.12291-0.43379-0.13013-0.6796-0.32534l0.28919-0.54947q0.25304 0.18075 0.61453 0.2892 0.3615 0.10844 0.73022 0.10844 0.91096 0 0.91096-0.52054 0-0.17352-0.12291-0.27474t-0.31088-0.14459q-0.18075-0.0506-0.52055-0.10845-0.46271-0.0723-0.75913-0.16629-0.2892-0.094-0.49886-0.31811-0.20967-0.22413-0.20967-0.629 0-0.52055 0.43379-0.83143 0.43379-0.31811 1.164-0.31811 0.38318 0 0.76636 0.094t0.62899 0.25304l-0.29642 0.54947q-0.46994-0.30365-1.1062-0.30365-0.44102 0-0.67238 0.14459-0.23135 0.1446-0.23135 0.38318 0 0.18798 0.13013 0.29643 0.13014 0.10844 0.31812 0.15905 0.1952 0.0506 0.54223 0.11568 0.46271 0.0795 0.74468 0.17352 0.28919 0.0867 0.49163 0.30365 0.20243 0.21689 0.20243 0.60731 0 0.52054-0.44825 0.83143-0.44102 0.30365-1.2074 0.30365z"/>
<path d="m218.75 262.89q0 0.0795-0.0145 0.20967h-3.1088q0.0651 0.50609 0.44102 0.81697 0.38318 0.30365 0.94711 0.30365 0.68683 0 1.1062-0.46271l0.38318 0.44825q-0.26027 0.30366-0.65068 0.46271-0.38318 0.15906-0.86035 0.15906-0.60731 0-1.0772-0.24581-0.46994-0.25305-0.73021-0.7013-0.25304-0.44825-0.25304-1.0122 0-0.55669 0.24581-1.0049 0.25304-0.44825 0.68683-0.69407 0.44102-0.25304 0.99049-0.25304t0.97603 0.25304q0.43379 0.24582 0.67237 0.69407 0.24582 0.44825 0.24582 1.0266zm-1.8942-1.3881q-0.49886 0-0.83866 0.30365-0.33257 0.30365-0.39041 0.79528h2.4581q-0.0578-0.4844-0.39764-0.78805-0.33257-0.31088-0.83143-0.31088z"/>
<path d="m220.38 261.59q0.18075-0.33257 0.53501-0.50609 0.35426-0.17351 0.86035-0.17351v0.67237q-0.0578-7e-3 -0.15906-7e-3 -0.56392 0-0.88927 0.33981-0.31811 0.33257-0.31811 0.95433v1.9087h-0.69406v-3.8318h0.66514z"/>
<path d="m222.36 262.5h1.9448v0.60008h-1.9448z"/>
<path d="m230.17 260.91q0.72298 0 1.1423 0.41933 0.42656 0.41933 0.42656 1.2435v2.2051h-0.69406v-2.1256q0-0.5567-0.26028-0.83866-0.25304-0.28197-0.73021-0.28197-0.52778 0-0.83866 0.33258-0.31088 0.32534-0.31088 0.93988v1.9737h-0.69407v-2.1256q0-0.5567-0.26027-0.83866-0.25305-0.28197-0.73021-0.28197-0.52778 0-0.83867 0.33258-0.31088 0.32534-0.31088 0.93988v1.9737h-0.69406v-3.8318h0.66514v0.57115q0.20967-0.29642 0.54947-0.44824 0.3398-0.15906 0.77359-0.15906 0.44825 0 0.79528 0.18074 0.34704 0.18075 0.53501 0.52778 0.2169-0.33257 0.60008-0.52055 0.39041-0.18797 0.87481-0.18797z"/>
<path d="m234.41 260.91q0.79528 0 1.2146 0.39041 0.42656 0.39041 0.42656 1.164v2.3136h-0.65791v-0.50609q-0.17352 0.26751-0.49886 0.4121-0.31811 0.13737-0.75913 0.13737-0.64346 0-1.0339-0.31088-0.38318-0.31089-0.38318-0.81697 0-0.50609 0.36872-0.80975 0.36872-0.31088 1.1712-0.31088h1.0989v-0.13737q0-0.44825-0.26028-0.68683-0.26027-0.23858-0.76636-0.23858-0.3398 0-0.66514 0.11567-0.32535 0.10845-0.54947 0.29643l-0.2892-0.52055q0.29643-0.23859 0.70853-0.36149 0.4121-0.13014 0.87481-0.13014zm-0.15906 3.3763q0.39764 0 0.68684-0.17351 0.28919-0.18075 0.41933-0.50609v-0.53501h-1.07q-0.88204 0-0.88204 0.59285 0 0.28919 0.22413 0.45548 0.22412 0.16628 0.62176 0.16628z"/>
<path d="m239.38 260.91q0.73021 0 1.1568 0.42656 0.43379 0.41933 0.43379 1.2363v2.2051h-0.69406v-2.1256q0-0.5567-0.26751-0.83866-0.2675-0.28197-0.76636-0.28197-0.56393 0-0.88927 0.33258-0.32534 0.32534-0.32534 0.93988v1.9737h-0.69407v-3.8318h0.66515v0.57838q0.20966-0.29642 0.56393-0.45547 0.36149-0.15906 0.81697-0.15906z"/>
<path d="m243.66 260.91q0.79529 0 1.2146 0.39041 0.42656 0.39041 0.42656 1.164v2.3136h-0.65792v-0.50609q-0.17351 0.26751-0.49886 0.4121-0.31811 0.13737-0.75913 0.13737-0.64346 0-1.0339-0.31088-0.38318-0.31089-0.38318-0.81697 0-0.50609 0.36872-0.80975 0.36873-0.31088 1.1712-0.31088h1.0989v-0.13737q0-0.44825-0.26027-0.68683-0.26028-0.23858-0.76636-0.23858-0.33981 0-0.66515 0.11567-0.32534 0.10845-0.54947 0.29643l-0.28919-0.52055q0.29642-0.23859 0.70852-0.36149 0.4121-0.13014 0.87481-0.13014zm-0.15905 3.3763q0.39764 0 0.68683-0.17351 0.2892-0.18075 0.41933-0.50609v-0.53501h-1.07q-0.88204 0-0.88204 0.59285 0 0.28919 0.22412 0.45548 0.22413 0.16628 0.62177 0.16628z"/>
<path d="m250.28 260.95v3.3113q0 1.005-0.49886 1.4821-0.49886 0.4844-1.4894 0.4844-0.54223 0-1.0339-0.15183-0.49163-0.14459-0.79528-0.41933l0.33257-0.53501q0.2675 0.23136 0.65791 0.3615 0.39764 0.13736 0.81698 0.13736 0.67237 0 0.99048-0.31811 0.32535-0.31811 0.32535-0.9688v-0.30365q-0.24582 0.29642-0.60731 0.44825-0.35426 0.14459-0.77359 0.14459-0.54947 0-0.99772-0.23135-0.44102-0.23858-0.69406-0.65792-0.25305-0.42656-0.25305-0.96879 0-0.54224 0.25305-0.96157 0.25304-0.42656 0.69406-0.65792 0.44825-0.23135 0.99772-0.23135 0.43379 0 0.80251 0.15906 0.37595 0.15905 0.61453 0.46993v-0.59284zm-1.9954 3.0654q0.37595 0 0.67237-0.15906 0.30365-0.15905 0.46994-0.44102 0.17352-0.28919 0.17352-0.65068 0-0.5567-0.36873-0.8965-0.36872-0.34704-0.9471-0.34704-0.58562 0-0.95434 0.34704-0.36872 0.3398-0.36872 0.8965 0 0.36149 0.16628 0.65068 0.17352 0.28197 0.46994 0.44102 0.30365 0.15906 0.68684 0.15906z"/>
<path d="m255.06 262.89q0 0.0795-0.0145 0.20967h-3.1088q0.0651 0.50609 0.44102 0.81697 0.38318 0.30365 0.94711 0.30365 0.68683 0 1.1062-0.46271l0.38318 0.44825q-0.26027 0.30366-0.65068 0.46271-0.38318 0.15906-0.86035 0.15906-0.60731 0-1.0772-0.24581-0.46994-0.25305-0.73021-0.7013-0.25304-0.44825-0.25304-1.0122 0-0.55669 0.24581-1.0049 0.25304-0.44825 0.68683-0.69407 0.44102-0.25304 0.99049-0.25304t0.97603 0.25304q0.43379 0.24582 0.67237 0.69407 0.24582 0.44825 0.24582 1.0266zm-1.8942-1.3881q-0.49886 0-0.83866 0.30365-0.33257 0.30365-0.39041 0.79528h2.4581q-0.0578-0.4844-0.39764-0.78805-0.33257-0.31088-0.83143-0.31088z"/>
<path d="m260.81 260.91q0.72298 0 1.1423 0.41933 0.42656 0.41933 0.42656 1.2435v2.2051h-0.69406v-2.1256q0-0.5567-0.26028-0.83866-0.25304-0.28197-0.73021-0.28197-0.52778 0-0.83866 0.33258-0.31088 0.32534-0.31088 0.93988v1.9737h-0.69407v-2.1256q0-0.5567-0.26027-0.83866-0.25305-0.28197-0.73021-0.28197-0.52778 0-0.83867 0.33258-0.31088 0.32534-0.31088 0.93988v1.9737h-0.69406v-3.8318h0.66514v0.57115q0.20967-0.29642 0.54947-0.44824 0.3398-0.15906 0.77359-0.15906 0.44825 0 0.79528 0.18074 0.34704 0.18075 0.53501 0.52778 0.2169-0.33257 0.60008-0.52055 0.39041-0.18797 0.87481-0.18797z"/>
<path d="m267.15 262.89q0 0.0795-0.0145 0.20967h-3.1088q0.0651 0.50609 0.44102 0.81697 0.38318 0.30365 0.94711 0.30365 0.68683 0 1.1062-0.46271l0.38318 0.44825q-0.26027 0.30366-0.65068 0.46271-0.38318 0.15906-0.86035 0.15906-0.60731 0-1.0772-0.24581-0.46994-0.25305-0.73021-0.7013-0.25305-0.44825-0.25305-1.0122 0-0.55669 0.24582-1.0049 0.25304-0.44825 0.68683-0.69407 0.44102-0.25304 0.99049-0.25304t0.97603 0.25304q0.43379 0.24582 0.67237 0.69407 0.24582 0.44825 0.24582 1.0266zm-1.8942-1.3881q-0.49886 0-0.83866 0.30365-0.33257 0.30365-0.39041 0.79528h2.4581q-0.0578-0.4844-0.39764-0.78805-0.33257-0.31088-0.83143-0.31088z"/>
<path d="m270.15 260.91q0.73021 0 1.1568 0.42656 0.43379 0.41933 0.43379 1.2363v2.2051h-0.69406v-2.1256q0-0.5567-0.26751-0.83866-0.2675-0.28197-0.76636-0.28197-0.56393 0-0.88927 0.33258-0.32534 0.32534-0.32534 0.93988v1.9737h-0.69407v-3.8318h0.66515v0.57838q0.20966-0.29642 0.56393-0.45547 0.36149-0.15906 0.81697-0.15906z"/>
<path d="m275.19 264.56q-0.15183 0.13013-0.37595 0.20243-0.22413 0.0651-0.46271 0.0651-0.57839 0-0.8965-0.31088-0.31812-0.31089-0.31812-0.88927v-2.1039h-0.65068v-0.57115h0.65068v-0.83866h0.69407v0.83866h1.0989v0.57115h-1.0989v2.075q0 0.31088 0.15182 0.47717 0.15906 0.16628 0.44825 0.16628 0.31812 0 0.54224-0.18074z"/>
</g>
</g>
<g fill="#9340a4" stroke-width=".0727px" style="font-feature-settings:normal;font-variant-caps:normal;font-variant-ligatures:normal;font-variant-numeric:normal" aria-label="name of  component">
<path d="m133.87 282.59q0.58223 0 0.92235 0.34012 0.34588 0.33435 0.34588 0.98576v1.7582h-0.55341v-1.6948q0-0.44388-0.21329-0.6687-0.2133-0.22482-0.61106-0.22482-0.44965 0-0.70906 0.26517-0.25941 0.25941-0.25941 0.74941v1.5738h-0.55341v-3.0553h0.53035v0.46117q0.16718-0.23635 0.44965-0.36317 0.28823-0.12683 0.65141-0.12683z" style="font-feature-settings:normal;font-variant-caps:normal;font-variant-ligatures:normal;font-variant-numeric:normal"/>
<path d="m137.28 282.59q0.63412 0 0.96847 0.3113 0.34012 0.31129 0.34012 0.92811v1.8447h-0.52459v-0.40353q-0.13835 0.2133-0.39776 0.32859-0.25365 0.10953-0.6053 0.10953-0.51305 0-0.82435-0.24788-0.30553-0.24788-0.30553-0.65141t0.294-0.64565q0.294-0.24788 0.93388-0.24788h0.87624v-0.10953q0-0.35741-0.20753-0.54764-0.20753-0.19024-0.61106-0.19024-0.27094 0-0.53035 0.0922-0.25941 0.0865-0.43812 0.23635l-0.23059-0.41506q0.23636-0.19023 0.56494-0.28823 0.32859-0.10377 0.69753-0.10377zm-0.12682 2.6921q0.31706 0 0.54764-0.13835 0.23059-0.14412 0.33436-0.40353v-0.42659h-0.85318q-0.70329 0-0.70329 0.47271 0 0.23059 0.17871 0.36317 0.1787 0.13259 0.49576 0.13259z" style="font-feature-settings:normal;font-variant-caps:normal;font-variant-ligatures:normal;font-variant-numeric:normal"/>
<path d="m143.44 282.59q0.57647 0 0.91082 0.33435 0.34012 0.33436 0.34012 0.99153v1.7582h-0.55341v-1.6948q0-0.44388-0.20753-0.6687-0.20177-0.22482-0.58224-0.22482-0.42082 0-0.6687 0.26517-0.24788 0.25941-0.24788 0.74941v1.5738h-0.55341v-1.6948q0-0.44388-0.20753-0.6687-0.20176-0.22482-0.58223-0.22482-0.42083 0-0.66871 0.26517-0.24788 0.25941-0.24788 0.74941v1.5738h-0.55341v-3.0553h0.53035v0.45541q0.16718-0.23636 0.43812-0.35741 0.27094-0.12683 0.61682-0.12683 0.35741 0 0.63412 0.14412 0.2767 0.14412 0.42658 0.42082 0.17294-0.26517 0.47847-0.41506 0.3113-0.14988 0.69753-0.14988z" style="font-feature-settings:normal;font-variant-caps:normal;font-variant-ligatures:normal;font-variant-numeric:normal"/>
<path d="m148.49 284.17q0 0.0634-0.0115 0.16718h-2.4788q0.0519 0.40353 0.35165 0.65141 0.30553 0.24212 0.75517 0.24212 0.54765 0 0.882-0.36894l0.30553 0.35741q-0.20753 0.24211-0.51882 0.36894-0.30553 0.12682-0.686 0.12682-0.48423 0-0.85894-0.196-0.3747-0.20176-0.58223-0.55917-0.20177-0.35742-0.20177-0.80706 0-0.44388 0.196-0.80129 0.20177-0.35741 0.54765-0.55341 0.35164-0.20177 0.78976-0.20177t0.77823 0.20177q0.34589 0.196 0.53612 0.55341 0.196 0.35741 0.196 0.81858zm-1.5104-1.1068q-0.39776 0-0.6687 0.24212-0.26518 0.24212-0.3113 0.63411h1.96q-0.0461-0.38623-0.31706-0.62835-0.26518-0.24788-0.66294-0.24788z" style="font-feature-settings:normal;font-variant-caps:normal;font-variant-ligatures:normal;font-variant-numeric:normal"/>
<path d="m152.11 285.71q-0.45541 0-0.81859-0.20176-0.36317-0.20177-0.5707-0.55341-0.20177-0.35742-0.20177-0.80706 0-0.44965 0.20177-0.80129 0.20753-0.35741 0.5707-0.55341 0.36318-0.20177 0.81859-0.20177t0.81282 0.20177q0.36318 0.196 0.56494 0.55341 0.20753 0.35164 0.20753 0.80129 0 0.44964-0.20753 0.80706-0.20176 0.35164-0.56494 0.55341-0.35741 0.20176-0.81282 0.20176zm0-0.48423q0.294 0 0.52459-0.13259 0.23635-0.13835 0.36894-0.38047 0.13258-0.24788 0.13258-0.56494t-0.13258-0.55918q-0.13259-0.24788-0.36894-0.38047-0.23059-0.13258-0.52459-0.13258t-0.53035 0.13258q-0.23059 0.13259-0.36894 0.38047-0.13259 0.24212-0.13259 0.55918t0.13259 0.56494q0.13835 0.24212 0.36894 0.38047 0.23635 0.13259 0.53035 0.13259z" style="font-feature-settings:normal;font-variant-caps:normal;font-variant-ligatures:normal;font-variant-numeric:normal"/>
<path d="m155.58 281.82q-0.49576 0-0.49576 0.53612v0.26518h0.88776v0.45541h-0.87623v2.5999h-0.55341v-2.5999h-0.51882v-0.45541h0.51882v-0.27094q0-0.45542 0.26517-0.72059 0.26518-0.26518 0.74365-0.26518 0.18447 0 0.34588 0.0461t0.2767 0.13259l-0.16717 0.42082q-0.19024-0.14412-0.42659-0.14412z" style="font-feature-settings:normal;font-variant-caps:normal;font-variant-ligatures:normal;font-variant-numeric:normal"/>
<path d="m128.51 292.92q-0.46694 0-0.83588-0.20176-0.36318-0.20177-0.5707-0.55341-0.20753-0.35741-0.20753-0.80706 0-0.44964 0.20753-0.80129 0.20752-0.35741 0.5707-0.55341 0.36894-0.20177 0.83588-0.20177 0.41506 0 0.73788 0.16718 0.32859 0.16718 0.50729 0.48423l-0.42082 0.27094q-0.14412-0.21905-0.35741-0.32858t-0.4727-0.10953q-0.29977 0-0.54189 0.13259-0.23635 0.13258-0.3747 0.38047-0.13259 0.24211-0.13259 0.55917 0 0.32282 0.13259 0.57071 0.13835 0.24211 0.3747 0.3747 0.24212 0.13259 0.54189 0.13259 0.25941 0 0.4727-0.10953t0.35741-0.32859l0.42082 0.26518q-0.1787 0.31706-0.50729 0.49-0.32282 0.16717-0.73788 0.16717z" style="font-feature-settings:normal;font-variant-caps:normal;font-variant-ligatures:normal;font-variant-numeric:normal"/>
<path d="m131.73 292.92q-0.45541 0-0.81859-0.20176-0.36317-0.20177-0.5707-0.55341-0.20176-0.35741-0.20176-0.80706 0-0.44964 0.20176-0.80129 0.20753-0.35741 0.5707-0.55341 0.36318-0.20177 0.81859-0.20177t0.81282 0.20177q0.36318 0.196 0.56494 0.55341 0.20753 0.35165 0.20753 0.80129 0 0.44965-0.20753 0.80706-0.20176 0.35164-0.56494 0.55341-0.35741 0.20176-0.81282 0.20176zm0-0.48423q0.294 0 0.52459-0.13259 0.23635-0.13835 0.36894-0.38047 0.13258-0.24788 0.13258-0.56494t-0.13258-0.55917q-0.13259-0.24789-0.36894-0.38047-0.23059-0.13259-0.52459-0.13259t-0.53035 0.13259q-0.23059 0.13258-0.36894 0.38047-0.13259 0.24211-0.13259 0.55917t0.13259 0.56494q0.13835 0.24212 0.36894 0.38047 0.23635 0.13259 0.53035 0.13259z" style="font-feature-settings:normal;font-variant-caps:normal;font-variant-ligatures:normal;font-variant-numeric:normal"/>
<path d="m137.91 289.8q0.57647 0 0.91082 0.33436 0.34012 0.33435 0.34012 0.99152v1.7582h-0.55341v-1.6948q0-0.44388-0.20753-0.6687-0.20176-0.22482-0.58223-0.22482-0.42083 0-0.66871 0.26517-0.24788 0.25941-0.24788 0.74941v1.5738h-0.55341v-1.6948q0-0.44388-0.20753-0.6687-0.20176-0.22482-0.58223-0.22482-0.42082 0-0.66871 0.26517-0.24788 0.25941-0.24788 0.74941v1.5738h-0.55341v-3.0553h0.53035v0.45541q0.16718-0.23635 0.43812-0.35741 0.27094-0.12683 0.61682-0.12683 0.35741 0 0.63412 0.14412 0.2767 0.14412 0.42658 0.42082 0.17295-0.26517 0.47847-0.41505 0.3113-0.14989 0.69753-0.14989z" style="font-feature-settings:normal;font-variant-caps:normal;font-variant-ligatures:normal;font-variant-numeric:normal"/>
<path d="m141.8 289.8q0.44388 0 0.79552 0.196 0.35165 0.196 0.54765 0.54765 0.20176 0.35165 0.20176 0.81282 0 0.46118-0.20176 0.81859-0.196 0.35164-0.54765 0.54764-0.35164 0.196-0.79552 0.196-0.32859 0-0.6053-0.12682-0.27094-0.12682-0.46117-0.36894v1.5795h-0.55341v-4.1736h0.53035v0.48423q0.18447-0.25364 0.46694-0.38047 0.28247-0.13259 0.62259-0.13259zm-0.04612 2.6345q0.294 0 0.52458-0.13259 0.23636-0.13835 0.36894-0.38047 0.13836-0.24788 0.13836-0.56494t-0.13836-0.55917q-0.13258-0.24789-0.36894-0.38047-0.23058-0.13259-0.52458-0.13259-0.28824 0-0.52459 0.13835-0.23059 0.13259-0.36894 0.37471-0.13259 0.24211-0.13259 0.55917t0.13259 0.56494q0.13259 0.24212 0.36894 0.38047 0.23635 0.13259 0.52459 0.13259z" style="font-feature-settings:normal;font-variant-caps:normal;font-variant-ligatures:normal;font-variant-numeric:normal"/>
<path d="m145.41 292.92q-0.45541 0-0.81859-0.20176-0.36317-0.20177-0.5707-0.55341-0.20177-0.35741-0.20177-0.80706 0-0.44964 0.20177-0.80129 0.20753-0.35741 0.5707-0.55341 0.36318-0.20177 0.81859-0.20177t0.81282 0.20177q0.36318 0.196 0.56494 0.55341 0.20753 0.35165 0.20753 0.80129 0 0.44965-0.20753 0.80706-0.20176 0.35164-0.56494 0.55341-0.35741 0.20176-0.81282 0.20176zm0-0.48423q0.294 0 0.52459-0.13259 0.23635-0.13835 0.36894-0.38047 0.13258-0.24788 0.13258-0.56494t-0.13258-0.55917q-0.13259-0.24789-0.36894-0.38047-0.23059-0.13259-0.52459-0.13259t-0.53035 0.13259q-0.23059 0.13258-0.36894 0.38047-0.13259 0.24211-0.13259 0.55917t0.13259 0.56494q0.13835 0.24212 0.36894 0.38047 0.23635 0.13259 0.53035 0.13259z" style="font-feature-settings:normal;font-variant-caps:normal;font-variant-ligatures:normal;font-variant-numeric:normal"/>
<path d="m149.4 289.8q0.58223 0 0.92235 0.34012 0.34588 0.33435 0.34588 0.98576v1.7582h-0.55341v-1.6948q0-0.44388-0.21329-0.6687-0.2133-0.22482-0.61106-0.22482-0.44965 0-0.70906 0.26517-0.25941 0.25941-0.25941 0.74941v1.5738h-0.55341v-3.0553h0.53035v0.46117q0.16718-0.23635 0.44965-0.36317 0.28823-0.12683 0.65141-0.12683z" style="font-feature-settings:normal;font-variant-caps:normal;font-variant-ligatures:normal;font-variant-numeric:normal"/>
<path d="m154.48 291.37q0 0.0634-0.0115 0.16718h-2.4788q0.0519 0.40353 0.35164 0.65141 0.30553 0.24212 0.75518 0.24212 0.54764 0 0.882-0.36894l0.30552 0.35741q-0.20752 0.24212-0.51882 0.36894-0.30553 0.12682-0.686 0.12682-0.48423 0-0.85893-0.196-0.37471-0.20176-0.58224-0.55917-0.20176-0.35741-0.20176-0.80706 0-0.44388 0.196-0.80129 0.20176-0.35741 0.54764-0.55341 0.35165-0.20177 0.78977-0.20177 0.43811 0 0.77823 0.20177 0.34588 0.196 0.53611 0.55341 0.196 0.35741 0.196 0.81858zm-1.5103-1.1068q-0.39777 0-0.66871 0.24212-0.26517 0.24212-0.31129 0.63412h1.96q-0.0461-0.38624-0.31706-0.62835-0.26517-0.24789-0.66293-0.24789z" style="font-feature-settings:normal;font-variant-caps:normal;font-variant-ligatures:normal;font-variant-numeric:normal"/>
<path d="m156.87 289.8q0.58223 0 0.92235 0.34012 0.34588 0.33435 0.34588 0.98576v1.7582h-0.55341v-1.6948q0-0.44388-0.21329-0.6687t-0.61106-0.22482q-0.44964 0-0.70905 0.26517-0.25942 0.25941-0.25942 0.74941v1.5738h-0.55341v-3.0553h0.53036v0.46117q0.16717-0.23635 0.44964-0.36317 0.28824-0.12683 0.65141-0.12683z" style="font-feature-settings:normal;font-variant-caps:normal;font-variant-ligatures:normal;font-variant-numeric:normal"/>
<path d="m160.89 292.7q-0.12106 0.10376-0.29977 0.16141-0.1787 0.0519-0.36894 0.0519-0.46117 0-0.71482-0.24788-0.25364-0.24788-0.25364-0.70906v-1.6775h-0.51883v-0.45541h0.51883v-0.66871h0.55341v0.66871h0.87623v0.45541h-0.87623v1.6545q0 0.24789 0.12106 0.38047 0.12682 0.13259 0.35741 0.13259 0.25364 0 0.43235-0.14412z" style="font-feature-settings:normal;font-variant-caps:normal;font-variant-ligatures:normal;font-variant-numeric:normal"/>
</g>
</g>
<g fill="none" stroke="#9340a4" stroke-linecap="round" stroke-linejoin="round">
<path d="m123.23 268.14v5.7034h41.327v-5.7034" stroke-width=".529"/>
<path d="m143.89 274.08v3.2096" stroke-width=".529"/>
<circle cx="143.89" cy="278.06" r=".75117" stroke-dashoffset="72" stroke-width=".529"/>
</g>
<g fill="#242424" stroke-width=".0727px" style="font-feature-settings:normal;font-variant-caps:normal;font-variant-ligatures:normal;font-variant-numeric:normal" aria-label="base URL of site">
<path d="m39.959 238.87q0.44388 0 0.79553 0.196 0.35165 0.19599 0.54765 0.54764 0.20176 0.35165 0.20176 0.81282 0 0.46118-0.20176 0.81859-0.196 0.35164-0.54765 0.54764-0.35165 0.196-0.79553 0.196-0.34012 0-0.62259-0.13259-0.28247-0.13258-0.46694-0.38623v0.48423h-0.53035v-4.2774h0.55341v1.6833q0.18447-0.24211 0.46118-0.36317 0.2767-0.12682 0.60529-0.12682zm-0.04612 2.6345q0.294 0 0.52459-0.13259 0.23635-0.13835 0.36894-0.38047 0.13835-0.24788 0.13835-0.56494t-0.13835-0.55917q-0.13259-0.24788-0.36894-0.38047-0.23059-0.13259-0.52459-0.13259-0.28824 0-0.52459 0.13259t-0.36894 0.38047q-0.13259 0.24211-0.13259 0.55917t0.13259 0.56494q0.13259 0.24212 0.36894 0.38047 0.23635 0.13259 0.52459 0.13259z" style="font-feature-settings:normal;font-variant-caps:normal;font-variant-ligatures:normal;font-variant-numeric:normal"/>
<path d="m43.347 238.87q0.63412 0 0.96847 0.31129 0.34012 0.31129 0.34012 0.92811v1.8447h-0.52459v-0.40352q-0.13835 0.21329-0.39776 0.32858-0.25365 0.10953-0.60529 0.10953-0.51306 0-0.82435-0.24788-0.30553-0.24788-0.30553-0.65141t0.294-0.64564q0.294-0.24789 0.93388-0.24789h0.87623v-0.10952q0-0.35742-0.20753-0.54765-0.20753-0.19024-0.61106-0.19024-0.27094 0-0.53035 0.0922-0.25941 0.0865-0.43812 0.23635l-0.23059-0.41506q0.23635-0.19023 0.56494-0.28823 0.32859-0.10376 0.69753-0.10376zm-0.12682 2.6921q0.31706 0 0.54764-0.13836 0.23059-0.14411 0.33435-0.40353v-0.42658h-0.85317q-0.70329 0-0.70329 0.4727 0 0.23059 0.1787 0.36318 0.17871 0.13259 0.49576 0.13259z" style="font-feature-settings:normal;font-variant-caps:normal;font-variant-ligatures:normal;font-variant-numeric:normal"/>
<path d="m46.556 241.99q-0.3747 0-0.72059-0.098-0.34588-0.10376-0.54188-0.25941l0.23059-0.43811q0.20176 0.14411 0.49 0.23058 0.28823 0.0865 0.58223 0.0865 0.72635 0 0.72635-0.41505 0-0.13836-0.098-0.21906t-0.24788-0.1153q-0.14412-0.0403-0.41506-0.0865-0.36894-0.0576-0.60529-0.13258-0.23059-0.075-0.39776-0.25365-0.16718-0.17871-0.16718-0.50153 0-0.41506 0.34588-0.66294 0.34588-0.25364 0.92812-0.25364 0.30553 0 0.61106 0.0749 0.30553 0.0749 0.50153 0.20176l-0.23635 0.43812q-0.3747-0.24212-0.882-0.24212-0.35165 0-0.53612 0.11529-0.18447 0.1153-0.18447 0.30553 0 0.14988 0.10376 0.23635 0.10376 0.0865 0.25365 0.12683 0.15565 0.0403 0.43235 0.0922 0.36894 0.0634 0.59376 0.13836 0.23059 0.0692 0.392 0.24211 0.16141 0.17294 0.16141 0.48424 0 0.41505-0.35741 0.66294-0.35165 0.24211-0.9627 0.24211z" style="font-feature-settings:normal;font-variant-caps:normal;font-variant-ligatures:normal;font-variant-numeric:normal"/>
<path d="m51.335 240.44q0 0.0634-0.01153 0.16717h-2.4788q0.05188 0.40353 0.35165 0.65141 0.30553 0.24212 0.75517 0.24212 0.54765 0 0.882-0.36894l0.30553 0.35741q-0.20753 0.24212-0.51882 0.36894-0.30553 0.12682-0.686 0.12682-0.48423 0-0.85894-0.196-0.3747-0.20176-0.58223-0.55917-0.20176-0.35741-0.20176-0.80706 0-0.44388 0.196-0.80129 0.20176-0.35741 0.54765-0.55341 0.35165-0.20176 0.78976-0.20176 0.43812 0 0.77823 0.20176 0.34588 0.196 0.53612 0.55341 0.196 0.35741 0.196 0.81859zm-1.5103-1.1068q-0.39776 0-0.6687 0.24211-0.26518 0.24212-0.31129 0.63412h1.96q-0.04612-0.38624-0.31706-0.62835-0.26518-0.24788-0.66294-0.24788z" style="font-feature-settings:normal;font-variant-caps:normal;font-variant-ligatures:normal;font-variant-numeric:normal"/>
<path d="m55.404 242q-0.80706 0-1.2567-0.46117-0.44965-0.46118-0.44965-1.3259v-2.2944h0.57647v2.2713q0 1.297 1.1356 1.297 0.55341 0 0.84741-0.31705 0.294-0.32283 0.294-0.98v-2.2713h0.55918v2.2944q0 0.87047-0.44964 1.3316-0.44965 0.45541-1.2567 0.45541z" style="font-feature-settings:normal;font-variant-caps:normal;font-variant-ligatures:normal;font-variant-numeric:normal"/>
<path d="m60.99 241.95-0.87047-1.2394q-0.16141 0.0115-0.25365 0.0115h-0.99729v1.2279h-0.57647v-4.0352h1.5738q0.784 0 1.2336 0.37471 0.44965 0.3747 0.44965 1.0319 0 0.46694-0.23059 0.79552-0.23059 0.32859-0.65718 0.47847l0.95694 1.3547zm-1.1414-1.7179q0.54764 0 0.83588-0.23636 0.28823-0.23635 0.28823-0.67446 0-0.43812-0.28823-0.66871-0.28824-0.23635-0.83588-0.23635h-0.98v1.8159z" style="font-feature-settings:normal;font-variant-caps:normal;font-variant-ligatures:normal;font-variant-numeric:normal"/>
<path d="m62.481 237.92h0.57647v3.5338h2.1848v0.50152h-2.7613z" style="font-feature-settings:normal;font-variant-caps:normal;font-variant-ligatures:normal;font-variant-numeric:normal"/>
<path d="m68.685 241.99q-0.45541 0-0.81859-0.20176-0.36318-0.20177-0.5707-0.55341-0.20176-0.35741-0.20176-0.80706 0-0.44964 0.20176-0.80129 0.20753-0.35741 0.5707-0.55341 0.36318-0.20176 0.81859-0.20176 0.45541 0 0.81282 0.20176 0.36318 0.196 0.56494 0.55341 0.20753 0.35165 0.20753 0.80129 0 0.44965-0.20753 0.80706-0.20176 0.35164-0.56494 0.55341-0.35741 0.20176-0.81282 0.20176zm0-0.48423q0.294 0 0.52459-0.13259 0.23635-0.13835 0.36894-0.38047 0.13259-0.24788 0.13259-0.56494t-0.13259-0.55917q-0.13259-0.24788-0.36894-0.38047-0.23059-0.13259-0.52459-0.13259-0.294 0-0.53035 0.13259-0.23059 0.13259-0.36894 0.38047-0.13259 0.24211-0.13259 0.55917t0.13259 0.56494q0.13835 0.24212 0.36894 0.38047 0.23635 0.13259 0.53035 0.13259z" style="font-feature-settings:normal;font-variant-caps:normal;font-variant-ligatures:normal;font-variant-numeric:normal"/>
<path d="m72.154 238.1q-0.49576 0-0.49576 0.53611v0.26518h0.88776v0.45541h-0.87623v2.5999h-0.55341v-2.5999h-0.51882v-0.45541h0.51882v-0.27094q0-0.45541 0.26518-0.72059 0.26518-0.26517 0.74364-0.26517 0.18447 0 0.34588 0.0461t0.2767 0.13259l-0.16718 0.42082q-0.19024-0.14411-0.42659-0.14411z" style="font-feature-settings:normal;font-variant-caps:normal;font-variant-ligatures:normal;font-variant-numeric:normal"/>
<path d="m75.504 241.99q-0.3747 0-0.72059-0.098-0.34588-0.10376-0.54188-0.25941l0.23059-0.43811q0.20176 0.14411 0.49 0.23058 0.28824 0.0865 0.58223 0.0865 0.72635 0 0.72635-0.41505 0-0.13836-0.098-0.21906t-0.24788-0.1153q-0.14412-0.0403-0.41506-0.0865-0.36894-0.0576-0.60529-0.13258-0.23059-0.075-0.39776-0.25365-0.16718-0.17871-0.16718-0.50153 0-0.41506 0.34588-0.66294 0.34588-0.25364 0.92812-0.25364 0.30553 0 0.61106 0.0749 0.30553 0.0749 0.50153 0.20176l-0.23635 0.43812q-0.3747-0.24212-0.882-0.24212-0.35165 0-0.53612 0.11529-0.18447 0.1153-0.18447 0.30553 0 0.14988 0.10376 0.23635 0.10376 0.0865 0.25365 0.12683 0.15565 0.0403 0.43235 0.0922 0.36894 0.0634 0.59376 0.13836 0.23059 0.0692 0.392 0.24211 0.16141 0.17294 0.16141 0.48424 0 0.41505-0.35741 0.66294-0.35165 0.24211-0.9627 0.24211z" style="font-feature-settings:normal;font-variant-caps:normal;font-variant-ligatures:normal;font-variant-numeric:normal"/>
<path d="m77.521 238.9h0.55341v3.0553h-0.55341zm0.27671-0.588q-0.16141 0-0.27094-0.10376-0.10376-0.10377-0.10376-0.25365t0.10376-0.25365q0.10953-0.10953 0.27094-0.10953 0.16141 0 0.26518 0.10377 0.10953 0.098 0.10953 0.24788 0 0.15565-0.10953 0.26518-0.10376 0.10376-0.26518 0.10376z" style="font-feature-settings:normal;font-variant-caps:normal;font-variant-ligatures:normal;font-variant-numeric:normal"/>
<path d="m80.849 241.78q-0.12106 0.10376-0.29976 0.16141-0.1787 0.0519-0.36894 0.0519-0.46118 0-0.71482-0.24788-0.25365-0.24788-0.25365-0.70906v-1.6775h-0.51882v-0.45543h0.51882v-0.66871h0.55341v0.66871h0.87623v0.45541h-0.87623v1.6545q0 0.24788 0.12106 0.38047 0.12682 0.13258 0.35741 0.13258 0.25365 0 0.43235-0.14411z" style="font-feature-settings:normal;font-variant-caps:normal;font-variant-ligatures:normal;font-variant-numeric:normal"/>
<path d="m84.178 240.44q0 0.0634-0.01153 0.16717h-2.4788q0.05188 0.40353 0.35165 0.65141 0.30553 0.24212 0.75517 0.24212 0.54765 0 0.882-0.36894l0.30553 0.35741q-0.20753 0.24212-0.51882 0.36894-0.30553 0.12682-0.686 0.12682-0.48423 0-0.85894-0.196-0.3747-0.20176-0.58223-0.55917-0.20176-0.35741-0.20176-0.80706 0-0.44388 0.196-0.80129 0.20176-0.35741 0.54765-0.55341 0.35165-0.20176 0.78976-0.20176 0.43812 0 0.77823 0.20176 0.34588 0.196 0.53612 0.55341 0.196 0.35741 0.196 0.81859zm-1.5103-1.1068q-0.39776 0-0.6687 0.24211-0.26518 0.24212-0.31129 0.63412h1.96q-0.04612-0.38624-0.31706-0.62835-0.26518-0.24788-0.66294-0.24788z" style="font-feature-settings:normal;font-variant-caps:normal;font-variant-ligatures:normal;font-variant-numeric:normal"/>
</g>
<g fill="none" stroke="#242424" stroke-linecap="round" stroke-linejoin="round">
<path d="m3.2645 256.77v-5.7034h115.69v5.7034" stroke-width=".529"/>
<path d="m61.259 250.83v-3.2096" stroke-width=".529"/>
<circle transform="scale(1,-1)" cx="61.259" cy="-246.85" r=".75117" stroke-dashoffset="72" stroke-width=".529"/>
</g>
<g fill="#199d4a" stroke-width=".0727px" style="font-feature-settings:normal;font-variant-caps:normal;font-variant-ligatures:normal;font-variant-numeric:normal" aria-label="name of page">
<path d="m230.84 232.32q0.58223 0 0.92235 0.34012 0.34588 0.33435 0.34588 0.98576v1.7582h-0.55341v-1.6948q0-0.44388-0.21329-0.66871-0.2133-0.22482-0.61106-0.22482-0.44965 0-0.70906 0.26518-0.25941 0.25941-0.25941 0.74941v1.5738h-0.55341v-3.0553h0.53035v0.46118q0.16718-0.23636 0.44965-0.36318 0.28823-0.12682 0.65141-0.12682z" style="font-feature-settings:normal;font-variant-caps:normal;font-variant-ligatures:normal;font-variant-numeric:normal"/>
<path d="m234.25 232.32q0.63412 0 0.96847 0.31129 0.34012 0.3113 0.34012 0.92812v1.8447h-0.52459v-0.40353q-0.13835 0.21329-0.39776 0.32859-0.25365 0.10953-0.6053 0.10953-0.51305 0-0.82435-0.24789-0.30552-0.24788-0.30552-0.65141 0-0.40352 0.29399-0.64564 0.294-0.24788 0.93388-0.24788h0.87624v-0.10953q0-0.35741-0.20753-0.54765-0.20753-0.19023-0.61106-0.19023-0.27094 0-0.53035 0.0922-0.25941 0.0865-0.43812 0.23636l-0.23058-0.41506q0.23635-0.19024 0.56494-0.28824 0.32858-0.10376 0.69752-0.10376zm-0.12682 2.6921q0.31706 0 0.54764-0.13835 0.23059-0.14412 0.33436-0.40353v-0.42659h-0.85318q-0.70329 0-0.70329 0.47271 0 0.23058 0.17871 0.36317 0.1787 0.13259 0.49576 0.13259z" style="font-feature-settings:normal;font-variant-caps:normal;font-variant-ligatures:normal;font-variant-numeric:normal"/>
<path d="m240.4 232.32q0.57647 0 0.91082 0.33435 0.34012 0.33435 0.34012 0.99153v1.7582h-0.55341v-1.6948q0-0.44388-0.20753-0.66871-0.20177-0.22482-0.58223-0.22482-0.42083 0-0.66871 0.26518-0.24788 0.25941-0.24788 0.74941v1.5738h-0.55341v-1.6948q0-0.44388-0.20753-0.66871-0.20176-0.22482-0.58223-0.22482-0.42083 0-0.66871 0.26518-0.24788 0.25941-0.24788 0.74941v1.5738h-0.55341v-3.0553h0.53035v0.45541q0.16718-0.23635 0.43812-0.35741 0.27094-0.12682 0.61682-0.12682 0.35741 0 0.63412 0.14412 0.2767 0.14411 0.42658 0.42082 0.17294-0.26518 0.47847-0.41506 0.3113-0.14988 0.69753-0.14988z" style="font-feature-settings:normal;font-variant-caps:normal;font-variant-ligatures:normal;font-variant-numeric:normal"/>
<path d="m245.45 233.89q0 0.0634-0.0115 0.16717h-2.4788q0.0519 0.40353 0.35165 0.65141 0.30553 0.24212 0.75518 0.24212 0.54764 0 0.88199-0.36894l0.30553 0.35741q-0.20753 0.24212-0.51882 0.36894-0.30553 0.12683-0.686 0.12683-0.48423 0-0.85894-0.196-0.3747-0.20177-0.58223-0.55918-0.20177-0.35741-0.20177-0.80706 0-0.44388 0.196-0.80129 0.20177-0.35741 0.54765-0.55341 0.35165-0.20176 0.78976-0.20176 0.43812 0 0.77824 0.20176 0.34588 0.196 0.53611 0.55341 0.196 0.35741 0.196 0.81859zm-1.5104-1.1068q-0.39776 0-0.6687 0.24212-0.26518 0.24211-0.3113 0.63411h1.96q-0.0461-0.38623-0.31706-0.62835-0.26517-0.24788-0.66294-0.24788z" style="font-feature-settings:normal;font-variant-caps:normal;font-variant-ligatures:normal;font-variant-numeric:normal"/>
<path d="m249.08 235.44q-0.45541 0-0.81859-0.20177-0.36317-0.20176-0.5707-0.55341-0.20176-0.35741-0.20176-0.80706 0-0.44964 0.20176-0.80129 0.20753-0.35741 0.5707-0.55341 0.36318-0.20176 0.81859-0.20176t0.81282 0.20176q0.36318 0.196 0.56494 0.55341 0.20753 0.35165 0.20753 0.80129 0 0.44965-0.20753 0.80706-0.20176 0.35165-0.56494 0.55341-0.35741 0.20177-0.81282 0.20177zm0-0.48424q0.294 0 0.52459-0.13259 0.23635-0.13835 0.36894-0.38047 0.13258-0.24788 0.13258-0.56494 0-0.31705-0.13258-0.55917-0.13259-0.24788-0.36894-0.38047-0.23059-0.13259-0.52459-0.13259t-0.53035 0.13259q-0.23059 0.13259-0.36894 0.38047-0.13259 0.24212-0.13259 0.55917 0 0.31706 0.13259 0.56494 0.13835 0.24212 0.36894 0.38047 0.23635 0.13259 0.53035 0.13259z" style="font-feature-settings:normal;font-variant-caps:normal;font-variant-ligatures:normal;font-variant-numeric:normal"/>
<path d="m252.55 231.55q-0.49576 0-0.49576 0.53612v0.26517h0.88776v0.45541h-0.87623v2.5999h-0.55341v-2.5999h-0.51882v-0.45541h0.51882v-0.27094q0-0.45541 0.26517-0.72058 0.26518-0.26518 0.74365-0.26518 0.18447 0 0.34588 0.0461t0.27671 0.13259l-0.16718 0.42082q-0.19024-0.14412-0.42659-0.14412z" style="font-feature-settings:normal;font-variant-caps:normal;font-variant-ligatures:normal;font-variant-numeric:normal"/>
<path d="m235.53 239.53q0.44388 0 0.79552 0.196 0.35165 0.196 0.54765 0.54765 0.20176 0.35164 0.20176 0.81282 0 0.46117-0.20176 0.81858-0.196 0.35165-0.54765 0.54765-0.35164 0.196-0.79552 0.196-0.32859 0-0.60529-0.12682-0.27095-0.12683-0.46118-0.36895v1.5795h-0.55341v-4.1736h0.53035v0.48424q0.18447-0.25365 0.46694-0.38047 0.28247-0.13259 0.62259-0.13259zm-0.0461 2.6345q0.294 0 0.52459-0.13258 0.23635-0.13836 0.36894-0.38047 0.13835-0.24788 0.13835-0.56494t-0.13835-0.55918q-0.13259-0.24788-0.36894-0.38047-0.23059-0.13259-0.52459-0.13259-0.28823 0-0.52459 0.13836-0.23058 0.13259-0.36894 0.3747-0.13258 0.24212-0.13258 0.55918t0.13258 0.56494q0.13259 0.24211 0.36894 0.38047 0.23636 0.13258 0.52459 0.13258z" style="font-feature-settings:normal;font-variant-caps:normal;font-variant-ligatures:normal;font-variant-numeric:normal"/>
<path d="m238.91 239.53q0.63412 0 0.96847 0.31129 0.34012 0.3113 0.34012 0.92812v1.8447h-0.52459v-0.40353q-0.13835 0.2133-0.39776 0.32859-0.25365 0.10953-0.60529 0.10953-0.51306 0-0.82435-0.24788-0.30553-0.24789-0.30553-0.65141 0-0.40353 0.294-0.64565 0.294-0.24788 0.93388-0.24788h0.87623v-0.10953q0-0.35741-0.20753-0.54764-0.20753-0.19024-0.61106-0.19024-0.27094 0-0.53035 0.0922-0.25941 0.0865-0.43812 0.23635l-0.23058-0.41506q0.23635-0.19023 0.56494-0.28823 0.32858-0.10377 0.69752-0.10377zm-0.12682 2.6921q0.31706 0 0.54765-0.13835 0.23058-0.14412 0.33435-0.40353v-0.42659h-0.85318q-0.70329 0-0.70329 0.47271 0 0.23059 0.17871 0.36317 0.1787 0.13259 0.49576 0.13259z" style="font-feature-settings:normal;font-variant-caps:normal;font-variant-ligatures:normal;font-variant-numeric:normal"/>
<path d="m244.19 239.56v2.6402q0 0.80129-0.39776 1.1818-0.39777 0.38624-1.1875 0.38624-0.43235 0-0.82435-0.12106-0.392-0.11529-0.63412-0.33435l0.26518-0.42659q0.21329 0.18447 0.52458 0.28824 0.31706 0.10952 0.65141 0.10952 0.53612 0 0.78977-0.25364 0.25941-0.25365 0.25941-0.77247v-0.24212q-0.196 0.23635-0.48424 0.35741-0.28247 0.1153-0.61682 0.1153-0.43811 0-0.79552-0.18447-0.35165-0.19024-0.55341-0.52459-0.20177-0.34012-0.20177-0.77247t0.20177-0.7667q0.20176-0.34012 0.55341-0.52459 0.35741-0.18447 0.79552-0.18447 0.34588 0 0.63988 0.12682 0.29977 0.12683 0.49 0.37471v-0.47271zm-1.5911 2.4442q0.29977 0 0.53612-0.12682 0.24212-0.12682 0.37471-0.35165 0.13835-0.23058 0.13835-0.51882 0-0.44388-0.294-0.71482-0.294-0.27671-0.75518-0.27671-0.46694 0-0.76093 0.27671-0.294 0.27094-0.294 0.71482 0 0.28824 0.13258 0.51882 0.13836 0.22483 0.37471 0.35165 0.24212 0.12682 0.54764 0.12682z" style="font-feature-settings:normal;font-variant-caps:normal;font-variant-ligatures:normal;font-variant-numeric:normal"/>
<path d="m248 241.1q0 0.0634-0.0115 0.16718h-2.4788q0.0519 0.40353 0.35165 0.65141 0.30553 0.24211 0.75518 0.24211 0.54764 0 0.88199-0.36894l0.30553 0.35741q-0.20753 0.24212-0.51882 0.36895-0.30553 0.12682-0.686 0.12682-0.48423 0-0.85894-0.196-0.3747-0.20177-0.58223-0.55918-0.20177-0.35741-0.20177-0.80705 0-0.44388 0.196-0.80129 0.20177-0.35742 0.54765-0.55341 0.35165-0.20177 0.78976-0.20177 0.43812 0 0.77824 0.20177 0.34588 0.19599 0.53611 0.55341 0.196 0.35741 0.196 0.81858zm-1.5104-1.1068q-0.39776 0-0.6687 0.24212-0.26518 0.24211-0.3113 0.63411h1.96q-0.0461-0.38623-0.31706-0.62835-0.26517-0.24788-0.66294-0.24788z" style="font-feature-settings:normal;font-variant-caps:normal;font-variant-ligatures:normal;font-variant-numeric:normal"/>
</g>
<g fill="none" stroke="#199d4a" stroke-linecap="round" stroke-linejoin="round">
<path d="m206.98 256.77v-5.7034h68.389v5.7034" stroke-width=".529"/>
<path d="m241.17 250.83v-3.2096" stroke-width=".529"/>
<circle transform="scale(1,-1)" cx="241.17" cy="-246.85" r=".75117" stroke-dashoffset="72" stroke-width=".529"/>
</g>
<g fill="#b91d5e" stroke-width=".0727px" style="font-feature-settings:normal;font-variant-caps:normal;font-variant-ligatures:normal;font-variant-numeric:normal" aria-label="name of  module">
<path d="m175.31 282.59q0.58223 0 0.92235 0.34012 0.34588 0.33435 0.34588 0.98576v1.7582h-0.55341v-1.6948q0-0.44388-0.2133-0.6687-0.21329-0.22482-0.61105-0.22482-0.44965 0-0.70906 0.26517-0.25941 0.25941-0.25941 0.74941v1.5738h-0.55341v-3.0553h0.53035v0.46117q0.16718-0.23635 0.44965-0.36317 0.28823-0.12683 0.65141-0.12683z" style="font-feature-settings:normal;font-variant-caps:normal;font-variant-ligatures:normal;font-variant-numeric:normal"/>
<path d="m178.72 282.59q0.63412 0 0.96847 0.3113 0.34011 0.31129 0.34011 0.92811v1.8447h-0.52458v-0.40353q-0.13835 0.2133-0.39777 0.32859-0.25364 0.10953-0.60529 0.10953-0.51306 0-0.82435-0.24788-0.30553-0.24788-0.30553-0.65141t0.294-0.64565q0.294-0.24788 0.93388-0.24788h0.87623v-0.10953q0-0.35741-0.20752-0.54764-0.20753-0.19024-0.61106-0.19024-0.27094 0-0.53035 0.0922-0.25941 0.0865-0.43812 0.23635l-0.23059-0.41506q0.23636-0.19023 0.56494-0.28823 0.32859-0.10377 0.69753-0.10377zm-0.12682 2.6921q0.31706 0 0.54764-0.13835 0.23059-0.14412 0.33435-0.40353v-0.42659h-0.85317q-0.70329 0-0.70329 0.47271 0 0.23059 0.1787 0.36317 0.17871 0.13259 0.49577 0.13259z" style="font-feature-settings:normal;font-variant-caps:normal;font-variant-ligatures:normal;font-variant-numeric:normal"/>
<path d="m184.87 282.59q0.57647 0 0.91082 0.33435 0.34012 0.33436 0.34012 0.99153v1.7582h-0.55341v-1.6948q0-0.44388-0.20753-0.6687-0.20177-0.22482-0.58224-0.22482-0.42082 0-0.6687 0.26517-0.24788 0.25941-0.24788 0.74941v1.5738h-0.55341v-1.6948q0-0.44388-0.20753-0.6687-0.20177-0.22482-0.58224-0.22482-0.42082 0-0.6687 0.26517-0.24788 0.25941-0.24788 0.74941v1.5738h-0.55341v-3.0553h0.53035v0.45541q0.16718-0.23636 0.43812-0.35741 0.27094-0.12683 0.61682-0.12683 0.35741 0 0.63411 0.14412 0.27671 0.14412 0.42659 0.42082 0.17294-0.26517 0.47847-0.41506 0.31129-0.14988 0.69753-0.14988z" style="font-feature-settings:normal;font-variant-caps:normal;font-variant-ligatures:normal;font-variant-numeric:normal"/>
<path d="m189.93 284.17q0 0.0634-0.0115 0.16718h-2.4788q0.0519 0.40353 0.35165 0.65141 0.30553 0.24212 0.75517 0.24212 0.54765 0 0.882-0.36894l0.30553 0.35741q-0.20753 0.24211-0.51882 0.36894-0.30553 0.12682-0.686 0.12682-0.48423 0-0.85894-0.196-0.3747-0.20176-0.58223-0.55917-0.20177-0.35742-0.20177-0.80706 0-0.44388 0.196-0.80129 0.20177-0.35741 0.54765-0.55341 0.35164-0.20177 0.78976-0.20177t0.77823 0.20177q0.34588 0.196 0.53612 0.55341 0.196 0.35741 0.196 0.81858zm-1.5104-1.1068q-0.39776 0-0.6687 0.24212-0.26518 0.24212-0.3113 0.63411h1.96q-0.0461-0.38623-0.31706-0.62835-0.26518-0.24788-0.66294-0.24788z" style="font-feature-settings:normal;font-variant-caps:normal;font-variant-ligatures:normal;font-variant-numeric:normal"/>
<path d="m193.55 285.71q-0.45541 0-0.81859-0.20176-0.36317-0.20177-0.5707-0.55341-0.20177-0.35742-0.20177-0.80706 0-0.44965 0.20177-0.80129 0.20753-0.35741 0.5707-0.55341 0.36318-0.20177 0.81859-0.20177t0.81282 0.20177q0.36317 0.196 0.56494 0.55341 0.20753 0.35164 0.20753 0.80129 0 0.44964-0.20753 0.80706-0.20177 0.35164-0.56494 0.55341-0.35741 0.20176-0.81282 0.20176zm0-0.48423q0.294 0 0.52458-0.13259 0.23636-0.13835 0.36894-0.38047 0.13259-0.24788 0.13259-0.56494t-0.13259-0.55918q-0.13258-0.24788-0.36894-0.38047-0.23058-0.13258-0.52458-0.13258t-0.53035 0.13258q-0.23059 0.13259-0.36894 0.38047-0.13259 0.24212-0.13259 0.55918t0.13259 0.56494q0.13835 0.24212 0.36894 0.38047 0.23635 0.13259 0.53035 0.13259z" style="font-feature-settings:normal;font-variant-caps:normal;font-variant-ligatures:normal;font-variant-numeric:normal"/>
<path d="m197.02 281.82q-0.49576 0-0.49576 0.53612v0.26518h0.88776v0.45541h-0.87623v2.5999h-0.55341v-2.5999h-0.51883v-0.45541h0.51883v-0.27094q0-0.45542 0.26517-0.72059 0.26518-0.26518 0.74365-0.26518 0.18447 0 0.34588 0.0461t0.2767 0.13259l-0.16717 0.42082q-0.19024-0.14412-0.42659-0.14412z" style="font-feature-settings:normal;font-variant-caps:normal;font-variant-ligatures:normal;font-variant-numeric:normal"/>
<path d="m178.26 289.8q0.57647 0 0.91082 0.33436 0.34012 0.33435 0.34012 0.99152v1.7582h-0.55341v-1.6948q0-0.44388-0.20753-0.6687-0.20176-0.22482-0.58223-0.22482-0.42083 0-0.66871 0.26517-0.24788 0.25941-0.24788 0.74941v1.5738h-0.55341v-1.6948q0-0.44388-0.20753-0.6687-0.20176-0.22482-0.58223-0.22482-0.42082 0-0.66871 0.26517-0.24788 0.25941-0.24788 0.74941v1.5738h-0.55341v-3.0553h0.53035v0.45541q0.16718-0.23635 0.43812-0.35741 0.27094-0.12683 0.61682-0.12683 0.35741 0 0.63412 0.14412 0.2767 0.14412 0.42658 0.42082 0.17294-0.26517 0.47847-0.41505 0.3113-0.14989 0.69753-0.14989z" style="font-feature-settings:normal;font-variant-caps:normal;font-variant-ligatures:normal;font-variant-numeric:normal"/>
<path d="m181.86 292.92q-0.45541 0-0.81859-0.20176-0.36317-0.20177-0.5707-0.55341-0.20176-0.35741-0.20176-0.80706 0-0.44964 0.20176-0.80129 0.20753-0.35741 0.5707-0.55341 0.36318-0.20177 0.81859-0.20177t0.81282 0.20177q0.36318 0.196 0.56494 0.55341 0.20753 0.35165 0.20753 0.80129 0 0.44965-0.20753 0.80706-0.20176 0.35164-0.56494 0.55341-0.35741 0.20176-0.81282 0.20176zm0-0.48423q0.294 0 0.52459-0.13259 0.23635-0.13835 0.36894-0.38047 0.13258-0.24788 0.13258-0.56494t-0.13258-0.55917q-0.13259-0.24789-0.36894-0.38047-0.23059-0.13259-0.52459-0.13259t-0.53035 0.13259q-0.23059 0.13258-0.36894 0.38047-0.13259 0.24211-0.13259 0.55917t0.13259 0.56494q0.13835 0.24212 0.36894 0.38047 0.23635 0.13259 0.53035 0.13259z" style="font-feature-settings:normal;font-variant-caps:normal;font-variant-ligatures:normal;font-variant-numeric:normal"/>
<path d="m187.09 288.6v4.2774h-0.53035v-0.48423q-0.18447 0.25365-0.46694 0.38623-0.28247 0.13259-0.62259 0.13259-0.44388 0-0.79553-0.196-0.35164-0.196-0.55341-0.54764-0.196-0.35741-0.196-0.81859 0-0.46117 0.196-0.81282 0.20177-0.35165 0.55341-0.54765 0.35165-0.196 0.79553-0.196 0.32859 0 0.60529 0.12683 0.27671 0.12106 0.46118 0.36317v-1.6833zm-1.5738 3.8278q0.28823 0 0.52458-0.13259 0.23636-0.13835 0.36894-0.38047 0.13259-0.24788 0.13259-0.56494t-0.13259-0.55917q-0.13258-0.24789-0.36894-0.38047-0.23635-0.13259-0.52458-0.13259-0.294 0-0.53035 0.13259-0.23059 0.13258-0.36894 0.38047-0.13259 0.24211-0.13259 0.55917t0.13259 0.56494q0.13835 0.24212 0.36894 0.38047 0.23635 0.13259 0.53035 0.13259z" style="font-feature-settings:normal;font-variant-caps:normal;font-variant-ligatures:normal;font-variant-numeric:normal"/>
<path d="m190.99 289.83v3.0553h-0.52459v-0.46117q-0.16718 0.23635-0.44388 0.36894-0.27094 0.12682-0.59377 0.12682-0.61105 0-0.9627-0.33435-0.35164-0.34012-0.35164-0.99729v-1.7582h0.55341v1.6948q0 0.44388 0.21329 0.67447 0.21329 0.22482 0.61106 0.22482 0.43811 0 0.69176-0.26518 0.25365-0.26517 0.25365-0.74941v-1.5795z" style="font-feature-settings:normal;font-variant-caps:normal;font-variant-ligatures:normal;font-variant-numeric:normal"/>
<path d="m192.04 288.6h0.55341v4.2774h-0.55341z" style="font-feature-settings:normal;font-variant-caps:normal;font-variant-ligatures:normal;font-variant-numeric:normal"/>
<path d="m196.42 291.37q0 0.0634-0.0115 0.16718h-2.4788q0.0519 0.40353 0.35164 0.65141 0.30553 0.24212 0.75518 0.24212 0.54764 0 0.882-0.36894l0.30552 0.35741q-0.20753 0.24212-0.51882 0.36894-0.30553 0.12682-0.686 0.12682-0.48423 0-0.85894-0.196-0.3747-0.20176-0.58223-0.55917-0.20176-0.35741-0.20176-0.80706 0-0.44388 0.196-0.80129 0.20176-0.35741 0.54764-0.55341 0.35165-0.20177 0.78976-0.20177 0.43812 0 0.77824 0.20177 0.34588 0.196 0.53611 0.55341 0.196 0.35741 0.196 0.81858zm-1.5104-1.1068q-0.39776 0-0.6687 0.24212-0.26518 0.24212-0.31129 0.63412h1.96q-0.0461-0.38624-0.31706-0.62835-0.26517-0.24789-0.66294-0.24789z" style="font-feature-settings:normal;font-variant-caps:normal;font-variant-ligatures:normal;font-variant-numeric:normal"/>
</g>
<g fill="none" stroke="#b91d5e" stroke-linecap="round" stroke-linejoin="round">
<path d="m168.41 268.14v5.7034h34.461v-5.7034" stroke-width=".529"/>
<path d="m185.64 274.08v3.2096" stroke-width=".529"/>
<circle cx="185.64" cy="278.06" r=".75117" stroke-dashoffset="72" stroke-width=".529"/>
</g>
</g>
</svg>
