<svg width="740" height="257.56" version="1.1" viewBox="0 0 740 257.55856" xmlns="http://www.w3.org/2000/svg" xmlns:cc="http://creativecommons.org/ns#" xmlns:dc="http://purl.org/dc/elements/1.1/" xmlns:rdf="http://www.w3.org/1999/02/22-rdf-syntax-ns#">
<title>Antora page ID anatomy</title>
<metadata>
<rdf:RDF>
<cc:Work rdf:about="">
<dc:format>image/svg+xml</dc:format>
<dc:type rdf:resource="http://purl.org/dc/dcmitype/StillImage"/>
<dc:title>Antora page ID anatomy</dc:title>
<dc:creator>
<cc:Agent>
<dc:title>Sarah White</dc:title>
</cc:Agent>
</dc:creator>
<dc:publisher>
<cc:Agent>
<dc:title>OpenDevise Inc.</dc:title>
</cc:Agent>
</dc:publisher>
<dc:subject>
<rdf:Bag>
<rdf:li>Antora</rdf:li>
<rdf:li>page ID</rdf:li>
<rdf:li>page reference</rdf:li>
</rdf:Bag>
</dc:subject>
<cc:license rdf:resource="http://creativecommons.org/licenses/by-sa/4.0/"/>
</cc:Work>
<cc:License rdf:about="http://creativecommons.org/licenses/by-sa/4.0/">
<cc:permits rdf:resource="http://creativecommons.org/ns#Reproduction"/>
<cc:permits rdf:resource="http://creativecommons.org/ns#Distribution"/>
<cc:requires rdf:resource="http://creativecommons.org/ns#Notice"/>
<cc:requires rdf:resource="http://creativecommons.org/ns#Attribution"/>
<cc:permits rdf:resource="http://creativecommons.org/ns#DerivativeWorks"/>
<cc:requires rdf:resource="http://creativecommons.org/ns#ShareAlike"/>
</cc:License>
</rdf:RDF>
</metadata>
<rect width="100%" height="100%" fill="#fff"/>
<g transform="translate(-10 -257.68)">
<g fill="#de4c36">
<path d="m39.692 366.71-6.3185 14.434h-2.669l-6.3185-14.434h2.7235l4.9567 11.575 5.0657-11.575z" style="font-feature-settings:normal;font-variant-caps:normal;font-variant-ligatures:normal;font-variant-numeric:normal"/>
<path d="m54.752 374.01q0 0.29959-0.05447 0.78981h-11.711q0.24511 1.9064 1.6613 3.0775 1.4434 1.1439 3.5678 1.1439 2.5873 0 4.1669-1.743l1.4434 1.6886q-0.98045 1.1439-2.4511 1.743-1.4434 0.59917-3.2409 0.59917-2.2877 0-4.058-0.92599-1.7703-0.95321-2.7507-2.6418-0.95322-1.6886-0.95322-3.8129 0-2.0971 0.92598-3.7856 0.95322-1.6886 2.5873-2.6145 1.6613-0.95321 3.7312-0.95321t3.6767 0.95321q1.6341 0.92598 2.5328 2.6145 0.92598 1.6886 0.92598 3.8673zm-7.1355-5.2291q-1.8792 0-3.1592 1.1439-1.2528 1.1439-1.4707 2.9958h9.2598q-0.21788-1.8247-1.4979-2.9686-1.2528-1.1711-3.132-1.1711z" style="font-feature-settings:normal;font-variant-caps:normal;font-variant-ligatures:normal;font-variant-numeric:normal"/>
<path d="m60.862 369.14q0.68087-1.2528 2.0154-1.9064t3.2409-0.65363v2.5328q-0.21788-0.0272-0.59916-0.0272-2.1243 0-3.3499 1.28-1.1983 1.2528-1.1983 3.595v7.19h-2.6145v-14.434h2.5056z" style="font-feature-settings:normal;font-variant-caps:normal;font-variant-ligatures:normal;font-variant-numeric:normal"/>
<path d="m73.56 381.31q-1.7703 0-3.4043-0.46299-1.6341-0.49023-2.5601-1.2256l1.0894-2.0698q0.95322 0.68087 2.315 1.0894t2.7507 0.40852q3.4316 0 3.4316-1.9609 0-0.65363-0.46299-1.0349-0.46299-0.38129-1.1711-0.5447-0.68087-0.19064-1.9609-0.40852-1.743-0.27234-2.8596-0.6264-1.0894-0.35405-1.8792-1.1983-0.78981-0.84427-0.78981-2.3694 0-1.9609 1.6341-3.132 1.6341-1.1983 4.3848-1.1983 1.4434 0 2.8869 0.35405 1.4434 0.35405 2.3694 0.95321l-1.1166 2.0698q-1.7703-1.1439-4.1669-1.1439-1.6613 0-2.5328 0.54469-0.87151 0.5447-0.87151 1.4434 0 0.70811 0.49023 1.1166 0.49022 0.40852 1.1983 0.59916 0.73534 0.19065 2.0426 0.43576 1.743 0.29958 2.8052 0.65363 1.0894 0.32682 1.852 1.1439t0.76257 2.2877q0 1.9609-1.6886 3.132-1.6613 1.1439-4.5482 1.1439z" style="font-feature-settings:normal;font-variant-caps:normal;font-variant-ligatures:normal;font-variant-numeric:normal"/>
<path d="m83.091 366.71h2.6145v14.434h-2.6145zm1.3073-2.7779q-0.76257 0-1.28-0.49023-0.49023-0.49023-0.49023-1.1983t0.49023-1.1983q0.51746-0.51746 1.28-0.51746t1.2528 0.49023q0.51746 0.46299 0.51746 1.1711 0 0.73534-0.51746 1.2528-0.49023 0.49023-1.2528 0.49023z" style="font-feature-settings:normal;font-variant-caps:normal;font-variant-ligatures:normal;font-variant-numeric:normal"/>
<path d="m96.88 381.31q-2.1515 0-3.8673-0.95322-1.7158-0.95322-2.6962-2.6145-0.95322-1.6886-0.95322-3.8129t0.95322-3.7856q0.98045-1.6886 2.6962-2.6145 1.7158-0.95321 3.8673-0.95321 2.1515 0 3.8401 0.95321 1.7158 0.92598 2.669 2.6145 0.98045 1.6613 0.98045 3.7856t-0.98045 3.8129q-0.95322 1.6613-2.669 2.6145-1.6886 0.95322-3.8401 0.95322zm0-2.2877q1.389 0 2.4784-0.6264 1.1166-0.65364 1.743-1.7975 0.6264-1.1711 0.6264-2.669t-0.6264-2.6418q-0.6264-1.1711-1.743-1.7975-1.0894-0.62639-2.4784-0.62639-1.389 0-2.5056 0.62639-1.0894 0.6264-1.743 1.7975-0.6264 1.1439-0.6264 2.6418t0.6264 2.669q0.65363 1.1439 1.743 1.7975 1.1166 0.6264 2.5056 0.6264z" style="font-feature-settings:normal;font-variant-caps:normal;font-variant-ligatures:normal;font-variant-numeric:normal"/>
<path d="m115.69 366.58q2.7507 0 4.3576 1.6068 1.6341 1.5796 1.6341 4.6571v8.3066h-2.6145v-8.007q0-2.0971-1.0077-3.1592-1.0077-1.0622-2.8869-1.0622-2.1243 0-3.3499 1.2528-1.2256 1.2256-1.2256 3.5405v7.4351h-2.6145v-14.434h2.5056v2.1788q0.7898-1.1166 2.1243-1.7158 1.3617-0.59916 3.0775-0.59916z" style="font-feature-settings:normal;font-variant-caps:normal;font-variant-ligatures:normal;font-variant-numeric:normal"/>
</g>
<path d="m138.23 361.89q3.6767 0 6.5636 1.5252 2.8869 1.4979 4.4937 4.2214 1.6341 2.7235 1.6341 6.2095 0 3.486-1.28 5.4742-1.28 1.9881-3.5678 1.9881-1.3073 0-2.1788-0.65364-0.84428-0.68087-1.0894-1.9337-0.81704 1.2528-2.1515 1.9337-1.3073 0.65364-3.0231 0.65364-1.9064 0-3.4316-0.89875t-2.3967-2.4784q-0.84428-1.6068-0.84428-3.6222 0-1.9881 0.84428-3.5678 0.87151-1.6068 2.3967-2.4784 1.5252-0.89875 3.4316-0.89875 1.5796 0 2.8596 0.59917 1.28 0.57193 2.1243 1.7158v-2.206h2.3694v9.8045q0 1.0077 0.43576 1.4979 0.43575 0.463 1.1166 0.463 1.1983 0 1.852-1.389 0.68087-1.4162 0.68087-3.9763 0-3.0231-1.3617-5.3108-1.3617-2.315-3.8401-3.595-2.4511-1.28-5.6376-1.28-3.2137 0-5.6921 1.3345-2.4511 1.3345-3.8129 3.7312-1.3617 2.3966-1.3617 5.4742 0 3.1048 1.3345 5.5014 1.3617 2.3967 3.7856 3.7312 2.4511 1.3617 5.6376 1.3617 1.3345 0 2.7235-0.29958 1.389-0.29959 2.5328-0.89875l0.59916 1.743q-1.1983 0.6264-2.7779 0.95322t-3.0775 0.32682q-3.7312 0-6.6453-1.6068-2.8869-1.5796-4.4937-4.412-1.6068-2.8324-1.6068-6.4002t1.6068-6.3729q1.6341-2.8052 4.5482-4.3848 2.9414-1.5796 6.6998-1.5796zm-0.21788 17.294q1.3345 0 2.3694-0.59917 1.0622-0.59916 1.6613-1.6886 0.6264-1.1166 0.6264-2.5873 0-1.4707-0.6264-2.5601-0.59917-1.1166-1.6613-1.6886-1.0349-0.59916-2.3694-0.59916-2.0698 0-3.3499 1.3345-1.28 1.3073-1.28 3.5133 0 2.206 1.28 3.5405 1.3073 1.3345 3.3499 1.3345z" fill="#333" style="font-feature-settings:normal;font-variant-caps:normal;font-variant-ligatures:normal;font-variant-numeric:normal"/>
<g fill="#9340a4">
<path d="m160.98 381.31q-2.206 0-3.949-0.95322-1.7158-0.95322-2.6962-2.6145-0.98045-1.6886-0.98045-3.8129t0.98045-3.7856q0.98045-1.6886 2.6962-2.6145 1.743-0.95321 3.949-0.95321 1.9609 0 3.486 0.7898 1.5524 0.78981 2.3967 2.2877l-1.9881 1.28q-0.68087-1.0349-1.6886-1.5524-1.0077-0.51746-2.2332-0.51746-1.4162 0-2.5601 0.62639-1.1166 0.6264-1.7703 1.7975-0.6264 1.1439-0.6264 2.6418 0 1.5251 0.6264 2.6962 0.65364 1.1439 1.7703 1.7703 1.1439 0.6264 2.5601 0.6264 1.2256 0 2.2332-0.51746 1.0077-0.51746 1.6886-1.5524l1.9881 1.2528q-0.84428 1.4979-2.3967 2.315-1.5252 0.78981-3.486 0.78981z" style="font-feature-settings:normal;font-variant-caps:normal;font-variant-ligatures:normal;font-variant-numeric:normal"/>
<path d="m176.19 381.31q-2.1516 0-3.8673-0.95322t-2.6962-2.6145q-0.95322-1.6886-0.95322-3.8129t0.95322-3.7856q0.98045-1.6886 2.6962-2.6145 1.7158-0.95321 3.8673-0.95321 2.1515 0 3.8401 0.95321 1.7158 0.92598 2.669 2.6145 0.98045 1.6613 0.98045 3.7856t-0.98045 3.8129q-0.95322 1.6613-2.669 2.6145-1.6886 0.95322-3.8401 0.95322zm0-2.2877q1.389 0 2.4784-0.6264 1.1166-0.65364 1.743-1.7975 0.6264-1.1711 0.6264-2.669t-0.6264-2.6418q-0.6264-1.1711-1.743-1.7975-1.0894-0.62639-2.4784-0.62639-1.389 0-2.5056 0.62639-1.0894 0.6264-1.743 1.7975-0.6264 1.1439-0.6264 2.6418t0.6264 2.669q0.65364 1.1439 1.743 1.7975 1.1166 0.6264 2.5056 0.6264z" style="font-feature-settings:normal;font-variant-caps:normal;font-variant-ligatures:normal;font-variant-numeric:normal"/>
<path d="m205.35 366.58q2.7235 0 4.3031 1.5796 1.6068 1.5796 1.6068 4.6844v8.3066h-2.6145v-8.007q0-2.0971-0.98045-3.1592-0.95322-1.0622-2.7507-1.0622-1.9881 0-3.1592 1.2528-1.1711 1.2256-1.1711 3.5405v7.4351h-2.6145v-8.007q0-2.0971-0.98045-3.1592-0.95322-1.0622-2.7507-1.0622-1.9881 0-3.1592 1.2528-1.1711 1.2256-1.1711 3.5405v7.4351h-2.6145v-14.434h2.5056v2.1516q0.78981-1.1166 2.0698-1.6886 1.28-0.59916 2.9141-0.59916 1.6886 0 2.9958 0.68086 1.3073 0.68087 2.0154 1.9881 0.81704-1.2528 2.2605-1.9609 1.4707-0.7081 3.2954-0.7081z" style="font-feature-settings:normal;font-variant-caps:normal;font-variant-ligatures:normal;font-variant-numeric:normal"/>
<path d="m223.73 366.58q2.0971 0 3.7584 0.92598t2.5873 2.5873q0.95322 1.6613 0.95322 3.8401t-0.95322 3.8673q-0.92598 1.6613-2.5873 2.5873-1.6613 0.92599-3.7584 0.92599-1.5524 0-2.8596-0.59917-1.28-0.59916-2.1788-1.743v7.4623h-2.6145v-19.718h2.5056v2.2877q0.87151-1.1983 2.206-1.7975 1.3345-0.6264 2.9414-0.6264zm-0.21787 12.446q1.389 0 2.4784-0.6264 1.1166-0.65364 1.743-1.7975 0.65364-1.1711 0.65364-2.669t-0.65364-2.6418q-0.6264-1.1711-1.743-1.7975-1.0894-0.62639-2.4784-0.62639-1.3617 0-2.4784 0.65363-1.0894 0.6264-1.743 1.7703-0.6264 1.1439-0.6264 2.6418t0.6264 2.669q0.6264 1.1439 1.743 1.7975 1.1166 0.6264 2.4784 0.6264z" style="font-feature-settings:normal;font-variant-caps:normal;font-variant-ligatures:normal;font-variant-numeric:normal"/>
<path d="m240.82 381.31q-2.1515 0-3.8673-0.95322t-2.6962-2.6145q-0.95322-1.6886-0.95322-3.8129t0.95322-3.7856q0.98045-1.6886 2.6962-2.6145 1.7158-0.95321 3.8673-0.95321 2.1516 0 3.8401 0.95321 1.7158 0.92598 2.669 2.6145 0.98045 1.6613 0.98045 3.7856t-0.98045 3.8129q-0.95322 1.6613-2.669 2.6145-1.6886 0.95322-3.8401 0.95322zm0-2.2877q1.389 0 2.4784-0.6264 1.1166-0.65364 1.743-1.7975 0.6264-1.1711 0.6264-2.669t-0.6264-2.6418q-0.6264-1.1711-1.743-1.7975-1.0894-0.62639-2.4784-0.62639-1.389 0-2.5056 0.62639-1.0894 0.6264-1.743 1.7975-0.6264 1.1439-0.6264 2.6418t0.6264 2.669q0.65364 1.1439 1.743 1.7975 1.1166 0.6264 2.5056 0.6264z" style="font-feature-settings:normal;font-variant-caps:normal;font-variant-ligatures:normal;font-variant-numeric:normal"/>
<path d="m259.63 366.58q2.7507 0 4.3576 1.6068 1.6341 1.5796 1.6341 4.6571v8.3066h-2.6145v-8.007q0-2.0971-1.0077-3.1592-1.0077-1.0622-2.8869-1.0622-2.1243 0-3.3499 1.2528-1.2256 1.2256-1.2256 3.5405v7.4351h-2.6145v-14.434h2.5056v2.1788q0.7898-1.1166 2.1243-1.7158 1.3617-0.59916 3.0775-0.59916z" style="font-feature-settings:normal;font-variant-caps:normal;font-variant-ligatures:normal;font-variant-numeric:normal"/>
<path d="m283.64 374.01q0 0.29959-0.0545 0.78981h-11.711q0.24512 1.9064 1.6613 3.0775 1.4434 1.1439 3.5678 1.1439 2.5873 0 4.1669-1.743l1.4434 1.6886q-0.98045 1.1439-2.4511 1.743-1.4434 0.59917-3.2409 0.59917-2.2877 0-4.058-0.92599-1.7703-0.95321-2.7507-2.6418-0.95321-1.6886-0.95321-3.8129 0-2.0971 0.92598-3.7856 0.95321-1.6886 2.5873-2.6145 1.6613-0.95321 3.7312-0.95321t3.6767 0.95321q1.6341 0.92598 2.5328 2.6145 0.92598 1.6886 0.92598 3.8673zm-7.1355-5.2291q-1.8792 0-3.1592 1.1439-1.2528 1.1439-1.4707 2.9958h9.2598q-0.21788-1.8247-1.4979-2.9686-1.2528-1.1711-3.132-1.1711z" style="font-feature-settings:normal;font-variant-caps:normal;font-variant-ligatures:normal;font-variant-numeric:normal"/>
<path d="m294.95 366.58q2.7507 0 4.3576 1.6068 1.6341 1.5796 1.6341 4.6571v8.3066h-2.6145v-8.007q0-2.0971-1.0077-3.1592t-2.8869-1.0622q-2.1243 0-3.3499 1.2528-1.2256 1.2256-1.2256 3.5405v7.4351h-2.6145v-14.434h2.5056v2.1788q0.78981-1.1166 2.1243-1.7158 1.3617-0.59916 3.0775-0.59916z" style="font-feature-settings:normal;font-variant-caps:normal;font-variant-ligatures:normal;font-variant-numeric:normal"/>
<path d="m313.93 380.3q-0.57193 0.49023-1.4162 0.76257-0.84428 0.24512-1.743 0.24512-2.1788 0-3.3771-1.1711-1.1983-1.1711-1.1983-3.3499v-7.9253h-2.4511v-2.1516h2.4511v-3.1592h2.6145v3.1592h4.1397v2.1516h-4.1397v7.8164q0 1.1711 0.57193 1.7975 0.59916 0.6264 1.6886 0.6264 1.1983 0 2.0426-0.68087z" style="font-feature-settings:normal;font-variant-caps:normal;font-variant-ligatures:normal;font-variant-numeric:normal"/>
</g>
<path d="m317.71 370.31q-0.76257 0-1.3073-0.51746-0.54469-0.5447-0.54469-1.3617 0-0.78981 0.54469-1.3073 0.5447-0.54469 1.3073-0.54469t1.28 0.51746 0.51746 1.3345-0.54469 1.3617q-0.51746 0.51746-1.2528 0.51746zm0 11.003q-0.76257 0-1.3073-0.51746-0.54469-0.5447-0.54469-1.3617 0-0.78981 0.54469-1.3073 0.5447-0.54469 1.3073-0.54469t1.28 0.51746 0.51746 1.3345-0.54469 1.3617q-0.51746 0.51746-1.2528 0.51746z" fill="#333" style="font-feature-settings:normal;font-variant-caps:normal;font-variant-ligatures:normal;font-variant-numeric:normal"/>
<g fill="#b91d5e">
<path d="m341.31 366.58q2.7235 0 4.3031 1.5796 1.6068 1.5796 1.6068 4.6844v8.3066h-2.6145v-8.007q0-2.0971-0.98045-3.1592-0.95321-1.0622-2.7507-1.0622-1.9881 0-3.1592 1.2528-1.1711 1.2256-1.1711 3.5405v7.4351h-2.6145v-8.007q0-2.0971-0.98045-3.1592-0.95322-1.0622-2.7507-1.0622-1.9881 0-3.1592 1.2528-1.1711 1.2256-1.1711 3.5405v7.4351h-2.6145v-14.434h2.5056v2.1516q0.7898-1.1166 2.0698-1.6886 1.28-0.59916 2.9141-0.59916 1.6886 0 2.9958 0.68086 1.3073 0.68087 2.0154 1.9881 0.81704-1.2528 2.2605-1.9609 1.4707-0.7081 3.2954-0.7081z" style="font-feature-settings:normal;font-variant-caps:normal;font-variant-ligatures:normal;font-variant-numeric:normal"/>
<path d="m358.32 381.31q-2.1516 0-3.8673-0.95322t-2.6962-2.6145q-0.95322-1.6886-0.95322-3.8129t0.95322-3.7856q0.98045-1.6886 2.6962-2.6145 1.7158-0.95321 3.8673-0.95321 2.1515 0 3.8401 0.95321 1.7158 0.92598 2.669 2.6145 0.98045 1.6613 0.98045 3.7856t-0.98045 3.8129q-0.95322 1.6613-2.669 2.6145-1.6886 0.95322-3.8401 0.95322zm0-2.2877q1.389 0 2.4784-0.6264 1.1166-0.65364 1.743-1.7975 0.6264-1.1711 0.6264-2.669t-0.6264-2.6418q-0.6264-1.1711-1.743-1.7975-1.0894-0.62639-2.4784-0.62639-1.389 0-2.5056 0.62639-1.0894 0.6264-1.743 1.7975-0.62639 1.1439-0.62639 2.6418t0.62639 2.669q0.65364 1.1439 1.743 1.7975 1.1166 0.6264 2.5056 0.6264z" style="font-feature-settings:normal;font-variant-caps:normal;font-variant-ligatures:normal;font-variant-numeric:normal"/>
<path d="m383.05 360.94v20.208h-2.5056v-2.2877q-0.87151 1.1983-2.206 1.8247t-2.9414 0.6264q-2.0971 0-3.7584-0.92599-1.6613-0.92598-2.6145-2.5873-0.92599-1.6886-0.92599-3.8673t0.92599-3.8401q0.95321-1.6613 2.6145-2.5873t3.7584-0.92598q1.5524 0 2.8596 0.59916 1.3073 0.57193 2.1788 1.7158v-7.9526zm-7.4351 18.084q1.3617 0 2.4784-0.6264 1.1166-0.65364 1.743-1.7975 0.6264-1.1711 0.6264-2.669t-0.6264-2.6418q-0.6264-1.1711-1.743-1.7975-1.1166-0.62639-2.4784-0.62639-1.389 0-2.5056 0.62639-1.0894 0.6264-1.743 1.7975-0.6264 1.1439-0.6264 2.6418t0.6264 2.669q0.65364 1.1439 1.743 1.7975 1.1166 0.6264 2.5056 0.6264z" style="font-feature-settings:normal;font-variant-caps:normal;font-variant-ligatures:normal;font-variant-numeric:normal"/>
<path d="m401.45 366.71v14.434h-2.4784v-2.1788q-0.78981 1.1166-2.0971 1.743-1.28 0.59917-2.8052 0.59917-2.8869 0-4.5482-1.5796-1.6613-1.6068-1.6613-4.7116v-8.3066h2.6145v8.007q0 2.0971 1.0077 3.1865 1.0077 1.0622 2.8869 1.0622 2.0698 0 3.2682-1.2528t1.1983-3.5405v-7.4623z" style="font-feature-settings:normal;font-variant-caps:normal;font-variant-ligatures:normal;font-variant-numeric:normal"/>
<path d="m406.45 360.94h2.6145v20.208h-2.6145z" style="font-feature-settings:normal;font-variant-caps:normal;font-variant-ligatures:normal;font-variant-numeric:normal"/>
<path d="m427.1 374.01q0 0.29959-0.0545 0.78981h-11.711q0.24512 1.9064 1.6613 3.0775 1.4434 1.1439 3.5678 1.1439 2.5873 0 4.1669-1.743l1.4434 1.6886q-0.98046 1.1439-2.4511 1.743-1.4434 0.59917-3.2409 0.59917-2.2877 0-4.058-0.92599-1.7702-0.95321-2.7507-2.6418-0.95321-1.6886-0.95321-3.8129 0-2.0971 0.92598-3.7856 0.95322-1.6886 2.5873-2.6145 1.6613-0.95321 3.7312-0.95321t3.6767 0.95321q1.6341 0.92598 2.5328 2.6145 0.92598 1.6886 0.92598 3.8673zm-7.1355-5.2291q-1.8792 0-3.1592 1.1439-1.2528 1.1439-1.4707 2.9958h9.2598q-0.21788-1.8247-1.4979-2.9686-1.2528-1.1711-3.132-1.1711z" style="font-feature-settings:normal;font-variant-caps:normal;font-variant-ligatures:normal;font-variant-numeric:normal"/>
</g>
<path d="m431.33 370.31q-0.76257 0-1.3073-0.51746-0.5447-0.5447-0.5447-1.3617 0-0.78981 0.5447-1.3073 0.54469-0.54469 1.3073-0.54469 0.76258 0 1.28 0.51746t0.51746 1.3345-0.5447 1.3617q-0.51746 0.51746-1.2528 0.51746zm0 11.003q-0.76257 0-1.3073-0.51746-0.5447-0.5447-0.5447-1.3617 0-0.78981 0.5447-1.3073 0.54469-0.54469 1.3073-0.54469 0.76258 0 1.28 0.51746t0.51746 1.3345-0.5447 1.3617q-0.51746 0.51746-1.2528 0.51746z" fill="#333" style="font-feature-settings:normal;font-variant-caps:normal;font-variant-ligatures:normal;font-variant-numeric:normal"/>
<g fill="#199d4a">
<path d="m444.99 380.3q-0.57193 0.49023-1.4162 0.76257-0.84427 0.24512-1.743 0.24512-2.1788 0-3.3771-1.1711-1.1983-1.1711-1.1983-3.3499v-7.9253h-2.4511v-2.1516h2.4511v-3.1592h2.6145v3.1592h4.1397v2.1516h-4.1397v7.8164q0 1.1711 0.57193 1.7975 0.59916 0.6264 1.6886 0.6264 1.1983 0 2.0426-0.68087z" style="font-feature-settings:normal;font-variant-caps:normal;font-variant-ligatures:normal;font-variant-numeric:normal"/>
<path d="m453.86 381.31q-2.1516 0-3.8673-0.95322t-2.6962-2.6145q-0.95321-1.6886-0.95321-3.8129t0.95321-3.7856q0.98045-1.6886 2.6962-2.6145 1.7158-0.95321 3.8673-0.95321 2.1515 0 3.8401 0.95321 1.7158 0.92598 2.669 2.6145 0.98046 1.6613 0.98046 3.7856t-0.98046 3.8129q-0.95321 1.6613-2.669 2.6145-1.6886 0.95322-3.8401 0.95322zm0-2.2877q1.389 0 2.4784-0.6264 1.1166-0.65364 1.743-1.7975 0.62639-1.1711 0.62639-2.669t-0.62639-2.6418q-0.6264-1.1711-1.743-1.7975-1.0894-0.62639-2.4784-0.62639t-2.5056 0.62639q-1.0894 0.6264-1.743 1.7975-0.6264 1.1439-0.6264 2.6418t0.6264 2.669q0.65363 1.1439 1.743 1.7975 1.1166 0.6264 2.5056 0.6264z" style="font-feature-settings:normal;font-variant-caps:normal;font-variant-ligatures:normal;font-variant-numeric:normal"/>
<path d="m472.62 366.58q2.0971 0 3.7584 0.92598t2.5873 2.5873q0.95322 1.6613 0.95322 3.8401t-0.95322 3.8673q-0.92598 1.6613-2.5873 2.5873-1.6613 0.92599-3.7584 0.92599-1.5524 0-2.8596-0.59917-1.28-0.59916-2.1788-1.743v7.4623h-2.6145v-19.718h2.5056v2.2877q0.87151-1.1983 2.206-1.7975 1.3345-0.6264 2.9414-0.6264zm-0.21787 12.446q1.389 0 2.4784-0.6264 1.1166-0.65364 1.743-1.7975 0.65364-1.1711 0.65364-2.669t-0.65364-2.6418q-0.6264-1.1711-1.743-1.7975-1.0894-0.62639-2.4784-0.62639-1.3617 0-2.4784 0.65363-1.0894 0.6264-1.743 1.7703-0.6264 1.1439-0.6264 2.6418t0.6264 2.669q0.6264 1.1439 1.743 1.7975 1.1166 0.6264 2.4784 0.6264z" style="font-feature-settings:normal;font-variant-caps:normal;font-variant-ligatures:normal;font-variant-numeric:normal"/>
<path d="m483.53 366.71h2.6145v14.434h-2.6145zm1.3073-2.7779q-0.76257 0-1.28-0.49023-0.49022-0.49023-0.49022-1.1983t0.49022-1.1983q0.51747-0.51746 1.28-0.51746t1.2528 0.49023q0.51746 0.46299 0.51746 1.1711 0 0.73534-0.51746 1.2528-0.49023 0.49023-1.2528 0.49023z" style="font-feature-settings:normal;font-variant-caps:normal;font-variant-ligatures:normal;font-variant-numeric:normal"/>
<path d="m497.42 381.31q-2.206 0-3.949-0.95322-1.7158-0.95322-2.6962-2.6145-0.98045-1.6886-0.98045-3.8129t0.98045-3.7856q0.98045-1.6886 2.6962-2.6145 1.743-0.95321 3.949-0.95321 1.9609 0 3.486 0.7898 1.5524 0.78981 2.3967 2.2877l-1.9881 1.28q-0.68086-1.0349-1.6886-1.5524t-2.2332-0.51746q-1.4162 0-2.5601 0.62639-1.1166 0.6264-1.7702 1.7975-0.6264 1.1439-0.6264 2.6418 0 1.5251 0.6264 2.6962 0.65363 1.1439 1.7702 1.7703 1.1439 0.6264 2.5601 0.6264 1.2256 0 2.2332-0.51746t1.6886-1.5524l1.9881 1.2528q-0.84428 1.4979-2.3967 2.315-1.5251 0.78981-3.486 0.78981z" style="font-feature-settings:normal;font-variant-caps:normal;font-variant-ligatures:normal;font-variant-numeric:normal"/>
<path d="m512.41 358.22h2.3694l-8.9875 25.655h-2.3694z" style="font-feature-settings:normal;font-variant-caps:normal;font-variant-ligatures:normal;font-variant-numeric:normal"/>
<path d="m522.08 366.58q2.0971 0 3.7584 0.92598t2.5873 2.5873q0.95322 1.6613 0.95322 3.8401t-0.95322 3.8673q-0.92598 1.6613-2.5873 2.5873-1.6613 0.92599-3.7584 0.92599-1.5524 0-2.8596-0.59917-1.28-0.59916-2.1788-1.743v7.4623h-2.6145v-19.718h2.5056v2.2877q0.87151-1.1983 2.206-1.7975 1.3345-0.6264 2.9414-0.6264zm-0.21787 12.446q1.389 0 2.4784-0.6264 1.1166-0.65364 1.743-1.7975 0.65364-1.1711 0.65364-2.669t-0.65364-2.6418q-0.6264-1.1711-1.743-1.7975-1.0894-0.62639-2.4784-0.62639-1.3617 0-2.4784 0.65363-1.0894 0.6264-1.743 1.7703-0.6264 1.1439-0.6264 2.6418t0.6264 2.669q0.6264 1.1439 1.743 1.7975 1.1166 0.6264 2.4784 0.6264z" style="font-feature-settings:normal;font-variant-caps:normal;font-variant-ligatures:normal;font-variant-numeric:normal"/>
<path d="m538.09 366.58q2.9958 0 4.5754 1.4707 1.6068 1.4707 1.6068 4.3848v8.7151h-2.4784v-1.9064q-0.65364 1.0077-1.8792 1.5524-1.1983 0.51746-2.8596 0.51746-2.4239 0-3.8946-1.1711-1.4434-1.1711-1.4434-3.0775 0-1.9064 1.389-3.0503 1.389-1.1711 4.412-1.1711h4.1397v-0.51746q0-1.6886-0.98045-2.5873-0.98045-0.89875-2.8869-0.89875-1.28 0-2.5056 0.43576-1.2256 0.40852-2.0698 1.1166l-1.0894-1.9609q1.1166-0.89875 2.669-1.3617 1.5524-0.49022 3.2954-0.49022zm-0.59916 12.719q1.4979 0 2.5873-0.65363 1.0894-0.68087 1.5796-1.9064v-2.0154h-4.0307q-3.3226 0-3.3226 2.2332 0 1.0894 0.84428 1.7158 0.84428 0.62639 2.3422 0.62639z" style="font-feature-settings:normal;font-variant-caps:normal;font-variant-ligatures:normal;font-variant-numeric:normal"/>
<path d="m563.03 366.71v12.474q0 3.7856-1.8792 5.5831-1.8792 1.8247-5.6104 1.8247-2.0426 0-3.8946-0.57193-1.852-0.5447-2.9958-1.5796l1.2528-2.0154q1.0077 0.87151 2.4784 1.3617 1.4979 0.51746 3.0775 0.51746 2.5328 0 3.7312-1.1983 1.2256-1.1983 1.2256-3.6495v-1.1439q-0.92598 1.1166-2.2877 1.6886-1.3345 0.54469-2.9141 0.54469-2.0698 0-3.7584-0.87151-1.6613-0.89875-2.6145-2.4784-0.95322-1.6068-0.95322-3.6495 0-2.0426 0.95322-3.6222 0.95322-1.6068 2.6145-2.4784 1.6886-0.87151 3.7584-0.87151 1.6341 0 3.0231 0.59916 1.4162 0.59917 2.315 1.7703v-2.2332zm-7.5168 11.548q1.4162 0 2.5328-0.59916 1.1439-0.59916 1.7703-1.6613 0.65363-1.0894 0.65363-2.4511 0-2.0971-1.389-3.3771-1.389-1.3073-3.5678-1.3073-2.206 0-3.595 1.3073-1.389 1.28-1.389 3.3771 0 1.3617 0.62639 2.4511 0.65364 1.0622 1.7703 1.6613 1.1439 0.59916 2.5873 0.59916z" style="font-feature-settings:normal;font-variant-caps:normal;font-variant-ligatures:normal;font-variant-numeric:normal"/>
<path d="m581.04 374.01q0 0.29959-0.0545 0.78981h-11.711q0.24511 1.9064 1.6613 3.0775 1.4434 1.1439 3.5678 1.1439 2.5873 0 4.1669-1.743l1.4434 1.6886q-0.98045 1.1439-2.4511 1.743-1.4434 0.59917-3.2409 0.59917-2.2877 0-4.058-0.92599-1.7703-0.95321-2.7507-2.6418-0.95322-1.6886-0.95322-3.8129 0-2.0971 0.92598-3.7856 0.95322-1.6886 2.5873-2.6145 1.6613-0.95321 3.7312-0.95321t3.6767 0.95321q1.6341 0.92598 2.5328 2.6145 0.92598 1.6886 0.92598 3.8673zm-7.1355-5.2291q-1.8792 0-3.1592 1.1439-1.2528 1.1439-1.4707 2.9958h9.2598q-0.21787-1.8247-1.4979-2.9686-1.2528-1.1711-3.132-1.1711z" style="font-feature-settings:normal;font-variant-caps:normal;font-variant-ligatures:normal;font-variant-numeric:normal"/>
</g>
<path d="m596.58 368.97-0.65363 5.2836h3.7856v1.9881h-4.0308l-0.59916 4.9023h-1.9337l0.59917-4.9023h-5.1474l-0.59917 4.9023h-1.9337l0.59916-4.9023h-3.7584v-1.9881h4.0035l0.68087-5.2836h-3.8129v-1.9881h4.058l0.59916-4.9023h1.9337l-0.59917 4.9023h5.1201l0.59916-4.9023h1.9337l-0.59917 4.9023h3.7584v1.9881zm-1.9337 0h-5.1201l-0.68087 5.2836h5.1474z" fill="#333" style="font-feature-settings:normal;font-variant-caps:normal;font-variant-ligatures:normal;font-variant-numeric:normal"/>
<g fill="#7dc61f">
<path d="m609.08 362.93q-2.3422 0-2.3422 2.5328v1.2528h4.1942v2.1516h-4.1397v12.283h-2.6145v-12.283h-2.4511v-2.1516h2.4511v-1.28q0-2.1516 1.2528-3.4044t3.5133-1.2528q0.87151 0 1.6341 0.21788 0.76257 0.21788 1.3073 0.6264l-0.78981 1.9881q-0.89875-0.68087-2.0154-0.68087z" style="font-feature-settings:normal;font-variant-caps:normal;font-variant-ligatures:normal;font-variant-numeric:normal"/>
<path d="m618.11 369.14q0.68087-1.2528 2.0154-1.9064t3.2409-0.65363v2.5328q-0.21788-0.0272-0.59917-0.0272-2.1243 0-3.3499 1.28-1.1983 1.2528-1.1983 3.595v7.19h-2.6145v-14.434h2.5056z" style="font-feature-settings:normal;font-variant-caps:normal;font-variant-ligatures:normal;font-variant-numeric:normal"/>
<path d="m631.82 366.58q2.9958 0 4.5754 1.4707 1.6068 1.4707 1.6068 4.3848v8.7151h-2.4784v-1.9064q-0.65364 1.0077-1.8792 1.5524-1.1983 0.51746-2.8596 0.51746-2.4239 0-3.8946-1.1711-1.4434-1.1711-1.4434-3.0775 0-1.9064 1.389-3.0503 1.389-1.1711 4.412-1.1711h4.1397v-0.51746q0-1.6886-0.98045-2.5873-0.98045-0.89875-2.8869-0.89875-1.28 0-2.5056 0.43576-1.2256 0.40852-2.0698 1.1166l-1.0894-1.9609q1.1166-0.89875 2.669-1.3617 1.5524-0.49022 3.2954-0.49022zm-0.59916 12.719q1.4979 0 2.5873-0.65363 1.0894-0.68087 1.5796-1.9064v-2.0154h-4.0307q-3.3226 0-3.3226 2.2332 0 1.0894 0.84428 1.7158 0.84428 0.62639 2.3422 0.62639z" style="font-feature-settings:normal;font-variant-caps:normal;font-variant-ligatures:normal;font-variant-numeric:normal"/>
<path d="m656.75 366.71v12.474q0 3.7856-1.8792 5.5831-1.8792 1.8247-5.6104 1.8247-2.0426 0-3.8946-0.57193-1.852-0.5447-2.9958-1.5796l1.2528-2.0154q1.0077 0.87151 2.4784 1.3617 1.4979 0.51746 3.0775 0.51746 2.5328 0 3.7312-1.1983 1.2256-1.1983 1.2256-3.6495v-1.1439q-0.92598 1.1166-2.2877 1.6886-1.3345 0.54469-2.9141 0.54469-2.0698 0-3.7584-0.87151-1.6613-0.89875-2.6145-2.4784-0.95322-1.6068-0.95322-3.6495 0-2.0426 0.95322-3.6222 0.95322-1.6068 2.6145-2.4784 1.6886-0.87151 3.7584-0.87151 1.6341 0 3.0231 0.59916 1.4162 0.59917 2.315 1.7703v-2.2332zm-7.5168 11.548q1.4162 0 2.5328-0.59916 1.1439-0.59916 1.7703-1.6613 0.65363-1.0894 0.65363-2.4511 0-2.0971-1.389-3.3771-1.389-1.3073-3.5678-1.3073-2.206 0-3.595 1.3073-1.389 1.28-1.389 3.3771 0 1.3617 0.62639 2.4511 0.65364 1.0622 1.7703 1.6613 1.1439 0.59916 2.5873 0.59916z" style="font-feature-settings:normal;font-variant-caps:normal;font-variant-ligatures:normal;font-variant-numeric:normal"/>
<path d="m679.78 366.58q2.7235 0 4.3031 1.5796 1.6068 1.5796 1.6068 4.6844v8.3066h-2.6145v-8.007q0-2.0971-0.98045-3.1592-0.95322-1.0622-2.7507-1.0622-1.9881 0-3.1592 1.2528-1.1711 1.2256-1.1711 3.5405v7.4351h-2.6145v-8.007q0-2.0971-0.98045-3.1592-0.95322-1.0622-2.7507-1.0622-1.9881 0-3.1592 1.2528-1.1711 1.2256-1.1711 3.5405v7.4351h-2.6145v-14.434h2.5056v2.1516q0.78981-1.1166 2.0698-1.6886 1.28-0.59916 2.9141-0.59916 1.6886 0 2.9958 0.68086 1.3073 0.68087 2.0154 1.9881 0.81704-1.2528 2.2605-1.9609 1.4707-0.7081 3.2954-0.7081z" style="font-feature-settings:normal;font-variant-caps:normal;font-variant-ligatures:normal;font-variant-numeric:normal"/>
<path d="m703.65 374.01q0 0.29959-0.0545 0.78981h-11.711q0.24511 1.9064 1.6613 3.0775 1.4434 1.1439 3.5678 1.1439 2.5873 0 4.1669-1.743l1.4434 1.6886q-0.98045 1.1439-2.4511 1.743-1.4434 0.59917-3.2409 0.59917-2.2877 0-4.058-0.92599-1.7703-0.95321-2.7507-2.6418-0.95322-1.6886-0.95322-3.8129 0-2.0971 0.92598-3.7856 0.95322-1.6886 2.5873-2.6145 1.6613-0.95321 3.7312-0.95321t3.6767 0.95321q1.6341 0.92598 2.5328 2.6145 0.92598 1.6886 0.92598 3.8673zm-7.1355-5.2291q-1.8792 0-3.1592 1.1439-1.2528 1.1439-1.4707 2.9958h9.2598q-0.21787-1.8247-1.4979-2.9686-1.2528-1.1711-3.132-1.1711z" style="font-feature-settings:normal;font-variant-caps:normal;font-variant-ligatures:normal;font-variant-numeric:normal"/>
<path d="m714.96 366.58q2.7507 0 4.3576 1.6068 1.6341 1.5796 1.6341 4.6571v8.3066h-2.6145v-8.007q0-2.0971-1.0077-3.1592-1.0077-1.0622-2.8869-1.0622-2.1243 0-3.3499 1.2528-1.2256 1.2256-1.2256 3.5405v7.4351h-2.6145v-14.434h2.5056v2.1788q0.7898-1.1166 2.1243-1.7158 1.3617-0.59916 3.0775-0.59916z" style="font-feature-settings:normal;font-variant-caps:normal;font-variant-ligatures:normal;font-variant-numeric:normal"/>
<path d="m733.94 380.3q-0.57193 0.49023-1.4162 0.76257-0.84428 0.24512-1.743 0.24512-2.1788 0-3.3771-1.1711-1.1983-1.1711-1.1983-3.3499v-7.9253h-2.4511v-2.1516h2.4511v-3.1592h2.6145v3.1592h4.1397v2.1516h-4.1397v7.8164q0 1.1711 0.57193 1.7975 0.59917 0.6264 1.6886 0.6264 1.1983 0 2.0426-0.68087z" style="font-feature-settings:normal;font-variant-caps:normal;font-variant-ligatures:normal;font-variant-numeric:normal"/>
</g>
<g fill="#de4c36">
<path d="m32.691 445.19-5.0548 11.548h-2.1352l-5.0548-11.548h2.1788l3.9654 9.2598 4.0525-9.2598z" style="font-feature-settings:normal;font-variant-caps:normal;font-variant-ligatures:normal;font-variant-numeric:normal"/>
<path d="m44.739 451.03q0 0.23967-0.04358 0.63185h-9.3688q0.19609 1.5251 1.3291 2.462 1.1548 0.91509 2.8542 0.91509 2.0698 0 3.3335-1.3944l1.1548 1.3508q-0.78436 0.91509-1.9609 1.3944-1.1548 0.47933-2.5927 0.47933-1.8302 0-3.2464-0.74078-1.4162-0.76258-2.2006-2.1134-0.76257-1.3508-0.76257-3.0503 0-1.6777 0.74078-3.0285 0.76257-1.3508 2.0698-2.0916 1.3291-0.76258 2.9849-0.76258 1.6559 0 2.9414 0.76258 1.3073 0.74078 2.0263 2.0916 0.74079 1.3508 0.74079 3.0939zm-5.7084-4.1833q-1.5034 0-2.5274 0.91509-1.0022 0.91509-1.1765 2.3967h7.4079q-0.1743-1.4598-1.1983-2.3749-1.0022-0.93688-2.5056-0.93688z" style="font-feature-settings:normal;font-variant-caps:normal;font-variant-ligatures:normal;font-variant-numeric:normal"/>
<path d="m49.626 447.13q0.5447-1.0022 1.6123-1.5252 1.0676-0.52291 2.5927-0.52291v2.0263q-0.1743-0.0218-0.47933-0.0218-1.6994 0-2.6799 1.024-0.95866 1.0022-0.95866 2.876v5.752h-2.0916v-11.548h2.0045z" style="font-feature-settings:normal;font-variant-caps:normal;font-variant-ligatures:normal;font-variant-numeric:normal"/>
<path d="m59.785 456.87q-1.4162 0-2.7235-0.37039-1.3073-0.39218-2.0481-0.98045l0.87151-1.6559q0.76257 0.54469 1.852 0.87151t2.2006 0.32682q2.7453 0 2.7453-1.5687 0-0.5229-0.37039-0.82793t-0.93688-0.43576q-0.5447-0.15251-1.5687-0.32682-1.3944-0.21787-2.2877-0.50112-0.87151-0.28324-1.5034-0.95866-0.63185-0.67542-0.63185-1.8955 0-1.5687 1.3073-2.5056 1.3073-0.95867 3.5078-0.95867 1.1548 0 2.3095 0.28324 1.1548 0.28325 1.8955 0.76258l-0.8933 1.6559q-1.4162-0.91509-3.3335-0.91509-1.3291 0-2.0263 0.43576-0.69721 0.43575-0.69721 1.1548 0 0.56648 0.39218 0.8933 0.39218 0.32682 0.95866 0.47933 0.58827 0.15252 1.6341 0.34861 1.3944 0.23966 2.2441 0.52291 0.87151 0.26145 1.4816 0.91508 0.61006 0.65364 0.61006 1.8302 0 1.5687-1.3508 2.5056-1.3291 0.91508-3.6386 0.91508z" style="font-feature-settings:normal;font-variant-caps:normal;font-variant-ligatures:normal;font-variant-numeric:normal"/>
<path d="m67.409 445.19h2.0916v11.548h-2.0916zm1.0458-2.2224q-0.61006 0-1.024-0.39218-0.39218-0.39219-0.39218-0.95867t0.39218-0.95866q0.41397-0.41397 1.024-0.41397 0.61006 0 1.0022 0.39218 0.41397 0.37039 0.41397 0.93688 0 0.58827-0.41397 1.0022-0.39218 0.39218-1.0022 0.39218z" style="font-feature-settings:normal;font-variant-caps:normal;font-variant-ligatures:normal;font-variant-numeric:normal"/>
<path d="m78.441 456.87q-1.7212 0-3.0939-0.76257-1.3726-0.76257-2.157-2.0916-0.76257-1.3508-0.76257-3.0503t0.76257-3.0285q0.78436-1.3508 2.157-2.0916 1.3726-0.76258 3.0939-0.76258t3.0721 0.76258q1.3726 0.74078 2.1352 2.0916 0.78436 1.3291 0.78436 3.0285t-0.78436 3.0503q-0.76257 1.3291-2.1352 2.0916-1.3508 0.76257-3.0721 0.76257zm0-1.8302q1.1112 0 1.9827-0.50112 0.8933-0.52291 1.3944-1.438 0.50112-0.93687 0.50112-2.1352t-0.50112-2.1134q-0.50112-0.93687-1.3944-1.438-0.87151-0.50112-1.9827-0.50112t-2.0045 0.50112q-0.87151 0.50112-1.3944 1.438-0.50112 0.91509-0.50112 2.1134t0.50112 2.1352q0.52291 0.91509 1.3944 1.438 0.8933 0.50112 2.0045 0.50112z" style="font-feature-settings:normal;font-variant-caps:normal;font-variant-ligatures:normal;font-variant-numeric:normal"/>
<path d="m93.491 445.08q2.2006 0 3.486 1.2855 1.3073 1.2637 1.3073 3.7257v6.6453h-2.0916v-6.4056q0-1.6777-0.80615-2.5274-0.80615-0.84973-2.3095-0.84973-1.6994 0-2.6799 1.0022-0.98045 0.98045-0.98045 2.8324v5.9481h-2.0916v-11.548h2.0045v1.743q0.63185-0.8933 1.6994-1.3726 1.0894-0.47933 2.462-0.47933z" style="font-feature-settings:normal;font-variant-caps:normal;font-variant-ligatures:normal;font-variant-numeric:normal"/>
<path d="m112.99 456.87q-1.7212 0-3.0939-0.76257t-2.157-2.0916q-0.76257-1.3508-0.76257-3.0503t0.76257-3.0285q0.78437-1.3508 2.157-2.0916 1.3726-0.76258 3.0939-0.76258 1.7212 0 3.0721 0.76258 1.3726 0.74078 2.1352 2.0916 0.78436 1.3291 0.78436 3.0285t-0.78436 3.0503q-0.76257 1.3291-2.1352 2.0916-1.3508 0.76257-3.0721 0.76257zm0-1.8302q1.1112 0 1.9827-0.50112 0.8933-0.52291 1.3944-1.438 0.50112-0.93687 0.50112-2.1352t-0.50112-2.1134q-0.50112-0.93687-1.3944-1.438-0.87151-0.50112-1.9827-0.50112-1.1112 0-2.0045 0.50112-0.87152 0.50112-1.3944 1.438-0.50112 0.91509-0.50112 2.1134t0.50112 2.1352q0.5229 0.91509 1.3944 1.438 0.8933 0.50112 2.0045 0.50112z" style="font-feature-settings:normal;font-variant-caps:normal;font-variant-ligatures:normal;font-variant-numeric:normal"/>
<path d="m126.11 442.16q-1.8738 0-1.8738 2.0263v1.0022h3.3553v1.7212h-3.3117v9.8263h-2.0916v-9.8263h-1.9609v-1.7212h1.9609v-1.024q0-1.7212 1.0022-2.7235t2.8106-1.0022q0.69721 0 1.3073 0.1743 0.61006 0.17431 1.0458 0.50112l-0.63185 1.5905q-0.719-0.54469-1.6123-0.54469z" style="font-feature-settings:normal;font-variant-caps:normal;font-variant-ligatures:normal;font-variant-numeric:normal"/>
<path d="m16.101 484.1q-1.7648 0-3.1592-0.76258-1.3726-0.76257-2.157-2.0916-0.78436-1.3508-0.78436-3.0503t0.78436-3.0285q0.78436-1.3508 2.157-2.0916 1.3944-0.76258 3.1592-0.76258 1.5687 0 2.7888 0.63185 1.2419 0.63185 1.9173 1.8302l-1.5905 1.024q-0.5447-0.82793-1.3508-1.2419t-1.7866-0.41397q-1.133 0-2.0481 0.50112-0.8933 0.50112-1.4162 1.438-0.50112 0.91509-0.50112 2.1134 0 1.2201 0.50112 2.157 0.52291 0.91509 1.4162 1.4162 0.91509 0.50112 2.0481 0.50112 0.98045 0 1.7866-0.41397t1.3508-1.2419l1.5905 1.0022q-0.67542 1.1983-1.9173 1.852-1.2201 0.63185-2.7888 0.63185z" style="font-feature-settings:normal;font-variant-caps:normal;font-variant-ligatures:normal;font-variant-numeric:normal"/>
<path d="m28.269 484.1q-1.7212 0-3.0939-0.76258-1.3726-0.76257-2.157-2.0916-0.76257-1.3508-0.76257-3.0503t0.76257-3.0285q0.78436-1.3508 2.157-2.0916 1.3726-0.76258 3.0939-0.76258 1.7212 0 3.0721 0.76258 1.3726 0.74078 2.1352 2.0916 0.78436 1.329 0.78436 3.0285t-0.78436 3.0503q-0.76257 1.3291-2.1352 2.0916-1.3508 0.76258-3.0721 0.76258zm0-1.8302q1.1112 0 1.9827-0.50112 0.8933-0.52291 1.3944-1.438 0.50112-0.93688 0.50112-2.1352t-0.50112-2.1134q-0.50112-0.93687-1.3944-1.438-0.87151-0.50112-1.9827-0.50112t-2.0045 0.50112q-0.87151 0.50112-1.3944 1.438-0.50112 0.91509-0.50112 2.1134t0.50112 2.1352q0.52291 0.91508 1.3944 1.438 0.8933 0.50112 2.0045 0.50112z" style="font-feature-settings:normal;font-variant-caps:normal;font-variant-ligatures:normal;font-variant-numeric:normal"/>
<path d="m51.599 472.32q2.1788 0 3.4425 1.2637 1.2855 1.2637 1.2855 3.7475v6.6453h-2.0916v-6.4056q0-1.6777-0.78436-2.5274-0.76257-0.84972-2.2006-0.84972-1.5905 0-2.5274 1.0022-0.93688 0.98046-0.93688 2.8324v5.9481h-2.0916v-6.4056q0-1.6777-0.78436-2.5274-0.76257-0.84972-2.2006-0.84972-1.5905 0-2.5274 1.0022-0.93688 0.98046-0.93688 2.8324v5.9481h-2.0916v-11.548h2.0045v1.7212q0.63185-0.8933 1.6559-1.3508 1.024-0.47934 2.3313-0.47934 1.3508 0 2.3967 0.5447 1.0458 0.54469 1.6123 1.5905 0.65363-1.0022 1.8084-1.5687 1.1765-0.56649 2.6363-0.56649z" style="font-feature-settings:normal;font-variant-caps:normal;font-variant-ligatures:normal;font-variant-numeric:normal"/>
<path d="m66.298 472.32q1.6777 0 3.0067 0.74079t2.0698 2.0698q0.76257 1.3291 0.76257 3.0721 0 1.743-0.76257 3.0939-0.74078 1.329-2.0698 2.0698t-3.0067 0.74079q-1.2419 0-2.2877-0.47934-1.024-0.47933-1.743-1.3944v5.9699h-2.0916v-15.774h2.0045v1.8302q0.69721-0.95866 1.7648-1.438 1.0676-0.50112 2.3531-0.50112zm-0.1743 9.957q1.1112 0 1.9827-0.50112 0.8933-0.52291 1.3944-1.438 0.52291-0.93688 0.52291-2.1352t-0.52291-2.1134q-0.50112-0.93687-1.3944-1.438-0.87151-0.50112-1.9827-0.50112-1.0894 0-1.9827 0.52291-0.87151 0.50112-1.3944 1.4162-0.50112 0.91509-0.50112 2.1134t0.50112 2.1352q0.50112 0.91508 1.3944 1.438 0.8933 0.50112 1.9827 0.50112z" style="font-feature-settings:normal;font-variant-caps:normal;font-variant-ligatures:normal;font-variant-numeric:normal"/>
<path d="m79.973 484.1q-1.7212 0-3.0939-0.76258-1.3726-0.76257-2.157-2.0916-0.76257-1.3508-0.76257-3.0503t0.76257-3.0285q0.78436-1.3508 2.157-2.0916 1.3726-0.76258 3.0939-0.76258 1.7212 0 3.0721 0.76258 1.3726 0.74078 2.1352 2.0916 0.78436 1.329 0.78436 3.0285t-0.78436 3.0503q-0.76257 1.3291-2.1352 2.0916-1.3508 0.76258-3.0721 0.76258zm0-1.8302q1.1112 0 1.9827-0.50112 0.8933-0.52291 1.3944-1.438 0.50112-0.93688 0.50112-2.1352t-0.50112-2.1134q-0.50112-0.93687-1.3944-1.438-0.87151-0.50112-1.9827-0.50112t-2.0045 0.50112q-0.87151 0.50112-1.3944 1.438-0.50112 0.91509-0.50112 2.1134t0.50112 2.1352q0.52291 0.91508 1.3944 1.438 0.8933 0.50112 2.0045 0.50112z" style="font-feature-settings:normal;font-variant-caps:normal;font-variant-ligatures:normal;font-variant-numeric:normal"/>
<path d="m95.023 472.32q2.2006 0 3.486 1.2855 1.3073 1.2637 1.3073 3.7257v6.6453h-2.0916v-6.4056q0-1.6777-0.80615-2.5274-0.80615-0.84972-2.3095-0.84972-1.6994 0-2.6799 1.0022-0.98045 0.98046-0.98045 2.8324v5.9481h-2.0916v-11.548h2.0045v1.743q0.63185-0.8933 1.6994-1.3726 1.0894-0.47934 2.462-0.47934z" style="font-feature-settings:normal;font-variant-caps:normal;font-variant-ligatures:normal;font-variant-numeric:normal"/>
<path d="m114.23 478.26q0 0.23967-0.0436 0.63185h-9.3688q0.19609 1.5252 1.3291 2.462 1.1548 0.91509 2.8542 0.91509 2.0698 0 3.3335-1.3944l1.1548 1.3508q-0.78436 0.91509-1.9609 1.3944-1.1548 0.47934-2.5927 0.47934-1.8302 0-3.2464-0.74079-1.4162-0.76257-2.2006-2.1134-0.76258-1.3508-0.76258-3.0503 0-1.6777 0.74079-3.0285 0.76257-1.3508 2.0698-2.0916 1.3291-0.76258 2.9849-0.76258t2.9414 0.76258q1.3073 0.74078 2.0263 2.0916 0.74078 1.3508 0.74078 3.0939zm-5.7084-4.1832q-1.5034 0-2.5274 0.91508-1.0022 0.91509-1.1765 2.3967h7.4078q-0.1743-1.4598-1.1983-2.3749-1.0022-0.93687-2.5056-0.93687z" style="font-feature-settings:normal;font-variant-caps:normal;font-variant-ligatures:normal;font-variant-numeric:normal"/>
<path d="m123.28 472.32q2.2006 0 3.486 1.2855 1.3073 1.2637 1.3073 3.7257v6.6453h-2.0916v-6.4056q0-1.6777-0.80615-2.5274t-2.3095-0.84972q-1.6994 0-2.6799 1.0022-0.98045 0.98046-0.98045 2.8324v5.9481h-2.0916v-11.548h2.0045v1.743q0.63185-0.8933 1.6994-1.3726 1.0894-0.47934 2.462-0.47934z" style="font-feature-settings:normal;font-variant-caps:normal;font-variant-ligatures:normal;font-variant-numeric:normal"/>
<path d="m138.46 483.3q-0.45754 0.39218-1.133 0.61006-0.67542 0.19609-1.3944 0.19609-1.743 0-2.7017-0.93688-0.95866-0.93688-0.95866-2.6799v-6.3402h-1.9609v-1.7212h1.9609v-2.5274h2.0916v2.5274h3.3117v1.7212h-3.3117v6.2531q0 0.93687 0.45754 1.438 0.47933 0.50112 1.3508 0.50112 0.95866 0 1.6341-0.54469z" style="font-feature-settings:normal;font-variant-caps:normal;font-variant-ligatures:normal;font-variant-numeric:normal"/>
</g>
<g fill="#9340a4">
<path d="m196.17 262.32q2.2006 0 3.486 1.2855 1.3073 1.2637 1.3073 3.7257v6.6453h-2.0916v-6.4056q0-1.6777-0.80615-2.5274t-2.3095-0.84972q-1.6994 0-2.6799 1.0022-0.98045 0.98046-0.98045 2.8324v5.9481h-2.0916v-11.548h2.0045v1.743q0.63185-0.8933 1.6994-1.3726 1.0894-0.47934 2.462-0.47934z" style="font-feature-settings:normal;font-variant-caps:normal;font-variant-ligatures:normal;font-variant-numeric:normal"/>
<path d="m209.06 262.32q2.3967 0 3.6604 1.1766 1.2855 1.1765 1.2855 3.5078v6.9721h-1.9827v-1.5252q-0.5229 0.80615-1.5034 1.2419-0.95867 0.41397-2.2877 0.41397-1.9391 0-3.1157-0.93688-1.1548-0.93688-1.1548-2.462 0-1.5252 1.1112-2.4402 1.1112-0.93687 3.5296-0.93687h3.3118v-0.41397q0-1.3508-0.78437-2.0698-0.78436-0.719-2.3095-0.719-1.024 0-2.0045 0.34861-0.98045 0.32681-1.6559 0.8933l-0.87152-1.5687q0.8933-0.71899 2.1352-1.0894 1.2419-0.39218 2.6363-0.39218zm-0.47933 10.175q1.1983 0 2.0698-0.52291 0.87151-0.54469 1.2637-1.5252v-1.6123h-3.2246q-2.6581 0-2.6581 1.7866 0 0.87151 0.67542 1.3726t1.8738 0.50112z" style="font-feature-settings:normal;font-variant-caps:normal;font-variant-ligatures:normal;font-variant-numeric:normal"/>
<path d="m232.32 262.32q2.1788 0 3.4425 1.2637 1.2855 1.2637 1.2855 3.7475v6.6453h-2.0916v-6.4056q0-1.6777-0.78436-2.5274-0.76257-0.84972-2.2006-0.84972-1.5905 0-2.5274 1.0022-0.93688 0.98046-0.93688 2.8324v5.9481h-2.0916v-6.4056q0-1.6777-0.78436-2.5274-0.76257-0.84972-2.2006-0.84972-1.5905 0-2.5274 1.0022-0.93688 0.98046-0.93688 2.8324v5.9481h-2.0916v-11.548h2.0045v1.7212q0.63185-0.8933 1.6559-1.3508 1.024-0.47934 2.3313-0.47934 1.3508 0 2.3967 0.5447 1.0458 0.54469 1.6123 1.5905 0.65364-1.0022 1.8084-1.5687 1.1765-0.56649 2.6363-0.56649z" style="font-feature-settings:normal;font-variant-caps:normal;font-variant-ligatures:normal;font-variant-numeric:normal"/>
<path d="m251.42 268.27q0 0.23967-0.0436 0.63185h-9.3688q0.19609 1.5252 1.329 2.462 1.1548 0.91509 2.8542 0.91509 2.0698 0 3.3335-1.3944l1.1548 1.3508q-0.78436 0.91509-1.9609 1.3944-1.1548 0.47934-2.5928 0.47934-1.8302 0-3.2464-0.74079-1.4162-0.76257-2.2006-2.1134-0.76257-1.3508-0.76257-3.0503 0-1.6777 0.74078-3.0285 0.76258-1.3508 2.0698-2.0916 1.3291-0.76258 2.9849-0.76258 1.6559 0 2.9414 0.76258 1.3073 0.74078 2.0263 2.0916 0.74079 1.3508 0.74079 3.0939zm-5.7084-4.1832q-1.5034 0-2.5274 0.91508-1.0022 0.91509-1.1765 2.3967h7.4078q-0.1743-1.4598-1.1983-2.3749-1.0022-0.93687-2.5056-0.93687z" style="font-feature-settings:normal;font-variant-caps:normal;font-variant-ligatures:normal;font-variant-numeric:normal"/>
<path d="m265.12 274.11q-1.7212 0-3.0939-0.76258-1.3726-0.76257-2.157-2.0916-0.76257-1.3508-0.76257-3.0503t0.76257-3.0285q0.78436-1.3508 2.157-2.0916 1.3726-0.76258 3.0939-0.76258t3.0721 0.76258q1.3726 0.74078 2.1352 2.0916 0.78436 1.329 0.78436 3.0285t-0.78436 3.0503q-0.76258 1.3291-2.1352 2.0916-1.3508 0.76258-3.0721 0.76258zm0-1.8302q1.1112 0 1.9827-0.50112 0.8933-0.52291 1.3944-1.438 0.50112-0.93688 0.50112-2.1352t-0.50112-2.1134q-0.50112-0.93687-1.3944-1.438-0.87151-0.50112-1.9827-0.50112t-2.0045 0.50112q-0.87151 0.50112-1.3944 1.438-0.50112 0.91509-0.50112 2.1134t0.50112 2.1352q0.52291 0.91508 1.3944 1.438 0.8933 0.50112 2.0045 0.50112z" style="font-feature-settings:normal;font-variant-caps:normal;font-variant-ligatures:normal;font-variant-numeric:normal"/>
<path d="m278.23 259.4q-1.8738 0-1.8738 2.0263v1.0022h3.3553v1.7212h-3.3118v9.8263h-2.0916v-9.8263h-1.9609v-1.7212h1.9609v-1.024q0-1.7212 1.0022-2.7235 1.0022-1.0022 2.8106-1.0022 0.69721 0 1.3073 0.17431 0.61006 0.1743 1.0458 0.50111l-0.63184 1.5905q-0.719-0.54469-1.6123-0.54469z" style="font-feature-settings:normal;font-variant-caps:normal;font-variant-ligatures:normal;font-variant-numeric:normal"/>
<path d="m175.93 301.34q-1.7648 0-3.1592-0.76258-1.3726-0.76257-2.157-2.0916-0.78436-1.3508-0.78436-3.0503t0.78436-3.0285q0.78437-1.3508 2.157-2.0916 1.3944-0.76257 3.1592-0.76257 1.5687 0 2.7888 0.63184 1.2419 0.63185 1.9173 1.8302l-1.5905 1.024q-0.54469-0.82793-1.3508-1.2419t-1.7866-0.41397q-1.133 0-2.048 0.50112-0.8933 0.50112-1.4162 1.438-0.50112 0.91508-0.50112 2.1134 0 1.2201 0.50112 2.157 0.52291 0.91508 1.4162 1.4162 0.91508 0.50112 2.048 0.50112 0.98045 0 1.7866-0.41397 0.80615-0.41396 1.3508-1.2419l1.5905 1.0022q-0.67542 1.1983-1.9173 1.852-1.2201 0.63185-2.7888 0.63185z" style="font-feature-settings:normal;font-variant-caps:normal;font-variant-ligatures:normal;font-variant-numeric:normal"/>
<path d="m188.1 301.34q-1.7212 0-3.0939-0.76258-1.3726-0.76257-2.157-2.0916-0.76257-1.3508-0.76257-3.0503t0.76257-3.0285q0.78437-1.3508 2.157-2.0916 1.3726-0.76257 3.0939-0.76257 1.7212 0 3.0721 0.76257 1.3726 0.74078 2.1352 2.0916 0.78436 1.329 0.78436 3.0285t-0.78436 3.0503q-0.76257 1.329-2.1352 2.0916-1.3508 0.76258-3.0721 0.76258zm0-1.8302q1.1112 0 1.9827-0.50112 0.8933-0.5229 1.3944-1.438 0.50112-0.93688 0.50112-2.1352t-0.50112-2.1134q-0.50112-0.93688-1.3944-1.438-0.87151-0.50112-1.9827-0.50112-1.1112 0-2.0045 0.50112-0.87151 0.50112-1.3944 1.438-0.50112 0.91508-0.50112 2.1134t0.50112 2.1352q0.52291 0.91509 1.3944 1.438 0.8933 0.50112 2.0045 0.50112z" style="font-feature-settings:normal;font-variant-caps:normal;font-variant-ligatures:normal;font-variant-numeric:normal"/>
<path d="m211.43 289.55q2.1788 0 3.4425 1.2637 1.2855 1.2637 1.2855 3.7475v6.6453h-2.0916v-6.4056q0-1.6777-0.78436-2.5274-0.76258-0.84972-2.2006-0.84972-1.5905 0-2.5274 1.0022-0.93687 0.98045-0.93687 2.8324v5.9481h-2.0916v-6.4056q0-1.6777-0.78436-2.5274-0.76258-0.84972-2.2006-0.84972-1.5905 0-2.5274 1.0022-0.93688 0.98045-0.93688 2.8324v5.9481h-2.0916v-11.548h2.0045v1.7212q0.63184-0.8933 1.6559-1.3508 1.024-0.47933 2.3313-0.47933 1.3508 0 2.3966 0.54469 1.0458 0.5447 1.6123 1.5905 0.65364-1.0022 1.8084-1.5687 1.1765-0.56648 2.6363-0.56648z" style="font-feature-settings:normal;font-variant-caps:normal;font-variant-ligatures:normal;font-variant-numeric:normal"/>
<path d="m226.13 289.55q1.6777 0 3.0067 0.74078 1.329 0.74079 2.0698 2.0698 0.76257 1.3291 0.76257 3.0721 0 1.743-0.76257 3.0939-0.74079 1.3291-2.0698 2.0698-1.3291 0.74079-3.0067 0.74079-1.2419 0-2.2877-0.47933-1.024-0.47934-1.743-1.3944v5.9698h-2.0916v-15.774h2.0045v1.8302q0.69721-0.95866 1.7648-1.438 1.0676-0.50112 2.3531-0.50112zm-0.1743 9.957q1.1112 0 1.9827-0.50112 0.8933-0.5229 1.3944-1.438 0.5229-0.93688 0.5229-2.1352t-0.5229-2.1134q-0.50112-0.93688-1.3944-1.438-0.87151-0.50112-1.9827-0.50112-1.0894 0-1.9827 0.52291-0.87151 0.50112-1.3944 1.4162-0.50112 0.91508-0.50112 2.1134t0.50112 2.1352q0.50112 0.91509 1.3944 1.438 0.8933 0.50112 1.9827 0.50112z" style="font-feature-settings:normal;font-variant-caps:normal;font-variant-ligatures:normal;font-variant-numeric:normal"/>
<path d="m239.8 301.34q-1.7212 0-3.0939-0.76258-1.3726-0.76257-2.157-2.0916-0.76257-1.3508-0.76257-3.0503t0.76257-3.0285q0.78436-1.3508 2.157-2.0916 1.3726-0.76257 3.0939-0.76257t3.0721 0.76257q1.3726 0.74078 2.1352 2.0916 0.78436 1.329 0.78436 3.0285t-0.78436 3.0503q-0.76258 1.329-2.1352 2.0916-1.3508 0.76258-3.0721 0.76258zm0-1.8302q1.1112 0 1.9827-0.50112 0.8933-0.5229 1.3944-1.438 0.50112-0.93688 0.50112-2.1352t-0.50112-2.1134q-0.50112-0.93688-1.3944-1.438-0.87151-0.50112-1.9827-0.50112t-2.0045 0.50112q-0.87151 0.50112-1.3944 1.438-0.50112 0.91508-0.50112 2.1134t0.50112 2.1352q0.52291 0.91509 1.3944 1.438 0.8933 0.50112 2.0045 0.50112z" style="font-feature-settings:normal;font-variant-caps:normal;font-variant-ligatures:normal;font-variant-numeric:normal"/>
<path d="m254.85 289.55q2.2006 0 3.486 1.2855 1.3073 1.2637 1.3073 3.7257v6.6453h-2.0916v-6.4056q0-1.6777-0.80615-2.5274-0.80615-0.84972-2.3095-0.84972-1.6994 0-2.6799 1.0022-0.98045 0.98045-0.98045 2.8324v5.9481h-2.0916v-11.548h2.0045v1.743q0.63185-0.8933 1.6994-1.3726 1.0894-0.47933 2.462-0.47933z" style="font-feature-settings:normal;font-variant-caps:normal;font-variant-ligatures:normal;font-variant-numeric:normal"/>
<path d="m274.06 295.5q0 0.23966-0.0436 0.63184h-9.3688q0.1961 1.5252 1.3291 2.462 1.1548 0.91509 2.8542 0.91509 2.0698 0 3.3335-1.3944l1.1548 1.3508q-0.78436 0.91508-1.9609 1.3944-1.1548 0.47933-2.5928 0.47933-1.8302 0-3.2464-0.74079-1.4162-0.76257-2.2006-2.1134-0.76257-1.3508-0.76257-3.0503 0-1.6777 0.74078-3.0285 0.76257-1.3508 2.0698-2.0916 1.3291-0.76257 2.9849-0.76257t2.9414 0.76257q1.3073 0.74078 2.0263 2.0916 0.74079 1.3508 0.74079 3.0939zm-5.7084-4.1833q-1.5034 0-2.5274 0.91509-1.0022 0.91508-1.1766 2.3966h7.4079q-0.1743-1.4598-1.1983-2.3749-1.0022-0.93687-2.5056-0.93687z" style="font-feature-settings:normal;font-variant-caps:normal;font-variant-ligatures:normal;font-variant-numeric:normal"/>
<path d="m283.11 289.55q2.2006 0 3.486 1.2855 1.3073 1.2637 1.3073 3.7257v6.6453h-2.0916v-6.4056q0-1.6777-0.80615-2.5274-0.80615-0.84972-2.3095-0.84972-1.6994 0-2.6799 1.0022-0.98045 0.98045-0.98045 2.8324v5.9481h-2.0916v-11.548h2.0045v1.743q0.63185-0.8933 1.6994-1.3726 1.0894-0.47933 2.462-0.47933z" style="font-feature-settings:normal;font-variant-caps:normal;font-variant-ligatures:normal;font-variant-numeric:normal"/>
<path d="m298.28 300.54q-0.45755 0.39218-1.133 0.61006-0.67542 0.19609-1.3944 0.19609-1.743 0-2.7017-0.93688-0.95866-0.93687-0.95866-2.6799v-6.3402h-1.9609v-1.7212h1.9609v-2.5274h2.0916v2.5274h3.3118v1.7212h-3.3118v6.2531q0 0.93688 0.45754 1.438 0.47934 0.50112 1.3508 0.50112 0.95866 0 1.6341-0.5447z" style="font-feature-settings:normal;font-variant-caps:normal;font-variant-ligatures:normal;font-variant-numeric:normal"/>
</g>
<g fill="#b91d5e">
<path d="m337.22 444.88q2.2006 0 3.486 1.2855 1.3073 1.2637 1.3073 3.7257v6.6453h-2.0916v-6.4056q0-1.6777-0.80615-2.5274-0.80615-0.84972-2.3095-0.84972-1.6994 0-2.6799 1.0022-0.98045 0.98045-0.98045 2.8324v5.9481h-2.0916v-11.548h2.0045v1.743q0.63185-0.8933 1.6994-1.3726 1.0894-0.47933 2.462-0.47933z" style="font-feature-settings:normal;font-variant-caps:normal;font-variant-ligatures:normal;font-variant-numeric:normal"/>
<path d="m350.11 444.88q2.3967 0 3.6604 1.1765 1.2855 1.1765 1.2855 3.5078v6.9721h-1.9827v-1.5252q-0.52291 0.80615-1.5034 1.2419-0.95866 0.41397-2.2877 0.41397-1.9391 0-3.1156-0.93688-1.1548-0.93687-1.1548-2.462t1.1112-2.4402q1.1112-0.93688 3.5296-0.93688h3.3118v-0.41397q0-1.3508-0.78436-2.0698t-2.3095-0.719q-1.024 0-2.0045 0.34861-0.98045 0.32682-1.6559 0.8933l-0.87151-1.5687q0.8933-0.719 2.1352-1.0894 1.2419-0.39218 2.6363-0.39218zm-0.47933 10.175q1.1983 0 2.0698-0.52291 0.87151-0.54469 1.2637-1.5251v-1.6123h-3.2246q-2.6581 0-2.6581 1.7866 0 0.87151 0.67543 1.3726 0.67542 0.50112 1.8738 0.50112z" style="font-feature-settings:normal;font-variant-caps:normal;font-variant-ligatures:normal;font-variant-numeric:normal"/>
<path d="m373.37 444.88q2.1788 0 3.4425 1.2637 1.2855 1.2637 1.2855 3.7475v6.6453h-2.0916v-6.4056q0-1.6777-0.78436-2.5274-0.76257-0.84972-2.2006-0.84972-1.5905 0-2.5274 1.0022-0.93688 0.98045-0.93688 2.8324v5.9481h-2.0916v-6.4056q0-1.6777-0.78436-2.5274-0.76258-0.84972-2.2006-0.84972-1.5905 0-2.5274 1.0022-0.93687 0.98045-0.93687 2.8324v5.9481h-2.0916v-11.548h2.0045v1.7212q0.63184-0.8933 1.6559-1.3508 1.024-0.47933 2.3313-0.47933 1.3508 0 2.3967 0.54469 1.0458 0.5447 1.6123 1.5905 0.65363-1.0022 1.8084-1.5687 1.1765-0.56648 2.6363-0.56648z" style="font-feature-settings:normal;font-variant-caps:normal;font-variant-ligatures:normal;font-variant-numeric:normal"/>
<path d="m392.47 450.83q0 0.23966-0.0436 0.63184h-9.3688q0.19609 1.5252 1.3291 2.462 1.1548 0.91509 2.8542 0.91509 2.0698 0 3.3335-1.3944l1.1548 1.3508q-0.78436 0.91508-1.9609 1.3944-1.1548 0.47934-2.5927 0.47934-1.8302 0-3.2464-0.74079-1.4162-0.76257-2.2006-2.1134-0.76258-1.3508-0.76258-3.0503 0-1.6777 0.74079-3.0285 0.76257-1.3508 2.0698-2.0916 1.329-0.76257 2.9849-0.76257 1.6559 0 2.9414 0.76257 1.3073 0.74078 2.0263 2.0916 0.74078 1.3508 0.74078 3.0939zm-5.7084-4.1833q-1.5034 0-2.5274 0.91509-1.0022 0.91508-1.1765 2.3966h7.4078q-0.1743-1.4598-1.1983-2.3749-1.0022-0.93687-2.5056-0.93687z" style="font-feature-settings:normal;font-variant-caps:normal;font-variant-ligatures:normal;font-variant-numeric:normal"/>
<path d="m406.17 456.67q-1.7212 0-3.0939-0.76258-1.3726-0.76257-2.157-2.0916-0.76258-1.3508-0.76258-3.0503t0.76258-3.0285q0.78436-1.3508 2.157-2.0916 1.3726-0.76257 3.0939-0.76257 1.7212 0 3.0721 0.76257 1.3726 0.74078 2.1352 2.0916 0.78436 1.329 0.78436 3.0285t-0.78436 3.0503q-0.76257 1.3291-2.1352 2.0916-1.3508 0.76258-3.0721 0.76258zm0-1.8302q1.1112 0 1.9827-0.50112 0.8933-0.52291 1.3944-1.438 0.50112-0.93688 0.50112-2.1352t-0.50112-2.1134q-0.50111-0.93688-1.3944-1.438-0.87152-0.50112-1.9827-0.50112-1.1112 0-2.0045 0.50112-0.87151 0.50112-1.3944 1.438-0.50112 0.91508-0.50112 2.1134t0.50112 2.1352q0.52291 0.91508 1.3944 1.438 0.8933 0.50112 2.0045 0.50112z" style="font-feature-settings:normal;font-variant-caps:normal;font-variant-ligatures:normal;font-variant-numeric:normal"/>
<path d="m419.28 441.97q-1.8738 0-1.8738 2.0263v1.0022h3.3553v1.7212h-3.3118v9.8263h-2.0916v-9.8263h-1.9609v-1.7212h1.9609v-1.024q0-1.7212 1.0022-2.7235t2.8106-1.0022q0.69721 0 1.3073 0.17431 0.61006 0.1743 1.0458 0.50112l-0.63185 1.5905q-0.719-0.5447-1.6123-0.5447z" style="font-feature-settings:normal;font-variant-caps:normal;font-variant-ligatures:normal;font-variant-numeric:normal"/>
<path d="m313.15 472.12q2.1788 0 3.4425 1.2637 1.2855 1.2637 1.2855 3.7475v6.6453h-2.0916v-6.4056q0-1.6777-0.78436-2.5274-0.76257-0.84972-2.2006-0.84972-1.5905 0-2.5274 1.0022-0.93688 0.98045-0.93688 2.8324v5.9481h-2.0916v-6.4056q0-1.6777-0.78436-2.5274-0.76257-0.84972-2.2006-0.84972-1.5905 0-2.5274 1.0022-0.93688 0.98045-0.93688 2.8324v5.9481h-2.0916v-11.548h2.0045v1.7212q0.63185-0.8933 1.6559-1.3508 1.024-0.47933 2.3313-0.47933 1.3508 0 2.3967 0.54469 1.0458 0.5447 1.6123 1.5905 0.65364-1.0022 1.8084-1.5687 1.1765-0.56648 2.6363-0.56648z" style="font-feature-settings:normal;font-variant-caps:normal;font-variant-ligatures:normal;font-variant-numeric:normal"/>
<path d="m326.76 483.91q-1.7212 0-3.0939-0.76257-1.3726-0.76258-2.157-2.0916-0.76257-1.3508-0.76257-3.0503 0-1.6994 0.76257-3.0285 0.78436-1.3508 2.157-2.0916 1.3726-0.76257 3.0939-0.76257t3.0721 0.76257q1.3726 0.74079 2.1352 2.0916 0.78437 1.3291 0.78437 3.0285 0 1.6994-0.78437 3.0503-0.76257 1.329-2.1352 2.0916-1.3508 0.76257-3.0721 0.76257zm0-1.8302q1.1112 0 1.9827-0.50112 0.8933-0.5229 1.3944-1.438 0.50112-0.93688 0.50112-2.1352 0-1.1983-0.50112-2.1134-0.50112-0.93688-1.3944-1.438-0.87151-0.50112-1.9827-0.50112t-2.0045 0.50112q-0.87151 0.50112-1.3944 1.438-0.50112 0.91509-0.50112 2.1134 0 1.1983 0.50112 2.1352 0.52291 0.91509 1.3944 1.438 0.8933 0.50112 2.0045 0.50112z" style="font-feature-settings:normal;font-variant-caps:normal;font-variant-ligatures:normal;font-variant-numeric:normal"/>
<path d="m346.54 467.61v16.167h-2.0045v-1.8302q-0.69721 0.95866-1.7648 1.4598t-2.3531 0.50112q-1.6777 0-3.0067-0.74079-1.3291-0.74078-2.0916-2.0698-0.74078-1.3508-0.74078-3.0939 0-1.743 0.74078-3.0721 0.76257-1.329 2.0916-2.0698 1.3291-0.74078 3.0067-0.74078 1.2419 0 2.2877 0.47933 1.0458 0.45754 1.743 1.3726v-6.362zm-5.9481 14.467q1.0894 0 1.9827-0.50112 0.8933-0.5229 1.3944-1.438 0.50112-0.93688 0.50112-2.1352 0-1.1983-0.50112-2.1134-0.50112-0.93688-1.3944-1.438t-1.9827-0.50112q-1.1112 0-2.0045 0.50112-0.87151 0.50112-1.3944 1.438-0.50112 0.91509-0.50112 2.1134 0 1.1983 0.50112 2.1352 0.52291 0.91509 1.3944 1.438 0.8933 0.50112 2.0045 0.50112z" style="font-feature-settings:normal;font-variant-caps:normal;font-variant-ligatures:normal;font-variant-numeric:normal"/>
<path d="m361.26 472.23v11.548h-1.9827v-1.743q-0.63185 0.8933-1.6777 1.3944-1.024 0.47933-2.2441 0.47933-2.3095 0-3.6386-1.2637-1.329-1.2855-1.329-3.7693v-6.6453h2.0916v6.4056q0 1.6777 0.80614 2.5492 0.80615 0.84973 2.3095 0.84973 1.6559 0 2.6145-1.0022 0.95866-1.0022 0.95866-2.8324v-5.9698z" style="font-feature-settings:normal;font-variant-caps:normal;font-variant-ligatures:normal;font-variant-numeric:normal"/>
<path d="m365.26 467.61h2.0916v16.167h-2.0916z" style="font-feature-settings:normal;font-variant-caps:normal;font-variant-ligatures:normal;font-variant-numeric:normal"/>
<path d="m381.79 478.07q0 0.23966-0.0436 0.63184h-9.3688q0.19609 1.5252 1.3291 2.462 1.1548 0.91508 2.8542 0.91508 2.0698 0 3.3335-1.3944l1.1548 1.3508q-0.78437 0.91509-1.9609 1.3944-1.1548 0.47933-2.5928 0.47933-1.8302 0-3.2464-0.74079-1.4162-0.76257-2.2006-2.1134-0.76257-1.3508-0.76257-3.0503 0-1.6777 0.74079-3.0285 0.76257-1.3508 2.0698-2.0916 1.329-0.76257 2.9849-0.76257 1.6559 0 2.9414 0.76257 1.3073 0.74079 2.0263 2.0916 0.74078 1.3508 0.74078 3.0939zm-5.7084-4.1833q-1.5034 0-2.5274 0.91509-1.0022 0.91509-1.1765 2.3967h7.4078q-0.1743-1.4598-1.1983-2.3749-1.0022-0.93688-2.5056-0.93688z" style="font-feature-settings:normal;font-variant-caps:normal;font-variant-ligatures:normal;font-variant-numeric:normal"/>
<path d="m394.77 469.2q-1.8738 0-1.8738 2.0263v1.0022h3.3553v1.7212h-3.3117v9.8263h-2.0916v-9.8263h-1.9609v-1.7212h1.9609v-1.024q0-1.7212 1.0022-2.7235 1.0022-1.0022 2.8106-1.0022 0.69721 0 1.3073 0.1743t1.0458 0.50112l-0.63184 1.5905q-0.719-0.5447-1.6123-0.5447z" style="font-feature-settings:normal;font-variant-caps:normal;font-variant-ligatures:normal;font-variant-numeric:normal"/>
<path d="m403.02 483.91q-1.7212 0-3.0939-0.76257-1.3726-0.76258-2.157-2.0916-0.76257-1.3508-0.76257-3.0503 0-1.6994 0.76257-3.0285 0.78436-1.3508 2.157-2.0916 1.3726-0.76257 3.0939-0.76257 1.7212 0 3.0721 0.76257 1.3726 0.74079 2.1352 2.0916 0.78436 1.3291 0.78436 3.0285 0 1.6994-0.78436 3.0503-0.76258 1.329-2.1352 2.0916-1.3508 0.76257-3.0721 0.76257zm0-1.8302q1.1112 0 1.9827-0.50112 0.8933-0.5229 1.3944-1.438 0.50112-0.93688 0.50112-2.1352 0-1.1983-0.50112-2.1134-0.50112-0.93688-1.3944-1.438-0.87151-0.50112-1.9827-0.50112t-2.0045 0.50112q-0.87152 0.50112-1.3944 1.438-0.50112 0.91509-0.50112 2.1134 0 1.1983 0.50112 2.1352 0.5229 0.91509 1.3944 1.438 0.89329 0.50112 2.0045 0.50112z" style="font-feature-settings:normal;font-variant-caps:normal;font-variant-ligatures:normal;font-variant-numeric:normal"/>
<path d="m411.9 467.61h2.0916v16.167h-2.0916z" style="font-feature-settings:normal;font-variant-caps:normal;font-variant-ligatures:normal;font-variant-numeric:normal"/>
<path d="m428.88 467.61v16.167h-2.0045v-1.8302q-0.69721 0.95866-1.7648 1.4598-1.0676 0.50112-2.3531 0.50112-1.6777 0-3.0067-0.74079-1.3291-0.74078-2.0916-2.0698-0.74079-1.3508-0.74079-3.0939 0-1.743 0.74079-3.0721 0.76257-1.329 2.0916-2.0698 1.329-0.74078 3.0067-0.74078 1.2419 0 2.2877 0.47933 1.0458 0.45754 1.743 1.3726v-6.362zm-5.9481 14.467q1.0894 0 1.9827-0.50112 0.8933-0.5229 1.3944-1.438 0.50111-0.93688 0.50111-2.1352 0-1.1983-0.50111-2.1134-0.50112-0.93688-1.3944-1.438t-1.9827-0.50112q-1.1112 0-2.0045 0.50112-0.87151 0.50112-1.3944 1.438-0.50112 0.91509-0.50112 2.1134 0 1.1983 0.50112 2.1352 0.52291 0.91509 1.3944 1.438 0.8933 0.50112 2.0045 0.50112z" style="font-feature-settings:normal;font-variant-caps:normal;font-variant-ligatures:normal;font-variant-numeric:normal"/>
<path d="m443.28 478.07q0 0.23966-0.0436 0.63184h-9.3688q0.19609 1.5252 1.3291 2.462 1.1548 0.91508 2.8542 0.91508 2.0698 0 3.3335-1.3944l1.1548 1.3508q-0.78436 0.91509-1.9609 1.3944-1.1548 0.47933-2.5928 0.47933-1.8302 0-3.2464-0.74079-1.4162-0.76257-2.2006-2.1134-0.76257-1.3508-0.76257-3.0503 0-1.6777 0.74079-3.0285 0.76257-1.3508 2.0698-2.0916 1.329-0.76257 2.9849-0.76257 1.6559 0 2.9414 0.76257 1.3073 0.74079 2.0263 2.0916 0.74079 1.3508 0.74079 3.0939zm-5.7084-4.1833q-1.5034 0-2.5274 0.91509-1.0022 0.91509-1.1765 2.3967h7.4078q-0.1743-1.4598-1.1983-2.3749-1.0022-0.93688-2.5056-0.93688z" style="font-feature-settings:normal;font-variant-caps:normal;font-variant-ligatures:normal;font-variant-numeric:normal"/>
<path d="m448.16 474.17q0.5447-1.0022 1.6123-1.5251 1.0676-0.52291 2.5928-0.52291v2.0263q-0.1743-0.0218-0.47933-0.0218-1.6994 0-2.6799 1.024-0.95866 1.0022-0.95866 2.876v5.752h-2.0916v-11.548h2.0045z" style="font-feature-settings:normal;font-variant-caps:normal;font-variant-ligatures:normal;font-variant-numeric:normal"/>
<path d="m298.54 499.46h2.0916v11.548h-2.0916zm1.0458-2.2224q-0.61006 0-1.024-0.39218-0.39218-0.39218-0.39218-0.95866t0.39218-0.95866q0.41397-0.41397 1.024-0.41397t1.0022 0.39218q0.41397 0.37039 0.41397 0.93687 0 0.58827-0.41397 1.0022-0.39218 0.39218-1.0022 0.39218z" style="font-feature-settings:normal;font-variant-caps:normal;font-variant-ligatures:normal;font-variant-numeric:normal"/>
<path d="m310.79 499.35q2.2006 0 3.486 1.2855 1.3073 1.2637 1.3073 3.7257v6.6453h-2.0916v-6.4056q0-1.6777-0.80615-2.5274-0.80615-0.84973-2.3095-0.84973-1.6994 0-2.6799 1.0022-0.98045 0.98045-0.98045 2.8324v5.9481h-2.0916v-11.548h2.0045v1.743q0.63185-0.8933 1.6994-1.3726 1.0894-0.47933 2.462-0.47933z" style="font-feature-settings:normal;font-variant-caps:normal;font-variant-ligatures:normal;font-variant-numeric:normal"/>
<path d="m330.38 511.14q-1.7648 0-3.1592-0.76257-1.3726-0.76258-2.157-2.0916-0.78436-1.3508-0.78436-3.0503t0.78436-3.0285q0.78437-1.3508 2.157-2.0916 1.3944-0.76257 3.1592-0.76257 1.5687 0 2.7888 0.63185 1.2419 0.63184 1.9173 1.8302l-1.5905 1.024q-0.54469-0.82794-1.3508-1.2419-0.80615-0.41396-1.7866-0.41396-1.133 0-2.048 0.50111-0.8933 0.50112-1.4162 1.438-0.50112 0.91509-0.50112 2.1134 0 1.2201 0.50112 2.157 0.52291 0.91509 1.4162 1.4162 0.91508 0.50112 2.048 0.50112 0.98045 0 1.7866-0.41397t1.3508-1.2419l1.5905 1.0022q-0.67542 1.1983-1.9173 1.852-1.2201 0.63185-2.7888 0.63185z" style="font-feature-settings:normal;font-variant-caps:normal;font-variant-ligatures:normal;font-variant-numeric:normal"/>
<path d="m342.55 511.14q-1.7212 0-3.0939-0.76257-1.3726-0.76258-2.157-2.0916-0.76257-1.3508-0.76257-3.0503t0.76257-3.0285q0.78436-1.3508 2.157-2.0916 1.3726-0.76257 3.0939-0.76257 1.7212 0 3.0721 0.76257 1.3726 0.74079 2.1352 2.0916 0.78436 1.3291 0.78436 3.0285t-0.78436 3.0503q-0.76258 1.329-2.1352 2.0916-1.3508 0.76257-3.0721 0.76257zm0-1.8302q1.1112 0 1.9827-0.50112 0.8933-0.52291 1.3944-1.438 0.50112-0.93687 0.50112-2.1352t-0.50112-2.1134q-0.50112-0.93688-1.3944-1.438-0.87151-0.50111-1.9827-0.50111-1.1112 0-2.0045 0.50111-0.87152 0.50112-1.3944 1.438-0.50112 0.91509-0.50112 2.1134t0.50112 2.1352q0.5229 0.91509 1.3944 1.438 0.8933 0.50112 2.0045 0.50112z" style="font-feature-settings:normal;font-variant-caps:normal;font-variant-ligatures:normal;font-variant-numeric:normal"/>
<path d="m365.88 499.35q2.1788 0 3.4425 1.2637 1.2855 1.2637 1.2855 3.7475v6.6453h-2.0916v-6.4056q0-1.6777-0.78436-2.5274-0.76257-0.84973-2.2006-0.84973-1.5905 0-2.5274 1.0022-0.93688 0.98045-0.93688 2.8324v5.9481h-2.0916v-6.4056q0-1.6777-0.78436-2.5274-0.76257-0.84973-2.2006-0.84973-1.5905 0-2.5274 1.0022-0.93688 0.98045-0.93688 2.8324v5.9481h-2.0916v-11.548h2.0045v1.7212q0.63185-0.8933 1.6559-1.3508 1.024-0.47933 2.3313-0.47933 1.3508 0 2.3967 0.5447 1.0458 0.54469 1.6123 1.5905 0.65364-1.0022 1.8084-1.5687 1.1765-0.56648 2.6363-0.56648z" style="font-feature-settings:normal;font-variant-caps:normal;font-variant-ligatures:normal;font-variant-numeric:normal"/>
<path d="m380.58 499.35q1.6777 0 3.0067 0.74079 1.329 0.74078 2.0698 2.0698 0.76257 1.329 0.76257 3.0721 0 1.743-0.76257 3.0939-0.74079 1.3291-2.0698 2.0698-1.3291 0.74078-3.0067 0.74078-1.2419 0-2.2877-0.47933-1.024-0.47933-1.743-1.3944v5.9699h-2.0916v-15.774h2.0045v1.8302q0.69721-0.95866 1.7648-1.438 1.0676-0.50112 2.3531-0.50112zm-0.1743 9.957q1.1112 0 1.9827-0.50112 0.8933-0.52291 1.3944-1.438 0.5229-0.93687 0.5229-2.1352t-0.5229-2.1134q-0.50112-0.93688-1.3944-1.438-0.87152-0.50111-1.9827-0.50111-1.0894 0-1.9827 0.5229-0.87152 0.50112-1.3944 1.4162-0.50112 0.91509-0.50112 2.1134t0.50112 2.1352q0.50112 0.91509 1.3944 1.438 0.8933 0.50112 1.9827 0.50112z" style="font-feature-settings:normal;font-variant-caps:normal;font-variant-ligatures:normal;font-variant-numeric:normal"/>
<path d="m394.25 511.14q-1.7212 0-3.0939-0.76257-1.3726-0.76258-2.157-2.0916-0.76257-1.3508-0.76257-3.0503t0.76257-3.0285q0.78436-1.3508 2.157-2.0916 1.3726-0.76257 3.0939-0.76257 1.7212 0 3.0721 0.76257 1.3726 0.74079 2.1352 2.0916 0.78436 1.3291 0.78436 3.0285t-0.78436 3.0503q-0.76258 1.329-2.1352 2.0916-1.3508 0.76257-3.0721 0.76257zm0-1.8302q1.1112 0 1.9827-0.50112 0.8933-0.52291 1.3944-1.438 0.50112-0.93687 0.50112-2.1352t-0.50112-2.1134q-0.50112-0.93688-1.3944-1.438-0.87151-0.50111-1.9827-0.50111-1.1112 0-2.0045 0.50111-0.87152 0.50112-1.3944 1.438-0.50112 0.91509-0.50112 2.1134t0.50112 2.1352q0.5229 0.91509 1.3944 1.438 0.8933 0.50112 2.0045 0.50112z" style="font-feature-settings:normal;font-variant-caps:normal;font-variant-ligatures:normal;font-variant-numeric:normal"/>
<path d="m409.3 499.35q2.2006 0 3.486 1.2855 1.3073 1.2637 1.3073 3.7257v6.6453h-2.0916v-6.4056q0-1.6777-0.80614-2.5274-0.80615-0.84973-2.3095-0.84973-1.6994 0-2.6799 1.0022-0.98045 0.98045-0.98045 2.8324v5.9481h-2.0916v-11.548h2.0045v1.743q0.63184-0.8933 1.6994-1.3726 1.0894-0.47933 2.462-0.47933z" style="font-feature-settings:normal;font-variant-caps:normal;font-variant-ligatures:normal;font-variant-numeric:normal"/>
<path d="m428.51 505.3q0 0.23967-0.0436 0.63185h-9.3688q0.19609 1.5251 1.329 2.462 1.1548 0.91509 2.8542 0.91509 2.0698 0 3.3335-1.3944l1.1548 1.3508q-0.78436 0.91509-1.9609 1.3944-1.1548 0.47933-2.5928 0.47933-1.8302 0-3.2464-0.74078-1.4162-0.76258-2.2006-2.1134-0.76257-1.3508-0.76257-3.0503 0-1.6777 0.74078-3.0285 0.76258-1.3508 2.0698-2.0916 1.3291-0.76257 2.9849-0.76257 1.6559 0 2.9414 0.76257 1.3073 0.74079 2.0263 2.0916 0.74079 1.3508 0.74079 3.0939zm-5.7084-4.1833q-1.5034 0-2.5274 0.91509-1.0022 0.91509-1.1765 2.3967h7.4078q-0.1743-1.4598-1.1983-2.3749-1.0022-0.93688-2.5056-0.93688z" style="font-feature-settings:normal;font-variant-caps:normal;font-variant-ligatures:normal;font-variant-numeric:normal"/>
<path d="m437.56 499.35q2.2006 0 3.486 1.2855 1.3073 1.2637 1.3073 3.7257v6.6453h-2.0916v-6.4056q0-1.6777-0.80614-2.5274-0.80615-0.84973-2.3095-0.84973-1.6994 0-2.6799 1.0022-0.98045 0.98045-0.98045 2.8324v5.9481h-2.0916v-11.548h2.0045v1.743q0.63184-0.8933 1.6994-1.3726 1.0894-0.47933 2.462-0.47933z" style="font-feature-settings:normal;font-variant-caps:normal;font-variant-ligatures:normal;font-variant-numeric:normal"/>
<path d="m452.74 510.34q-0.45754 0.39218-1.133 0.61006-0.67542 0.19609-1.3944 0.19609-1.743 0-2.7017-0.93687-0.95867-0.93688-0.95867-2.6799v-6.3402h-1.9609v-1.7212h1.9609v-2.5274h2.0916v2.5274h3.3118v1.7212h-3.3118v6.2531q0 0.93688 0.45755 1.438 0.47933 0.50112 1.3508 0.50112 0.95866 0 1.6341-0.5447z" style="font-feature-settings:normal;font-variant-caps:normal;font-variant-ligatures:normal;font-variant-numeric:normal"/>
</g>
<g fill="#199d4a">
<path d="m436.07 262.19q1.6777 0 3.0067 0.74078 1.329 0.74079 2.0698 2.0698 0.76257 1.3291 0.76257 3.0721 0 1.743-0.76257 3.0939-0.74079 1.3291-2.0698 2.0698-1.3291 0.74079-3.0067 0.74079-1.2419 0-2.2877-0.47933-1.024-0.47934-1.743-1.3944v5.9698h-2.0916v-15.774h2.0045v1.8302q0.69721-0.95866 1.7648-1.438 1.0676-0.50112 2.3531-0.50112zm-0.1743 9.957q1.1112 0 1.9827-0.50112 0.8933-0.5229 1.3944-1.438 0.5229-0.93688 0.5229-2.1352t-0.5229-2.1134q-0.50112-0.93688-1.3944-1.438-0.87152-0.50112-1.9827-0.50112-1.0894 0-1.9827 0.52291-0.87152 0.50112-1.3944 1.4162-0.50112 0.91508-0.50112 2.1134t0.50112 2.1352q0.50112 0.91509 1.3944 1.438 0.8933 0.50112 1.9827 0.50112z" style="font-feature-settings:normal;font-variant-caps:normal;font-variant-ligatures:normal;font-variant-numeric:normal"/>
<path d="m448.88 262.19q2.3967 0 3.6604 1.1765 1.2855 1.1765 1.2855 3.5078v6.9721h-1.9827v-1.5252q-0.52291 0.80615-1.5034 1.2419-0.95866 0.41397-2.2877 0.41397-1.9391 0-3.1156-0.93688-1.1548-0.93687-1.1548-2.462t1.1112-2.4402q1.1112-0.93688 3.5296-0.93688h3.3117v-0.41397q0-1.3508-0.78436-2.0698t-2.3095-0.719q-1.024 0-2.0045 0.34861-0.98045 0.32682-1.6559 0.8933l-0.87151-1.5687q0.8933-0.719 2.1352-1.0894 1.2419-0.39218 2.6363-0.39218zm-0.47933 10.175q1.1983 0 2.0698-0.52291 0.87151-0.54469 1.2637-1.5251v-1.6123h-3.2246q-2.6581 0-2.6581 1.7866 0 0.87151 0.67542 1.3726t1.8738 0.50112z" style="font-feature-settings:normal;font-variant-caps:normal;font-variant-ligatures:normal;font-variant-numeric:normal"/>
<path d="m464.19 273.17q-0.45755 0.39218-1.133 0.61006-0.67542 0.19609-1.3944 0.19609-1.743 0-2.7017-0.93688-0.95866-0.93687-0.95866-2.6799v-6.3402h-1.9609v-1.7212h1.9609v-2.5274h2.0916v2.5274h3.3117v1.7212h-3.3117v6.2531q0 0.93688 0.45754 1.438 0.47933 0.50112 1.3508 0.50112 0.95866 0 1.6341-0.5447z" style="font-feature-settings:normal;font-variant-caps:normal;font-variant-ligatures:normal;font-variant-numeric:normal"/>
<path d="m472.88 262.19q2.2006 0 3.486 1.2855 1.3073 1.2637 1.3073 3.7257v6.6453h-2.0916v-6.4056q0-1.6777-0.80615-2.5274-0.80615-0.84972-2.3095-0.84972-1.6994 0-2.6799 1.0022-0.98045 0.98045-0.98045 2.8324v5.9481h-2.0916v-16.167h2.0916v6.2531q0.65363-0.82794 1.6994-1.2855 1.0676-0.45754 2.3749-0.45754z" style="font-feature-settings:normal;font-variant-caps:normal;font-variant-ligatures:normal;font-variant-numeric:normal"/>
<path d="m493.93 273.17q-0.45754 0.39218-1.133 0.61006-0.67543 0.19609-1.3944 0.19609-1.743 0-2.7017-0.93688-0.95866-0.93687-0.95866-2.6799v-6.3402h-1.9609v-1.7212h1.9609v-2.5274h2.0916v2.5274h3.3117v1.7212h-3.3117v6.2531q0 0.93688 0.45754 1.438 0.47933 0.50112 1.3508 0.50112 0.95867 0 1.6341-0.5447z" style="font-feature-settings:normal;font-variant-caps:normal;font-variant-ligatures:normal;font-variant-numeric:normal"/>
<path d="m501.03 273.98q-1.7212 0-3.0939-0.76258-1.3726-0.76257-2.157-2.0916-0.76257-1.3508-0.76257-3.0503 0-1.6994 0.76257-3.0285 0.78437-1.3508 2.157-2.0916 1.3726-0.76257 3.0939-0.76257 1.7212 0 3.0721 0.76257 1.3726 0.74079 2.1352 2.0916 0.78436 1.3291 0.78436 3.0285 0 1.6994-0.78436 3.0503-0.76257 1.329-2.1352 2.0916-1.3508 0.76258-3.0721 0.76258zm0-1.8302q1.1112 0 1.9827-0.50112 0.8933-0.5229 1.3944-1.438 0.50112-0.93688 0.50112-2.1352t-0.50112-2.1134q-0.50112-0.93688-1.3944-1.438-0.87151-0.50112-1.9827-0.50112-1.1112 0-2.0045 0.50112-0.87152 0.50112-1.3944 1.438-0.50112 0.91508-0.50112 2.1134t0.50112 2.1352q0.5229 0.91509 1.3944 1.438 0.8933 0.50112 2.0045 0.50112z" style="font-feature-settings:normal;font-variant-caps:normal;font-variant-ligatures:normal;font-variant-numeric:normal"/>
<path d="m519.09 273.98q-1.4162 0-2.7235-0.37039-1.3073-0.39219-2.048-0.98046l0.87151-1.6559q0.76257 0.5447 1.852 0.87151 1.0894 0.32682 2.2006 0.32682 2.7453 0 2.7453-1.5687 0-0.52291-0.37039-0.82794t-0.93687-0.43575q-0.5447-0.15252-1.5687-0.32682-1.3944-0.21788-2.2877-0.50112-0.87151-0.28324-1.5034-0.95866-0.63185-0.67543-0.63185-1.8955 0-1.5687 1.3073-2.5056 1.3073-0.95866 3.5078-0.95866 1.1548 0 2.3095 0.28324 1.1548 0.28324 1.8955 0.76257l-0.8933 1.6559q-1.4162-0.91508-3.3335-0.91508-1.3291 0-2.0263 0.43575-0.69721 0.43576-0.69721 1.1548 0 0.56648 0.39218 0.8933 0.39218 0.32681 0.95867 0.47933 0.58827 0.15251 1.6341 0.3486 1.3944 0.23967 2.2441 0.52291 0.87152 0.26145 1.4816 0.91509 0.61006 0.65363 0.61006 1.8302 0 1.5687-1.3508 2.5056-1.3291 0.91509-3.6386 0.91509z" style="font-feature-settings:normal;font-variant-caps:normal;font-variant-ligatures:normal;font-variant-numeric:normal"/>
<path d="m531.67 273.98q-1.7212 0-3.0939-0.76258-1.3726-0.76257-2.157-2.0916-0.76258-1.3508-0.76258-3.0503 0-1.6994 0.76258-3.0285 0.78436-1.3508 2.157-2.0916 1.3726-0.76257 3.0939-0.76257 1.7212 0 3.0721 0.76257 1.3726 0.74079 2.1352 2.0916 0.78436 1.3291 0.78436 3.0285 0 1.6994-0.78436 3.0503-0.76257 1.329-2.1352 2.0916-1.3508 0.76258-3.0721 0.76258zm0-1.8302q1.1112 0 1.9827-0.50112 0.8933-0.5229 1.3944-1.438 0.50111-0.93688 0.50111-2.1352t-0.50111-2.1134q-0.50112-0.93688-1.3944-1.438-0.87152-0.50112-1.9827-0.50112-1.1112 0-2.0045 0.50112-0.87151 0.50112-1.3944 1.438-0.50112 0.91508-0.50112 2.1134t0.50112 2.1352q0.52291 0.91509 1.3944 1.438 0.8933 0.50112 2.0045 0.50112z" style="font-feature-settings:normal;font-variant-caps:normal;font-variant-ligatures:normal;font-variant-numeric:normal"/>
<path d="m551.31 262.3v11.548h-1.9827v-1.743q-0.63185 0.8933-1.6777 1.3944-1.024 0.47933-2.2442 0.47933-2.3095 0-3.6386-1.2637-1.3291-1.2855-1.3291-3.7693v-6.6453h2.0916v6.4056q0 1.6777 0.80615 2.5492 0.80615 0.84973 2.3095 0.84973 1.6559 0 2.6145-1.0022 0.95867-1.0022 0.95867-2.8324v-5.9698z" style="font-feature-settings:normal;font-variant-caps:normal;font-variant-ligatures:normal;font-variant-numeric:normal"/>
<path d="m557.32 264.24q0.5447-1.0022 1.6123-1.5252 1.0676-0.5229 2.5928-0.5229v2.0263q-0.1743-0.0218-0.47933-0.0218-1.6994 0-2.6799 1.024-0.95867 1.0022-0.95867 2.876v5.752h-2.0916v-11.548h2.0045z" style="font-feature-settings:normal;font-variant-caps:normal;font-variant-ligatures:normal;font-variant-numeric:normal"/>
<path d="m569.03 273.98q-1.7648 0-3.1592-0.76258-1.3726-0.76257-2.157-2.0916-0.78436-1.3508-0.78436-3.0503 0-1.6994 0.78436-3.0285 0.78436-1.3508 2.157-2.0916 1.3944-0.76257 3.1592-0.76257 1.5687 0 2.7888 0.63184 1.2419 0.63185 1.9173 1.8302l-1.5905 1.024q-0.5447-0.82794-1.3508-1.2419t-1.7866-0.41397q-1.133 0-2.048 0.50112-0.8933 0.50112-1.4162 1.438-0.50112 0.91508-0.50112 2.1134 0 1.2201 0.50112 2.157 0.52291 0.91508 1.4162 1.4162 0.91509 0.50112 2.048 0.50112 0.98045 0 1.7866-0.41397 0.80615-0.41396 1.3508-1.2419l1.5905 1.0022q-0.67543 1.1983-1.9173 1.852-1.2201 0.63185-2.7888 0.63185z" style="font-feature-settings:normal;font-variant-caps:normal;font-variant-ligatures:normal;font-variant-numeric:normal"/>
<path d="m586.69 268.14q0 0.23966-0.0436 0.63184h-9.3688q0.19609 1.5252 1.329 2.462 1.1548 0.91509 2.8542 0.91509 2.0698 0 3.3335-1.3944l1.1548 1.3508q-0.78436 0.91508-1.9609 1.3944-1.1548 0.47933-2.5928 0.47933-1.8302 0-3.2464-0.74079-1.4162-0.76257-2.2006-2.1134-0.76257-1.3508-0.76257-3.0503 0-1.6777 0.74078-3.0285 0.76257-1.3508 2.0698-2.0916 1.3291-0.76257 2.9849-0.76257t2.9414 0.76257q1.3073 0.74079 2.0263 2.0916 0.74079 1.3508 0.74079 3.0939zm-5.7084-4.1833q-1.5034 0-2.5274 0.91509-1.0022 0.91508-1.1765 2.3966h7.4078q-0.1743-1.4598-1.1983-2.3749-1.0022-0.93687-2.5056-0.93687z" style="font-feature-settings:normal;font-variant-caps:normal;font-variant-ligatures:normal;font-variant-numeric:normal"/>
<path d="m428.48 289.42q1.6777 0 3.0067 0.74078 1.3291 0.74079 2.0698 2.0698 0.76258 1.329 0.76258 3.0721 0 1.743-0.76258 3.0939-0.74078 1.3291-2.0698 2.0698-1.329 0.74079-3.0067 0.74079-1.2419 0-2.2877-0.47933-1.024-0.47933-1.743-1.3944v5.9699h-2.0916v-15.774h2.0045v1.8302q0.69721-0.95866 1.7648-1.438 1.0676-0.50112 2.3531-0.50112zm-0.17431 9.957q1.1112 0 1.9827-0.50111 0.8933-0.52291 1.3944-1.438 0.52291-0.93688 0.52291-2.1352 0-1.1983-0.52291-2.1134-0.50112-0.93688-1.3944-1.438-0.87151-0.50112-1.9827-0.50112-1.0894 0-1.9827 0.52291-0.87151 0.50112-1.3944 1.4162-0.50111 0.91509-0.50111 2.1134 0 1.1983 0.50111 2.1352 0.50112 0.91509 1.3944 1.438 0.8933 0.50111 1.9827 0.50111z" style="font-feature-settings:normal;font-variant-caps:normal;font-variant-ligatures:normal;font-variant-numeric:normal"/>
<path d="m441.28 289.42q2.3967 0 3.6604 1.1765 1.2855 1.1765 1.2855 3.5078v6.9721h-1.9827v-1.5251q-0.52291 0.80615-1.5034 1.2419-0.95866 0.41397-2.2877 0.41397-1.9391 0-3.1156-0.93688-1.1548-0.93687-1.1548-2.462 0-1.5251 1.1112-2.4402 1.1112-0.93688 3.5296-0.93688h3.3118v-0.41396q0-1.3508-0.78436-2.0698-0.78436-0.71899-2.3095-0.71899-1.024 0-2.0045 0.3486-0.98045 0.32682-1.6559 0.8933l-0.87151-1.5687q0.8933-0.719 2.1352-1.0894 1.2419-0.39218 2.6363-0.39218zm-0.47933 10.175q1.1983 0 2.0698-0.5229 0.87151-0.5447 1.2637-1.5252v-1.6123h-3.2246q-2.6581 0-2.6581 1.7866 0 0.87151 0.67543 1.3726 0.67542 0.50112 1.8738 0.50112z" style="font-feature-settings:normal;font-variant-caps:normal;font-variant-ligatures:normal;font-variant-numeric:normal"/>
<path d="m461.23 289.53v9.9788q0 3.0285-1.5034 4.4665-1.5034 1.4598-4.4883 1.4598-1.6341 0-3.1157-0.45754-1.4816-0.43576-2.3967-1.2637l1.0022-1.6123q0.80615 0.69721 1.9827 1.0894 1.1983 0.41397 2.462 0.41397 2.0263 0 2.9849-0.95867 0.98045-0.95866 0.98045-2.9196v-0.91509q-0.74078 0.8933-1.8302 1.3508-1.0676 0.43575-2.3313 0.43575-1.6559 0-3.0067-0.69721-1.3291-0.719-2.0916-1.9827-0.76258-1.2855-0.76258-2.9196 0-1.6341 0.76258-2.8978 0.76257-1.2855 2.0916-1.9827 1.3508-0.69721 3.0067-0.69721 1.3073 0 2.4184 0.47933 1.133 0.47933 1.852 1.4162v-1.7866zm-6.0134 9.238q1.133 0 2.0263-0.47934 0.91509-0.47933 1.4162-1.329 0.52291-0.87151 0.52291-1.9609 0-1.6777-1.1112-2.7017-1.1112-1.0458-2.8542-1.0458-1.7648 0-2.876 1.0458-1.1112 1.024-1.1112 2.7017 0 1.0894 0.50112 1.9609 0.52291 0.84972 1.4162 1.329 0.91509 0.47934 2.0698 0.47934z" style="font-feature-settings:normal;font-variant-caps:normal;font-variant-ligatures:normal;font-variant-numeric:normal"/>
<path d="m475.64 295.37q0 0.23966-0.0436 0.63185h-9.3688q0.19609 1.5251 1.3291 2.462 1.1548 0.91508 2.8542 0.91508 2.0698 0 3.3335-1.3944l1.1548 1.3508q-0.78436 0.91509-1.9609 1.3944-1.1548 0.47933-2.5927 0.47933-1.8302 0-3.2464-0.74079-1.4162-0.76257-2.2006-2.1134-0.76258-1.3508-0.76258-3.0503 0-1.6777 0.74079-3.0285 0.76257-1.3508 2.0698-2.0916 1.329-0.76257 2.9849-0.76257 1.6559 0 2.9414 0.76257 1.3073 0.74079 2.0263 2.0916 0.74078 1.3508 0.74078 3.0939zm-5.7084-4.1833q-1.5034 0-2.5274 0.91509-1.0022 0.91509-1.1765 2.3967h7.4078q-0.1743-1.4598-1.1983-2.3749-1.0022-0.93688-2.5056-0.93688z" style="font-feature-settings:normal;font-variant-caps:normal;font-variant-ligatures:normal;font-variant-numeric:normal"/>
<path d="m484.4 289.53h2.0916v11.548h-2.0916zm1.0458-2.2224q-0.61006 0-1.024-0.39218-0.39218-0.39218-0.39218-0.95866t0.39218-0.95866q0.41397-0.41397 1.024-0.41397t1.0022 0.39218q0.41397 0.37039 0.41397 0.93687 0 0.58827-0.41397 1.0022-0.39218 0.39218-1.0022 0.39218z" style="font-feature-settings:normal;font-variant-caps:normal;font-variant-ligatures:normal;font-variant-numeric:normal"/>
<path d="m496.65 289.42q2.2006 0 3.486 1.2855 1.3073 1.2637 1.3073 3.7257v6.6453h-2.0916v-6.4056q0-1.6777-0.80615-2.5274-0.80615-0.84972-2.3095-0.84972-1.6994 0-2.6799 1.0022-0.98045 0.98045-0.98045 2.8324v5.9481h-2.0916v-11.548h2.0045v1.743q0.63185-0.8933 1.6994-1.3726 1.0894-0.47933 2.462-0.47933z" style="font-feature-settings:normal;font-variant-caps:normal;font-variant-ligatures:normal;font-variant-numeric:normal"/>
<path d="m525.65 289.42q2.1788 0 3.4425 1.2637 1.2855 1.2637 1.2855 3.7475v6.6453h-2.0916v-6.4056q0-1.6777-0.78436-2.5274-0.76257-0.84972-2.2006-0.84972-1.5905 0-2.5274 1.0022-0.93688 0.98045-0.93688 2.8324v5.9481h-2.0916v-6.4056q0-1.6777-0.78436-2.5274-0.76257-0.84972-2.2006-0.84972-1.5905 0-2.5274 1.0022-0.93688 0.98045-0.93688 2.8324v5.9481h-2.0916v-11.548h2.0045v1.7212q0.63185-0.8933 1.6559-1.3508 1.024-0.47933 2.3313-0.47933 1.3508 0 2.3967 0.54469 1.0458 0.5447 1.6123 1.5905 0.65364-1.0022 1.8084-1.5687 1.1765-0.56648 2.6363-0.56648z" style="font-feature-settings:normal;font-variant-caps:normal;font-variant-ligatures:normal;font-variant-numeric:normal"/>
<path d="m539.26 301.21q-1.7212 0-3.0939-0.76257-1.3726-0.76258-2.157-2.0916-0.76257-1.3508-0.76257-3.0503 0-1.6994 0.76257-3.0285 0.78436-1.3508 2.157-2.0916 1.3726-0.76257 3.0939-0.76257t3.0721 0.76257q1.3726 0.74079 2.1352 2.0916 0.78436 1.3291 0.78436 3.0285 0 1.6994-0.78436 3.0503-0.76258 1.329-2.1352 2.0916-1.3508 0.76257-3.0721 0.76257zm0-1.8302q1.1112 0 1.9827-0.50111 0.8933-0.52291 1.3944-1.438 0.50112-0.93688 0.50112-2.1352 0-1.1983-0.50112-2.1134-0.50112-0.93688-1.3944-1.438-0.87151-0.50112-1.9827-0.50112t-2.0045 0.50112q-0.87151 0.50112-1.3944 1.438-0.50112 0.91509-0.50112 2.1134 0 1.1983 0.50112 2.1352 0.52291 0.91509 1.3944 1.438 0.8933 0.50111 2.0045 0.50111z" style="font-feature-settings:normal;font-variant-caps:normal;font-variant-ligatures:normal;font-variant-numeric:normal"/>
<path d="m559.04 284.91v16.167h-2.0045v-1.8302q-0.69721 0.95866-1.7648 1.4598t-2.3531 0.50112q-1.6777 0-3.0067-0.74079-1.3291-0.74078-2.0916-2.0698-0.74079-1.3508-0.74079-3.0939 0-1.743 0.74079-3.0721 0.76257-1.3291 2.0916-2.0698 1.329-0.74078 3.0067-0.74078 1.2419 0 2.2877 0.47933 1.0458 0.45754 1.743 1.3726v-6.362zm-5.9481 14.467q1.0894 0 1.9827-0.50111 0.8933-0.52291 1.3944-1.438 0.50112-0.93688 0.50112-2.1352 0-1.1983-0.50112-2.1134-0.50112-0.93688-1.3944-1.438t-1.9827-0.50112q-1.1112 0-2.0045 0.50112-0.87151 0.50112-1.3944 1.438-0.50112 0.91509-0.50112 2.1134 0 1.1983 0.50112 2.1352 0.52291 0.91509 1.3944 1.438 0.8933 0.50111 2.0045 0.50111z" style="font-feature-settings:normal;font-variant-caps:normal;font-variant-ligatures:normal;font-variant-numeric:normal"/>
<path d="m573.76 289.53v11.548h-1.9827v-1.743q-0.63185 0.8933-1.6777 1.3944-1.024 0.47933-2.2442 0.47933-2.3095 0-3.6386-1.2637-1.3291-1.2855-1.3291-3.7693v-6.6453h2.0916v6.4056q0 1.6777 0.80615 2.5492 0.80615 0.84973 2.3095 0.84973 1.6559 0 2.6145-1.0022 0.95867-1.0022 0.95867-2.8324v-5.9699z" style="font-feature-settings:normal;font-variant-caps:normal;font-variant-ligatures:normal;font-variant-numeric:normal"/>
<path d="m577.76 284.91h2.0916v16.167h-2.0916z" style="font-feature-settings:normal;font-variant-caps:normal;font-variant-ligatures:normal;font-variant-numeric:normal"/>
<path d="m594.28 295.37q0 0.23966-0.0436 0.63185h-9.3688q0.19609 1.5251 1.329 2.462 1.1548 0.91508 2.8542 0.91508 2.0698 0 3.3335-1.3944l1.1548 1.3508q-0.78436 0.91509-1.9609 1.3944-1.1548 0.47933-2.5928 0.47933-1.8302 0-3.2464-0.74079-1.4162-0.76257-2.2006-2.1134-0.76257-1.3508-0.76257-3.0503 0-1.6777 0.74078-3.0285 0.76258-1.3508 2.0698-2.0916 1.3291-0.76257 2.9849-0.76257 1.6559 0 2.9414 0.76257 1.3073 0.74079 2.0263 2.0916 0.74079 1.3508 0.74079 3.0939zm-5.7084-4.1833q-1.5034 0-2.5274 0.91509-1.0022 0.91509-1.1765 2.3967h7.4078q-0.1743-1.4598-1.1983-2.3749-1.0022-0.93688-2.5056-0.93688z" style="font-feature-settings:normal;font-variant-caps:normal;font-variant-ligatures:normal;font-variant-numeric:normal"/>
</g>
<g fill="#7dc61f">
<path d="m593.03 445.08q2.2006 0 3.486 1.2855 1.3073 1.2637 1.3073 3.7257v6.6453h-2.0916v-6.4056q0-1.6777-0.80615-2.5274-0.80615-0.84973-2.3095-0.84973-1.6994 0-2.6799 1.0022-0.98046 0.98045-0.98046 2.8324v5.9481h-2.0916v-11.548h2.0045v1.743q0.63185-0.8933 1.6994-1.3726 1.0894-0.47933 2.462-0.47933z" style="font-feature-settings:normal;font-variant-caps:normal;font-variant-ligatures:normal;font-variant-numeric:normal"/>
<path d="m605.92 445.08q2.3967 0 3.6604 1.1765 1.2855 1.1765 1.2855 3.5078v6.9721h-1.9827v-1.5252q-0.5229 0.80615-1.5034 1.2419-0.95867 0.41397-2.2877 0.41397-1.9391 0-3.1157-0.93687-1.1548-0.93688-1.1548-2.462 0-1.5252 1.1112-2.4402 1.1112-0.93687 3.5296-0.93687h3.3117v-0.41397q0-1.3508-0.78436-2.0698-0.78436-0.719-2.3095-0.719-1.024 0-2.0045 0.3486-0.98045 0.32682-1.6559 0.8933l-0.87152-1.5687q0.8933-0.71899 2.1352-1.0894 1.2419-0.39218 2.6363-0.39218zm-0.47933 10.175q1.1983 0 2.0698-0.52291 0.87151-0.5447 1.2637-1.5252v-1.6123h-3.2246q-2.6581 0-2.6581 1.7866 0 0.87152 0.67542 1.3726t1.8738 0.50112z" style="font-feature-settings:normal;font-variant-caps:normal;font-variant-ligatures:normal;font-variant-numeric:normal"/>
<path d="m629.18 445.08q2.1788 0 3.4425 1.2637 1.2855 1.2637 1.2855 3.7475v6.6453h-2.0916v-6.4056q0-1.6777-0.78436-2.5274-0.76258-0.84973-2.2006-0.84973-1.5905 0-2.5274 1.0022-0.93687 0.98045-0.93687 2.8324v5.9481h-2.0916v-6.4056q0-1.6777-0.78436-2.5274-0.76257-0.84973-2.2006-0.84973-1.5905 0-2.5274 1.0022-0.93688 0.98045-0.93688 2.8324v5.9481h-2.0916v-11.548h2.0045v1.7212q0.63185-0.8933 1.6559-1.3508 1.024-0.47933 2.3313-0.47933 1.3508 0 2.3967 0.5447 1.0458 0.54469 1.6123 1.5905 0.65364-1.0022 1.8084-1.5687 1.1765-0.56649 2.6363-0.56649z" style="font-feature-settings:normal;font-variant-caps:normal;font-variant-ligatures:normal;font-variant-numeric:normal"/>
<path d="m648.28 451.03q0 0.23967-0.0436 0.63185h-9.3688q0.19609 1.5251 1.329 2.462 1.1548 0.91509 2.8542 0.91509 2.0698 0 3.3335-1.3944l1.1548 1.3508q-0.78436 0.91509-1.9609 1.3944-1.1548 0.47933-2.5928 0.47933-1.8302 0-3.2464-0.74078-1.4162-0.76258-2.2006-2.1134-0.76257-1.3508-0.76257-3.0503 0-1.6777 0.74078-3.0285 0.76257-1.3508 2.0698-2.0916 1.3291-0.76258 2.9849-0.76258t2.9414 0.76258q1.3073 0.74078 2.0263 2.0916 0.74079 1.3508 0.74079 3.0939zm-5.7084-4.1833q-1.5034 0-2.5274 0.91509-1.0022 0.91509-1.1765 2.3967h7.4078q-0.1743-1.4598-1.1983-2.3749-1.0022-0.93688-2.5056-0.93688z" style="font-feature-settings:normal;font-variant-caps:normal;font-variant-ligatures:normal;font-variant-numeric:normal"/>
<path d="m661.98 456.87q-1.7212 0-3.0939-0.76257t-2.157-2.0916q-0.76257-1.3508-0.76257-3.0503t0.76257-3.0285q0.78436-1.3508 2.157-2.0916 1.3726-0.76258 3.0939-0.76258t3.0721 0.76258q1.3726 0.74078 2.1352 2.0916 0.78437 1.3291 0.78437 3.0285t-0.78437 3.0503q-0.76257 1.3291-2.1352 2.0916-1.3508 0.76257-3.0721 0.76257zm0-1.8302q1.1112 0 1.9827-0.50112 0.8933-0.52291 1.3944-1.438 0.50112-0.93687 0.50112-2.1352t-0.50112-2.1134q-0.50112-0.93687-1.3944-1.438-0.87151-0.50112-1.9827-0.50112t-2.0045 0.50112q-0.87151 0.50112-1.3944 1.438-0.50112 0.91509-0.50112 2.1134t0.50112 2.1352q0.52291 0.91509 1.3944 1.438 0.8933 0.50112 2.0045 0.50112z" style="font-feature-settings:normal;font-variant-caps:normal;font-variant-ligatures:normal;font-variant-numeric:normal"/>
<path d="m675.09 442.16q-1.8738 0-1.8738 2.0263v1.0022h3.3553v1.7212h-3.3118v9.8263h-2.0916v-9.8263h-1.9609v-1.7212h1.9609v-1.024q0-1.7212 1.0022-2.7235t2.8106-1.0022q0.69721 0 1.3073 0.1743 0.61006 0.17431 1.0458 0.50112l-0.63184 1.5905q-0.719-0.54469-1.6123-0.54469z" style="font-feature-settings:normal;font-variant-caps:normal;font-variant-ligatures:normal;font-variant-numeric:normal"/>
<path d="m690.93 456.06q-0.45754 0.39218-1.133 0.61006-0.67543 0.19609-1.3944 0.19609-1.743 0-2.7017-0.93687-0.95866-0.93688-0.95866-2.6799v-6.3402h-1.9609v-1.7212h1.9609v-2.5274h2.0916v2.5274h3.3117v1.7212h-3.3117v6.2531q0 0.93687 0.45754 1.438 0.47933 0.50112 1.3508 0.50112 0.95867 0 1.6341-0.54469z" style="font-feature-settings:normal;font-variant-caps:normal;font-variant-ligatures:normal;font-variant-numeric:normal"/>
<path d="m697.67 445.08q2.3967 0 3.6604 1.1765 1.2855 1.1765 1.2855 3.5078v6.9721h-1.9827v-1.5252q-0.52291 0.80615-1.5034 1.2419-0.95866 0.41397-2.2877 0.41397-1.9391 0-3.1156-0.93687-1.1548-0.93688-1.1548-2.462 0-1.5252 1.1112-2.4402 1.1112-0.93687 3.5296-0.93687h3.3118v-0.41397q0-1.3508-0.78436-2.0698-0.78436-0.719-2.3095-0.719-1.024 0-2.0045 0.3486-0.98045 0.32682-1.6559 0.8933l-0.87151-1.5687q0.8933-0.71899 2.1352-1.0894 1.2419-0.39218 2.6363-0.39218zm-0.47933 10.175q1.1983 0 2.0698-0.52291 0.87151-0.5447 1.2637-1.5252v-1.6123h-3.2246q-2.6581 0-2.6581 1.7866 0 0.87152 0.67542 1.3726 0.67543 0.50112 1.8738 0.50112z" style="font-feature-settings:normal;font-variant-caps:normal;font-variant-ligatures:normal;font-variant-numeric:normal"/>
<path d="m708.49 447.13q0.5447-1.0022 1.6123-1.5252t2.5928-0.52291v2.0263q-0.1743-0.0218-0.47933-0.0218-1.6994 0-2.6799 1.024-0.95867 1.0022-0.95867 2.876v5.752h-2.0916v-11.548h2.0045z" style="font-feature-settings:normal;font-variant-caps:normal;font-variant-ligatures:normal;font-variant-numeric:normal"/>
<path d="m726.21 445.19v9.9788q0 3.0285-1.5034 4.4665-1.5034 1.4598-4.4883 1.4598-1.6341 0-3.1156-0.45755-1.4816-0.43575-2.3967-1.2637l1.0022-1.6123q0.80615 0.69721 1.9827 1.0894 1.1983 0.41397 2.462 0.41397 2.0263 0 2.9849-0.95866 0.98045-0.95867 0.98045-2.9196v-0.91509q-0.74078 0.8933-1.8302 1.3508-1.0676 0.43575-2.3313 0.43575-1.6559 0-3.0067-0.69721-1.329-0.71899-2.0916-1.9827-0.76258-1.2855-0.76258-2.9196 0-1.6341 0.76258-2.8978 0.76257-1.2855 2.0916-1.9827 1.3508-0.69721 3.0067-0.69721 1.3073 0 2.4184 0.47933 1.133 0.47934 1.852 1.4162v-1.7866zm-6.0134 9.238q1.133 0 2.0263-0.47933 0.91509-0.47933 1.4162-1.3291 0.52291-0.87151 0.52291-1.9609 0-1.6777-1.1112-2.7017-1.1112-1.0458-2.8542-1.0458-1.7648 0-2.876 1.0458-1.1112 1.024-1.1112 2.7017 0 1.0894 0.50112 1.9609 0.52291 0.84973 1.4162 1.3291 0.91508 0.47933 2.0698 0.47933z" style="font-feature-settings:normal;font-variant-caps:normal;font-variant-ligatures:normal;font-variant-numeric:normal"/>
<path d="m740.62 451.03q0 0.23967-0.0436 0.63185h-9.3688q0.19609 1.5251 1.3291 2.462 1.1548 0.91509 2.8542 0.91509 2.0698 0 3.3335-1.3944l1.1548 1.3508q-0.78436 0.91509-1.9609 1.3944-1.1548 0.47933-2.5928 0.47933-1.8302 0-3.2464-0.74078-1.4162-0.76258-2.2006-2.1134-0.76258-1.3508-0.76258-3.0503 0-1.6777 0.74079-3.0285 0.76257-1.3508 2.0698-2.0916 1.3291-0.76258 2.9849-0.76258t2.9414 0.76258q1.3073 0.74078 2.0263 2.0916 0.74078 1.3508 0.74078 3.0939zm-5.7084-4.1833q-1.5034 0-2.5274 0.91509-1.0022 0.91509-1.1766 2.3967h7.4079q-0.17431-1.4598-1.1983-2.3749-1.0022-0.93688-2.5056-0.93688z" style="font-feature-settings:normal;font-variant-caps:normal;font-variant-ligatures:normal;font-variant-numeric:normal"/>
<path d="m750 456.06q-0.45754 0.39218-1.133 0.61006-0.67542 0.19609-1.3944 0.19609-1.743 0-2.7017-0.93687-0.95867-0.93688-0.95867-2.6799v-6.3402h-1.9609v-1.7212h1.9609v-2.5274h2.0916v2.5274h3.3118v1.7212h-3.3118v6.2531q0 0.93687 0.45755 1.438 0.47933 0.50112 1.3508 0.50112 0.95866 0 1.6341-0.54469z" style="font-feature-settings:normal;font-variant-caps:normal;font-variant-ligatures:normal;font-variant-numeric:normal"/>
<path d="m605.61 472.42h2.0916v11.548h-2.0916zm1.0458-2.2224q-0.61006 0-1.024-0.39218-0.39218-0.39218-0.39218-0.95867 0-0.56648 0.39218-0.95866 0.41397-0.41397 1.024-0.41397t1.0022 0.39218q0.41397 0.3704 0.41397 0.93688 0 0.58827-0.41397 1.0022-0.39218 0.39218-1.0022 0.39218z" style="font-feature-settings:normal;font-variant-caps:normal;font-variant-ligatures:normal;font-variant-numeric:normal"/>
<path d="m617.86 472.32q2.2006 0 3.486 1.2855 1.3073 1.2637 1.3073 3.7257v6.6453h-2.0916v-6.4056q0-1.6777-0.80615-2.5274t-2.3095-0.84972q-1.6994 0-2.6799 1.0022-0.98045 0.98046-0.98045 2.8324v5.9481h-2.0916v-11.548h2.0045v1.743q0.63184-0.8933 1.6994-1.3726 1.0894-0.47934 2.462-0.47934z" style="font-feature-settings:normal;font-variant-caps:normal;font-variant-ligatures:normal;font-variant-numeric:normal"/>
<path d="m629.86 484.1q-1.4162 0-2.7235-0.3704-1.3073-0.39218-2.048-0.98045l0.87151-1.6559q0.76257 0.54469 1.852 0.87151t2.2006 0.32682q2.7453 0 2.7453-1.5687 0-0.52291-0.37039-0.82794t-0.93687-0.43576q-0.5447-0.15251-1.5687-0.32681-1.3944-0.21788-2.2877-0.50112-0.87152-0.28324-1.5034-0.95867-0.63185-0.67542-0.63185-1.8955 0-1.5687 1.3073-2.5056 1.3073-0.95867 3.5078-0.95867 1.1548 0 2.3095 0.28325 1.1548 0.28324 1.8955 0.76257l-0.8933 1.6559q-1.4162-0.91509-3.3335-0.91509-1.3291 0-2.0263 0.43576t-0.69721 1.1548q0 0.56649 0.39218 0.8933 0.39218 0.32682 0.95867 0.47934 0.58827 0.15251 1.6341 0.3486 1.3944 0.23967 2.2441 0.52291 0.87152 0.26145 1.4816 0.91509 0.61005 0.65363 0.61005 1.8302 0 1.5687-1.3508 2.5056-1.3291 0.91509-3.6386 0.91509z" style="font-feature-settings:normal;font-variant-caps:normal;font-variant-ligatures:normal;font-variant-numeric:normal"/>
<path d="m637.48 472.42h2.0916v11.548h-2.0916zm1.0458-2.2224q-0.61006 0-1.024-0.39218-0.39218-0.39218-0.39218-0.95867 0-0.56648 0.39218-0.95866 0.41397-0.41397 1.024-0.41397t1.0022 0.39218q0.41397 0.3704 0.41397 0.93688 0 0.58827-0.41397 1.0022-0.39218 0.39218-1.0022 0.39218z" style="font-feature-settings:normal;font-variant-caps:normal;font-variant-ligatures:normal;font-variant-numeric:normal"/>
<path d="m654.46 467.81v16.167h-2.0045v-1.8302q-0.69721 0.95867-1.7648 1.4598t-2.3531 0.50112q-1.6777 0-3.0067-0.74079-1.329-0.74079-2.0916-2.0698-0.74078-1.3508-0.74078-3.0939 0-1.743 0.74078-3.0721 0.76258-1.329 2.0916-2.0698 1.3291-0.74079 3.0067-0.74079 1.2419 0 2.2877 0.47934 1.0458 0.45754 1.743 1.3726v-6.362zm-5.9481 14.467q1.0894 0 1.9827-0.50112 0.8933-0.52291 1.3944-1.438 0.50112-0.93688 0.50112-2.1352t-0.50112-2.1134q-0.50112-0.93687-1.3944-1.438t-1.9827-0.50112q-1.1112 0-2.0045 0.50112-0.87151 0.50112-1.3944 1.438-0.50112 0.91509-0.50112 2.1134t0.50112 2.1352q0.52291 0.91508 1.3944 1.438 0.8933 0.50112 2.0045 0.50112z" style="font-feature-settings:normal;font-variant-caps:normal;font-variant-ligatures:normal;font-variant-numeric:normal"/>
<path d="m668.86 478.26q0 0.23967-0.0436 0.63185h-9.3688q0.19609 1.5252 1.329 2.462 1.1548 0.91509 2.8542 0.91509 2.0698 0 3.3335-1.3944l1.1548 1.3508q-0.78436 0.91509-1.9609 1.3944-1.1548 0.47934-2.5928 0.47934-1.8302 0-3.2464-0.74079-1.4162-0.76257-2.2006-2.1134-0.76257-1.3508-0.76257-3.0503 0-1.6777 0.74078-3.0285 0.76258-1.3508 2.0698-2.0916 1.329-0.76258 2.9849-0.76258 1.6559 0 2.9414 0.76258 1.3073 0.74078 2.0263 2.0916 0.74079 1.3508 0.74079 3.0939zm-5.7084-4.1832q-1.5034 0-2.5274 0.91508-1.0022 0.91509-1.1765 2.3967h7.4078q-0.1743-1.4598-1.1983-2.3749-1.0022-0.93687-2.5056-0.93687z" style="font-feature-settings:normal;font-variant-caps:normal;font-variant-ligatures:normal;font-variant-numeric:normal"/>
<path d="m683.73 472.32q1.6777 0 3.0067 0.74079t2.0698 2.0698q0.76258 1.3291 0.76258 3.0721 0 1.743-0.76258 3.0939-0.74078 1.329-2.0698 2.0698t-3.0067 0.74079q-1.2419 0-2.2877-0.47934-1.024-0.47933-1.743-1.3944v5.9699h-2.0916v-15.774h2.0045v1.8302q0.69721-0.95866 1.7648-1.438 1.0676-0.50112 2.3531-0.50112zm-0.1743 9.957q1.1112 0 1.9827-0.50112 0.8933-0.52291 1.3944-1.438 0.52291-0.93688 0.52291-2.1352t-0.52291-2.1134q-0.50112-0.93687-1.3944-1.438-0.87151-0.50112-1.9827-0.50112-1.0894 0-1.9827 0.52291-0.87151 0.50112-1.3944 1.4162-0.50112 0.91509-0.50112 2.1134t0.50112 2.1352q0.50112 0.91508 1.3944 1.438 0.8933 0.50112 1.9827 0.50112z" style="font-feature-settings:normal;font-variant-caps:normal;font-variant-ligatures:normal;font-variant-numeric:normal"/>
<path d="m696.54 472.32q2.3967 0 3.6604 1.1766 1.2855 1.1765 1.2855 3.5078v6.9721h-1.9827v-1.5252q-0.5229 0.80615-1.5034 1.2419-0.95867 0.41397-2.2877 0.41397-1.9391 0-3.1157-0.93688-1.1548-0.93688-1.1548-2.462 0-1.5252 1.1112-2.4402 1.1112-0.93687 3.5296-0.93687h3.3118v-0.41397q0-1.3508-0.78437-2.0698-0.78436-0.719-2.3095-0.719-1.024 0-2.0045 0.34861-0.98045 0.32681-1.6559 0.8933l-0.87152-1.5687q0.8933-0.719 2.1352-1.0894 1.2419-0.39218 2.6363-0.39218zm-0.47933 10.175q1.1983 0 2.0698-0.52291 0.87151-0.54469 1.2637-1.5252v-1.6123h-3.2246q-2.6581 0-2.6581 1.7866 0 0.87151 0.67542 1.3726t1.8738 0.50112z" style="font-feature-settings:normal;font-variant-caps:normal;font-variant-ligatures:normal;font-variant-numeric:normal"/>
<path d="m716.49 472.42v9.9788q0 3.0285-1.5034 4.4665-1.5034 1.4598-4.4883 1.4598-1.6341 0-3.1156-0.45755-1.4816-0.43575-2.3967-1.2637l1.0022-1.6123q0.80615 0.6972 1.9827 1.0894 1.1983 0.41396 2.462 0.41396 2.0263 0 2.9849-0.95866 0.98045-0.95866 0.98045-2.9196v-0.91508q-0.74078 0.8933-1.8302 1.3508-1.0676 0.43576-2.3313 0.43576-1.6559 0-3.0067-0.69721-1.329-0.719-2.0916-1.9827-0.76258-1.2855-0.76258-2.9196 0-1.6341 0.76258-2.8978 0.76257-1.2855 2.0916-1.9827 1.3508-0.69721 3.0067-0.69721 1.3073 0 2.4184 0.47934 1.133 0.47933 1.852 1.4162v-1.7866zm-6.0134 9.238q1.133 0 2.0263-0.47933 0.91509-0.47933 1.4162-1.3291 0.52291-0.87151 0.52291-1.9609 0-1.6777-1.1112-2.7017-1.1112-1.0458-2.8542-1.0458-1.7648 0-2.876 1.0458-1.1112 1.024-1.1112 2.7017 0 1.0894 0.50112 1.9609 0.52291 0.84973 1.4162 1.3291 0.91508 0.47933 2.0698 0.47933z" style="font-feature-settings:normal;font-variant-caps:normal;font-variant-ligatures:normal;font-variant-numeric:normal"/>
<path d="m730.9 478.26q0 0.23967-0.0436 0.63185h-9.3688q0.19609 1.5252 1.329 2.462 1.1548 0.91509 2.8542 0.91509 2.0698 0 3.3335-1.3944l1.1548 1.3508q-0.78436 0.91509-1.9609 1.3944-1.1548 0.47934-2.5928 0.47934-1.8302 0-3.2464-0.74079-1.4162-0.76257-2.2006-2.1134-0.76257-1.3508-0.76257-3.0503 0-1.6777 0.74079-3.0285 0.76257-1.3508 2.0698-2.0916 1.329-0.76258 2.9849-0.76258 1.6559 0 2.9414 0.76258 1.3073 0.74078 2.0263 2.0916 0.74079 1.3508 0.74079 3.0939zm-5.7084-4.1832q-1.5034 0-2.5274 0.91508-1.0022 0.91509-1.1765 2.3967h7.4078q-0.1743-1.4598-1.1983-2.3749-1.0022-0.93687-2.5056-0.93687z" style="font-feature-settings:normal;font-variant-caps:normal;font-variant-ligatures:normal;font-variant-numeric:normal"/>
</g>
<g fill="none" stroke-linecap="round" stroke-linejoin="round">
<g stroke-width="1.9994">
<path d="m25.72 390.26v21.556h97.018v-21.556" stroke="#de4c36"/>
<path d="m154.22 354.61v-21.556h159.68v21.556" stroke="#9340a4"/>
<path d="m323.82 390.26v21.556h103.26v-21.556" stroke="#b91d5e"/>
<path d="m436.32 354.61v-21.556h144v21.556" stroke="#199d4a"/>
<path d="m602.7 390.26v21.556h131.47v-21.556" stroke="#7dc61f"/>
</g>
<path d="m74.112 412.71v12.131" stroke="#de4c36" stroke-width="1.9994"/>
<circle cx="74.229" cy="427.77" r="2.8391" stroke="#de4c36" stroke-dashoffset="72" stroke-width="1.9994"/>
<path d="m233.94 332.15v-12.131" stroke="#9340a4" stroke-width="1.9994"/>
<circle transform="scale(1,-1)" cx="234.06" cy="-317.09" r="2.8391" stroke="#9340a4" stroke-dashoffset="72" stroke-width="1.9994"/>
<path d="m375.34 412.71v12.131" stroke="#b91d5e" stroke-width="1.9994"/>
<circle cx="375.45" cy="427.77" r="2.8391" stroke="#b91d5e" stroke-dashoffset="72" stroke-width="1.9994"/>
<path d="m508.2 332.15v-12.131" stroke="#199d4a" stroke-width="1.9994"/>
<circle transform="scale(1,-1)" cx="508.32" cy="-317.09" r="2.8391" stroke="#199d4a" stroke-dashoffset="72" stroke-width="1.9994"/>
<path d="m668.32 412.71v12.131" stroke="#7dc61f" stroke-width="1.9994"/>
<circle cx="668.43" cy="427.77" r="2.8391" stroke="#7dc61f" stroke-dashoffset="72" stroke-width="1.9994"/>
</g>
</g>
</svg>
