<?xml version="1.0" encoding="utf-8"?>
<!-- Generator: Adobe Illustrator 23.0.3, SVG Export Plug-In . SVG Version: 6.00 Build 0)  -->
<svg version="1.1"
	 id="Layer_1" xmlns:cc="http://creativecommons.org/ns#" xmlns:dc="http://purl.org/dc/elements/1.1/" xmlns:rdf="http://www.w3.org/1999/02/22-rdf-syntax-ns#"
	 xmlns="http://www.w3.org/2000/svg" xmlns:xlink="http://www.w3.org/1999/xlink" x="0px" y="0px" viewBox="0 0 130 190.4"
	 style="enable-background:new 0 0 130 190.4;" xml:space="preserve">
<style type="text/css">
	.st0{fill:#FFFFFF;}
	.st1{fill:#FFFFFF;stroke:#000000;stroke-width:0.5292;stroke-linecap:round;stroke-linejoin:round;}
	.st2{fill:none;stroke:#000000;stroke-width:0.5027;stroke-linecap:round;}
	.st3{fill:none;stroke:#000000;stroke-width:0.2646;stroke-linecap:round;}
	.st4{fill:#242424;}
	.st5{fill:#FFFFFF;stroke:#242424;stroke-width:2.1684;stroke-linecap:round;stroke-linejoin:round;}
	.st6{fill:#FFFFFF;stroke:#242424;stroke-width:2.178;stroke-linecap:round;stroke-linejoin:round;}
	.st7{fill:none;stroke:#000000;stroke-width:0.2646;stroke-linecap:round;stroke-linejoin:round;}
</style>
<title>Documentation Component Pages</title>
<g transform="translate(0 -56.649)">
	<rect y="56.6" class="st0" width="130" height="190.3"/>
	<path class="st1" d="M29.2,137.4c-0.3,0-0.5,0.3-0.5,0.8v6.1c0,0.4,0.2,0.8,0.5,0.8h4.9c0.3,0,0.5-0.3,0.5-0.8v-5.7
		c-0.9,0.2-1.3-0.3-1.2-1.2L29.2,137.4z"/>
	<g>
		<path class="st2" d="M33.5,137.4l1.1,1.2"/>
		<g>
			<path class="st3" d="M29.6,139.5h4.1"/>
			<path class="st3" d="M29.6,140.4h4.1"/>
			<path class="st3" d="M29.6,141.4h2.1"/>
			<path class="st3" d="M29.6,142.4h4.1"/>
			<path class="st3" d="M29.6,143.4h3.1"/>
		</g>
	</g>
	<g>
		<g transform="scale(1 .99998)">
			<path class="st4" d="M32.7,191.7c0.4,0,0.7,0.1,1,0.2s0.5,0.4,0.7,0.7c0.2,0.3,0.3,0.6,0.3,1c0,0.4-0.1,0.7-0.3,1
				c-0.2,0.3-0.4,0.5-0.7,0.7s-0.6,0.2-1,0.2c-0.3,0-0.5-0.1-0.8-0.2c-0.2-0.1-0.4-0.3-0.6-0.5v2h-0.7v-5.2h0.7v0.6
				c0.2-0.2,0.3-0.4,0.6-0.5C32.1,191.8,32.4,191.7,32.7,191.7L32.7,191.7z M32.6,195c0.2,0,0.5-0.1,0.7-0.2
				c0.2-0.1,0.4-0.3,0.5-0.5c0.1-0.2,0.2-0.4,0.2-0.7c0-0.3-0.1-0.5-0.2-0.7c-0.1-0.2-0.3-0.4-0.5-0.5c-0.2-0.1-0.4-0.2-0.7-0.2
				c-0.2,0-0.5,0.1-0.7,0.2c-0.2,0.1-0.3,0.3-0.5,0.5c-0.1,0.2-0.2,0.4-0.2,0.7c0,0.3,0.1,0.5,0.2,0.7c0.1,0.2,0.3,0.4,0.5,0.5
				C32.2,195,32.4,195,32.6,195z"/>
			<path class="st4" d="M36.9,191.7c0.5,0,0.9,0.1,1.2,0.4c0.3,0.3,0.4,0.6,0.4,1.2v2.3h-0.7v-0.5c-0.1,0.2-0.3,0.3-0.5,0.4
				c-0.2,0.1-0.5,0.1-0.8,0.1c-0.4,0-0.8-0.1-1-0.3c-0.3-0.2-0.4-0.5-0.4-0.8c0-0.3,0.1-0.6,0.4-0.8c0.2-0.2,0.6-0.3,1.2-0.3h1.1
				v-0.1c0-0.3-0.1-0.5-0.3-0.7c-0.2-0.2-0.4-0.2-0.8-0.2c-0.2,0-0.4,0-0.7,0.1c-0.2,0.1-0.4,0.2-0.5,0.3l-0.3-0.5
				c0.2-0.2,0.4-0.3,0.7-0.4C36.3,191.8,36.6,191.7,36.9,191.7L36.9,191.7z M36.8,195.1c0.3,0,0.5-0.1,0.7-0.2
				c0.2-0.1,0.3-0.3,0.4-0.5v-0.5h-1.1c-0.6,0-0.9,0.2-0.9,0.6c0,0.2,0.1,0.3,0.2,0.5C36.3,195.1,36.5,195.1,36.8,195.1L36.8,195.1z
				"/>
			<path class="st4" d="M43.6,191.8v3.3c0,0.7-0.2,1.2-0.5,1.5c-0.3,0.3-0.8,0.5-1.5,0.5c-0.4,0-0.7-0.1-1-0.2
				c-0.3-0.1-0.6-0.2-0.8-0.4l0.3-0.5c0.2,0.2,0.4,0.3,0.7,0.4c0.3,0.1,0.5,0.1,0.8,0.1c0.4,0,0.8-0.1,1-0.3c0.2-0.2,0.3-0.5,0.3-1
				v-0.3c-0.2,0.2-0.4,0.3-0.6,0.4c-0.2,0.1-0.5,0.1-0.8,0.1c-0.4,0-0.7-0.1-1-0.2c-0.3-0.2-0.5-0.4-0.7-0.7c-0.2-0.3-0.3-0.6-0.3-1
				c0-0.4,0.1-0.7,0.3-1c0.2-0.3,0.4-0.5,0.7-0.7c0.3-0.2,0.6-0.2,1-0.2c0.3,0,0.6,0.1,0.8,0.2c0.3,0.1,0.5,0.3,0.6,0.5v-0.6
				L43.6,191.8z M41.6,194.8c0.3,0,0.5-0.1,0.7-0.2c0.2-0.1,0.4-0.3,0.5-0.4c0.1-0.2,0.2-0.4,0.2-0.7c0-0.4-0.1-0.7-0.4-0.9
				c-0.2-0.2-0.6-0.3-0.9-0.3c-0.4,0-0.7,0.1-1,0.3c-0.2,0.2-0.4,0.5-0.4,0.9c0,0.2,0.1,0.5,0.2,0.7c0.1,0.2,0.3,0.3,0.5,0.4
				C41.1,194.8,41.3,194.8,41.6,194.8z"/>
			<path class="st4" d="M48.3,193.7c0,0.1,0,0.1,0,0.2h-3.1c0,0.3,0.2,0.6,0.4,0.8c0.3,0.2,0.6,0.3,0.9,0.3c0.5,0,0.8-0.2,1.1-0.5
				l0.4,0.4c-0.2,0.2-0.4,0.4-0.7,0.5c-0.3,0.1-0.5,0.2-0.9,0.2c-0.4,0-0.8-0.1-1.1-0.2c-0.3-0.2-0.6-0.4-0.7-0.7
				c-0.2-0.3-0.3-0.6-0.3-1c0-0.4,0.1-0.7,0.2-1c0.2-0.3,0.4-0.5,0.7-0.7c0.3-0.2,0.6-0.3,1-0.3c0.4,0,0.7,0.1,1,0.3
				c0.3,0.2,0.5,0.4,0.7,0.7C48.3,193,48.3,193.3,48.3,193.7L48.3,193.7z M46.4,192.3c-0.3,0-0.6,0.1-0.8,0.3
				c-0.2,0.2-0.4,0.5-0.4,0.8h2.5c0-0.3-0.2-0.6-0.4-0.8C47.1,192.4,46.8,192.3,46.4,192.3L46.4,192.3z"/>
			<path class="st4" d="M50.4,195.6c-0.3,0-0.6,0-0.9-0.1c-0.3-0.1-0.5-0.2-0.7-0.3l0.3-0.5c0.2,0.1,0.4,0.2,0.6,0.3
				c0.2,0.1,0.5,0.1,0.7,0.1c0.6,0,0.9-0.2,0.9-0.5c0-0.1,0-0.2-0.1-0.3s-0.2-0.1-0.3-0.1c-0.1,0-0.3-0.1-0.5-0.1
				c-0.3,0-0.6-0.1-0.8-0.2c-0.2-0.1-0.4-0.2-0.5-0.3c-0.1-0.1-0.2-0.4-0.2-0.6c0-0.3,0.1-0.6,0.4-0.8c0.3-0.2,0.7-0.3,1.2-0.3
				c0.3,0,0.5,0,0.8,0.1s0.5,0.1,0.6,0.3l-0.3,0.5c-0.3-0.2-0.7-0.3-1.1-0.3c-0.3,0-0.5,0-0.7,0.1s-0.2,0.2-0.2,0.4
				c0,0.1,0,0.2,0.1,0.3c0.1,0.1,0.2,0.1,0.3,0.2c0.1,0,0.3,0.1,0.5,0.1c0.3,0.1,0.6,0.1,0.7,0.2c0.2,0.1,0.4,0.2,0.5,0.3
				c0.1,0.1,0.2,0.3,0.2,0.6c0,0.3-0.1,0.6-0.4,0.8C51.3,195.5,50.9,195.6,50.4,195.6L50.4,195.6z"/>
		</g>
		<g transform="matrix(.24549 0 0 .24258 -4.9025 173.72)">
			<path class="st5" d="M102.2,66.6c-1.2,0-2.1,0.9-2.1,2.1v20.8c0,1.3,1.2,2.3,2.7,2.3h23.7c1.5,0,2.7-1,2.7-2.3V72
				c0-1.3-1.2-2.3-2.7-2.3h-13c-1.6,0-2.7-3.2-4.3-3.2L102.2,66.6z"/>
			<path class="st6" d="M105,72.7h23.8c1.5,0,2.5,1,2.4,2.1l-2,14.8c-0.2,1.2-1.5,2.1-2.9,2.1h-23.8c-1.5,0-2.5-1-2.4-2.1l2-14.8
				C102.3,73.7,103.6,72.7,105,72.7z"/>
		</g>
	</g>
	<g>
		<g transform="scale(1 .99998)">
			<path class="st4" d="M42.5,201.5v5.4h-0.7v-0.6c-0.2,0.2-0.3,0.4-0.6,0.5c-0.2,0.1-0.5,0.2-0.8,0.2c-0.4,0-0.7-0.1-1-0.2
				c-0.3-0.2-0.5-0.4-0.7-0.7c-0.2-0.3-0.2-0.6-0.2-1c0-0.4,0.1-0.7,0.2-1c0.2-0.3,0.4-0.5,0.7-0.7s0.6-0.2,1-0.2
				c0.3,0,0.5,0.1,0.8,0.2c0.2,0.1,0.4,0.3,0.6,0.5v-2.1L42.5,201.5z M40.5,206.3c0.2,0,0.5-0.1,0.7-0.2c0.2-0.1,0.4-0.3,0.5-0.5
				c0.1-0.2,0.2-0.4,0.2-0.7s-0.1-0.5-0.2-0.7c-0.1-0.2-0.3-0.4-0.5-0.5s-0.4-0.2-0.7-0.2c-0.2,0-0.5,0.1-0.7,0.2
				c-0.2,0.1-0.3,0.3-0.5,0.5c-0.1,0.2-0.2,0.4-0.2,0.7s0.1,0.5,0.2,0.7c0.1,0.2,0.3,0.4,0.5,0.5C40,206.2,40.3,206.3,40.5,206.3z"
				/>
			<path class="st4" d="M45.2,203c0.5,0,0.9,0.1,1.2,0.4c0.3,0.3,0.4,0.6,0.4,1.2v2.3h-0.7v-0.5c-0.1,0.2-0.3,0.3-0.5,0.4
				c-0.2,0.1-0.5,0.1-0.8,0.1c-0.4,0-0.8-0.1-1-0.3c-0.3-0.2-0.4-0.5-0.4-0.8c0-0.3,0.1-0.6,0.4-0.8c0.2-0.2,0.6-0.3,1.2-0.3h1.1
				v-0.1c0-0.3-0.1-0.5-0.3-0.7s-0.4-0.2-0.8-0.2c-0.2,0-0.4,0-0.7,0.1c-0.2,0.1-0.4,0.2-0.5,0.3l-0.3-0.5c0.2-0.2,0.4-0.3,0.7-0.4
				C44.6,203,44.9,203,45.2,203L45.2,203z M45,206.3c0.3,0,0.5-0.1,0.7-0.2c0.2-0.1,0.3-0.3,0.4-0.5v-0.5h-1.1
				c-0.6,0-0.9,0.2-0.9,0.6c0,0.2,0.1,0.3,0.2,0.5C44.5,206.3,44.8,206.3,45,206.3L45,206.3z"/>
			<path class="st4" d="M49.2,206.9c-0.3,0-0.6,0-0.9-0.1c-0.3-0.1-0.5-0.2-0.7-0.3l0.3-0.5c0.2,0.1,0.4,0.2,0.6,0.3
				c0.2,0.1,0.5,0.1,0.7,0.1c0.6,0,0.9-0.2,0.9-0.5c0-0.1,0-0.2-0.1-0.3c-0.1-0.1-0.2-0.1-0.3-0.1c-0.1,0-0.3-0.1-0.5-0.1
				c-0.3,0-0.6-0.1-0.8-0.2c-0.2-0.1-0.4-0.2-0.5-0.3c-0.1-0.1-0.2-0.4-0.2-0.6c0-0.3,0.1-0.6,0.4-0.8c0.3-0.2,0.7-0.3,1.2-0.3
				c0.3,0,0.5,0,0.8,0.1c0.3,0.1,0.5,0.1,0.6,0.3l-0.3,0.5c-0.3-0.2-0.7-0.3-1.1-0.3c-0.3,0-0.5,0-0.7,0.1c-0.2,0.1-0.2,0.2-0.2,0.4
				c0,0.1,0,0.2,0.1,0.3c0.1,0.1,0.2,0.1,0.3,0.2c0.1,0,0.3,0.1,0.5,0.1c0.3,0.1,0.6,0.1,0.7,0.2c0.2,0.1,0.4,0.2,0.5,0.3
				c0.1,0.1,0.2,0.3,0.2,0.6c0,0.3-0.1,0.6-0.4,0.8C50.1,206.8,49.7,206.9,49.2,206.9L49.2,206.9z"/>
			<path class="st4" d="M53.8,203c0.5,0,0.9,0.1,1.2,0.4c0.3,0.3,0.4,0.7,0.4,1.2v2.2h-0.7v-2.1c0-0.4-0.1-0.7-0.3-0.8
				c-0.2-0.2-0.4-0.3-0.8-0.3c-0.4,0-0.7,0.1-0.9,0.3c-0.2,0.2-0.3,0.5-0.3,0.9v2h-0.7v-5.4h0.7v2.1c0.1-0.2,0.3-0.3,0.6-0.4
				C53.2,203,53.5,203,53.8,203L53.8,203z"/>
			<path class="st4" d="M58.7,203c0.4,0,0.7,0.1,1,0.2c0.3,0.2,0.5,0.4,0.7,0.7c0.2,0.3,0.3,0.6,0.3,1c0,0.4-0.1,0.7-0.3,1
				c-0.2,0.3-0.4,0.5-0.7,0.7c-0.3,0.2-0.6,0.2-1,0.2c-0.3,0-0.5-0.1-0.8-0.2c-0.2-0.1-0.4-0.3-0.6-0.5v0.6h-0.7v-5.4h0.7v2.1
				c0.2-0.2,0.3-0.4,0.6-0.5C58.2,203,58.4,203,58.7,203L58.7,203z M58.6,206.3c0.2,0,0.5-0.1,0.7-0.2c0.2-0.1,0.4-0.3,0.5-0.5
				c0.1-0.2,0.2-0.4,0.2-0.7c0-0.3-0.1-0.5-0.2-0.7c-0.1-0.2-0.3-0.4-0.5-0.5c-0.2-0.1-0.4-0.2-0.7-0.2c-0.2,0-0.5,0.1-0.7,0.2
				c-0.2,0.1-0.4,0.3-0.5,0.5c-0.1,0.2-0.2,0.4-0.2,0.7c0,0.3,0.1,0.5,0.2,0.7c0.1,0.2,0.3,0.4,0.5,0.5
				C58.2,206.2,58.4,206.3,58.6,206.3z"/>
			<path class="st4" d="M63.2,206.9c-0.4,0-0.7-0.1-1-0.3c-0.3-0.2-0.5-0.4-0.7-0.7c-0.2-0.3-0.3-0.6-0.3-1c0-0.4,0.1-0.7,0.3-1
				c0.2-0.3,0.4-0.5,0.7-0.7c0.3-0.2,0.6-0.3,1-0.3s0.7,0.1,1,0.3c0.3,0.2,0.5,0.4,0.7,0.7c0.2,0.3,0.3,0.6,0.3,1
				c0,0.4-0.1,0.7-0.3,1c-0.2,0.3-0.4,0.5-0.7,0.7C64,206.8,63.6,206.9,63.2,206.9z M63.2,206.3c0.2,0,0.5-0.1,0.7-0.2
				c0.2-0.1,0.4-0.3,0.5-0.5c0.1-0.2,0.2-0.4,0.2-0.7s-0.1-0.5-0.2-0.7c-0.1-0.2-0.3-0.4-0.5-0.5c-0.2-0.1-0.4-0.2-0.7-0.2
				c-0.2,0-0.5,0.1-0.7,0.2c-0.2,0.1-0.3,0.3-0.5,0.5c-0.1,0.2-0.2,0.4-0.2,0.7s0.1,0.5,0.2,0.7c0.1,0.2,0.3,0.4,0.5,0.5
				C62.8,206.2,63,206.3,63.2,206.3z"/>
			<path class="st4" d="M67.5,203c0.5,0,0.9,0.1,1.2,0.4c0.3,0.3,0.4,0.6,0.4,1.2v2.3h-0.7v-0.5c-0.1,0.2-0.3,0.3-0.5,0.4
				c-0.2,0.1-0.5,0.1-0.8,0.1c-0.4,0-0.8-0.1-1-0.3c-0.3-0.2-0.4-0.5-0.4-0.8c0-0.3,0.1-0.6,0.4-0.8c0.2-0.2,0.6-0.3,1.2-0.3h1.1
				v-0.1c0-0.3-0.1-0.5-0.3-0.7s-0.4-0.2-0.8-0.2c-0.2,0-0.4,0-0.7,0.1c-0.2,0.1-0.4,0.2-0.5,0.3l-0.3-0.5c0.2-0.2,0.4-0.3,0.7-0.4
				C66.9,203,67.2,203,67.5,203L67.5,203z M67.4,206.3c0.3,0,0.5-0.1,0.7-0.2c0.2-0.1,0.3-0.3,0.4-0.5v-0.5h-1.1
				c-0.6,0-0.9,0.2-0.9,0.6c0,0.2,0.1,0.3,0.2,0.5C66.9,206.3,67.1,206.3,67.4,206.3L67.4,206.3z"/>
			<path class="st4" d="M71.1,203.6c0.1-0.2,0.3-0.4,0.5-0.5c0.2-0.1,0.5-0.2,0.9-0.2v0.7c0,0-0.1,0-0.2,0c-0.4,0-0.7,0.1-0.9,0.3
				c-0.2,0.2-0.3,0.5-0.3,1v1.9h-0.7V203h0.7L71.1,203.6z"/>
			<path class="st4" d="M77,201.5v5.4h-0.7v-0.6c-0.2,0.2-0.3,0.4-0.6,0.5s-0.5,0.2-0.8,0.2c-0.4,0-0.7-0.1-1-0.2
				c-0.3-0.2-0.5-0.4-0.7-0.7c-0.2-0.3-0.2-0.6-0.2-1c0-0.4,0.1-0.7,0.2-1c0.2-0.3,0.4-0.5,0.7-0.7s0.6-0.2,1-0.2
				c0.3,0,0.5,0.1,0.8,0.2c0.2,0.1,0.4,0.3,0.6,0.5v-2.1L77,201.5z M75,206.3c0.2,0,0.5-0.1,0.7-0.2c0.2-0.1,0.4-0.3,0.5-0.5
				c0.1-0.2,0.2-0.4,0.2-0.7s-0.1-0.5-0.2-0.7c-0.1-0.2-0.3-0.4-0.5-0.5s-0.4-0.2-0.7-0.2c-0.2,0-0.5,0.1-0.7,0.2
				c-0.2,0.1-0.3,0.3-0.5,0.5c-0.1,0.2-0.2,0.4-0.2,0.7s0.1,0.5,0.2,0.7c0.1,0.2,0.3,0.4,0.5,0.5C74.5,206.2,74.7,206.3,75,206.3z"
				/>
			<path class="st4" d="M78,204.5H80v0.6H78V204.5z"/>
			<path class="st4" d="M83.3,206.6c-0.1,0.1-0.2,0.2-0.4,0.2c-0.1,0-0.3,0.1-0.5,0.1c-0.4,0-0.7-0.1-0.9-0.3
				c-0.2-0.2-0.3-0.5-0.3-0.9v-2.1h-0.7V203h0.7v-0.8h0.7v0.8H83v0.6h-1.1v2.1c0,0.2,0.1,0.4,0.2,0.5c0.1,0.1,0.3,0.2,0.4,0.2
				c0.2,0,0.4-0.1,0.5-0.2L83.3,206.6z"/>
			<path class="st4" d="M85.6,206.9c-0.4,0-0.7-0.1-1-0.3c-0.3-0.2-0.5-0.4-0.7-0.7c-0.2-0.3-0.3-0.6-0.3-1c0-0.4,0.1-0.7,0.3-1
				c0.2-0.3,0.4-0.5,0.7-0.7c0.3-0.2,0.6-0.3,1-0.3c0.4,0,0.7,0.1,1,0.3c0.3,0.2,0.5,0.4,0.7,0.7c0.2,0.3,0.3,0.6,0.3,1
				c0,0.4-0.1,0.7-0.3,1c-0.2,0.3-0.4,0.5-0.7,0.7C86.3,206.8,86,206.9,85.6,206.9z M85.6,206.3c0.2,0,0.5-0.1,0.7-0.2
				c0.2-0.1,0.4-0.3,0.5-0.5c0.1-0.2,0.2-0.4,0.2-0.7s-0.1-0.5-0.2-0.7c-0.1-0.2-0.3-0.4-0.5-0.5c-0.2-0.1-0.4-0.2-0.7-0.2
				c-0.2,0-0.5,0.1-0.7,0.2c-0.2,0.1-0.3,0.3-0.5,0.5c-0.1,0.2-0.2,0.4-0.2,0.7s0.1,0.5,0.2,0.7c0.1,0.2,0.3,0.4,0.5,0.5
				C85.1,206.2,85.4,206.3,85.6,206.3z"/>
			<path class="st4" d="M92.1,203v3.8h-0.7v-0.6c-0.1,0.2-0.3,0.4-0.6,0.5c-0.2,0.1-0.5,0.2-0.7,0.2c-0.5,0-0.9-0.1-1.2-0.4
				c-0.3-0.3-0.4-0.7-0.4-1.3V203h0.7v2.1c0,0.4,0.1,0.7,0.3,0.8c0.2,0.2,0.4,0.3,0.8,0.3c0.4,0,0.7-0.1,0.9-0.3s0.3-0.5,0.3-0.9v-2
				L92.1,203z"/>
			<path class="st4" d="M94.1,203.6c0.1-0.2,0.3-0.4,0.5-0.5c0.2-0.1,0.5-0.2,0.9-0.2v0.7c0,0-0.1,0-0.2,0c-0.4,0-0.7,0.1-0.9,0.3
				c-0.2,0.2-0.3,0.5-0.3,1v1.9h-0.7V203h0.7L94.1,203.6z"/>
			<path class="st4" d="M96.5,206.9c-0.1,0-0.3,0-0.3-0.1c-0.1-0.1-0.1-0.2-0.1-0.4c0-0.1,0-0.3,0.1-0.3c0.1-0.1,0.2-0.1,0.3-0.1
				c0.1,0,0.2,0,0.3,0.1c0.1,0.1,0.1,0.2,0.1,0.4c0,0.1,0,0.3-0.1,0.4C96.8,206.8,96.7,206.9,96.5,206.9z"/>
			<path class="st4" d="M99.5,203c0.5,0,0.9,0.1,1.2,0.4c0.3,0.3,0.4,0.6,0.4,1.2v2.3h-0.7v-0.5c-0.1,0.2-0.3,0.3-0.5,0.4
				c-0.2,0.1-0.5,0.1-0.8,0.1c-0.4,0-0.8-0.1-1-0.3c-0.3-0.2-0.4-0.5-0.4-0.8c0-0.3,0.1-0.6,0.4-0.8c0.2-0.2,0.6-0.3,1.2-0.3h1.1
				v-0.1c0-0.3-0.1-0.5-0.3-0.7s-0.4-0.2-0.8-0.2c-0.2,0-0.4,0-0.7,0.1c-0.2,0.1-0.4,0.2-0.5,0.3l-0.3-0.5c0.2-0.2,0.4-0.3,0.7-0.4
				C98.9,203,99.2,203,99.5,203L99.5,203z M99.3,206.3c0.3,0,0.5-0.1,0.7-0.2c0.2-0.1,0.3-0.3,0.4-0.5v-0.5h-1.1
				c-0.6,0-0.9,0.2-0.9,0.6c0,0.2,0.1,0.3,0.2,0.5C98.8,206.3,99,206.3,99.3,206.3L99.3,206.3z"/>
			<path class="st4" d="M106,201.5v5.4h-0.7v-0.6c-0.2,0.2-0.3,0.4-0.6,0.5c-0.2,0.1-0.5,0.2-0.8,0.2c-0.4,0-0.7-0.1-1-0.2
				c-0.3-0.2-0.5-0.4-0.7-0.7c-0.2-0.3-0.2-0.6-0.2-1c0-0.4,0.1-0.7,0.2-1c0.2-0.3,0.4-0.5,0.7-0.7c0.3-0.2,0.6-0.2,1-0.2
				c0.3,0,0.5,0.1,0.8,0.2c0.2,0.1,0.4,0.3,0.6,0.5v-2.1L106,201.5z M104.1,206.3c0.2,0,0.5-0.1,0.7-0.2c0.2-0.1,0.4-0.3,0.5-0.5
				c0.1-0.2,0.2-0.4,0.2-0.7s-0.1-0.5-0.2-0.7c-0.1-0.2-0.3-0.4-0.5-0.5c-0.2-0.1-0.4-0.2-0.7-0.2c-0.2,0-0.5,0.1-0.7,0.2
				c-0.2,0.1-0.3,0.3-0.5,0.5c-0.1,0.2-0.2,0.4-0.2,0.7s0.1,0.5,0.2,0.7c0.1,0.2,0.3,0.4,0.5,0.5
				C103.6,206.2,103.8,206.3,104.1,206.3z"/>
			<path class="st4" d="M109,206.9c-0.4,0-0.7-0.1-1-0.3c-0.3-0.2-0.5-0.4-0.7-0.7c-0.2-0.3-0.3-0.6-0.3-1c0-0.4,0.1-0.7,0.3-1
				c0.2-0.3,0.4-0.5,0.7-0.7c0.3-0.2,0.6-0.3,1-0.3c0.4,0,0.7,0.1,1,0.3c0.3,0.2,0.5,0.4,0.7,0.7c0.2,0.3,0.3,0.6,0.3,1
				c0,0.4-0.1,0.7-0.3,1c-0.2,0.3-0.4,0.5-0.7,0.7C109.7,206.8,109.4,206.9,109,206.9z M109,206.3c0.2,0,0.5-0.1,0.7-0.2
				c0.2-0.1,0.4-0.3,0.5-0.5c0.1-0.2,0.2-0.4,0.2-0.7s-0.1-0.5-0.2-0.7c-0.1-0.2-0.3-0.4-0.5-0.5c-0.2-0.1-0.4-0.2-0.7-0.2
				c-0.2,0-0.5,0.1-0.7,0.2c-0.2,0.1-0.3,0.3-0.5,0.5c-0.1,0.2-0.2,0.4-0.2,0.7c0,0.3,0.1,0.5,0.2,0.7c0.1,0.2,0.3,0.4,0.5,0.5
				C108.5,206.2,108.7,206.3,109,206.3z"/>
			<path class="st4" d="M113.6,206.9c-0.4,0-0.7-0.1-1-0.3c-0.3-0.2-0.5-0.4-0.7-0.7c-0.2-0.3-0.3-0.6-0.3-1c0-0.4,0.1-0.7,0.3-1
				c0.2-0.3,0.4-0.5,0.7-0.7c0.3-0.2,0.7-0.3,1-0.3c0.3,0,0.7,0.1,0.9,0.2c0.3,0.1,0.5,0.3,0.6,0.6l-0.5,0.3
				c-0.1-0.2-0.3-0.3-0.4-0.4c-0.2-0.1-0.4-0.1-0.6-0.1c-0.3,0-0.5,0.1-0.7,0.2c-0.2,0.1-0.4,0.3-0.5,0.5c-0.1,0.2-0.2,0.4-0.2,0.7
				c0,0.3,0.1,0.5,0.2,0.7c0.1,0.2,0.3,0.4,0.5,0.5c0.2,0.1,0.4,0.2,0.7,0.2c0.2,0,0.4,0,0.6-0.1c0.2-0.1,0.3-0.2,0.4-0.4l0.5,0.3
				c-0.1,0.3-0.4,0.5-0.6,0.6C114.3,206.8,113.9,206.9,113.6,206.9z"/>
		</g>
		<g transform="scale(1 .99998)">
			<path class="st4" d="M19.1,74.3c0.5,0,0.9,0.1,1.1,0.4c0.3,0.3,0.4,0.7,0.4,1.2v2.2h-0.7V76c0-0.4-0.1-0.7-0.3-0.8
				c-0.2-0.2-0.4-0.3-0.7-0.3c-0.4,0-0.6,0.1-0.8,0.3c-0.2,0.2-0.3,0.5-0.3,0.9v2h-0.7V76c0-0.4-0.1-0.7-0.3-0.8
				c-0.2-0.2-0.4-0.3-0.7-0.3c-0.4,0-0.6,0.1-0.8,0.3c-0.2,0.2-0.3,0.5-0.3,0.9v2h-0.7v-3.8h0.7v0.6c0.1-0.2,0.3-0.3,0.5-0.4
				c0.2-0.1,0.5-0.2,0.8-0.2c0.3,0,0.6,0.1,0.8,0.2c0.2,0.1,0.4,0.3,0.5,0.5c0.1-0.2,0.3-0.4,0.6-0.5C18.4,74.3,18.7,74.3,19.1,74.3
				L19.1,74.3z"/>
			<path class="st4" d="M23.6,78.2c-0.4,0-0.7-0.1-1-0.3c-0.3-0.2-0.5-0.4-0.7-0.7c-0.2-0.3-0.3-0.6-0.3-1c0-0.4,0.1-0.7,0.3-1
				c0.2-0.3,0.4-0.5,0.7-0.7c0.3-0.2,0.6-0.3,1-0.3c0.4,0,0.7,0.1,1,0.3c0.3,0.2,0.5,0.4,0.7,0.7c0.2,0.3,0.3,0.6,0.3,1
				c0,0.4-0.1,0.7-0.3,1c-0.2,0.3-0.4,0.5-0.7,0.7C24.3,78.1,24,78.2,23.6,78.2z M23.6,77.6c0.2,0,0.5-0.1,0.7-0.2
				c0.2-0.1,0.4-0.3,0.5-0.5c0.1-0.2,0.2-0.4,0.2-0.7s-0.1-0.5-0.2-0.7c-0.1-0.2-0.3-0.4-0.5-0.5c-0.2-0.1-0.4-0.2-0.7-0.2
				c-0.2,0-0.5,0.1-0.7,0.2c-0.2,0.1-0.3,0.3-0.5,0.5c-0.1,0.2-0.2,0.4-0.2,0.7s0.1,0.5,0.2,0.7c0.1,0.2,0.3,0.4,0.5,0.5
				C23.1,77.5,23.3,77.6,23.6,77.6z"/>
			<path class="st4" d="M30.1,72.8v5.4h-0.7v-0.6c-0.2,0.2-0.3,0.4-0.6,0.5c-0.2,0.1-0.5,0.2-0.8,0.2c-0.4,0-0.7-0.1-1-0.2
				s-0.5-0.4-0.7-0.7c-0.2-0.3-0.2-0.6-0.2-1c0-0.4,0.1-0.7,0.2-1c0.2-0.3,0.4-0.5,0.7-0.7c0.3-0.2,0.6-0.2,1-0.2
				c0.3,0,0.5,0.1,0.8,0.2c0.2,0.1,0.4,0.3,0.6,0.5v-2.1L30.1,72.8z M28.2,77.6c0.2,0,0.5-0.1,0.7-0.2c0.2-0.1,0.4-0.3,0.5-0.5
				c0.1-0.2,0.2-0.4,0.2-0.7s-0.1-0.5-0.2-0.7c-0.1-0.2-0.3-0.4-0.5-0.5c-0.2-0.1-0.4-0.2-0.7-0.2c-0.2,0-0.5,0.1-0.7,0.2
				c-0.2,0.1-0.3,0.3-0.5,0.5c-0.1,0.2-0.2,0.4-0.2,0.7c0,0.3,0.1,0.5,0.2,0.7c0.1,0.2,0.3,0.4,0.5,0.5
				C27.7,77.5,27.9,77.6,28.2,77.6z"/>
			<path class="st4" d="M35,74.3v3.8h-0.7v-0.6c-0.1,0.2-0.3,0.4-0.6,0.5c-0.2,0.1-0.5,0.2-0.7,0.2c-0.5,0-0.9-0.1-1.2-0.4
				c-0.3-0.3-0.4-0.7-0.4-1.3v-2.2h0.7v2.1c0,0.4,0.1,0.7,0.3,0.8c0.2,0.2,0.4,0.3,0.8,0.3c0.4,0,0.7-0.1,0.9-0.3s0.3-0.5,0.3-0.9
				v-2L35,74.3z"/>
			<path class="st4" d="M36.3,72.8H37v5.4h-0.7V72.8z"/>
			<path class="st4" d="M41.8,76.2c0,0.1,0,0.1,0,0.2h-3.1c0,0.3,0.2,0.6,0.4,0.8c0.3,0.2,0.6,0.3,0.9,0.3c0.5,0,0.8-0.2,1.1-0.5
				l0.4,0.4c-0.2,0.2-0.4,0.4-0.7,0.5c-0.3,0.1-0.5,0.2-0.9,0.2c-0.4,0-0.8-0.1-1.1-0.2c-0.3-0.2-0.6-0.4-0.7-0.7
				c-0.2-0.3-0.3-0.6-0.3-1c0-0.4,0.1-0.7,0.2-1c0.2-0.3,0.4-0.5,0.7-0.7c0.3-0.2,0.6-0.3,1-0.3s0.7,0.1,1,0.3
				c0.3,0.2,0.5,0.4,0.7,0.7C41.8,75.5,41.8,75.9,41.8,76.2L41.8,76.2z M39.9,74.9c-0.3,0-0.6,0.1-0.8,0.3c-0.2,0.2-0.4,0.5-0.4,0.8
				h2.5c0-0.3-0.2-0.6-0.4-0.8C40.5,75,40.3,74.9,39.9,74.9L39.9,74.9z"/>
			<path class="st4" d="M43.9,78.2c-0.3,0-0.6,0-0.9-0.1c-0.3-0.1-0.5-0.2-0.7-0.3l0.3-0.5c0.2,0.1,0.4,0.2,0.6,0.3
				c0.2,0.1,0.5,0.1,0.7,0.1c0.6,0,0.9-0.2,0.9-0.5c0-0.1,0-0.2-0.1-0.3c-0.1-0.1-0.2-0.1-0.3-0.1c-0.1,0-0.3-0.1-0.5-0.1
				c-0.3,0-0.6-0.1-0.8-0.2c-0.2-0.1-0.4-0.2-0.5-0.3c-0.1-0.1-0.2-0.4-0.2-0.6c0-0.3,0.1-0.6,0.4-0.8c0.3-0.2,0.7-0.3,1.2-0.3
				c0.3,0,0.5,0,0.8,0.1s0.5,0.1,0.6,0.3l-0.3,0.5c-0.3-0.2-0.7-0.3-1.1-0.3c-0.3,0-0.5,0-0.7,0.1c-0.2,0.1-0.2,0.2-0.2,0.4
				c0,0.1,0,0.2,0.1,0.3c0.1,0.1,0.2,0.1,0.3,0.2c0.1,0,0.3,0.1,0.5,0.1c0.3,0.1,0.6,0.1,0.7,0.2c0.2,0.1,0.4,0.2,0.5,0.3
				c0.1,0.1,0.2,0.3,0.2,0.6c0,0.3-0.1,0.6-0.4,0.8C44.8,78.1,44.4,78.2,43.9,78.2L43.9,78.2z"/>
		</g>
	</g>
	<g transform="matrix(.24549 0 0 .24258 -21.298 28.263)">
		<path class="st5" d="M102.2,182c-1.2,0-2.1,0.9-2.1,2.1v20.8c0,1.3,1.2,2.3,2.7,2.3h23.7c1.5,0,2.7-1,2.7-2.3v-17.5
			c0-1.3-1.2-2.3-2.7-2.3h-13c-1.6,0-2.7-3.2-4.3-3.2L102.2,182z"/>
		<path class="st6" d="M105,188.1h23.8c1.5,0,2.5,1,2.4,2.1l-2,14.8c-0.2,1.2-1.5,2.1-2.9,2.1h-23.8c-1.5,0-2.5-1-2.4-2.1l2-14.8
			C102.3,189.1,103.6,188.1,105,188.1z"/>
	</g>
	<g>
		<g transform="scale(1 .99998)">
			<path class="st4" d="M15.7,63.3c0.5,0,0.9,0.1,1.2,0.4c0.3,0.3,0.4,0.6,0.4,1.2v2.3h-0.7v-0.5c-0.1,0.2-0.3,0.3-0.5,0.4
				c-0.2,0.1-0.5,0.1-0.8,0.1c-0.4,0-0.8-0.1-1-0.3c-0.3-0.2-0.4-0.5-0.4-0.8c0-0.3,0.1-0.6,0.4-0.8c0.2-0.2,0.6-0.3,1.2-0.3h1.1
				v-0.1c0-0.3-0.1-0.5-0.3-0.7c-0.2-0.2-0.4-0.2-0.8-0.2c-0.2,0-0.4,0-0.7,0.1c-0.2,0.1-0.4,0.2-0.5,0.3l-0.3-0.5
				c0.2-0.2,0.4-0.3,0.7-0.4C15.1,63.3,15.4,63.3,15.7,63.3L15.7,63.3z M15.5,66.7c0.3,0,0.5-0.1,0.7-0.2c0.2-0.1,0.3-0.3,0.4-0.5
				v-0.5h-1.1c-0.6,0-0.9,0.2-0.9,0.6c0,0.2,0.1,0.3,0.2,0.5C15,66.6,15.2,66.7,15.5,66.7L15.5,66.7z"/>
			<path class="st4" d="M20.6,63.3c0.5,0,0.9,0.1,1.2,0.4c0.3,0.3,0.4,0.7,0.4,1.2v2.2h-0.7V65c0-0.4-0.1-0.7-0.3-0.8
				s-0.4-0.3-0.8-0.3c-0.4,0-0.7,0.1-0.9,0.3c-0.2,0.2-0.3,0.5-0.3,0.9v2h-0.7v-3.8h0.7v0.6c0.1-0.2,0.3-0.3,0.6-0.5
				C20.1,63.4,20.3,63.3,20.6,63.3L20.6,63.3z"/>
			<path class="st4" d="M25.7,66.9c-0.1,0.1-0.2,0.2-0.4,0.2c-0.1,0-0.3,0.1-0.5,0.1c-0.4,0-0.7-0.1-0.9-0.3
				c-0.2-0.2-0.3-0.5-0.3-0.9v-2.1H23v-0.6h0.7v-0.8h0.7v0.8h1.1v0.6h-1.1V66c0,0.2,0.1,0.4,0.2,0.5c0.1,0.1,0.3,0.2,0.4,0.2
				c0.2,0,0.4-0.1,0.5-0.2L25.7,66.9z"/>
			<path class="st4" d="M28,67.2c-0.4,0-0.7-0.1-1-0.3c-0.3-0.2-0.5-0.4-0.7-0.7c-0.2-0.3-0.3-0.6-0.3-1c0-0.4,0.1-0.7,0.3-1
				c0.2-0.3,0.4-0.5,0.7-0.7c0.3-0.2,0.6-0.3,1-0.3s0.7,0.1,1,0.3c0.3,0.2,0.5,0.4,0.7,0.7c0.2,0.3,0.3,0.6,0.3,1
				c0,0.4-0.1,0.7-0.3,1c-0.2,0.3-0.4,0.5-0.7,0.7C28.7,67.1,28.4,67.2,28,67.2z M28,66.6c0.2,0,0.5-0.1,0.7-0.2
				c0.2-0.1,0.4-0.3,0.5-0.5c0.1-0.2,0.2-0.4,0.2-0.7s-0.1-0.5-0.2-0.7c-0.1-0.2-0.3-0.4-0.5-0.5c-0.2-0.1-0.4-0.2-0.7-0.2
				c-0.2,0-0.5,0.1-0.7,0.2c-0.2,0.1-0.3,0.3-0.5,0.5c-0.1,0.2-0.2,0.4-0.2,0.7s0.1,0.5,0.2,0.7c0.1,0.2,0.3,0.4,0.5,0.5
				C27.6,66.6,27.8,66.6,28,66.6z"/>
			<path class="st4" d="M31.6,64c0.1-0.2,0.3-0.4,0.5-0.5c0.2-0.1,0.5-0.2,0.9-0.2V64c0,0-0.1,0-0.2,0c-0.4,0-0.7,0.1-0.9,0.3
				c-0.2,0.2-0.3,0.5-0.3,1v1.9H31v-3.8h0.7V64z"/>
			<path class="st4" d="M35.3,63.3c0.5,0,0.9,0.1,1.2,0.4c0.3,0.3,0.4,0.6,0.4,1.2v2.3h-0.7v-0.5c-0.1,0.2-0.3,0.3-0.5,0.4
				c-0.2,0.1-0.5,0.1-0.8,0.1c-0.4,0-0.8-0.1-1-0.3c-0.3-0.2-0.4-0.5-0.4-0.8c0-0.3,0.1-0.6,0.4-0.8c0.2-0.2,0.6-0.3,1.2-0.3h1.1
				v-0.1c0-0.3-0.1-0.5-0.3-0.7c-0.2-0.2-0.4-0.2-0.8-0.2c-0.2,0-0.4,0-0.7,0.1c-0.2,0.1-0.4,0.2-0.5,0.3l-0.3-0.5
				c0.2-0.2,0.4-0.3,0.7-0.4C34.7,63.3,35,63.3,35.3,63.3L35.3,63.3z M35.1,66.7c0.3,0,0.5-0.1,0.7-0.2c0.2-0.1,0.3-0.3,0.4-0.5
				v-0.5h-1.1c-0.6,0-0.9,0.2-0.9,0.6c0,0.2,0.1,0.3,0.2,0.5C34.6,66.6,34.8,66.7,35.1,66.7z"/>
			<path class="st4" d="M38.4,67.2c-0.1,0-0.3,0-0.3-0.1c-0.1-0.1-0.1-0.2-0.1-0.4c0-0.1,0-0.3,0.1-0.3c0.1-0.1,0.2-0.1,0.3-0.1
				c0.1,0,0.2,0,0.3,0.1s0.1,0.2,0.1,0.4s0,0.3-0.1,0.4C38.6,67.2,38.5,67.2,38.4,67.2z"/>
			<path class="st4" d="M43,63.3l-1.9,4.2c-0.2,0.4-0.4,0.7-0.6,0.8c-0.2,0.2-0.5,0.2-0.8,0.2c-0.2,0-0.4,0-0.5-0.1
				c-0.2-0.1-0.3-0.1-0.4-0.3l0.3-0.5c0.2,0.2,0.4,0.3,0.7,0.3c0.2,0,0.3,0,0.4-0.1c0.1-0.1,0.2-0.2,0.3-0.5l0.1-0.3l-1.7-3.8h0.7
				l1.3,3.1l1.3-3.1L43,63.3z"/>
			<path class="st4" d="M48.4,63.3c0.5,0,0.9,0.1,1.1,0.4C49.9,64,50,64.4,50,65v2.2h-0.7V65c0-0.4-0.1-0.7-0.3-0.8
				c-0.2-0.2-0.4-0.3-0.7-0.3c-0.4,0-0.6,0.1-0.8,0.3c-0.2,0.2-0.3,0.5-0.3,0.9v2h-0.7V65c0-0.4-0.1-0.7-0.3-0.8
				c-0.2-0.2-0.4-0.3-0.7-0.3c-0.4,0-0.6,0.1-0.8,0.3c-0.2,0.2-0.3,0.5-0.3,0.9v2h-0.7v-3.8h0.7v0.6c0.1-0.2,0.3-0.3,0.5-0.4
				c0.2-0.1,0.5-0.2,0.8-0.2c0.3,0,0.6,0.1,0.8,0.2c0.2,0.1,0.4,0.3,0.5,0.5c0.1-0.2,0.3-0.4,0.6-0.5C47.8,63.4,48.1,63.3,48.4,63.3
				L48.4,63.3z"/>
			<path class="st4" d="M51.3,61.8H52v5.4h-0.7V61.8z"/>
		</g>
		<g transform="scale(1 .99998)">
			<path class="st4" d="M25.9,88.3l-1.1-1.6c-0.1,0-0.2,0-0.3,0h-1.3v1.5h-0.7v-5.1h2c0.7,0,1.2,0.2,1.5,0.5
				c0.4,0.3,0.6,0.7,0.6,1.3c0,0.4-0.1,0.7-0.3,1s-0.5,0.5-0.8,0.6l1.2,1.7H25.9z M24.5,86.2c0.5,0,0.8-0.1,1-0.3
				c0.2-0.2,0.4-0.5,0.4-0.8c0-0.4-0.1-0.6-0.4-0.8c-0.2-0.2-0.6-0.3-1-0.3h-1.2v2.3L24.5,86.2z"/>
			<path class="st4" d="M30.1,88.4c-0.5,0-1-0.1-1.4-0.3c-0.4-0.2-0.7-0.5-1-0.9c-0.2-0.4-0.3-0.8-0.3-1.3c0-0.5,0.1-0.9,0.3-1.3
				c0.2-0.4,0.6-0.7,1-0.9c0.4-0.2,0.9-0.3,1.4-0.3c0.5,0,1,0.1,1.4,0.3c0.4,0.2,0.7,0.5,1,0.9c0.2,0.4,0.3,0.8,0.3,1.3
				c0,0.5-0.1,0.9-0.3,1.3c-0.2,0.4-0.6,0.7-1,0.9C31.1,88.3,30.6,88.4,30.1,88.4L30.1,88.4z M30.1,87.7c0.4,0,0.7-0.1,1-0.3
				c0.3-0.2,0.5-0.4,0.7-0.7c0.2-0.3,0.3-0.6,0.3-1c0-0.4-0.1-0.7-0.3-1c-0.2-0.3-0.4-0.5-0.7-0.7c-0.3-0.2-0.6-0.3-1-0.3
				c-0.4,0-0.7,0.1-1,0.3c-0.3,0.2-0.5,0.4-0.7,0.7c-0.2,0.3-0.3,0.6-0.3,1c0,0.4,0.1,0.7,0.3,1c0.2,0.3,0.4,0.5,0.7,0.7
				C29.4,87.7,29.7,87.7,30.1,87.7z"/>
			<path class="st4" d="M36.2,88.4c-0.5,0-1-0.1-1.4-0.3c-0.4-0.2-0.7-0.5-1-0.9c-0.2-0.4-0.3-0.8-0.3-1.3c0-0.5,0.1-0.9,0.3-1.3
				c0.2-0.4,0.6-0.7,1-0.9c0.4-0.2,0.9-0.3,1.4-0.3c0.5,0,1,0.1,1.4,0.3c0.4,0.2,0.7,0.5,1,0.9c0.2,0.4,0.3,0.8,0.3,1.3
				c0,0.5-0.1,0.9-0.3,1.3c-0.2,0.4-0.6,0.7-1,0.9C37.1,88.3,36.7,88.4,36.2,88.4L36.2,88.4z M36.2,87.7c0.4,0,0.7-0.1,1-0.3
				c0.3-0.2,0.5-0.4,0.7-0.7c0.2-0.3,0.3-0.6,0.3-1c0-0.4-0.1-0.7-0.3-1c-0.2-0.3-0.4-0.5-0.7-0.7c-0.3-0.2-0.6-0.3-1-0.3
				s-0.7,0.1-1,0.3c-0.3,0.2-0.5,0.4-0.7,0.7c-0.2,0.3-0.3,0.6-0.3,1s0.1,0.7,0.3,1c0.2,0.3,0.4,0.5,0.7,0.7
				C35.5,87.7,35.8,87.7,36.2,87.7z"/>
			<path class="st4" d="M40.9,83.9h-1.7v-0.6h4.2v0.6h-1.7v4.4h-0.7L40.9,83.9z"/>
		</g>
		<g transform="matrix(.24549 0 0 .24258 -13.1 38.453)">
			<path class="st5" d="M102.2,182c-1.2,0-2.1,0.9-2.1,2.1v20.8c0,1.3,1.2,2.3,2.7,2.3h23.7c1.5,0,2.7-1,2.7-2.3v-17.5
				c0-1.3-1.2-2.3-2.7-2.3h-13c-1.6,0-2.7-3.2-4.3-3.2L102.2,182z"/>
			<path class="st6" d="M105,188.1h23.8c1.5,0,2.5,1,2.4,2.1l-2,14.8c-0.2,1.2-1.5,2.1-2.9,2.1h-23.8c-1.5,0-2.5-1-2.4-2.1l2-14.8
				C102.3,189.1,103.6,188.1,105,188.1z"/>
		</g>
		<g transform="scale(1 .99998)">
			<path class="st4" d="M32.7,94.6c0.4,0,0.7,0.1,1,0.2c0.3,0.2,0.5,0.4,0.7,0.7c0.2,0.3,0.3,0.6,0.3,1s-0.1,0.7-0.3,1
				c-0.2,0.3-0.4,0.5-0.7,0.7c-0.3,0.2-0.6,0.2-1,0.2c-0.3,0-0.5-0.1-0.8-0.2c-0.2-0.1-0.4-0.3-0.6-0.5v2h-0.7v-5.2h0.7v0.6
				c0.2-0.2,0.3-0.4,0.6-0.5C32.1,94.7,32.4,94.6,32.7,94.6L32.7,94.6z M32.6,98c0.2,0,0.5-0.1,0.7-0.2c0.2-0.1,0.4-0.3,0.5-0.5
				c0.1-0.2,0.2-0.4,0.2-0.7s-0.1-0.5-0.2-0.7c-0.1-0.2-0.3-0.4-0.5-0.5c-0.2-0.1-0.4-0.2-0.7-0.2c-0.2,0-0.5,0.1-0.7,0.2
				c-0.2,0.1-0.3,0.3-0.5,0.5c-0.1,0.2-0.2,0.4-0.2,0.7s0.1,0.5,0.2,0.7c0.1,0.2,0.3,0.4,0.5,0.5C32.2,97.9,32.4,98,32.6,98z"/>
			<path class="st4" d="M36.9,94.6c0.5,0,0.9,0.1,1.2,0.4c0.3,0.3,0.4,0.6,0.4,1.2v2.3h-0.7V98c-0.1,0.2-0.3,0.3-0.5,0.4
				c-0.2,0.1-0.5,0.1-0.8,0.1c-0.4,0-0.8-0.1-1-0.3c-0.3-0.2-0.4-0.5-0.4-0.8c0-0.3,0.1-0.6,0.4-0.8c0.2-0.2,0.6-0.3,1.2-0.3h1.1
				v-0.1c0-0.3-0.1-0.5-0.3-0.7c-0.2-0.2-0.4-0.2-0.8-0.2c-0.2,0-0.4,0-0.7,0.1c-0.2,0.1-0.4,0.2-0.5,0.3l-0.3-0.5
				c0.2-0.2,0.4-0.3,0.7-0.4C36.3,94.7,36.6,94.6,36.9,94.6L36.9,94.6z M36.8,98c0.3,0,0.5-0.1,0.7-0.2c0.2-0.1,0.3-0.3,0.4-0.5
				v-0.5h-1.1c-0.6,0-0.9,0.2-0.9,0.6c0,0.2,0.1,0.3,0.2,0.5C36.3,98,36.5,98,36.8,98z"/>
			<path class="st4" d="M43.6,94.7V98c0,0.7-0.2,1.2-0.5,1.5c-0.3,0.3-0.8,0.5-1.5,0.5c-0.4,0-0.7-0.1-1-0.2
				c-0.3-0.1-0.6-0.2-0.8-0.4l0.3-0.5c0.2,0.2,0.4,0.3,0.7,0.4c0.3,0.1,0.5,0.1,0.8,0.1c0.4,0,0.8-0.1,1-0.3c0.2-0.2,0.3-0.5,0.3-1
				v-0.3c-0.2,0.2-0.4,0.3-0.6,0.4c-0.2,0.1-0.5,0.1-0.8,0.1c-0.4,0-0.7-0.1-1-0.2c-0.3-0.2-0.5-0.4-0.7-0.7c-0.2-0.3-0.3-0.6-0.3-1
				s0.1-0.7,0.3-1c0.2-0.3,0.4-0.5,0.7-0.7c0.3-0.2,0.6-0.2,1-0.2c0.3,0,0.6,0.1,0.8,0.2c0.3,0.1,0.5,0.3,0.6,0.5v-0.6H43.6z
				 M41.6,97.8c0.3,0,0.5-0.1,0.7-0.2c0.2-0.1,0.4-0.3,0.5-0.4c0.1-0.2,0.2-0.4,0.2-0.7c0-0.4-0.1-0.7-0.4-0.9
				c-0.2-0.2-0.6-0.3-0.9-0.3c-0.4,0-0.7,0.1-1,0.3c-0.2,0.2-0.4,0.5-0.4,0.9c0,0.2,0.1,0.5,0.2,0.7c0.1,0.2,0.3,0.3,0.5,0.4
				C41.1,97.7,41.3,97.8,41.6,97.8z"/>
			<path class="st4" d="M48.3,96.6c0,0.1,0,0.1,0,0.2h-3.1c0,0.3,0.2,0.6,0.4,0.8c0.3,0.2,0.6,0.3,0.9,0.3c0.5,0,0.8-0.2,1.1-0.5
				l0.4,0.4c-0.2,0.2-0.4,0.4-0.7,0.5c-0.3,0.1-0.5,0.2-0.9,0.2c-0.4,0-0.8-0.1-1.1-0.2c-0.3-0.2-0.6-0.4-0.7-0.7
				c-0.2-0.3-0.3-0.6-0.3-1c0-0.4,0.1-0.7,0.2-1c0.2-0.3,0.4-0.5,0.7-0.7c0.3-0.2,0.6-0.3,1-0.3c0.4,0,0.7,0.1,1,0.3
				c0.3,0.2,0.5,0.4,0.7,0.7C48.3,95.9,48.3,96.2,48.3,96.6L48.3,96.6z M46.4,95.2c-0.3,0-0.6,0.1-0.8,0.3c-0.2,0.2-0.4,0.5-0.4,0.8
				h2.5c0-0.3-0.2-0.6-0.4-0.8C47.1,95.3,46.8,95.2,46.4,95.2L46.4,95.2z"/>
			<path class="st4" d="M50.4,98.6c-0.3,0-0.6,0-0.9-0.1c-0.3-0.1-0.5-0.2-0.7-0.3l0.3-0.5c0.2,0.1,0.4,0.2,0.6,0.3
				c0.2,0.1,0.5,0.1,0.7,0.1c0.6,0,0.9-0.2,0.9-0.5c0-0.1,0-0.2-0.1-0.3S51.1,97,50.9,97c-0.1,0-0.3-0.1-0.5-0.1
				c-0.3,0-0.6-0.1-0.8-0.2c-0.2-0.1-0.4-0.2-0.5-0.3c-0.1-0.1-0.2-0.4-0.2-0.6c0-0.3,0.1-0.6,0.4-0.8c0.3-0.2,0.7-0.3,1.2-0.3
				c0.3,0,0.5,0,0.8,0.1s0.5,0.1,0.6,0.3l-0.3,0.5c-0.3-0.2-0.7-0.3-1.1-0.3c-0.3,0-0.5,0-0.7,0.1c-0.2,0.1-0.2,0.2-0.2,0.4
				c0,0.1,0,0.2,0.1,0.3c0.1,0.1,0.2,0.1,0.3,0.2c0.1,0,0.3,0.1,0.5,0.1c0.3,0.1,0.6,0.1,0.7,0.2c0.2,0.1,0.4,0.2,0.5,0.3
				s0.2,0.3,0.2,0.6c0,0.3-0.1,0.6-0.4,0.8C51.3,98.5,50.9,98.6,50.4,98.6L50.4,98.6z"/>
		</g>
		<g transform="matrix(.24549 0 0 .24258 -4.9025 48.644)">
			<path class="st5" d="M102.2,182c-1.2,0-2.1,0.9-2.1,2.1v20.8c0,1.3,1.2,2.3,2.7,2.3h23.7c1.5,0,2.7-1,2.7-2.3v-17.5
				c0-1.3-1.2-2.3-2.7-2.3h-13c-1.6,0-2.7-3.2-4.3-3.2L102.2,182z"/>
			<path class="st6" d="M105,188.1h23.8c1.5,0,2.5,1,2.4,2.1l-2,14.8c-0.2,1.2-1.5,2.1-2.9,2.1h-23.8c-1.5,0-2.5-1-2.4-2.1l2-14.8
				C102.3,189.1,103.6,188.1,105,188.1z"/>
		</g>
	</g>
	<g>
		<g transform="scale(1 .99998)">
			<path class="st4" d="M32.7,150.2c0.5,0,0.9,0.1,1.2,0.4c0.3,0.3,0.4,0.7,0.4,1.2v2.2h-0.7V152c0-0.4-0.1-0.7-0.3-0.8
				c-0.2-0.2-0.4-0.3-0.8-0.3c-0.4,0-0.7,0.1-0.9,0.3c-0.2,0.2-0.3,0.5-0.3,0.9v2h-0.7v-3.8h0.7v0.6c0.1-0.2,0.3-0.3,0.6-0.5
				C32.1,150.3,32.4,150.2,32.7,150.2L32.7,150.2z"/>
			<path class="st4" d="M37,150.2c0.5,0,0.9,0.1,1.2,0.4c0.3,0.3,0.4,0.6,0.4,1.2v2.3H38v-0.5c-0.1,0.2-0.3,0.3-0.5,0.4
				c-0.2,0.1-0.5,0.1-0.8,0.1c-0.4,0-0.8-0.1-1-0.3c-0.3-0.2-0.4-0.5-0.4-0.8c0-0.3,0.1-0.6,0.4-0.8c0.2-0.2,0.6-0.3,1.2-0.3h1.1
				v-0.1c0-0.3-0.1-0.5-0.3-0.7c-0.2-0.2-0.4-0.2-0.8-0.2c-0.2,0-0.4,0-0.7,0.1c-0.2,0.1-0.4,0.2-0.5,0.3l-0.3-0.5
				c0.2-0.2,0.4-0.3,0.7-0.4C36.4,150.3,36.7,150.2,37,150.2L37,150.2z M36.8,153.6c0.3,0,0.5-0.1,0.7-0.2c0.2-0.1,0.3-0.3,0.4-0.5
				v-0.5h-1.1c-0.6,0-0.9,0.2-0.9,0.6c0,0.2,0.1,0.3,0.2,0.5S36.6,153.6,36.8,153.6z"/>
			<path class="st4" d="M43.2,150.3l-1.7,3.8h-0.7l-1.7-3.8h0.7l1.3,3.1l1.3-3.1H43.2z"/>
			<path class="st4" d="M43.8,154.2c-0.1,0-0.3,0-0.3-0.1c-0.1-0.1-0.1-0.2-0.1-0.4c0-0.1,0-0.3,0.1-0.3c0.1-0.1,0.2-0.1,0.3-0.1
				c0.1,0,0.2,0,0.3,0.1c0.1,0.1,0.1,0.2,0.1,0.4c0,0.1,0,0.3-0.1,0.4C44,154.1,43.9,154.2,43.8,154.2z"/>
			<path class="st4" d="M46.7,150.2c0.5,0,0.9,0.1,1.2,0.4c0.3,0.3,0.4,0.6,0.4,1.2v2.3h-0.7v-0.5c-0.1,0.2-0.3,0.3-0.5,0.4
				c-0.2,0.1-0.5,0.1-0.8,0.1c-0.4,0-0.8-0.1-1-0.3c-0.3-0.2-0.4-0.5-0.4-0.8c0-0.3,0.1-0.6,0.4-0.8c0.2-0.2,0.6-0.3,1.2-0.3h1.1
				v-0.1c0-0.3-0.1-0.5-0.3-0.7c-0.2-0.2-0.4-0.2-0.8-0.2c-0.2,0-0.4,0-0.7,0.1c-0.2,0.1-0.4,0.2-0.5,0.3l-0.3-0.5
				c0.2-0.2,0.4-0.3,0.7-0.4C46.1,150.3,46.4,150.2,46.7,150.2L46.7,150.2z M46.6,153.6c0.3,0,0.5-0.1,0.7-0.2
				c0.2-0.1,0.3-0.3,0.4-0.5v-0.5h-1.1c-0.6,0-0.9,0.2-0.9,0.6c0,0.2,0.1,0.3,0.2,0.5C46.1,153.6,46.3,153.6,46.6,153.6z"/>
			<path class="st4" d="M53.3,148.7v5.4h-0.7v-0.6c-0.2,0.2-0.3,0.4-0.6,0.5c-0.2,0.1-0.5,0.2-0.8,0.2c-0.4,0-0.7-0.1-1-0.2
				s-0.5-0.4-0.7-0.7c-0.2-0.3-0.2-0.6-0.2-1c0-0.4,0.1-0.7,0.2-1c0.2-0.3,0.4-0.5,0.7-0.7c0.3-0.2,0.6-0.2,1-0.2
				c0.3,0,0.5,0.1,0.8,0.2c0.2,0.1,0.4,0.3,0.6,0.5v-2.1L53.3,148.7z M51.3,153.6c0.2,0,0.5-0.1,0.7-0.2c0.2-0.1,0.4-0.3,0.5-0.5
				c0.1-0.2,0.2-0.4,0.2-0.7c0-0.3-0.1-0.5-0.2-0.7c-0.1-0.2-0.3-0.4-0.5-0.5c-0.2-0.1-0.4-0.2-0.7-0.2c-0.2,0-0.5,0.1-0.7,0.2
				c-0.2,0.1-0.3,0.3-0.5,0.5c-0.1,0.2-0.2,0.4-0.2,0.7c0,0.3,0.1,0.5,0.2,0.7c0.1,0.2,0.3,0.4,0.5,0.5
				C50.9,153.5,51.1,153.6,51.3,153.6z"/>
			<path class="st4" d="M56.3,154.2c-0.4,0-0.7-0.1-1-0.3c-0.3-0.2-0.5-0.4-0.7-0.7c-0.2-0.3-0.3-0.6-0.3-1c0-0.4,0.1-0.7,0.3-1
				c0.2-0.3,0.4-0.5,0.7-0.7c0.3-0.2,0.6-0.3,1-0.3c0.4,0,0.7,0.1,1,0.3c0.3,0.2,0.5,0.4,0.7,0.7c0.2,0.3,0.3,0.6,0.3,1
				c0,0.4-0.1,0.7-0.3,1c-0.2,0.3-0.4,0.5-0.7,0.7C57,154.1,56.6,154.2,56.3,154.2z M56.3,153.6c0.2,0,0.5-0.1,0.7-0.2
				c0.2-0.1,0.4-0.3,0.5-0.5c0.1-0.2,0.2-0.4,0.2-0.7c0-0.3-0.1-0.5-0.2-0.7c-0.1-0.2-0.3-0.4-0.5-0.5c-0.2-0.1-0.4-0.2-0.7-0.2
				c-0.2,0-0.5,0.1-0.7,0.2c-0.2,0.1-0.3,0.3-0.5,0.5c-0.1,0.2-0.2,0.4-0.2,0.7c0,0.3,0.1,0.5,0.2,0.7c0.1,0.2,0.3,0.4,0.5,0.5
				C55.8,153.5,56,153.6,56.3,153.6z"/>
			<path class="st4" d="M60.9,154.2c-0.4,0-0.7-0.1-1-0.3c-0.3-0.2-0.5-0.4-0.7-0.7c-0.2-0.3-0.3-0.6-0.3-1c0-0.4,0.1-0.7,0.3-1
				c0.2-0.3,0.4-0.5,0.7-0.7c0.3-0.2,0.7-0.3,1-0.3c0.3,0,0.7,0.1,0.9,0.2c0.3,0.1,0.5,0.3,0.6,0.6l-0.5,0.3
				c-0.1-0.2-0.3-0.3-0.4-0.4c-0.2-0.1-0.4-0.1-0.6-0.1c-0.3,0-0.5,0.1-0.7,0.2c-0.2,0.1-0.4,0.3-0.5,0.5c-0.1,0.2-0.2,0.4-0.2,0.7
				c0,0.3,0.1,0.5,0.2,0.7c0.1,0.2,0.3,0.4,0.5,0.5c0.2,0.1,0.4,0.2,0.7,0.2c0.2,0,0.4,0,0.6-0.1s0.3-0.2,0.4-0.4l0.5,0.3
				c-0.1,0.3-0.4,0.5-0.6,0.6C61.5,154.1,61.2,154.2,60.9,154.2L60.9,154.2z"/>
		</g>
		<path class="st1" d="M21.1,146.9c-0.3,0-0.5,0.3-0.5,0.8v6.1c0,0.4,0.2,0.8,0.5,0.8h4.9c0.3,0,0.5-0.3,0.5-0.8v-5.7
			c-0.9,0.2-1.3-0.3-1.2-1.2L21.1,146.9z"/>
	</g>
	<g>
		<path class="st2" d="M25.3,146.9l1.1,1.2"/>
		<g>
			<path class="st3" d="M21.4,148.9h3.1"/>
			<path class="st3" d="M22,149.9h1.5"/>
			<path class="st3" d="M22,150.9h1.5"/>
			<path class="st3" d="M22,151.9h1.5"/>
			<path class="st3" d="M22,152.8h1.5"/>
		</g>
	</g>
	<g>
		<g transform="scale(1 .99998)">
			<path class="st4" d="M38.2,109.5h3.6v0.4h-3.6V109.5z"/>
			<path class="st4" d="M44.5,105.6c0.4,0,0.7,0.1,1,0.2s0.5,0.4,0.7,0.7c0.2,0.3,0.3,0.6,0.3,1s-0.1,0.7-0.3,1
				c-0.2,0.3-0.4,0.5-0.7,0.7c-0.3,0.2-0.6,0.2-1,0.2c-0.3,0-0.5-0.1-0.8-0.2c-0.2-0.1-0.4-0.3-0.6-0.5v2h-0.7v-5.2h0.7v0.6
				c0.2-0.2,0.3-0.4,0.6-0.5C44,105.7,44.2,105.6,44.5,105.6L44.5,105.6z M44.4,108.9c0.2,0,0.5-0.1,0.7-0.2
				c0.2-0.1,0.4-0.3,0.5-0.5c0.1-0.2,0.2-0.4,0.2-0.7c0-0.3-0.1-0.5-0.2-0.7c-0.1-0.2-0.3-0.4-0.5-0.5c-0.2-0.1-0.4-0.2-0.7-0.2
				c-0.2,0-0.5,0.1-0.7,0.2c-0.2,0.1-0.3,0.3-0.5,0.5c-0.1,0.2-0.2,0.4-0.2,0.7s0.1,0.5,0.2,0.7c0.1,0.2,0.3,0.4,0.5,0.5
				C44,108.9,44.2,108.9,44.4,108.9z"/>
			<path class="st4" d="M48.8,105.6c0.5,0,0.9,0.1,1.2,0.4c0.3,0.3,0.4,0.6,0.4,1.2v2.3h-0.7V109c-0.1,0.2-0.3,0.3-0.5,0.4
				c-0.2,0.1-0.5,0.1-0.8,0.1c-0.4,0-0.8-0.1-1-0.3c-0.3-0.2-0.4-0.5-0.4-0.8c0-0.3,0.1-0.6,0.4-0.8c0.2-0.2,0.6-0.3,1.2-0.3h1.1
				v-0.1c0-0.3-0.1-0.5-0.3-0.7c-0.2-0.2-0.4-0.2-0.8-0.2c-0.2,0-0.4,0-0.7,0.1c-0.2,0.1-0.4,0.2-0.5,0.3l-0.3-0.5
				c0.2-0.2,0.4-0.3,0.7-0.4C48.2,105.7,48.4,105.6,48.8,105.6L48.8,105.6z M48.6,109c0.3,0,0.5-0.1,0.7-0.2
				c0.2-0.1,0.3-0.3,0.4-0.5v-0.5h-1.1c-0.6,0-0.9,0.2-0.9,0.6c0,0.2,0.1,0.3,0.2,0.5C48.1,108.9,48.3,109,48.6,109z"/>
			<path class="st4" d="M52.3,106.3c0.1-0.2,0.3-0.4,0.5-0.5c0.2-0.1,0.5-0.2,0.9-0.2v0.7c0,0-0.1,0-0.2,0c-0.4,0-0.7,0.1-0.9,0.3
				c-0.2,0.2-0.3,0.5-0.3,1v1.9h-0.7v-3.8h0.7L52.3,106.3z"/>
			<path class="st4" d="M56.9,109.3c-0.1,0.1-0.2,0.2-0.4,0.2c-0.1,0-0.3,0.1-0.5,0.1c-0.4,0-0.7-0.1-0.9-0.3
				c-0.2-0.2-0.3-0.5-0.3-0.9v-2.1h-0.7v-0.6h0.7v-0.8h0.7v0.8h1.1v0.6h-1.1v2.1c0,0.2,0.1,0.4,0.2,0.5c0.1,0.1,0.3,0.2,0.4,0.2
				c0.2,0,0.4-0.1,0.5-0.2L56.9,109.3z"/>
			<path class="st4" d="M57.8,105.7h0.7v3.8h-0.7V105.7z M58.1,104.9c-0.1,0-0.2,0-0.3-0.1c-0.1-0.1-0.1-0.2-0.1-0.3
				c0-0.1,0-0.2,0.1-0.3c0.1-0.1,0.2-0.1,0.3-0.1c0.1,0,0.2,0,0.3,0.1c0.1,0.1,0.1,0.2,0.1,0.3c0,0.1,0,0.2-0.1,0.3
				C58.3,104.9,58.2,104.9,58.1,104.9z"/>
			<path class="st4" d="M61.2,105.6c0.5,0,0.9,0.1,1.2,0.4c0.3,0.3,0.4,0.6,0.4,1.2v2.3h-0.7V109c-0.1,0.2-0.3,0.3-0.5,0.4
				c-0.2,0.1-0.5,0.1-0.8,0.1c-0.4,0-0.8-0.1-1-0.3c-0.3-0.2-0.4-0.5-0.4-0.8c0-0.3,0.1-0.6,0.4-0.8c0.2-0.2,0.6-0.3,1.2-0.3h1.1
				v-0.1c0-0.3-0.1-0.5-0.3-0.7c-0.2-0.2-0.4-0.2-0.8-0.2c-0.2,0-0.4,0-0.7,0.1c-0.2,0.1-0.4,0.2-0.5,0.3l-0.3-0.5
				c0.2-0.2,0.4-0.3,0.7-0.4C60.6,105.7,60.9,105.6,61.2,105.6L61.2,105.6z M61,109c0.3,0,0.5-0.1,0.7-0.2c0.2-0.1,0.3-0.3,0.4-0.5
				v-0.5H61c-0.6,0-0.9,0.2-0.9,0.6c0,0.2,0.1,0.3,0.2,0.5S60.7,109,61,109z"/>
			<path class="st4" d="M64.1,104.1h0.7v5.4h-0.7V104.1z"/>
			<path class="st4" d="M67.2,109.5c-0.3,0-0.6,0-0.9-0.1c-0.3-0.1-0.5-0.2-0.7-0.3l0.3-0.5c0.2,0.1,0.4,0.2,0.6,0.3
				c0.2,0.1,0.5,0.1,0.7,0.1c0.6,0,0.9-0.2,0.9-0.5c0-0.1,0-0.2-0.1-0.3s-0.2-0.1-0.3-0.1c-0.1,0-0.3-0.1-0.5-0.1
				c-0.3,0-0.6-0.1-0.8-0.2c-0.2-0.1-0.4-0.2-0.5-0.3c-0.1-0.1-0.2-0.4-0.2-0.6c0-0.3,0.1-0.6,0.4-0.8c0.3-0.2,0.7-0.3,1.2-0.3
				c0.3,0,0.5,0,0.8,0.1c0.3,0.1,0.5,0.1,0.6,0.3l-0.3,0.5c-0.3-0.2-0.7-0.3-1.1-0.3c-0.3,0-0.5,0-0.7,0.1c-0.2,0.1-0.2,0.2-0.2,0.4
				c0,0.1,0,0.2,0.1,0.3s0.2,0.1,0.3,0.2c0.1,0,0.3,0.1,0.5,0.1c0.3,0.1,0.6,0.1,0.7,0.2c0.2,0.1,0.4,0.2,0.5,0.3
				c0.1,0.1,0.2,0.3,0.2,0.6c0,0.3-0.1,0.6-0.4,0.8C68.1,109.4,67.7,109.5,67.2,109.5L67.2,109.5z"/>
		</g>
		<g transform="matrix(.24549 0 0 .24258 3.2952 59.609)">
			<path class="st5" d="M102.2,182c-1.2,0-2.1,0.9-2.1,2.1v20.8c0,1.3,1.2,2.3,2.7,2.3h23.7c1.5,0,2.7-1,2.7-2.3v-17.5
				c0-1.3-1.2-2.3-2.7-2.3h-13c-1.6,0-2.7-3.2-4.3-3.2L102.2,182z"/>
			<path class="st6" d="M105,188.1h23.8c1.5,0,2.5,1,2.4,2.1l-2,14.8c-0.2,1.2-1.5,2.1-2.9,2.1h-23.8c-1.5,0-2.5-1-2.4-2.1l2-14.8
				C102.3,189.1,103.6,188.1,105,188.1z"/>
		</g>
	</g>
	<g>
		<g transform="scale(1 .99998)">
			<path class="st4" d="M23.9,160.4c0.5,0,0.9,0.1,1.2,0.4c0.3,0.3,0.4,0.6,0.4,1.2v2.3h-0.7v-0.5c-0.1,0.2-0.3,0.3-0.5,0.4
				c-0.2,0.1-0.5,0.1-0.8,0.1c-0.4,0-0.8-0.1-1-0.3c-0.3-0.2-0.4-0.5-0.4-0.8c0-0.3,0.1-0.6,0.4-0.8c0.2-0.2,0.6-0.3,1.2-0.3h1.1
				V162c0-0.3-0.1-0.5-0.3-0.7c-0.2-0.2-0.4-0.2-0.8-0.2c-0.2,0-0.4,0-0.7,0.1c-0.2,0.1-0.4,0.2-0.5,0.3l-0.3-0.5
				c0.2-0.2,0.4-0.3,0.7-0.4C23.3,160.5,23.5,160.4,23.9,160.4L23.9,160.4z M23.7,163.8c0.3,0,0.5-0.1,0.7-0.2
				c0.2-0.1,0.3-0.3,0.4-0.5v-0.5h-1.1c-0.6,0-0.9,0.2-0.9,0.6c0,0.2,0.1,0.3,0.2,0.5C23.2,163.8,23.4,163.8,23.7,163.8z"/>
			<path class="st4" d="M26.5,162h1.9v0.6h-1.9V162z"/>
			<path class="st4" d="M34.3,160.4c0.5,0,0.9,0.1,1.1,0.4c0.3,0.3,0.4,0.7,0.4,1.2v2.2h-0.7v-2.1c0-0.4-0.1-0.7-0.3-0.8
				c-0.2-0.2-0.4-0.3-0.7-0.3c-0.4,0-0.6,0.1-0.8,0.3c-0.2,0.2-0.3,0.5-0.3,0.9v2h-0.7v-2.1c0-0.4-0.1-0.7-0.3-0.8
				c-0.2-0.2-0.4-0.3-0.7-0.3c-0.4,0-0.6,0.1-0.8,0.3c-0.2,0.2-0.3,0.5-0.3,0.9v2h-0.7v-3.8h0.7v0.6c0.1-0.2,0.3-0.3,0.5-0.4
				c0.2-0.1,0.5-0.2,0.8-0.2c0.3,0,0.6,0.1,0.8,0.2s0.4,0.3,0.5,0.5c0.1-0.2,0.3-0.4,0.6-0.5C33.7,160.5,34,160.4,34.3,160.4
				L34.3,160.4z"/>
			<path class="st4" d="M38.9,164.3c-0.4,0-0.7-0.1-1-0.3c-0.3-0.2-0.5-0.4-0.7-0.7c-0.2-0.3-0.3-0.6-0.3-1c0-0.4,0.1-0.7,0.3-1
				c0.2-0.3,0.4-0.5,0.7-0.7c0.3-0.2,0.6-0.3,1-0.3c0.4,0,0.7,0.1,1,0.3c0.3,0.2,0.5,0.4,0.7,0.7c0.2,0.3,0.3,0.6,0.3,1
				c0,0.4-0.1,0.7-0.3,1c-0.2,0.3-0.4,0.5-0.7,0.7C39.6,164.3,39.2,164.3,38.9,164.3z M38.9,163.7c0.2,0,0.5-0.1,0.7-0.2
				c0.2-0.1,0.4-0.3,0.5-0.5c0.1-0.2,0.2-0.4,0.2-0.7c0-0.3-0.1-0.5-0.2-0.7c-0.1-0.2-0.3-0.4-0.5-0.5c-0.2-0.1-0.4-0.2-0.7-0.2
				c-0.2,0-0.5,0.1-0.7,0.2c-0.2,0.1-0.3,0.3-0.5,0.5c-0.1,0.2-0.2,0.4-0.2,0.7c0,0.3,0.1,0.5,0.2,0.7c0.1,0.2,0.3,0.4,0.5,0.5
				C38.4,163.7,38.6,163.7,38.9,163.7z"/>
			<path class="st4" d="M45.4,158.9v5.4h-0.7v-0.6c-0.2,0.2-0.3,0.4-0.6,0.5c-0.2,0.1-0.5,0.2-0.8,0.2c-0.4,0-0.7-0.1-1-0.2
				c-0.3-0.2-0.5-0.4-0.7-0.7c-0.2-0.3-0.2-0.6-0.2-1s0.1-0.7,0.2-1c0.2-0.3,0.4-0.5,0.7-0.7s0.6-0.2,1-0.2c0.3,0,0.5,0.1,0.8,0.2
				c0.2,0.1,0.4,0.3,0.6,0.5v-2.1L45.4,158.9z M43.4,163.7c0.2,0,0.5-0.1,0.7-0.2c0.2-0.1,0.4-0.3,0.5-0.5c0.1-0.2,0.2-0.4,0.2-0.7
				s-0.1-0.5-0.2-0.7c-0.1-0.2-0.3-0.4-0.5-0.5c-0.2-0.1-0.4-0.2-0.7-0.2c-0.2,0-0.5,0.1-0.7,0.2c-0.2,0.1-0.3,0.3-0.5,0.5
				c-0.1,0.2-0.2,0.4-0.2,0.7s0.1,0.5,0.2,0.7c0.1,0.2,0.3,0.4,0.5,0.5C43,163.7,43.2,163.7,43.4,163.7z"/>
			<path class="st4" d="M50.3,160.5v3.8h-0.7v-0.6c-0.1,0.2-0.3,0.4-0.6,0.5c-0.2,0.1-0.5,0.2-0.7,0.2c-0.5,0-0.9-0.1-1.2-0.4
				c-0.3-0.3-0.4-0.7-0.4-1.3v-2.2h0.7v2.1c0,0.4,0.1,0.7,0.3,0.8c0.2,0.2,0.4,0.3,0.8,0.3c0.4,0,0.7-0.1,0.9-0.3
				c0.2-0.2,0.3-0.5,0.3-0.9v-2L50.3,160.5z"/>
			<path class="st4" d="M51.6,158.9h0.7v5.4h-0.7V158.9z"/>
			<path class="st4" d="M57.1,162.4c0,0.1,0,0.1,0,0.2H54c0,0.3,0.2,0.6,0.4,0.8c0.3,0.2,0.6,0.3,0.9,0.3c0.5,0,0.8-0.2,1.1-0.5
				l0.4,0.4c-0.2,0.2-0.4,0.4-0.7,0.5c-0.3,0.1-0.5,0.2-0.9,0.2c-0.4,0-0.8-0.1-1.1-0.2c-0.3-0.2-0.6-0.4-0.7-0.7
				c-0.2-0.3-0.3-0.6-0.3-1c0-0.4,0.1-0.7,0.2-1c0.2-0.3,0.4-0.5,0.7-0.7c0.3-0.2,0.6-0.3,1-0.3c0.4,0,0.7,0.1,1,0.3
				c0.3,0.2,0.5,0.4,0.7,0.7C57,161.7,57.1,162,57.1,162.4L57.1,162.4z M55.2,161c-0.3,0-0.6,0.1-0.8,0.3c-0.2,0.2-0.4,0.5-0.4,0.8
				h2.5c0-0.3-0.2-0.6-0.4-0.8C55.8,161.1,55.6,161,55.2,161L55.2,161z"/>
		</g>
		<g transform="matrix(.24549 0 0 .24258 -13.1 142.43)">
			<path class="st5" d="M102.2,66.6c-1.2,0-2.1,0.9-2.1,2.1v20.8c0,1.3,1.2,2.3,2.7,2.3h23.7c1.5,0,2.7-1,2.7-2.3V72
				c0-1.3-1.2-2.3-2.7-2.3h-13c-1.6,0-2.7-3.2-4.3-3.2L102.2,66.6z"/>
			<path class="st6" d="M105,72.7h23.8c1.5,0,2.5,1,2.4,2.1l-2,14.8c-0.2,1.2-1.5,2.1-2.9,2.1h-23.8c-1.5,0-2.5-1-2.4-2.1l2-14.8
				C102.3,73.7,103.6,72.7,105,72.7z"/>
		</g>
		<g transform="scale(1 .99998)">
			<path class="st4" d="M32.1,170.6c0.5,0,0.9,0.1,1.2,0.4c0.3,0.3,0.4,0.6,0.4,1.2v2.3H33V174c-0.1,0.2-0.3,0.3-0.5,0.4
				c-0.2,0.1-0.5,0.1-0.8,0.1c-0.4,0-0.8-0.1-1-0.3c-0.3-0.2-0.4-0.5-0.4-0.8c0-0.3,0.1-0.6,0.4-0.8c0.2-0.2,0.6-0.3,1.2-0.3H33
				v-0.1c0-0.3-0.1-0.5-0.3-0.7c-0.2-0.2-0.4-0.2-0.8-0.2c-0.2,0-0.4,0-0.7,0.1c-0.2,0.1-0.4,0.2-0.5,0.3l-0.3-0.5
				c0.2-0.2,0.4-0.3,0.7-0.4C31.5,170.7,31.7,170.6,32.1,170.6L32.1,170.6z M31.9,174c0.3,0,0.5-0.1,0.7-0.2
				c0.2-0.1,0.3-0.3,0.4-0.5v-0.5h-1.1c-0.6,0-0.9,0.2-0.9,0.6c0,0.2,0.1,0.3,0.2,0.5C31.4,174,31.6,174,31.9,174z"/>
			<path class="st4" d="M36.1,174.5c-0.3,0-0.6,0-0.9-0.1c-0.3-0.1-0.5-0.2-0.7-0.3l0.3-0.5c0.2,0.1,0.4,0.2,0.6,0.3
				c0.2,0.1,0.5,0.1,0.7,0.1c0.6,0,0.9-0.2,0.9-0.5c0-0.1,0-0.2-0.1-0.3c-0.1-0.1-0.2-0.1-0.3-0.1c-0.1,0-0.3-0.1-0.5-0.1
				c-0.3,0-0.6-0.1-0.8-0.2c-0.2-0.1-0.4-0.2-0.5-0.3c-0.1-0.1-0.2-0.4-0.2-0.6c0-0.3,0.1-0.6,0.4-0.8c0.3-0.2,0.7-0.3,1.2-0.3
				c0.3,0,0.5,0,0.8,0.1c0.3,0.1,0.5,0.1,0.6,0.3l-0.3,0.5c-0.3-0.2-0.7-0.3-1.1-0.3c-0.3,0-0.5,0-0.7,0.1c-0.2,0.1-0.2,0.2-0.2,0.4
				c0,0.1,0,0.2,0.1,0.3c0.1,0.1,0.2,0.1,0.3,0.2c0.1,0,0.3,0.1,0.5,0.1c0.3,0.1,0.6,0.1,0.7,0.2c0.2,0.1,0.4,0.2,0.5,0.3
				c0.1,0.1,0.2,0.3,0.2,0.6c0,0.3-0.1,0.6-0.4,0.8C37,174.4,36.6,174.5,36.1,174.5L36.1,174.5z"/>
			<path class="st4" d="M39.7,174.5c-0.3,0-0.6,0-0.9-0.1c-0.3-0.1-0.5-0.2-0.7-0.3l0.3-0.5c0.2,0.1,0.4,0.2,0.6,0.3
				c0.2,0.1,0.5,0.1,0.7,0.1c0.6,0,0.9-0.2,0.9-0.5c0-0.1,0-0.2-0.1-0.3c-0.1-0.1-0.2-0.1-0.3-0.1c-0.1,0-0.3-0.1-0.5-0.1
				c-0.3,0-0.6-0.1-0.8-0.2c-0.2-0.1-0.4-0.2-0.5-0.3c-0.1-0.1-0.2-0.4-0.2-0.6c0-0.3,0.1-0.6,0.4-0.8c0.3-0.2,0.7-0.3,1.2-0.3
				c0.3,0,0.5,0,0.8,0.1c0.3,0.1,0.5,0.1,0.6,0.3l-0.3,0.5c-0.3-0.2-0.7-0.3-1.1-0.3c-0.3,0-0.5,0-0.7,0.1c-0.2,0.1-0.2,0.2-0.2,0.4
				c0,0.1,0,0.2,0.1,0.3c0.1,0.1,0.2,0.1,0.3,0.2c0.1,0,0.3,0.1,0.5,0.1c0.3,0.1,0.6,0.1,0.7,0.2c0.2,0.1,0.4,0.2,0.5,0.3
				c0.1,0.1,0.2,0.3,0.2,0.6c0,0.3-0.1,0.6-0.4,0.8C40.6,174.4,40.2,174.5,39.7,174.5L39.7,174.5z"/>
			<path class="st4" d="M45.7,172.6c0,0.1,0,0.1,0,0.2h-3.1c0,0.3,0.2,0.6,0.4,0.8c0.3,0.2,0.6,0.3,0.9,0.3c0.5,0,0.8-0.2,1.1-0.5
				l0.4,0.4c-0.2,0.2-0.4,0.4-0.7,0.5c-0.3,0.1-0.5,0.2-0.9,0.2c-0.4,0-0.8-0.1-1.1-0.2c-0.3-0.2-0.6-0.4-0.7-0.7
				c-0.2-0.3-0.3-0.6-0.3-1c0-0.4,0.1-0.7,0.2-1c0.2-0.3,0.4-0.5,0.7-0.7c0.3-0.2,0.6-0.3,1-0.3c0.4,0,0.7,0.1,1,0.3
				c0.3,0.2,0.5,0.4,0.7,0.7C45.6,171.9,45.7,172.2,45.7,172.6L45.7,172.6z M43.8,171.2c-0.3,0-0.6,0.1-0.8,0.3
				c-0.2,0.2-0.4,0.5-0.4,0.8H45c0-0.3-0.2-0.6-0.4-0.8C44.4,171.3,44.1,171.2,43.8,171.2L43.8,171.2z"/>
			<path class="st4" d="M48.8,174.3c-0.1,0.1-0.2,0.2-0.4,0.2c-0.1,0-0.3,0.1-0.5,0.1c-0.4,0-0.7-0.1-0.9-0.3
				c-0.2-0.2-0.3-0.5-0.3-0.9v-2.1h-0.7v-0.6h0.7v-0.8h0.7v0.8h1.1v0.6h-1.1v2.1c0,0.2,0.1,0.4,0.2,0.5c0.1,0.1,0.3,0.2,0.4,0.2
				c0.2,0,0.4-0.1,0.5-0.2L48.8,174.3z"/>
			<path class="st4" d="M50.8,174.5c-0.3,0-0.6,0-0.9-0.1c-0.3-0.1-0.5-0.2-0.7-0.3l0.3-0.5c0.2,0.1,0.4,0.2,0.6,0.3
				c0.2,0.1,0.5,0.1,0.7,0.1c0.6,0,0.9-0.2,0.9-0.5c0-0.1,0-0.2-0.1-0.3c-0.1-0.1-0.2-0.1-0.3-0.1c-0.1,0-0.3-0.1-0.5-0.1
				c-0.3,0-0.6-0.1-0.8-0.2c-0.2-0.1-0.4-0.2-0.5-0.3c-0.1-0.1-0.2-0.4-0.2-0.6c0-0.3,0.1-0.6,0.4-0.8c0.3-0.2,0.7-0.3,1.2-0.3
				c0.3,0,0.5,0,0.8,0.1c0.3,0.1,0.5,0.1,0.6,0.3l-0.3,0.5c-0.3-0.2-0.7-0.3-1.1-0.3c-0.3,0-0.5,0-0.7,0.1c-0.2,0.1-0.2,0.2-0.2,0.4
				c0,0.1,0,0.2,0.1,0.3c0.1,0.1,0.2,0.1,0.3,0.2c0.1,0,0.3,0.1,0.5,0.1c0.3,0.1,0.6,0.1,0.7,0.2c0.2,0.1,0.4,0.2,0.5,0.3
				c0.1,0.1,0.2,0.3,0.2,0.6c0,0.3-0.1,0.6-0.4,0.8C51.7,174.4,51.3,174.5,50.8,174.5L50.8,174.5z"/>
		</g>
		<g transform="matrix(.24549 0 0 .24258 -4.9025 152.62)">
			<path class="st5" d="M102.2,66.6c-1.2,0-2.1,0.9-2.1,2.1v20.8c0,1.3,1.2,2.3,2.7,2.3h23.7c1.5,0,2.7-1,2.7-2.3V72
				c0-1.3-1.2-2.3-2.7-2.3h-13c-1.6,0-2.7-3.2-4.3-3.2L102.2,66.6z"/>
			<path class="st6" d="M105,72.7h23.8c1.5,0,2.5,1,2.4,2.1l-2,14.8c-0.2,1.2-1.5,2.1-2.9,2.1h-23.8c-1.5,0-2.5-1-2.4-2.1l2-14.8
				C102.3,73.7,103.6,72.7,105,72.7z"/>
		</g>
		<g transform="scale(1 .99998)">
			<path class="st4" d="M34.1,182.8c0,0.1,0,0.1,0,0.2H31c0,0.3,0.2,0.6,0.4,0.8c0.3,0.2,0.6,0.3,0.9,0.3c0.5,0,0.8-0.2,1.1-0.5
				l0.4,0.4c-0.2,0.2-0.4,0.4-0.7,0.5c-0.3,0.1-0.5,0.2-0.9,0.2c-0.4,0-0.8-0.1-1.1-0.2c-0.3-0.2-0.6-0.4-0.7-0.7
				c-0.2-0.3-0.3-0.6-0.3-1c0-0.4,0.1-0.7,0.2-1c0.2-0.3,0.4-0.5,0.7-0.7c0.3-0.2,0.6-0.3,1-0.3c0.4,0,0.7,0.1,1,0.3
				c0.3,0.2,0.5,0.4,0.7,0.7C34,182.1,34.1,182.4,34.1,182.8L34.1,182.8z M32.2,181.4c-0.3,0-0.6,0.1-0.8,0.3
				c-0.2,0.2-0.4,0.5-0.4,0.8h2.5c0-0.3-0.2-0.6-0.4-0.8C32.8,181.5,32.6,181.4,32.2,181.4L32.2,181.4z"/>
			<path class="st4" d="M37.4,184.7l-1.1-1.5l-1.1,1.5h-0.8l1.5-2l-1.4-1.9h0.8l1.1,1.4l1-1.4h0.8l-1.4,1.9l1.5,2H37.4z"/>
			<path class="st4" d="M40.3,180.8c0.5,0,0.9,0.1,1.2,0.4c0.3,0.3,0.4,0.6,0.4,1.2v2.3h-0.7v-0.5c-0.1,0.2-0.3,0.3-0.5,0.4
				c-0.2,0.1-0.5,0.1-0.8,0.1c-0.4,0-0.8-0.1-1-0.3c-0.3-0.2-0.4-0.5-0.4-0.8s0.1-0.6,0.4-0.8c0.2-0.2,0.6-0.3,1.2-0.3h1.1v-0.1
				c0-0.3-0.1-0.5-0.3-0.7c-0.2-0.2-0.4-0.2-0.8-0.2c-0.2,0-0.4,0-0.7,0.1c-0.2,0.1-0.4,0.2-0.5,0.3l-0.3-0.5
				c0.2-0.2,0.4-0.3,0.7-0.4C39.7,180.9,40,180.8,40.3,180.8L40.3,180.8z M40.1,184.2c0.3,0,0.5-0.1,0.7-0.2
				c0.2-0.1,0.3-0.3,0.4-0.5V183h-1.1c-0.6,0-0.9,0.2-0.9,0.6c0,0.2,0.1,0.3,0.2,0.5C39.7,184.1,39.9,184.2,40.1,184.2L40.1,184.2z"
				/>
			<path class="st4" d="M48,180.8c0.5,0,0.9,0.1,1.1,0.4c0.3,0.3,0.4,0.7,0.4,1.2v2.2h-0.7v-2.1c0-0.4-0.1-0.7-0.3-0.8
				c-0.2-0.2-0.4-0.3-0.7-0.3c-0.4,0-0.6,0.1-0.8,0.3c-0.2,0.2-0.3,0.5-0.3,0.9v2H46v-2.1c0-0.4-0.1-0.7-0.3-0.8
				c-0.2-0.2-0.4-0.3-0.7-0.3c-0.4,0-0.6,0.1-0.8,0.3c-0.2,0.2-0.3,0.5-0.3,0.9v2h-0.7v-3.8h0.7v0.6c0.1-0.2,0.3-0.3,0.5-0.4
				c0.2-0.1,0.5-0.2,0.8-0.2c0.3,0,0.6,0.1,0.8,0.2s0.4,0.3,0.5,0.5c0.1-0.2,0.3-0.4,0.6-0.5C47.4,180.9,47.7,180.8,48,180.8
				L48,180.8z"/>
			<path class="st4" d="M52.9,180.8c0.4,0,0.7,0.1,1,0.2c0.3,0.2,0.5,0.4,0.7,0.7c0.2,0.3,0.3,0.6,0.3,1c0,0.4-0.1,0.7-0.3,1
				c-0.2,0.3-0.4,0.5-0.7,0.7c-0.3,0.2-0.6,0.2-1,0.2c-0.3,0-0.5-0.1-0.8-0.2c-0.2-0.1-0.4-0.3-0.6-0.5v2h-0.7v-5.2h0.7v0.6
				c0.2-0.2,0.3-0.4,0.6-0.5C52.3,180.9,52.6,180.8,52.9,180.8L52.9,180.8z M52.8,184.1c0.2,0,0.5-0.1,0.7-0.2
				c0.2-0.1,0.4-0.3,0.5-0.5c0.1-0.2,0.2-0.4,0.2-0.7c0-0.3-0.1-0.5-0.2-0.7c-0.1-0.2-0.3-0.4-0.5-0.5c-0.2-0.1-0.4-0.2-0.7-0.2
				c-0.2,0-0.5,0.1-0.7,0.2c-0.2,0.1-0.3,0.3-0.5,0.5c-0.1,0.2-0.2,0.4-0.2,0.7c0,0.3,0.1,0.5,0.2,0.7c0.1,0.2,0.3,0.4,0.5,0.5
				C52.4,184.1,52.6,184.1,52.8,184.1z"/>
			<path class="st4" d="M55.8,179.3h0.7v5.4h-0.7V179.3z"/>
			<path class="st4" d="M61.3,182.8c0,0.1,0,0.1,0,0.2h-3.1c0,0.3,0.2,0.6,0.4,0.8c0.3,0.2,0.6,0.3,0.9,0.3c0.5,0,0.8-0.2,1.1-0.5
				l0.4,0.4c-0.2,0.2-0.4,0.4-0.7,0.5c-0.3,0.1-0.5,0.2-0.9,0.2c-0.4,0-0.8-0.1-1.1-0.2c-0.3-0.2-0.6-0.4-0.7-0.7
				c-0.2-0.3-0.3-0.6-0.3-1c0-0.4,0.1-0.7,0.2-1c0.2-0.3,0.4-0.5,0.7-0.7c0.3-0.2,0.6-0.3,1-0.3c0.4,0,0.7,0.1,1,0.3
				c0.3,0.2,0.5,0.4,0.7,0.7C61.2,182.1,61.3,182.4,61.3,182.8L61.3,182.8z M59.4,181.4c-0.3,0-0.6,0.1-0.8,0.3
				c-0.2,0.2-0.4,0.5-0.4,0.8h2.5c0-0.3-0.2-0.6-0.4-0.8C60,181.5,59.7,181.4,59.4,181.4L59.4,181.4z"/>
			<path class="st4" d="M63.3,184.7c-0.3,0-0.6,0-0.9-0.1c-0.3-0.1-0.5-0.2-0.7-0.3l0.3-0.5c0.2,0.1,0.4,0.2,0.6,0.3
				c0.2,0.1,0.5,0.1,0.7,0.1c0.6,0,0.9-0.2,0.9-0.5c0-0.1,0-0.2-0.1-0.3s-0.2-0.1-0.3-0.1c-0.1,0-0.3-0.1-0.5-0.1
				c-0.3,0-0.6-0.1-0.8-0.2c-0.2-0.1-0.4-0.2-0.5-0.3c-0.1-0.1-0.2-0.4-0.2-0.6c0-0.3,0.1-0.6,0.4-0.8c0.3-0.2,0.7-0.3,1.2-0.3
				c0.3,0,0.5,0,0.8,0.1s0.5,0.1,0.6,0.3l-0.3,0.5c-0.3-0.2-0.7-0.3-1.1-0.3c-0.3,0-0.5,0-0.7,0.1c-0.2,0.1-0.2,0.2-0.2,0.4
				c0,0.1,0,0.2,0.1,0.3s0.2,0.1,0.3,0.2c0.1,0,0.3,0.1,0.5,0.1c0.3,0.1,0.6,0.1,0.7,0.2c0.2,0.1,0.4,0.2,0.5,0.3
				c0.1,0.1,0.2,0.3,0.2,0.6c0,0.3-0.1,0.6-0.4,0.8C64.2,184.6,63.8,184.7,63.3,184.7L63.3,184.7z"/>
		</g>
		<g transform="matrix(.24549 0 0 .24258 -4.9025 162.8)">
			<path class="st5" d="M102.2,66.6c-1.2,0-2.1,0.9-2.1,2.1v20.8c0,1.3,1.2,2.3,2.7,2.3h23.7c1.5,0,2.7-1,2.7-2.3V72
				c0-1.3-1.2-2.3-2.7-2.3h-13c-1.6,0-2.7-3.2-4.3-3.2L102.2,66.6z"/>
			<path class="st6" d="M105,72.7h23.8c1.5,0,2.5,1,2.4,2.1l-2,14.8c-0.2,1.2-1.5,2.1-2.9,2.1h-23.8c-1.5,0-2.5-1-2.4-2.1l2-14.8
				C102.3,73.7,103.6,72.7,105,72.7z"/>
		</g>
		<path class="st1" d="M5.1,59.8c-0.3,0-0.5,0.3-0.5,0.8v6.1c0,0.4,0.2,0.8,0.5,0.8h4.9c0.3,0,0.5-0.3,0.5-0.8V61
			c-0.9,0.2-1.3-0.3-1.2-1.2L5.1,59.8z"/>
	</g>
	<g>
		<path class="st2" d="M9.3,59.8l1.1,1.2"/>
		<path class="st7" d="M5.8,63.6v-0.2l0.4-0.1L6.3,63l-0.2-0.4l0.3-0.3l0.4,0.2l0.3-0.1l0.1-0.4h0.5l0.1,0.4l0.3,0.1l0.4-0.2
			l0.3,0.3L8.6,63l0.1,0.3l0.4,0.1v0.5L8.8,64l-0.1,0.3l0.2,0.4L8.5,65l-0.4-0.2l-0.3,0.1l-0.1,0.4H7.3l-0.1-0.4l-0.3-0.1L6.5,65
			l-0.3-0.3l0.2-0.4L6.2,64l-0.4-0.1L5.8,63.6z"/>
		<ellipse class="st7" cx="7.5" cy="63.6" rx="0.7" ry="0.7"/>
	</g>
	<g>
		<g transform="scale(1 .99998)">
			<path class="st4" d="M32.7,224.9c0.5,0,0.9,0.1,1.2,0.4c0.3,0.3,0.4,0.7,0.4,1.2v2.2h-0.7v-2.1c0-0.4-0.1-0.7-0.3-0.8
				c-0.2-0.2-0.4-0.3-0.8-0.3c-0.4,0-0.7,0.1-0.9,0.3c-0.2,0.2-0.3,0.5-0.3,0.9v2h-0.7v-3.8h0.7v0.6c0.1-0.2,0.3-0.3,0.6-0.5
				C32.1,225,32.4,224.9,32.7,224.9L32.7,224.9z"/>
			<path class="st4" d="M37,224.9c0.5,0,0.9,0.1,1.2,0.4c0.3,0.3,0.4,0.6,0.4,1.2v2.3H38v-0.5c-0.1,0.2-0.3,0.3-0.5,0.4
				c-0.2,0.1-0.5,0.1-0.8,0.1c-0.4,0-0.8-0.1-1-0.3c-0.3-0.2-0.4-0.5-0.4-0.8c0-0.3,0.1-0.6,0.4-0.8c0.2-0.2,0.6-0.3,1.2-0.3h1.1
				v-0.1c0-0.3-0.1-0.5-0.3-0.7s-0.4-0.2-0.8-0.2c-0.2,0-0.4,0-0.7,0.1c-0.2,0.1-0.4,0.2-0.5,0.3l-0.3-0.5c0.2-0.2,0.4-0.3,0.7-0.4
				C36.4,225,36.7,224.9,37,224.9L37,224.9z M36.8,228.3c0.3,0,0.5-0.1,0.7-0.2c0.2-0.1,0.3-0.3,0.4-0.5v-0.5h-1.1
				c-0.6,0-0.9,0.2-0.9,0.6c0,0.2,0.1,0.3,0.2,0.5C36.4,228.2,36.6,228.3,36.8,228.3z"/>
			<path class="st4" d="M43.2,224.9l-1.7,3.8h-0.7l-1.7-3.8h0.7l1.3,3.1l1.3-3.1H43.2z"/>
			<path class="st4" d="M43.8,228.8c-0.1,0-0.3,0-0.3-0.1c-0.1-0.1-0.1-0.2-0.1-0.4c0-0.1,0-0.3,0.1-0.3c0.1-0.1,0.2-0.1,0.3-0.1
				c0.1,0,0.2,0,0.3,0.1c0.1,0.1,0.1,0.2,0.1,0.4c0,0.1,0,0.3-0.1,0.4C44,228.8,43.9,228.8,43.8,228.8z"/>
			<path class="st4" d="M46.7,224.9c0.5,0,0.9,0.1,1.2,0.4c0.3,0.3,0.4,0.6,0.4,1.2v2.3h-0.7v-0.5c-0.1,0.2-0.3,0.3-0.5,0.4
				c-0.2,0.1-0.5,0.1-0.8,0.1c-0.4,0-0.8-0.1-1-0.3c-0.3-0.2-0.4-0.5-0.4-0.8c0-0.3,0.1-0.6,0.4-0.8c0.2-0.2,0.6-0.3,1.2-0.3h1.1
				v-0.1c0-0.3-0.1-0.5-0.3-0.7c-0.2-0.2-0.4-0.2-0.8-0.2c-0.2,0-0.4,0-0.7,0.1c-0.2,0.1-0.4,0.2-0.5,0.3l-0.3-0.5
				c0.2-0.2,0.4-0.3,0.7-0.4C46.1,225,46.4,224.9,46.7,224.9L46.7,224.9z M46.6,228.3c0.3,0,0.5-0.1,0.7-0.2
				c0.2-0.1,0.3-0.3,0.4-0.5v-0.5h-1.1c-0.6,0-0.9,0.2-0.9,0.6c0,0.2,0.1,0.3,0.2,0.5C46.1,228.2,46.3,228.3,46.6,228.3L46.6,228.3z
				"/>
			<path class="st4" d="M53.3,223.4v5.4h-0.7v-0.6c-0.2,0.2-0.3,0.4-0.6,0.5s-0.5,0.2-0.8,0.2c-0.4,0-0.7-0.1-1-0.2
				s-0.5-0.4-0.7-0.7c-0.2-0.3-0.2-0.6-0.2-1s0.1-0.7,0.2-1c0.2-0.3,0.4-0.5,0.7-0.7s0.6-0.2,1-0.2c0.3,0,0.5,0.1,0.8,0.2
				c0.2,0.1,0.4,0.3,0.6,0.5v-2.1H53.3z M51.3,228.2c0.2,0,0.5-0.1,0.7-0.2c0.2-0.1,0.4-0.3,0.5-0.5c0.1-0.2,0.2-0.4,0.2-0.7
				c0-0.3-0.1-0.5-0.2-0.7c-0.1-0.2-0.3-0.4-0.5-0.5c-0.2-0.1-0.4-0.2-0.7-0.2c-0.2,0-0.5,0.1-0.7,0.2c-0.2,0.1-0.3,0.3-0.5,0.5
				c-0.1,0.2-0.2,0.4-0.2,0.7c0,0.3,0.1,0.5,0.2,0.7c0.1,0.2,0.3,0.4,0.5,0.5C50.9,228.2,51.1,228.2,51.3,228.2z"/>
			<path class="st4" d="M56.3,228.8c-0.4,0-0.7-0.1-1-0.3c-0.3-0.2-0.5-0.4-0.7-0.7c-0.2-0.3-0.3-0.6-0.3-1c0-0.4,0.1-0.7,0.3-1
				c0.2-0.3,0.4-0.5,0.7-0.7c0.3-0.2,0.6-0.3,1-0.3c0.4,0,0.7,0.1,1,0.3c0.3,0.2,0.5,0.4,0.7,0.7c0.2,0.3,0.3,0.6,0.3,1
				c0,0.4-0.1,0.7-0.3,1c-0.2,0.3-0.4,0.5-0.7,0.7C57,228.7,56.6,228.8,56.3,228.8z M56.3,228.2c0.2,0,0.5-0.1,0.7-0.2
				c0.2-0.1,0.4-0.3,0.5-0.5c0.1-0.2,0.2-0.4,0.2-0.7s-0.1-0.5-0.2-0.7c-0.1-0.2-0.3-0.4-0.5-0.5c-0.2-0.1-0.4-0.2-0.7-0.2
				c-0.2,0-0.5,0.1-0.7,0.2c-0.2,0.1-0.3,0.3-0.5,0.5c-0.1,0.2-0.2,0.4-0.2,0.7s0.1,0.5,0.2,0.7c0.1,0.2,0.3,0.4,0.5,0.5
				C55.8,228.2,56,228.2,56.3,228.2z"/>
			<path class="st4" d="M60.9,228.8c-0.4,0-0.7-0.1-1-0.3c-0.3-0.2-0.5-0.4-0.7-0.7c-0.2-0.3-0.3-0.6-0.3-1c0-0.4,0.1-0.7,0.3-1
				c0.2-0.3,0.4-0.5,0.7-0.7c0.3-0.2,0.7-0.3,1-0.3c0.3,0,0.7,0.1,0.9,0.2c0.3,0.1,0.5,0.3,0.6,0.6l-0.5,0.3
				c-0.1-0.2-0.3-0.3-0.4-0.4s-0.4-0.1-0.6-0.1c-0.3,0-0.5,0.1-0.7,0.2c-0.2,0.1-0.4,0.3-0.5,0.5c-0.1,0.2-0.2,0.4-0.2,0.7
				c0,0.3,0.1,0.5,0.2,0.7c0.1,0.2,0.3,0.4,0.5,0.5c0.2,0.1,0.4,0.2,0.7,0.2c0.2,0,0.4,0,0.6-0.1c0.2-0.1,0.3-0.2,0.4-0.4l0.5,0.3
				c-0.1,0.3-0.4,0.5-0.6,0.6C61.5,228.7,61.2,228.8,60.9,228.8z"/>
		</g>
		<path class="st1" d="M21.1,221.5c-0.3,0-0.5,0.3-0.5,0.8v6.1c0,0.4,0.2,0.8,0.5,0.8h4.9c0.3,0,0.5-0.3,0.5-0.8v-5.7
			c-0.9,0.2-1.3-0.3-1.2-1.2L21.1,221.5z"/>
	</g>
	<g>
		<path class="st2" d="M25.3,221.5l1.1,1.2"/>
		<g>
			<path class="st3" d="M21.4,223.6h3.1"/>
			<path class="st3" d="M22,224.6h1.5"/>
			<path class="st3" d="M22,225.5h1.5"/>
			<path class="st3" d="M22,226.5h1.5"/>
			<path class="st3" d="M22,227.5h1.5"/>
		</g>
	</g>
	<g>
		<g transform="scale(1 .99998)">
			<path class="st4" d="M42.4,214.7v3.8h-0.7V218c-0.1,0.2-0.3,0.4-0.6,0.5c-0.2,0.1-0.5,0.2-0.7,0.2c-0.5,0-0.9-0.1-1.2-0.4
				c-0.3-0.3-0.4-0.7-0.4-1.3v-2.2h0.7v2.1c0,0.4,0.1,0.7,0.3,0.8c0.2,0.2,0.4,0.3,0.8,0.3c0.4,0,0.7-0.1,0.9-0.3
				c0.2-0.2,0.3-0.5,0.3-0.9v-2L42.4,214.7z"/>
			<path class="st4" d="M44.9,218.6c-0.3,0-0.6,0-0.9-0.1c-0.3-0.1-0.5-0.2-0.7-0.3l0.3-0.5c0.2,0.1,0.4,0.2,0.6,0.3
				c0.2,0.1,0.5,0.1,0.7,0.1c0.6,0,0.9-0.2,0.9-0.5c0-0.1,0-0.2-0.1-0.3s-0.2-0.1-0.3-0.1c-0.1,0-0.3-0.1-0.5-0.1
				c-0.3,0-0.6-0.1-0.8-0.2c-0.2-0.1-0.4-0.2-0.5-0.3c-0.1-0.1-0.2-0.4-0.2-0.6c0-0.3,0.1-0.6,0.4-0.8c0.3-0.2,0.7-0.3,1.2-0.3
				c0.3,0,0.5,0,0.8,0.1c0.3,0.1,0.5,0.1,0.6,0.3l-0.3,0.5c-0.3-0.2-0.7-0.3-1.1-0.3c-0.3,0-0.5,0-0.7,0.1c-0.2,0.1-0.2,0.2-0.2,0.4
				c0,0.1,0,0.2,0.1,0.3c0.1,0.1,0.2,0.1,0.3,0.2c0.1,0,0.3,0.1,0.5,0.1c0.3,0.1,0.6,0.1,0.7,0.2c0.2,0.1,0.4,0.2,0.5,0.3
				c0.1,0.1,0.2,0.3,0.2,0.6c0,0.3-0.1,0.6-0.4,0.8C45.8,218.5,45.4,218.6,44.9,218.6L44.9,218.6z"/>
			<path class="st4" d="M50.8,216.7c0,0.1,0,0.1,0,0.2h-3.1c0,0.3,0.2,0.6,0.4,0.8c0.3,0.2,0.6,0.3,0.9,0.3c0.5,0,0.8-0.2,1.1-0.5
				l0.4,0.4c-0.2,0.2-0.4,0.4-0.7,0.5c-0.3,0.1-0.5,0.2-0.9,0.2c-0.4,0-0.8-0.1-1.1-0.2c-0.3-0.2-0.6-0.4-0.7-0.7
				c-0.2-0.3-0.3-0.6-0.3-1c0-0.4,0.1-0.7,0.2-1c0.2-0.3,0.4-0.5,0.7-0.7c0.3-0.2,0.6-0.3,1-0.3c0.4,0,0.7,0.1,1,0.3
				c0.3,0.2,0.5,0.4,0.7,0.7C50.8,215.9,50.8,216.3,50.8,216.7L50.8,216.7z M49,215.3c-0.3,0-0.6,0.1-0.8,0.3
				c-0.2,0.2-0.4,0.5-0.4,0.8h2.5c0-0.3-0.2-0.6-0.4-0.8C49.6,215.4,49.3,215.3,49,215.3L49,215.3z"/>
			<path class="st4" d="M52.5,215.4c0.1-0.2,0.3-0.4,0.5-0.5c0.2-0.1,0.5-0.2,0.9-0.2v0.7c0,0-0.1,0-0.2,0c-0.4,0-0.7,0.1-0.9,0.3
				c-0.2,0.2-0.3,0.5-0.3,1v1.9h-0.7v-3.8h0.7L52.5,215.4z"/>
			<path class="st4" d="M54.5,216.3h1.9v0.6h-1.9V216.3z"/>
			<path class="st4" d="M62.3,214.7c0.5,0,0.9,0.1,1.1,0.4c0.3,0.3,0.4,0.7,0.4,1.2v2.2h-0.7v-2.1c0-0.4-0.1-0.7-0.3-0.8
				c-0.2-0.2-0.4-0.3-0.7-0.3c-0.4,0-0.6,0.1-0.8,0.3c-0.2,0.2-0.3,0.5-0.3,0.9v2h-0.7v-2.1c0-0.4-0.1-0.7-0.3-0.8
				c-0.2-0.2-0.4-0.3-0.7-0.3c-0.4,0-0.6,0.1-0.8,0.3c-0.2,0.2-0.3,0.5-0.3,0.9v2h-0.7v-3.8h0.7v0.6c0.1-0.2,0.3-0.3,0.5-0.4
				c0.2-0.1,0.5-0.2,0.8-0.2c0.3,0,0.6,0.1,0.8,0.2c0.2,0.1,0.4,0.3,0.5,0.5c0.1-0.2,0.3-0.4,0.6-0.5
				C61.6,214.7,61.9,214.7,62.3,214.7L62.3,214.7z"/>
			<path class="st4" d="M66.5,214.7c0.5,0,0.9,0.1,1.2,0.4c0.3,0.3,0.4,0.6,0.4,1.2v2.3h-0.7V218c-0.1,0.2-0.3,0.3-0.5,0.4
				c-0.2,0.1-0.5,0.1-0.8,0.1c-0.4,0-0.8-0.1-1-0.3c-0.3-0.2-0.4-0.5-0.4-0.8c0-0.3,0.1-0.6,0.4-0.8c0.2-0.2,0.6-0.3,1.2-0.3h1.1
				v-0.1c0-0.3-0.1-0.5-0.3-0.7c-0.2-0.2-0.4-0.2-0.8-0.2c-0.2,0-0.4,0-0.7,0.1c-0.2,0.1-0.4,0.2-0.5,0.3l-0.3-0.5
				c0.2-0.2,0.4-0.3,0.7-0.4C65.9,214.7,66.2,214.7,66.5,214.7L66.5,214.7z M66.3,218.1c0.3,0,0.5-0.1,0.7-0.2
				c0.2-0.1,0.3-0.3,0.4-0.5v-0.5h-1.1c-0.6,0-0.9,0.2-0.9,0.6c0,0.2,0.1,0.3,0.2,0.5C65.9,218,66.1,218.1,66.3,218.1L66.3,218.1z"
				/>
			<path class="st4" d="M71.5,214.7c0.5,0,0.9,0.1,1.2,0.4c0.3,0.3,0.4,0.7,0.4,1.2v2.2h-0.7v-2.1c0-0.4-0.1-0.7-0.3-0.8
				c-0.2-0.2-0.4-0.3-0.8-0.3c-0.4,0-0.7,0.1-0.9,0.3c-0.2,0.2-0.3,0.5-0.3,0.9v2h-0.7v-3.8h0.7v0.6c0.1-0.2,0.3-0.3,0.6-0.5
				C70.9,214.7,71.2,214.7,71.5,214.7L71.5,214.7z"/>
			<path class="st4" d="M75.8,214.7c0.5,0,0.9,0.1,1.2,0.4c0.3,0.3,0.4,0.6,0.4,1.2v2.3h-0.7V218c-0.1,0.2-0.3,0.3-0.5,0.4
				c-0.2,0.1-0.5,0.1-0.8,0.1c-0.4,0-0.8-0.1-1-0.3c-0.3-0.2-0.4-0.5-0.4-0.8c0-0.3,0.1-0.6,0.4-0.8c0.2-0.2,0.6-0.3,1.2-0.3h1.1
				v-0.1c0-0.3-0.1-0.5-0.3-0.7c-0.2-0.2-0.4-0.2-0.8-0.2c-0.2,0-0.4,0-0.7,0.1c-0.2,0.1-0.4,0.2-0.5,0.3l-0.3-0.5
				c0.2-0.2,0.4-0.3,0.7-0.4C75.2,214.7,75.4,214.7,75.8,214.7L75.8,214.7z M75.6,218.1c0.3,0,0.5-0.1,0.7-0.2
				c0.2-0.1,0.3-0.3,0.4-0.5v-0.5h-1.1c-0.6,0-0.9,0.2-0.9,0.6c0,0.2,0.1,0.3,0.2,0.5C75.1,218,75.3,218.1,75.6,218.1L75.6,218.1z"
				/>
			<path class="st4" d="M82.4,214.7v3.3c0,0.7-0.2,1.2-0.5,1.5c-0.3,0.3-0.8,0.5-1.5,0.5c-0.4,0-0.7-0.1-1-0.2
				c-0.3-0.1-0.6-0.2-0.8-0.4l0.3-0.5c0.2,0.2,0.4,0.3,0.7,0.4c0.3,0.1,0.5,0.1,0.8,0.1c0.4,0,0.8-0.1,1-0.3c0.2-0.2,0.3-0.5,0.3-1
				v-0.3c-0.2,0.2-0.4,0.3-0.6,0.4c-0.2,0.1-0.5,0.1-0.8,0.1c-0.4,0-0.7-0.1-1-0.2c-0.3-0.2-0.5-0.4-0.7-0.7c-0.2-0.3-0.3-0.6-0.3-1
				s0.1-0.7,0.3-1c0.2-0.3,0.4-0.5,0.7-0.7c0.3-0.2,0.6-0.2,1-0.2c0.3,0,0.6,0.1,0.8,0.2c0.3,0.1,0.5,0.3,0.6,0.5v-0.6L82.4,214.7z
				 M80.4,217.8c0.3,0,0.5-0.1,0.7-0.2c0.2-0.1,0.4-0.3,0.5-0.4c0.1-0.2,0.2-0.4,0.2-0.7c0-0.4-0.1-0.7-0.4-0.9
				c-0.2-0.2-0.6-0.3-0.9-0.3c-0.4,0-0.7,0.1-1,0.3c-0.2,0.2-0.4,0.5-0.4,0.9c0,0.2,0.1,0.5,0.2,0.7c0.1,0.2,0.3,0.3,0.5,0.4
				C79.9,217.7,80.1,217.8,80.4,217.8z"/>
			<path class="st4" d="M87.2,216.7c0,0.1,0,0.1,0,0.2H84c0,0.3,0.2,0.6,0.4,0.8c0.3,0.2,0.6,0.3,0.9,0.3c0.5,0,0.8-0.2,1.1-0.5
				l0.4,0.4c-0.2,0.2-0.4,0.4-0.7,0.5c-0.3,0.1-0.5,0.2-0.9,0.2c-0.4,0-0.8-0.1-1.1-0.2c-0.3-0.2-0.6-0.4-0.7-0.7
				c-0.2-0.3-0.3-0.6-0.3-1c0-0.4,0.1-0.7,0.2-1c0.2-0.3,0.4-0.5,0.7-0.7c0.3-0.2,0.6-0.3,1-0.3s0.7,0.1,1,0.3
				c0.3,0.2,0.5,0.4,0.7,0.7C87.1,215.9,87.2,216.3,87.2,216.7L87.2,216.7z M85.3,215.3c-0.3,0-0.6,0.1-0.8,0.3
				c-0.2,0.2-0.4,0.5-0.4,0.8h2.5c0-0.3-0.2-0.6-0.4-0.8C85.9,215.4,85.6,215.3,85.3,215.3L85.3,215.3z"/>
			<path class="st4" d="M92.9,214.7c0.5,0,0.9,0.1,1.1,0.4c0.3,0.3,0.4,0.7,0.4,1.2v2.2h-0.7v-2.1c0-0.4-0.1-0.7-0.3-0.8
				c-0.2-0.2-0.4-0.3-0.7-0.3c-0.4,0-0.6,0.1-0.8,0.3c-0.2,0.2-0.3,0.5-0.3,0.9v2h-0.7v-2.1c0-0.4-0.1-0.7-0.3-0.8
				c-0.2-0.2-0.4-0.3-0.7-0.3c-0.4,0-0.6,0.1-0.8,0.3c-0.2,0.2-0.3,0.5-0.3,0.9v2h-0.7v-3.8h0.7v0.6c0.1-0.2,0.3-0.3,0.5-0.4
				c0.2-0.1,0.5-0.2,0.8-0.2c0.3,0,0.6,0.1,0.8,0.2c0.2,0.1,0.4,0.3,0.5,0.5c0.1-0.2,0.3-0.4,0.6-0.5
				C92.3,214.7,92.6,214.7,92.9,214.7L92.9,214.7z"/>
			<path class="st4" d="M99.2,216.7c0,0.1,0,0.1,0,0.2h-3.1c0,0.3,0.2,0.6,0.4,0.8c0.3,0.2,0.6,0.3,0.9,0.3c0.5,0,0.8-0.2,1.1-0.5
				L99,218c-0.2,0.2-0.4,0.4-0.7,0.5c-0.3,0.1-0.5,0.2-0.9,0.2c-0.4,0-0.8-0.1-1.1-0.2c-0.3-0.2-0.6-0.4-0.7-0.7
				c-0.2-0.3-0.3-0.6-0.3-1c0-0.4,0.1-0.7,0.2-1c0.2-0.3,0.4-0.5,0.7-0.7c0.3-0.2,0.6-0.3,1-0.3c0.4,0,0.7,0.1,1,0.3
				c0.3,0.2,0.5,0.4,0.7,0.7C99.2,215.9,99.2,216.3,99.2,216.7L99.2,216.7z M97.3,215.3c-0.3,0-0.6,0.1-0.8,0.3
				c-0.2,0.2-0.4,0.5-0.4,0.8h2.5c0-0.3-0.2-0.6-0.4-0.8C98,215.4,97.7,215.3,97.3,215.3L97.3,215.3z"/>
			<path class="st4" d="M102.2,214.7c0.5,0,0.9,0.1,1.2,0.4c0.3,0.3,0.4,0.7,0.4,1.2v2.2h-0.7v-2.1c0-0.4-0.1-0.7-0.3-0.8
				c-0.2-0.2-0.4-0.3-0.8-0.3c-0.4,0-0.7,0.1-0.9,0.3c-0.2,0.2-0.3,0.5-0.3,0.9v2h-0.7v-3.8h0.7v0.6c0.1-0.2,0.3-0.3,0.6-0.5
				C101.7,214.7,101.9,214.7,102.2,214.7L102.2,214.7z"/>
			<path class="st4" d="M107.3,218.3c-0.1,0.1-0.2,0.2-0.4,0.2c-0.1,0-0.3,0.1-0.5,0.1c-0.4,0-0.7-0.1-0.9-0.3
				c-0.2-0.2-0.3-0.5-0.3-0.9v-2.1h-0.7v-0.6h0.7v-0.8h0.7v0.8h1.1v0.6h-1.1v2.1c0,0.2,0.1,0.4,0.2,0.5c0.1,0.1,0.3,0.2,0.4,0.2
				c0.2,0,0.4-0.1,0.5-0.2L107.3,218.3z"/>
			<path class="st4" d="M108.4,218.6c-0.1,0-0.3,0-0.3-0.1c-0.1-0.1-0.1-0.2-0.1-0.4c0-0.1,0-0.3,0.1-0.3c0.1-0.1,0.2-0.1,0.3-0.1
				c0.1,0,0.2,0,0.3,0.1c0.1,0.1,0.1,0.2,0.1,0.4s0,0.3-0.1,0.4C108.6,218.5,108.5,218.6,108.4,218.6z"/>
			<path class="st4" d="M111.3,214.7c0.5,0,0.9,0.1,1.2,0.4c0.3,0.3,0.4,0.6,0.4,1.2v2.3h-0.7V218c-0.1,0.2-0.3,0.3-0.5,0.4
				c-0.2,0.1-0.5,0.1-0.8,0.1c-0.4,0-0.8-0.1-1-0.3c-0.3-0.2-0.4-0.5-0.4-0.8c0-0.3,0.1-0.6,0.4-0.8c0.2-0.2,0.6-0.3,1.2-0.3h1.1
				v-0.1c0-0.3-0.1-0.5-0.3-0.7s-0.4-0.2-0.8-0.2c-0.2,0-0.4,0-0.7,0.1c-0.2,0.1-0.4,0.2-0.5,0.3l-0.3-0.5c0.2-0.2,0.4-0.3,0.7-0.4
				C110.7,214.7,111,214.7,111.3,214.7L111.3,214.7z M111.1,218.1c0.3,0,0.5-0.1,0.7-0.2c0.2-0.1,0.3-0.3,0.4-0.5v-0.5h-1.1
				c-0.6,0-0.9,0.2-0.9,0.6c0,0.2,0.1,0.3,0.2,0.5C110.7,218,110.9,218.1,111.1,218.1L111.1,218.1z"/>
			<path class="st4" d="M117.9,213.2v5.4h-0.7v-0.6c-0.2,0.2-0.3,0.4-0.6,0.5c-0.2,0.1-0.5,0.2-0.8,0.2c-0.4,0-0.7-0.1-1-0.2
				s-0.5-0.4-0.7-0.7c-0.2-0.3-0.2-0.6-0.2-1c0-0.4,0.1-0.7,0.2-1c0.2-0.3,0.4-0.5,0.7-0.7c0.3-0.2,0.6-0.2,1-0.2
				c0.3,0,0.5,0.1,0.8,0.2c0.2,0.1,0.4,0.3,0.6,0.5v-2.1L117.9,213.2z M115.9,218c0.2,0,0.5-0.1,0.7-0.2c0.2-0.1,0.4-0.3,0.5-0.5
				c0.1-0.2,0.2-0.4,0.2-0.7c0-0.3-0.1-0.5-0.2-0.7c-0.1-0.2-0.3-0.4-0.5-0.5c-0.2-0.1-0.4-0.2-0.7-0.2c-0.2,0-0.5,0.1-0.7,0.2
				c-0.2,0.1-0.3,0.3-0.5,0.5c-0.1,0.2-0.2,0.4-0.2,0.7s0.1,0.5,0.2,0.7c0.1,0.2,0.3,0.4,0.5,0.5C115.4,217.9,115.6,218,115.9,218z"
				/>
			<path class="st4" d="M120.8,218.6c-0.4,0-0.7-0.1-1-0.3c-0.3-0.2-0.5-0.4-0.7-0.7c-0.2-0.3-0.3-0.6-0.3-1c0-0.4,0.1-0.7,0.3-1
				c0.2-0.3,0.4-0.5,0.7-0.7c0.3-0.2,0.6-0.3,1-0.3c0.4,0,0.7,0.1,1,0.3c0.3,0.2,0.5,0.4,0.7,0.7c0.2,0.3,0.3,0.6,0.3,1
				s-0.1,0.7-0.3,1c-0.2,0.3-0.4,0.5-0.7,0.7C121.5,218.5,121.2,218.6,120.8,218.6z M120.8,218c0.2,0,0.5-0.1,0.7-0.2
				c0.2-0.1,0.4-0.3,0.5-0.5c0.1-0.2,0.2-0.4,0.2-0.7c0-0.3-0.1-0.5-0.2-0.7c-0.1-0.2-0.3-0.4-0.5-0.5c-0.2-0.1-0.4-0.2-0.7-0.2
				c-0.2,0-0.5,0.1-0.7,0.2c-0.2,0.1-0.3,0.3-0.5,0.5c-0.1,0.2-0.2,0.4-0.2,0.7c0,0.3,0.1,0.5,0.2,0.7c0.1,0.2,0.3,0.4,0.5,0.5
				C120.4,217.9,120.6,218,120.8,218z"/>
			<path class="st4" d="M125.4,218.6c-0.4,0-0.7-0.1-1-0.3c-0.3-0.2-0.5-0.4-0.7-0.7c-0.2-0.3-0.3-0.6-0.3-1s0.1-0.7,0.3-1
				c0.2-0.3,0.4-0.5,0.7-0.7c0.3-0.2,0.7-0.3,1-0.3c0.3,0,0.7,0.1,0.9,0.2c0.3,0.1,0.5,0.3,0.6,0.6l-0.5,0.3
				c-0.1-0.2-0.3-0.3-0.4-0.4c-0.2-0.1-0.4-0.1-0.6-0.1c-0.3,0-0.5,0.1-0.7,0.2c-0.2,0.1-0.4,0.3-0.5,0.5c-0.1,0.2-0.2,0.4-0.2,0.7
				c0,0.3,0.1,0.5,0.2,0.7c0.1,0.2,0.3,0.4,0.5,0.5c0.2,0.1,0.4,0.2,0.7,0.2c0.2,0,0.4,0,0.6-0.1c0.2-0.1,0.3-0.2,0.4-0.4l0.5,0.3
				c-0.1,0.3-0.4,0.5-0.6,0.6C126.1,218.5,125.8,218.6,125.4,218.6L125.4,218.6z"/>
		</g>
		<g transform="scale(1 .99998)">
			<path class="st4" d="M49.1,118.1c0.4,0,0.7,0.1,1,0.2s0.5,0.4,0.7,0.7c0.2,0.3,0.3,0.6,0.3,1c0,0.4-0.1,0.7-0.3,1
				c-0.2,0.3-0.4,0.5-0.7,0.7c-0.3,0.2-0.6,0.2-1,0.2c-0.3,0-0.5-0.1-0.8-0.2c-0.2-0.1-0.4-0.3-0.6-0.5v2h-0.7v-5.2h0.7v0.6
				c0.2-0.2,0.3-0.4,0.6-0.5C48.5,118.1,48.8,118.1,49.1,118.1L49.1,118.1z M49,121.4c0.2,0,0.5-0.1,0.7-0.2
				c0.2-0.1,0.4-0.3,0.5-0.5c0.1-0.2,0.2-0.4,0.2-0.7s-0.1-0.5-0.2-0.7c-0.1-0.2-0.3-0.4-0.5-0.5c-0.2-0.1-0.4-0.2-0.7-0.2
				c-0.2,0-0.5,0.1-0.7,0.2c-0.2,0.1-0.3,0.3-0.5,0.5c-0.1,0.2-0.2,0.4-0.2,0.7c0,0.3,0.1,0.5,0.2,0.7c0.1,0.2,0.3,0.4,0.5,0.5
				C48.6,121.3,48.8,121.4,49,121.4z"/>
			<path class="st4" d="M52,116.6h0.7v5.4H52V116.6z"/>
			<path class="st4" d="M55.4,118.1c0.5,0,0.9,0.1,1.2,0.4c0.3,0.3,0.4,0.6,0.4,1.2v2.3h-0.7v-0.5c-0.1,0.2-0.3,0.3-0.5,0.4
				c-0.2,0.1-0.5,0.1-0.8,0.1c-0.4,0-0.8-0.1-1-0.3c-0.3-0.2-0.4-0.5-0.4-0.8s0.1-0.6,0.4-0.8c0.2-0.2,0.6-0.3,1.2-0.3h1.1v-0.1
				c0-0.3-0.1-0.5-0.3-0.7c-0.2-0.2-0.4-0.2-0.8-0.2c-0.2,0-0.4,0-0.7,0.1c-0.2,0.1-0.4,0.2-0.5,0.3l-0.3-0.5
				c0.2-0.2,0.4-0.3,0.7-0.4C54.8,118.1,55.1,118.1,55.4,118.1L55.4,118.1z M55.2,121.4c0.3,0,0.5-0.1,0.7-0.2
				c0.2-0.1,0.3-0.3,0.4-0.5v-0.5h-1.1c-0.6,0-0.9,0.2-0.9,0.6c0,0.2,0.1,0.3,0.2,0.5C54.8,121.4,55,121.4,55.2,121.4z"/>
			<path class="st4" d="M60.5,121.7c-0.1,0.1-0.2,0.2-0.4,0.2c-0.1,0-0.3,0.1-0.5,0.1c-0.4,0-0.7-0.1-0.9-0.3
				c-0.2-0.2-0.3-0.5-0.3-0.9v-2.1h-0.7v-0.6h0.7v-0.8h0.7v0.8h1.1v0.6h-1.1v2.1c0,0.2,0.1,0.4,0.2,0.5c0.1,0.1,0.3,0.2,0.4,0.2
				c0.2,0,0.4-0.1,0.5-0.2L60.5,121.7z"/>
			<path class="st4" d="M62.7,117.1c-0.4,0-0.6,0.2-0.6,0.7v0.3h1.1v0.6h-1.1v3.3h-0.7v-3.3h-0.7v-0.6h0.7v-0.3
				c0-0.4,0.1-0.7,0.3-0.9c0.2-0.2,0.5-0.3,0.9-0.3c0.2,0,0.3,0,0.4,0.1c0.1,0,0.3,0.1,0.3,0.2l-0.2,0.5
				C63.1,117.2,62.9,117.1,62.7,117.1L62.7,117.1z"/>
			<path class="st4" d="M65.5,122c-0.4,0-0.7-0.1-1-0.3c-0.3-0.2-0.5-0.4-0.7-0.7c-0.2-0.3-0.3-0.6-0.3-1c0-0.4,0.1-0.7,0.3-1
				c0.2-0.3,0.4-0.5,0.7-0.7c0.3-0.2,0.6-0.3,1-0.3c0.4,0,0.7,0.1,1,0.3c0.3,0.2,0.5,0.4,0.7,0.7c0.2,0.3,0.3,0.6,0.3,1
				c0,0.4-0.1,0.7-0.3,1c-0.2,0.3-0.4,0.5-0.7,0.7C66.2,121.9,65.8,122,65.5,122z M65.5,121.4c0.2,0,0.5-0.1,0.7-0.2
				c0.2-0.1,0.4-0.3,0.5-0.5c0.1-0.2,0.2-0.4,0.2-0.7s-0.1-0.5-0.2-0.7c-0.1-0.2-0.3-0.4-0.5-0.5c-0.2-0.1-0.4-0.2-0.7-0.2
				s-0.5,0.1-0.7,0.2c-0.2,0.1-0.3,0.3-0.5,0.5c-0.1,0.2-0.2,0.4-0.2,0.7s0.1,0.5,0.2,0.7c0.1,0.2,0.3,0.4,0.5,0.5
				C65,121.3,65.2,121.4,65.5,121.4z"/>
			<path class="st4" d="M69.1,118.8c0.1-0.2,0.3-0.4,0.5-0.5c0.2-0.1,0.5-0.2,0.9-0.2v0.7c0,0-0.1,0-0.2,0c-0.4,0-0.7,0.1-0.9,0.3
				c-0.2,0.2-0.3,0.5-0.3,1v1.9h-0.7v-3.8h0.7L69.1,118.8z"/>
			<path class="st4" d="M76.1,118.1c0.5,0,0.9,0.1,1.1,0.4c0.3,0.3,0.4,0.7,0.4,1.2v2.2H77v-2.1c0-0.4-0.1-0.7-0.3-0.8
				c-0.2-0.2-0.4-0.3-0.7-0.3c-0.4,0-0.6,0.1-0.8,0.3c-0.2,0.2-0.3,0.5-0.3,0.9v2h-0.7v-2.1c0-0.4-0.1-0.7-0.3-0.8
				c-0.2-0.2-0.4-0.3-0.7-0.3c-0.4,0-0.6,0.1-0.8,0.3c-0.2,0.2-0.3,0.5-0.3,0.9v2h-0.7v-3.8H72v0.6c0.1-0.2,0.3-0.3,0.5-0.4
				c0.2-0.1,0.5-0.2,0.8-0.2c0.3,0,0.6,0.1,0.8,0.2s0.4,0.3,0.5,0.5c0.1-0.2,0.3-0.4,0.6-0.5C75.5,118.1,75.8,118.1,76.1,118.1
				L76.1,118.1z"/>
			<path class="st4" d="M78.7,119.7h1.9v0.6h-1.9V119.7z"/>
			<path class="st4" d="M82.8,122c-0.3,0-0.6,0-0.9-0.1c-0.3-0.1-0.5-0.2-0.7-0.3l0.3-0.5c0.2,0.1,0.4,0.2,0.6,0.3
				c0.2,0.1,0.5,0.1,0.7,0.1c0.6,0,0.9-0.2,0.9-0.5c0-0.1,0-0.2-0.1-0.3c-0.1-0.1-0.2-0.1-0.3-0.1c-0.1,0-0.3-0.1-0.5-0.1
				c-0.3,0-0.6-0.1-0.8-0.2c-0.2-0.1-0.4-0.2-0.5-0.3c-0.1-0.1-0.2-0.4-0.2-0.6c0-0.3,0.1-0.6,0.4-0.8c0.3-0.2,0.7-0.3,1.2-0.3
				c0.3,0,0.5,0,0.8,0.1s0.5,0.1,0.6,0.3l-0.3,0.5c-0.3-0.2-0.7-0.3-1.1-0.3c-0.3,0-0.5,0-0.7,0.1c-0.2,0.1-0.2,0.2-0.2,0.4
				c0,0.1,0,0.2,0.1,0.3s0.2,0.1,0.3,0.2c0.1,0,0.3,0.1,0.5,0.1c0.3,0.1,0.6,0.1,0.7,0.2c0.2,0.1,0.4,0.2,0.5,0.3
				c0.1,0.1,0.2,0.3,0.2,0.6c0,0.3-0.1,0.6-0.4,0.8C83.7,121.9,83.3,122,82.8,122L82.8,122z"/>
			<path class="st4" d="M87.5,121.7c-0.1,0.1-0.2,0.2-0.4,0.2c-0.1,0-0.3,0.1-0.5,0.1c-0.4,0-0.7-0.1-0.9-0.3
				c-0.2-0.2-0.3-0.5-0.3-0.9v-2.1h-0.7v-0.6h0.7v-0.8h0.7v0.8h1.1v0.6h-1.1v2.1c0,0.2,0.1,0.4,0.2,0.5c0.1,0.1,0.3,0.2,0.4,0.2
				c0.2,0,0.4-0.1,0.5-0.2L87.5,121.7z"/>
			<path class="st4" d="M89.7,118.1c0.5,0,0.9,0.1,1.2,0.4c0.3,0.3,0.4,0.6,0.4,1.2v2.3h-0.7v-0.5c-0.1,0.2-0.3,0.3-0.5,0.4
				c-0.2,0.1-0.5,0.1-0.8,0.1c-0.4,0-0.8-0.1-1-0.3c-0.3-0.2-0.4-0.5-0.4-0.8c0-0.3,0.1-0.6,0.4-0.8c0.2-0.2,0.6-0.3,1.2-0.3h1.1
				v-0.1c0-0.3-0.1-0.5-0.3-0.7s-0.4-0.2-0.8-0.2c-0.2,0-0.4,0-0.7,0.1c-0.2,0.1-0.4,0.2-0.5,0.3l-0.3-0.5c0.2-0.2,0.4-0.3,0.7-0.4
				C89.1,118.1,89.4,118.1,89.7,118.1L89.7,118.1z M89.6,121.4c0.3,0,0.5-0.1,0.7-0.2c0.2-0.1,0.3-0.3,0.4-0.5v-0.5h-1.1
				c-0.6,0-0.9,0.2-0.9,0.6c0,0.2,0.1,0.3,0.2,0.5C89.1,121.4,89.3,121.4,89.6,121.4z"/>
			<path class="st4" d="M96.4,118.1v3.3c0,0.7-0.2,1.2-0.5,1.5c-0.3,0.3-0.8,0.5-1.5,0.5c-0.4,0-0.7-0.1-1-0.2
				c-0.3-0.1-0.6-0.2-0.8-0.4l0.3-0.5c0.2,0.2,0.4,0.3,0.7,0.4c0.3,0.1,0.5,0.1,0.8,0.1c0.4,0,0.8-0.1,1-0.3c0.2-0.2,0.3-0.5,0.3-1
				v-0.3c-0.2,0.2-0.4,0.3-0.6,0.4c-0.2,0.1-0.5,0.1-0.8,0.1c-0.4,0-0.7-0.1-1-0.2c-0.3-0.2-0.5-0.4-0.7-0.7c-0.2-0.3-0.3-0.6-0.3-1
				s0.1-0.7,0.3-1c0.2-0.3,0.4-0.5,0.7-0.7c0.3-0.2,0.6-0.2,1-0.2c0.3,0,0.6,0.1,0.8,0.2c0.3,0.1,0.5,0.3,0.6,0.5v-0.6H96.4z
				 M94.4,121.2c0.3,0,0.5-0.1,0.7-0.2c0.2-0.1,0.4-0.3,0.5-0.4c0.1-0.2,0.2-0.4,0.2-0.7c0-0.4-0.1-0.7-0.4-0.9
				c-0.2-0.2-0.6-0.3-0.9-0.3c-0.4,0-0.7,0.1-1,0.3c-0.2,0.2-0.4,0.5-0.4,0.9c0,0.2,0.1,0.5,0.2,0.7c0.1,0.2,0.3,0.3,0.5,0.4
				C93.9,121.1,94.1,121.2,94.4,121.2z"/>
			<path class="st4" d="M101.1,120c0,0.1,0,0.1,0,0.2H98c0,0.3,0.2,0.6,0.4,0.8c0.3,0.2,0.6,0.3,0.9,0.3c0.5,0,0.8-0.2,1.1-0.5
				l0.4,0.4c-0.2,0.2-0.4,0.4-0.7,0.5c-0.3,0.1-0.5,0.2-0.9,0.2c-0.4,0-0.8-0.1-1.1-0.2c-0.3-0.2-0.6-0.4-0.7-0.7
				c-0.2-0.3-0.3-0.6-0.3-1c0-0.4,0.1-0.7,0.2-1c0.2-0.3,0.4-0.5,0.7-0.7c0.3-0.2,0.6-0.3,1-0.3s0.7,0.1,1,0.3
				c0.3,0.2,0.5,0.4,0.7,0.7C101.1,119.3,101.1,119.7,101.1,120L101.1,120z M99.2,118.7c-0.3,0-0.6,0.1-0.8,0.3
				c-0.2,0.2-0.4,0.5-0.4,0.8h2.5c0-0.3-0.2-0.6-0.4-0.8C99.9,118.8,99.6,118.7,99.2,118.7L99.2,118.7z"/>
			<path class="st4" d="M103.2,122c-0.3,0-0.6,0-0.9-0.1c-0.3-0.1-0.5-0.2-0.7-0.3l0.3-0.5c0.2,0.1,0.4,0.2,0.6,0.3
				c0.2,0.1,0.5,0.1,0.7,0.1c0.6,0,0.9-0.2,0.9-0.5c0-0.1,0-0.2-0.1-0.3c-0.1-0.1-0.2-0.1-0.3-0.1c-0.1,0-0.3-0.1-0.5-0.1
				c-0.3,0-0.6-0.1-0.8-0.2c-0.2-0.1-0.4-0.2-0.5-0.3c-0.1-0.1-0.2-0.4-0.2-0.6c0-0.3,0.1-0.6,0.4-0.8c0.3-0.2,0.7-0.3,1.2-0.3
				c0.3,0,0.5,0,0.8,0.1c0.3,0.1,0.5,0.1,0.6,0.3l-0.3,0.5c-0.3-0.2-0.7-0.3-1.1-0.3c-0.3,0-0.5,0-0.7,0.1c-0.2,0.1-0.2,0.2-0.2,0.4
				c0,0.1,0,0.2,0.1,0.3c0.1,0.1,0.2,0.1,0.3,0.2c0.1,0,0.3,0.1,0.5,0.1c0.3,0.1,0.6,0.1,0.7,0.2c0.2,0.1,0.4,0.2,0.5,0.3
				c0.1,0.1,0.2,0.3,0.2,0.6c0,0.3-0.1,0.6-0.4,0.8C104.1,121.9,103.7,122,103.2,122L103.2,122z"/>
			<path class="st4" d="M105.9,122c-0.1,0-0.3,0-0.3-0.1c-0.1-0.1-0.1-0.2-0.1-0.4c0-0.1,0-0.3,0.1-0.3c0.1-0.1,0.2-0.1,0.3-0.1
				c0.1,0,0.2,0,0.3,0.1c0.1,0.1,0.1,0.2,0.1,0.4c0,0.1,0,0.3-0.1,0.4C106.1,121.9,106,122,105.9,122z"/>
			<path class="st4" d="M108.8,118.1c0.5,0,0.9,0.1,1.2,0.4c0.3,0.3,0.4,0.6,0.4,1.2v2.3h-0.7v-0.5c-0.1,0.2-0.3,0.3-0.5,0.4
				c-0.2,0.1-0.5,0.1-0.8,0.1c-0.4,0-0.8-0.1-1-0.3c-0.3-0.2-0.4-0.5-0.4-0.8s0.1-0.6,0.4-0.8c0.2-0.2,0.6-0.3,1.2-0.3h1.1v-0.1
				c0-0.3-0.1-0.5-0.3-0.7c-0.2-0.2-0.4-0.2-0.8-0.2c-0.2,0-0.4,0-0.7,0.1c-0.2,0.1-0.4,0.2-0.5,0.3l-0.3-0.5
				c0.2-0.2,0.4-0.3,0.7-0.4C108.2,118.1,108.5,118.1,108.8,118.1L108.8,118.1z M108.7,121.4c0.3,0,0.5-0.1,0.7-0.2
				c0.2-0.1,0.3-0.3,0.4-0.5v-0.5h-1.1c-0.6,0-0.9,0.2-0.9,0.6c0,0.2,0.1,0.3,0.2,0.5C108.2,121.4,108.4,121.4,108.7,121.4z"/>
			<path class="st4" d="M115.4,116.6v5.4h-0.7v-0.6c-0.2,0.2-0.3,0.4-0.6,0.5c-0.2,0.1-0.5,0.2-0.8,0.2c-0.4,0-0.7-0.1-1-0.2
				c-0.3-0.2-0.5-0.4-0.7-0.7c-0.2-0.3-0.2-0.6-0.2-1c0-0.4,0.1-0.7,0.2-1c0.2-0.3,0.4-0.5,0.7-0.7s0.6-0.2,1-0.2
				c0.3,0,0.5,0.1,0.8,0.2c0.2,0.1,0.4,0.3,0.6,0.5v-2.1L115.4,116.6z M113.4,121.4c0.2,0,0.5-0.1,0.7-0.2c0.2-0.1,0.4-0.3,0.5-0.5
				c0.1-0.2,0.2-0.4,0.2-0.7c0-0.3-0.1-0.5-0.2-0.7c-0.1-0.2-0.3-0.4-0.5-0.5c-0.2-0.1-0.4-0.2-0.7-0.2c-0.2,0-0.5,0.1-0.7,0.2
				c-0.2,0.1-0.3,0.3-0.5,0.5c-0.1,0.2-0.2,0.4-0.2,0.7c0,0.3,0.1,0.5,0.2,0.7c0.1,0.2,0.3,0.4,0.5,0.5
				C113,121.3,113.2,121.4,113.4,121.4z"/>
			<path class="st4" d="M118.3,122c-0.4,0-0.7-0.1-1-0.3c-0.3-0.2-0.5-0.4-0.7-0.7c-0.2-0.3-0.3-0.6-0.3-1c0-0.4,0.1-0.7,0.3-1
				c0.2-0.3,0.4-0.5,0.7-0.7c0.3-0.2,0.6-0.3,1-0.3c0.4,0,0.7,0.1,1,0.3c0.3,0.2,0.5,0.4,0.7,0.7c0.2,0.3,0.3,0.6,0.3,1
				c0,0.4-0.1,0.7-0.3,1c-0.2,0.3-0.4,0.5-0.7,0.7C119.1,121.9,118.7,122,118.3,122z M118.3,121.4c0.2,0,0.5-0.1,0.7-0.2
				c0.2-0.1,0.4-0.3,0.5-0.5c0.1-0.2,0.2-0.4,0.2-0.7s-0.1-0.5-0.2-0.7c-0.1-0.2-0.3-0.4-0.5-0.5c-0.2-0.1-0.4-0.2-0.7-0.2
				c-0.2,0-0.5,0.1-0.7,0.2c-0.2,0.1-0.3,0.3-0.5,0.5c-0.1,0.2-0.2,0.4-0.2,0.7c0,0.3,0.1,0.5,0.2,0.7c0.1,0.2,0.3,0.4,0.5,0.5
				C117.9,121.3,118.1,121.4,118.3,121.4z"/>
			<path class="st4" d="M123,122c-0.4,0-0.7-0.1-1-0.3c-0.3-0.2-0.5-0.4-0.7-0.7c-0.2-0.3-0.3-0.6-0.3-1c0-0.4,0.1-0.7,0.3-1
				c0.2-0.3,0.4-0.5,0.7-0.7c0.3-0.2,0.7-0.3,1-0.3c0.3,0,0.7,0.1,0.9,0.2c0.3,0.1,0.5,0.3,0.6,0.6l-0.5,0.3
				c-0.1-0.2-0.3-0.3-0.4-0.4c-0.2-0.1-0.4-0.1-0.6-0.1c-0.3,0-0.5,0.1-0.7,0.2c-0.2,0.1-0.4,0.3-0.5,0.5c-0.1,0.2-0.2,0.4-0.2,0.7
				c0,0.3,0.1,0.5,0.2,0.7c0.1,0.2,0.3,0.4,0.5,0.5c0.2,0.1,0.4,0.2,0.7,0.2c0.2,0,0.4,0,0.6-0.1c0.2-0.1,0.3-0.2,0.4-0.4l0.5,0.3
				c-0.1,0.3-0.4,0.5-0.6,0.6C123.6,121.9,123.3,122,123,122L123,122z"/>
		</g>
		<g transform="scale(1 .99998)">
			<path class="st4" d="M42.5,126.8v5.4h-0.7v-0.6c-0.2,0.2-0.3,0.4-0.6,0.5c-0.2,0.1-0.5,0.2-0.8,0.2c-0.4,0-0.7-0.1-1-0.2
				c-0.3-0.2-0.5-0.4-0.7-0.7c-0.2-0.3-0.2-0.6-0.2-1c0-0.4,0.1-0.7,0.2-1c0.2-0.3,0.4-0.5,0.7-0.7s0.6-0.2,1-0.2
				c0.3,0,0.5,0.1,0.8,0.2c0.2,0.1,0.4,0.3,0.6,0.5v-2.1L42.5,126.8z M40.5,131.6c0.2,0,0.5-0.1,0.7-0.2c0.2-0.1,0.4-0.3,0.5-0.5
				c0.1-0.2,0.2-0.4,0.2-0.7c0-0.3-0.1-0.5-0.2-0.7c-0.1-0.2-0.3-0.4-0.5-0.5c-0.2-0.1-0.4-0.2-0.7-0.2c-0.2,0-0.5,0.1-0.7,0.2
				c-0.2,0.1-0.3,0.3-0.5,0.5c-0.1,0.2-0.2,0.4-0.2,0.7c0,0.3,0.1,0.5,0.2,0.7c0.1,0.2,0.3,0.4,0.5,0.5
				C40,131.5,40.3,131.6,40.5,131.6z"/>
			<path class="st4" d="M47.2,130.3c0,0.1,0,0.1,0,0.2h-3.1c0,0.3,0.2,0.6,0.4,0.8c0.3,0.2,0.6,0.3,0.9,0.3c0.5,0,0.8-0.2,1.1-0.5
				l0.4,0.4c-0.2,0.2-0.4,0.4-0.7,0.5c-0.3,0.1-0.5,0.2-0.9,0.2c-0.4,0-0.8-0.1-1.1-0.2c-0.3-0.2-0.6-0.4-0.7-0.7
				c-0.2-0.3-0.3-0.6-0.3-1c0-0.4,0.1-0.7,0.2-1c0.2-0.3,0.4-0.5,0.7-0.7c0.3-0.2,0.6-0.3,1-0.3s0.7,0.1,1,0.3
				c0.3,0.2,0.5,0.4,0.7,0.7C47.2,129.5,47.2,129.9,47.2,130.3L47.2,130.3z M45.4,128.9c-0.3,0-0.6,0.1-0.8,0.3
				c-0.2,0.2-0.4,0.5-0.4,0.8h2.5c0-0.3-0.2-0.6-0.4-0.8C46,129,45.7,128.9,45.4,128.9L45.4,128.9z"/>
			<path class="st4" d="M50.2,128.3c0.4,0,0.7,0.1,1,0.2s0.5,0.4,0.7,0.7c0.2,0.3,0.3,0.6,0.3,1c0,0.4-0.1,0.7-0.3,1
				c-0.2,0.3-0.4,0.5-0.7,0.7c-0.3,0.2-0.6,0.2-1,0.2c-0.3,0-0.5-0.1-0.8-0.2c-0.2-0.1-0.4-0.3-0.6-0.5v2h-0.7v-5.2h0.7v0.6
				c0.2-0.2,0.3-0.4,0.6-0.5C49.7,128.4,50,128.3,50.2,128.3L50.2,128.3z M50.2,131.6c0.2,0,0.5-0.1,0.7-0.2
				c0.2-0.1,0.4-0.3,0.5-0.5c0.1-0.2,0.2-0.4,0.2-0.7s-0.1-0.5-0.2-0.7c-0.1-0.2-0.3-0.4-0.5-0.5c-0.2-0.1-0.4-0.2-0.7-0.2
				c-0.2,0-0.5,0.1-0.7,0.2c-0.2,0.1-0.3,0.3-0.5,0.5c-0.1,0.2-0.2,0.4-0.2,0.7c0,0.3,0.1,0.5,0.2,0.7c0.1,0.2,0.3,0.4,0.5,0.5
				C49.7,131.5,49.9,131.6,50.2,131.6z"/>
			<path class="st4" d="M53.1,126.8h0.7v5.4h-0.7V126.8z"/>
			<path class="st4" d="M56.8,132.2c-0.4,0-0.7-0.1-1-0.3c-0.3-0.2-0.5-0.4-0.7-0.7c-0.2-0.3-0.3-0.6-0.3-1c0-0.4,0.1-0.7,0.3-1
				c0.2-0.3,0.4-0.5,0.7-0.7c0.3-0.2,0.6-0.3,1-0.3c0.4,0,0.7,0.1,1,0.3c0.3,0.2,0.5,0.4,0.7,0.7c0.2,0.3,0.3,0.6,0.3,1
				c0,0.4-0.1,0.7-0.3,1c-0.2,0.3-0.4,0.5-0.7,0.7C57.5,132.1,57.2,132.2,56.8,132.2z M56.8,131.6c0.2,0,0.5-0.1,0.7-0.2
				c0.2-0.1,0.4-0.3,0.5-0.5c0.1-0.2,0.2-0.4,0.2-0.7c0-0.3-0.1-0.5-0.2-0.7c-0.1-0.2-0.3-0.4-0.5-0.5c-0.2-0.1-0.4-0.2-0.7-0.2
				s-0.5,0.1-0.7,0.2c-0.2,0.1-0.3,0.3-0.5,0.5c-0.1,0.2-0.2,0.4-0.2,0.7c0,0.3,0.1,0.5,0.2,0.7c0.1,0.2,0.3,0.4,0.5,0.5
				C56.3,131.5,56.5,131.6,56.8,131.6z"/>
			<path class="st4" d="M63,128.3l-1.9,4.2c-0.2,0.4-0.4,0.7-0.6,0.8c-0.2,0.2-0.5,0.2-0.8,0.2c-0.2,0-0.4,0-0.5-0.1
				c-0.2-0.1-0.3-0.1-0.4-0.3l0.3-0.5c0.2,0.2,0.4,0.3,0.7,0.3c0.2,0,0.3,0,0.4-0.1c0.1-0.1,0.2-0.2,0.3-0.5l0.1-0.3l-1.7-3.8h0.7
				l1.3,3.1l1.3-3.1L63,128.3z"/>
			<path class="st4" d="M63.6,132.2c-0.1,0-0.3,0-0.3-0.1c-0.1-0.1-0.1-0.2-0.1-0.4c0-0.1,0-0.3,0.1-0.3c0.1-0.1,0.2-0.1,0.3-0.1
				s0.2,0,0.3,0.1c0.1,0.1,0.1,0.2,0.1,0.4c0,0.1,0,0.3-0.1,0.4C63.8,132.2,63.7,132.2,63.6,132.2z"/>
			<path class="st4" d="M66.5,128.3c0.5,0,0.9,0.1,1.2,0.4c0.3,0.3,0.4,0.6,0.4,1.2v2.3h-0.7v-0.5c-0.1,0.2-0.3,0.3-0.5,0.4
				c-0.2,0.1-0.5,0.1-0.8,0.1c-0.4,0-0.8-0.1-1-0.3c-0.3-0.2-0.4-0.5-0.4-0.8c0-0.3,0.1-0.6,0.4-0.8c0.2-0.2,0.6-0.3,1.2-0.3h1.1
				v-0.1c0-0.3-0.1-0.5-0.3-0.7c-0.2-0.2-0.4-0.2-0.8-0.2c-0.2,0-0.4,0-0.7,0.1c-0.2,0.1-0.4,0.2-0.5,0.3l-0.3-0.5
				c0.2-0.2,0.4-0.3,0.7-0.4C65.9,128.3,66.2,128.3,66.5,128.3L66.5,128.3z M66.4,131.7c0.3,0,0.5-0.1,0.7-0.2
				c0.2-0.1,0.3-0.3,0.4-0.5v-0.5h-1.1c-0.6,0-0.9,0.2-0.9,0.6c0,0.2,0.1,0.3,0.2,0.5S66.1,131.7,66.4,131.7z"/>
			<path class="st4" d="M73.1,126.8v5.4h-0.7v-0.6c-0.2,0.2-0.3,0.4-0.6,0.5c-0.2,0.1-0.5,0.2-0.8,0.2c-0.4,0-0.7-0.1-1-0.2
				c-0.3-0.2-0.5-0.4-0.7-0.7c-0.2-0.3-0.2-0.6-0.2-1c0-0.4,0.1-0.7,0.2-1c0.2-0.3,0.4-0.5,0.7-0.7c0.3-0.2,0.6-0.2,1-0.2
				c0.3,0,0.5,0.1,0.8,0.2c0.2,0.1,0.4,0.3,0.6,0.5v-2.1L73.1,126.8z M71.1,131.6c0.2,0,0.5-0.1,0.7-0.2c0.2-0.1,0.4-0.3,0.5-0.5
				c0.1-0.2,0.2-0.4,0.2-0.7c0-0.3-0.1-0.5-0.2-0.7c-0.1-0.2-0.3-0.4-0.5-0.5c-0.2-0.1-0.4-0.2-0.7-0.2c-0.2,0-0.5,0.1-0.7,0.2
				c-0.2,0.1-0.3,0.3-0.5,0.5c-0.1,0.2-0.2,0.4-0.2,0.7c0,0.3,0.1,0.5,0.2,0.7c0.1,0.2,0.3,0.4,0.5,0.5
				C70.7,131.5,70.9,131.6,71.1,131.6z"/>
			<path class="st4" d="M76.1,132.2c-0.4,0-0.7-0.1-1-0.3c-0.3-0.2-0.5-0.4-0.7-0.7c-0.2-0.3-0.3-0.6-0.3-1s0.1-0.7,0.3-1
				c0.2-0.3,0.4-0.5,0.7-0.7c0.3-0.2,0.6-0.3,1-0.3c0.4,0,0.7,0.1,1,0.3c0.3,0.2,0.5,0.4,0.7,0.7c0.2,0.3,0.3,0.6,0.3,1
				s-0.1,0.7-0.3,1c-0.2,0.3-0.4,0.5-0.7,0.7C76.8,132.1,76.4,132.2,76.1,132.2z M76.1,131.6c0.2,0,0.5-0.1,0.7-0.2
				c0.2-0.1,0.4-0.3,0.5-0.5c0.1-0.2,0.2-0.4,0.2-0.7c0-0.3-0.1-0.5-0.2-0.7c-0.1-0.2-0.3-0.4-0.5-0.5c-0.2-0.1-0.4-0.2-0.7-0.2
				s-0.5,0.1-0.7,0.2c-0.2,0.1-0.3,0.3-0.5,0.5c-0.1,0.2-0.2,0.4-0.2,0.7c0,0.3,0.1,0.5,0.2,0.7c0.1,0.2,0.3,0.4,0.5,0.5
				C75.6,131.5,75.8,131.6,76.1,131.6z"/>
			<path class="st4" d="M80.7,132.2c-0.4,0-0.7-0.1-1-0.3c-0.3-0.2-0.5-0.4-0.7-0.7c-0.2-0.3-0.3-0.6-0.3-1s0.1-0.7,0.3-1
				c0.2-0.3,0.4-0.5,0.7-0.7c0.3-0.2,0.7-0.3,1-0.3c0.3,0,0.7,0.1,0.9,0.2c0.3,0.1,0.5,0.3,0.6,0.6l-0.5,0.3
				c-0.1-0.2-0.3-0.3-0.4-0.4c-0.2-0.1-0.4-0.1-0.6-0.1c-0.3,0-0.5,0.1-0.7,0.2c-0.2,0.1-0.4,0.3-0.5,0.5c-0.1,0.2-0.2,0.4-0.2,0.7
				c0,0.3,0.1,0.5,0.2,0.7c0.1,0.2,0.3,0.4,0.5,0.5c0.2,0.1,0.4,0.2,0.7,0.2c0.2,0,0.4,0,0.6-0.1s0.3-0.2,0.4-0.4l0.5,0.3
				c-0.1,0.3-0.4,0.5-0.6,0.6C81.3,132.1,81,132.2,80.7,132.2L80.7,132.2z"/>
		</g>
	</g>
	<path class="st1" d="M29.2,124.9c-0.3,0-0.5,0.3-0.5,0.8v6.1c0,0.4,0.2,0.8,0.5,0.8h4.9c0.3,0,0.5-0.3,0.5-0.8v-5.7
		c-0.9,0.2-1.3-0.3-1.2-1.2L29.2,124.9z"/>
	<g>
		<path class="st2" d="M33.5,124.9l1.1,1.2"/>
		<g>
			<path class="st3" d="M29.6,127h4.1"/>
			<path class="st3" d="M29.6,128h4.1"/>
			<path class="st3" d="M29.6,128.9h2.1"/>
			<path class="st3" d="M29.6,129.9h4.1"/>
			<path class="st3" d="M29.6,130.9h3.1"/>
		</g>
	</g>
	<g>
		<g transform="scale(1 .99998)">
			<path class="st4" d="M38.9,140.8h0.7v3.8h-0.7V140.8z M39.2,140.1c-0.1,0-0.2,0-0.3-0.1c-0.1-0.1-0.1-0.2-0.1-0.3
				c0-0.1,0-0.2,0.1-0.3c0.1-0.1,0.2-0.1,0.3-0.1c0.1,0,0.2,0,0.3,0.1c0.1,0.1,0.1,0.2,0.1,0.3c0,0.1,0,0.2-0.1,0.3
				C39.4,140,39.3,140.1,39.2,140.1L39.2,140.1z"/>
			<path class="st4" d="M42.9,140.8c0.5,0,0.9,0.1,1.2,0.4c0.3,0.3,0.4,0.7,0.4,1.2v2.2h-0.7v-2.1c0-0.4-0.1-0.7-0.3-0.8
				s-0.4-0.3-0.8-0.3c-0.4,0-0.7,0.1-0.9,0.3c-0.2,0.2-0.3,0.5-0.3,0.9v2h-0.7v-3.8h0.7v0.6c0.1-0.2,0.3-0.3,0.6-0.5
				C42.3,140.9,42.6,140.8,42.9,140.8L42.9,140.8z"/>
			<path class="st4" d="M49.4,139.3v5.4h-0.7v-0.6c-0.2,0.2-0.3,0.4-0.6,0.5c-0.2,0.1-0.5,0.2-0.8,0.2c-0.4,0-0.7-0.1-1-0.2
				s-0.5-0.4-0.7-0.7c-0.2-0.3-0.2-0.6-0.2-1c0-0.4,0.1-0.7,0.2-1c0.2-0.3,0.4-0.5,0.7-0.7c0.3-0.2,0.6-0.2,1-0.2
				c0.3,0,0.5,0.1,0.8,0.2c0.2,0.1,0.4,0.3,0.6,0.5v-2.1L49.4,139.3z M47.5,144.1c0.2,0,0.5-0.1,0.7-0.2c0.2-0.1,0.4-0.3,0.5-0.5
				c0.1-0.2,0.2-0.4,0.2-0.7c0-0.3-0.1-0.5-0.2-0.7c-0.1-0.2-0.3-0.4-0.5-0.5c-0.2-0.1-0.4-0.2-0.7-0.2c-0.2,0-0.5,0.1-0.7,0.2
				c-0.2,0.1-0.3,0.3-0.5,0.5c-0.1,0.2-0.2,0.4-0.2,0.7c0,0.3,0.1,0.5,0.2,0.7c0.1,0.2,0.3,0.4,0.5,0.5
				C47,144,47.2,144.1,47.5,144.1z"/>
			<path class="st4" d="M54.2,142.8c0,0.1,0,0.1,0,0.2h-3.1c0,0.3,0.2,0.6,0.4,0.8c0.3,0.2,0.6,0.3,0.9,0.3c0.5,0,0.8-0.2,1.1-0.5
				l0.4,0.4c-0.2,0.2-0.4,0.4-0.7,0.5c-0.3,0.1-0.5,0.2-0.9,0.2c-0.4,0-0.8-0.1-1.1-0.2c-0.3-0.2-0.6-0.4-0.7-0.7
				c-0.2-0.3-0.3-0.6-0.3-1c0-0.4,0.1-0.7,0.2-1c0.2-0.3,0.4-0.5,0.7-0.7c0.3-0.2,0.6-0.3,1-0.3s0.7,0.1,1,0.3
				c0.3,0.2,0.5,0.4,0.7,0.7C54.1,142,54.2,142.4,54.2,142.8L54.2,142.8z M52.3,141.4c-0.3,0-0.6,0.1-0.8,0.3
				c-0.2,0.2-0.4,0.5-0.4,0.8h2.5c0-0.3-0.2-0.6-0.4-0.8C52.9,141.5,52.7,141.4,52.3,141.4L52.3,141.4z"/>
			<path class="st4" d="M57.5,144.7l-1.1-1.5l-1.1,1.5h-0.8l1.5-2l-1.4-1.9h0.8l1.1,1.4l1-1.4h0.8l-1.4,1.9l1.5,2H57.5z"/>
			<path class="st4" d="M59.2,144.7c-0.1,0-0.3,0-0.3-0.1c-0.1-0.1-0.1-0.2-0.1-0.4c0-0.1,0-0.3,0.1-0.3c0.1-0.1,0.2-0.1,0.3-0.1
				c0.1,0,0.2,0,0.3,0.1s0.1,0.2,0.1,0.4c0,0.1,0,0.3-0.1,0.4C59.5,144.7,59.4,144.7,59.2,144.7z"/>
			<path class="st4" d="M62.2,140.8c0.5,0,0.9,0.1,1.2,0.4c0.3,0.3,0.4,0.6,0.4,1.2v2.3h-0.7v-0.5c-0.1,0.2-0.3,0.3-0.5,0.4
				c-0.2,0.1-0.5,0.1-0.8,0.1c-0.4,0-0.8-0.1-1-0.3c-0.3-0.2-0.4-0.5-0.4-0.8s0.1-0.6,0.4-0.8c0.2-0.2,0.6-0.3,1.2-0.3h1.1v-0.1
				c0-0.3-0.1-0.5-0.3-0.7c-0.2-0.2-0.4-0.2-0.8-0.2c-0.2,0-0.4,0-0.7,0.1c-0.2,0.1-0.4,0.2-0.5,0.3l-0.3-0.5
				c0.2-0.2,0.4-0.3,0.7-0.4C61.6,140.8,61.9,140.8,62.2,140.8L62.2,140.8z M62,144.2c0.3,0,0.5-0.1,0.7-0.2
				c0.2-0.1,0.3-0.3,0.4-0.5V143H62c-0.6,0-0.9,0.2-0.9,0.6c0,0.2,0.1,0.3,0.2,0.5C61.5,144.1,61.7,144.2,62,144.2L62,144.2z"/>
			<path class="st4" d="M68.7,139.3v5.4h-0.7v-0.6c-0.2,0.2-0.3,0.4-0.6,0.5c-0.2,0.1-0.5,0.2-0.8,0.2c-0.4,0-0.7-0.1-1-0.2
				s-0.5-0.4-0.7-0.7c-0.2-0.3-0.2-0.6-0.2-1c0-0.4,0.1-0.7,0.2-1c0.2-0.3,0.4-0.5,0.7-0.7c0.3-0.2,0.6-0.2,1-0.2
				c0.3,0,0.5,0.1,0.8,0.2c0.2,0.1,0.4,0.3,0.6,0.5v-2.1L68.7,139.3z M66.8,144.1c0.2,0,0.5-0.1,0.7-0.2c0.2-0.1,0.4-0.3,0.5-0.5
				c0.1-0.2,0.2-0.4,0.2-0.7c0-0.3-0.1-0.5-0.2-0.7c-0.1-0.2-0.3-0.4-0.5-0.5c-0.2-0.1-0.4-0.2-0.7-0.2c-0.2,0-0.5,0.1-0.7,0.2
				c-0.2,0.1-0.3,0.3-0.5,0.5c-0.1,0.2-0.2,0.4-0.2,0.7c0,0.3,0.1,0.5,0.2,0.7c0.1,0.2,0.3,0.4,0.5,0.5
				C66.3,144,66.5,144.1,66.8,144.1z"/>
			<path class="st4" d="M71.7,144.7c-0.4,0-0.7-0.1-1-0.3c-0.3-0.2-0.5-0.4-0.7-0.7c-0.2-0.3-0.3-0.6-0.3-1s0.1-0.7,0.3-1
				c0.2-0.3,0.4-0.5,0.7-0.7c0.3-0.2,0.6-0.3,1-0.3c0.4,0,0.7,0.1,1,0.3c0.3,0.2,0.5,0.4,0.7,0.7c0.2,0.3,0.3,0.6,0.3,1
				s-0.1,0.7-0.3,1c-0.2,0.3-0.4,0.5-0.7,0.7C72.4,144.6,72.1,144.7,71.7,144.7z M71.7,144.1c0.2,0,0.5-0.1,0.7-0.2
				c0.2-0.1,0.4-0.3,0.5-0.5c0.1-0.2,0.2-0.4,0.2-0.7c0-0.3-0.1-0.5-0.2-0.7c-0.1-0.2-0.3-0.4-0.5-0.5c-0.2-0.1-0.4-0.2-0.7-0.2
				s-0.5,0.1-0.7,0.2c-0.2,0.1-0.3,0.3-0.5,0.5c-0.1,0.2-0.2,0.4-0.2,0.7c0,0.3,0.1,0.5,0.2,0.7c0.1,0.2,0.3,0.4,0.5,0.5
				C71.2,144,71.4,144.1,71.7,144.1z"/>
			<path class="st4" d="M76.3,144.7c-0.4,0-0.7-0.1-1-0.3c-0.3-0.2-0.5-0.4-0.7-0.7c-0.2-0.3-0.3-0.6-0.3-1s0.1-0.7,0.3-1
				c0.2-0.3,0.4-0.5,0.7-0.7c0.3-0.2,0.7-0.3,1-0.3c0.3,0,0.7,0.1,0.9,0.2c0.3,0.1,0.5,0.3,0.6,0.6l-0.5,0.3
				c-0.1-0.2-0.3-0.3-0.4-0.4c-0.2-0.1-0.4-0.1-0.6-0.1c-0.3,0-0.5,0.1-0.7,0.2c-0.2,0.1-0.4,0.3-0.5,0.5c-0.1,0.2-0.2,0.4-0.2,0.7
				c0,0.3,0.1,0.5,0.2,0.7c0.1,0.2,0.3,0.4,0.5,0.5c0.2,0.1,0.4,0.2,0.7,0.2c0.2,0,0.4,0,0.6-0.1c0.2-0.1,0.3-0.2,0.4-0.4l0.5,0.3
				c-0.1,0.3-0.4,0.5-0.6,0.6C77,144.6,76.7,144.7,76.3,144.7z"/>
		</g>
		<g transform="scale(1 .99998)">
			<path class="st4" d="M11.7,239c-0.1,0-0.3,0-0.3-0.1c-0.1-0.1-0.1-0.2-0.1-0.4c0-0.1,0-0.3,0.1-0.3c0.1-0.1,0.2-0.1,0.3-0.1
				c0.1,0,0.2,0,0.3,0.1c0.1,0.1,0.1,0.2,0.1,0.4c0,0.1,0,0.3-0.1,0.4C11.9,239,11.8,239,11.7,239z"/>
			<path class="st4" d="M15.3,239c-0.1,0-0.3,0-0.3-0.1c-0.1-0.1-0.1-0.2-0.1-0.4c0-0.1,0-0.3,0.1-0.3c0.1-0.1,0.2-0.1,0.3-0.1
				c0.1,0,0.2,0,0.3,0.1c0.1,0.1,0.1,0.2,0.1,0.4c0,0.1,0,0.3-0.1,0.4C15.5,239,15.4,239,15.3,239z"/>
			<path class="st4" d="M18.9,239c-0.1,0-0.3,0-0.3-0.1c-0.1-0.1-0.1-0.2-0.1-0.4c0-0.1,0-0.3,0.1-0.3c0.1-0.1,0.2-0.1,0.3-0.1
				c0.1,0,0.2,0,0.3,0.1s0.1,0.2,0.1,0.4c0,0.1,0,0.3-0.1,0.4C19.1,239,19,239,18.9,239z"/>
		</g>
		<path class="st1" d="M37.4,114.7c-0.3,0-0.5,0.3-0.5,0.8v6.1c0,0.4,0.2,0.8,0.5,0.8h4.9c0.3,0,0.5-0.3,0.5-0.8v-5.7
			c-0.9,0.2-1.3-0.3-1.2-1.2L37.4,114.7z"/>
	</g>
	<g>
		<path class="st2" d="M41.7,114.7l1.1,1.2"/>
		<g>
			<path class="st3" d="M37.8,116.7h4.1"/>
			<path class="st3" d="M37.8,117.7h4.1"/>
			<path class="st3" d="M37.8,118.7h2.1"/>
			<path class="st3" d="M37.8,119.7h4.1"/>
			<path class="st3" d="M37.8,120.6h3.1"/>
		</g>
	</g>
	<path class="st1" d="M29.2,199.6c-0.3,0-0.5,0.3-0.5,0.8v6.1c0,0.4,0.2,0.8,0.5,0.8h4.9c0.3,0,0.5-0.3,0.5-0.8v-5.7
		c-0.9,0.2-1.3-0.3-1.2-1.2L29.2,199.6z"/>
	<g>
		<path class="st2" d="M33.5,199.6l1.1,1.2"/>
		<g>
			<path class="st3" d="M29.6,201.6h4.1"/>
			<path class="st3" d="M29.6,202.6h4.1"/>
			<path class="st3" d="M29.6,203.6h2.1"/>
			<path class="st3" d="M29.6,204.5h4.1"/>
			<path class="st3" d="M29.6,205.5h3.1"/>
		</g>
	</g>
	<path class="st1" d="M29.2,211.3c-0.3,0-0.5,0.3-0.5,0.8v6.1c0,0.4,0.2,0.8,0.5,0.8h4.9c0.3,0,0.5-0.3,0.5-0.8v-5.7
		c-0.9,0.2-1.3-0.3-1.2-1.2L29.2,211.3z"/>
	<g>
		<path class="st2" d="M33.5,211.3l1.1,1.2"/>
		<g>
			<path class="st3" d="M29.6,213.3h4.1"/>
			<path class="st3" d="M29.6,214.3h4.1"/>
			<path class="st3" d="M29.6,215.3h2.1"/>
			<path class="st3" d="M29.6,216.3h4.1"/>
			<path class="st3" d="M29.6,217.2h3.1"/>
		</g>
	</g>
</g>
</svg>
