<svg version="1.1" viewBox="0 0 127.536 125.193" xmlns="http://www.w3.org/2000/svg" xmlns:cc="http://creativecommons.org/ns#" xmlns:dc="http://purl.org/dc/elements/1.1/" xmlns:rdf="http://www.w3.org/1999/02/22-rdf-syntax-ns#">
<title>Documentation Component ROOT Module</title>
<metadata>
<rdf:RDF>
<cc:Work rdf:about="">
<dc:format>image/svg+xml</dc:format>
<dc:type rdf:resource="http://purl.org/dc/dcmitype/StillImage"/>
<dc:title>Documentation Component ROOT Module</dc:title>
<dc:creator>
<cc:Agent>
<dc:title>Sarah White</dc:title>
</cc:Agent>
</dc:creator>
<dc:publisher>
<cc:Agent>
<dc:title>OpenDevise Inc.</dc:title>
</cc:Agent>
</dc:publisher>
<dc:subject>
<rdf:Bag>
<rdf:li>Antora</rdf:li>
<rdf:li>documentation component</rdf:li>
<rdf:li>ROOT</rdf:li>
<rdf:li>modules</rdf:li>
</rdf:Bag>
</dc:subject>
<cc:license rdf:resource="http://creativecommons.org/licenses/by-sa/4.0/"/>
</cc:Work>
<cc:License rdf:about="http://creativecommons.org/licenses/by-sa/4.0/">
<cc:permits rdf:resource="http://creativecommons.org/ns#Reproduction"/>
<cc:permits rdf:resource="http://creativecommons.org/ns#Distribution"/>
<cc:requires rdf:resource="http://creativecommons.org/ns#Notice"/>
<cc:requires rdf:resource="http://creativecommons.org/ns#Attribution"/>
<cc:permits rdf:resource="http://creativecommons.org/ns#DerivativeWorks"/>
<cc:requires rdf:resource="http://creativecommons.org/ns#ShareAlike"/>
</cc:License>
</rdf:RDF>
</metadata>
<g transform="translate(0 -171.81)">
<rect y="171.81" width="127.54" height="125.19" fill="#fff"/>
<path d="m29.249 254.07c-0.29991 0-0.54149 0.3405-0.54149 0.76344v6.1239c0 0.42294 0.24158 0.76344 0.54149 0.76344h4.872c0.29991 0 0.54149-0.3405 0.54149-0.76344v-5.6564c-0.86502 0.16684-1.2923-0.34032-1.1591-1.2309z" fill="#fff" stroke="#000" stroke-dashoffset="72" stroke-linecap="round" stroke-linejoin="round" stroke-width=".52917"/>
<g fill="none" stroke="#000" stroke-linecap="round">
<path d="m33.521 254.08 1.1164 1.1901" stroke-width=".50271"/>
<g stroke-width=".26458px">
<path d="m29.632 256.12h4.1055"/>
<path d="m29.632 257.09h4.1058"/>
<path d="m29.632 258.07h2.0528"/>
<path d="m29.632 259.04h4.1056"/>
<path d="m29.632 260.02h3.0792"/>
</g>
</g>
<g>
<g transform="scale(1 .99998)" fill="#242424" stroke-width=".0727px" style="font-feature-settings:normal;font-variant-caps:normal;font-variant-ligatures:normal;font-variant-numeric:normal" aria-label="modules">
<path d="m19.058 176.93q0.72298 0 1.1423 0.41933 0.42656 0.41933 0.42656 1.2435v2.2051h-0.69406v-2.1256q0-0.5567-0.26027-0.83866-0.25304-0.28196-0.73021-0.28196-0.52778 0-0.83866 0.33257-0.31088 0.32534-0.31088 0.93988v1.9737h-0.69406v-2.1256q0-0.5567-0.26027-0.83866-0.25304-0.28196-0.73021-0.28196-0.52778 0-0.83866 0.33257-0.31088 0.32534-0.31088 0.93988v1.9737h-0.69406v-3.8318h0.66514v0.57116q0.20966-0.29643 0.54947-0.44825 0.3398-0.15906 0.77359-0.15906 0.44825 0 0.79528 0.18075 0.34703 0.18074 0.53501 0.52778 0.2169-0.33258 0.60008-0.52055 0.39041-0.18798 0.87481-0.18798z" style="font-feature-settings:normal;font-variant-caps:normal;font-variant-ligatures:normal;font-variant-numeric:normal"/>
<path d="m23.574 180.84q-0.57116 0-1.0266-0.25304-0.45548-0.25305-0.71575-0.69407-0.25304-0.44825-0.25304-1.0122 0-0.56393 0.25304-1.005 0.26027-0.44825 0.71575-0.69406 0.45548-0.25305 1.0266-0.25305t1.0194 0.25305q0.45548 0.24581 0.70852 0.69406 0.26027 0.44102 0.26027 1.005 0 0.56392-0.26027 1.0122-0.25304 0.44102-0.70852 0.69407-0.44825 0.25304-1.0194 0.25304zm0-0.6073q0.36872 0 0.65792-0.16629 0.29642-0.17352 0.46271-0.47717 0.16629-0.31088 0.16629-0.70852t-0.16629-0.7013q-0.16629-0.31088-0.46271-0.47717-0.28919-0.16628-0.65792-0.16628-0.36872 0-0.66514 0.16628-0.28919 0.16629-0.46271 0.47717-0.16629 0.30366-0.16629 0.7013t0.16629 0.70852q0.17352 0.30365 0.46271 0.47717 0.29642 0.16629 0.66514 0.16629z" style="font-feature-settings:normal;font-variant-caps:normal;font-variant-ligatures:normal;font-variant-numeric:normal"/>
<path d="m30.137 175.43v5.3645h-0.66514v-0.6073q-0.23135 0.31811-0.58562 0.4844-0.35426 0.16628-0.78082 0.16628-0.5567 0-0.99772-0.24581-0.44102-0.24582-0.69406-0.68684-0.24582-0.44825-0.24582-1.0266 0-0.57839 0.24582-1.0194 0.25304-0.44102 0.69406-0.68683 0.44102-0.24582 0.99772-0.24582 0.4121 0 0.75913 0.15906 0.34703 0.15182 0.57839 0.45548v-2.1111zm-1.9737 4.8006q0.36149 0 0.65792-0.16629 0.29642-0.17352 0.46271-0.47717 0.16629-0.31088 0.16629-0.70852t-0.16629-0.7013q-0.16629-0.31088-0.46271-0.47717-0.29642-0.16628-0.65792-0.16628-0.36872 0-0.66514 0.16628-0.28919 0.16629-0.46271 0.47717-0.16629 0.30366-0.16629 0.7013t0.16629 0.70852q0.17352 0.30365 0.46271 0.47717 0.29642 0.16629 0.66514 0.16629z" style="font-feature-settings:normal;font-variant-caps:normal;font-variant-ligatures:normal;font-variant-numeric:normal"/>
<path d="m35.021 176.96v3.8318h-0.65792v-0.57838q-0.20966 0.29642-0.5567 0.46271-0.3398 0.15905-0.74467 0.15905-0.76636 0-1.2074-0.41933-0.44102-0.42656-0.44102-1.2508v-2.2051h0.69406v2.1256q0 0.5567 0.2675 0.84589 0.2675 0.28197 0.76636 0.28197 0.54947 0 0.86758-0.33258 0.31811-0.33257 0.31811-0.93987v-1.981z" style="font-feature-settings:normal;font-variant-caps:normal;font-variant-ligatures:normal;font-variant-numeric:normal"/>
<path d="m36.35 175.43h0.69406v5.3645h-0.69406z" style="font-feature-settings:normal;font-variant-caps:normal;font-variant-ligatures:normal;font-variant-numeric:normal"/>
<path d="m41.832 178.9q0 0.0795-0.01446 0.20966h-3.1088q0.06507 0.50609 0.44102 0.81697 0.38318 0.30366 0.94711 0.30366 0.68684 0 1.1062-0.46271l0.38318 0.44825q-0.26028 0.30365-0.65069 0.46271-0.38318 0.15905-0.86035 0.15905-0.60731 0-1.0772-0.24581-0.46994-0.25305-0.73021-0.7013-0.25304-0.44825-0.25304-1.0122 0-0.5567 0.24581-1.005 0.25304-0.44825 0.68683-0.69406 0.44102-0.25305 0.99049-0.25305t0.97603 0.25305q0.43379 0.24581 0.67238 0.69406 0.24581 0.44825 0.24581 1.0266zm-1.8942-1.3881q-0.49886 0-0.83866 0.30365-0.33257 0.30365-0.39041 0.79528h2.4581q-0.05784-0.4844-0.39764-0.78805-0.33257-0.31088-0.83143-0.31088z" style="font-feature-settings:normal;font-variant-caps:normal;font-variant-ligatures:normal;font-variant-numeric:normal"/>
<path d="m43.888 180.84q-0.46994 0-0.90373-0.1229-0.43379-0.13014-0.6796-0.32535l0.28919-0.54946q0.25304 0.18074 0.61454 0.28919t0.73021 0.10845q0.91096 0 0.91096-0.52055 0-0.17352-0.12291-0.27474-0.12291-0.10121-0.31088-0.14459-0.18075-0.0506-0.52055-0.10845-0.46271-0.0723-0.75913-0.16629-0.28919-0.094-0.49886-0.31811-0.20967-0.22412-0.20967-0.62899 0-0.52055 0.43379-0.83144 0.43379-0.31811 1.164-0.31811 0.38318 0 0.76636 0.094t0.629 0.25304l-0.29642 0.54947q-0.46994-0.30365-1.1062-0.30365-0.44102 0-0.67237 0.14459-0.23136 0.1446-0.23136 0.38319 0 0.18797 0.13014 0.29642t0.31811 0.15906q0.1952 0.0506 0.54224 0.11567 0.46271 0.0795 0.74467 0.17352 0.28919 0.0868 0.49163 0.30365 0.20244 0.2169 0.20244 0.60731 0 0.52055-0.44825 0.83143-0.44102 0.30365-1.2074 0.30365z" style="font-feature-settings:normal;font-variant-caps:normal;font-variant-ligatures:normal;font-variant-numeric:normal"/>
</g>
<g transform="matrix(.24549 0 0 .24258 -21.298 130.92)" fill="#fff" stroke="#242424" stroke-dashoffset="72" stroke-linecap="round" stroke-linejoin="round">
<path d="m102.18 181.99c-1.171 0-2.1138 0.94403-2.1138 2.1167v20.818c0 1.2782 1.2074 2.3074 2.7073 2.3074h23.69c1.4999 0 2.7073-1.0291 2.7073-2.3074v-17.452c0-1.2782-1.2074-2.3074-2.7073-2.3074h-12.971c-1.5535 0-2.7055-3.175-4.2599-3.175z" stroke-width="2.1684"/>
<rect transform="matrix(1 0 -.13175 .99128 0 0)" x="127.4" y="189.8" width="29.104" height="19.262" rx="2.6456" ry="2.1565" stroke-width="2.178"/>
</g>
<g transform="scale(1 .99998)" fill="#242424" stroke-width=".0727px" style="font-feature-settings:normal;font-variant-caps:normal;font-variant-ligatures:normal;font-variant-numeric:normal" aria-label="ROOT">
<path d="m25.947 190.99-1.0917-1.5544q-0.20244 0.0145-0.31811 0.0145h-1.2508v1.54h-0.72298v-5.0609h1.9737q0.98326 0 1.5472 0.46994t0.56393 1.2941q0 0.58561-0.28919 0.99771-0.28919 0.41211-0.8242 0.60008l1.2002 1.699zm-1.4315-2.1545q0.68683 0 1.0483-0.29642 0.36149-0.29643 0.36149-0.84589 0-0.54947-0.36149-0.83866-0.36149-0.29643-1.0483-0.29643h-1.2291v2.2774z" style="font-feature-settings:normal;font-variant-caps:normal;font-variant-ligatures:normal;font-variant-numeric:normal"/>
<path d="m30.101 191.05q-0.76636 0-1.3809-0.33257-0.61454-0.3398-0.9688-0.93265-0.34703-0.59285-0.34703-1.3231t0.34703-1.3231q0.35426-0.59285 0.9688-0.92542 0.61454-0.3398 1.3809-0.3398 0.75913 0 1.3737 0.3398 0.61454 0.33257 0.96157 0.92542 0.34703 0.58562 0.34703 1.3231t-0.34703 1.3303q-0.34703 0.58562-0.96157 0.92542-0.61454 0.33257-1.3737 0.33257zm0-0.64345q0.5567 0 0.99772-0.25305 0.44825-0.25304 0.70129-0.69406 0.26027-0.44825 0.26027-0.99772t-0.26027-0.99049q-0.25304-0.44825-0.70129-0.70129-0.44102-0.25305-0.99772-0.25305t-1.0122 0.25305q-0.44825 0.25304-0.70852 0.70129-0.25304 0.44102-0.25304 0.99049t0.25304 0.99772q0.26027 0.44102 0.70852 0.69406 0.45548 0.25305 1.0122 0.25305z" style="font-feature-settings:normal;font-variant-caps:normal;font-variant-ligatures:normal;font-variant-numeric:normal"/>
<path d="m36.173 191.05q-0.76636 0-1.3809-0.33257-0.61454-0.3398-0.9688-0.93265-0.34703-0.59285-0.34703-1.3231t0.34703-1.3231q0.35426-0.59285 0.9688-0.92542 0.61454-0.3398 1.3809-0.3398 0.75913 0 1.3737 0.3398 0.61454 0.33257 0.96157 0.92542 0.34703 0.58562 0.34703 1.3231t-0.34703 1.3303q-0.34703 0.58562-0.96157 0.92542-0.61454 0.33257-1.3737 0.33257zm0-0.64345q0.5567 0 0.99772-0.25305 0.44825-0.25304 0.70129-0.69406 0.26027-0.44825 0.26027-0.99772t-0.26027-0.99049q-0.25304-0.44825-0.70129-0.70129-0.44102-0.25305-0.99772-0.25305-0.5567 0-1.0122 0.25305-0.44825 0.25304-0.70852 0.70129-0.25304 0.44102-0.25304 0.99049t0.25304 0.99772q0.26027 0.44102 0.70852 0.69406 0.45548 0.25305 1.0122 0.25305z" style="font-feature-settings:normal;font-variant-caps:normal;font-variant-ligatures:normal;font-variant-numeric:normal"/>
<path d="m40.895 186.56h-1.7352v-0.62899h4.1861v0.62899h-1.7352v4.4319h-0.71575z" style="font-feature-settings:normal;font-variant-caps:normal;font-variant-ligatures:normal;font-variant-numeric:normal"/>
</g>
<g transform="matrix(.24549 0 0 .24258 -13.1 141.11)" fill="#fff" stroke="#242424" stroke-dashoffset="72" stroke-linecap="round" stroke-linejoin="round">
<path d="m102.18 181.99c-1.171 0-2.1138 0.94403-2.1138 2.1167v20.818c0 1.2782 1.2074 2.3074 2.7073 2.3074h23.69c1.4999 0 2.7073-1.0291 2.7073-2.3074v-17.452c0-1.2782-1.2074-2.3074-2.7073-2.3074h-12.971c-1.5535 0-2.7055-3.175-4.2599-3.175z" stroke-width="2.1684"/>
<rect transform="matrix(1 0 -.13175 .99128 0 0)" x="127.4" y="189.8" width="29.104" height="19.262" rx="2.6456" ry="2.1565" stroke-width="2.178"/>
</g>
<g transform="scale(1 .99998)" fill="#242424" stroke-width=".0727px" style="font-feature-settings:normal;font-variant-caps:normal;font-variant-ligatures:normal;font-variant-numeric:normal" aria-label="pages">
<path d="m32.691 197.31q0.5567 0 0.99772 0.24581 0.44102 0.24582 0.68684 0.68684 0.25304 0.44102 0.25304 1.0194 0 0.57839-0.25304 1.0266-0.24582 0.44102-0.68684 0.68683-0.44102 0.24582-0.99772 0.24582-0.4121 0-0.75913-0.15906-0.3398-0.15906-0.57839-0.46271v1.981h-0.69406v-5.2344h0.66514v0.6073q0.23136-0.31811 0.58562-0.47717 0.35426-0.16628 0.78082-0.16628zm-0.05784 3.304q0.36872 0 0.65792-0.16628 0.29642-0.17352 0.46271-0.47717 0.17352-0.31089 0.17352-0.70853t-0.17352-0.70129q-0.16629-0.31088-0.46271-0.47717-0.28919-0.16629-0.65792-0.16629-0.36149 0-0.65792 0.17352-0.28919 0.16628-0.46271 0.46994-0.16629 0.30365-0.16629 0.70129t0.16629 0.70853q0.16629 0.30365 0.46271 0.47717 0.29642 0.16628 0.65792 0.16628z" style="font-feature-settings:normal;font-variant-caps:normal;font-variant-ligatures:normal;font-variant-numeric:normal"/>
<path d="m36.941 197.31q0.79528 0 1.2146 0.39041 0.42656 0.39041 0.42656 1.164v2.3136h-0.65792v-0.50609q-0.17352 0.2675-0.49886 0.4121-0.31811 0.13737-0.75913 0.13737-0.64346 0-1.0339-0.31089-0.38318-0.31088-0.38318-0.81697t0.36872-0.80974q0.36872-0.31088 1.1712-0.31088h1.0989v-0.13737q0-0.44825-0.26028-0.68683-0.26027-0.23859-0.76636-0.23859-0.3398 0-0.66514 0.11568-0.32534 0.10845-0.54947 0.29642l-0.28919-0.52054q0.29642-0.23859 0.70852-0.3615 0.4121-0.13013 0.87481-0.13013zm-0.15906 3.3763q0.39764 0 0.68683-0.17352 0.28919-0.18074 0.41933-0.50608v-0.53501h-1.07q-0.88204 0-0.88204 0.59284 0 0.2892 0.22412 0.45548 0.22412 0.16629 0.62177 0.16629z" style="font-feature-settings:normal;font-variant-caps:normal;font-variant-ligatures:normal;font-variant-numeric:normal"/>
<path d="m43.56 197.35v3.3113q0 1.005-0.49886 1.4821-0.49886 0.4844-1.4893 0.4844-0.54224 0-1.0339-0.15183-0.49163-0.1446-0.79528-0.41933l0.33257-0.53501q0.2675 0.23136 0.65792 0.36149 0.39764 0.13737 0.81697 0.13737 0.67238 0 0.99049-0.31811 0.32534-0.31812 0.32534-0.9688v-0.30365q-0.24581 0.29642-0.60731 0.44825-0.35426 0.14459-0.77359 0.14459-0.54947 0-0.99772-0.23135-0.44102-0.23859-0.69406-0.65792-0.25304-0.42656-0.25304-0.9688 0-0.54223 0.25304-0.96156 0.25304-0.42656 0.69406-0.65792 0.44825-0.23135 0.99772-0.23135 0.43379 0 0.80251 0.15905 0.37595 0.15906 0.61454 0.46994v-0.59284zm-1.9954 3.0654q0.37595 0 0.67237-0.15906 0.30365-0.15906 0.46994-0.44102 0.17352-0.28919 0.17352-0.65069 0-0.55669-0.36872-0.8965-0.36872-0.34703-0.94711-0.34703-0.58562 0-0.95434 0.34703-0.36872 0.33981-0.36872 0.8965 0 0.3615 0.16629 0.65069 0.17352 0.28196 0.46994 0.44102 0.30365 0.15906 0.68684 0.15906z" style="font-feature-settings:normal;font-variant-caps:normal;font-variant-ligatures:normal;font-variant-numeric:normal"/>
<path d="m48.343 199.28q0 0.0795-0.01446 0.20967h-3.1088q0.06507 0.50609 0.44102 0.81697 0.38318 0.30365 0.94711 0.30365 0.68683 0 1.1062-0.46271l0.38318 0.44825q-0.26027 0.30365-0.65068 0.46271-0.38318 0.15906-0.86035 0.15906-0.60731 0-1.0772-0.24582-0.46994-0.25304-0.73021-0.70129-0.25304-0.44825-0.25304-1.0122 0-0.5567 0.24581-1.005 0.25304-0.44824 0.68684-0.69406 0.44102-0.25304 0.99049-0.25304 0.54947 0 0.97603 0.25304 0.43379 0.24582 0.67238 0.69406 0.24581 0.44825 0.24581 1.0266zm-1.8942-1.3881q-0.49886 0-0.83866 0.30366-0.33257 0.30365-0.39041 0.79528h2.4581q-0.05784-0.4844-0.39764-0.78805-0.33257-0.31089-0.83143-0.31089z" style="font-feature-settings:normal;font-variant-caps:normal;font-variant-ligatures:normal;font-variant-numeric:normal"/>
<path d="m50.398 201.22q-0.46994 0-0.90373-0.12291-0.43379-0.13014-0.6796-0.32534l0.28919-0.54947q0.25304 0.18075 0.61454 0.28919 0.36149 0.10845 0.73021 0.10845 0.91096 0 0.91096-0.52055 0-0.17351-0.12291-0.27473-0.12291-0.10122-0.31088-0.1446-0.18075-0.0506-0.52055-0.10844-0.46271-0.0723-0.75913-0.16629-0.28919-0.094-0.49886-0.31811-0.20966-0.22413-0.20966-0.629 0-0.52055 0.43379-0.83143 0.43379-0.31811 1.164-0.31811 0.38318 0 0.76636 0.094 0.38318 0.094 0.629 0.25305l-0.29642 0.54947q-0.46994-0.30366-1.1062-0.30366-0.44102 0-0.67238 0.1446t-0.23136 0.38318q0 0.18798 0.13014 0.29642 0.13014 0.10845 0.31811 0.15906 0.19521 0.0506 0.54224 0.11568 0.46271 0.0795 0.74467 0.17351 0.28919 0.0868 0.49163 0.30366 0.20244 0.21689 0.20244 0.6073 0 0.52055-0.44825 0.83143-0.44102 0.30366-1.2074 0.30366z" style="font-feature-settings:normal;font-variant-caps:normal;font-variant-ligatures:normal;font-variant-numeric:normal"/>
</g>
<g transform="matrix(.24549 0 0 .24258 -4.9025 151.3)" fill="#fff" stroke="#242424" stroke-dashoffset="72" stroke-linecap="round" stroke-linejoin="round">
<path d="m102.18 181.99c-1.171 0-2.1138 0.94403-2.1138 2.1167v20.818c0 1.2782 1.2074 2.3074 2.7073 2.3074h23.69c1.4999 0 2.7073-1.0291 2.7073-2.3074v-17.452c0-1.2782-1.2074-2.3074-2.7073-2.3074h-12.971c-1.5535 0-2.7055-3.175-4.2599-3.175z" stroke-width="2.1684"/>
<rect transform="matrix(1 0 -.13175 .99128 0 0)" x="127.4" y="189.8" width="29.104" height="19.262" rx="2.6456" ry="2.1565" stroke-width="2.178"/>
</g>
<path d="m21.052 265.79c-0.29991 0-0.54149 0.34051-0.54149 0.76344v6.1239c0 0.42294 0.24158 0.76344 0.54149 0.76344h4.872c0.29991 0 0.54149-0.3405 0.54149-0.76344v-5.6564c-0.86502 0.16684-1.2923-0.34032-1.1591-1.2309z" fill="#fff" stroke="#000" stroke-dashoffset="72" stroke-linecap="round" stroke-linejoin="round" stroke-width=".52917"/>
</g>
<g fill="none" stroke="#000" stroke-linecap="round">
<path d="m25.324 265.8 1.1164 1.1901" stroke-width=".50271"/>
<path d="m21.815 269.62v-0.23333l0.40333-0.11493 0.12797-0.30848-0.22151-0.36142 0.3437-0.34967 0.36446 0.22054 0.29715-0.12662 0.11637-0.41421 0.47211 1e-5 0.12219 0.4142 0.28882 0.12662 0.3728-0.22054 0.33206 0.34967-0.20696 0.36142 0.12549 0.30848 0.40772 0.11494v0.46732l-0.41062 0.12047-0.1255 0.29677 0.20408 0.37912-0.32046 0.33077-0.36446-0.2095-0.3117 0.12803-0.1251 0.40734h-0.44884l-0.13674-0.40734-0.28854-0.12803-0.36105 0.2095-0.32955-0.33077 0.19532-0.37912-0.11056-0.29677-0.41202-0.12047z" stroke-linejoin="round" stroke-width=".26458"/>
<ellipse cx="23.488" cy="269.62" rx=".70137" ry=".70754" stroke-dashoffset="72" stroke-linejoin="round" stroke-width=".26458"/>
</g>
<g>
<g transform="scale(1 .99998)" fill="#242424" stroke-width=".0727px" style="font-feature-settings:normal;font-variant-caps:normal;font-variant-ligatures:normal;font-variant-numeric:normal" aria-label="_attributes.adoc">
<path d="m30.002 273.05h3.6149v0.44825h-3.6149z" style="font-feature-settings:normal;font-variant-caps:normal;font-variant-ligatures:normal;font-variant-numeric:normal"/>
<path d="m35.6 269.18q0.79528 0 1.2146 0.39041 0.42656 0.39041 0.42656 1.164v2.3136h-0.65792v-0.50609q-0.17352 0.26751-0.49886 0.4121-0.31811 0.13737-0.75913 0.13737-0.64346 0-1.0339-0.31088-0.38318-0.31089-0.38318-0.81698 0-0.50608 0.36872-0.80974 0.36872-0.31088 1.1712-0.31088h1.0989v-0.13737q0-0.44825-0.26027-0.68683-0.26027-0.23859-0.76636-0.23859-0.3398 0-0.66514 0.11568-0.32534 0.10845-0.54947 0.29642l-0.28919-0.52054q0.29642-0.23859 0.70852-0.3615 0.4121-0.13013 0.87481-0.13013zm-0.15906 3.3763q0.39764 0 0.68684-0.17351 0.28919-0.18075 0.41933-0.50609v-0.53501h-1.07q-0.88204 0-0.88204 0.59285 0 0.28919 0.22412 0.45547 0.22412 0.16629 0.62177 0.16629z" style="font-feature-settings:normal;font-variant-caps:normal;font-variant-ligatures:normal;font-variant-numeric:normal"/>
<path d="m40.68 272.83q-0.15183 0.13013-0.37595 0.20243-0.22412 0.0651-0.46271 0.0651-0.57839 0-0.8965-0.31088-0.31811-0.31089-0.31811-0.88927v-2.1039h-0.65069v-0.57115h0.65069v-0.83866h0.69406v0.83866h1.0989v0.57115h-1.0989v2.075q0 0.31088 0.15183 0.47717 0.15906 0.16628 0.44825 0.16628 0.31811 0 0.54224-0.18074z" style="font-feature-settings:normal;font-variant-caps:normal;font-variant-ligatures:normal;font-variant-numeric:normal"/>
<path d="m43.574 272.83q-0.15183 0.13013-0.37595 0.20243-0.22412 0.0651-0.46271 0.0651-0.57839 0-0.8965-0.31088-0.31811-0.31089-0.31811-0.88927v-2.1039h-0.65068v-0.57115h0.65068v-0.83866h0.69406v0.83866h1.0989v0.57115h-1.0989v2.075q0 0.31088 0.15183 0.47717 0.15906 0.16628 0.44825 0.16628 0.31811 0 0.54224-0.18074z" style="font-feature-settings:normal;font-variant-caps:normal;font-variant-ligatures:normal;font-variant-numeric:normal"/>
<path d="m45.079 269.86q0.18075-0.33257 0.53501-0.50609 0.35426-0.17351 0.86035-0.17351v0.67237q-0.05784-7e-3 -0.15906-7e-3 -0.56393 0-0.88927 0.3398-0.31811 0.33258-0.31811 0.95434v1.9087h-0.69406v-3.8318h0.66514z" style="font-feature-settings:normal;font-variant-caps:normal;font-variant-ligatures:normal;font-variant-numeric:normal"/>
<path d="m47.322 269.22h0.69406v3.8318h-0.69406zm0.34703-0.73745q-0.20244 0-0.3398-0.13013-0.13014-0.13014-0.13014-0.31812 0-0.18797 0.13014-0.31811 0.13737-0.13737 0.3398-0.13737 0.20244 0 0.33257 0.13014 0.13737 0.12291 0.13737 0.31088 0 0.19521-0.13737 0.33258-0.13014 0.13013-0.33257 0.13013z" style="font-feature-settings:normal;font-variant-caps:normal;font-variant-ligatures:normal;font-variant-numeric:normal"/>
<path d="m51.373 269.18q0.5567 0 0.99772 0.24581 0.44102 0.24582 0.68684 0.68684 0.25304 0.44102 0.25304 1.0194 0 0.57839-0.25304 1.0266-0.24582 0.44102-0.68684 0.68683-0.44102 0.24582-0.99772 0.24582-0.42656 0-0.78082-0.16629-0.35426-0.16628-0.58562-0.4844v0.60731h-0.66514v-5.3645h0.69406v2.1111q0.23136-0.30365 0.57839-0.45548 0.34703-0.15905 0.75913-0.15905zm-0.05784 3.304q0.36872 0 0.65792-0.16628 0.29642-0.17352 0.46271-0.47717 0.17352-0.31089 0.17352-0.70853t-0.17352-0.70129q-0.16629-0.31088-0.46271-0.47717-0.28919-0.16629-0.65792-0.16629-0.36149 0-0.65792 0.16629t-0.46271 0.47717q-0.16629 0.30365-0.16629 0.70129t0.16629 0.70853q0.16629 0.30365 0.46271 0.47717 0.29642 0.16628 0.65792 0.16628z" style="font-feature-settings:normal;font-variant-caps:normal;font-variant-ligatures:normal;font-variant-numeric:normal"/>
<path d="m57.841 269.22v3.8318h-0.65792v-0.57839q-0.20966 0.29643-0.5567 0.46271-0.3398 0.15906-0.74467 0.15906-0.76636 0-1.2074-0.41933-0.44102-0.42656-0.44102-1.2508v-2.2051h0.69406v2.1256q0 0.5567 0.2675 0.84589 0.2675 0.28196 0.76636 0.28196 0.54947 0 0.86758-0.33257t0.31811-0.93988v-1.981z" style="font-feature-settings:normal;font-variant-caps:normal;font-variant-ligatures:normal;font-variant-numeric:normal"/>
<path d="m61.324 272.83q-0.15183 0.13013-0.37595 0.20243-0.22412 0.0651-0.46271 0.0651-0.57839 0-0.8965-0.31088-0.31811-0.31089-0.31811-0.88927v-2.1039h-0.65068v-0.57115h0.65068v-0.83866h0.69406v0.83866h1.0989v0.57115h-1.0989v2.075q0 0.31088 0.15183 0.47717 0.15906 0.16628 0.44825 0.16628 0.31811 0 0.54224-0.18074z" style="font-feature-settings:normal;font-variant-caps:normal;font-variant-ligatures:normal;font-variant-numeric:normal"/>
<path d="m65.499 271.16q0 0.0795-0.01446 0.20967h-3.1088q0.06507 0.50609 0.44102 0.81697 0.38318 0.30365 0.94711 0.30365 0.68683 0 1.1062-0.46271l0.38318 0.44825q-0.26027 0.30366-0.65068 0.46271-0.38318 0.15906-0.86035 0.15906-0.60731 0-1.0772-0.24582-0.46994-0.25304-0.73021-0.70129-0.25304-0.44825-0.25304-1.0122 0-0.55669 0.24582-1.0049 0.25304-0.44825 0.68683-0.69407 0.44102-0.25304 0.99049-0.25304 0.54947 0 0.97603 0.25304 0.43379 0.24582 0.67238 0.69407 0.24582 0.44825 0.24582 1.0266zm-1.8942-1.3881q-0.49886 0-0.83866 0.30366-0.33257 0.30365-0.39041 0.79528h2.4581q-0.05784-0.4844-0.39764-0.78805-0.33257-0.31089-0.83143-0.31089z" style="font-feature-settings:normal;font-variant-caps:normal;font-variant-ligatures:normal;font-variant-numeric:normal"/>
<path d="m67.555 273.09q-0.46994 0-0.90373-0.12291-0.43379-0.13014-0.6796-0.32534l0.28919-0.54947q0.25304 0.18075 0.61454 0.2892 0.36149 0.10844 0.73021 0.10844 0.91096 0 0.91096-0.52055 0-0.17351-0.12291-0.27473t-0.31088-0.1446q-0.18075-0.0506-0.52055-0.10844-0.46271-0.0723-0.75913-0.16629-0.28919-0.094-0.49886-0.31811-0.20966-0.22413-0.20966-0.629 0-0.52055 0.43379-0.83143 0.43379-0.31811 1.164-0.31811 0.38318 0 0.76636 0.094 0.38318 0.094 0.629 0.25304l-0.29642 0.54947q-0.46994-0.30366-1.1062-0.30366-0.44102 0-0.67238 0.1446t-0.23136 0.38318q0 0.18798 0.13014 0.29643 0.13014 0.10844 0.31811 0.15905 0.19521 0.0506 0.54224 0.11568 0.46271 0.0795 0.74467 0.17352 0.28919 0.0867 0.49163 0.30365 0.20244 0.21689 0.20244 0.6073 0 0.52055-0.44825 0.83144-0.44102 0.30365-1.2074 0.30365z" style="font-feature-settings:normal;font-variant-caps:normal;font-variant-ligatures:normal;font-variant-numeric:normal"/>
<path d="m70.251 273.09q-0.20244 0-0.34703-0.13737-0.1446-0.14459-0.1446-0.36149 0-0.20966 0.1446-0.34703 0.1446-0.1446 0.34703-0.1446 0.20244 0 0.3398 0.13737t0.13737 0.35426q0 0.2169-0.1446 0.36149-0.13737 0.13737-0.33257 0.13737z" style="font-feature-settings:normal;font-variant-caps:normal;font-variant-ligatures:normal;font-variant-numeric:normal"/>
<path d="m73.189 269.18q0.79528 0 1.2146 0.39041 0.42656 0.39041 0.42656 1.164v2.3136h-0.65792v-0.50609q-0.17352 0.26751-0.49886 0.4121-0.31811 0.13737-0.75913 0.13737-0.64346 0-1.0339-0.31088-0.38318-0.31089-0.38318-0.81698 0-0.50608 0.36872-0.80974 0.36872-0.31088 1.1712-0.31088h1.0989v-0.13737q0-0.44825-0.26027-0.68683-0.26027-0.23859-0.76636-0.23859-0.3398 0-0.66514 0.11568-0.32534 0.10845-0.54947 0.29642l-0.28919-0.52054q0.29642-0.23859 0.70852-0.3615 0.4121-0.13013 0.87481-0.13013zm-0.15906 3.3763q0.39764 0 0.68684-0.17351 0.28919-0.18075 0.41933-0.50609v-0.53501h-1.07q-0.88204 0-0.88204 0.59285 0 0.28919 0.22412 0.45547 0.22412 0.16629 0.62177 0.16629z" style="font-feature-settings:normal;font-variant-caps:normal;font-variant-ligatures:normal;font-variant-numeric:normal"/>
<path d="m79.758 267.68v5.3645h-0.66514v-0.60731q-0.23135 0.31812-0.58562 0.4844-0.35426 0.16629-0.78082 0.16629-0.5567 0-0.99772-0.24582-0.44102-0.24581-0.69406-0.68683-0.24582-0.44825-0.24582-1.0266 0-0.57838 0.24582-1.0194 0.25304-0.44102 0.69406-0.68684 0.44102-0.24581 0.99772-0.24581 0.4121 0 0.75913 0.15905 0.34703 0.15183 0.57839 0.45548v-2.1111zm-1.9737 4.8006q0.36149 0 0.65792-0.16628 0.29642-0.17352 0.46271-0.47717 0.16629-0.31089 0.16629-0.70853t-0.16629-0.70129q-0.16629-0.31088-0.46271-0.47717t-0.65792-0.16629q-0.36872 0-0.66514 0.16629-0.28919 0.16629-0.46271 0.47717-0.16629 0.30365-0.16629 0.70129t0.16629 0.70853q0.17352 0.30365 0.46271 0.47717 0.29642 0.16628 0.66514 0.16628z" style="font-feature-settings:normal;font-variant-caps:normal;font-variant-ligatures:normal;font-variant-numeric:normal"/>
<path d="m82.712 273.09q-0.57116 0-1.0266-0.25305-0.45548-0.25304-0.71575-0.69406-0.25304-0.44825-0.25304-1.0122 0-0.56392 0.25304-1.0049 0.26027-0.44825 0.71575-0.69407 0.45548-0.25304 1.0266-0.25304 0.57116 0 1.0194 0.25304 0.45548 0.24582 0.70852 0.69407 0.26027 0.44102 0.26027 1.0049 0 0.56393-0.26027 1.0122-0.25304 0.44102-0.70852 0.69406-0.44825 0.25305-1.0194 0.25305zm0-0.60731q0.36872 0 0.65792-0.16628 0.29642-0.17352 0.46271-0.47717 0.16629-0.31089 0.16629-0.70853t-0.16629-0.70129q-0.16629-0.31088-0.46271-0.47717-0.28919-0.16629-0.65792-0.16629-0.36872 0-0.66514 0.16629-0.28919 0.16629-0.46271 0.47717-0.16629 0.30365-0.16629 0.70129t0.16629 0.70853q0.17352 0.30365 0.46271 0.47717 0.29642 0.16628 0.66514 0.16628z" style="font-feature-settings:normal;font-variant-caps:normal;font-variant-ligatures:normal;font-variant-numeric:normal"/>
<path d="m87.33 273.09q-0.58562 0-1.0483-0.25305-0.45548-0.25304-0.71575-0.69406-0.26027-0.44825-0.26027-1.0122 0-0.56392 0.26027-1.0049 0.26027-0.44825 0.71575-0.69407 0.46271-0.25304 1.0483-0.25304 0.52055 0 0.92542 0.20966 0.4121 0.20967 0.63623 0.60731l-0.52778 0.3398q-0.18075-0.27473-0.44825-0.4121t-0.59285-0.13737q-0.37595 0-0.6796 0.16629-0.29642 0.16629-0.46994 0.47717-0.16629 0.30365-0.16629 0.70129 0 0.40487 0.16629 0.71576 0.17352 0.30365 0.46994 0.46994 0.30365 0.16628 0.6796 0.16628 0.32534 0 0.59285-0.13736 0.2675-0.13737 0.44825-0.4121l0.52778 0.33257q-0.22412 0.39764-0.63623 0.61453-0.40487 0.20967-0.92542 0.20967z" style="font-feature-settings:normal;font-variant-caps:normal;font-variant-ligatures:normal;font-variant-numeric:normal"/>
</g>
<g transform="scale(1 .99998)" fill="#242424" stroke-width=".0727px" style="font-feature-settings:normal;font-variant-caps:normal;font-variant-ligatures:normal;font-variant-numeric:normal" aria-label="nav.adoc">
<path d="m32.706 280.91q0.73021 0 1.1568 0.42656 0.43379 0.41933 0.43379 1.2363v2.2051h-0.69406v-2.1256q0-0.5567-0.2675-0.83866-0.2675-0.28197-0.76636-0.28197-0.56393 0-0.88927 0.33258-0.32534 0.32534-0.32534 0.93988v1.9737h-0.69406v-3.8318h0.66514v0.57838q0.20966-0.29642 0.56393-0.45547 0.36149-0.15906 0.81697-0.15906z" style="font-feature-settings:normal;font-variant-caps:normal;font-variant-ligatures:normal;font-variant-numeric:normal"/>
<path d="m36.983 280.91q0.79528 0 1.2146 0.39041 0.42656 0.39041 0.42656 1.164v2.3136h-0.65792v-0.50609q-0.17352 0.26751-0.49886 0.4121-0.31811 0.13737-0.75913 0.13737-0.64346 0-1.0339-0.31088-0.38318-0.31089-0.38318-0.81697 0-0.50609 0.36872-0.80975 0.36872-0.31088 1.1712-0.31088h1.0989v-0.13737q0-0.44825-0.26027-0.68683t-0.76636-0.23858q-0.3398 0-0.66514 0.11567-0.32534 0.10845-0.54947 0.29643l-0.28919-0.52055q0.29642-0.23859 0.70852-0.36149 0.4121-0.13014 0.87481-0.13014zm-0.15906 3.3763q0.39764 0 0.68683-0.17351 0.28919-0.18075 0.41933-0.50609v-0.53501h-1.07q-0.88204 0-0.88204 0.59285 0 0.28919 0.22412 0.45548 0.22412 0.16628 0.62177 0.16628z" style="font-feature-settings:normal;font-variant-caps:normal;font-variant-ligatures:normal;font-variant-numeric:normal"/>
<path d="m43.229 280.94-1.6773 3.8318h-0.70852l-1.6773-3.8318h0.72298l1.3158 3.0727 1.3448-3.0727z" style="font-feature-settings:normal;font-variant-caps:normal;font-variant-ligatures:normal;font-variant-numeric:normal"/>
<path d="m43.803 284.82q-0.20244 0-0.34703-0.13737-0.1446-0.14459-0.1446-0.36149 0-0.20966 0.1446-0.34703 0.1446-0.1446 0.34703-0.1446 0.20244 0 0.3398 0.13737 0.13737 0.13737 0.13737 0.35426 0 0.2169-0.1446 0.36149-0.13737 0.13737-0.33257 0.13737z" style="font-feature-settings:normal;font-variant-caps:normal;font-variant-ligatures:normal;font-variant-numeric:normal"/>
<path d="m46.741 280.91q0.79528 0 1.2146 0.39041 0.42656 0.39041 0.42656 1.164v2.3136h-0.65792v-0.50609q-0.17352 0.26751-0.49886 0.4121-0.31811 0.13737-0.75913 0.13737-0.64346 0-1.0339-0.31088-0.38318-0.31089-0.38318-0.81697 0-0.50609 0.36872-0.80975 0.36872-0.31088 1.1712-0.31088h1.0989v-0.13737q0-0.44825-0.26027-0.68683t-0.76636-0.23858q-0.3398 0-0.66514 0.11567-0.32534 0.10845-0.54947 0.29643l-0.28919-0.52055q0.29642-0.23859 0.70852-0.36149 0.4121-0.13014 0.87481-0.13014zm-0.15906 3.3763q0.39764 0 0.68684-0.17351 0.28919-0.18075 0.41933-0.50609v-0.53501h-1.07q-0.88204 0-0.88204 0.59285 0 0.28919 0.22412 0.45548 0.22412 0.16628 0.62177 0.16628z" style="font-feature-settings:normal;font-variant-caps:normal;font-variant-ligatures:normal;font-variant-numeric:normal"/>
<path d="m53.31 279.41v5.3645h-0.66514v-0.60731q-0.23136 0.31812-0.58562 0.4844-0.35426 0.16629-0.78082 0.16629-0.5567 0-0.99772-0.24581-0.44102-0.24582-0.69406-0.68684-0.24581-0.44825-0.24581-1.0266 0-0.57838 0.24581-1.0194 0.25304-0.44102 0.69406-0.68684 0.44102-0.24581 0.99772-0.24581 0.4121 0 0.75913 0.15906 0.34703 0.15182 0.57839 0.45547v-2.1111zm-1.9737 4.8006q0.36149 0 0.65792-0.16628 0.29642-0.17352 0.46271-0.47717 0.16629-0.31088 0.16629-0.70853 0-0.39764-0.16629-0.70129-0.16629-0.31088-0.46271-0.47717-0.29642-0.16629-0.65792-0.16629-0.36872 0-0.66514 0.16629-0.28919 0.16629-0.46271 0.47717-0.16629 0.30365-0.16629 0.70129 0 0.39765 0.16629 0.70853 0.17352 0.30365 0.46271 0.47717 0.29642 0.16628 0.66514 0.16628z" style="font-feature-settings:normal;font-variant-caps:normal;font-variant-ligatures:normal;font-variant-numeric:normal"/>
<path d="m56.264 284.82q-0.57116 0-1.0266-0.25304-0.45548-0.25305-0.71575-0.69407-0.25304-0.44825-0.25304-1.0122 0-0.56392 0.25304-1.0049 0.26027-0.44825 0.71575-0.69407 0.45548-0.25304 1.0266-0.25304t1.0194 0.25304q0.45548 0.24582 0.70852 0.69407 0.26028 0.44102 0.26028 1.0049 0 0.56393-0.26028 1.0122-0.25304 0.44102-0.70852 0.69407-0.44825 0.25304-1.0194 0.25304zm0-0.60731q0.36872 0 0.65792-0.16628 0.29642-0.17352 0.46271-0.47717 0.16629-0.31088 0.16629-0.70853 0-0.39764-0.16629-0.70129-0.16629-0.31088-0.46271-0.47717-0.28919-0.16629-0.65792-0.16629-0.36872 0-0.66514 0.16629-0.28919 0.16629-0.46271 0.47717-0.16629 0.30365-0.16629 0.70129 0 0.39765 0.16629 0.70853 0.17352 0.30365 0.46271 0.47717 0.29642 0.16628 0.66514 0.16628z" style="font-feature-settings:normal;font-variant-caps:normal;font-variant-ligatures:normal;font-variant-numeric:normal"/>
<path d="m60.882 284.82q-0.58562 0-1.0483-0.25304-0.45548-0.25305-0.71575-0.69407-0.26027-0.44825-0.26027-1.0122 0-0.56392 0.26027-1.0049 0.26028-0.44825 0.71575-0.69407 0.46271-0.25304 1.0483-0.25304 0.52055 0 0.92542 0.20966 0.4121 0.20967 0.63623 0.60731l-0.52778 0.3398q-0.18075-0.27473-0.44825-0.4121t-0.59285-0.13737q-0.37595 0-0.6796 0.16629-0.29642 0.16629-0.46994 0.47717-0.16629 0.30365-0.16629 0.70129 0 0.40488 0.16629 0.71576 0.17352 0.30365 0.46994 0.46994 0.30365 0.16628 0.6796 0.16628 0.32534 0 0.59285-0.13736 0.2675-0.13737 0.44825-0.4121l0.52778 0.33257q-0.22412 0.39764-0.63623 0.61453-0.40487 0.20967-0.92542 0.20967z" style="font-feature-settings:normal;font-variant-caps:normal;font-variant-ligatures:normal;font-variant-numeric:normal"/>
</g>
<path d="m21.052 277.51c-0.29991 0-0.54149 0.3405-0.54149 0.76345v6.1239c0 0.42294 0.24158 0.76345 0.54149 0.76345h4.872c0.29991 0 0.54149-0.34051 0.54149-0.76345v-5.6564c-0.86502 0.16683-1.2923-0.34033-1.1591-1.2309z" fill="#fff" stroke="#000" stroke-dashoffset="72" stroke-linecap="round" stroke-linejoin="round" stroke-width=".52917"/>
</g>
<g fill="none" stroke="#000" stroke-linecap="round">
<path d="m25.324 277.53 1.1164 1.1901" stroke-width=".50271"/>
<g stroke-width=".26458px">
<path d="m21.438 279.59h3.0741"/>
<path d="m21.951 280.57h1.5371"/>
<path d="m21.951 281.54h1.5371"/>
<path d="m21.951 282.52h1.5371"/>
<path d="m21.951 283.5h1.5371"/>
</g>
</g>
<g>
<g transform="scale(1 .99998)" fill="#242424" stroke-width=".0727px" style="font-feature-settings:normal;font-variant-caps:normal;font-variant-ligatures:normal;font-variant-numeric:normal" aria-label="_partials">
<path d="m38.199 212.14h3.6149v0.44825h-3.6149z" style="font-feature-settings:normal;font-variant-caps:normal;font-variant-ligatures:normal;font-variant-numeric:normal"/>
<path d="m44.504 208.28q0.5567 0 0.99772 0.24581 0.44102 0.24582 0.68683 0.68684 0.25304 0.44102 0.25304 1.0194 0 0.57839-0.25304 1.0266-0.24581 0.44102-0.68683 0.68684-0.44102 0.24581-0.99772 0.24581-0.4121 0-0.75913-0.15906-0.3398-0.15905-0.57839-0.46271v1.981h-0.69406v-5.2344h0.66514v0.6073q0.23136-0.31811 0.58562-0.47716 0.35426-0.16629 0.78082-0.16629zm-0.05784 3.304q0.36872 0 0.65792-0.16628 0.29642-0.17352 0.46271-0.47717 0.17352-0.31088 0.17352-0.70853 0-0.39764-0.17352-0.70129-0.16629-0.31088-0.46271-0.47717-0.28919-0.16628-0.65792-0.16628-0.36149 0-0.65792 0.17351-0.28919 0.16629-0.46271 0.46994-0.16629 0.30365-0.16629 0.70129 0 0.39765 0.16629 0.70853 0.16629 0.30365 0.46271 0.47717 0.29642 0.16628 0.65792 0.16628z" style="font-feature-settings:normal;font-variant-caps:normal;font-variant-ligatures:normal;font-variant-numeric:normal"/>
<path d="m48.753 208.28q0.79528 0 1.2146 0.39041 0.42656 0.39041 0.42656 1.164v2.3136h-0.65792v-0.50609q-0.17352 0.26751-0.49886 0.4121-0.31811 0.13737-0.75913 0.13737-0.64346 0-1.0339-0.31088-0.38318-0.31089-0.38318-0.81697 0-0.50609 0.36872-0.80975 0.36872-0.31088 1.1712-0.31088h1.0989v-0.13737q0-0.44825-0.26027-0.68683t-0.76636-0.23858q-0.3398 0-0.66514 0.11567-0.32534 0.10845-0.54947 0.29643l-0.28919-0.52055q0.29642-0.23859 0.70852-0.36149 0.4121-0.13014 0.87481-0.13014zm-0.15906 3.3763q0.39764 0 0.68683-0.17351 0.28919-0.18075 0.41933-0.50609v-0.53501h-1.07q-0.88204 0-0.88204 0.59285 0 0.28919 0.22412 0.45548 0.22412 0.16628 0.62177 0.16628z" style="font-feature-settings:normal;font-variant-caps:normal;font-variant-ligatures:normal;font-variant-numeric:normal"/>
<path d="m52.344 208.95q0.18075-0.33257 0.53501-0.50609 0.35426-0.17351 0.86035-0.17351v0.67237q-0.05784-7e-3 -0.15906-7e-3 -0.56393 0-0.88927 0.33981-0.31811 0.33257-0.31811 0.95433v1.9087h-0.69406v-3.8318h0.66514z" style="font-feature-settings:normal;font-variant-caps:normal;font-variant-ligatures:normal;font-variant-numeric:normal"/>
<path d="m56.912 211.92q-0.15183 0.13013-0.37595 0.20243-0.22412 0.0651-0.46271 0.0651-0.57839 0-0.8965-0.31088-0.31811-0.31089-0.31811-0.88927v-2.1039h-0.65068v-0.57116h0.65068v-0.83866h0.69406v0.83866h1.0989v0.57116h-1.0989v2.075q0 0.31088 0.15183 0.47717 0.15906 0.16628 0.44825 0.16628 0.31811 0 0.54224-0.18074z" style="font-feature-settings:normal;font-variant-caps:normal;font-variant-ligatures:normal;font-variant-numeric:normal"/>
<path d="m57.751 208.31h0.69406v3.8318h-0.69406zm0.34703-0.73745q-0.20244 0-0.3398-0.13013-0.13014-0.13014-0.13014-0.31812 0-0.18797 0.13014-0.31811 0.13737-0.13736 0.3398-0.13736 0.20244 0 0.33257 0.13013 0.13737 0.12291 0.13737 0.31089 0 0.1952-0.13737 0.33257-0.13014 0.13013-0.33257 0.13013z" style="font-feature-settings:normal;font-variant-caps:normal;font-variant-ligatures:normal;font-variant-numeric:normal"/>
<path d="m61.166 208.28q0.79528 0 1.2146 0.39041 0.42656 0.39041 0.42656 1.164v2.3136h-0.65792v-0.50609q-0.17352 0.26751-0.49886 0.4121-0.31811 0.13737-0.75913 0.13737-0.64346 0-1.0339-0.31088-0.38318-0.31089-0.38318-0.81697 0-0.50609 0.36872-0.80975 0.36872-0.31088 1.1712-0.31088h1.0989v-0.13737q0-0.44825-0.26027-0.68683t-0.76636-0.23858q-0.3398 0-0.66514 0.11567-0.32534 0.10845-0.54947 0.29643l-0.28919-0.52055q0.29642-0.23859 0.70852-0.36149 0.4121-0.13014 0.87481-0.13014zm-0.15906 3.3763q0.39764 0 0.68683-0.17351 0.28919-0.18075 0.41933-0.50609v-0.53501h-1.07q-0.88204 0-0.88204 0.59285 0 0.28919 0.22412 0.45548 0.22412 0.16628 0.62177 0.16628z" style="font-feature-settings:normal;font-variant-caps:normal;font-variant-ligatures:normal;font-variant-numeric:normal"/>
<path d="m64.091 206.78h0.69406v5.3645h-0.69406z" style="font-feature-settings:normal;font-variant-caps:normal;font-variant-ligatures:normal;font-variant-numeric:normal"/>
<path d="m67.209 212.19q-0.46994 0-0.90373-0.12291-0.43379-0.13013-0.6796-0.32534l0.28919-0.54947q0.25304 0.18075 0.61454 0.2892 0.36149 0.10844 0.73021 0.10844 0.91096 0 0.91096-0.52054 0-0.17352-0.12291-0.27474t-0.31088-0.14459q-0.18075-0.0506-0.52055-0.10845-0.46271-0.0723-0.75913-0.16629-0.28919-0.094-0.49886-0.31811-0.20966-0.22413-0.20966-0.629 0-0.52055 0.43379-0.83143 0.43379-0.31811 1.164-0.31811 0.38318 0 0.76636 0.094 0.38318 0.094 0.629 0.25304l-0.29642 0.54947q-0.46994-0.30365-1.1062-0.30365-0.44102 0-0.67238 0.14459-0.23135 0.1446-0.23135 0.38318 0 0.18798 0.13014 0.29643 0.13014 0.10844 0.31811 0.15905 0.19521 0.0506 0.54224 0.11568 0.46271 0.0795 0.74467 0.17352 0.28919 0.0867 0.49163 0.30365 0.20244 0.21689 0.20244 0.60731 0 0.52054-0.44825 0.83143-0.44102 0.30365-1.2074 0.30365z" style="font-feature-settings:normal;font-variant-caps:normal;font-variant-ligatures:normal;font-variant-numeric:normal"/>
</g>
<g transform="matrix(.24549 0 0 .24258 3.2952 162.27)" fill="#fff" stroke="#242424" stroke-dashoffset="72" stroke-linecap="round" stroke-linejoin="round">
<path d="m102.18 181.99c-1.171 0-2.1138 0.94403-2.1138 2.1167v20.818c0 1.2782 1.2074 2.3074 2.7073 2.3074h23.69c1.4999 0 2.7073-1.0291 2.7073-2.3074v-17.452c0-1.2782-1.2074-2.3074-2.7073-2.3074h-12.971c-1.5535 0-2.7055-3.175-4.2599-3.175z" stroke-width="2.1684"/>
<rect transform="matrix(1 0 -.13175 .99128 0 0)" x="127.4" y="189.8" width="29.104" height="19.262" rx="2.6456" ry="2.1565" stroke-width="2.178"/>
</g>
<path d="m29.249 229.84c-0.29991 0-0.54149 0.34051-0.54149 0.76345v6.1239c0 0.42294 0.24158 0.76345 0.54149 0.76345h4.872c0.29991 0 0.54149-0.34051 0.54149-0.76345v-5.6564c-0.86502 0.16683-1.2923-0.34033-1.1591-1.2309z" fill="#fff" stroke="#000" stroke-dashoffset="72" stroke-linecap="round" stroke-linejoin="round" stroke-width=".52917"/>
</g>
<g fill="none" stroke="#000" stroke-linecap="round">
<path d="m33.522 229.85 1.1164 1.1901" stroke-width=".50271"/>
<path d="m30.012 233.67v-0.23333l0.40333-0.11493 0.12797-0.30847-0.22151-0.36143 0.3437-0.34967 0.36446 0.22054 0.29715-0.12662 0.11637-0.41421 0.47211 1e-5 0.12219 0.4142 0.28882 0.12662 0.3728-0.22054 0.33206 0.34967-0.20696 0.36143 0.12549 0.30847 0.40772 0.11494v0.46733l-0.41062 0.12046-0.1255 0.29677 0.20408 0.37912-0.32046 0.33076-0.36446-0.20949-0.3117 0.12803-0.1251 0.40734h-0.44884l-0.13674-0.40734-0.28854-0.12803-0.36105 0.20949-0.32955-0.33076 0.19532-0.37912-0.11056-0.29677-0.41202-0.12046z" stroke-linejoin="round" stroke-width=".26458"/>
<ellipse cx="31.685" cy="233.67" rx=".70137" ry=".70754" stroke-dashoffset="72" stroke-linejoin="round" stroke-width=".26458"/>
</g>
<g fill="#242424" stroke-width=".0727px">
<g transform="scale(1 .99998)" style="font-feature-settings:normal;font-variant-caps:normal;font-variant-ligatures:normal;font-variant-numeric:normal" aria-label="_attributes.adoc">
<path d="m38.199 237.1h3.6149v0.44825h-3.6149z" style="font-feature-settings:normal;font-variant-caps:normal;font-variant-ligatures:normal;font-variant-numeric:normal"/>
<path d="m43.797 233.23q0.79528 0 1.2146 0.39041 0.42656 0.39041 0.42656 1.164v2.3136h-0.65792v-0.50609q-0.17352 0.26751-0.49886 0.4121-0.31811 0.13737-0.75913 0.13737-0.64346 0-1.0339-0.31088-0.38318-0.31089-0.38318-0.81697 0-0.50609 0.36872-0.80975 0.36872-0.31088 1.1712-0.31088h1.0989v-0.13737q0-0.44825-0.26027-0.68683-0.26027-0.23859-0.76636-0.23859-0.3398 0-0.66514 0.11568-0.32534 0.10845-0.54947 0.29643l-0.28919-0.52055q0.29642-0.23859 0.70852-0.36149 0.4121-0.13014 0.87481-0.13014zm-0.15906 3.3763q0.39764 0 0.68684-0.17351 0.28919-0.18075 0.41933-0.50609v-0.53501h-1.07q-0.88204 0-0.88204 0.59285 0 0.28919 0.22412 0.45548 0.22412 0.16628 0.62177 0.16628z" style="font-feature-settings:normal;font-variant-caps:normal;font-variant-ligatures:normal;font-variant-numeric:normal"/>
<path d="m48.877 236.88q-0.15183 0.13013-0.37595 0.20243-0.22412 0.0651-0.46271 0.0651-0.57839 0-0.8965-0.31088-0.31811-0.31089-0.31811-0.88927v-2.1039h-0.65069v-0.57115h0.65069v-0.83866h0.69406v0.83866h1.0989v0.57115h-1.0989v2.075q0 0.31088 0.15183 0.47717 0.15906 0.16628 0.44825 0.16628 0.31811 0 0.54224-0.18074z" style="font-feature-settings:normal;font-variant-caps:normal;font-variant-ligatures:normal;font-variant-numeric:normal"/>
<path d="m51.772 236.88q-0.15183 0.13013-0.37595 0.20243-0.22412 0.0651-0.46271 0.0651-0.57839 0-0.8965-0.31088-0.31811-0.31089-0.31811-0.88927v-2.1039h-0.65068v-0.57115h0.65068v-0.83866h0.69406v0.83866h1.0989v0.57115h-1.0989v2.075q0 0.31088 0.15183 0.47717 0.15906 0.16628 0.44825 0.16628 0.31811 0 0.54224-0.18074z" style="font-feature-settings:normal;font-variant-caps:normal;font-variant-ligatures:normal;font-variant-numeric:normal"/>
<path d="m53.276 233.91q0.18075-0.33257 0.53501-0.50609 0.35426-0.17351 0.86035-0.17351v0.67237q-0.05784-7e-3 -0.15906-7e-3 -0.56393 0-0.88927 0.33981-0.31811 0.33257-0.31811 0.95433v1.9087h-0.69406v-3.8318h0.66514z" style="font-feature-settings:normal;font-variant-caps:normal;font-variant-ligatures:normal;font-variant-numeric:normal"/>
<path d="m55.52 233.27h0.69406v3.8318h-0.69406zm0.34703-0.73745q-0.20244 0-0.3398-0.13013-0.13014-0.13014-0.13014-0.31812 0-0.18797 0.13014-0.31811 0.13737-0.13736 0.3398-0.13736 0.20244 0 0.33257 0.13013 0.13737 0.12291 0.13737 0.31088 0 0.19521-0.13737 0.33258-0.13014 0.13013-0.33257 0.13013z" style="font-feature-settings:normal;font-variant-caps:normal;font-variant-ligatures:normal;font-variant-numeric:normal"/>
<path d="m59.571 233.23q0.5567 0 0.99772 0.24581 0.44102 0.24582 0.68684 0.68684 0.25304 0.44102 0.25304 1.0194 0 0.57839-0.25304 1.0266-0.24582 0.44102-0.68684 0.68684-0.44102 0.24581-0.99772 0.24581-0.42656 0-0.78082-0.16629-0.35426-0.16628-0.58562-0.4844v0.60731h-0.66514v-5.3645h0.69406v2.1111q0.23136-0.30365 0.57839-0.45548 0.34703-0.15905 0.75913-0.15905zm-0.05784 3.304q0.36872 0 0.65792-0.16628 0.29642-0.17352 0.46271-0.47717 0.17352-0.31088 0.17352-0.70853 0-0.39764-0.17352-0.70129-0.16629-0.31088-0.46271-0.47717-0.28919-0.16629-0.65792-0.16629-0.36149 0-0.65792 0.16629t-0.46271 0.47717q-0.16629 0.30365-0.16629 0.70129 0 0.39765 0.16629 0.70853 0.16629 0.30365 0.46271 0.47717 0.29642 0.16628 0.65792 0.16628z" style="font-feature-settings:normal;font-variant-caps:normal;font-variant-ligatures:normal;font-variant-numeric:normal"/>
<path d="m66.039 233.27v3.8318h-0.65792v-0.57839q-0.20966 0.29643-0.5567 0.46271-0.3398 0.15906-0.74467 0.15906-0.76636 0-1.2074-0.41933-0.44102-0.42656-0.44102-1.2508v-2.2051h0.69406v2.1256q0 0.5567 0.2675 0.84589 0.2675 0.28196 0.76636 0.28196 0.54947 0 0.86758-0.33257t0.31811-0.93988v-1.981z" style="font-feature-settings:normal;font-variant-caps:normal;font-variant-ligatures:normal;font-variant-numeric:normal"/>
<path d="m69.522 236.88q-0.15183 0.13013-0.37595 0.20243-0.22412 0.0651-0.46271 0.0651-0.57839 0-0.8965-0.31088-0.31811-0.31089-0.31811-0.88927v-2.1039h-0.65068v-0.57115h0.65068v-0.83866h0.69406v0.83866h1.0989v0.57115h-1.0989v2.075q0 0.31088 0.15183 0.47717 0.15906 0.16628 0.44825 0.16628 0.31811 0 0.54224-0.18074z" style="font-feature-settings:normal;font-variant-caps:normal;font-variant-ligatures:normal;font-variant-numeric:normal"/>
<path d="m73.697 235.21q0 0.0795-0.01446 0.20967h-3.1088q0.06507 0.50609 0.44102 0.81697 0.38318 0.30365 0.94711 0.30365 0.68684 0 1.1062-0.46271l0.38318 0.44825q-0.26027 0.30366-0.65068 0.46271-0.38318 0.15906-0.86035 0.15906-0.60731 0-1.0772-0.24581-0.46994-0.25305-0.73021-0.7013-0.25304-0.44825-0.25304-1.0122 0-0.55669 0.24582-1.0049 0.25304-0.44825 0.68683-0.69407 0.44102-0.25304 0.99049-0.25304 0.54947 0 0.97603 0.25304 0.43379 0.24582 0.67237 0.69407 0.24582 0.44825 0.24582 1.0266zm-1.8942-1.3881q-0.49886 0-0.83866 0.30365-0.33257 0.30365-0.39041 0.79528h2.4581q-0.05784-0.4844-0.39764-0.78805-0.33257-0.31088-0.83143-0.31088z" style="font-feature-settings:normal;font-variant-caps:normal;font-variant-ligatures:normal;font-variant-numeric:normal"/>
<path d="m75.752 237.14q-0.46994 0-0.90373-0.12291-0.43379-0.13013-0.6796-0.32534l0.28919-0.54947q0.25304 0.18075 0.61454 0.2892 0.36149 0.10844 0.73021 0.10844 0.91096 0 0.91096-0.52054 0-0.17352-0.12291-0.27474t-0.31088-0.1446q-0.18075-0.0506-0.52055-0.10844-0.46271-0.0723-0.75913-0.16629-0.28919-0.094-0.49886-0.31811-0.20966-0.22413-0.20966-0.629 0-0.52055 0.43379-0.83143 0.43379-0.31811 1.164-0.31811 0.38318 0 0.76636 0.094 0.38318 0.094 0.629 0.25304l-0.29642 0.54947q-0.46994-0.30365-1.1062-0.30365-0.44102 0-0.67238 0.14459-0.23135 0.1446-0.23135 0.38318 0 0.18798 0.13014 0.29643 0.13014 0.10844 0.31811 0.15905 0.19521 0.0506 0.54224 0.11568 0.46271 0.0795 0.74467 0.17352 0.28919 0.0867 0.49163 0.30365 0.20244 0.21689 0.20244 0.60731 0 0.52054-0.44825 0.83143-0.44102 0.30365-1.2074 0.30365z" style="font-feature-settings:normal;font-variant-caps:normal;font-variant-ligatures:normal;font-variant-numeric:normal"/>
<path d="m78.449 237.14q-0.20244 0-0.34703-0.13737-0.1446-0.14459-0.1446-0.36149 0-0.20966 0.1446-0.34703 0.1446-0.1446 0.34703-0.1446 0.20244 0 0.3398 0.13737t0.13737 0.35426q0 0.2169-0.1446 0.36149-0.13737 0.13737-0.33257 0.13737z" style="font-feature-settings:normal;font-variant-caps:normal;font-variant-ligatures:normal;font-variant-numeric:normal"/>
<path d="m81.387 233.23q0.79528 0 1.2146 0.39041 0.42656 0.39041 0.42656 1.164v2.3136h-0.65792v-0.50609q-0.17352 0.26751-0.49886 0.4121-0.31811 0.13737-0.75913 0.13737-0.64346 0-1.0339-0.31088-0.38318-0.31089-0.38318-0.81697 0-0.50609 0.36872-0.80975 0.36872-0.31088 1.1712-0.31088h1.0989v-0.13737q0-0.44825-0.26027-0.68683-0.26027-0.23859-0.76636-0.23859-0.3398 0-0.66514 0.11568-0.32534 0.10845-0.54947 0.29643l-0.28919-0.52055q0.29642-0.23859 0.70852-0.36149 0.4121-0.13014 0.87481-0.13014zm-0.15906 3.3763q0.39764 0 0.68684-0.17351 0.28919-0.18075 0.41933-0.50609v-0.53501h-1.07q-0.88204 0-0.88204 0.59285 0 0.28919 0.22412 0.45548 0.22412 0.16628 0.62177 0.16628z" style="font-feature-settings:normal;font-variant-caps:normal;font-variant-ligatures:normal;font-variant-numeric:normal"/>
<path d="m87.955 231.74v5.3645h-0.66514v-0.60731q-0.23135 0.31812-0.58562 0.4844-0.35426 0.16629-0.78082 0.16629-0.5567 0-0.99772-0.24581-0.44102-0.24582-0.69406-0.68684-0.24582-0.44825-0.24582-1.0266 0-0.57838 0.24582-1.0194 0.25304-0.44102 0.69406-0.68684 0.44102-0.24581 0.99772-0.24581 0.4121 0 0.75913 0.15905 0.34703 0.15183 0.57839 0.45548v-2.1111zm-1.9737 4.8006q0.36149 0 0.65792-0.16628 0.29642-0.17352 0.46271-0.47717 0.16629-0.31088 0.16629-0.70853 0-0.39764-0.16629-0.70129-0.16629-0.31088-0.46271-0.47717-0.29642-0.16629-0.65792-0.16629-0.36872 0-0.66514 0.16629-0.28919 0.16629-0.46271 0.47717-0.16629 0.30365-0.16629 0.70129 0 0.39765 0.16629 0.70853 0.17352 0.30365 0.46271 0.47717 0.29642 0.16628 0.66514 0.16628z" style="font-feature-settings:normal;font-variant-caps:normal;font-variant-ligatures:normal;font-variant-numeric:normal"/>
<path d="m90.91 237.14q-0.57116 0-1.0266-0.25304-0.45548-0.25305-0.71575-0.69407-0.25304-0.44825-0.25304-1.0122 0-0.56392 0.25304-1.0049 0.26027-0.44825 0.71575-0.69407 0.45548-0.25304 1.0266-0.25304t1.0194 0.25304q0.45548 0.24582 0.70852 0.69407 0.26027 0.44102 0.26027 1.0049 0 0.56393-0.26027 1.0122-0.25304 0.44102-0.70852 0.69407-0.44825 0.25304-1.0194 0.25304zm0-0.60731q0.36872 0 0.65792-0.16628 0.29642-0.17352 0.46271-0.47717 0.16629-0.31088 0.16629-0.70853 0-0.39764-0.16629-0.70129-0.16629-0.31088-0.46271-0.47717-0.28919-0.16629-0.65792-0.16629-0.36872 0-0.66514 0.16629-0.28919 0.16629-0.46271 0.47717-0.16629 0.30365-0.16629 0.70129 0 0.39765 0.16629 0.70853 0.17352 0.30365 0.46271 0.47717 0.29642 0.16628 0.66514 0.16628z" style="font-feature-settings:normal;font-variant-caps:normal;font-variant-ligatures:normal;font-variant-numeric:normal"/>
<path d="m95.528 237.14q-0.58562 0-1.0483-0.25304-0.45548-0.25305-0.71575-0.69407-0.26027-0.44825-0.26027-1.0122 0-0.56392 0.26027-1.0049 0.26027-0.44825 0.71575-0.69407 0.46271-0.25304 1.0483-0.25304 0.52055 0 0.92542 0.20966 0.4121 0.20967 0.63623 0.60731l-0.52778 0.3398q-0.18075-0.27473-0.44825-0.4121t-0.59285-0.13737q-0.37595 0-0.6796 0.16629-0.29642 0.16629-0.46994 0.47717-0.16629 0.30365-0.16629 0.70129 0 0.40488 0.16629 0.71576 0.17352 0.30365 0.46994 0.46994 0.30365 0.16628 0.6796 0.16628 0.32534 0 0.59285-0.13736 0.2675-0.13737 0.44825-0.4121l0.52778 0.33257q-0.22412 0.39764-0.63623 0.61453-0.40487 0.20967-0.92542 0.20967z" style="font-feature-settings:normal;font-variant-caps:normal;font-variant-ligatures:normal;font-variant-numeric:normal"/>
</g>
<g transform="scale(1 .99998)" style="font-feature-settings:normal;font-variant-caps:normal;font-variant-ligatures:normal;font-variant-numeric:normal" aria-label="platform-stages.adoc">
<path d="m49.086 220.73q0.5567 0 0.99772 0.24582 0.44102 0.24581 0.68683 0.68683 0.25304 0.44102 0.25304 1.0194 0 0.57838-0.25304 1.0266-0.24581 0.44102-0.68683 0.68684-0.44102 0.24581-0.99772 0.24581-0.4121 0-0.75913-0.15905-0.3398-0.15906-0.57839-0.46271v1.981h-0.69406v-5.2344h0.66514v0.60731q0.23136-0.31812 0.58562-0.47717 0.35426-0.16629 0.78082-0.16629zm-0.05784 3.304q0.36872 0 0.65792-0.16629 0.29642-0.17352 0.46271-0.47717 0.17352-0.31088 0.17352-0.70852t-0.17352-0.7013q-0.16629-0.31088-0.46271-0.47717-0.28919-0.16628-0.65792-0.16628-0.36149 0-0.65792 0.17351-0.28919 0.16629-0.46271 0.46994-0.16629 0.30366-0.16629 0.7013t0.16629 0.70852q0.16629 0.30365 0.46271 0.47717 0.29642 0.16629 0.65792 0.16629z" style="font-feature-settings:normal;font-variant-caps:normal;font-variant-ligatures:normal;font-variant-numeric:normal"/>
<path d="m51.983 219.24h0.69406v5.3645h-0.69406z" style="font-feature-settings:normal;font-variant-caps:normal;font-variant-ligatures:normal;font-variant-numeric:normal"/>
<path d="m55.397 220.73q0.79528 0 1.2146 0.39041 0.42656 0.39041 0.42656 1.164v2.3135h-0.65792v-0.50609q-0.17352 0.26751-0.49886 0.41211-0.31811 0.13736-0.75913 0.13736-0.64346 0-1.0339-0.31088-0.38318-0.31088-0.38318-0.81697t0.36872-0.80974q0.36872-0.31089 1.1712-0.31089h1.0989v-0.13736q0-0.44825-0.26028-0.68684-0.26027-0.23858-0.76636-0.23858-0.3398 0-0.66514 0.11567-0.32534 0.10845-0.54947 0.29643l-0.28919-0.52055q0.29642-0.23858 0.70852-0.36149 0.4121-0.13014 0.87481-0.13014zm-0.15906 3.3763q0.39764 0 0.68683-0.17351 0.28919-0.18075 0.41933-0.50609v-0.53501h-1.07q-0.88204 0-0.88204 0.59285 0 0.28919 0.22412 0.45548 0.22412 0.16628 0.62177 0.16628z" style="font-feature-settings:normal;font-variant-caps:normal;font-variant-ligatures:normal;font-variant-numeric:normal"/>
<path d="m60.477 224.38q-0.15183 0.13014-0.37595 0.20243-0.22412 0.0651-0.46271 0.0651-0.57839 0-0.8965-0.31088-0.31811-0.31088-0.31811-0.88927v-2.1039h-0.65069v-0.57116h0.65069v-0.83866h0.69406v0.83866h1.0989v0.57116h-1.0989v2.075q0 0.31088 0.15183 0.47717 0.15906 0.16629 0.44825 0.16629 0.31811 0 0.54224-0.18075z" style="font-feature-settings:normal;font-variant-caps:normal;font-variant-ligatures:normal;font-variant-numeric:normal"/>
<path d="m62.719 219.76q-0.62177 0-0.62177 0.67238v0.33257h1.1134v0.57116h-1.0989v3.2606h-0.69406v-3.2606h-0.65068v-0.57116h0.65068v-0.3398q0-0.57116 0.33257-0.90373 0.33257-0.33257 0.93265-0.33257 0.23135 0 0.43379 0.0578 0.20244 0.0578 0.34703 0.16629l-0.20966 0.52778q-0.23858-0.18075-0.53501-0.18075z" style="font-feature-settings:normal;font-variant-caps:normal;font-variant-ligatures:normal;font-variant-numeric:normal"/>
<path d="m65.457 224.64q-0.57116 0-1.0266-0.25304-0.45548-0.25305-0.71575-0.69407-0.25304-0.44825-0.25304-1.0122 0-0.56393 0.25304-1.005 0.26027-0.44825 0.71575-0.69406 0.45548-0.25305 1.0266-0.25305t1.0194 0.25305q0.45548 0.24581 0.70852 0.69406 0.26027 0.44102 0.26027 1.005 0 0.56392-0.26027 1.0122-0.25304 0.44102-0.70852 0.69407-0.44825 0.25304-1.0194 0.25304zm0-0.6073q0.36872 0 0.65792-0.16629 0.29642-0.17352 0.46271-0.47717 0.16629-0.31088 0.16629-0.70852t-0.16629-0.7013q-0.16629-0.31088-0.46271-0.47717-0.28919-0.16628-0.65792-0.16628-0.36872 0-0.66514 0.16628-0.28919 0.16629-0.46271 0.47717-0.16629 0.30366-0.16629 0.7013t0.16629 0.70852q0.17352 0.30365 0.46271 0.47717 0.29642 0.16629 0.66514 0.16629z" style="font-feature-settings:normal;font-variant-caps:normal;font-variant-ligatures:normal;font-variant-numeric:normal"/>
<path d="m69.07 221.41q0.18075-0.33258 0.53501-0.50609 0.35426-0.17352 0.86035-0.17352v0.67238q-0.05784-7e-3 -0.15906-7e-3 -0.56393 0-0.88927 0.3398-0.31811 0.33257-0.31811 0.95434v1.9087h-0.69406v-3.8318h0.66514z" style="font-feature-settings:normal;font-variant-caps:normal;font-variant-ligatures:normal;font-variant-numeric:normal"/>
<path d="m76.107 220.73q0.72298 0 1.1423 0.41933 0.42656 0.41933 0.42656 1.2435v2.2051h-0.69406v-2.1256q0-0.5567-0.26027-0.83866-0.25304-0.28196-0.73021-0.28196-0.52778 0-0.83866 0.33257-0.31088 0.32534-0.31088 0.93988v1.9737h-0.69406v-2.1256q0-0.5567-0.26027-0.83866-0.25304-0.28196-0.73021-0.28196-0.52778 0-0.83866 0.33257-0.31088 0.32534-0.31088 0.93988v1.9737h-0.69406v-3.8318h0.66514v0.57116q0.20966-0.29643 0.54947-0.44825 0.3398-0.15906 0.77359-0.15906 0.44825 0 0.79528 0.18075 0.34703 0.18074 0.53501 0.52777 0.2169-0.33257 0.60008-0.52054 0.39041-0.18798 0.87481-0.18798z" style="font-feature-settings:normal;font-variant-caps:normal;font-variant-ligatures:normal;font-variant-numeric:normal"/>
<path d="m78.708 222.32h1.9448v0.60008h-1.9448z" style="font-feature-settings:normal;font-variant-caps:normal;font-variant-ligatures:normal;font-variant-numeric:normal"/>
<path d="m82.82 224.64q-0.46994 0-0.90373-0.12291-0.43379-0.13013-0.6796-0.32534l0.28919-0.54947q0.25304 0.18075 0.61454 0.2892t0.73021 0.10845q0.91096 0 0.91096-0.52055 0-0.17352-0.12291-0.27474-0.12291-0.10121-0.31088-0.14459-0.18075-0.0506-0.52055-0.10845-0.46271-0.0723-0.75913-0.16629-0.28919-0.094-0.49886-0.31811-0.20966-0.22412-0.20966-0.629 0-0.52054 0.43379-0.83143 0.43379-0.31811 1.164-0.31811 0.38318 0 0.76636 0.094 0.38318 0.094 0.629 0.25304l-0.29642 0.54947q-0.46994-0.30365-1.1062-0.30365-0.44102 0-0.67238 0.14459-0.23136 0.1446-0.23136 0.38319 0 0.18797 0.13014 0.29642t0.31811 0.15905q0.19521 0.0506 0.54224 0.11568 0.46271 0.0795 0.74467 0.17352 0.28919 0.0868 0.49163 0.30365 0.20244 0.2169 0.20244 0.60731 0 0.52055-0.44825 0.83143-0.44102 0.30365-1.2074 0.30365z" style="font-feature-settings:normal;font-variant-caps:normal;font-variant-ligatures:normal;font-variant-numeric:normal"/>
<path d="m87.505 224.38q-0.15183 0.13014-0.37595 0.20243-0.22412 0.0651-0.46271 0.0651-0.57839 0-0.8965-0.31088t-0.31811-0.88927v-2.1039h-0.65068v-0.57116h0.65068v-0.83866h0.69406v0.83866h1.0989v0.57116h-1.0989v2.075q0 0.31088 0.15183 0.47717 0.15906 0.16629 0.44825 0.16629 0.31811 0 0.54224-0.18075z" style="font-feature-settings:normal;font-variant-caps:normal;font-variant-ligatures:normal;font-variant-numeric:normal"/>
<path d="m89.739 220.73q0.79528 0 1.2146 0.39041 0.42656 0.39041 0.42656 1.164v2.3135h-0.65792v-0.50609q-0.17352 0.26751-0.49886 0.41211-0.31811 0.13736-0.75913 0.13736-0.64346 0-1.0339-0.31088-0.38318-0.31088-0.38318-0.81697t0.36872-0.80974q0.36872-0.31089 1.1712-0.31089h1.0989v-0.13736q0-0.44825-0.26027-0.68684-0.26027-0.23858-0.76636-0.23858-0.3398 0-0.66514 0.11567-0.32534 0.10845-0.54947 0.29643l-0.28919-0.52055q0.29642-0.23858 0.70852-0.36149 0.4121-0.13014 0.87481-0.13014zm-0.15906 3.3763q0.39764 0 0.68684-0.17351 0.28919-0.18075 0.41933-0.50609v-0.53501h-1.07q-0.88204 0-0.88204 0.59285 0 0.28919 0.22412 0.45548 0.22412 0.16628 0.62177 0.16628z" style="font-feature-settings:normal;font-variant-caps:normal;font-variant-ligatures:normal;font-variant-numeric:normal"/>
<path d="m96.358 220.77v3.3113q0 1.005-0.49886 1.4821-0.49886 0.4844-1.4893 0.4844-0.54224 0-1.0339-0.15183-0.49163-0.14459-0.79528-0.41933l0.33257-0.535q0.2675 0.23135 0.65792 0.36149 0.39764 0.13736 0.81697 0.13736 0.67238 0 0.99049-0.31811 0.32534-0.31811 0.32534-0.9688v-0.30365q-0.24581 0.29642-0.60731 0.44825-0.35426 0.1446-0.77359 0.1446-0.54947 0-0.99772-0.23136-0.44102-0.23858-0.69406-0.65791-0.25304-0.42656-0.25304-0.9688t0.25304-0.96157q0.25304-0.42656 0.69406-0.65791 0.44825-0.23136 0.99772-0.23136 0.43379 0 0.80251 0.15906 0.37595 0.15905 0.61454 0.46994v-0.59285zm-1.9954 3.0654q0.37595 0 0.67237-0.15906 0.30365-0.15905 0.46994-0.44102 0.17352-0.28919 0.17352-0.65068 0-0.5567-0.36872-0.8965-0.36872-0.34703-0.94711-0.34703-0.58562 0-0.95434 0.34703-0.36872 0.3398-0.36872 0.8965 0 0.36149 0.16629 0.65068 0.17352 0.28197 0.46994 0.44102 0.30365 0.15906 0.68684 0.15906z" style="font-feature-settings:normal;font-variant-caps:normal;font-variant-ligatures:normal;font-variant-numeric:normal"/>
<path d="m101.14 222.71q0 0.0795-0.0145 0.20966h-3.1088q0.06507 0.50609 0.44102 0.81697 0.38318 0.30366 0.94711 0.30366 0.68683 0 1.1062-0.46271l0.38318 0.44825q-0.26027 0.30365-0.65068 0.46271-0.38318 0.15905-0.86035 0.15905-0.60731 0-1.0772-0.24581-0.46994-0.25305-0.73021-0.7013-0.25304-0.44825-0.25304-1.0122 0-0.5567 0.24581-1.005 0.25304-0.44825 0.68684-0.69406 0.44102-0.25305 0.99049-0.25305 0.54947 0 0.97603 0.25305 0.43379 0.24581 0.67237 0.69406 0.24582 0.44825 0.24582 1.0266zm-1.8942-1.3881q-0.49886 0-0.83866 0.30365-0.33257 0.30365-0.39041 0.79528h2.4581q-0.0578-0.4844-0.39764-0.78805-0.33257-0.31088-0.83143-0.31088z" style="font-feature-settings:normal;font-variant-caps:normal;font-variant-ligatures:normal;font-variant-numeric:normal"/>
<path d="m103.2 224.64q-0.46994 0-0.90373-0.12291-0.43379-0.13013-0.6796-0.32534l0.28919-0.54947q0.25305 0.18075 0.61454 0.2892t0.73021 0.10845q0.91096 0 0.91096-0.52055 0-0.17352-0.12291-0.27474-0.1229-0.10121-0.31088-0.14459-0.18075-0.0506-0.52055-0.10845-0.46271-0.0723-0.75913-0.16629-0.28919-0.094-0.49886-0.31811-0.20967-0.22412-0.20967-0.629 0-0.52054 0.4338-0.83143 0.43379-0.31811 1.164-0.31811 0.38318 0 0.76636 0.094t0.629 0.25304l-0.29643 0.54947q-0.46994-0.30365-1.1062-0.30365-0.44102 0-0.67238 0.14459-0.23135 0.1446-0.23135 0.38319 0 0.18797 0.13014 0.29642 0.13013 0.10845 0.31811 0.15905 0.1952 0.0506 0.54224 0.11568 0.46271 0.0795 0.74467 0.17352 0.28919 0.0868 0.49163 0.30365 0.20243 0.2169 0.20243 0.60731 0 0.52055-0.44825 0.83143-0.44102 0.30365-1.2074 0.30365z" style="font-feature-settings:normal;font-variant-caps:normal;font-variant-ligatures:normal;font-variant-numeric:normal"/>
<path d="m105.89 224.64q-0.20243 0-0.34703-0.13736-0.1446-0.1446-0.1446-0.3615 0-0.20966 0.1446-0.34703 0.1446-0.1446 0.34703-0.1446 0.20244 0 0.33981 0.13737 0.13736 0.13737 0.13736 0.35426 0 0.2169-0.14459 0.3615-0.13737 0.13736-0.33258 0.13736z" style="font-feature-settings:normal;font-variant-caps:normal;font-variant-ligatures:normal;font-variant-numeric:normal"/>
<path d="m108.83 220.73q0.79528 0 1.2146 0.39041 0.42656 0.39041 0.42656 1.164v2.3135h-0.65791v-0.50609q-0.17352 0.26751-0.49886 0.41211-0.31811 0.13736-0.75913 0.13736-0.64346 0-1.0339-0.31088-0.38318-0.31088-0.38318-0.81697t0.36872-0.80974q0.36872-0.31089 1.1712-0.31089h1.0989v-0.13736q0-0.44825-0.26028-0.68684-0.26027-0.23858-0.76636-0.23858-0.3398 0-0.66514 0.11567-0.32535 0.10845-0.54947 0.29643l-0.28919-0.52055q0.29642-0.23858 0.70852-0.36149 0.4121-0.13014 0.87481-0.13014zm-0.15906 3.3763q0.39764 0 0.68684-0.17351 0.28919-0.18075 0.41933-0.50609v-0.53501h-1.07q-0.88204 0-0.88204 0.59285 0 0.28919 0.22413 0.45548 0.22412 0.16628 0.62176 0.16628z" style="font-feature-settings:normal;font-variant-caps:normal;font-variant-ligatures:normal;font-variant-numeric:normal"/>
<path d="m115.4 219.24v5.3645h-0.66514v-0.6073q-0.23136 0.31811-0.58562 0.4844-0.35426 0.16628-0.78082 0.16628-0.5567 0-0.99772-0.24581-0.44102-0.24582-0.69407-0.68684-0.24581-0.44825-0.24581-1.0266 0-0.57839 0.24581-1.0194 0.25305-0.44102 0.69407-0.68683 0.44102-0.24582 0.99772-0.24582 0.4121 0 0.75913 0.15906 0.34703 0.15182 0.57839 0.45548v-2.1111zm-1.9738 4.8006q0.3615 0 0.65792-0.16629 0.29642-0.17352 0.46271-0.47717 0.16629-0.31088 0.16629-0.70852t-0.16629-0.7013q-0.16629-0.31088-0.46271-0.47717-0.29642-0.16628-0.65792-0.16628-0.36872 0-0.66514 0.16628-0.28919 0.16629-0.46271 0.47717-0.16629 0.30366-0.16629 0.7013t0.16629 0.70852q0.17352 0.30365 0.46271 0.47717 0.29642 0.16629 0.66514 0.16629z" style="font-feature-settings:normal;font-variant-caps:normal;font-variant-ligatures:normal;font-variant-numeric:normal"/>
<path d="m118.35 224.64q-0.57116 0-1.0266-0.25304-0.45548-0.25305-0.71575-0.69407-0.25304-0.44825-0.25304-1.0122 0-0.56393 0.25304-1.005 0.26027-0.44825 0.71575-0.69406 0.45548-0.25305 1.0266-0.25305t1.0194 0.25305q0.45548 0.24581 0.70852 0.69406 0.26028 0.44102 0.26028 1.005 0 0.56392-0.26028 1.0122-0.25304 0.44102-0.70852 0.69407-0.44825 0.25304-1.0194 0.25304zm0-0.6073q0.36872 0 0.65792-0.16629 0.29642-0.17352 0.46271-0.47717 0.16628-0.31088 0.16628-0.70852t-0.16628-0.7013q-0.16629-0.31088-0.46271-0.47717-0.2892-0.16628-0.65792-0.16628t-0.66514 0.16628q-0.2892 0.16629-0.46271 0.47717-0.16629 0.30366-0.16629 0.7013t0.16629 0.70852q0.17351 0.30365 0.46271 0.47717 0.29642 0.16629 0.66514 0.16629z" style="font-feature-settings:normal;font-variant-caps:normal;font-variant-ligatures:normal;font-variant-numeric:normal"/>
<path d="m122.97 224.64q-0.58562 0-1.0483-0.25304-0.45548-0.25305-0.71575-0.69407-0.26027-0.44825-0.26027-1.0122 0-0.56393 0.26027-1.005 0.26027-0.44825 0.71575-0.69406 0.46271-0.25305 1.0483-0.25305 0.52055 0 0.92542 0.20967 0.4121 0.20966 0.63622 0.6073l-0.52777 0.3398q-0.18075-0.27473-0.44825-0.4121-0.26751-0.13736-0.59285-0.13736-0.37595 0-0.67961 0.16628-0.29642 0.16629-0.46993 0.47717-0.16629 0.30366-0.16629 0.7013 0 0.40487 0.16629 0.71575 0.17351 0.30365 0.46993 0.46994 0.30366 0.16629 0.67961 0.16629 0.32534 0 0.59285-0.13737 0.2675-0.13737 0.44825-0.4121l0.52777 0.33257q-0.22412 0.39764-0.63622 0.61454-0.40487 0.20966-0.92542 0.20966z" style="font-feature-settings:normal;font-variant-caps:normal;font-variant-ligatures:normal;font-variant-numeric:normal"/>
</g>
<g transform="scale(1 .99998)" style="font-feature-settings:normal;font-variant-caps:normal;font-variant-ligatures:normal;font-variant-numeric:normal" aria-label="deploy.adoc">
<path d="m42.472 243.46v5.3645h-0.66514v-0.60731q-0.23136 0.31811-0.58562 0.4844t-0.78082 0.16629q-0.5567 0-0.99772-0.24582-0.44102-0.24581-0.69406-0.68683-0.24581-0.44825-0.24581-1.0266t0.24581-1.0194q0.25304-0.44102 0.69406-0.68683 0.44102-0.24582 0.99772-0.24582 0.4121 0 0.75913 0.15906 0.34703 0.15183 0.57839 0.45548v-2.1111zm-1.9737 4.8006q0.36149 0 0.65792-0.16629 0.29642-0.17351 0.46271-0.47717 0.16629-0.31088 0.16629-0.70852t-0.16629-0.70129q-0.16629-0.31089-0.46271-0.47717-0.29642-0.16629-0.65792-0.16629-0.36872 0-0.66514 0.16629-0.28919 0.16628-0.46271 0.47717-0.16629 0.30365-0.16629 0.70129t0.16629 0.70852q0.17352 0.30366 0.46271 0.47717 0.29642 0.16629 0.66514 0.16629z" style="font-feature-settings:normal;font-variant-caps:normal;font-variant-ligatures:normal;font-variant-numeric:normal"/>
<path d="m47.248 246.93q0 0.0795-0.01446 0.20966h-3.1088q0.06507 0.50609 0.44102 0.81698 0.38318 0.30365 0.94711 0.30365 0.68683 0 1.1062-0.46271l0.38318 0.44825q-0.26027 0.30365-0.65068 0.46271-0.38318 0.15906-0.86035 0.15906-0.60731 0-1.0772-0.24582-0.46994-0.25304-0.73021-0.70129-0.25304-0.44825-0.25304-1.0122 0-0.5567 0.24582-1.005 0.25304-0.44825 0.68683-0.69406 0.44102-0.25305 0.99049-0.25305 0.54947 0 0.97603 0.25305 0.43379 0.24581 0.67238 0.69406 0.24582 0.44825 0.24582 1.0266zm-1.8942-1.3881q-0.49886 0-0.83866 0.30365-0.33257 0.30366-0.39041 0.79529h2.4581q-0.05784-0.4844-0.39764-0.78806-0.33257-0.31088-0.83143-0.31088z" style="font-feature-settings:normal;font-variant-caps:normal;font-variant-ligatures:normal;font-variant-numeric:normal"/>
<path d="m50.237 244.96q0.5567 0 0.99772 0.24582 0.44102 0.24581 0.68683 0.68683 0.25304 0.44102 0.25304 1.0194t-0.25304 1.0266q-0.24581 0.44102-0.68683 0.68683-0.44102 0.24582-0.99772 0.24582-0.4121 0-0.75913-0.15906-0.3398-0.15906-0.57839-0.46271v1.981h-0.69406v-5.2344h0.66514v0.60731q0.23136-0.31811 0.58562-0.47717 0.35426-0.16629 0.78082-0.16629zm-0.05784 3.304q0.36872 0 0.65792-0.16629 0.29642-0.17351 0.46271-0.47717 0.17352-0.31088 0.17352-0.70852t-0.17352-0.70129q-0.16629-0.31089-0.46271-0.47717-0.28919-0.16629-0.65792-0.16629-0.36149 0-0.65792 0.17352-0.28919 0.16628-0.46271 0.46994-0.16629 0.30365-0.16629 0.70129t0.16629 0.70852q0.16629 0.30366 0.46271 0.47717 0.29642 0.16629 0.65792 0.16629z" style="font-feature-settings:normal;font-variant-caps:normal;font-variant-ligatures:normal;font-variant-numeric:normal"/>
<path d="m53.133 243.46h0.69406v5.3645h-0.69406z" style="font-feature-settings:normal;font-variant-caps:normal;font-variant-ligatures:normal;font-variant-numeric:normal"/>
<path d="m56.794 248.87q-0.57116 0-1.0266-0.25305-0.45548-0.25304-0.71575-0.69406-0.25304-0.44825-0.25304-1.0122t0.25304-1.005q0.26027-0.44825 0.71575-0.69406 0.45548-0.25305 1.0266-0.25305t1.0194 0.25305q0.45548 0.24581 0.70852 0.69406 0.26027 0.44102 0.26027 1.005t-0.26027 1.0122q-0.25304 0.44102-0.70852 0.69406-0.44825 0.25305-1.0194 0.25305zm0-0.60731q0.36872 0 0.65792-0.16629 0.29642-0.17351 0.46271-0.47717 0.16629-0.31088 0.16629-0.70852t-0.16629-0.70129q-0.16629-0.31089-0.46271-0.47717-0.28919-0.16629-0.65792-0.16629-0.36872 0-0.66514 0.16629-0.28919 0.16628-0.46271 0.47717-0.16629 0.30365-0.16629 0.70129t0.16629 0.70852q0.17352 0.30366 0.46271 0.47717 0.29642 0.16629 0.66514 0.16629z" style="font-feature-settings:normal;font-variant-caps:normal;font-variant-ligatures:normal;font-variant-numeric:normal"/>
<path d="m63.02 244.99-1.8581 4.215q-0.24582 0.58561-0.57839 0.8242-0.32534 0.23858-0.78805 0.23858-0.28196 0-0.54947-0.094-0.26027-0.0868-0.43379-0.26028l0.29642-0.52055q0.29642 0.28197 0.68684 0.28197 0.25304 0 0.41933-0.13737 0.17352-0.13014 0.31088-0.45548l0.12291-0.2675-1.6918-3.8246h0.72298l1.3375 3.0654 1.3231-3.0654z" style="font-feature-settings:normal;font-variant-caps:normal;font-variant-ligatures:normal;font-variant-numeric:normal"/>
<path d="m63.594 248.87q-0.20244 0-0.34703-0.13737-0.1446-0.1446-0.1446-0.36149 0-0.20967 0.1446-0.34704 0.1446-0.14459 0.34703-0.14459 0.20244 0 0.3398 0.13736 0.13737 0.13737 0.13737 0.35427 0 0.21689-0.1446 0.36149-0.13737 0.13737-0.33257 0.13737z" style="font-feature-settings:normal;font-variant-caps:normal;font-variant-ligatures:normal;font-variant-numeric:normal"/>
<path d="m66.531 244.96q0.79528 0 1.2146 0.39042 0.42656 0.39041 0.42656 1.164v2.3136h-0.65792v-0.50609q-0.17352 0.2675-0.49886 0.4121-0.31811 0.13737-0.75913 0.13737-0.64346 0-1.0339-0.31089-0.38318-0.31088-0.38318-0.81697t0.36872-0.80974q0.36872-0.31088 1.1712-0.31088h1.0989v-0.13737q0-0.44825-0.26027-0.68683-0.26027-0.23859-0.76636-0.23859-0.3398 0-0.66514 0.11568-0.32534 0.10845-0.54947 0.29642l-0.28919-0.52055q0.29642-0.23858 0.70852-0.36149 0.4121-0.13014 0.87481-0.13014zm-0.15906 3.3763q0.39764 0 0.68684-0.17352 0.28919-0.18074 0.41933-0.50609v-0.535h-1.07q-0.88204 0-0.88204 0.59284 0 0.2892 0.22412 0.45548 0.22412 0.16629 0.62176 0.16629z" style="font-feature-settings:normal;font-variant-caps:normal;font-variant-ligatures:normal;font-variant-numeric:normal"/>
<path d="m73.1 243.46v5.3645h-0.66514v-0.60731q-0.23136 0.31811-0.58562 0.4844t-0.78082 0.16629q-0.5567 0-0.99772-0.24582-0.44102-0.24581-0.69406-0.68683-0.24581-0.44825-0.24581-1.0266t0.24581-1.0194q0.25304-0.44102 0.69406-0.68683 0.44102-0.24582 0.99772-0.24582 0.4121 0 0.75913 0.15906 0.34703 0.15183 0.57839 0.45548v-2.1111zm-1.9737 4.8006q0.36149 0 0.65792-0.16629 0.29642-0.17351 0.46271-0.47717 0.16629-0.31088 0.16629-0.70852t-0.16629-0.70129q-0.16629-0.31089-0.46271-0.47717-0.29642-0.16629-0.65792-0.16629-0.36872 0-0.66514 0.16629-0.28919 0.16628-0.46271 0.47717-0.16629 0.30365-0.16629 0.70129t0.16629 0.70852q0.17352 0.30366 0.46271 0.47717 0.29642 0.16629 0.66514 0.16629z" style="font-feature-settings:normal;font-variant-caps:normal;font-variant-ligatures:normal;font-variant-numeric:normal"/>
<path d="m76.054 248.87q-0.57116 0-1.0266-0.25305-0.45548-0.25304-0.71575-0.69406-0.25304-0.44825-0.25304-1.0122t0.25304-1.005q0.26027-0.44825 0.71575-0.69406 0.45548-0.25305 1.0266-0.25305t1.0194 0.25305q0.45548 0.24581 0.70852 0.69406 0.26027 0.44102 0.26027 1.005t-0.26027 1.0122q-0.25304 0.44102-0.70852 0.69406-0.44825 0.25305-1.0194 0.25305zm0-0.60731q0.36872 0 0.65792-0.16629 0.29642-0.17351 0.46271-0.47717 0.16629-0.31088 0.16629-0.70852t-0.16629-0.70129q-0.16629-0.31089-0.46271-0.47717-0.28919-0.16629-0.65792-0.16629-0.36872 0-0.66514 0.16629-0.28919 0.16628-0.46271 0.47717-0.16629 0.30365-0.16629 0.70129t0.16629 0.70852q0.17352 0.30366 0.46271 0.47717 0.29642 0.16629 0.66514 0.16629z" style="font-feature-settings:normal;font-variant-caps:normal;font-variant-ligatures:normal;font-variant-numeric:normal"/>
<path d="m80.673 248.87q-0.58562 0-1.0483-0.25305-0.45548-0.25304-0.71575-0.69406-0.26027-0.44825-0.26027-1.0122t0.26027-1.005q0.26027-0.44825 0.71575-0.69406 0.46271-0.25305 1.0483-0.25305 0.52055 0 0.92542 0.20967 0.4121 0.20966 0.63622 0.60731l-0.52778 0.3398q-0.18075-0.27474-0.44825-0.4121-0.2675-0.13737-0.59285-0.13737-0.37595 0-0.6796 0.16629-0.29642 0.16628-0.46994 0.47717-0.16629 0.30365-0.16629 0.70129 0 0.40487 0.16629 0.71575 0.17352 0.30366 0.46994 0.46994 0.30365 0.16629 0.6796 0.16629 0.32534 0 0.59285-0.13737 0.2675-0.13736 0.44825-0.4121l0.52778 0.33257q-0.22412 0.39765-0.63622 0.61454-0.40487 0.20967-0.92542 0.20967z" style="font-feature-settings:normal;font-variant-caps:normal;font-variant-ligatures:normal;font-variant-numeric:normal"/>
</g>
</g>
<path d="m29.249 241.57c-0.29991 0-0.54149 0.34051-0.54149 0.76345v6.1239c0 0.42294 0.24158 0.76345 0.54149 0.76345h4.872c0.29991 0 0.54149-0.34051 0.54149-0.76345v-5.6564c-0.86502 0.16683-1.2923-0.34033-1.1591-1.2309z" fill="#fff" stroke="#000" stroke-dashoffset="72" stroke-linecap="round" stroke-linejoin="round" stroke-width=".52917"/>
<g fill="none" stroke="#000" stroke-linecap="round">
<path d="m33.521 241.58 1.1164 1.1901" stroke-width=".50271"/>
<g stroke-width=".26458px">
<path d="m29.632 243.64h4.1055"/>
<path d="m29.632 244.62h4.1058"/>
<path d="m29.632 245.6h2.0528"/>
<path d="m29.632 246.57h4.1056"/>
<path d="m29.632 247.55h3.0792"/>
</g>
</g>
<g>
<g transform="scale(1 .99998)" fill="#242424" stroke-width=".0727px" style="font-feature-settings:normal;font-variant-caps:normal;font-variant-ligatures:normal;font-variant-numeric:normal" aria-label="index.adoc">
<path d="m38.857 257.49h0.69406v3.8318h-0.69406zm0.34703-0.73745q-0.20244 0-0.3398-0.13013-0.13014-0.13014-0.13014-0.31812 0-0.18797 0.13014-0.31811 0.13737-0.13737 0.3398-0.13737 0.20244 0 0.33257 0.13014 0.13737 0.12291 0.13737 0.31088 0 0.19521-0.13737 0.33258-0.13014 0.13013-0.33257 0.13013z" style="font-feature-settings:normal;font-variant-caps:normal;font-variant-ligatures:normal;font-variant-numeric:normal"/>
<path d="m42.922 257.46q0.73021 0 1.1568 0.42656 0.43379 0.41933 0.43379 1.2363v2.2051h-0.69406v-2.1256q0-0.5567-0.2675-0.83866-0.2675-0.28197-0.76636-0.28197-0.56393 0-0.88927 0.33257-0.32534 0.32535-0.32534 0.93988v1.9738h-0.69406v-3.8318h0.66514v0.57838q0.20966-0.29642 0.56393-0.45548 0.36149-0.15905 0.81697-0.15905z" style="font-feature-settings:normal;font-variant-caps:normal;font-variant-ligatures:normal;font-variant-numeric:normal"/>
<path d="m49.448 255.96v5.3645h-0.66514v-0.60731q-0.23136 0.31812-0.58562 0.4844-0.35426 0.16629-0.78082 0.16629-0.5567 0-0.99772-0.24582-0.44102-0.24581-0.69406-0.68683-0.24581-0.44825-0.24581-1.0266 0-0.57838 0.24581-1.0194 0.25304-0.44102 0.69406-0.68684 0.44102-0.24581 0.99772-0.24581 0.4121 0 0.75913 0.15905 0.34703 0.15183 0.57839 0.45548v-2.1111zm-1.9737 4.8006q0.36149 0 0.65792-0.16628 0.29642-0.17352 0.46271-0.47717 0.16629-0.31089 0.16629-0.70853t-0.16629-0.70129q-0.16629-0.31088-0.46271-0.47717-0.29642-0.16629-0.65792-0.16629-0.36872 0-0.66514 0.16629-0.28919 0.16629-0.46271 0.47717-0.16629 0.30365-0.16629 0.70129t0.16629 0.70853q0.17352 0.30365 0.46271 0.47717 0.29642 0.16628 0.66514 0.16628z" style="font-feature-settings:normal;font-variant-caps:normal;font-variant-ligatures:normal;font-variant-numeric:normal"/>
<path d="m54.224 259.43q0 0.0795-0.01446 0.20967h-3.1088q0.06507 0.50609 0.44102 0.81697 0.38318 0.30365 0.94711 0.30365 0.68683 0 1.1062-0.46271l0.38318 0.44825q-0.26027 0.30365-0.65068 0.46271-0.38318 0.15906-0.86035 0.15906-0.60731 0-1.0772-0.24582-0.46994-0.25304-0.73021-0.70129-0.25304-0.44825-0.25304-1.0122 0-0.5567 0.24581-1.005 0.25304-0.44824 0.68684-0.69406 0.44102-0.25304 0.99049-0.25304 0.54947 0 0.97603 0.25304 0.43379 0.24582 0.67238 0.69406 0.24581 0.44825 0.24581 1.0266zm-1.8942-1.3881q-0.49886 0-0.83866 0.30366-0.33257 0.30365-0.39041 0.79528h2.4581q-0.05784-0.4844-0.39764-0.78805-0.33257-0.31089-0.83143-0.31089z" style="font-feature-settings:normal;font-variant-caps:normal;font-variant-ligatures:normal;font-variant-numeric:normal"/>
<path d="m57.511 261.32-1.1062-1.4677-1.1206 1.4677h-0.77359l1.511-1.9593-1.4387-1.8725h0.77359l1.0556 1.3809 1.0483-1.3809h0.75913l-1.446 1.8725 1.5255 1.9593z" style="font-feature-settings:normal;font-variant-caps:normal;font-variant-ligatures:normal;font-variant-numeric:normal"/>
<path d="m59.23 261.37q-0.20244 0-0.34703-0.13737-0.1446-0.1446-0.1446-0.36149 0-0.20967 0.1446-0.34703 0.1446-0.1446 0.34703-0.1446 0.20244 0 0.3398 0.13737 0.13737 0.13736 0.13737 0.35426 0 0.21689-0.1446 0.36149-0.13737 0.13737-0.33257 0.13737z" style="font-feature-settings:normal;font-variant-caps:normal;font-variant-ligatures:normal;font-variant-numeric:normal"/>
<path d="m62.168 257.46q0.79528 0 1.2146 0.39041 0.42656 0.39041 0.42656 1.164v2.3136h-0.65792v-0.50609q-0.17352 0.2675-0.49886 0.4121-0.31811 0.13737-0.75913 0.13737-0.64346 0-1.0339-0.31089-0.38318-0.31088-0.38318-0.81697t0.36872-0.80974q0.36872-0.31088 1.1712-0.31088h1.0989v-0.13737q0-0.44825-0.26027-0.68683-0.26027-0.23859-0.76636-0.23859-0.3398 0-0.66514 0.11568-0.32534 0.10845-0.54947 0.29642l-0.28919-0.52054q0.29642-0.23859 0.70852-0.3615 0.4121-0.13013 0.87481-0.13013zm-0.15906 3.3763q0.39764 0 0.68683-0.17352 0.28919-0.18074 0.41933-0.50608v-0.53501h-1.07q-0.88204 0-0.88204 0.59284 0 0.2892 0.22412 0.45548 0.22412 0.16629 0.62177 0.16629z" style="font-feature-settings:normal;font-variant-caps:normal;font-variant-ligatures:normal;font-variant-numeric:normal"/>
<path d="m68.737 255.96v5.3645h-0.66514v-0.60731q-0.23135 0.31812-0.58562 0.4844-0.35426 0.16629-0.78082 0.16629-0.5567 0-0.99772-0.24582-0.44102-0.24581-0.69406-0.68683-0.24582-0.44825-0.24582-1.0266 0-0.57838 0.24582-1.0194 0.25304-0.44102 0.69406-0.68684 0.44102-0.24581 0.99772-0.24581 0.4121 0 0.75913 0.15905 0.34703 0.15183 0.57839 0.45548v-2.1111zm-1.9737 4.8006q0.36149 0 0.65792-0.16628 0.29642-0.17352 0.46271-0.47717 0.16629-0.31089 0.16629-0.70853t-0.16629-0.70129q-0.16629-0.31088-0.46271-0.47717-0.29642-0.16629-0.65792-0.16629-0.36872 0-0.66514 0.16629-0.28919 0.16629-0.46271 0.47717-0.16629 0.30365-0.16629 0.70129t0.16629 0.70853q0.17352 0.30365 0.46271 0.47717 0.29642 0.16628 0.66514 0.16628z" style="font-feature-settings:normal;font-variant-caps:normal;font-variant-ligatures:normal;font-variant-numeric:normal"/>
<path d="m71.691 261.37q-0.57116 0-1.0266-0.25305-0.45548-0.25304-0.71575-0.69406-0.25304-0.44825-0.25304-1.0122t0.25304-1.005q0.26027-0.44824 0.71575-0.69406 0.45548-0.25304 1.0266-0.25304t1.0194 0.25304q0.45548 0.24582 0.70852 0.69406 0.26027 0.44102 0.26027 1.005t-0.26027 1.0122q-0.25304 0.44102-0.70852 0.69406-0.44825 0.25305-1.0194 0.25305zm0-0.60731q0.36872 0 0.65792-0.16628 0.29642-0.17352 0.46271-0.47717 0.16629-0.31089 0.16629-0.70853t-0.16629-0.70129q-0.16629-0.31088-0.46271-0.47717-0.28919-0.16629-0.65792-0.16629-0.36872 0-0.66514 0.16629-0.28919 0.16629-0.46271 0.47717-0.16629 0.30365-0.16629 0.70129t0.16629 0.70853q0.17352 0.30365 0.46271 0.47717 0.29642 0.16628 0.66514 0.16628z" style="font-feature-settings:normal;font-variant-caps:normal;font-variant-ligatures:normal;font-variant-numeric:normal"/>
<path d="m76.309 261.37q-0.58562 0-1.0483-0.25305-0.45548-0.25304-0.71575-0.69406-0.26027-0.44825-0.26027-1.0122t0.26027-1.005q0.26027-0.44824 0.71575-0.69406 0.46271-0.25304 1.0483-0.25304 0.52055 0 0.92542 0.20966 0.4121 0.20967 0.63623 0.60731l-0.52778 0.3398q-0.18075-0.27473-0.44825-0.4121t-0.59285-0.13737q-0.37595 0-0.6796 0.16629-0.29642 0.16629-0.46994 0.47717-0.16629 0.30365-0.16629 0.70129 0 0.40487 0.16629 0.71576 0.17352 0.30365 0.46994 0.46994 0.30365 0.16628 0.6796 0.16628 0.32534 0 0.59285-0.13737 0.2675-0.13736 0.44825-0.4121l0.52778 0.33258q-0.22412 0.39764-0.63623 0.61453-0.40487 0.20967-0.92542 0.20967z" style="font-feature-settings:normal;font-variant-caps:normal;font-variant-ligatures:normal;font-variant-numeric:normal"/>
</g>
<g transform="scale(1 .99998)" fill="#242424" stroke-width=".0727px" style="font-feature-settings:normal;font-variant-caps:normal;font-variant-ligatures:normal;font-variant-numeric:normal" aria-label=". . .">
<path d="m11.682 294.01q-0.20244 0-0.34703-0.13737-0.1446-0.14459-0.1446-0.36149 0-0.20966 0.1446-0.34703 0.1446-0.1446 0.34703-0.1446 0.20244 0 0.3398 0.13737 0.13737 0.13737 0.13737 0.35426 0 0.2169-0.1446 0.36149-0.13737 0.13737-0.33257 0.13737z" style="font-feature-settings:normal;font-variant-caps:normal;font-variant-ligatures:normal;font-variant-numeric:normal"/>
<path d="m15.269 294.01q-0.20244 0-0.34703-0.13737-0.1446-0.14459-0.1446-0.36149 0-0.20966 0.1446-0.34703 0.1446-0.1446 0.34703-0.1446 0.20244 0 0.3398 0.13737t0.13737 0.35426q0 0.2169-0.1446 0.36149-0.13737 0.13737-0.33257 0.13737z" style="font-feature-settings:normal;font-variant-caps:normal;font-variant-ligatures:normal;font-variant-numeric:normal"/>
<path d="m18.856 294.01q-0.20244 0-0.34703-0.13737-0.1446-0.14459-0.1446-0.36149 0-0.20966 0.1446-0.34703 0.1446-0.1446 0.34703-0.1446 0.20244 0 0.3398 0.13737t0.13737 0.35426q0 0.2169-0.1446 0.36149-0.13737 0.13737-0.33257 0.13737z" style="font-feature-settings:normal;font-variant-caps:normal;font-variant-ligatures:normal;font-variant-numeric:normal"/>
</g>
<path d="m37.447 217.34c-0.29991 0-0.54149 0.3405-0.54149 0.76344v6.1239c0 0.42294 0.24158 0.76344 0.54149 0.76344h4.872c0.29991 0 0.54149-0.3405 0.54149-0.76344v-5.6564c-0.86502 0.16684-1.2923-0.34032-1.1591-1.2309z" fill="#fff" stroke="#000" stroke-dashoffset="72" stroke-linecap="round" stroke-linejoin="round" stroke-width=".52917"/>
</g>
<g fill="none" stroke="#000" stroke-linecap="round">
<path d="m41.719 217.35 1.1164 1.1901" stroke-width=".50271"/>
<g stroke-width=".26458px">
<path d="m37.83 219.39h4.1055"/>
<path d="m37.83 220.37h4.1058"/>
<path d="m37.83 221.34h2.0528"/>
<path d="m37.83 222.32h4.1056"/>
<path d="m37.83 223.29h3.0792"/>
</g>
</g>
</g>
</svg>
