<?xml version="1.0" encoding="utf-8"?>
<!-- Generator: Adobe Illustrator 23.0.3, SVG Export Plug-In . SVG Version: 6.00 Build 0)  -->
<svg version="1.1"
	 id="Layer_1" xmlns:cc="http://creativecommons.org/ns#" xmlns:dc="http://purl.org/dc/elements/1.1/" xmlns:rdf="http://www.w3.org/1999/02/22-rdf-syntax-ns#"
	 xmlns="http://www.w3.org/2000/svg" xmlns:xlink="http://www.w3.org/1999/xlink" x="0px" y="0px" viewBox="0 0 127.5 105.2"
	 style="enable-background:new 0 0 127.5 105.2;" xml:space="preserve">
<style type="text/css">
	.st0{fill:#FFFFFF;}
	.st1{fill:#FFFFFF;stroke:#000000;stroke-width:0.5292;stroke-linecap:round;stroke-linejoin:round;}
	.st2{fill:none;stroke:#000000;stroke-width:0.5027;stroke-linecap:round;}
	.st3{fill:none;stroke:#000000;stroke-width:0.2646;stroke-linecap:round;}
	.st4{fill:#242424;}
	.st5{fill:#FFFFFF;stroke:#242424;stroke-width:2.1684;stroke-linecap:round;stroke-linejoin:round;}
	.st6{fill:#FFFFFF;stroke:#242424;stroke-width:2.178;stroke-linecap:round;stroke-linejoin:round;}
</style>
<title>Documentation Component ROOT Module</title>
<g transform="translate(0 -171.81)">
	<rect y="171.8" class="st0" width="127.5" height="105.2"/>
	<path class="st1" d="M29.2,241.1c-0.3,0-0.5,0.3-0.5,0.8v6.1c0,0.4,0.2,0.8,0.5,0.8h4.9c0.3,0,0.5-0.3,0.5-0.8v-5.7
		c-0.9,0.2-1.3-0.3-1.2-1.2L29.2,241.1z"/>
	<g>
		<path class="st2" d="M33.5,241.1l1.1,1.2"/>
		<g>
			<path class="st3" d="M29.6,243.1h4.1"/>
			<path class="st3" d="M29.6,244.1h4.1"/>
			<path class="st3" d="M29.6,245.1h2.1"/>
			<path class="st3" d="M29.6,246h4.1"/>
			<path class="st3" d="M29.6,247h3.1"/>
		</g>
	</g>
	<g>
		<g transform="scale(1 .99998)">
			<path class="st4" d="M19.1,176.9c0.5,0,0.9,0.1,1.1,0.4c0.3,0.3,0.4,0.7,0.4,1.2v2.2h-0.7v-2.1c0-0.4-0.1-0.7-0.3-0.8
				c-0.2-0.2-0.4-0.3-0.7-0.3c-0.4,0-0.6,0.1-0.8,0.3c-0.2,0.2-0.3,0.5-0.3,0.9v2h-0.7v-2.1c0-0.4-0.1-0.7-0.3-0.8
				c-0.2-0.2-0.4-0.3-0.7-0.3c-0.4,0-0.6,0.1-0.8,0.3c-0.2,0.2-0.3,0.5-0.3,0.9v2h-0.7V177h0.7v0.6c0.1-0.2,0.3-0.3,0.5-0.4
				c0.2-0.1,0.5-0.2,0.8-0.2c0.3,0,0.6,0.1,0.8,0.2s0.4,0.3,0.5,0.5c0.1-0.2,0.3-0.4,0.6-0.5C18.4,177,18.7,176.9,19.1,176.9
				L19.1,176.9z"/>
			<path class="st4" d="M23.6,180.8c-0.4,0-0.7-0.1-1-0.3c-0.3-0.2-0.5-0.4-0.7-0.7c-0.2-0.3-0.3-0.6-0.3-1c0-0.4,0.1-0.7,0.3-1
				c0.2-0.3,0.4-0.5,0.7-0.7c0.3-0.2,0.6-0.3,1-0.3c0.4,0,0.7,0.1,1,0.3c0.3,0.2,0.5,0.4,0.7,0.7c0.2,0.3,0.3,0.6,0.3,1
				c0,0.4-0.1,0.7-0.3,1c-0.2,0.3-0.4,0.5-0.7,0.7C24.3,180.8,24,180.8,23.6,180.8z M23.6,180.2c0.2,0,0.5-0.1,0.7-0.2
				c0.2-0.1,0.4-0.3,0.5-0.5c0.1-0.2,0.2-0.4,0.2-0.7c0-0.3-0.1-0.5-0.2-0.7c-0.1-0.2-0.3-0.4-0.5-0.5c-0.2-0.1-0.4-0.2-0.7-0.2
				c-0.2,0-0.5,0.1-0.7,0.2c-0.2,0.1-0.3,0.3-0.5,0.5c-0.1,0.2-0.2,0.4-0.2,0.7s0.1,0.5,0.2,0.7c0.1,0.2,0.3,0.4,0.5,0.5
				C23.1,180.2,23.3,180.2,23.6,180.2z"/>
			<path class="st4" d="M30.1,175.4v5.4h-0.7v-0.6c-0.2,0.2-0.3,0.4-0.6,0.5c-0.2,0.1-0.5,0.2-0.8,0.2c-0.4,0-0.7-0.1-1-0.2
				c-0.3-0.2-0.5-0.4-0.7-0.7c-0.2-0.3-0.2-0.6-0.2-1c0-0.4,0.1-0.7,0.2-1c0.2-0.3,0.4-0.5,0.7-0.7c0.3-0.2,0.6-0.2,1-0.2
				c0.3,0,0.5,0.1,0.8,0.2c0.2,0.1,0.4,0.3,0.6,0.5v-2.1L30.1,175.4z M28.2,180.2c0.2,0,0.5-0.1,0.7-0.2c0.2-0.1,0.4-0.3,0.5-0.5
				c0.1-0.2,0.2-0.4,0.2-0.7s-0.1-0.5-0.2-0.7c-0.1-0.2-0.3-0.4-0.5-0.5s-0.4-0.2-0.7-0.2c-0.2,0-0.5,0.1-0.7,0.2
				c-0.2,0.1-0.3,0.3-0.5,0.5c-0.1,0.2-0.2,0.4-0.2,0.7c0,0.3,0.1,0.5,0.2,0.7c0.1,0.2,0.3,0.4,0.5,0.5
				C27.7,180.2,27.9,180.2,28.2,180.2z"/>
			<path class="st4" d="M35,177v3.8h-0.7v-0.6c-0.1,0.2-0.3,0.4-0.6,0.5c-0.2,0.1-0.5,0.2-0.7,0.2c-0.5,0-0.9-0.1-1.2-0.4
				c-0.3-0.3-0.4-0.7-0.4-1.3V177h0.7v2.1c0,0.4,0.1,0.7,0.3,0.8c0.2,0.2,0.4,0.3,0.8,0.3c0.4,0,0.7-0.1,0.9-0.3s0.3-0.5,0.3-0.9v-2
				L35,177z"/>
			<path class="st4" d="M36.3,175.4H37v5.4h-0.7V175.4z"/>
			<path class="st4" d="M41.8,178.9c0,0.1,0,0.1,0,0.2h-3.1c0,0.3,0.2,0.6,0.4,0.8c0.3,0.2,0.6,0.3,0.9,0.3c0.5,0,0.8-0.2,1.1-0.5
				l0.4,0.4c-0.2,0.2-0.4,0.4-0.7,0.5c-0.3,0.1-0.5,0.2-0.9,0.2c-0.4,0-0.8-0.1-1.1-0.2c-0.3-0.2-0.6-0.4-0.7-0.7
				c-0.2-0.3-0.3-0.6-0.3-1c0-0.4,0.1-0.7,0.2-1c0.2-0.3,0.4-0.5,0.7-0.7c0.3-0.2,0.6-0.3,1-0.3c0.4,0,0.7,0.1,1,0.3
				c0.3,0.2,0.5,0.4,0.7,0.7C41.8,178.2,41.8,178.5,41.8,178.9L41.8,178.9z M39.9,177.5c-0.3,0-0.6,0.1-0.8,0.3
				c-0.2,0.2-0.4,0.5-0.4,0.8h2.5c0-0.3-0.2-0.6-0.4-0.8C40.5,177.6,40.3,177.5,39.9,177.5L39.9,177.5z"/>
			<path class="st4" d="M43.9,180.8c-0.3,0-0.6,0-0.9-0.1c-0.3-0.1-0.5-0.2-0.7-0.3l0.3-0.5c0.2,0.1,0.4,0.2,0.6,0.3
				c0.2,0.1,0.5,0.1,0.7,0.1c0.6,0,0.9-0.2,0.9-0.5c0-0.1,0-0.2-0.1-0.3c-0.1-0.1-0.2-0.1-0.3-0.1c-0.1,0-0.3-0.1-0.5-0.1
				c-0.3,0-0.6-0.1-0.8-0.2c-0.2-0.1-0.4-0.2-0.5-0.3s-0.2-0.4-0.2-0.6c0-0.3,0.1-0.6,0.4-0.8c0.3-0.2,0.7-0.3,1.2-0.3
				c0.3,0,0.5,0,0.8,0.1c0.3,0.1,0.5,0.1,0.6,0.3l-0.3,0.5c-0.3-0.2-0.7-0.3-1.1-0.3c-0.3,0-0.5,0-0.7,0.1c-0.2,0.1-0.2,0.2-0.2,0.4
				c0,0.1,0,0.2,0.1,0.3c0.1,0.1,0.2,0.1,0.3,0.2c0.1,0,0.3,0.1,0.5,0.1c0.3,0.1,0.6,0.1,0.7,0.2c0.2,0.1,0.4,0.2,0.5,0.3
				c0.1,0.1,0.2,0.3,0.2,0.6c0,0.3-0.1,0.6-0.4,0.8C44.8,180.7,44.4,180.8,43.9,180.8L43.9,180.8z"/>
		</g>
		<g transform="matrix(.24549 0 0 .24258 -21.298 130.92)">
			<path class="st5" d="M102.2,182c-1.2,0-2.1,0.9-2.1,2.1v20.8c0,1.3,1.2,2.3,2.7,2.3h23.7c1.5,0,2.7-1,2.7-2.3v-17.5
				c0-1.3-1.2-2.3-2.7-2.3h-13c-1.6,0-2.7-3.2-4.3-3.2L102.2,182z"/>
			<path class="st6" d="M105,188.1h23.8c1.5,0,2.5,1,2.4,2.1l-2,14.8c-0.2,1.2-1.5,2.1-2.9,2.1h-23.8c-1.5,0-2.5-1-2.4-2.1l2-14.8
				C102.3,189.1,103.6,188.1,105,188.1z"/>
		</g>
		<g transform="scale(1 .99998)">
			<path class="st4" d="M25.9,191l-1.1-1.6c-0.1,0-0.2,0-0.3,0h-1.3v1.5h-0.7v-5.1h2c0.7,0,1.2,0.2,1.5,0.5c0.4,0.3,0.6,0.7,0.6,1.3
				c0,0.4-0.1,0.7-0.3,1c-0.2,0.3-0.5,0.5-0.8,0.6l1.2,1.7L25.9,191z M24.5,188.8c0.5,0,0.8-0.1,1-0.3c0.2-0.2,0.4-0.5,0.4-0.8
				s-0.1-0.6-0.4-0.8c-0.2-0.2-0.6-0.3-1-0.3h-1.2v2.3L24.5,188.8z"/>
			<path class="st4" d="M30.1,191.1c-0.5,0-1-0.1-1.4-0.3c-0.4-0.2-0.7-0.5-1-0.9c-0.2-0.4-0.3-0.8-0.3-1.3c0-0.5,0.1-0.9,0.3-1.3
				c0.2-0.4,0.6-0.7,1-0.9c0.4-0.2,0.9-0.3,1.4-0.3c0.5,0,1,0.1,1.4,0.3c0.4,0.2,0.7,0.5,1,0.9c0.2,0.4,0.3,0.8,0.3,1.3
				c0,0.5-0.1,0.9-0.3,1.3c-0.2,0.4-0.6,0.7-1,0.9C31.1,190.9,30.6,191,30.1,191.1L30.1,191.1z M30.1,190.4c0.4,0,0.7-0.1,1-0.3
				c0.3-0.2,0.5-0.4,0.7-0.7c0.2-0.3,0.3-0.6,0.3-1c0-0.4-0.1-0.7-0.3-1c-0.2-0.3-0.4-0.5-0.7-0.7c-0.3-0.2-0.6-0.3-1-0.3
				c-0.4,0-0.7,0.1-1,0.3c-0.3,0.2-0.5,0.4-0.7,0.7c-0.2,0.3-0.3,0.6-0.3,1c0,0.4,0.1,0.7,0.3,1c0.2,0.3,0.4,0.5,0.7,0.7
				C29.4,190.3,29.7,190.4,30.1,190.4z"/>
			<path class="st4" d="M36.2,191.1c-0.5,0-1-0.1-1.4-0.3c-0.4-0.2-0.7-0.5-1-0.9c-0.2-0.4-0.3-0.8-0.3-1.3c0-0.5,0.1-0.9,0.3-1.3
				c0.2-0.4,0.6-0.7,1-0.9c0.4-0.2,0.9-0.3,1.4-0.3c0.5,0,1,0.1,1.4,0.3c0.4,0.2,0.7,0.5,1,0.9c0.2,0.4,0.3,0.8,0.3,1.3
				c0,0.5-0.1,0.9-0.3,1.3c-0.2,0.4-0.6,0.7-1,0.9C37.1,190.9,36.7,191,36.2,191.1L36.2,191.1z M36.2,190.4c0.4,0,0.7-0.1,1-0.3
				c0.3-0.2,0.5-0.4,0.7-0.7c0.2-0.3,0.3-0.6,0.3-1c0-0.4-0.1-0.7-0.3-1c-0.2-0.3-0.4-0.5-0.7-0.7c-0.3-0.2-0.6-0.3-1-0.3
				c-0.4,0-0.7,0.1-1,0.3c-0.3,0.2-0.5,0.4-0.7,0.7c-0.2,0.3-0.3,0.6-0.3,1c0,0.4,0.1,0.7,0.3,1c0.2,0.3,0.4,0.5,0.7,0.7
				C35.5,190.3,35.8,190.4,36.2,190.4z"/>
			<path class="st4" d="M40.9,186.6h-1.7v-0.6h4.2v0.6h-1.7v4.4h-0.7L40.9,186.6z"/>
		</g>
		<g transform="matrix(.24549 0 0 .24258 -13.1 141.11)">
			<path class="st5" d="M102.2,182c-1.2,0-2.1,0.9-2.1,2.1v20.8c0,1.3,1.2,2.3,2.7,2.3h23.7c1.5,0,2.7-1,2.7-2.3v-17.5
				c0-1.3-1.2-2.3-2.7-2.3h-13c-1.6,0-2.7-3.2-4.3-3.2L102.2,182z"/>
			<path class="st6" d="M105,188.1h23.8c1.5,0,2.5,1,2.4,2.1l-2,14.8c-0.2,1.2-1.5,2.1-2.9,2.1h-23.8c-1.5,0-2.5-1-2.4-2.1l2-14.8
				C102.3,189.1,103.6,188.1,105,188.1z"/>
		</g>
		<g transform="scale(1 .99998)">
			<path class="st4" d="M32.7,197.3c0.4,0,0.7,0.1,1,0.2c0.3,0.2,0.5,0.4,0.7,0.7c0.2,0.3,0.3,0.6,0.3,1c0,0.4-0.1,0.7-0.3,1
				c-0.2,0.3-0.4,0.5-0.7,0.7c-0.3,0.2-0.6,0.2-1,0.2c-0.3,0-0.5-0.1-0.8-0.2c-0.2-0.1-0.4-0.3-0.6-0.5v2h-0.7v-5.2h0.7v0.6
				c0.2-0.2,0.3-0.4,0.6-0.5C32.1,197.4,32.4,197.3,32.7,197.3L32.7,197.3z M32.6,200.6c0.2,0,0.5-0.1,0.7-0.2
				c0.2-0.1,0.4-0.3,0.5-0.5c0.1-0.2,0.2-0.4,0.2-0.7s-0.1-0.5-0.2-0.7c-0.1-0.2-0.3-0.4-0.5-0.5c-0.2-0.1-0.4-0.2-0.7-0.2
				c-0.2,0-0.5,0.1-0.7,0.2c-0.2,0.1-0.3,0.3-0.5,0.5c-0.1,0.2-0.2,0.4-0.2,0.7s0.1,0.5,0.2,0.7c0.1,0.2,0.3,0.4,0.5,0.5
				C32.2,200.6,32.4,200.6,32.6,200.6z"/>
			<path class="st4" d="M36.9,197.3c0.5,0,0.9,0.1,1.2,0.4c0.3,0.3,0.4,0.6,0.4,1.2v2.3h-0.7v-0.5c-0.1,0.2-0.3,0.3-0.5,0.4
				c-0.2,0.1-0.5,0.1-0.8,0.1c-0.4,0-0.8-0.1-1-0.3c-0.3-0.2-0.4-0.5-0.4-0.8s0.1-0.6,0.4-0.8c0.2-0.2,0.6-0.3,1.2-0.3h1.1v-0.1
				c0-0.3-0.1-0.5-0.3-0.7c-0.2-0.2-0.4-0.2-0.8-0.2c-0.2,0-0.4,0-0.7,0.1c-0.2,0.1-0.4,0.2-0.5,0.3l-0.3-0.5
				c0.2-0.2,0.4-0.3,0.7-0.4C36.3,197.4,36.6,197.3,36.9,197.3L36.9,197.3z M36.8,200.7c0.3,0,0.5-0.1,0.7-0.2
				c0.2-0.1,0.3-0.3,0.4-0.5v-0.5h-1.1c-0.6,0-0.9,0.2-0.9,0.6c0,0.2,0.1,0.3,0.2,0.5C36.3,200.6,36.5,200.7,36.8,200.7z"/>
			<path class="st4" d="M43.6,197.4v3.3c0,0.7-0.2,1.2-0.5,1.5c-0.3,0.3-0.8,0.5-1.5,0.5c-0.4,0-0.7-0.1-1-0.2
				c-0.3-0.1-0.6-0.2-0.8-0.4l0.3-0.5c0.2,0.2,0.4,0.3,0.7,0.4c0.3,0.1,0.5,0.1,0.8,0.1c0.4,0,0.8-0.1,1-0.3c0.2-0.2,0.3-0.5,0.3-1
				v-0.3c-0.2,0.2-0.4,0.3-0.6,0.4c-0.2,0.1-0.5,0.1-0.8,0.1c-0.4,0-0.7-0.1-1-0.2c-0.3-0.2-0.5-0.4-0.7-0.7c-0.2-0.3-0.3-0.6-0.3-1
				c0-0.4,0.1-0.7,0.3-1c0.2-0.3,0.4-0.5,0.7-0.7c0.3-0.2,0.6-0.2,1-0.2c0.3,0,0.6,0.1,0.8,0.2c0.3,0.1,0.5,0.3,0.6,0.5v-0.6
				L43.6,197.4z M41.6,200.4c0.3,0,0.5-0.1,0.7-0.2c0.2-0.1,0.4-0.3,0.5-0.4c0.1-0.2,0.2-0.4,0.2-0.7c0-0.4-0.1-0.7-0.4-0.9
				c-0.2-0.2-0.6-0.3-0.9-0.3c-0.4,0-0.7,0.1-1,0.3c-0.2,0.2-0.4,0.5-0.4,0.9c0,0.2,0.1,0.5,0.2,0.7c0.1,0.2,0.3,0.3,0.5,0.4
				C41.1,200.4,41.3,200.4,41.6,200.4z"/>
			<path class="st4" d="M48.3,199.3c0,0.1,0,0.1,0,0.2h-3.1c0,0.3,0.2,0.6,0.4,0.8c0.3,0.2,0.6,0.3,0.9,0.3c0.5,0,0.8-0.2,1.1-0.5
				l0.4,0.4c-0.2,0.2-0.4,0.4-0.7,0.5c-0.3,0.1-0.5,0.2-0.9,0.2c-0.4,0-0.8-0.1-1.1-0.2c-0.3-0.2-0.6-0.4-0.7-0.7
				c-0.2-0.3-0.3-0.6-0.3-1c0-0.4,0.1-0.7,0.2-1c0.2-0.3,0.4-0.5,0.7-0.7c0.3-0.2,0.6-0.3,1-0.3c0.4,0,0.7,0.1,1,0.3
				c0.3,0.2,0.5,0.4,0.7,0.7C48.3,198.6,48.3,198.9,48.3,199.3L48.3,199.3z M46.4,197.9c-0.3,0-0.6,0.1-0.8,0.3
				c-0.2,0.2-0.4,0.5-0.4,0.8h2.5c0-0.3-0.2-0.6-0.4-0.8C47.1,198,46.8,197.9,46.4,197.9L46.4,197.9z"/>
			<path class="st4" d="M50.4,201.2c-0.3,0-0.6,0-0.9-0.1c-0.3-0.1-0.5-0.2-0.7-0.3l0.3-0.5c0.2,0.1,0.4,0.2,0.6,0.3
				c0.2,0.1,0.5,0.1,0.7,0.1c0.6,0,0.9-0.2,0.9-0.5c0-0.1,0-0.2-0.1-0.3c-0.1-0.1-0.2-0.1-0.3-0.1c-0.1,0-0.3-0.1-0.5-0.1
				c-0.3,0-0.6-0.1-0.8-0.2c-0.2-0.1-0.4-0.2-0.5-0.3c-0.1-0.1-0.2-0.4-0.2-0.6c0-0.3,0.1-0.6,0.4-0.8c0.3-0.2,0.7-0.3,1.2-0.3
				c0.3,0,0.5,0,0.8,0.1c0.3,0.1,0.5,0.1,0.6,0.3l-0.3,0.5c-0.3-0.2-0.7-0.3-1.1-0.3c-0.3,0-0.5,0-0.7,0.1s-0.2,0.2-0.2,0.4
				c0,0.1,0,0.2,0.1,0.3c0.1,0.1,0.2,0.1,0.3,0.2c0.1,0,0.3,0.1,0.5,0.1c0.3,0.1,0.6,0.1,0.7,0.2c0.2,0.1,0.4,0.2,0.5,0.3
				c0.1,0.1,0.2,0.3,0.2,0.6c0,0.3-0.1,0.6-0.4,0.8C51.3,201.1,50.9,201.2,50.4,201.2L50.4,201.2z"/>
		</g>
		<g transform="matrix(.24549 0 0 .24258 -4.9025 151.3)">
			<path class="st5" d="M102.2,182c-1.2,0-2.1,0.9-2.1,2.1v20.8c0,1.3,1.2,2.3,2.7,2.3h23.7c1.5,0,2.7-1,2.7-2.3v-17.5
				c0-1.3-1.2-2.3-2.7-2.3h-13c-1.6,0-2.7-3.2-4.3-3.2L102.2,182z"/>
			<path class="st6" d="M105,188.1h23.8c1.5,0,2.5,1,2.4,2.1l-2,14.8c-0.2,1.2-1.5,2.1-2.9,2.1h-23.8c-1.5,0-2.5-1-2.4-2.1l2-14.8
				C102.3,189.1,103.6,188.1,105,188.1z"/>
		</g>
	</g>
	<g>
		<g transform="scale(1 .99998)">
			<path class="st4" d="M32.7,255.9c0.5,0,0.9,0.1,1.2,0.4c0.3,0.3,0.4,0.7,0.4,1.2v2.2h-0.7v-2.1c0-0.4-0.1-0.7-0.3-0.8
				c-0.2-0.2-0.4-0.3-0.8-0.3c-0.4,0-0.7,0.1-0.9,0.3c-0.2,0.2-0.3,0.5-0.3,0.9v2h-0.7v-3.8h0.7v0.6c0.1-0.2,0.3-0.3,0.6-0.5
				C32.1,256,32.4,255.9,32.7,255.9L32.7,255.9z"/>
			<path class="st4" d="M37,255.9c0.5,0,0.9,0.1,1.2,0.4c0.3,0.3,0.4,0.6,0.4,1.2v2.3H38v-0.5c-0.1,0.2-0.3,0.3-0.5,0.4
				c-0.2,0.1-0.5,0.1-0.8,0.1c-0.4,0-0.8-0.1-1-0.3c-0.3-0.2-0.4-0.5-0.4-0.8c0-0.3,0.1-0.6,0.4-0.8c0.2-0.2,0.6-0.3,1.2-0.3h1.1
				v-0.1c0-0.3-0.1-0.5-0.3-0.7s-0.4-0.2-0.8-0.2c-0.2,0-0.4,0-0.7,0.1c-0.2,0.1-0.4,0.2-0.5,0.3l-0.3-0.5c0.2-0.2,0.4-0.3,0.7-0.4
				C36.4,256,36.7,255.9,37,255.9L37,255.9z M36.8,259.3c0.3,0,0.5-0.1,0.7-0.2c0.2-0.1,0.3-0.3,0.4-0.5v-0.5h-1.1
				c-0.6,0-0.9,0.2-0.9,0.6c0,0.2,0.1,0.3,0.2,0.5C36.4,259.2,36.6,259.3,36.8,259.3z"/>
			<path class="st4" d="M43.2,255.9l-1.7,3.8h-0.7l-1.7-3.8h0.7l1.3,3.1l1.3-3.1H43.2z"/>
			<path class="st4" d="M43.8,259.8c-0.1,0-0.3,0-0.3-0.1c-0.1-0.1-0.1-0.2-0.1-0.4c0-0.1,0-0.3,0.1-0.3c0.1-0.1,0.2-0.1,0.3-0.1
				c0.1,0,0.2,0,0.3,0.1c0.1,0.1,0.1,0.2,0.1,0.4c0,0.1,0,0.3-0.1,0.4C44,259.8,43.9,259.8,43.8,259.8z"/>
			<path class="st4" d="M46.7,255.9c0.5,0,0.9,0.1,1.2,0.4c0.3,0.3,0.4,0.6,0.4,1.2v2.3h-0.7v-0.5c-0.1,0.2-0.3,0.3-0.5,0.4
				c-0.2,0.1-0.5,0.1-0.8,0.1c-0.4,0-0.8-0.1-1-0.3c-0.3-0.2-0.4-0.5-0.4-0.8c0-0.3,0.1-0.6,0.4-0.8c0.2-0.2,0.6-0.3,1.2-0.3h1.1
				v-0.1c0-0.3-0.1-0.5-0.3-0.7c-0.2-0.2-0.4-0.2-0.8-0.2c-0.2,0-0.4,0-0.7,0.1c-0.2,0.1-0.4,0.2-0.5,0.3l-0.3-0.5
				c0.2-0.2,0.4-0.3,0.7-0.4C46.1,256,46.4,255.9,46.7,255.9L46.7,255.9z M46.6,259.3c0.3,0,0.5-0.1,0.7-0.2
				c0.2-0.1,0.3-0.3,0.4-0.5v-0.5h-1.1c-0.6,0-0.9,0.2-0.9,0.6c0,0.2,0.1,0.3,0.2,0.5C46.1,259.2,46.3,259.3,46.6,259.3L46.6,259.3z
				"/>
			<path class="st4" d="M53.3,254.4v5.4h-0.7v-0.6c-0.2,0.2-0.3,0.4-0.6,0.5s-0.5,0.2-0.8,0.2c-0.4,0-0.7-0.1-1-0.2
				s-0.5-0.4-0.7-0.7c-0.2-0.3-0.2-0.6-0.2-1s0.1-0.7,0.2-1c0.2-0.3,0.4-0.5,0.7-0.7c0.3-0.2,0.6-0.2,1-0.2c0.3,0,0.5,0.1,0.8,0.2
				c0.2,0.1,0.4,0.3,0.6,0.5v-2.1H53.3z M51.3,259.2c0.2,0,0.5-0.1,0.7-0.2c0.2-0.1,0.4-0.3,0.5-0.5c0.1-0.2,0.2-0.4,0.2-0.7
				c0-0.3-0.1-0.5-0.2-0.7c-0.1-0.2-0.3-0.4-0.5-0.5c-0.2-0.1-0.4-0.2-0.7-0.2c-0.2,0-0.5,0.1-0.7,0.2c-0.2,0.1-0.3,0.3-0.5,0.5
				c-0.1,0.2-0.2,0.4-0.2,0.7c0,0.3,0.1,0.5,0.2,0.7c0.1,0.2,0.3,0.4,0.5,0.5C50.9,259.2,51.1,259.2,51.3,259.2z"/>
			<path class="st4" d="M56.3,259.8c-0.4,0-0.7-0.1-1-0.3c-0.3-0.2-0.5-0.4-0.7-0.7c-0.2-0.3-0.3-0.6-0.3-1c0-0.4,0.1-0.7,0.3-1
				c0.2-0.3,0.4-0.5,0.7-0.7c0.3-0.2,0.6-0.3,1-0.3c0.4,0,0.7,0.1,1,0.3c0.3,0.2,0.5,0.4,0.7,0.7c0.2,0.3,0.3,0.6,0.3,1
				c0,0.4-0.1,0.7-0.3,1c-0.2,0.3-0.4,0.5-0.7,0.7C57,259.7,56.6,259.8,56.3,259.8z M56.3,259.2c0.2,0,0.5-0.1,0.7-0.2
				c0.2-0.1,0.4-0.3,0.5-0.5c0.1-0.2,0.2-0.4,0.2-0.7s-0.1-0.5-0.2-0.7c-0.1-0.2-0.3-0.4-0.5-0.5c-0.2-0.1-0.4-0.2-0.7-0.2
				c-0.2,0-0.5,0.1-0.7,0.2c-0.2,0.1-0.3,0.3-0.5,0.5c-0.1,0.2-0.2,0.4-0.2,0.7s0.1,0.5,0.2,0.7c0.1,0.2,0.3,0.4,0.5,0.5
				C55.8,259.2,56,259.2,56.3,259.2z"/>
			<path class="st4" d="M60.9,259.8c-0.4,0-0.7-0.1-1-0.3c-0.3-0.2-0.5-0.4-0.7-0.7c-0.2-0.3-0.3-0.6-0.3-1c0-0.4,0.1-0.7,0.3-1
				c0.2-0.3,0.4-0.5,0.7-0.7c0.3-0.2,0.7-0.3,1-0.3c0.3,0,0.7,0.1,0.9,0.2c0.3,0.1,0.5,0.3,0.6,0.6l-0.5,0.3
				c-0.1-0.2-0.3-0.3-0.4-0.4s-0.4-0.1-0.6-0.1c-0.3,0-0.5,0.1-0.7,0.2c-0.2,0.1-0.4,0.3-0.5,0.5c-0.1,0.2-0.2,0.4-0.2,0.7
				c0,0.3,0.1,0.5,0.2,0.7c0.1,0.2,0.3,0.4,0.5,0.5c0.2,0.1,0.4,0.2,0.7,0.2c0.2,0,0.4,0,0.6-0.1c0.2-0.1,0.3-0.2,0.4-0.4l0.5,0.3
				c-0.1,0.3-0.4,0.5-0.6,0.6C61.5,259.7,61.2,259.8,60.9,259.8z"/>
		</g>
		<path class="st1" d="M21.1,252.5c-0.3,0-0.5,0.3-0.5,0.8v6.1c0,0.4,0.2,0.8,0.5,0.8h4.9c0.3,0,0.5-0.3,0.5-0.8v-5.7
			c-0.9,0.2-1.3-0.3-1.2-1.2L21.1,252.5z"/>
	</g>
	<g>
		<path class="st2" d="M25.3,252.5l1.1,1.2"/>
		<g>
			<path class="st3" d="M21.4,254.6h3.1"/>
			<path class="st3" d="M22,255.6h1.5"/>
			<path class="st3" d="M22,256.5h1.5"/>
			<path class="st3" d="M22,257.5h1.5"/>
			<path class="st3" d="M22,258.5h1.5"/>
		</g>
	</g>
	<g>
		<g transform="scale(1 .99998)">
			<path class="st4" d="M38.2,212.1h3.6v0.4h-3.6V212.1z"/>
			<path class="st4" d="M44.5,208.3c0.4,0,0.7,0.1,1,0.2c0.3,0.2,0.5,0.4,0.7,0.7c0.2,0.3,0.3,0.6,0.3,1s-0.1,0.7-0.3,1
				c-0.2,0.3-0.4,0.5-0.7,0.7c-0.3,0.2-0.6,0.2-1,0.2c-0.3,0-0.5-0.1-0.8-0.2c-0.2-0.1-0.4-0.3-0.6-0.5v2h-0.7v-5.2h0.7v0.6
				c0.2-0.2,0.3-0.4,0.6-0.5C44,208.3,44.2,208.3,44.5,208.3L44.5,208.3z M44.4,211.6c0.2,0,0.5-0.1,0.7-0.2
				c0.2-0.1,0.4-0.3,0.5-0.5c0.1-0.2,0.2-0.4,0.2-0.7c0-0.3-0.1-0.5-0.2-0.7c-0.1-0.2-0.3-0.4-0.5-0.5c-0.2-0.1-0.4-0.2-0.7-0.2
				c-0.2,0-0.5,0.1-0.7,0.2c-0.2,0.1-0.3,0.3-0.5,0.5c-0.1,0.2-0.2,0.4-0.2,0.7c0,0.3,0.1,0.5,0.2,0.7c0.1,0.2,0.3,0.4,0.5,0.5
				C44,211.5,44.2,211.6,44.4,211.6z"/>
			<path class="st4" d="M48.8,208.3c0.5,0,0.9,0.1,1.2,0.4c0.3,0.3,0.4,0.6,0.4,1.2v2.3h-0.7v-0.5c-0.1,0.2-0.3,0.3-0.5,0.4
				c-0.2,0.1-0.5,0.1-0.8,0.1c-0.4,0-0.8-0.1-1-0.3c-0.3-0.2-0.4-0.5-0.4-0.8s0.1-0.6,0.4-0.8c0.2-0.2,0.6-0.3,1.2-0.3h1.1v-0.1
				c0-0.3-0.1-0.5-0.3-0.7c-0.2-0.2-0.4-0.2-0.8-0.2c-0.2,0-0.4,0-0.7,0.1c-0.2,0.1-0.4,0.2-0.5,0.3l-0.3-0.5
				c0.2-0.2,0.4-0.3,0.7-0.4C48.2,208.3,48.4,208.3,48.8,208.3L48.8,208.3z M48.6,211.7c0.3,0,0.5-0.1,0.7-0.2
				c0.2-0.1,0.3-0.3,0.4-0.5v-0.5h-1.1c-0.6,0-0.9,0.2-0.9,0.6c0,0.2,0.1,0.3,0.2,0.5C48.1,211.6,48.3,211.7,48.6,211.7z"/>
			<path class="st4" d="M52.3,208.9c0.1-0.2,0.3-0.4,0.5-0.5c0.2-0.1,0.5-0.2,0.9-0.2v0.7c0,0-0.1,0-0.2,0c-0.4,0-0.7,0.1-0.9,0.3
				c-0.2,0.2-0.3,0.5-0.3,1v1.9h-0.7v-3.8h0.7L52.3,208.9z"/>
			<path class="st4" d="M56.9,211.9c-0.1,0.1-0.2,0.2-0.4,0.2c-0.1,0-0.3,0.1-0.5,0.1c-0.4,0-0.7-0.1-0.9-0.3
				c-0.2-0.2-0.3-0.5-0.3-0.9v-2.1h-0.7v-0.6h0.7v-0.8h0.7v0.8h1.1v0.6h-1.1v2.1c0,0.2,0.1,0.4,0.2,0.5c0.1,0.1,0.3,0.2,0.4,0.2
				c0.2,0,0.4-0.1,0.5-0.2L56.9,211.9z"/>
			<path class="st4" d="M57.8,208.3h0.7v3.8h-0.7V208.3z M58.1,207.6c-0.1,0-0.2,0-0.3-0.1c-0.1-0.1-0.1-0.2-0.1-0.3
				c0-0.1,0-0.2,0.1-0.3c0.1-0.1,0.2-0.1,0.3-0.1c0.1,0,0.2,0,0.3,0.1c0.1,0.1,0.1,0.2,0.1,0.3c0,0.1,0,0.2-0.1,0.3
				C58.3,207.5,58.2,207.6,58.1,207.6L58.1,207.6z"/>
			<path class="st4" d="M61.2,208.3c0.5,0,0.9,0.1,1.2,0.4c0.3,0.3,0.4,0.6,0.4,1.2v2.3h-0.7v-0.5c-0.1,0.2-0.3,0.3-0.5,0.4
				c-0.2,0.1-0.5,0.1-0.8,0.1c-0.4,0-0.8-0.1-1-0.3c-0.3-0.2-0.4-0.5-0.4-0.8s0.1-0.6,0.4-0.8c0.2-0.2,0.6-0.3,1.2-0.3h1.1v-0.1
				c0-0.3-0.1-0.5-0.3-0.7c-0.2-0.2-0.4-0.2-0.8-0.2c-0.2,0-0.4,0-0.7,0.1c-0.2,0.1-0.4,0.2-0.5,0.3l-0.3-0.5
				c0.2-0.2,0.4-0.3,0.7-0.4C60.6,208.3,60.9,208.3,61.2,208.3L61.2,208.3z M61,211.7c0.3,0,0.5-0.1,0.7-0.2
				c0.2-0.1,0.3-0.3,0.4-0.5v-0.5H61c-0.6,0-0.9,0.2-0.9,0.6c0,0.2,0.1,0.3,0.2,0.5C60.5,211.6,60.7,211.7,61,211.7z"/>
			<path class="st4" d="M64.1,206.8h0.7v5.4h-0.7V206.8z"/>
			<path class="st4" d="M67.2,212.2c-0.3,0-0.6,0-0.9-0.1c-0.3-0.1-0.5-0.2-0.7-0.3l0.3-0.5c0.2,0.1,0.4,0.2,0.6,0.3
				c0.2,0.1,0.5,0.1,0.7,0.1c0.6,0,0.9-0.2,0.9-0.5c0-0.1,0-0.2-0.1-0.3s-0.2-0.1-0.3-0.1c-0.1,0-0.3-0.1-0.5-0.1
				c-0.3,0-0.6-0.1-0.8-0.2c-0.2-0.1-0.4-0.2-0.5-0.3c-0.1-0.1-0.2-0.4-0.2-0.6c0-0.3,0.1-0.6,0.4-0.8c0.3-0.2,0.7-0.3,1.2-0.3
				c0.3,0,0.5,0,0.8,0.1c0.3,0.1,0.5,0.1,0.6,0.3l-0.3,0.5c-0.3-0.2-0.7-0.3-1.1-0.3c-0.3,0-0.5,0-0.7,0.1c-0.2,0.1-0.2,0.2-0.2,0.4
				c0,0.1,0,0.2,0.1,0.3c0.1,0.1,0.2,0.1,0.3,0.2c0.1,0,0.3,0.1,0.5,0.1c0.3,0.1,0.6,0.1,0.7,0.2c0.2,0.1,0.4,0.2,0.5,0.3
				c0.1,0.1,0.2,0.3,0.2,0.6c0,0.3-0.1,0.6-0.4,0.8C68.1,212.1,67.7,212.2,67.2,212.2L67.2,212.2z"/>
		</g>
		<g transform="matrix(.24549 0 0 .24258 3.2952 162.27)">
			<path class="st5" d="M102.2,182c-1.2,0-2.1,0.9-2.1,2.1v20.8c0,1.3,1.2,2.3,2.7,2.3h23.7c1.5,0,2.7-1,2.7-2.3v-17.5
				c0-1.3-1.2-2.3-2.7-2.3h-13c-1.6,0-2.7-3.2-4.3-3.2L102.2,182z"/>
			<path class="st6" d="M105,188.1h23.8c1.5,0,2.5,1,2.4,2.1l-2,14.8c-0.2,1.2-1.5,2.1-2.9,2.1h-23.8c-1.5,0-2.5-1-2.4-2.1l2-14.8
				C102.3,189.1,103.6,188.1,105,188.1z"/>
		</g>
	</g>
	<g>
		<g transform="scale(1 .99998)">
			<path class="st4" d="M49.1,220.7c0.4,0,0.7,0.1,1,0.2s0.5,0.4,0.7,0.7c0.2,0.3,0.3,0.6,0.3,1c0,0.4-0.1,0.7-0.3,1
				c-0.2,0.3-0.4,0.5-0.7,0.7c-0.3,0.2-0.6,0.2-1,0.2c-0.3,0-0.5-0.1-0.8-0.2c-0.2-0.1-0.4-0.3-0.6-0.5v2h-0.7v-5.2h0.7v0.6
				c0.2-0.2,0.3-0.4,0.6-0.5C48.5,220.8,48.8,220.7,49.1,220.7L49.1,220.7z M49,224c0.2,0,0.5-0.1,0.7-0.2c0.2-0.1,0.4-0.3,0.5-0.5
				c0.1-0.2,0.2-0.4,0.2-0.7s-0.1-0.5-0.2-0.7c-0.1-0.2-0.3-0.4-0.5-0.5c-0.2-0.1-0.4-0.2-0.7-0.2c-0.2,0-0.5,0.1-0.7,0.2
				c-0.2,0.1-0.3,0.3-0.5,0.5c-0.1,0.2-0.2,0.4-0.2,0.7s0.1,0.5,0.2,0.7c0.1,0.2,0.3,0.4,0.5,0.5C48.6,224,48.8,224,49,224z"/>
			<path class="st4" d="M52,219.2h0.7v5.4H52V219.2z"/>
			<path class="st4" d="M55.4,220.7c0.5,0,0.9,0.1,1.2,0.4c0.3,0.3,0.4,0.6,0.4,1.2v2.3h-0.7v-0.5c-0.1,0.2-0.3,0.3-0.5,0.4
				c-0.2,0.1-0.5,0.1-0.8,0.1c-0.4,0-0.8-0.1-1-0.3c-0.3-0.2-0.4-0.5-0.4-0.8c0-0.3,0.1-0.6,0.4-0.8c0.2-0.2,0.6-0.3,1.2-0.3h1.1
				v-0.1c0-0.3-0.1-0.5-0.3-0.7c-0.2-0.2-0.4-0.2-0.8-0.2c-0.2,0-0.4,0-0.7,0.1c-0.2,0.1-0.4,0.2-0.5,0.3l-0.3-0.5
				c0.2-0.2,0.4-0.3,0.7-0.4C54.8,220.8,55.1,220.7,55.4,220.7L55.4,220.7z M55.2,224.1c0.3,0,0.5-0.1,0.7-0.2
				c0.2-0.1,0.3-0.3,0.4-0.5v-0.5h-1.1c-0.6,0-0.9,0.2-0.9,0.6c0,0.2,0.1,0.3,0.2,0.5C54.8,224.1,55,224.1,55.2,224.1L55.2,224.1z"
				/>
			<path class="st4" d="M60.5,224.4c-0.1,0.1-0.2,0.2-0.4,0.2c-0.1,0-0.3,0.1-0.5,0.1c-0.4,0-0.7-0.1-0.9-0.3
				c-0.2-0.2-0.3-0.5-0.3-0.9v-2.1h-0.7v-0.6h0.7v-0.8h0.7v0.8h1.1v0.6h-1.1v2.1c0,0.2,0.1,0.4,0.2,0.5c0.1,0.1,0.3,0.2,0.4,0.2
				c0.2,0,0.4-0.1,0.5-0.2L60.5,224.4z"/>
			<path class="st4" d="M62.7,219.8c-0.4,0-0.6,0.2-0.6,0.7v0.3h1.1v0.6h-1.1v3.3h-0.7v-3.3h-0.7v-0.6h0.7v-0.3
				c0-0.4,0.1-0.7,0.3-0.9c0.2-0.2,0.5-0.3,0.9-0.3c0.2,0,0.3,0,0.4,0.1c0.1,0,0.3,0.1,0.3,0.2l-0.2,0.5
				C63.1,219.8,62.9,219.8,62.7,219.8L62.7,219.8z"/>
			<path class="st4" d="M65.5,224.6c-0.4,0-0.7-0.1-1-0.3c-0.3-0.2-0.5-0.4-0.7-0.7c-0.2-0.3-0.3-0.6-0.3-1c0-0.4,0.1-0.7,0.3-1
				c0.2-0.3,0.4-0.5,0.7-0.7c0.3-0.2,0.6-0.3,1-0.3s0.7,0.1,1,0.3c0.3,0.2,0.5,0.4,0.7,0.7c0.2,0.3,0.3,0.6,0.3,1
				c0,0.4-0.1,0.7-0.3,1c-0.2,0.3-0.4,0.5-0.7,0.7C66.2,224.6,65.8,224.6,65.5,224.6z M65.5,224c0.2,0,0.5-0.1,0.7-0.2
				c0.2-0.1,0.4-0.3,0.5-0.5c0.1-0.2,0.2-0.4,0.2-0.7c0-0.3-0.1-0.5-0.2-0.7c-0.1-0.2-0.3-0.4-0.5-0.5c-0.2-0.1-0.4-0.2-0.7-0.2
				c-0.2,0-0.5,0.1-0.7,0.2c-0.2,0.1-0.3,0.3-0.5,0.5c-0.1,0.2-0.2,0.4-0.2,0.7c0,0.3,0.1,0.5,0.2,0.7c0.1,0.2,0.3,0.4,0.5,0.5
				C65,224,65.2,224,65.5,224z"/>
			<path class="st4" d="M69.1,221.4c0.1-0.2,0.3-0.4,0.5-0.5c0.2-0.1,0.5-0.2,0.9-0.2v0.7c0,0-0.1,0-0.2,0c-0.4,0-0.7,0.1-0.9,0.3
				c-0.2,0.2-0.3,0.5-0.3,1v1.9h-0.7v-3.8h0.7L69.1,221.4z"/>
			<path class="st4" d="M76.1,220.7c0.5,0,0.9,0.1,1.1,0.4c0.3,0.3,0.4,0.7,0.4,1.2v2.2H77v-2.1c0-0.4-0.1-0.7-0.3-0.8
				c-0.2-0.2-0.4-0.3-0.7-0.3c-0.4,0-0.6,0.1-0.8,0.3c-0.2,0.2-0.3,0.5-0.3,0.9v2h-0.7v-2.1c0-0.4-0.1-0.7-0.3-0.8
				c-0.2-0.2-0.4-0.3-0.7-0.3c-0.4,0-0.6,0.1-0.8,0.3c-0.2,0.2-0.3,0.5-0.3,0.9v2h-0.7v-3.8H72v0.6c0.1-0.2,0.3-0.3,0.5-0.4
				c0.2-0.1,0.5-0.2,0.8-0.2c0.3,0,0.6,0.1,0.8,0.2c0.2,0.1,0.4,0.3,0.5,0.5c0.1-0.2,0.3-0.4,0.6-0.5
				C75.5,220.8,75.8,220.7,76.1,220.7L76.1,220.7z"/>
			<path class="st4" d="M78.7,222.3h1.9v0.6h-1.9V222.3z"/>
			<path class="st4" d="M82.8,224.6c-0.3,0-0.6,0-0.9-0.1c-0.3-0.1-0.5-0.2-0.7-0.3l0.3-0.5c0.2,0.1,0.4,0.2,0.6,0.3
				s0.5,0.1,0.7,0.1c0.6,0,0.9-0.2,0.9-0.5c0-0.1,0-0.2-0.1-0.3s-0.2-0.1-0.3-0.1c-0.1,0-0.3-0.1-0.5-0.1c-0.3,0-0.6-0.1-0.8-0.2
				c-0.2-0.1-0.4-0.2-0.5-0.3c-0.1-0.1-0.2-0.4-0.2-0.6c0-0.3,0.1-0.6,0.4-0.8c0.3-0.2,0.7-0.3,1.2-0.3c0.3,0,0.5,0,0.8,0.1
				c0.3,0.1,0.5,0.1,0.6,0.3l-0.3,0.5c-0.3-0.2-0.7-0.3-1.1-0.3c-0.3,0-0.5,0-0.7,0.1c-0.2,0.1-0.2,0.2-0.2,0.4c0,0.1,0,0.2,0.1,0.3
				s0.2,0.1,0.3,0.2c0.1,0,0.3,0.1,0.5,0.1c0.3,0.1,0.6,0.1,0.7,0.2c0.2,0.1,0.4,0.2,0.5,0.3c0.1,0.1,0.2,0.3,0.2,0.6
				c0,0.3-0.1,0.6-0.4,0.8C83.7,224.5,83.3,224.6,82.8,224.6L82.8,224.6z"/>
			<path class="st4" d="M87.5,224.4c-0.1,0.1-0.2,0.2-0.4,0.2c-0.1,0-0.3,0.1-0.5,0.1c-0.4,0-0.7-0.1-0.9-0.3
				c-0.2-0.2-0.3-0.5-0.3-0.9v-2.1h-0.7v-0.6h0.7v-0.8h0.7v0.8h1.1v0.6h-1.1v2.1c0,0.2,0.1,0.4,0.2,0.5c0.1,0.1,0.3,0.2,0.4,0.2
				c0.2,0,0.4-0.1,0.5-0.2L87.5,224.4z"/>
			<path class="st4" d="M89.7,220.7c0.5,0,0.9,0.1,1.2,0.4c0.3,0.3,0.4,0.6,0.4,1.2v2.3h-0.7v-0.5c-0.1,0.2-0.3,0.3-0.5,0.4
				c-0.2,0.1-0.5,0.1-0.8,0.1c-0.4,0-0.8-0.1-1-0.3c-0.3-0.2-0.4-0.5-0.4-0.8c0-0.3,0.1-0.6,0.4-0.8c0.2-0.2,0.6-0.3,1.2-0.3h1.1
				v-0.1c0-0.3-0.1-0.5-0.3-0.7s-0.4-0.2-0.8-0.2c-0.2,0-0.4,0-0.7,0.1c-0.2,0.1-0.4,0.2-0.5,0.3l-0.3-0.5c0.2-0.2,0.4-0.3,0.7-0.4
				C89.1,220.8,89.4,220.7,89.7,220.7L89.7,220.7z M89.6,224.1c0.3,0,0.5-0.1,0.7-0.2c0.2-0.1,0.3-0.3,0.4-0.5v-0.5h-1.1
				c-0.6,0-0.9,0.2-0.9,0.6c0,0.2,0.1,0.3,0.2,0.5C89.1,224.1,89.3,224.1,89.6,224.1L89.6,224.1z"/>
			<path class="st4" d="M96.4,220.8v3.3c0,0.7-0.2,1.2-0.5,1.5c-0.3,0.3-0.8,0.5-1.5,0.5c-0.4,0-0.7-0.1-1-0.2
				c-0.3-0.1-0.6-0.2-0.8-0.4l0.3-0.5c0.2,0.2,0.4,0.3,0.7,0.4c0.3,0.1,0.5,0.1,0.8,0.1c0.4,0,0.8-0.1,1-0.3c0.2-0.2,0.3-0.5,0.3-1
				v-0.3c-0.2,0.2-0.4,0.3-0.6,0.4c-0.2,0.1-0.5,0.1-0.8,0.1c-0.4,0-0.7-0.1-1-0.2c-0.3-0.2-0.5-0.4-0.7-0.7c-0.2-0.3-0.3-0.6-0.3-1
				c0-0.4,0.1-0.7,0.3-1c0.2-0.3,0.4-0.5,0.7-0.7c0.3-0.2,0.6-0.2,1-0.2c0.3,0,0.6,0.1,0.8,0.2c0.3,0.1,0.5,0.3,0.6,0.5v-0.6
				L96.4,220.8z M94.4,223.8c0.3,0,0.5-0.1,0.7-0.2c0.2-0.1,0.4-0.3,0.5-0.4c0.1-0.2,0.2-0.4,0.2-0.7c0-0.4-0.1-0.7-0.4-0.9
				c-0.2-0.2-0.6-0.3-0.9-0.3c-0.4,0-0.7,0.1-1,0.3c-0.2,0.2-0.4,0.5-0.4,0.9c0,0.2,0.1,0.5,0.2,0.7c0.1,0.2,0.3,0.3,0.5,0.4
				C93.9,223.8,94.1,223.8,94.4,223.8z"/>
			<path class="st4" d="M101.1,222.7c0,0.1,0,0.1,0,0.2H98c0,0.3,0.2,0.6,0.4,0.8c0.3,0.2,0.6,0.3,0.9,0.3c0.5,0,0.8-0.2,1.1-0.5
				l0.4,0.4c-0.2,0.2-0.4,0.4-0.7,0.5c-0.3,0.1-0.5,0.2-0.9,0.2c-0.4,0-0.8-0.1-1.1-0.2c-0.3-0.2-0.6-0.4-0.7-0.7
				c-0.2-0.3-0.3-0.6-0.3-1c0-0.4,0.1-0.7,0.2-1c0.2-0.3,0.4-0.5,0.7-0.7c0.3-0.2,0.6-0.3,1-0.3s0.7,0.1,1,0.3
				c0.3,0.2,0.5,0.4,0.7,0.7C101.1,222,101.1,222.3,101.1,222.7L101.1,222.7z M99.2,221.3c-0.3,0-0.6,0.1-0.8,0.3
				c-0.2,0.2-0.4,0.5-0.4,0.8h2.5c0-0.3-0.2-0.6-0.4-0.8C99.9,221.4,99.6,221.3,99.2,221.3L99.2,221.3z"/>
			<path class="st4" d="M103.2,224.6c-0.3,0-0.6,0-0.9-0.1c-0.3-0.1-0.5-0.2-0.7-0.3l0.3-0.5c0.2,0.1,0.4,0.2,0.6,0.3
				c0.2,0.1,0.5,0.1,0.7,0.1c0.6,0,0.9-0.2,0.9-0.5c0-0.1,0-0.2-0.1-0.3s-0.2-0.1-0.3-0.1c-0.1,0-0.3-0.1-0.5-0.1
				c-0.3,0-0.6-0.1-0.8-0.2c-0.2-0.1-0.4-0.2-0.5-0.3s-0.2-0.4-0.2-0.6c0-0.3,0.1-0.6,0.4-0.8c0.3-0.2,0.7-0.3,1.2-0.3
				c0.3,0,0.5,0,0.8,0.1c0.3,0.1,0.5,0.1,0.6,0.3l-0.3,0.5c-0.3-0.2-0.7-0.3-1.1-0.3c-0.3,0-0.5,0-0.7,0.1c-0.2,0.1-0.2,0.2-0.2,0.4
				c0,0.1,0,0.2,0.1,0.3c0.1,0.1,0.2,0.1,0.3,0.2c0.1,0,0.3,0.1,0.5,0.1c0.3,0.1,0.6,0.1,0.7,0.2c0.2,0.1,0.4,0.2,0.5,0.3
				c0.1,0.1,0.2,0.3,0.2,0.6c0,0.3-0.1,0.6-0.4,0.8C104.1,224.5,103.7,224.6,103.2,224.6L103.2,224.6z"/>
			<path class="st4" d="M105.9,224.6c-0.1,0-0.3,0-0.3-0.1c-0.1-0.1-0.1-0.2-0.1-0.4c0-0.1,0-0.3,0.1-0.3c0.1-0.1,0.2-0.1,0.3-0.1
				c0.1,0,0.2,0,0.3,0.1c0.1,0.1,0.1,0.2,0.1,0.4c0,0.1,0,0.3-0.1,0.4C106.1,224.6,106,224.6,105.9,224.6z"/>
			<path class="st4" d="M108.8,220.7c0.5,0,0.9,0.1,1.2,0.4c0.3,0.3,0.4,0.6,0.4,1.2v2.3h-0.7v-0.5c-0.1,0.2-0.3,0.3-0.5,0.4
				c-0.2,0.1-0.5,0.1-0.8,0.1c-0.4,0-0.8-0.1-1-0.3c-0.3-0.2-0.4-0.5-0.4-0.8c0-0.3,0.1-0.6,0.4-0.8c0.2-0.2,0.6-0.3,1.2-0.3h1.1
				v-0.1c0-0.3-0.1-0.5-0.3-0.7c-0.2-0.2-0.4-0.2-0.8-0.2c-0.2,0-0.4,0-0.7,0.1c-0.2,0.1-0.4,0.2-0.5,0.3l-0.3-0.5
				c0.2-0.2,0.4-0.3,0.7-0.4C108.2,220.8,108.5,220.7,108.8,220.7L108.8,220.7z M108.7,224.1c0.3,0,0.5-0.1,0.7-0.2
				c0.2-0.1,0.3-0.3,0.4-0.5v-0.5h-1.1c-0.6,0-0.9,0.2-0.9,0.6c0,0.2,0.1,0.3,0.2,0.5C108.2,224.1,108.4,224.1,108.7,224.1z"/>
			<path class="st4" d="M115.4,219.2v5.4h-0.7V224c-0.2,0.2-0.3,0.4-0.6,0.5c-0.2,0.1-0.5,0.2-0.8,0.2c-0.4,0-0.7-0.1-1-0.2
				c-0.3-0.2-0.5-0.4-0.7-0.7c-0.2-0.3-0.2-0.6-0.2-1c0-0.4,0.1-0.7,0.2-1c0.2-0.3,0.4-0.5,0.7-0.7c0.3-0.2,0.6-0.2,1-0.2
				c0.3,0,0.5,0.1,0.8,0.2c0.2,0.1,0.4,0.3,0.6,0.5v-2.1L115.4,219.2z M113.4,224c0.2,0,0.5-0.1,0.7-0.2c0.2-0.1,0.4-0.3,0.5-0.5
				c0.1-0.2,0.2-0.4,0.2-0.7c0-0.3-0.1-0.5-0.2-0.7c-0.1-0.2-0.3-0.4-0.5-0.5c-0.2-0.1-0.4-0.2-0.7-0.2c-0.2,0-0.5,0.1-0.7,0.2
				c-0.2,0.1-0.3,0.3-0.5,0.5c-0.1,0.2-0.2,0.4-0.2,0.7c0,0.3,0.1,0.5,0.2,0.7c0.1,0.2,0.3,0.4,0.5,0.5C113,224,113.2,224,113.4,224
				z"/>
			<path class="st4" d="M118.3,224.6c-0.4,0-0.7-0.1-1-0.3c-0.3-0.2-0.5-0.4-0.7-0.7c-0.2-0.3-0.3-0.6-0.3-1c0-0.4,0.1-0.7,0.3-1
				c0.2-0.3,0.4-0.5,0.7-0.7c0.3-0.2,0.6-0.3,1-0.3c0.4,0,0.7,0.1,1,0.3c0.3,0.2,0.5,0.4,0.7,0.7c0.2,0.3,0.3,0.6,0.3,1
				c0,0.4-0.1,0.7-0.3,1c-0.2,0.3-0.4,0.5-0.7,0.7C119.1,224.6,118.7,224.6,118.3,224.6z M118.3,224c0.2,0,0.5-0.1,0.7-0.2
				c0.2-0.1,0.4-0.3,0.5-0.5c0.1-0.2,0.2-0.4,0.2-0.7c0-0.3-0.1-0.5-0.2-0.7c-0.1-0.2-0.3-0.4-0.5-0.5c-0.2-0.1-0.4-0.2-0.7-0.2
				c-0.2,0-0.5,0.1-0.7,0.2c-0.2,0.1-0.3,0.3-0.5,0.5c-0.1,0.2-0.2,0.4-0.2,0.7c0,0.3,0.1,0.5,0.2,0.7c0.1,0.2,0.3,0.4,0.5,0.5
				C117.9,224,118.1,224,118.3,224z"/>
			<path class="st4" d="M123,224.6c-0.4,0-0.7-0.1-1-0.3c-0.3-0.2-0.5-0.4-0.7-0.7c-0.2-0.3-0.3-0.6-0.3-1c0-0.4,0.1-0.7,0.3-1
				c0.2-0.3,0.4-0.5,0.7-0.7c0.3-0.2,0.7-0.3,1-0.3c0.3,0,0.7,0.1,0.9,0.2c0.3,0.1,0.5,0.3,0.6,0.6l-0.5,0.3
				c-0.1-0.2-0.3-0.3-0.4-0.4c-0.2-0.1-0.4-0.1-0.6-0.1c-0.3,0-0.5,0.1-0.7,0.2c-0.2,0.1-0.4,0.3-0.5,0.5c-0.1,0.2-0.2,0.4-0.2,0.7
				c0,0.3,0.1,0.5,0.2,0.7c0.1,0.2,0.3,0.4,0.5,0.5c0.2,0.1,0.4,0.2,0.7,0.2c0.2,0,0.4,0,0.6-0.1c0.2-0.1,0.3-0.2,0.4-0.4l0.5,0.3
				c-0.1,0.3-0.4,0.5-0.6,0.6C123.6,224.6,123.3,224.6,123,224.6L123,224.6z"/>
		</g>
		<g transform="scale(1 .99998)">
			<path class="st4" d="M42.5,230.5v5.4h-0.7v-0.6c-0.2,0.2-0.3,0.4-0.6,0.5c-0.2,0.1-0.5,0.2-0.8,0.2c-0.4,0-0.7-0.1-1-0.2
				c-0.3-0.2-0.5-0.4-0.7-0.7c-0.2-0.3-0.2-0.6-0.2-1s0.1-0.7,0.2-1c0.2-0.3,0.4-0.5,0.7-0.7c0.3-0.2,0.6-0.2,1-0.2
				c0.3,0,0.5,0.1,0.8,0.2c0.2,0.1,0.4,0.3,0.6,0.5v-2.1L42.5,230.5z M40.5,235.3c0.2,0,0.5-0.1,0.7-0.2c0.2-0.1,0.4-0.3,0.5-0.5
				c0.1-0.2,0.2-0.4,0.2-0.7c0-0.3-0.1-0.5-0.2-0.7c-0.1-0.2-0.3-0.4-0.5-0.5c-0.2-0.1-0.4-0.2-0.7-0.2c-0.2,0-0.5,0.1-0.7,0.2
				c-0.2,0.1-0.3,0.3-0.5,0.5c-0.1,0.2-0.2,0.4-0.2,0.7c0,0.3,0.1,0.5,0.2,0.7c0.1,0.2,0.3,0.4,0.5,0.5
				C40,235.2,40.3,235.3,40.5,235.3z"/>
			<path class="st4" d="M47.2,233.9c0,0.1,0,0.1,0,0.2h-3.1c0,0.3,0.2,0.6,0.4,0.8c0.3,0.2,0.6,0.3,0.9,0.3c0.5,0,0.8-0.2,1.1-0.5
				l0.4,0.4c-0.2,0.2-0.4,0.4-0.7,0.5c-0.3,0.1-0.5,0.2-0.9,0.2c-0.4,0-0.8-0.1-1.1-0.2c-0.3-0.2-0.6-0.4-0.7-0.7
				c-0.2-0.3-0.3-0.6-0.3-1c0-0.4,0.1-0.7,0.2-1c0.2-0.3,0.4-0.5,0.7-0.7c0.3-0.2,0.6-0.3,1-0.3c0.4,0,0.7,0.1,1,0.3
				c0.3,0.2,0.5,0.4,0.7,0.7C47.2,233.2,47.2,233.5,47.2,233.9L47.2,233.9z M45.4,232.5c-0.3,0-0.6,0.1-0.8,0.3
				c-0.2,0.2-0.4,0.5-0.4,0.8h2.5c0-0.3-0.2-0.6-0.4-0.8C46,232.6,45.7,232.5,45.4,232.5L45.4,232.5z"/>
			<path class="st4" d="M50.2,232c0.4,0,0.7,0.1,1,0.2c0.3,0.2,0.5,0.4,0.7,0.7c0.2,0.3,0.3,0.6,0.3,1s-0.1,0.7-0.3,1
				c-0.2,0.3-0.4,0.5-0.7,0.7c-0.3,0.2-0.6,0.2-1,0.2c-0.3,0-0.5-0.1-0.8-0.2c-0.2-0.1-0.4-0.3-0.6-0.5v2h-0.7V232h0.7v0.6
				c0.2-0.2,0.3-0.4,0.6-0.5C49.7,232,50,232,50.2,232L50.2,232z M50.2,235.3c0.2,0,0.5-0.1,0.7-0.2c0.2-0.1,0.4-0.3,0.5-0.5
				c0.1-0.2,0.2-0.4,0.2-0.7c0-0.3-0.1-0.5-0.2-0.7c-0.1-0.2-0.3-0.4-0.5-0.5c-0.2-0.1-0.4-0.2-0.7-0.2c-0.2,0-0.5,0.1-0.7,0.2
				c-0.2,0.1-0.3,0.3-0.5,0.5c-0.1,0.2-0.2,0.4-0.2,0.7c0,0.3,0.1,0.5,0.2,0.7c0.1,0.2,0.3,0.4,0.5,0.5
				C49.7,235.2,49.9,235.3,50.2,235.3z"/>
			<path class="st4" d="M53.1,230.5h0.7v5.4h-0.7V230.5z"/>
			<path class="st4" d="M56.8,235.9c-0.4,0-0.7-0.1-1-0.3c-0.3-0.2-0.5-0.4-0.7-0.7c-0.2-0.3-0.3-0.6-0.3-1c0-0.4,0.1-0.7,0.3-1
				c0.2-0.3,0.4-0.5,0.7-0.7c0.3-0.2,0.6-0.3,1-0.3c0.4,0,0.7,0.1,1,0.3c0.3,0.2,0.5,0.4,0.7,0.7c0.2,0.3,0.3,0.6,0.3,1
				c0,0.4-0.1,0.7-0.3,1c-0.2,0.3-0.4,0.5-0.7,0.7C57.5,235.8,57.2,235.9,56.8,235.9z M56.8,235.3c0.2,0,0.5-0.1,0.7-0.2
				c0.2-0.1,0.4-0.3,0.5-0.5c0.1-0.2,0.2-0.4,0.2-0.7c0-0.3-0.1-0.5-0.2-0.7c-0.1-0.2-0.3-0.4-0.5-0.5c-0.2-0.1-0.4-0.2-0.7-0.2
				c-0.2,0-0.5,0.1-0.7,0.2c-0.2,0.1-0.3,0.3-0.5,0.5c-0.1,0.2-0.2,0.4-0.2,0.7c0,0.3,0.1,0.5,0.2,0.7c0.1,0.2,0.3,0.4,0.5,0.5
				C56.3,235.2,56.5,235.3,56.8,235.3z"/>
			<path class="st4" d="M63,232l-1.9,4.2c-0.2,0.4-0.4,0.7-0.6,0.8c-0.2,0.2-0.5,0.2-0.8,0.2c-0.2,0-0.4,0-0.5-0.1
				c-0.2-0.1-0.3-0.1-0.4-0.3l0.3-0.5c0.2,0.2,0.4,0.3,0.7,0.3c0.2,0,0.3,0,0.4-0.1c0.1-0.1,0.2-0.2,0.3-0.5l0.1-0.3L59,232h0.7
				l1.3,3.1l1.3-3.1L63,232z"/>
			<path class="st4" d="M63.6,235.9c-0.1,0-0.3,0-0.3-0.1c-0.1-0.1-0.1-0.2-0.1-0.4c0-0.1,0-0.3,0.1-0.3c0.1-0.1,0.2-0.1,0.3-0.1
				c0.1,0,0.2,0,0.3,0.1c0.1,0.1,0.1,0.2,0.1,0.4s0,0.3-0.1,0.4C63.8,235.8,63.7,235.9,63.6,235.9L63.6,235.9z"/>
			<path class="st4" d="M66.5,232c0.5,0,0.9,0.1,1.2,0.4c0.3,0.3,0.4,0.6,0.4,1.2v2.3h-0.7v-0.5c-0.1,0.2-0.3,0.3-0.5,0.4
				c-0.2,0.1-0.5,0.1-0.8,0.1c-0.4,0-0.8-0.1-1-0.3c-0.3-0.2-0.4-0.5-0.4-0.8s0.1-0.6,0.4-0.8c0.2-0.2,0.6-0.3,1.2-0.3h1.1v-0.1
				c0-0.3-0.1-0.5-0.3-0.7c-0.2-0.2-0.4-0.2-0.8-0.2c-0.2,0-0.4,0-0.7,0.1c-0.2,0.1-0.4,0.2-0.5,0.3l-0.3-0.5
				c0.2-0.2,0.4-0.3,0.7-0.4C65.9,232,66.2,232,66.5,232L66.5,232z M66.4,235.3c0.3,0,0.5-0.1,0.7-0.2c0.2-0.1,0.3-0.3,0.4-0.5v-0.5
				h-1.1c-0.6,0-0.9,0.2-0.9,0.6c0,0.2,0.1,0.3,0.2,0.5C65.9,235.3,66.1,235.3,66.4,235.3L66.4,235.3z"/>
			<path class="st4" d="M73.1,230.5v5.4h-0.7v-0.6c-0.2,0.2-0.3,0.4-0.6,0.5s-0.5,0.2-0.8,0.2c-0.4,0-0.7-0.1-1-0.2
				c-0.3-0.2-0.5-0.4-0.7-0.7c-0.2-0.3-0.2-0.6-0.2-1s0.1-0.7,0.2-1c0.2-0.3,0.4-0.5,0.7-0.7c0.3-0.2,0.6-0.2,1-0.2
				c0.3,0,0.5,0.1,0.8,0.2c0.2,0.1,0.4,0.3,0.6,0.5v-2.1L73.1,230.5z M71.1,235.3c0.2,0,0.5-0.1,0.7-0.2c0.2-0.1,0.4-0.3,0.5-0.5
				c0.1-0.2,0.2-0.4,0.2-0.7c0-0.3-0.1-0.5-0.2-0.7c-0.1-0.2-0.3-0.4-0.5-0.5c-0.2-0.1-0.4-0.2-0.7-0.2c-0.2,0-0.5,0.1-0.7,0.2
				c-0.2,0.1-0.3,0.3-0.5,0.5c-0.1,0.2-0.2,0.4-0.2,0.7c0,0.3,0.1,0.5,0.2,0.7c0.1,0.2,0.3,0.4,0.5,0.5
				C70.7,235.2,70.9,235.3,71.1,235.3z"/>
			<path class="st4" d="M76.1,235.9c-0.4,0-0.7-0.1-1-0.3c-0.3-0.2-0.5-0.4-0.7-0.7c-0.2-0.3-0.3-0.6-0.3-1s0.1-0.7,0.3-1
				c0.2-0.3,0.4-0.5,0.7-0.7c0.3-0.2,0.6-0.3,1-0.3s0.7,0.1,1,0.3c0.3,0.2,0.5,0.4,0.7,0.7c0.2,0.3,0.3,0.6,0.3,1s-0.1,0.7-0.3,1
				c-0.2,0.3-0.4,0.5-0.7,0.7C76.8,235.8,76.4,235.9,76.1,235.9z M76.1,235.3c0.2,0,0.5-0.1,0.7-0.2c0.2-0.1,0.4-0.3,0.5-0.5
				c0.1-0.2,0.2-0.4,0.2-0.7c0-0.3-0.1-0.5-0.2-0.7c-0.1-0.2-0.3-0.4-0.5-0.5c-0.2-0.1-0.4-0.2-0.7-0.2c-0.2,0-0.5,0.1-0.7,0.2
				c-0.2,0.1-0.3,0.3-0.5,0.5c-0.1,0.2-0.2,0.4-0.2,0.7c0,0.3,0.1,0.5,0.2,0.7c0.1,0.2,0.3,0.4,0.5,0.5
				C75.6,235.2,75.8,235.3,76.1,235.3z"/>
			<path class="st4" d="M80.7,235.9c-0.4,0-0.7-0.1-1-0.3c-0.3-0.2-0.5-0.4-0.7-0.7c-0.2-0.3-0.3-0.6-0.3-1s0.1-0.7,0.3-1
				c0.2-0.3,0.4-0.5,0.7-0.7c0.3-0.2,0.7-0.3,1-0.3c0.3,0,0.7,0.1,0.9,0.2c0.3,0.1,0.5,0.3,0.6,0.6l-0.5,0.3
				c-0.1-0.2-0.3-0.3-0.4-0.4c-0.2-0.1-0.4-0.1-0.6-0.1c-0.3,0-0.5,0.1-0.7,0.2c-0.2,0.1-0.4,0.3-0.5,0.5c-0.1,0.2-0.2,0.4-0.2,0.7
				c0,0.3,0.1,0.5,0.2,0.7c0.1,0.2,0.3,0.4,0.5,0.5c0.2,0.1,0.4,0.2,0.7,0.2c0.2,0,0.4,0,0.6-0.1c0.2-0.1,0.3-0.2,0.4-0.4l0.5,0.3
				c-0.1,0.3-0.4,0.5-0.6,0.6C81.3,235.8,81,235.9,80.7,235.9L80.7,235.9z"/>
		</g>
	</g>
	<path class="st1" d="M29.2,228.6c-0.3,0-0.5,0.3-0.5,0.8v6.1c0,0.4,0.2,0.8,0.5,0.8h4.9c0.3,0,0.5-0.3,0.5-0.8v-5.7
		c-0.9,0.2-1.3-0.3-1.2-1.2L29.2,228.6z"/>
	<g>
		<path class="st2" d="M33.5,228.6l1.1,1.2"/>
		<g>
			<path class="st3" d="M29.6,230.6h4.1"/>
			<path class="st3" d="M29.6,231.6h4.1"/>
			<path class="st3" d="M29.6,232.6h2.1"/>
			<path class="st3" d="M29.6,233.6h4.1"/>
			<path class="st3" d="M29.6,234.6h3.1"/>
		</g>
	</g>
	<g>
		<g transform="scale(1 .99998)">
			<path class="st4" d="M38.9,244.5h0.7v3.8h-0.7V244.5z M39.2,243.8c-0.1,0-0.2,0-0.3-0.1c-0.1-0.1-0.1-0.2-0.1-0.3s0-0.2,0.1-0.3
				c0.1-0.1,0.2-0.1,0.3-0.1c0.1,0,0.2,0,0.3,0.1c0.1,0.1,0.1,0.2,0.1,0.3c0,0.1,0,0.2-0.1,0.3C39.4,243.7,39.3,243.8,39.2,243.8z"
				/>
			<path class="st4" d="M42.9,244.5c0.5,0,0.9,0.1,1.2,0.4c0.3,0.3,0.4,0.7,0.4,1.2v2.2h-0.7v-2.1c0-0.4-0.1-0.7-0.3-0.8
				c-0.2-0.2-0.4-0.3-0.8-0.3c-0.4,0-0.7,0.1-0.9,0.3c-0.2,0.2-0.3,0.5-0.3,0.9v2h-0.7v-3.8h0.7v0.6c0.1-0.2,0.3-0.3,0.6-0.5
				C42.3,244.5,42.6,244.5,42.9,244.5L42.9,244.5z"/>
			<path class="st4" d="M49.4,243v5.4h-0.7v-0.6c-0.2,0.2-0.3,0.4-0.6,0.5s-0.5,0.2-0.8,0.2c-0.4,0-0.7-0.1-1-0.2s-0.5-0.4-0.7-0.7
				c-0.2-0.3-0.2-0.6-0.2-1s0.1-0.7,0.2-1c0.2-0.3,0.4-0.5,0.7-0.7s0.6-0.2,1-0.2c0.3,0,0.5,0.1,0.8,0.2c0.2,0.1,0.4,0.3,0.6,0.5
				V243H49.4z M47.5,247.8c0.2,0,0.5-0.1,0.7-0.2c0.2-0.1,0.4-0.3,0.5-0.5c0.1-0.2,0.2-0.4,0.2-0.7c0-0.3-0.1-0.5-0.2-0.7
				c-0.1-0.2-0.3-0.4-0.5-0.5c-0.2-0.1-0.4-0.2-0.7-0.2c-0.2,0-0.5,0.1-0.7,0.2c-0.2,0.1-0.3,0.3-0.5,0.5c-0.1,0.2-0.2,0.4-0.2,0.7
				s0.1,0.5,0.2,0.7c0.1,0.2,0.3,0.4,0.5,0.5C47,247.7,47.2,247.8,47.5,247.8z"/>
			<path class="st4" d="M54.2,246.4c0,0.1,0,0.1,0,0.2h-3.1c0,0.3,0.2,0.6,0.4,0.8c0.3,0.2,0.6,0.3,0.9,0.3c0.5,0,0.8-0.2,1.1-0.5
				l0.4,0.4c-0.2,0.2-0.4,0.4-0.7,0.5c-0.3,0.1-0.5,0.2-0.9,0.2c-0.4,0-0.8-0.1-1.1-0.2c-0.3-0.2-0.6-0.4-0.7-0.7
				c-0.2-0.3-0.3-0.6-0.3-1c0-0.4,0.1-0.7,0.2-1c0.2-0.3,0.4-0.5,0.7-0.7c0.3-0.2,0.6-0.3,1-0.3c0.4,0,0.7,0.1,1,0.3
				c0.3,0.2,0.5,0.4,0.7,0.7C54.1,245.7,54.2,246,54.2,246.4L54.2,246.4z M52.3,245c-0.3,0-0.6,0.1-0.8,0.3
				c-0.2,0.2-0.4,0.5-0.4,0.8h2.5c0-0.3-0.2-0.6-0.4-0.8C52.9,245.1,52.7,245,52.3,245L52.3,245z"/>
			<path class="st4" d="M57.5,248.3l-1.1-1.5l-1.1,1.5h-0.8l1.5-2l-1.4-1.9h0.8l1.1,1.4l1-1.4h0.8l-1.4,1.9l1.5,2H57.5z"/>
			<path class="st4" d="M59.2,248.4c-0.1,0-0.3,0-0.3-0.1c-0.1-0.1-0.1-0.2-0.1-0.4c0-0.1,0-0.3,0.1-0.3c0.1-0.1,0.2-0.1,0.3-0.1
				c0.1,0,0.2,0,0.3,0.1c0.1,0.1,0.1,0.2,0.1,0.4s0,0.3-0.1,0.4C59.5,248.3,59.4,248.4,59.2,248.4z"/>
			<path class="st4" d="M62.2,244.5c0.5,0,0.9,0.1,1.2,0.4c0.3,0.3,0.4,0.6,0.4,1.2v2.3h-0.7v-0.5c-0.1,0.2-0.3,0.3-0.5,0.4
				c-0.2,0.1-0.5,0.1-0.8,0.1c-0.4,0-0.8-0.1-1-0.3c-0.3-0.2-0.4-0.5-0.4-0.8s0.1-0.6,0.4-0.8c0.2-0.2,0.6-0.3,1.2-0.3h1.1V246
				c0-0.3-0.1-0.5-0.3-0.7s-0.4-0.2-0.8-0.2c-0.2,0-0.4,0-0.7,0.1c-0.2,0.1-0.4,0.2-0.5,0.3l-0.3-0.5c0.2-0.2,0.4-0.3,0.7-0.4
				C61.6,244.5,61.9,244.5,62.2,244.5L62.2,244.5z M62,247.8c0.3,0,0.5-0.1,0.7-0.2c0.2-0.1,0.3-0.3,0.4-0.5v-0.5H62
				c-0.6,0-0.9,0.2-0.9,0.6c0,0.2,0.1,0.3,0.2,0.5C61.5,247.8,61.7,247.8,62,247.8z"/>
			<path class="st4" d="M68.7,243v5.4h-0.7v-0.6c-0.2,0.2-0.3,0.4-0.6,0.5s-0.5,0.2-0.8,0.2c-0.4,0-0.7-0.1-1-0.2s-0.5-0.4-0.7-0.7
				c-0.2-0.3-0.2-0.6-0.2-1s0.1-0.7,0.2-1c0.2-0.3,0.4-0.5,0.7-0.7s0.6-0.2,1-0.2c0.3,0,0.5,0.1,0.8,0.2c0.2,0.1,0.4,0.3,0.6,0.5
				V243H68.7z M66.8,247.8c0.2,0,0.5-0.1,0.7-0.2c0.2-0.1,0.4-0.3,0.5-0.5c0.1-0.2,0.2-0.4,0.2-0.7s-0.1-0.5-0.2-0.7
				c-0.1-0.2-0.3-0.4-0.5-0.5s-0.4-0.2-0.7-0.2c-0.2,0-0.5,0.1-0.7,0.2c-0.2,0.1-0.3,0.3-0.5,0.5c-0.1,0.2-0.2,0.4-0.2,0.7
				s0.1,0.5,0.2,0.7c0.1,0.2,0.3,0.4,0.5,0.5C66.3,247.7,66.5,247.8,66.8,247.8z"/>
			<path class="st4" d="M71.7,248.4c-0.4,0-0.7-0.1-1-0.3c-0.3-0.2-0.5-0.4-0.7-0.7c-0.2-0.3-0.3-0.6-0.3-1s0.1-0.7,0.3-1
				c0.2-0.3,0.4-0.5,0.7-0.7c0.3-0.2,0.6-0.3,1-0.3c0.4,0,0.7,0.1,1,0.3c0.3,0.2,0.5,0.4,0.7,0.7c0.2,0.3,0.3,0.6,0.3,1
				c0,0.4-0.1,0.7-0.3,1c-0.2,0.3-0.4,0.5-0.7,0.7C72.4,248.3,72.1,248.4,71.7,248.4z M71.7,247.8c0.2,0,0.5-0.1,0.7-0.2
				c0.2-0.1,0.4-0.3,0.5-0.5c0.1-0.2,0.2-0.4,0.2-0.7s-0.1-0.5-0.2-0.7c-0.1-0.2-0.3-0.4-0.5-0.5c-0.2-0.1-0.4-0.2-0.7-0.2
				c-0.2,0-0.5,0.1-0.7,0.2c-0.2,0.1-0.3,0.3-0.5,0.5c-0.1,0.2-0.2,0.4-0.2,0.7s0.1,0.5,0.2,0.7c0.1,0.2,0.3,0.4,0.5,0.5
				C71.2,247.7,71.4,247.8,71.7,247.8z"/>
			<path class="st4" d="M76.3,248.4c-0.4,0-0.7-0.1-1-0.3c-0.3-0.2-0.5-0.4-0.7-0.7c-0.2-0.3-0.3-0.6-0.3-1s0.1-0.7,0.3-1
				c0.2-0.3,0.4-0.5,0.7-0.7c0.3-0.2,0.7-0.3,1-0.3c0.3,0,0.7,0.1,0.9,0.2c0.3,0.1,0.5,0.3,0.6,0.6l-0.5,0.3
				c-0.1-0.2-0.3-0.3-0.4-0.4c-0.2-0.1-0.4-0.1-0.6-0.1c-0.3,0-0.5,0.1-0.7,0.2c-0.2,0.1-0.4,0.3-0.5,0.5c-0.1,0.2-0.2,0.4-0.2,0.7
				c0,0.3,0.1,0.5,0.2,0.7c0.1,0.2,0.3,0.4,0.5,0.5c0.2,0.1,0.4,0.2,0.7,0.2c0.2,0,0.4,0,0.6-0.1s0.3-0.2,0.4-0.4l0.5,0.3
				c-0.1,0.3-0.4,0.5-0.6,0.6C77,248.3,76.7,248.4,76.3,248.4L76.3,248.4z"/>
		</g>
		<g transform="scale(1 .99998)">
			<path class="st4" d="M11.7,269c-0.1,0-0.3,0-0.3-0.1c-0.1-0.1-0.1-0.2-0.1-0.4c0-0.1,0-0.3,0.1-0.3c0.1-0.1,0.2-0.1,0.3-0.1
				c0.1,0,0.2,0,0.3,0.1c0.1,0.1,0.1,0.2,0.1,0.4c0,0.1,0,0.3-0.1,0.4C11.9,269,11.8,269,11.7,269z"/>
			<path class="st4" d="M15.3,269c-0.1,0-0.3,0-0.3-0.1c-0.1-0.1-0.1-0.2-0.1-0.4c0-0.1,0-0.3,0.1-0.3c0.1-0.1,0.2-0.1,0.3-0.1
				c0.1,0,0.2,0,0.3,0.1c0.1,0.1,0.1,0.2,0.1,0.4c0,0.1,0,0.3-0.1,0.4C15.5,269,15.4,269,15.3,269z"/>
			<path class="st4" d="M18.9,269c-0.1,0-0.3,0-0.3-0.1c-0.1-0.1-0.1-0.2-0.1-0.4c0-0.1,0-0.3,0.1-0.3c0.1-0.1,0.2-0.1,0.3-0.1
				c0.1,0,0.2,0,0.3,0.1s0.1,0.2,0.1,0.4c0,0.1,0,0.3-0.1,0.4C19.1,269,19,269,18.9,269z"/>
		</g>
		<path class="st1" d="M37.4,217.3c-0.3,0-0.5,0.3-0.5,0.8v6.1c0,0.4,0.2,0.8,0.5,0.8h4.9c0.3,0,0.5-0.3,0.5-0.8v-5.7
			c-0.9,0.2-1.3-0.3-1.2-1.2L37.4,217.3z"/>
	</g>
	<g>
		<path class="st2" d="M41.7,217.4l1.1,1.2"/>
		<g>
			<path class="st3" d="M37.8,219.4h4.1"/>
			<path class="st3" d="M37.8,220.4h4.1"/>
			<path class="st3" d="M37.8,221.3h2.1"/>
			<path class="st3" d="M37.8,222.3h4.1"/>
			<path class="st3" d="M37.8,223.3h3.1"/>
		</g>
	</g>
</g>
</svg>
