<svg version="1.1" viewBox="0 0 1.2700001 1.2700001" xmlns="http://www.w3.org/2000/svg" xmlns:cc="http://creativecommons.org/ns#" xmlns:dc="http://purl.org/dc/elements/1.1/" xmlns:rdf="http://www.w3.org/1999/02/22-rdf-syntax-ns#">
<title>Five</title>
<metadata>
<rdf:RDF>
<cc:Work rdf:about="">
<dc:format>image/svg+xml</dc:format>
<dc:type rdf:resource="http://purl.org/dc/dcmitype/StillImage"/>
<dc:title>Five</dc:title>
<cc:license rdf:resource="http://creativecommons.org/licenses/by-sa/4.0/"/>
<dc:creator>
<cc:Agent>
<dc:title>Sarah White</dc:title>
</cc:Agent>
</dc:creator>
<dc:publisher>
<cc:Agent>
<dc:title>OpenDevise</dc:title>
</cc:Agent>
</dc:publisher>
</cc:Work>
<cc:License rdf:about="http://creativecommons.org/licenses/by-sa/4.0/">
<cc:permits rdf:resource="http://creativecommons.org/ns#Reproduction"/>
<cc:permits rdf:resource="http://creativecommons.org/ns#Distribution"/>
<cc:requires rdf:resource="http://creativecommons.org/ns#Notice"/>
<cc:requires rdf:resource="http://creativecommons.org/ns#Attribution"/>
<cc:permits rdf:resource="http://creativecommons.org/ns#DerivativeWorks"/>
<cc:requires rdf:resource="http://creativecommons.org/ns#ShareAlike"/>
</cc:License>
</rdf:RDF>
</metadata>
<g transform="matrix(.26458 0 0 .26458 -.15847 .27456)" stroke-width="3.7795">
<circle cx="2.9989" cy="1.3623" r="2.4" fill="#1e88e5"/>
<g transform="translate(-70.034 -262.6)" fill="#fff" style="font-feature-settings:normal;font-variant-caps:normal;font-variant-ligatures:normal;font-variant-numeric:normal" aria-label="5">
<path d="m72.969 263.7q0.4699 0 0.69532 0.18415 0.22542 0.18098 0.22542 0.4953 0 0.20003-0.09843 0.36195-0.09842 0.16193-0.29528 0.25718-0.19685 0.0953-0.48578 0.0953-0.23812 0-0.46038-0.0667-0.22225-0.0698-0.37465-0.1905l0.17462-0.32067q0.12382 0.1016 0.29528 0.16192 0.17462 0.0571 0.35878 0.0571 0.21908 0 0.3429-0.0889 0.127-0.0921 0.127-0.25082 0-0.17145-0.13652-0.25718-0.13335-0.0889-0.46038-0.0889h-0.53658l0.1143-1.2097h1.3049v0.34607h-0.95568l-0.04763 0.51435z" fill="#fff" stroke-width=".99999" style="font-feature-settings:normal;font-variant-caps:normal;font-variant-ligatures:normal;font-variant-numeric:normal"/>
</g>
</g>
</svg>
