<svg version="1.1" viewBox="0 0 1.2700001 1.2700001" xmlns="http://www.w3.org/2000/svg" xmlns:cc="http://creativecommons.org/ns#" xmlns:dc="http://purl.org/dc/elements/1.1/" xmlns:rdf="http://www.w3.org/1999/02/22-rdf-syntax-ns#">
<title>Two</title>
<metadata>
<rdf:RDF>
<cc:Work rdf:about="">
<dc:format>image/svg+xml</dc:format>
<dc:type rdf:resource="http://purl.org/dc/dcmitype/StillImage"/>
<dc:title>Two</dc:title>
<cc:license rdf:resource="http://creativecommons.org/licenses/by-sa/4.0/"/>
<dc:creator>
<cc:Agent>
<dc:title>Sarah White</dc:title>
</cc:Agent>
</dc:creator>
<dc:publisher>
<cc:Agent>
<dc:title>OpenDevise</dc:title>
</cc:Agent>
</dc:publisher>
</cc:Work>
<cc:License rdf:about="http://creativecommons.org/licenses/by-sa/4.0/">
<cc:permits rdf:resource="http://creativecommons.org/ns#Reproduction"/>
<cc:permits rdf:resource="http://creativecommons.org/ns#Distribution"/>
<cc:requires rdf:resource="http://creativecommons.org/ns#Notice"/>
<cc:requires rdf:resource="http://creativecommons.org/ns#Attribution"/>
<cc:permits rdf:resource="http://creativecommons.org/ns#DerivativeWorks"/>
<cc:requires rdf:resource="http://creativecommons.org/ns#ShareAlike"/>
</cc:License>
</rdf:RDF>
</metadata>
<g transform="matrix(.97312 0 0 .97312 0 .034143)">
<circle cx=".65254" cy=".61746" r=".65254" fill="#1e88e5" stroke-width="1.0276"/>
<g transform="matrix(.27189 0 0 .27189 -7.557 -67.992)" fill="#fff" stroke-width="3.7795" style="font-feature-settings:normal;font-variant-caps:normal;font-variant-ligatures:normal;font-variant-numeric:normal" aria-label="2">
<path d="m31.056 253.12v0.34925h-1.6383v-0.27623l0.88265-0.8382q0.14922-0.14287 0.20002-0.24765 0.05398-0.10795 0.05398-0.21272 0-0.15558-0.10478-0.23813-0.10478-0.0825-0.30798-0.0825-0.33972 0-0.5207 0.23178l-0.28892-0.22225q0.13018-0.17463 0.34925-0.26988 0.22225-0.0984 0.4953-0.0984 0.36195 0 0.57785 0.17145t0.2159 0.46672q0 0.18098-0.0762 0.33973t-0.2921 0.36195l-0.59372 0.56515z" fill="#fff" stroke-width=".99999" style="font-feature-settings:normal;font-variant-caps:normal;font-variant-ligatures:normal;font-variant-numeric:normal"/>
</g>
</g>
</svg>
